<?xml version="1.0" encoding="utf-8"?>
<!-- Generator: Adobe Illustrator 23.0.5, SVG Export Plug-In . SVG Version: 6.00 Build 0)  -->
<svg version="1.1" id="Layer_1" xmlns="http://www.w3.org/2000/svg" xmlns:xlink="http://www.w3.org/1999/xlink" x="0px" y="0px"
	 width="154.7px" height="205.6px" viewBox="0 0 154.7 205.6" style="enable-background:new 0 0 154.7 205.6;" xml:space="preserve"
	>
<style type="text/css">
	.st0{fill-rule:evenodd;clip-rule:evenodd;fill:#2C302D;}
	.st1{fill:#2C302D;}
</style>
<g>
	<path class="st0" d="M0,30.4c0,3.1-1,53.3,11.5,98c0.3,0,0.6-0.1,0.9-0.1c0.5-0.1,1-0.3,1.5-0.4c0.7-0.3,1.3-0.4,2-0.5
		c0.6-0.1,1.1-0.3,1.7-0.4c0.8-0.3,1.5-0.5,2.2-0.7c0.8-0.3,1.7-0.5,2.5-0.7c0.7-0.2,1.5-0.4,2.2-0.5c0.8-0.3,1.6-0.5,2.3-0.7
		c-2.8-10.6-4.8-21.7-6.2-32.1c-1.1-8.3-1.8-16.2-2.3-23.2c-0.9-14.5-0.7-24.8-0.7-26c38.5-12.2,53.2-19.8,59.8-23.5
		c6.6,3.7,21.3,11.3,59.8,23.5c0,2.4,0.7,43.1-8.8,79.6c3.5,0,6.7,0.9,9.5,3c1.1,0.5,2,1,2.9,1.7l0.5,0.3c0.6,0.3,1.2,0.6,1.8,0.9
		c12.6-44.7,11.7-95.1,11.7-98.2C104.8,14.6,85.9,4.8,77.3,0C68.8,4.8,49.8,14.6,0,30.4L0,30.4z"/>
	<path class="st1" d="M22.5,130.9c4.6,15.6,10.8,30,19.3,40.9c19.4,24.9,51.6,24.9,71,0c8.4-10.8,14.7-25.3,19.3-40.9
		C97.7,118.9,56.9,118.9,22.5,130.9L22.5,130.9z M150.2,121.8l-1.7,6.4c-5.2,19.8-12.8,38.7-23.8,52.9c-25.5,32.7-69.3,32.7-94.8,0
		C18.8,166.9,11.3,148,6.1,128.2l-1.7-6.4C54.8,101.5,100.1,101.6,150.2,121.8L150.2,121.8z"/>
	<path class="st1" d="M77.6,131.7c21.2,0,41.3,3.5,59,9.8c-1,2.4-1.4,5-1.1,7.7c-17.3-6.3-37-9.9-57.9-9.9
		c-18.9,0-36.8,2.9-52.8,8.1c-0.5-2.5-1.7-4.9-3.4-6.8C38.4,134.9,57.5,131.7,77.6,131.7L77.6,131.7z"/>
	<path class="st1" d="M77.6,151.9c18.2,0,35.6,2.6,51.3,7.3c-1.8,1.9-3.1,4.2-3.8,6.8c-14.6-4.2-30.7-6.5-47.6-6.5
		c-17.3,0-33.7,2.4-48.7,6.8c-1-2.5-2.7-4.7-4.8-6.4C40.4,154.8,58.5,151.9,77.6,151.9L77.6,151.9z"/>
	<path class="st1" d="M77.6,171.5c14.3,0,28.1,1.6,41,4.6c-1.7,2-2.8,4.4-3.2,7c-11.9-2.6-24.5-4-37.7-4c-11.2,0-22.1,1-32.4,3
		c-1.3-2.7-3.3-5-5.8-6.5C51.5,173,64.3,171.5,77.6,171.5L77.6,171.5z"/>
	<path class="st0" d="M51,55.9c-11.2,0-20.2,9-20.2,20.2s9,20.2,20.2,20.2c11.2,0,20.2-9,20.2-20.2S62.2,55.9,51,55.9L51,55.9z
		 M44.6,76.1c0-3.5,2.9-6.4,6.4-6.4c3.5,0,6.4,2.9,6.4,6.4s-2.9,6.4-6.4,6.4S44.6,79.6,44.6,76.1L44.6,76.1z"/>
	<path class="st0" d="M103.6,55.9c-11.2,0-20.2,9-20.2,20.2s9,20.2,20.2,20.2c11.2,0,20.2-9,20.2-20.2S114.7,55.9,103.6,55.9
		L103.6,55.9z M97.2,76.1c0-3.5,2.9-6.4,6.4-6.4c3.5,0,6.4,2.9,6.4,6.4s-2.9,6.4-6.4,6.4C100,82.5,97.2,79.6,97.2,76.1L97.2,76.1z"
		/>
</g>
</svg>
