<svg xmlns="http://www.w3.org/2000/svg" xmlns:xlink="http://www.w3.org/1999/xlink" width="753" height="43" viewBox="0 0 753 43"><defs><path id="p0gga" d="M1119 392v-3h-3v3z"/><path id="p0ggb" d="M1099 392v-3h-3v3z"/><path id="p0ggc" d="M1079 392v-3h-3v3z"/><path id="p0ggd" d="M1059 392v-3h-3v3z"/><path id="p0gge" d="M1119 372v-3h-3v3z"/><path id="p0ggf" d="M1099 372v-3h-3v3z"/><path id="p0ggg" d="M1079 372v-3h-3v3z"/><path id="p0ggh" d="M1119 412v-3h-3v3z"/><path id="p0ggi" d="M1139 392v-3h-3v3z"/><path id="p0ggj" d="M1139 372v-3h-3v3z"/><path id="p0ggk" d="M1139 412v-3h-3v3z"/><path id="p0ggl" d="M1099 412v-3h-3v3z"/><path id="p0ggm" d="M1079 412v-3h-3v3z"/><path id="p0ggn" d="M1039 392v-3h-3v3z"/><path id="p0ggo" d="M1059 372v-3h-3v3z"/><path id="p0ggp" d="M1039 372v-3h-3v3z"/><path id="p0ggq" d="M1039 412v-3h-3v3z"/><path id="p0ggr" d="M1019 392v-3h-3v3z"/><path id="p0ggs" d="M1019 372v-3h-3v3z"/><path id="p0ggt" d="M1019 412v-3h-3v3z"/><path id="p0ggu" d="M999 392v-3h-3v3z"/><path id="p0ggv" d="M999 372v-3h-3v3z"/><path id="p0ggw" d="M999 412v-3h-3v3z"/><path id="p0ggx" d="M979 392v-3h-3v3z"/><path id="p0ggy" d="M979 372v-3h-3v3z"/><path id="p0ggz" d="M979 412v-3h-3v3z"/><path id="p0ggA" d="M959 392v-3h-3v3z"/><path id="p0ggB" d="M959 372v-3h-3v3z"/><path id="p0ggC" d="M959 412v-3h-3v3z"/><path id="p0ggD" d="M939 392v-3h-3v3z"/><path id="p0ggE" d="M939 372v-3h-3v3z"/><path id="p0ggF" d="M939 412v-3h-3v3z"/><path id="p0ggG" d="M919 392v-3h-3v3z"/><path id="p0ggH" d="M919 372v-3h-3v3z"/><path id="p0ggI" d="M919 412v-3h-3v3z"/><path id="p0ggJ" d="M899 392v-3h-3v3z"/><path id="p0ggK" d="M899 372v-3h-3v3z"/><path id="p0ggL" d="M899 412v-3h-3v3z"/><path id="p0ggM" d="M879 392v-3h-3v3z"/><path id="p0ggN" d="M879 372v-3h-3v3z"/><path id="p0ggO" d="M879 412v-3h-3v3z"/><path id="p0ggP" d="M859 392v-3h-3v3z"/><path id="p0ggQ" d="M859 412v-3h-3v3z"/><path id="p0ggR" d="M1059 412v-3h-3v3z"/><path id="p0ggS" d="M1589 392v-3h-3v3z"/><path id="p0ggT" d="M1569 392v-3h-3v3z"/><path id="p0ggU" d="M1549 392v-3h-3v3z"/><path id="p0ggV" d="M1529 392v-3h-3v3z"/><path id="p0ggW" d="M1589 372v-3h-3v3z"/><path id="p0ggX" d="M1569 372v-3h-3v3z"/><path id="p0ggY" d="M1549 372v-3h-3v3z"/><path id="p0ggZ" d="M1529 372v-3h-3v3z"/><path id="p0ggaa" d="M1589 412v-3h-3v3z"/><path id="p0ggab" d="M1609 392v-3h-3v3z"/><path id="p0ggac" d="M1609 372v-3h-3v3z"/><path id="p0ggad" d="M1609 412v-3h-3v3z"/><path id="p0ggae" d="M1569 412v-3h-3v3z"/><path id="p0ggaf" d="M1549 412v-3h-3v3z"/><path id="p0ggag" d="M1529 412v-3h-3v3z"/><path id="p0ggah" d="M1469 392v-3h-3v3z"/><path id="p0ggai" d="M1489 392v-3h-3v3z"/><path id="p0ggaj" d="M1509 392v-3h-3v3z"/><path id="p0ggak" d="M1469 372v-3h-3v3z"/><path id="p0ggal" d="M1489 372v-3h-3v3z"/><path id="p0ggam" d="M1509 372v-3h-3v3z"/><path id="p0ggan" d="M1469 412v-3h-3v3z"/><path id="p0ggao" d="M1489 412v-3h-3v3z"/><path id="p0ggap" d="M1509 412v-3h-3v3z"/><path id="p0ggaq" d="M1449 392v-3h-3v3z"/><path id="p0ggar" d="M1429 392v-3h-3v3z"/><path id="p0ggas" d="M1409 392v-3h-3v3z"/><path id="p0ggat" d="M1449 372v-3h-3v3z"/><path id="p0ggau" d="M1429 372v-3h-3v3z"/><path id="p0ggav" d="M1409 372v-3h-3v3z"/><path id="p0ggaw" d="M1449 412v-3h-3v3z"/><path id="p0ggax" d="M1429 412v-3h-3v3z"/><path id="p0ggay" d="M1409 412v-3h-3v3z"/><path id="p0ggaz" d="M1329 392v-3h-3v3z"/><path id="p0ggaA" d="M1329 372v-3h-3v3z"/><path id="p0ggaB" d="M1329 412v-3h-3v3z"/><path id="p0ggaC" d="M1349 392v-3h-3v3z"/><path id="p0ggaD" d="M1369 392v-3h-3v3z"/><path id="p0ggaE" d="M1389 392v-3h-3v3z"/><path id="p0ggaF" d="M1349 372v-3h-3v3z"/><path id="p0ggaG" d="M1369 372v-3h-3v3z"/><path id="p0ggaH" d="M1389 372v-3h-3v3z"/><path id="p0ggaI" d="M1349 412v-3h-3v3z"/><path id="p0ggaJ" d="M1369 412v-3h-3v3z"/><path id="p0ggaK" d="M1389 412v-3h-3v3z"/></defs><g><g transform="translate(-856 -369)"><g><use fill="#fff" xlink:href="#p0gga"/></g><g><use fill="#2700c3" xlink:href="#p0ggb"/></g><g><use fill="#2700c3" xlink:href="#p0ggc"/></g><g><use fill="#2700c3" xlink:href="#p0ggd"/></g><g><use fill="#2700c3" xlink:href="#p0gge"/></g><g><use fill="#2700c3" xlink:href="#p0ggf"/></g><g><use fill="#2700c3" xlink:href="#p0ggg"/></g><g><use fill="#2700c3" xlink:href="#p0ggh"/></g><g><use fill="#fff" xlink:href="#p0ggi"/></g><g><use fill="#2700c3" xlink:href="#p0ggj"/></g><g><use fill="#2700c3" xlink:href="#p0ggk"/></g><g><use fill="#2700c3" xlink:href="#p0ggl"/></g><g><use fill="#2700c3" xlink:href="#p0ggm"/></g><g><use fill="#2700c3" xlink:href="#p0ggn"/></g><g><use fill="#2700c3" xlink:href="#p0ggo"/></g><g><use fill="#2700c3" xlink:href="#p0ggp"/></g><g><use fill="#2700c3" xlink:href="#p0ggq"/></g><g><use fill="#2700c3" xlink:href="#p0ggr"/></g><g><use fill="#2700c3" xlink:href="#p0ggs"/></g><g><use fill="#2700c3" xlink:href="#p0ggt"/></g><g><use fill="#2700c3" xlink:href="#p0ggu"/></g><g><use fill="#2700c3" xlink:href="#p0ggv"/></g><g><use fill="#2700c3" xlink:href="#p0ggw"/></g><g><use fill="#2700c3" xlink:href="#p0ggx"/></g><g><use fill="#2700c3" xlink:href="#p0ggy"/></g><g><use fill="#2700c3" xlink:href="#p0ggz"/></g><g><use fill="#2700c3" xlink:href="#p0ggA"/></g><g><use fill="#2700c3" xlink:href="#p0ggB"/></g><g><use fill="#2700c3" xlink:href="#p0ggC"/></g><g><use fill="#2700c3" xlink:href="#p0ggD"/></g><g><use fill="#2700c3" xlink:href="#p0ggE"/></g><g><use fill="#2700c3" xlink:href="#p0ggF"/></g><g><use fill="#2700c3" xlink:href="#p0ggG"/></g><g><use fill="#2700c3" xlink:href="#p0ggH"/></g><g><use fill="#2700c3" xlink:href="#p0ggI"/></g><g><use fill="#2700c3" xlink:href="#p0ggJ"/></g><g><use fill="#2700c3" xlink:href="#p0ggK"/></g><g><use fill="#2700c3" xlink:href="#p0ggL"/></g><g><use fill="#2700c3" xlink:href="#p0ggM"/></g><g><use fill="#2700c3" xlink:href="#p0ggN"/></g><g><use fill="#2700c3" xlink:href="#p0ggO"/></g><g><use fill="#2700c3" xlink:href="#p0ggP"/></g><g><use fill="#2700c3" xlink:href="#p0ggQ"/></g><g><use fill="#2700c3" xlink:href="#p0ggR"/></g></g><g transform="matrix(-1 0 0 1 2079 -369)"><g><use fill="#fff" xlink:href="#p0ggS"/></g><g><use fill="#2700c3" xlink:href="#p0ggT"/></g><g><use fill="#2700c3" xlink:href="#p0ggU"/></g><g><use fill="#2700c3" xlink:href="#p0ggV"/></g><g><use fill="#2700c3" xlink:href="#p0ggW"/></g><g><use fill="#2700c3" xlink:href="#p0ggX"/></g><g><use fill="#2700c3" xlink:href="#p0ggY"/></g><g><use fill="#2700c3" xlink:href="#p0ggZ"/></g><g><use fill="#2700c3" xlink:href="#p0ggaa"/></g><g><use fill="#fff" xlink:href="#p0ggab"/></g><g><use fill="#2700c3" xlink:href="#p0ggac"/></g><g><use fill="#2700c3" xlink:href="#p0ggad"/></g><g><use fill="#2700c3" xlink:href="#p0ggae"/></g><g><use fill="#2700c3" xlink:href="#p0ggaf"/></g><g><use fill="#2700c3" xlink:href="#p0ggag"/></g><g><use fill="#2700c3" xlink:href="#p0ggah"/></g><g><use fill="#2700c3" xlink:href="#p0ggai"/></g><g><use fill="#2700c3" xlink:href="#p0ggaj"/></g><g><use fill="#2700c3" xlink:href="#p0ggak"/></g><g><use fill="#2700c3" xlink:href="#p0ggal"/></g><g><use fill="#2700c3" xlink:href="#p0ggam"/></g><g><use fill="#2700c3" xlink:href="#p0ggan"/></g><g><use fill="#2700c3" xlink:href="#p0ggao"/></g><g><use fill="#2700c3" xlink:href="#p0ggap"/></g><g><use fill="#2700c3" xlink:href="#p0ggaq"/></g><g><use fill="#2700c3" xlink:href="#p0ggar"/></g><g><use fill="#2700c3" xlink:href="#p0ggas"/></g><g><use fill="#2700c3" xlink:href="#p0ggat"/></g><g><use fill="#2700c3" xlink:href="#p0ggau"/></g><g><use fill="#2700c3" xlink:href="#p0ggav"/></g><g><use fill="#2700c3" xlink:href="#p0ggaw"/></g><g><use fill="#2700c3" xlink:href="#p0ggax"/></g><g><use fill="#2700c3" xlink:href="#p0ggay"/></g><g><use fill="#2700c3" xlink:href="#p0ggaz"/></g><g><use fill="#2700c3" xlink:href="#p0ggaA"/></g><g><use fill="#2700c3" xlink:href="#p0ggaB"/></g><g><use fill="#2700c3" xlink:href="#p0ggaC"/></g><g><use fill="#2700c3" xlink:href="#p0ggaD"/></g><g><use fill="#2700c3" xlink:href="#p0ggaE"/></g><g><use fill="#2700c3" xlink:href="#p0ggaF"/></g><g><use fill="#2700c3" xlink:href="#p0ggaG"/></g><g><use fill="#2700c3" xlink:href="#p0ggaH"/></g><g><use fill="#2700c3" xlink:href="#p0ggaI"/></g><g><use fill="#2700c3" xlink:href="#p0ggaJ"/></g><g><use fill="#2700c3" xlink:href="#p0ggaK"/></g></g></g></svg>