<svg width="163px" height="63px" viewBox="0 0 163 63" version="1.1" xmlns="http://www.w3.org/2000/svg" xmlns:xlink="http://www.w3.org/1999/xlink">
    <g id="RDB-Web-Design" stroke="none" stroke-width="1" fill="none" fill-rule="evenodd">
        <g id="React-day-Berlin-2018-web" transform="translate(-1262.000000, -811.000000)">
            <g id="dots" transform="translate(1262.000000, 811.000000)">
                <rect id="Rectangle" fill="#230CEA" x="0" y="20" width="3" height="3"></rect>
                <rect id="Rectangle" fill="#230CEA" x="20" y="20" width="3" height="3"></rect>
                <rect id="Rectangle" fill="#230CEA" x="0" y="0" width="3" height="3"></rect>
                <rect id="Rectangle" fill="#230CEA" x="20" y="0" width="3" height="3"></rect>
                <rect id="Rectangle" fill="#230CEA" x="0" y="40" width="3" height="3"></rect>
                <rect id="Rectangle" fill="#230CEA" x="20" y="40" width="3" height="3"></rect>
                <rect id="Rectangle" fill="#230CEA" x="0" y="60" width="3" height="3"></rect>
                <rect id="Rectangle" fill="#230CEA" x="20" y="60" width="3" height="3"></rect>
                <rect id="Rectangle" fill="#023753" opacity="0.200000003" x="40" y="20" width="3" height="3"></rect>
                <rect id="Rectangle" fill="#023753" opacity="0.200000003" x="60" y="20" width="3" height="3"></rect>
                <rect id="Rectangle" fill="#023753" opacity="0.200000003" x="40" y="0" width="3" height="3"></rect>
                <rect id="Rectangle" fill="#023753" opacity="0.200000003" x="60" y="0" width="3" height="3"></rect>
                <rect id="Rectangle" fill="#023753" opacity="0.200000003" x="40" y="40" width="3" height="3"></rect>
                <rect id="Rectangle" fill="#023753" opacity="0.200000003" x="60" y="40" width="3" height="3"></rect>
                <rect id="Rectangle" fill="#023753" opacity="0.200000003" x="40" y="60" width="3" height="3"></rect>
                <rect id="Rectangle" fill="#023753" opacity="0.200000003" x="60" y="60" width="3" height="3"></rect>
                <rect id="Rectangle" fill="#023753" opacity="0.200000003" x="80" y="20" width="3" height="3"></rect>
                <rect id="Rectangle" fill="#023753" opacity="0.200000003" x="100" y="20" width="3" height="3"></rect>
                <rect id="Rectangle" fill="#023753" opacity="0.200000003" x="80" y="0" width="3" height="3"></rect>
                <rect id="Rectangle" fill="#023753" opacity="0.200000003" x="100" y="0" width="3" height="3"></rect>
                <rect id="Rectangle" fill="#023753" opacity="0.200000003" x="80" y="40" width="3" height="3"></rect>
                <rect id="Rectangle" fill="#023753" opacity="0.200000003" x="100" y="40" width="3" height="3"></rect>
                <rect id="Rectangle" fill="#023753" opacity="0.200000003" x="80" y="60" width="3" height="3"></rect>
                <rect id="Rectangle" fill="#023753" opacity="0.200000003" x="100" y="60" width="3" height="3"></rect>
                <rect id="Rectangle" fill="#023753" opacity="0.200000003" x="120" y="20" width="3" height="3"></rect>
                <rect id="Rectangle" fill="#023753" opacity="0.200000003" x="140" y="20" width="3" height="3"></rect>
                <rect id="Rectangle" fill="#023753" opacity="0.200000003" x="120" y="0" width="3" height="3"></rect>
                <rect id="Rectangle" fill="#023753" opacity="0.200000003" x="140" y="0" width="3" height="3"></rect>
                <rect id="Rectangle" fill="#023753" opacity="0.200000003" x="120" y="40" width="3" height="3"></rect>
                <rect id="Rectangle" fill="#023753" opacity="0.200000003" x="140" y="40" width="3" height="3"></rect>
                <rect id="Rectangle" fill="#023753" opacity="0.200000003" x="120" y="60" width="3" height="3"></rect>
                <rect id="Rectangle" fill="#023753" opacity="0.200000003" x="140" y="60" width="3" height="3"></rect>
                <rect id="Rectangle" fill="#023753" opacity="0.200000003" x="160" y="20" width="3" height="3"></rect>
                <rect id="Rectangle" fill="#023753" opacity="0.200000003" x="160" y="0" width="3" height="3"></rect>
                <rect id="Rectangle" fill="#023753" opacity="0.200000003" x="160" y="40" width="3" height="3"></rect>
                <rect id="Rectangle" fill="#023753" opacity="0.200000003" x="160" y="60" width="3" height="3"></rect>
            </g>
        </g>
    </g>
</svg>
