<?xml version="1.0" encoding="UTF-8"?>
<svg width="18px" height="18px" viewBox="0 0 18 18" version="1.1" xmlns="http://www.w3.org/2000/svg" xmlns:xlink="http://www.w3.org/1999/xlink">
    <g id="Symbols" stroke="none" stroke-width="1" fill="none" fill-rule="evenodd">
        <g id="speakers-/-case-study" transform="translate(-309.000000, -3.000000)" fill="#999999">
            <g id="Group-10">
                <g id="Group-9" transform="translate(160.000000, 0.000000)">
                    <g id="Group-42" transform="translate(117.000000, 0.000000)">
                        <g id="Group-38" transform="translate(29.000000, 0.000000)">
                            <path d="M9.20460971,16.8191243 C9.20460971,16.9143464 9.13808889,16.9679088 9.00504669,16.9798114 C8.87200449,16.9917139 8.80548366,16.9500547 8.80548366,16.8548325 C8.80548366,16.7596103 8.86595749,16.7119995 8.9869046,16.7119995 C9.05947297,16.7119995 9.11389925,16.7239021 9.15018343,16.7477078 C9.18646762,16.7715134 9.20460971,16.7953186 9.20460971,16.8191243 Z M7.65890069,16.8158781 C7.68309033,16.7206559 7.7556587,16.6908992 7.8766058,16.7266075 C7.99755291,16.7623157 8.05197919,16.8099265 8.03988464,16.8694404 C8.0277901,16.9289544 7.99755291,16.9706136 7.94917418,16.9944193 C7.90079545,17.018225 7.85241616,17.018225 7.80403743,16.9944193 C7.7556587,16.9706136 7.71332697,16.9408569 7.67704278,16.9051487 C7.64075859,16.8694404 7.63471104,16.8396838 7.65890069,16.8158781 Z M9.5509601,16.7119995 C9.67190721,16.7119995 9.73842859,16.7477078 9.75052313,16.8191243 C9.76261767,16.8905407 9.70819139,16.9500547 9.58724429,16.9976655 C9.53886556,16.9976655 9.49653383,16.9917139 9.46024964,16.9798114 C9.42396545,16.9679088 9.39977581,16.926249 9.38768127,16.8548325 C9.37558672,16.783416 9.430013,16.7358052 9.5509601,16.7119995 Z M11.8896469,3 C13.5345337,3 15.0584732,3.37800155 16.4614652,4.1340041 C17.8644573,4.89000665 18.9650801,5.91769786 19.7633341,7.21707774 C20.5857778,8.5637076 20.9969994,10.0402756 20.9969994,11.6467812 C20.9969994,13.6076631 20.4345931,15.3618257 19.3097807,16.909269 C18.1849682,18.4567123 16.7154552,19.525747 14.9012415,20.1163743 C14.7077256,20.1636243 14.5565409,20.1399996 14.4476881,20.0454991 C14.3388353,19.9509986 14.2844089,19.8328733 14.2844089,19.6911228 L14.2844089,16.7143621 C14.2844089,15.9583595 14.0787978,15.4149822 13.6675762,15.0842312 C14.5625885,14.9897306 15.2278,14.8716054 15.6632112,14.7298549 C16.3405179,14.4936038 16.8605922,14.1392276 17.223435,13.666726 C17.6346566,13.052474 17.8402676,12.2137833 17.8402676,11.1506544 C17.8402676,10.7017776 17.7556045,10.3119637 17.5862777,9.98121272 C17.4653303,9.74496169 17.2355296,9.4496483 16.8968765,9.09527202 C16.9936348,8.85902099 17.0541082,8.57551997 17.0782979,8.24476895 C17.1024876,7.72501689 17.0178239,7.20526537 16.824308,6.68551332 C16.5824126,6.61463806 16.2437596,6.66188805 15.8083483,6.82726383 C15.5180742,6.94538908 15.1794211,7.11076485 14.7923887,7.32339062 L14.3206931,7.64232927 C13.570818,7.42970351 12.8028012,7.32339062 12.0166418,7.32339062 C11.2304824,7.32339062 10.4745602,7.42970351 9.74887476,7.64232927 L9.27717921,7.32339062 C8.89014678,7.11076485 8.53939918,6.94538908 8.2249353,6.82726383 C7.78952402,6.66188805 7.46296557,6.61463806 7.24525993,6.68551332 C7.02755429,7.20526537 6.94289117,7.72501689 6.99127002,8.24476895 C6.99127002,8.57551997 7.03964887,8.84720863 7.13640711,9.0598344 C6.84613293,9.41421068 6.63447485,9.73905578 6.50143233,10.0343692 C6.36838982,10.3296826 6.30186883,10.7017776 6.30186883,11.1506544 C6.30186883,12.2137833 6.49538477,13.0406611 6.8824172,13.6312884 C7.22107023,14.1274152 7.72905005,14.4936038 8.40635666,14.7298549 C8.84176794,14.8716054 9.49488485,14.9897306 10.3657074,15.0842312 C10.0512435,15.3677322 9.85772758,15.7693585 9.78515903,16.2891105 C9.37393746,16.478111 8.97481046,16.5489863 8.58777803,16.5017363 C7.95885081,16.4544863 7.47506014,16.1355476 7.13640711,15.5449203 C6.99127002,15.2850446 6.79775408,15.0724188 6.55585874,14.907043 C6.38653195,14.8125425 6.20511059,14.7298549 6.01159465,14.6589796 L5.75760474,14.623542 C5.49152026,14.623542 5.35243018,14.6648861 5.3403356,14.7475737 C5.32824103,14.8302613 5.38266744,14.9188554 5.50361483,15.0133559 L5.68503619,15.1551064 C5.85436299,15.2496069 6.02368922,15.4031698 6.19301602,15.6157956 C6.33815311,15.7811714 6.4591005,15.9701719 6.55585874,16.1827976 L6.70099584,16.4662987 C6.82194323,16.8206749 7.05174399,17.0923636 7.39039702,17.2813641 C7.6806712,17.4467399 8.03141936,17.5530528 8.44264094,17.6003028 C8.73291512,17.623928 9.03528387,17.6121151 9.34974776,17.5648651 L9.74887476,17.5294275 L9.78515903,19.6911228 C9.78515903,19.8328733 9.73073262,19.9509986 9.6218798,20.0454991 C9.51302699,20.1399996 9.36184233,20.1636243 9.16832639,20.1163743 C7.32992305,19.525747 5.84226786,18.4567123 4.70536083,16.909269 C3.56845379,15.3618257 3,13.6076631 3,11.6467812 C3,10.0402756 3.38703243,8.57551997 4.16109673,7.25251537 C4.93516104,5.92951077 5.99950008,4.89000665 7.35411275,4.1340041 C8.70872542,3.37800155 10.2205703,3 11.8896469,3 Z M6.51231747,15.0265661 C6.5606962,14.9789553 6.62117003,14.9908578 6.6937384,15.0622743 C6.76630677,15.1336908 6.77840132,15.1932048 6.73002259,15.2408156 C6.68164386,15.2884264 6.62117003,15.2765238 6.54860165,15.2051073 C6.47603328,15.1336908 6.46393874,15.0741769 6.51231747,15.0265661 Z M5.91080504,15.0388089 C5.95918377,14.9911981 6.0196576,14.9852466 6.09222597,15.0209548 C6.16479434,15.0566631 6.18898398,15.1042739 6.16479434,15.1637878 C6.1406047,15.2233017 6.08617842,15.2292527 6.0015155,15.1816419 C5.91685259,15.1340311 5.8866154,15.0864198 5.91080504,15.0388089 Z M7.10012275,16.1644717 C7.12431239,16.140666 7.16059658,16.134715 7.20897531,16.1466175 C7.25735404,16.1585201 7.29968578,16.1823258 7.33596996,16.218034 C7.37225415,16.2537423 7.39644379,16.2954021 7.40853834,16.3430129 C7.42063288,16.3906237 7.41458588,16.426332 7.39039624,16.4501376 C7.31782787,16.5215541 7.23316495,16.5096516 7.13640694,16.4144294 C7.08802821,16.3668186 7.06383856,16.3192072 7.06383856,16.2715964 C7.06383856,16.2239856 7.07593311,16.1882773 7.10012275,16.1644717 Z M7.10012261,15.5931383 C7.14850134,15.5693327 7.19083308,15.5633817 7.22711727,15.5752842 C7.26340145,15.5871868 7.29363809,15.616944 7.31782773,15.6645548 C7.3903961,15.759777 7.3903961,15.8311935 7.31782773,15.8788043 C7.29363809,15.90261 7.26340145,15.90261 7.22711727,15.8788043 C7.19083308,15.8549986 7.14850134,15.8311935 7.10012261,15.8073878 C7.05174388,15.6883605 7.05174388,15.616944 7.10012261,15.5931383 Z" id="github"></path>
                        </g>
                    </g>
                </g>
            </g>
        </g>
    </g>
</svg>
