<?xml version="1.0" encoding="UTF-8"?>
<svg width="14px" height="14px" viewBox="0 0 14 14" version="1.1" xmlns="http://www.w3.org/2000/svg" xmlns:xlink="http://www.w3.org/1999/xlink">
    <!-- Generator: Sketch 52.2 (67145) - http://www.bohemiancoding.com/sketch -->
    <title>Slack</title>
    <desc>Created with Sketch.</desc>
    <g id="RDB-Web-Design" stroke="none" stroke-width="1" fill="none" fill-rule="evenodd">
        <g id="React-day-Berlin-2018-web" transform="translate(-1103.000000, -41.000000)" fill="#FFFFFF">
            <g id="1-Screen" transform="translate(-12.000000, -4.000000)">
                <g id="header" transform="translate(147.000000, 20.000000)">
                    <g id="social" transform="translate(960.000000, 17.000000)">
                        <g id="slack">
                            <path d="M21.4139461,13.0756869 C19.9710686,8.26492829 17.8863774,7.14273879 13.0756188,8.58605386 C8.2652977,10.0289314 7.1426707,12.1136226 8.58598577,16.9243812 C10.0293008,21.7347023 12.1139921,22.8573293 16.9243131,21.4140142 C21.7350717,19.9706992 22.8572612,17.8860079 21.4139461,13.0756869 M18.9810043,16.1985674 L18.0740652,16.502193 L18.3881907,17.4410696 C18.5155035,17.8208203 18.3107531,18.2320711 17.9305649,18.3593838 C17.8478773,18.3873838 17.7638771,18.3991964 17.681627,18.3970088 C17.3850015,18.3891338 17.1115635,18.1992585 17.0122508,17.901758 L16.6976877,16.9633188 L14.8273719,17.5898199 L15.1414975,18.5282591 C15.2688102,18.9084473 15.0640598,19.319698 14.6838716,19.4470107 C14.601184,19.4745733 14.5171838,19.4863858 14.4349337,19.4841983 C14.1383082,19.4767608 13.8648702,19.2864479 13.7655575,18.9893849 L13.4509944,18.0505082 L12.5440553,18.3545713 C12.4613677,18.3821338 12.37693,18.3939463 12.2946799,18.3917588 C11.9984919,18.3843213 11.7250539,18.1940085 11.6253037,17.896508 C11.497991,17.5167573 11.7027413,17.1055065 12.0829295,16.9781938 L12.9903061,16.6741308 L12.3869925,14.8738151 L11.4800534,15.1778781 C11.3973658,15.2054407 11.3133656,15.2172532 11.230678,15.2150657 C10.93449,15.2076282 10.661052,15.0173153 10.5613018,14.7198148 C10.4339891,14.3400641 10.6391769,13.9288134 11.0189276,13.8015007 L11.9263042,13.4974376 L11.6117412,12.5589984 C11.4844284,12.1788103 11.6891788,11.7675595 12.069367,11.6406843 C12.4495552,11.5133716 12.8608059,11.7181219 12.9881186,12.0983101 L13.3022442,13.0367493 L15.1729975,12.4102482 L14.8584345,11.471809 C14.7311217,11.0916208 14.9363096,10.6803701 15.3160603,10.5530574 C15.6962484,10.4257446 16.1074992,10.6309325 16.2348119,11.0106832 L16.5489375,11.9495599 L17.4563141,11.6454968 C17.8365023,11.5181841 18.2473155,11.723372 18.3746282,12.1031226 C18.5019409,12.4833108 18.2971906,12.8945615 17.9170024,13.0218743 L17.0100633,13.3254998 L17.6129394,15.126253 L18.520316,14.82219 C18.9000667,14.6953148 19.3113174,14.9000651 19.4386301,15.2798158 C19.5659428,15.660004 19.3611925,16.0712547 18.9810043,16.1985674 Z M13.7632388,14.4129955 L14.3661148,16.2133112 L16.2368682,15.5868101 L15.6339921,13.7864944 L13.7632388,14.4129955 Z" id="Slack"></path>
                        </g>
                    </g>
                </g>
            </g>
        </g>
    </g>
</svg>