<svg width="92" height="96" viewBox="0 0 92 96" fill="none" xmlns="http://www.w3.org/2000/svg">
<path d="M6.0248 35.244L0 32.9868L0.49914 31.6691L5.31914 33.4748L6.45036 30.4886L7.65515 30.94L6.02396 35.2448L6.0248 35.244Z" fill="#43FF01"/>
<path d="M6.0248 35.244L0 32.9868L0.49914 31.6691L5.31914 33.4748L6.45036 30.4886L7.65515 30.94L6.02396 35.2448L6.0248 35.244Z" fill="#43FF01"/>
<path d="M9.78381 25.2269C10.0313 26.1073 9.91508 26.9736 9.43768 27.8257C8.96027 28.6779 8.28221 29.2291 7.40517 29.4785C6.52812 29.7287 5.682 29.6281 4.8685 29.1767C4.06001 28.7286 3.53244 28.0643 3.28496 27.1839C3.03832 26.3035 3.15286 25.4372 3.6311 24.5851C4.1085 23.7329 4.78656 23.1817 5.66361 22.9323C6.54066 22.6821 7.38677 22.7827 8.20028 23.2341C9.00877 23.6822 9.53633 24.3465 9.78381 25.2269ZM7.11086 28.1067C7.63258 27.977 8.03055 27.6678 8.30562 27.1773C8.58069 26.6876 8.63588 26.1913 8.472 25.6883C8.30813 25.1853 7.97704 24.7962 7.47874 24.5202C6.98629 24.2467 6.47879 24.1752 5.95707 24.3049C5.43536 24.4346 5.03655 24.7439 4.76231 25.2344C4.48724 25.724 4.43206 26.2204 4.59593 26.7233C4.75981 27.2263 5.09089 27.6154 5.5892 27.8914C6.08165 28.1649 6.58915 28.2364 7.11086 28.1067Z" fill="#43FF01"/>
<path d="M9.78381 25.2269C10.0313 26.1073 9.91508 26.9736 9.43768 27.8257C8.96027 28.6779 8.28221 29.2291 7.40517 29.4785C6.52812 29.7287 5.682 29.6281 4.8685 29.1767C4.06001 28.7286 3.53244 28.0643 3.28496 27.1839C3.03832 26.3035 3.15286 25.4372 3.6311 24.5851C4.1085 23.7329 4.78656 23.1817 5.66361 22.9323C6.54066 22.6821 7.38677 22.7827 8.20028 23.2341C9.00877 23.6822 9.53633 24.3465 9.78381 25.2269ZM7.11086 28.1067C7.63258 27.977 8.03055 27.6678 8.30562 27.1773C8.58069 26.6876 8.63588 26.1913 8.472 25.6883C8.30813 25.1853 7.97704 24.7962 7.47874 24.5202C6.98629 24.2467 6.47879 24.1752 5.95707 24.3049C5.43536 24.4346 5.03655 24.7439 4.76231 25.2344C4.48724 25.724 4.43206 26.2204 4.59593 26.7233C4.75981 27.2263 5.09089 27.6154 5.5892 27.8914C6.08165 28.1649 6.58915 28.2364 7.11086 28.1067Z" fill="#43FF01"/>
<path d="M12.4216 22.9914L6.06994 20.4507L7.05819 19.3059L11.2344 21.1233L8.85326 17.1984L9.64419 16.2822L13.9065 18.0281L11.4668 14.1989L12.4308 13.0815L15.919 18.9393L15.1163 19.8696L10.9736 18.2384L13.2234 22.0627L12.4208 22.993L12.4216 22.9914Z" fill="#43FF01"/>
<path d="M12.4216 22.9914L6.06994 20.4507L7.05819 19.3059L11.2344 21.1233L8.85326 17.1984L9.64419 16.2822L13.9065 18.0281L11.4668 14.1989L12.4308 13.0815L15.919 18.9393L15.1163 19.8696L10.9736 18.2384L13.2234 22.0627L12.4208 22.993L12.4216 22.9914Z" fill="#43FF01"/>
<path d="M20.0885 15.1923L16.4039 9.9431L20.3862 7.17965L21.1069 8.20722L18.2784 10.1701L19.0258 11.235L21.5149 9.5083L22.2356 10.5359L19.7466 12.2626L20.5199 13.365L23.386 11.3764L24.1067 12.4039L20.0868 15.1932L20.0885 15.1923Z" fill="#43FF01"/>
<path d="M20.0885 15.1923L16.4039 9.9431L20.3862 7.17965L21.1069 8.20722L18.2784 10.1701L19.0258 11.235L21.5149 9.5083L22.2356 10.5359L19.7466 12.2626L20.5199 13.365L23.386 11.3764L24.1067 12.4039L20.0868 15.1932L20.0885 15.1923Z" fill="#43FF01"/>
<path d="M24.9629 11.8486L22.1821 6.0756L23.5591 5.41966L26.2613 7.13393L26.6116 3.9656L27.9886 3.30966L30.7694 9.08264L29.5003 9.68704L27.6843 5.91764L27.2378 9.16162L27.2044 9.17742L24.411 7.50638L26.2145 11.2508L24.962 11.8469L24.9629 11.8486Z" fill="#43FF01"/>
<path d="M24.9629 11.8486L22.1821 6.0756L23.5591 5.41966L26.2613 7.13393L26.6116 3.9656L27.9886 3.30966L30.7694 9.08264L29.5003 9.68704L27.6843 5.91764L27.2378 9.16162L27.2044 9.17742L24.411 7.50638L26.2145 11.2508L24.962 11.8469L24.9629 11.8486Z" fill="#43FF01"/>
<path d="M32.1406 8.70604L30.124 2.62711L31.4692 2.18565L33.4859 8.26458L32.1406 8.70604Z" fill="#43FF01"/>
<path d="M32.1406 8.70604L30.124 2.62711L31.4692 2.18565L33.4859 8.26458L32.1406 8.70604Z" fill="#43FF01"/>
<path d="M37.1211 7.41659C36.0911 7.6394 35.1279 7.4989 34.2333 6.99426L34.8378 5.84282C35.566 6.21527 36.2474 6.33332 36.882 6.19532C37.1638 6.13463 37.3736 6.03237 37.5116 5.89021C37.6495 5.74805 37.698 5.58177 37.6562 5.39056C37.6169 5.21182 37.5016 5.08545 37.3093 5.01146C37.117 4.93747 36.7524 4.89008 36.2148 4.8693C35.8361 4.85766 35.5259 4.83271 35.2851 4.79447C35.0443 4.75623 34.8085 4.68723 34.5761 4.58746C34.3437 4.4877 34.1581 4.33972 34.0176 4.14185C33.8771 3.94482 33.7735 3.69375 33.7074 3.3903C33.5837 2.82414 33.689 2.32449 34.0235 1.88969C34.3579 1.45572 34.8487 1.16807 35.4958 1.02756C36.3887 0.833857 37.2256 0.930296 38.0065 1.31688L37.5149 2.50905C36.8319 2.22639 36.2416 2.1391 35.7441 2.24634C35.4866 2.30205 35.2985 2.39765 35.1806 2.53233C35.0627 2.66701 35.0217 2.81832 35.0585 2.98459C35.1028 3.18745 35.2232 3.32046 35.4189 3.38365C35.6145 3.44766 36.0066 3.49006 36.5952 3.51251C37.3176 3.54327 37.8711 3.66382 38.2557 3.87332C38.6403 4.08366 38.8903 4.45029 39.0048 4.97488C39.1378 5.5826 39.0307 6.10304 38.6838 6.53701C38.3368 6.97098 37.8151 7.26362 37.1203 7.4141L37.1211 7.41659Z" fill="#43FF01"/>
<path d="M37.1211 7.41659C36.0911 7.6394 35.1279 7.4989 34.2333 6.99426L34.8378 5.84282C35.566 6.21527 36.2474 6.33332 36.882 6.19532C37.1638 6.13463 37.3736 6.03237 37.5116 5.89021C37.6495 5.74805 37.698 5.58177 37.6562 5.39056C37.6169 5.21182 37.5016 5.08545 37.3093 5.01146C37.117 4.93747 36.7524 4.89008 36.2148 4.8693C35.8361 4.85766 35.5259 4.83271 35.2851 4.79447C35.0443 4.75623 34.8085 4.68723 34.5761 4.58746C34.3437 4.4877 34.1581 4.33972 34.0176 4.14185C33.8771 3.94482 33.7735 3.69375 33.7074 3.3903C33.5837 2.82414 33.689 2.32449 34.0235 1.88969C34.3579 1.45572 34.8487 1.16807 35.4958 1.02756C36.3887 0.833857 37.2256 0.930296 38.0065 1.31688L37.5149 2.50905C36.8319 2.22639 36.2416 2.1391 35.7441 2.24634C35.4866 2.30205 35.2985 2.39765 35.1806 2.53233C35.0627 2.66701 35.0217 2.81832 35.0585 2.98459C35.1028 3.18745 35.2232 3.32046 35.4189 3.38365C35.6145 3.44766 36.0066 3.49006 36.5952 3.51251C37.3176 3.54327 37.8711 3.66382 38.2557 3.87332C38.6403 4.08366 38.8903 4.45029 39.0048 4.97488C39.1378 5.5826 39.0307 6.10304 38.6838 6.53701C38.3368 6.97098 37.8151 7.26362 37.1203 7.4141L37.1211 7.41659Z" fill="#43FF01"/>
<path d="M42.6309 6.62014C41.58 6.70411 40.6444 6.43641 39.8259 5.81622L40.58 4.75623C41.2514 5.22262 41.911 5.42963 42.5582 5.37809C42.8458 5.35481 43.0673 5.28248 43.2237 5.15944C43.38 5.03723 43.4503 4.87844 43.4344 4.6839C43.4193 4.50183 43.3223 4.36133 43.1418 4.2624C42.9612 4.16347 42.6058 4.06786 42.0758 3.97558C41.702 3.91406 41.3977 3.84755 41.1644 3.77771C40.9312 3.70788 40.7063 3.60812 40.4897 3.47842C40.2732 3.34873 40.1085 3.17747 39.9956 2.96298C39.8827 2.74849 39.8142 2.48661 39.7891 2.17651C39.7423 1.59954 39.9145 1.11735 40.3041 0.7316C40.6945 0.345847 41.2196 0.126367 41.8793 0.0739913C42.7898 0.00166273 43.6066 0.208672 44.3282 0.69502L43.6802 1.81071C43.0414 1.43992 42.4679 1.27448 41.9612 1.31522C41.6987 1.336 41.4997 1.40584 41.3642 1.52306C41.2288 1.64111 41.1686 1.78494 41.182 1.95537C41.1987 2.16238 41.2999 2.30953 41.4855 2.39931C41.6711 2.48827 42.054 2.58305 42.6343 2.68364C43.3458 2.81001 43.8783 3.00372 44.2312 3.26227C44.584 3.52165 44.7821 3.91905 44.8256 4.45361C44.8758 5.07381 44.6994 5.57512 44.2964 5.95921C43.8934 6.3433 43.3382 6.56361 42.6292 6.62014H42.6309Z" fill="#43FF01"/>
<path d="M42.6309 6.62014C41.58 6.70411 40.6444 6.43641 39.8259 5.81622L40.58 4.75623C41.2514 5.22262 41.911 5.42963 42.5582 5.37809C42.8458 5.35481 43.0673 5.28248 43.2237 5.15944C43.38 5.03723 43.4503 4.87844 43.4344 4.6839C43.4193 4.50183 43.3223 4.36133 43.1418 4.2624C42.9612 4.16347 42.6058 4.06786 42.0758 3.97558C41.702 3.91406 41.3977 3.84755 41.1644 3.77771C40.9312 3.70788 40.7063 3.60812 40.4897 3.47842C40.2732 3.34873 40.1085 3.17747 39.9956 2.96298C39.8827 2.74849 39.8142 2.48661 39.7891 2.17651C39.7423 1.59954 39.9145 1.11735 40.3041 0.7316C40.6945 0.345847 41.2196 0.126367 41.8793 0.0739913C42.7898 0.00166273 43.6066 0.208672 44.3282 0.69502L43.6802 1.81071C43.0414 1.43992 42.4679 1.27448 41.9612 1.31522C41.6987 1.336 41.4997 1.40584 41.3642 1.52306C41.2288 1.64111 41.1686 1.78494 41.182 1.95537C41.1987 2.16238 41.2999 2.30953 41.4855 2.39931C41.6711 2.48827 42.054 2.58305 42.6343 2.68364C43.3458 2.81001 43.8783 3.00372 44.2312 3.26227C44.584 3.52165 44.7821 3.91905 44.8256 4.45361C44.8758 5.07381 44.6994 5.57512 44.2964 5.95921C43.8934 6.3433 43.3382 6.56361 42.6292 6.62014H42.6309Z" fill="#43FF01"/>
<path d="M46.1207 6.39983L46.2687 0L47.685 0.0324232L47.537 6.43226L46.1207 6.39983Z" fill="#43FF01"/>
<path d="M46.1207 6.39983L46.2687 0L47.685 0.0324232L47.537 6.43226L46.1207 6.39983Z" fill="#43FF01"/>
<path d="M54.6094 6.36907C53.8687 6.91029 53.0134 7.10982 52.0427 6.96682C51.072 6.82383 50.3145 6.38903 49.7685 5.66158C49.2226 4.93414 49.0186 4.11192 49.1548 3.19576C49.2903 2.28542 49.7284 1.55881 50.4692 1.01759C51.2099 0.476371 52.0652 0.276844 53.0359 0.419838C54.0066 0.562833 54.7641 0.997636 55.3101 1.72508C55.856 2.45252 56.06 3.27474 55.9237 4.1909C55.7883 5.10208 55.3502 5.82786 54.6094 6.36907ZM50.9549 4.90255C51.2618 5.34234 51.6932 5.60256 52.2517 5.68486C52.8094 5.76717 53.296 5.64329 53.7106 5.31241C54.1253 4.98236 54.3745 4.53675 54.4581 3.97558C54.5409 3.42106 54.4288 2.9239 54.122 2.48411C53.8152 2.04432 53.3829 1.78411 52.8252 1.7018C52.2667 1.6195 51.781 1.7442 51.3663 2.07425C50.9516 2.4043 50.7024 2.84991 50.6188 3.41108C50.536 3.9656 50.6481 4.46359 50.9549 4.90255Z" fill="#43FF01"/>
<path d="M54.6094 6.36907C53.8687 6.91029 53.0134 7.10982 52.0427 6.96682C51.072 6.82383 50.3145 6.38903 49.7685 5.66158C49.2226 4.93414 49.0186 4.11192 49.1548 3.19576C49.2903 2.28542 49.7284 1.55881 50.4692 1.01759C51.2099 0.476371 52.0652 0.276844 53.0359 0.419838C54.0066 0.562833 54.7641 0.997636 55.3101 1.72508C55.856 2.45252 56.06 3.27474 55.9237 4.1909C55.7883 5.10208 55.3502 5.82786 54.6094 6.36907ZM50.9549 4.90255C51.2618 5.34234 51.6932 5.60256 52.2517 5.68486C52.8094 5.76717 53.296 5.64329 53.7106 5.31241C54.1253 4.98236 54.3745 4.53675 54.4581 3.97558C54.5409 3.42106 54.4288 2.9239 54.122 2.48411C53.8152 2.04432 53.3829 1.78411 52.8252 1.7018C52.2667 1.6195 51.781 1.7442 51.3663 2.07425C50.9516 2.4043 50.7024 2.84991 50.6188 3.41108C50.536 3.9656 50.6481 4.46359 50.9549 4.90255Z" fill="#43FF01"/>
<path d="M56.4195 7.63524L58.4504 1.56047L59.6895 1.97033L61.3014 6.65673L62.5514 2.91642L63.8782 3.35455L61.8474 9.42932L60.7045 9.05188L59.0365 4.21252L57.7456 8.0742L56.4187 7.63607L56.4195 7.63524Z" fill="#43FF01"/>
<path d="M56.4195 7.63524L58.4504 1.56047L59.6895 1.97033L61.3014 6.65673L62.5514 2.91642L63.8782 3.35455L61.8474 9.42932L60.7045 9.05188L59.0365 4.21252L57.7456 8.0742L56.4187 7.63607L56.4195 7.63524Z" fill="#43FF01"/>
<path d="M67.1582 12.2136L68.3228 5.36312L69.6564 6.17453L68.725 10.8934L72.5275 7.92123L73.8292 8.71352L68.225 12.862L67.1582 12.2127V12.2136Z" fill="#43FF01"/>
<path d="M67.1582 12.2136L68.3228 5.36312L69.6564 6.17453L68.725 10.8934L72.5275 7.92123L73.8292 8.71352L68.225 12.862L67.1582 12.2127V12.2136Z" fill="#43FF01"/>
<path d="M71.0518 14.6769L75.1979 9.77933L78.9126 12.8886L78.1016 13.8472L75.463 11.6391L74.6219 12.6326L76.9436 14.5763L76.1318 15.5349L73.81 13.5911L72.9397 14.6195L75.6134 16.8576L74.8016 17.8161L71.0518 14.6769Z" fill="#43FF01"/>
<path d="M71.0518 14.6769L75.1979 9.77933L78.9126 12.8886L78.1016 13.8472L75.463 11.6391L74.6219 12.6326L76.9436 14.5763L76.1318 15.5349L73.81 13.5911L72.9397 14.6195L75.6134 16.8576L74.8016 17.8161L71.0518 14.6769Z" fill="#43FF01"/>
<path d="M75.5516 18.5203L80.4042 14.3136L81.2628 15.2921L80.2579 20.1431L83.2452 17.5526L84.164 18.6001L79.3114 22.8068L78.5197 21.9039L79.5556 16.8925L76.4704 19.567L75.5516 18.5194V18.5203Z" fill="#43FF01"/>
<path d="M75.5516 18.5203L80.4042 14.3136L81.2628 15.2921L80.2579 20.1431L83.2452 17.5526L84.164 18.6001L79.3114 22.8068L78.5197 21.9039L79.5556 16.8925L76.4704 19.567L75.5516 18.5194V18.5203Z" fill="#43FF01"/>
<path d="M81.4008 26.1813C80.9393 25.4397 80.7871 24.7339 80.9435 24.0646C81.0998 23.3946 81.5747 22.8159 82.3665 22.3288L85.4951 20.4041L86.24 21.6021L83.1432 23.5076C82.7051 23.777 82.4342 24.0854 82.3297 24.4329C82.2252 24.7804 82.2887 25.1413 82.5211 25.5145C82.7536 25.8878 83.0454 26.1081 83.3974 26.1746C83.7485 26.2411 84.1381 26.143 84.5662 25.8803L87.7023 23.9507L88.4473 25.1487L85.358 27.0492C84.5445 27.5497 83.7978 27.7168 83.1181 27.5514C82.4375 27.3851 81.8657 26.9295 81.4016 26.183L81.4008 26.1813Z" fill="#43FF01"/>
<path d="M81.4008 26.1813C80.9393 25.4397 80.7871 24.7339 80.9435 24.0646C81.0998 23.3946 81.5747 22.8159 82.3665 22.3288L85.4951 20.4041L86.24 21.6021L83.1432 23.5076C82.7051 23.777 82.4342 24.0854 82.3297 24.4329C82.2252 24.7804 82.2887 25.1413 82.5211 25.5145C82.7536 25.8878 83.0454 26.1081 83.3974 26.1746C83.7485 26.2411 84.1381 26.143 84.5662 25.8803L87.7023 23.9507L88.4473 25.1487L85.358 27.0492C84.5445 27.5497 83.7978 27.7168 83.1181 27.5514C82.4375 27.3851 81.8657 26.9295 81.4016 26.183L81.4008 26.1813Z" fill="#43FF01"/>
<path d="M83.5002 29.6065L89.4222 27.0958L91.3267 31.5378L90.1679 32.0291L88.8152 28.8749L87.6137 29.3845L88.8043 32.1605L87.6455 32.6518L86.4549 29.8759L85.2108 30.403L86.582 33.5995L85.4232 34.0909L83.5002 29.6073V29.6065Z" fill="#43FF01"/>
<path d="M83.5002 29.6065L89.4222 27.0958L91.3267 31.5378L90.1679 32.0291L88.8152 28.8749L87.6137 29.3845L88.8043 32.1605L87.6455 32.6518L86.4549 29.8759L85.2108 30.403L86.582 33.5995L85.4232 34.0909L83.5002 29.6073V29.6065Z" fill="#43FF01"/>
<path d="M85.6615 61.1335L91.6645 63.4471L91.1528 64.7599L86.3504 62.9093L85.1908 65.8855L83.9901 65.4225L85.6623 61.1335H85.6615Z" fill="#43FF01"/>
<path d="M85.6615 61.1335L91.6645 63.4471L91.1528 64.7599L86.3504 62.9093L85.1908 65.8855L83.9901 65.4225L85.6623 61.1335H85.6615Z" fill="#43FF01"/>
<path d="M81.808 71.1132C81.5688 70.2302 81.6926 69.3656 82.1784 68.5176C82.6641 67.6705 83.3472 67.1251 84.2268 66.8832C85.1063 66.6413 85.9507 66.7502 86.7609 67.2082C87.5652 67.6638 88.0869 68.3331 88.3252 69.216C88.5635 70.0989 88.4406 70.9635 87.9548 71.8115C87.4691 72.6587 86.7868 73.204 85.9064 73.446C85.0269 73.6879 84.1824 73.579 83.3723 73.1209C82.568 72.6653 82.0462 71.9961 81.808 71.1132ZM84.5077 68.2591C83.9843 68.3838 83.5838 68.6897 83.3037 69.1769C83.0245 69.6641 82.9643 70.1596 83.1231 70.6642C83.282 71.168 83.6097 71.5613 84.1047 71.8414C84.5946 72.1191 85.1013 72.1956 85.6247 72.0709C86.1481 71.9462 86.5494 71.6402 86.8286 71.1531C87.1079 70.6659 87.1681 70.1695 87.0092 69.6657C86.8504 69.1611 86.5226 68.7687 86.0277 68.4885C85.5377 68.2109 85.0311 68.1344 84.5077 68.2591Z" fill="#43FF01"/>
<path d="M81.808 71.1132C81.5688 70.2302 81.6926 69.3656 82.1784 68.5176C82.6641 67.6705 83.3472 67.1251 84.2268 66.8832C85.1063 66.6413 85.9507 66.7502 86.7609 67.2082C87.5652 67.6638 88.0869 68.3331 88.3252 69.216C88.5635 70.0989 88.4406 70.9635 87.9548 71.8115C87.4691 72.6587 86.7868 73.204 85.9064 73.446C85.0269 73.6879 84.1824 73.579 83.3723 73.1209C82.568 72.6653 82.0462 71.9961 81.808 71.1132ZM84.5077 68.2591C83.9843 68.3838 83.5838 68.6897 83.3037 69.1769C83.0245 69.6641 82.9643 70.1596 83.1231 70.6642C83.282 71.168 83.6097 71.5613 84.1047 71.8414C84.5946 72.1191 85.1013 72.1956 85.6247 72.0709C86.1481 71.9462 86.5494 71.6402 86.8286 71.1531C87.1079 70.6659 87.1681 70.1695 87.0092 69.6657C86.8504 69.1611 86.5226 68.7687 86.0277 68.4885C85.5377 68.2109 85.0311 68.1344 84.5077 68.2591Z" fill="#43FF01"/>
<path d="M79.1484 73.3237L85.4759 75.9234L84.4767 77.0591L80.3172 75.2035L82.6616 79.1499L81.8623 80.0586L77.6167 78.2737L80.0204 82.1254L79.0456 83.2336L75.6126 77.3442L76.4236 76.4214L80.5505 78.0916L78.3366 74.2466L79.1476 73.3237H79.1484Z" fill="#43FF01"/>
<path d="M79.1484 73.3237L85.4759 75.9234L84.4767 77.0591L80.3172 75.2035L82.6616 79.1499L81.8623 80.0586L77.6167 78.2737L80.0204 82.1254L79.0456 83.2336L75.6126 77.3442L76.4236 76.4214L80.5505 78.0916L78.3366 74.2466L79.1476 73.3237H79.1484Z" fill="#43FF01"/>
<path d="M71.4096 81.0521L75.0449 86.3354L71.0368 89.0615L70.3252 88.0272L73.1721 86.091L72.4347 85.0194L69.9298 86.7237L69.2183 85.6894L71.7232 83.9851L70.9598 82.8753L68.0753 84.8373L67.3638 83.8031L71.4096 81.0504V81.0521Z" fill="#43FF01"/>
<path d="M71.4096 81.0521L75.0449 86.3354L71.0368 89.0615L70.3252 88.0272L73.1721 86.091L72.4347 85.0194L69.9298 86.7237L69.2183 85.6894L71.7232 83.9851L70.9598 82.8753L68.0753 84.8373L67.3638 83.8031L71.4096 81.0504V81.0521Z" fill="#43FF01"/>
<path d="M66.5027 84.3518L69.2291 90.1505L67.8463 90.7932L65.1608 89.054L64.7804 92.219L63.3975 92.8616L60.671 87.0628L61.946 86.4701L63.7261 90.2561L64.2026 87.0163L64.2361 87.0005L67.0135 88.6973L65.2452 84.9362L66.5035 84.3518H66.5027Z" fill="#43FF01"/>
<path d="M66.5027 84.3518L69.2291 90.1505L67.8463 90.7932L65.1608 89.054L64.7804 92.219L63.3975 92.8616L60.671 87.0628L61.946 86.4701L63.7261 90.2561L64.2026 87.0163L64.2361 87.0005L67.0135 88.6973L65.2452 84.9362L66.5035 84.3518H66.5027Z" fill="#43FF01"/>
<path d="M59.2957 87.427L61.2546 93.525L59.9052 93.954L57.9462 87.856L59.2957 87.4278V87.427Z" fill="#43FF01"/>
<path d="M59.2957 87.427L61.2546 93.525L59.9052 93.954L57.9462 87.856L59.2957 87.4278V87.427Z" fill="#43FF01"/>
<path d="M54.3034 88.6691C55.336 88.4554 56.2975 88.6059 57.1871 89.1188L56.5717 90.2644C55.8477 89.8845 55.1671 89.7606 54.5308 89.8928C54.2491 89.951 54.0376 90.0508 53.8979 90.1921C53.7583 90.3334 53.7081 90.4989 53.7483 90.6901C53.7859 90.8688 53.9004 90.9969 54.0911 91.0725C54.2825 91.1482 54.6471 91.1989 55.1847 91.2247C55.5634 91.2396 55.8736 91.2679 56.1135 91.3078C56.3535 91.3485 56.5893 91.4192 56.82 91.5215C57.0508 91.6229 57.2356 91.7734 57.3744 91.9721C57.5131 92.1708 57.6143 92.4218 57.6778 92.7269C57.7966 93.2939 57.6862 93.7927 57.3476 94.2242C57.009 94.6557 56.5149 94.9384 55.8669 95.0722C54.9723 95.2576 54.1362 95.1528 53.3595 94.7596L53.8628 93.5724C54.5434 93.8617 55.1328 93.954 55.6311 93.8509C55.8895 93.7977 56.0776 93.7038 56.1972 93.5708C56.3167 93.4369 56.3585 93.2864 56.3234 93.1193C56.2808 92.9165 56.162 92.7818 55.9664 92.7169C55.7707 92.6513 55.3795 92.6047 54.7909 92.5773C54.0693 92.5399 53.5167 92.4143 53.1337 92.2007C52.7508 91.987 52.5042 91.6179 52.3947 91.0925C52.2676 90.4839 52.3796 89.9635 52.7308 89.5328C53.0819 89.1022 53.6061 88.8145 54.3026 88.6707L54.3034 88.6691Z" fill="#43FF01"/>
<path d="M54.3034 88.6691C55.336 88.4554 56.2975 88.6059 57.1871 89.1188L56.5717 90.2644C55.8477 89.8845 55.1671 89.7606 54.5308 89.8928C54.2491 89.951 54.0376 90.0508 53.8979 90.1921C53.7583 90.3334 53.7081 90.4989 53.7483 90.6901C53.7859 90.8688 53.9004 90.9969 54.0911 91.0725C54.2825 91.1482 54.6471 91.1989 55.1847 91.2247C55.5634 91.2396 55.8736 91.2679 56.1135 91.3078C56.3535 91.3485 56.5893 91.4192 56.82 91.5215C57.0508 91.6229 57.2356 91.7734 57.3744 91.9721C57.5131 92.1708 57.6143 92.4218 57.6778 92.7269C57.7966 93.2939 57.6862 93.7927 57.3476 94.2242C57.009 94.6557 56.5149 94.9384 55.8669 95.0722C54.9723 95.2576 54.1362 95.1528 53.3595 94.7596L53.8628 93.5724C54.5434 93.8617 55.1328 93.954 55.6311 93.8509C55.8895 93.7977 56.0776 93.7038 56.1972 93.5708C56.3167 93.4369 56.3585 93.2864 56.3234 93.1193C56.2808 92.9165 56.162 92.7818 55.9664 92.7169C55.7707 92.6513 55.3795 92.6047 54.7909 92.5773C54.0693 92.5399 53.5167 92.4143 53.1337 92.2007C52.7508 91.987 52.5042 91.6179 52.3947 91.0925C52.2676 90.4839 52.3796 89.9635 52.7308 89.5328C53.0819 89.1022 53.6061 88.8145 54.3026 88.6707L54.3034 88.6691Z" fill="#43FF01"/>
<path d="M48.7845 89.414C49.8362 89.34 50.7693 89.6168 51.582 90.2436L50.8178 91.297C50.1514 90.8248 49.4935 90.6111 48.8455 90.6568C48.5579 90.6768 48.3355 90.7475 48.1783 90.8688C48.0211 90.9902 47.9492 91.1473 47.9634 91.3427C47.9768 91.5248 48.0729 91.667 48.2519 91.7667C48.4308 91.8673 48.7853 91.9662 49.3145 92.0635C49.6883 92.1292 49.9909 92.1974 50.2234 92.2697C50.4558 92.342 50.6799 92.4434 50.8947 92.5756C51.1104 92.707 51.2726 92.8807 51.3838 93.0961C51.4942 93.3114 51.5611 93.5741 51.5828 93.8842C51.6238 94.462 51.4474 94.9417 51.0536 95.3241C50.6598 95.7065 50.1322 95.921 49.4717 95.9676C48.5604 96.0316 47.746 95.8171 47.0287 95.3233L47.6875 94.2134C48.3229 94.59 48.8948 94.7613 49.4023 94.7255C49.6657 94.7072 49.8647 94.6391 50.001 94.5227C50.1372 94.4063 50.1991 94.2625 50.1874 94.092C50.1724 93.885 50.0729 93.7362 49.8881 93.6456C49.7033 93.555 49.3212 93.456 48.7418 93.3505C48.032 93.2174 47.5011 93.0187 47.1508 92.7569C46.8004 92.4942 46.6056 92.0951 46.568 91.5605C46.5237 90.9403 46.7051 90.4399 47.1115 90.0599C47.5178 89.68 48.0755 89.4647 48.7853 89.4148L48.7845 89.414Z" fill="#43FF01"/>
<path d="M48.7845 89.414C49.8362 89.34 50.7693 89.6168 51.582 90.2436L50.8178 91.297C50.1514 90.8248 49.4935 90.6111 48.8455 90.6568C48.5579 90.6768 48.3355 90.7475 48.1783 90.8688C48.0211 90.9902 47.9492 91.1473 47.9634 91.3427C47.9768 91.5248 48.0729 91.667 48.2519 91.7667C48.4308 91.8673 48.7853 91.9662 49.3145 92.0635C49.6883 92.1292 49.9909 92.1974 50.2234 92.2697C50.4558 92.342 50.6799 92.4434 50.8947 92.5756C51.1104 92.707 51.2726 92.8807 51.3838 93.0961C51.4942 93.3114 51.5611 93.5741 51.5828 93.8842C51.6238 94.462 51.4474 94.9417 51.0536 95.3241C50.6598 95.7065 50.1322 95.921 49.4717 95.9676C48.5604 96.0316 47.746 95.8171 47.0287 95.3233L47.6875 94.2134C48.3229 94.59 48.8948 94.7613 49.4023 94.7255C49.6657 94.7072 49.8647 94.6391 50.001 94.5227C50.1372 94.4063 50.1991 94.2625 50.1874 94.092C50.1724 93.885 50.0729 93.7362 49.8881 93.6456C49.7033 93.555 49.3212 93.456 48.7418 93.3505C48.032 93.2174 47.5011 93.0187 47.1508 92.7569C46.8004 92.4942 46.6056 92.0951 46.568 91.5605C46.5237 90.9403 46.7051 90.4399 47.1115 90.0599C47.5178 89.68 48.0755 89.4647 48.7853 89.4148L48.7845 89.414Z" fill="#43FF01"/>
<path d="M45.2947 89.6018L45.0865 96L43.671 95.9543L43.8792 89.5561L45.2947 89.6018Z" fill="#43FF01"/>
<path d="M45.2947 89.6018L45.0865 96L43.671 95.9543L43.8792 89.5561L45.2947 89.6018Z" fill="#43FF01"/>
<path d="M36.8068 89.5545C37.5526 89.0199 38.4095 88.8287 39.3786 88.9808C40.3476 89.1329 41.1017 89.5744 41.6402 90.3068C42.1794 91.0393 42.3759 91.8632 42.2313 92.7785C42.0875 93.688 41.6427 94.4096 40.8969 94.9442C40.1511 95.4787 39.2941 95.67 38.3251 95.5178C37.3561 95.3657 36.6019 94.9242 36.0635 94.1918C35.5251 93.4594 35.3277 92.6355 35.4724 91.7201C35.6162 90.8106 36.061 90.089 36.8068 89.5545ZM40.4462 91.0542C40.1436 90.6119 39.7138 90.3467 39.157 90.2594C38.6002 90.1722 38.1127 90.2919 37.6947 90.6186C37.2766 90.9453 37.0233 91.3884 36.9347 91.9488C36.8469 92.5025 36.9539 93.0013 37.2566 93.4436C37.5592 93.8858 37.989 94.1511 38.5458 94.2383C39.1035 94.3256 39.5909 94.2059 40.0081 93.8792C40.4262 93.5525 40.6795 93.1094 40.7681 92.549C40.8559 91.9945 40.7489 91.4965 40.4462 91.0542Z" fill="#43FF01"/>
<path d="M36.8068 89.5545C37.5526 89.0199 38.4095 88.8287 39.3786 88.9808C40.3476 89.1329 41.1017 89.5744 41.6402 90.3068C42.1794 91.0393 42.3759 91.8632 42.2313 92.7785C42.0875 93.688 41.6427 94.4096 40.8969 94.9442C40.1511 95.4787 39.2941 95.67 38.3251 95.5178C37.3561 95.3657 36.6019 94.9242 36.0635 94.1918C35.5251 93.4594 35.3277 92.6355 35.4724 91.7201C35.6162 90.8106 36.061 90.089 36.8068 89.5545ZM40.4462 91.0542C40.1436 90.6119 39.7138 90.3467 39.157 90.2594C38.6002 90.1722 38.1127 90.2919 37.6947 90.6186C37.2766 90.9453 37.0233 91.3884 36.9347 91.9488C36.8469 92.5025 36.9539 93.0013 37.2566 93.4436C37.5592 93.8858 37.989 94.1511 38.5458 94.2383C39.1035 94.3256 39.5909 94.2059 40.0081 93.8792C40.4262 93.5525 40.6795 93.1094 40.7681 92.549C40.8559 91.9945 40.7489 91.4965 40.4462 91.0542Z" fill="#43FF01"/>
<path d="M35.0092 88.2717L32.9215 94.3273L31.6858 93.9058L30.1181 89.2044L28.8322 92.9331L27.5096 92.4825L29.5972 86.4269L30.7368 86.8151L32.3588 91.6703L33.6865 87.8211L35.0092 88.2717Z" fill="#43FF01"/>
<path d="M35.0092 88.2717L32.9215 94.3273L31.6858 93.9058L30.1181 89.2044L28.8322 92.9331L27.5096 92.4825L29.5972 86.4269L30.7368 86.8151L32.3588 91.6703L33.6865 87.8211L35.0092 88.2717Z" fill="#43FF01"/>
<path d="M24.3132 83.5928L23.0842 90.4315L21.7582 89.6077L22.7339 84.8971L18.9038 87.8335L17.6095 87.0288L23.2531 82.9326L24.3141 83.5919L24.3132 83.5928Z" fill="#43FF01"/>
<path d="M24.3132 83.5928L23.0842 90.4315L21.7582 89.6077L22.7339 84.8971L18.9038 87.8335L17.6095 87.0288L23.2531 82.9326L24.3141 83.5919L24.3132 83.5928Z" fill="#43FF01"/>
<path d="M20.4422 81.092L16.2501 85.9505L12.5646 82.8063L13.3848 81.8552L16.0026 84.0882L16.8529 83.1031L14.5495 81.1377L15.3697 80.1867L17.6731 82.152L18.5535 81.1319L15.9006 78.8689L16.7208 77.9179L20.4413 81.092H20.4422Z" fill="#43FF01"/>
<path d="M20.4422 81.092L16.2501 85.9505L12.5646 82.8063L13.3848 81.8552L16.0026 84.0882L16.8529 83.1031L14.5495 81.1377L15.3697 80.1867L17.6731 82.152L18.5535 81.1319L15.9006 78.8689L16.7208 77.9179L20.4413 81.092H20.4422Z" fill="#43FF01"/>
<path d="M15.9792 77.2079L11.0873 81.3697L10.2386 80.3828L11.2896 75.541L8.27803 78.1032L7.36921 77.0474L12.2611 72.8856L13.0445 73.796L11.9618 78.7974L15.0712 76.152L15.98 77.2079H15.9792Z" fill="#43FF01"/>
<path d="M15.9792 77.2079L11.0873 81.3697L10.2386 80.3828L11.2896 75.541L8.27803 78.1032L7.36921 77.0474L12.2611 72.8856L13.0445 73.796L11.9618 78.7974L15.0712 76.152L15.98 77.2079H15.9792Z" fill="#43FF01"/>
<path d="M10.2027 69.4945C10.6575 70.2402 10.803 70.9469 10.64 71.6153C10.4769 72.2837 9.99701 72.8582 9.20023 73.3379L6.05406 75.2334L5.31998 74.0287L8.43438 72.1524C8.87499 71.8871 9.14923 71.5812 9.25708 71.2345C9.36494 70.8878 9.30474 70.527 9.07565 70.1513C8.84657 69.7755 8.55728 69.5535 8.20613 69.4829C7.85498 69.413 7.46453 69.507 7.03478 69.7663L3.88025 71.6668L3.14617 70.4622L6.25305 68.59C7.07073 68.097 7.81902 67.9365 8.49792 68.1086C9.17682 68.2807 9.74452 68.7421 10.2019 69.4928L10.2027 69.4945Z" fill="#43FF01"/>
<path d="M10.2027 69.4945C10.6575 70.2402 10.803 70.9469 10.64 71.6153C10.4769 72.2837 9.99701 72.8582 9.20023 73.3379L6.05406 75.2334L5.31998 74.0287L8.43438 72.1524C8.87499 71.8871 9.14923 71.5812 9.25708 71.2345C9.36494 70.8878 9.30474 70.527 9.07565 70.1513C8.84657 69.7755 8.55728 69.5535 8.20613 69.4829C7.85498 69.413 7.46453 69.507 7.03478 69.7663L3.88025 71.6668L3.14617 70.4622L6.25305 68.59C7.07073 68.097 7.81902 67.9365 8.49792 68.1086C9.17682 68.2807 9.74452 68.7421 10.2019 69.4928L10.2027 69.4945Z" fill="#43FF01"/>
<path d="M8.1359 66.0485L2.19053 68.5035L0.327744 64.0441L1.49157 63.5635L2.81425 66.7302L4.02071 66.2322L2.85689 63.4455L4.02071 62.965L5.18454 65.7517L6.4328 65.2362L5.09257 62.0272L6.25639 61.5466L8.13674 66.0485H8.1359Z" fill="#43FF01"/>
<path d="M8.1359 66.0485L2.19053 68.5035L0.327744 64.0441L1.49157 63.5635L2.81425 66.7302L4.02071 66.2322L2.85689 63.4455L4.02071 62.965L5.18454 65.7517L6.4328 65.2362L5.09257 62.0272L6.25639 61.5466L8.13674 66.0485H8.1359Z" fill="#43FF01"/>
</svg>
