<?xml version="1.0" encoding="utf-8"?>
<!-- Generator: Adobe Illustrator 23.0.5, SVG Export Plug-In . SVG Version: 6.00 Build 0)  -->
<svg version="1.1" id="Layer_1" xmlns="http://www.w3.org/2000/svg" xmlns:xlink="http://www.w3.org/1999/xlink" x="0px" y="0px"
	 width="152px" height="201.9px" viewBox="0 0 152 201.9" style="enable-background:new 0 0 152 201.9;" xml:space="preserve">
<style type="text/css">
	.st0{fill-rule:evenodd;clip-rule:evenodd;fill:#2C302D;}
	.st1{fill:#2C302D;}
</style>
<g>
	<path class="st0" d="M0,29.9c0,3-0.9,52.4,11.3,96.3c0.3,0,0.6-0.1,0.8-0.2c0.5-0.2,1-0.3,1.5-0.4c0.6-0.3,1.3-0.4,1.9-0.5
		c0.6-0.2,1.1-0.3,1.6-0.4c0.7-0.3,1.4-0.5,2.2-0.6c0.8-0.3,1.6-0.5,2.4-0.6c0.7-0.3,1.4-0.4,2.1-0.5c0.7-0.3,1.5-0.4,2.3-0.6
		c-2.8-10.5-4.8-21.3-6.1-31.5c-1-8.2-1.7-16-2.2-22.8c-0.9-14.3-0.7-24.4-0.7-25.5C55.1,30.5,69.5,23,76,19.4
		c6.5,3.7,20.9,11.1,58.8,23.1c0,2.3,0.6,42.3-8.7,78.2c3.4,0,6.6,0.9,9.3,2.9c1,0.5,1.9,1,2.9,1.6l0.4,0.3c0.6,0.3,1.2,0.6,1.8,0.9
		C152.9,82.5,152,32.9,152,29.9C103,14.4,84.4,4.8,76,0C67.6,4.7,49,14.4,0,29.9L0,29.9z"/>
	<path class="st1" d="M22.2,128.6c4.5,15.3,10.6,29.5,18.9,40.2c19.1,24.5,50.8,24.5,69.8,0c8.3-10.7,14.4-24.9,18.9-40.2
		C96.1,116.8,56,116.8,22.2,128.6L22.2,128.6z M147.6,119.6l-1.6,6.3c-5.1,19.5-12.6,38-23.4,52c-25.1,32.1-68.1,32.1-93.2,0
		C18.6,164,11.1,145.4,6,125.9l-1.6-6.3C53.8,99.7,98.4,99.8,147.6,119.6L147.6,119.6z"/>
	<path class="st1" d="M97.1,113.4l34.9,34.8c-1.7,2-2.9,4.5-3.3,7.2l-42.4-42.3H94h-0.2C95,113.3,96,113.4,97.1,113.4L97.1,113.4z
		 M65.7,113.1l-42.5,42.4c-0.8-2.4-2.3-4.6-4.2-6.3l36.6-36.5c2.6,0.9,5.5,1.1,8.3,0.5L65.7,113.1z"/>
	<path class="st1" d="M78.6,119.7l45.9,45.9c-2.1,1.3-3.9,3.1-5.1,5.3L76,127.6l-44.2,44.1c-1.2-2.2-2.9-4.1-5.1-5.5L76,117.1
		L78.6,119.7z"/>
	<path class="st1" d="M78.6,143.5l35.6,35.6c-2.6,0.6-5,1.8-6.9,3.6L76,151.3l-31.9,31.8c-1.3-2.1-3.1-3.9-5.3-5.2L76,140.8
		L78.6,143.5z"/>
	<path class="st1" d="M78.6,167.2l20.6,20.6c-2.9,0.2-5.6,1.1-7.8,2.7L76,175.1l-16.6,16.6c-1.8-1.9-4-3.3-6.4-4.1l23.1-23
		L78.6,167.2z"/>
	<polygon class="st0" points="32.9,83.4 42.3,92.8 51.2,84 60,92.8 69.5,83.4 60.6,74.6 69.5,65.8 60,56.3 51.2,65.2 42.3,56.3 
		32.9,65.8 41.7,74.6 	"/>
	<polygon class="st0" points="81.4,83.4 90.8,92.8 99.7,84 108.6,92.8 118,83.4 109.2,74.6 118,65.8 108.6,56.3 99.7,65.2 
		90.8,56.3 81.4,65.8 90.3,74.6 	"/>
</g>
</svg>
