<?xml version="1.0" encoding="utf-8"?>
<!-- Generator: Adobe Illustrator 22.1.0, SVG Export Plug-In . SVG Version: 6.00 Build 0)  -->
<svg version="1.1" id="Слой_1" xmlns="http://www.w3.org/2000/svg" xmlns:xlink="http://www.w3.org/1999/xlink" x="0px" y="0px"
	 width="67px" height="51px" viewBox="0 0 67 51" style="enable-background:new 0 0 67 51;" xml:space="preserve">
<style type="text/css">
	.st0{fill:#00FC82;}
</style>
<g>
	<path class="st0" d="M57.282,7.654c-0.892,0-1.615,0.728-1.615,1.626s0.723,1.626,1.615,1.626c0.892,0,1.614-0.728,1.614-1.626
		S58.174,7.654,57.282,7.654z"/>
	<path class="st0" d="M52.523,7.654c-0.892,0-1.615,0.728-1.615,1.626s0.723,1.626,1.615,1.626c0.892,0,1.614-0.728,1.614-1.626
		S53.415,7.654,52.523,7.654z"/>
	<path class="st0" d="M47.765,7.654c-0.892,0-1.615,0.728-1.615,1.626s0.723,1.626,1.615,1.626c0.892,0,1.614-0.728,1.614-1.626
		S48.656,7.654,47.765,7.654z"/>
	<path class="st0" d="M58.109,0h-12.21c-4.902,0-8.891,4.017-8.891,8.953c0,1.354,0.308,2.696,0.893,3.91l-2.596,7.95
		c-0.134,0.411,0.007,0.862,0.35,1.122c0.178,0.134,0.39,0.202,0.602,0.202c0.197,0,0.394-0.058,0.565-0.175l6.482-4.452
		c0.85,0.264,1.721,0.397,2.596,0.397h12.21c4.902,0,8.891-4.017,8.891-8.953S63.011,0,58.109,0z M58.109,15.889h-12.21
		c-0.809,0-1.615-0.149-2.398-0.442c-0.304-0.113-0.645-0.071-0.914,0.112L38.13,18.62l1.806-5.529
		c0.087-0.266,0.06-0.556-0.074-0.801c-0.556-1.018-0.85-2.171-0.85-3.337c0-3.824,3.09-6.936,6.888-6.936h12.21
		c3.798,0,6.888,3.111,6.888,6.936S61.907,15.889,58.109,15.889z"/>
	<path class="st0" d="M20.534,24.024c0.024,0.003,0.043,0.015,0.067,0.016c0.282,0.011,0.559,0.016,0.832,0.016
		c6.425,0,10.426-2.945,11.571-5.973c0.555-1.467,0.335-2.848-0.575-3.602c-0.913-0.758-1.928-0.726-2.783-0.43l0-3.074
		c0.05-4.959-3.195-7.981-8.679-8.085c-0.022,0-0.038,0.01-0.059,0.011c-0.022-0.001-0.039-0.012-0.061-0.011
		c-5.484,0.104-8.729,3.126-8.678,8.15v2.779c-0.284-0.114-0.59-0.201-0.915-0.224c-0.701-0.042-1.366,0.184-1.92,0.673
		c-0.907,0.801-1.126,2.222-0.569,3.708C9.783,20.698,13.477,23.848,20.534,24.024z M20.886,4.911c0.008,0,0.014-0.005,0.022-0.005
		c0.008,0,0.014,0.005,0.022,0.005c5.598,0.106,6.741,3.347,6.713,6.133v4.059c0,0.04,0.018,0.074,0.023,0.112
		c-6.71,4.047-12.109,0.97-13.516,0.007c0.005-0.041,0.024-0.077,0.024-0.119l0-4.145C14.145,8.258,15.288,5.016,20.886,4.911z
		 M10.655,15.788c0.674-0.594,1.741,0.605,1.76,0.626c0.02,0.023,0.048,0.033,0.069,0.054c0.021,0.021,0.032,0.048,0.056,0.068
		c0.05,0.041,3.405,2.704,8.349,2.704c2.491,0,5.385-0.676,8.463-2.704c0.025-0.016,0.038-0.042,0.06-0.06
		c0.023-0.018,0.05-0.024,0.072-0.044c0.01-0.009,1.028-0.927,1.672-0.393c0.181,0.15,0.231,0.654-0.023,1.328
		c-0.635,1.678-3.532,4.729-9.924,4.662c-0.008,0-0.014-0.004-0.022-0.004c-0.009,0-0.024,0-0.037,0
		c-6.889,0-9.847-2.988-10.509-4.756C10.356,16.51,10.449,15.97,10.655,15.788z"/>
	<path class="st0" d="M30.805,23.486c-0.126-0.542-0.663-0.877-1.203-0.754c-0.539,0.127-0.874,0.669-0.748,1.212
		c0.191,0.826,0.288,1.682,0.288,2.546c0,5.435-3.829,9.857-8.537,9.857s-8.537-4.422-8.537-9.857c0-0.921,0.11-1.832,0.327-2.708
		c0.134-0.54-0.193-1.088-0.73-1.223c-0.534-0.136-1.08,0.194-1.214,0.735c-0.256,1.035-0.386,2.11-0.386,3.196
		c0,6.548,4.728,11.875,10.54,11.875s10.54-5.327,10.54-11.875C31.145,25.472,31.03,24.461,30.805,23.486z"/>
	<path class="st0" d="M6.646,37.646C0.357,39.821,0.013,44.562,0,44.821v5.17C0,50.548,0.449,51,1.002,51s1.002-0.452,1.002-1.009
		l-0.002-5.103c0.011-0.147,0.332-3.618,5.298-5.335c1.689-0.59,4.937-1.769,4.937-1.769l-0.68-1.898
		C11.556,35.886,8.324,37.06,6.646,37.646z"/>
	<path class="st0" d="M35.119,37.647c-1.681-0.587-4.913-1.761-4.914-1.761l-0.68,1.898c0,0,3.248,1.179,4.977,1.782
		c5.461,1.653,5.271,5.022,5.262,5.153c-0.003,0.034-0.005,0.068-0.005,0.102v5.17c0,0.557,0.449,1.009,1.002,1.009
		c0.553,0,1.002-0.452,1.002-1.009v-5.134C41.801,44.227,41.837,39.68,35.119,37.647z"/>
	<polygon class="st0" points="16.068,43.161 19.872,41.033 16.068,39.031 	"/>
	<polygon class="st0" points="25.7,43.161 25.7,39.031 21.896,41.033 	"/>
</g>
</svg>
