<?xml version="1.0" encoding="utf-8"?>
<!-- Generator: Adobe Illustrator 22.1.0, SVG Export Plug-In . SVG Version: 6.00 Build 0)  -->
<svg version="1.1" id="Слой_1" xmlns="http://www.w3.org/2000/svg" xmlns:xlink="http://www.w3.org/1999/xlink" x="0px" y="0px"
	 width="51px" height="52px" viewBox="0 0 51 52" style="enable-background:new 0 0 51 52;" xml:space="preserve">
<style type="text/css">
	.st0{fill:#00FC82;}
</style>
<g>
	<path class="st0" d="M33.75,34.48v-2.188c0-0.556-0.452-1.008-1.009-1.008H11.683c-0.557,0-1.009,0.451-1.009,1.008v11.061
		c0,4.082,3.146,8.647,7.357,8.647h8.362c3.193,0,5.618-2.357,6.713-5.244c3.822-0.153,6.367-2.673,6.367-6.379
		C39.473,37.015,37.304,34.825,33.75,34.48z M26.393,49.985h-8.362c-3.007,0-5.339-3.565-5.339-6.632V33.299h19.04v10.054
		C31.732,46.49,29.539,49.985,26.393,49.985z M33.644,44.689c0.065-0.445,0.105-0.892,0.105-1.336v-6.851
		c1.693,0.207,3.705,1.047,3.705,3.875C37.455,42.784,36.014,44.37,33.644,44.689z"/>
	<path class="st0" d="M41.927,0h-6.926c-5.003,0-9.073,4.065-9.073,9.061c0,0.404,0.015,1.657,0.036,3.24
		c0.054,3.926,0.148,9.886,0.148,9.886c0.007,0.413,0.265,0.781,0.652,0.927c0.116,0.044,0.237,0.065,0.357,0.065
		c0.279,0,0.551-0.116,0.746-0.33l4.667-5.124c3.905,0.875,9.241,0.414,9.393,0.397c5.003,0,9.073-4.065,9.073-9.061
		S46.93,0,41.927,0z M41.837,16.111c-0.057,0.005-5.796,0.501-9.378-0.48c-0.366-0.1-0.757,0.013-1.013,0.294l-3.357,3.685
		c-0.032-2.086-0.077-5.055-0.108-7.337c-0.021-1.568-0.036-2.811-0.036-3.212c0-3.885,3.165-7.046,7.056-7.046h6.926
		c3.89,0,7.056,3.161,7.056,7.046C48.982,12.946,45.817,16.107,41.837,16.111z"/>
	<path class="st0" d="M18.762,28.788c0.195,0.214,0.468,0.33,0.746,0.33c0.12,0,0.24-0.021,0.357-0.065
		c0.387-0.146,0.646-0.514,0.652-0.927c0.006-0.387,0.149-9.488,0.149-10.62c0-4.147-3.379-7.521-7.532-7.521H7.532
		C3.379,9.985,0,13.359,0,17.506c0,4.145,3.375,7.518,7.435,7.518c0.002,0,0.005,0,0.007,0c0.191,0.017,4.44,0.385,7.619-0.298
		L18.762,28.788z M7.532,23.013c-3.041,0-5.514-2.47-5.514-5.506S4.491,12,7.532,12h5.602c3.041,0,5.514,2.47,5.514,5.506
		c0,0.743-0.066,5.153-0.11,8.042l-2.387-2.621c-0.194-0.213-0.466-0.33-0.746-0.33c-0.089,0-0.179,0.012-0.267,0.036
		C12.278,23.417,7.667,23.02,7.532,23.013z"/>
	<path class="st0" d="M43.835,4.772H32.568c-0.557,0-1.009,0.451-1.009,1.008s0.452,1.008,1.009,1.008h11.266
		c0.557,0,1.009-0.451,1.009-1.008S44.392,4.772,43.835,4.772z"/>
	<path class="st0" d="M43.835,7.984H32.568c-0.557,0-1.009,0.451-1.009,1.008c0,0.556,0.452,1.008,1.009,1.008h11.266
		c0.557,0,1.009-0.451,1.009-1.008C44.843,8.435,44.392,7.984,43.835,7.984z"/>
	<path class="st0" d="M15.69,15.75c0-0.556-0.452-1.008-1.009-1.008H5.6c-0.557,0-1.009,0.451-1.009,1.008s0.452,1.008,1.009,1.008
		h9.08C15.238,16.758,15.69,16.307,15.69,15.75z"/>
	<path class="st0" d="M15.69,18.962c0-0.556-0.452-1.008-1.009-1.008H9.762c-0.557,0-1.009,0.451-1.009,1.008
		c0,0.556,0.452,1.008,1.009,1.008h4.919C15.238,19.969,15.69,19.518,15.69,18.962z"/>
	<path class="st0" d="M37.81,11.195h-5.242c-0.557,0-1.009,0.451-1.009,1.008c0,0.556,0.452,1.008,1.009,1.008h5.242
		c0.557,0,1.009-0.451,1.009-1.008C38.819,11.647,38.367,11.195,37.81,11.195z"/>
</g>
</svg>
