<?xml version="1.0" encoding="utf-8"?>
<!-- Generator: Adobe Illustrator 22.1.0, SVG Export Plug-In . SVG Version: 6.00 Build 0)  -->
<svg version="1.1" id="Слой_1" xmlns="http://www.w3.org/2000/svg" xmlns:xlink="http://www.w3.org/1999/xlink" x="0px" y="0px"
	 width="53px" height="51px" viewBox="0 0 53 51" style="enable-background:new 0 0 53 51;" xml:space="preserve">
<style type="text/css">
	.st0{fill:#00FC82;}
</style>
<g>
	<path class="st0" d="M25.107,7.13c-1.728-5.865-6.884-7.726-10.948-6.971c-3.705,0.689-7.237,3.71-7.068,8.92
		c-2.611,1.535-4.743,5.016-3.633,8.609c0.019,0.061,0.054,0.112,0.083,0.166c-0.695,0.479-1.313,1.038-1.806,1.697
		c-1.913,2.556-2.273,6.256-0.94,9.656c0.578,1.474,1.423,2.737,2.441,3.755c-2.398,2.918-2.042,5.41-1.586,6.678
		c0.804,2.237,3.039,3.972,5.562,4.316c0.303,0.042,0.601,0.062,0.893,0.062c0.019,0,0.036-0.003,0.055-0.003
		C9.35,47.459,10.597,51,15.657,51c0.046,0,0.094,0,0.141-0.001c3.048-0.039,7.203-0.702,8.079-5.991
		c0.005-0.03-0.005-0.057-0.003-0.086c0.042-0.105,0.075-0.217,0.079-0.337l0.034-1.008c0.421-12.18,0.538-19.755-2.249-21.918
		c-0.009-0.007-0.02-0.014-0.029-0.02C25.028,18.295,26.267,11.064,25.107,7.13z M7.412,11.309c0.459,1.73,1.399,3.225,2.758,4.407
		c-1.631,0.133-3.328,0.497-4.841,1.152C4.746,14.581,6.009,12.474,7.412,11.309z M21.973,43.508l-0.035,1.009
		c0,0.008,0.004,0.014,0.004,0.021c-0.016,0.049-0.045,0.09-0.054,0.142c-0.505,3.052-2.22,4.26-6.116,4.309
		c-3.487,0.041-4.405-1.903-5.611-5.356c0.918-0.361,1.711-0.968,2.308-1.808c0.322-0.453,0.215-1.08-0.24-1.4
		c-0.455-0.322-1.083-0.213-1.405,0.239c-0.991,1.394-2.517,1.415-3.338,1.302c-1.77-0.242-3.389-1.477-3.938-3.003
		c-0.528-1.47-0.086-3.095,1.256-4.727c0.923,0.592,1.932,1.017,3.003,1.216c0.063,0.012,0.125,0.017,0.187,0.017
		c0.476,0,0.899-0.337,0.99-0.819c0.102-0.545-0.258-1.07-0.805-1.172c-2.394-0.447-4.452-2.317-5.505-5.002
		c-1.082-2.76-0.822-5.72,0.679-7.725c2.014-2.691,7.597-3.697,11.055-2.766c0.053,0.014,0.105,0.004,0.157,0.01
		c0.078,0.008,0.156,0.024,0.231,0.014c0.043-0.005,0.08-0.026,0.121-0.037c0.084-0.022,0.169-0.041,0.245-0.083
		c0.042-0.023,0.072-0.06,0.11-0.089c0.064-0.049,0.131-0.093,0.182-0.156c0.038-0.047,0.058-0.108,0.088-0.163
		c0.031-0.058,0.073-0.108,0.093-0.173c0.002-0.005,0-0.01,0.001-0.016c0.001-0.005,0.005-0.009,0.007-0.014
		c0.016-0.061,0.007-0.12,0.012-0.18c0.006-0.068,0.021-0.137,0.013-0.203c-0.008-0.064-0.036-0.12-0.056-0.18
		c-0.02-0.062-0.031-0.127-0.063-0.184c-0.031-0.055-0.078-0.097-0.118-0.145c-0.042-0.051-0.077-0.107-0.129-0.149
		c-0.05-0.04-0.114-0.062-0.173-0.093c-0.056-0.029-0.103-0.07-0.166-0.089c-2.027-0.612-5.481-2.279-5.839-6.56
		c-0.387-4.62,2.67-6.853,5.405-7.361c3.2-0.596,7.268,0.892,8.644,5.562c1.128,3.827-0.621,12.115-4.328,13.53
		c-0.051,0.02-0.087,0.058-0.134,0.084c-0.059,0.034-0.119,0.063-0.169,0.107c-0.049,0.043-0.084,0.095-0.123,0.147
		c-0.039,0.051-0.081,0.098-0.11,0.156c-0.029,0.057-0.041,0.119-0.058,0.181c-0.017,0.062-0.038,0.121-0.043,0.187
		c-0.005,0.066,0.008,0.131,0.016,0.198c0.006,0.053-0.002,0.105,0.013,0.157c0.004,0.014,0.015,0.024,0.02,0.038
		c0.005,0.014,0.002,0.028,0.007,0.042c0.039,0.101,0.092,0.191,0.156,0.271c0.005,0.006,0.011,0.009,0.016,0.015
		c0.072,0.085,0.158,0.153,0.251,0.21c0.031,0.019,0.064,0.031,0.097,0.046c0.076,0.035,0.154,0.061,0.237,0.076
		c0.037,0.007,0.071,0.014,0.109,0.016c0.025,0.002,0.049,0.011,0.074,0.011c0.055,0,0.11-0.021,0.165-0.031
		c0.039-0.006,0.076,0.002,0.115-0.009c0.558-0.16,0.834-0.023,1.013,0.115C22.616,24.887,22.289,34.353,21.973,43.508z"/>
	<path class="st0" d="M9.782,22.605c-0.557,0.015-0.995,0.477-0.98,1.031c0.015,0.555,0.478,1.015,1.035,0.976
		c1.16-0.033,2.127,0.373,2.865,1.203c1.188,1.334,1.604,3.571,1.392,4.998c-0.081,0.549,0.299,1.059,0.849,1.141
		c0.05,0.007,0.1,0.011,0.149,0.011c0.491,0,0.921-0.358,0.996-0.857c0.277-1.864-0.193-4.733-1.879-6.626
		C13.074,23.206,11.538,22.551,9.782,22.605z"/>
	<path class="st0" d="M51.264,19.552c-0.493-0.659-1.111-1.219-1.806-1.698c0.029-0.055,0.064-0.105,0.083-0.166
		c1.11-3.593-1.022-7.074-3.633-8.609c0.17-5.211-3.362-8.232-7.068-8.92c-4.064-0.753-9.219,1.105-10.948,6.971
		c-1.159,3.934,0.079,11.165,3.398,14.509c-0.009,0.007-0.02,0.014-0.029,0.02c-2.787,2.163-2.67,9.737-2.25,21.915l0.035,1.012
		c0.004,0.12,0.036,0.231,0.079,0.337c0.002,0.029-0.008,0.056-0.003,0.086c0.877,5.288,5.031,5.952,8.08,5.991
		C37.25,51,37.296,51,37.343,51c5.059,0,6.307-3.542,7.497-6.984c0.018,0,0.036,0.003,0.055,0.003c0.291,0,0.59-0.02,0.893-0.062
		c2.523-0.345,4.758-2.079,5.562-4.316c0.455-1.267,0.812-3.76-1.586-6.678c1.017-1.018,1.863-2.281,2.441-3.755
		C53.537,25.808,53.177,22.108,51.264,19.552z M47.672,16.867c-1.513-0.655-3.21-1.019-4.841-1.152
		c1.358-1.182,2.298-2.677,2.757-4.406C46.991,12.473,48.254,14.581,47.672,16.867z M50.326,28.478
		c-1.053,2.685-3.11,4.555-5.505,5.002c-0.547,0.102-0.908,0.627-0.805,1.172c0.091,0.483,0.514,0.819,0.99,0.819
		c0.062,0,0.124-0.005,0.187-0.017c1.07-0.2,2.079-0.624,3.003-1.216c1.343,1.632,1.785,3.257,1.256,4.727
		c-0.548,1.527-2.167,2.761-3.938,3.003c-0.821,0.113-2.347,0.093-3.338-1.302c-0.321-0.452-0.95-0.561-1.405-0.239
		c-0.454,0.32-0.562,0.947-0.24,1.4c0.597,0.84,1.39,1.447,2.307,1.808c-1.206,3.454-2.139,5.424-5.61,5.356
		c-3.895-0.05-5.611-1.258-6.116-4.309c-0.009-0.052-0.038-0.093-0.054-0.142c0-0.008,0.004-0.014,0.004-0.022l-0.035-1.012
		c-0.316-9.153-0.643-18.618,1.474-20.261c0.179-0.138,0.456-0.275,1.013-0.115c0.039,0.011,0.076,0.003,0.115,0.009
		c0.055,0.009,0.11,0.031,0.165,0.031c0.025,0,0.049-0.009,0.074-0.011c0.037-0.003,0.071-0.01,0.108-0.016
		c0.084-0.016,0.163-0.041,0.24-0.077c0.032-0.015,0.064-0.027,0.095-0.045c0.095-0.057,0.181-0.125,0.254-0.211
		c0.004-0.005,0.01-0.008,0.015-0.014c0.064-0.08,0.118-0.17,0.157-0.271c0.005-0.014,0.002-0.028,0.007-0.042
		c0.005-0.014,0.016-0.024,0.02-0.038c0.015-0.053,0.007-0.105,0.013-0.157c0.008-0.067,0.022-0.132,0.016-0.198
		c-0.005-0.066-0.026-0.125-0.043-0.187c-0.017-0.062-0.03-0.123-0.058-0.18c-0.029-0.058-0.071-0.105-0.11-0.156
		c-0.039-0.051-0.074-0.103-0.123-0.147c-0.05-0.044-0.11-0.073-0.169-0.107c-0.046-0.027-0.082-0.065-0.133-0.084
		c-3.707-1.415-5.456-9.703-4.328-13.53c1.376-4.67,5.443-6.156,8.644-5.562c2.735,0.508,5.792,2.741,5.405,7.361
		c-0.358,4.281-3.812,5.948-5.839,6.56c-0.063,0.019-0.11,0.06-0.166,0.089c-0.058,0.031-0.123,0.052-0.173,0.093
		c-0.052,0.042-0.087,0.098-0.129,0.149c-0.04,0.048-0.088,0.09-0.118,0.145c-0.032,0.057-0.043,0.122-0.063,0.184
		c-0.02,0.06-0.048,0.117-0.056,0.18c-0.008,0.067,0.008,0.135,0.013,0.203c0.005,0.06-0.005,0.119,0.012,0.18
		c0.001,0.005,0.005,0.009,0.007,0.014c0.001,0.005,0,0.01,0.001,0.016c0.018,0.06,0.058,0.105,0.086,0.158
		c0.032,0.061,0.055,0.127,0.097,0.18c0.038,0.046,0.088,0.076,0.133,0.115c0.054,0.046,0.101,0.098,0.163,0.132
		c0.049,0.027,0.106,0.035,0.159,0.054c0.069,0.024,0.134,0.055,0.207,0.064c0.063,0.008,0.127-0.008,0.191-0.012
		c0.064-0.004,0.127,0.005,0.192-0.012c3.457-0.929,9.041,0.075,11.055,2.766C51.148,22.758,51.409,25.718,50.326,28.478z"/>
	<path class="st0" d="M43.218,22.605c-1.775-0.053-3.292,0.601-4.428,1.877c-1.686,1.893-2.155,4.762-1.879,6.626
		c0.074,0.499,0.504,0.857,0.996,0.857c0.049,0,0.099-0.003,0.149-0.011c0.551-0.081,0.931-0.592,0.849-1.141
		c-0.212-1.427,0.204-3.664,1.392-4.998c0.739-0.83,1.7-1.238,2.865-1.203c0.535,0.013,1.02-0.422,1.035-0.976
		C44.213,23.082,43.774,22.62,43.218,22.605z"/>
</g>
</svg>
