<?xml version="1.0" encoding="utf-8"?>
<!-- Generator: Adobe Illustrator 22.1.0, SVG Export Plug-In . SVG Version: 6.00 Build 0)  -->
<svg version="1.1" id="Layer_1" xmlns="http://www.w3.org/2000/svg" xmlns:xlink="http://www.w3.org/1999/xlink" x="0px" y="0px"
	 width="48px" height="53px" viewBox="0 0 48 53" style="enable-background:new 0 0 48 53;" xml:space="preserve">
<path style="fill:#E10098;" d="M45.6,33.3c-0.4-0.2-0.8-0.4-1.3-0.5V20.2c0.5-0.1,0.9-0.3,1.3-0.5c2.3-1.3,3.1-4.1,1.8-6.4
	c0,0,0,0,0-0.1c-1.4-2.3-4.3-3-6.6-1.7c-0.4,0.2-0.8,0.5-1.1,0.8L28.6,6.1c0.1-0.4,0.2-0.9,0.2-1.3C28.8,2.1,26.6,0,23.9,0
	c-2.6,0.1-4.7,2.1-4.7,4.7c0,0.5,0.1,0.9,0.2,1.3L8.3,12.4C8,12,7.6,11.7,7.2,11.5C4.9,10.2,2,11,0.6,13.3c-1.3,2.2-0.6,5.1,1.7,6.4
	c0,0,0,0,0.1,0c0.4,0.2,0.8,0.4,1.3,0.5v12.6c-0.4,0.1-0.9,0.3-1.3,0.5c-2.3,1.3-3.1,4.1-1.8,6.4c0,0,0,0,0,0.1l0,0
	c1.4,2.3,4.3,3,6.6,1.7C7.6,41.3,8,41,8.3,40.7l11.1,6.3c-0.1,0.4-0.2,0.9-0.2,1.3c0.1,2.7,2.3,4.8,4.9,4.7c2.6-0.1,4.7-2.1,4.7-4.7
	c0-0.5-0.1-1-0.3-1.5l11-6.3c0.3,0.4,0.7,0.7,1.2,0.9c2.3,1.3,5.2,0.5,6.6-1.7c1.3-2.2,0.6-5.1-1.6-6.4
	C45.7,33.3,45.6,33.3,45.6,33.3z M6.2,32.9c-0.1,0-0.1,0-0.2-0.1V20.2c1.3-0.3,2.3-1.1,3-2.2c0.7-1.1,0.8-2.4,0.5-3.7L20.5,8
	c0.1,0,0.1,0.1,0.1,0.1L6.2,32.9z M27.5,45.1c-1.8-2-4.9-2.1-6.9-0.2c0,0-0.1,0.1-0.1,0.1L9.4,38.7c0-0.1,0-0.1,0.1-0.2h29
	c0,0.1,0.1,0.2,0.1,0.3L27.5,45.1z M39,35c-0.2,0.4-0.4,0.8-0.5,1.2h-29C9.4,35.8,9.2,35.4,9,35c-0.2-0.4-0.5-0.7-0.8-1.1L22.7,9.3
	c0.4,0.1,0.9,0.2,1.3,0.2c0.5,0,0.9-0.1,1.3-0.2L39.9,34C39.5,34.3,39.2,34.6,39,35L39,35z M42,32.8c-0.1,0-0.1,0-0.2,0.1L27.3,8.1
	c0,0,0.1-0.1,0.1-0.1l11.1,6.3c-0.4,1.2-0.2,2.5,0.5,3.7c0.7,1.1,1.7,1.9,3,2.2V32.8L42,32.8z"/>
</svg>
