<svg width="195" height="66" viewBox="0 0 195 66" fill="none" xmlns="http://www.w3.org/2000/svg">
<g clip-path="url(#clip0_3006_498)">
<path d="M165.31 41.6733L165.787 40.0191C166.355 38.0524 166.144 36.2327 165.191 34.8955C164.316 33.664 162.854 32.9426 161.081 32.8553L127.474 32.4233C127.249 32.4095 127.062 32.3084 126.947 32.143C126.828 31.9684 126.805 31.7478 126.874 31.5364C126.984 31.2056 127.314 30.9529 127.653 30.9391L161.572 30.5071C165.594 30.3233 169.952 27.047 171.477 23.0538L173.411 17.9854C173.466 17.8475 173.489 17.7005 173.489 17.5534C173.489 17.4753 173.484 17.3926 173.466 17.3145C171.267 7.40737 162.451 0 151.913 0C142.2 0 133.953 6.28615 130.997 15.0261C129.087 13.5878 126.645 12.825 124.019 13.087C119.36 13.5511 115.616 17.3145 115.154 21.9877C115.034 23.2009 115.131 24.3726 115.41 25.4709C107.8 25.6914 101.692 31.95 101.692 39.6377C101.692 40.3315 101.743 41.0162 101.844 41.6871C101.889 42.0134 102.164 42.2569 102.49 42.2569L164.531 42.2661C164.531 42.2661 164.545 42.2661 164.55 42.2661C164.902 42.2569 165.219 42.0226 165.319 41.6779L165.31 41.6733Z" fill="#F78100"/>
<path d="M176.508 18.3576C176.197 18.3576 175.885 18.3668 175.578 18.3805C175.528 18.3805 175.477 18.3943 175.432 18.4127C175.271 18.4679 175.143 18.6011 175.093 18.7711L173.773 23.3479C173.205 25.3146 173.416 27.1297 174.369 28.4669C175.244 29.6984 176.705 30.4198 178.478 30.5071L185.644 30.9391C185.855 30.9483 186.043 31.0539 186.157 31.2194C186.277 31.394 186.304 31.6191 186.231 31.8305C186.116 32.1614 185.791 32.4141 185.452 32.4279L178.007 32.8598C173.965 33.0482 169.608 36.32 168.082 40.3132L167.546 41.7239C167.45 41.9812 167.629 42.2523 167.899 42.2661C167.904 42.2661 167.913 42.2661 167.917 42.2661H193.53C193.837 42.2661 194.107 42.0639 194.189 41.7698C194.634 40.1845 194.872 38.5119 194.872 36.7795C194.872 26.6059 186.648 18.3576 176.504 18.3576H176.508Z" fill="#FCAD32"/>
<path d="M21.6899 49.8711H26.0609V61.846H33.6942V65.6829H21.6899V49.8711Z" fill="white"/>
<path d="M38.2212 57.8252V57.7793C38.2212 53.2393 41.8683 49.554 46.7341 49.554C51.6 49.554 55.2012 53.1933 55.2012 57.7333V57.7793C55.2012 62.3193 51.5541 66 46.6883 66C41.8225 66 38.2212 62.3652 38.2212 57.8252ZM50.7432 57.8252V57.7793C50.7432 55.4955 49.0983 53.5104 46.6883 53.5104C44.2783 53.5104 42.7022 55.4541 42.7022 57.7333V57.7793C42.7022 60.0631 44.347 62.0482 46.7341 62.0482C49.1212 62.0482 50.7432 60.1044 50.7432 57.8252Z" fill="white"/>
<path d="M60.5479 58.7489V49.8711H64.9876V58.657C64.9876 60.9407 66.1376 62.0206 67.8924 62.0206C69.6472 62.0206 70.7973 60.9821 70.7973 58.7672V49.8665H75.237V58.6294C75.237 63.7346 72.3322 65.9678 67.8512 65.9678C63.3702 65.9678 60.5524 63.6886 60.5524 58.7397" fill="white"/>
<path d="M81.9219 49.8711H88.0019C93.6329 49.8711 96.8997 53.1244 96.8997 57.6874V57.7333C96.8997 62.2963 93.5871 65.6829 87.9148 65.6829H81.9219V49.8711ZM88.0706 61.8001C90.6822 61.8001 92.4187 60.3526 92.4187 57.8023V57.7563C92.4187 55.229 90.6868 53.7586 88.0706 53.7586H86.2929V61.8001H88.0706Z" fill="white"/>
<path d="M103.25 49.8711H115.864V53.7126H107.621V56.4008H115.076V60.0355H107.621V65.6829H103.25V49.8711Z" fill="white"/>
<path d="M121.944 49.8711H126.315V61.846H133.948V65.6829H121.944V49.8711Z" fill="white"/>
<path d="M145.366 49.7608H149.576L156.289 65.6829H151.606L150.456 62.8615H144.376L143.249 65.6829H138.653L145.366 49.7608ZM149.196 59.4519L147.441 54.9579L145.663 59.4519H149.201H149.196Z" fill="white"/>
<path d="M161.919 49.8711H169.374C171.784 49.8711 173.452 50.5052 174.51 51.5896C175.436 52.4949 175.908 53.7126 175.908 55.2704V55.3163C175.908 57.7333 174.625 59.3371 172.664 60.1734L176.425 65.6875H171.381L168.206 60.8994H166.29V65.6875H161.919V49.8757V49.8711ZM169.172 57.4622C170.657 57.4622 171.514 56.7408 171.514 55.5874V55.5415C171.514 54.2962 170.611 53.6667 169.149 53.6667H166.29V57.4622H169.172Z" fill="white"/>
<path d="M182.208 49.8711H194.89V53.5977H186.533V55.9918H194.102V59.4519H186.533V61.9563H195V65.6829H182.208V49.8711Z" fill="white"/>
<path d="M12.1235 59.6771C11.5142 61.0602 10.2221 62.0482 8.51311 62.0482C6.12601 62.0482 4.48115 60.0585 4.48115 57.7793V57.7333C4.48115 55.4496 6.08019 53.5104 8.46729 53.5104C10.2679 53.5104 11.6379 54.6224 12.2152 56.1296H16.8199C16.0822 52.3662 12.7833 49.5586 8.50853 49.5586C3.64269 49.5586 -0.00439453 53.2393 -0.00439453 57.7793V57.8252C-0.00439453 62.3652 3.59687 66.0046 8.46271 66.0046C12.623 66.0046 15.876 63.3027 16.7328 59.6817H12.1144L12.1235 59.6771Z" fill="white"/>
</g>
<defs>
<clipPath id="clip0_3006_498">
<rect width="195" height="66" fill="white"/>
</clipPath>
</defs>
</svg>
