<svg version="1.1" id="Layer_1" xmlns="http://www.w3.org/2000/svg" x="0" y="0" viewBox="0 0 229.7 121.1" xml:space="preserve">
  <style>
    .st0{fill:#fff}
  </style>
  <title>
    Node Cyber Summit
  </title>
  <path class="st0" d="M208.3 121.1h8.6V95.4h8.5l4.3-4.2v-4.3h-34.2v8.5h12.8zM182.6 121.1h8.6V86.9h-8.6v10.2zM77 121.1l4.3-4.3V86.9h-8.6v25.6H51.3V86.9h-8.6v29.9l4.3 4.3h30zM201.1 80.2h8.6v-4.3L199 65.3c3.5-3.6 6-7.1 9.6-10.7V46h-37.4v34.2h8.6V67.4h8.6l12.7 12.8zm-21.4-21.3v-4.3h17.1l-4.3 4.3h-12.8zM121.2 99.9v21.2h8.6V86.9h-4.3l-17.8 10.5-17.9-10.5h-4.3v34.2h8.6v-19.9l9.3 4.9v15.1h8.4V106l9.4-6.1zM169.8 99.9V121h8.6V86.9h-4.3l-17.9 10.5-17.8-10.5h-4.3v34.2h8.6v-19.9l9.3 4.8v15.1h8.4V106l9.4-6.1zM107 67.4l4.3 4.3H94.1v-4.3H107zm-12.9-8.5v-4.3h17.1l-4.3 4.3H94.1zm-8.5 21.3h38.5v-8.5l-8.6-8.6 8.6-8.5V46H85.6v34.2zM57.9 80.2h8.6V65.1l14.8-14.8V46h-8.5L62.1 56.7 51.3 46h-8.5v4.3L58 65.4zM8.6 71.7V58.9l4.2-4.3h21.5l4.2-4.3V46H8.6L0 54.6v25.6h38.5v-4.3l-4.2-4.2zM128.4 39.3h38.5V35l-4.3-4.3h-25.7v-4.3h20v-8.5h-20v-4.3h25.7l4.3-4.3V5.1h-38.5v34.2zM128.4 80.2h38.5v-4.3l-4.3-4.3h-25.7v-4.3h20v-8.5h-20v-4.3h25.7l4.3-4.3V46h-38.5v34.2zM85.6 39.3h25.6L124 26.5V18L111.2 5.1H85.5l.1 34.2zM107 13.6l8.6 8.5-8.6 8.6H94.1V13.6H107zM30 39.3h8.6V5.1H30v21.4L8.6 5.1H0v34.2h8.6V17.9L30 39.3z"/>
  <path d="M64 1.1l7.6 4.4 7.6 4.4 2 1.2v22.2l-2 1.1-7.6 4.4-7.6 4.4-2 1.1-2-1.1-7.6-4.4-7.6-4.4-2-1.1V11.1l2-1.2 7.6-4.4L60 1.1 62 0l2 1.1zm3.7 11.3l-5.6-3.3-5.7 3.3-5.6 3.2v13l5.6 3.2 5.7 3.3 5.6-3.3 5.6-3.2v-13l-5.6-3.2z" fill="#a9e600"/>
  <path class="st0" d="M11.7 95.4h22.6l4.2-4.3v-4.2H0v8.5l10 12.8h13.5l3.3 4.3H4.3L0 116.8v4.3h38.5v-8.6l-10-12.8H15z"/>
</svg>