<svg id="Layer_1" data-name="Layer 1" xmlns="http://www.w3.org/2000/svg" viewBox="0 0 248.85 77.86"><defs><style>.cls-1,.cls-3{fill:#fff;}.cls-2{fill:#bf0;}.cls-3{fill-rule:evenodd;}</style></defs><title>NJSC_logo_wht</title><polygon class="cls-1" points="97.63 74.03 120.04 74.03 123.24 70.83 123.24 58.05 110.43 58.05 107.23 61.24 107.23 64.44 116.84 64.44 116.84 67.64 100.83 67.64 100.83 61.24 107.23 54.85 120.04 54.85 123.24 51.66 123.24 48.43 104.03 48.43 94.42 58.05 94.42 70.83 97.63 74.03"/><path class="cls-1" d="M2010.41,2431.63h25.39l8.58-8.53v-25.63h-8.58v21.35l-4.26,4.28H2014.7l-4.29,4.28Z" transform="translate(-1838.31 -2392.36)"/><path class="cls-1" d="M1986.85,2466.39h6.4v-3.2l-8-8c2.63-2.68,4.46-5.34,7.15-8v-6.42h-28v25.6h6.4v-9.59h6.4Zm-16-16v-3.2h12.81l-3.2,3.2Z" transform="translate(-1838.31 -2392.36)"/><polygon class="cls-1" points="6.4 67.64 6.4 58.05 9.61 54.85 25.64 54.85 28.84 51.66 28.84 48.43 6.4 48.43 0 54.85 0 74.03 28.84 74.03 28.84 70.83 25.64 67.64 6.4 67.64"/><path class="cls-1" d="M1967.53,2431.63h38.54v-4.25l-4.29-4.28H1976.1v-4.28h20v-8.53h-20V2406h25.67l4.29-4.28v-4.25h-38.54v34.16Z" transform="translate(-1838.31 -2392.36)"/><path class="cls-1" d="M1995.51,2466.39h28.84v-3.2l-3.2-3.2h-19.24v-3.2h15v-6.39h-15v-3.2h19.24l3.2-3.2v-3.22h-28.84v25.6Z" transform="translate(-1838.31 -2392.36)"/><path class="cls-1" d="M1924.76,2431.63h25.67l12.84-12.81v-8.53l-12.84-12.81h-25.67Zm21.38-25.63,8.58,8.53-8.58,8.56h-12.84V2406Z" transform="translate(-1838.31 -2392.36)"/><path class="cls-1" d="M1868.27,2431.63h8.58v-34.16h-8.58v21.35l-21.38-21.35h-8.58v34.16h8.58v-21.35Z" transform="translate(-1838.31 -2392.36)"/><path class="cls-1" d="M1923.47,2466.39h6.4v-25.6h-6.4v16l-16-16H1901v25.6h6.4v-16Z" transform="translate(-1838.31 -2392.36)"/><path class="cls-2" d="M1920.19,2403.46v22.18l-19.24,11.1-19.27-11.1v-22.18l19.27-11.1Zm-19.24-1.91-11.26,6.48v13l11.26,6.48,11.23-6.48v-13Z" transform="translate(-1838.31 -2392.36)"/><path class="cls-1" d="M1897.92,2445.3v16.61l-14.44,8.3-14.41-8.3V2445.3l14.41-8.3Zm-14.44-1.43-8.4,4.85v9.76l8.4,4.85,8.43-4.85v-9.76Z" transform="translate(-1838.31 -2392.36)"/><polygon class="cls-3" points="222.01 13.64 244.59 13.64 248.85 9.36 248.85 5.11 210.32 5.11 210.32 13.64 220.29 26.46 233.82 26.46 237.16 30.74 214.61 30.74 210.32 34.99 210.32 39.27 248.85 39.27 248.85 30.74 238.88 17.92 225.35 17.92 222.01 13.64"/><polygon class="cls-3" points="197.37 54.85 214.26 54.85 217.44 51.63 217.44 48.43 188.59 48.43 188.59 54.85 196.08 64.44 206.2 64.44 208.69 67.64 191.82 67.64 188.59 70.83 188.59 74.03 217.44 74.03 217.44 67.64 209.97 58.05 199.85 58.05 197.37 54.85"/><polygon class="cls-3" points="228.76 54.85 245.65 54.85 248.85 51.63 248.85 48.43 220.01 48.43 220.01 54.85 227.47 64.44 237.59 64.44 240.08 67.64 223.21 67.64 220.01 70.83 220.01 74.03 248.85 74.03 248.85 67.64 241.36 58.05 231.24 58.05 228.76 54.85"/></svg>