<svg width="168" height="38" viewBox="0 0 168 38" fill="none" xmlns="http://www.w3.org/2000/svg">
<path d="M24.2296 1.91903C23.8818 1.33354 23.3909 0.849168 22.8042 0.51293C22.2176 0.176691 21.5553 0 20.8815 0C20.2078 0 19.5455 0.176691 18.9588 0.51293C18.3722 0.849168 17.8812 1.33354 17.5335 1.91903L12.026 11.4894C16.2335 13.6206 19.8184 16.8314 22.4246 20.8029C25.0308 24.7744 26.5678 29.3684 26.8829 34.1289H23.0159C22.7014 30.0483 21.3421 26.1217 19.0725 22.7378C16.8029 19.3538 13.7017 16.6298 10.0758 14.8352L4.97842 23.7772C7.01681 24.7047 8.79264 26.1373 10.1426 27.9432C11.4926 29.7491 12.3734 31.8703 12.704 34.1119H3.82335C3.71803 34.1044 3.61622 34.0703 3.5271 34.0129C3.43798 33.9554 3.36436 33.8764 3.31287 33.7829C3.26138 33.6893 3.23365 33.5843 3.23217 33.4772C3.23069 33.3701 3.25552 33.2643 3.30441 33.1693L5.7652 28.9233C4.93149 28.2176 3.97866 27.671 2.95286 27.3099L0.517173 31.5558C0.263606 31.9971 0.0989915 32.4851 0.0328933 32.9915C-0.0332049 33.4978 0.000530687 34.0124 0.13214 34.5055C0.26375 34.9985 0.49061 35.4601 0.799541 35.8634C1.10847 36.2667 1.49332 36.6037 1.93171 36.8548C2.50933 37.185 3.16037 37.3604 3.82335 37.3643H15.9851C16.2109 34.5366 15.7132 31.6975 14.5401 29.1222C13.367 26.5469 11.5582 24.3227 9.289 22.6648L11.2225 19.268C14.0863 21.2636 16.3876 23.9822 17.8995 27.1557C19.4114 30.3292 20.0815 33.8478 19.8437 37.3643H30.1472C30.3872 32.0373 29.2449 26.7397 26.8346 22.0009C24.4243 17.2621 20.8303 13.2481 16.4119 10.36L20.3208 3.56647C20.4079 3.41841 20.5491 3.31124 20.7137 3.2683C20.8783 3.22536 21.0529 3.25012 21.1996 3.33718C21.6432 3.58345 38.1825 32.8636 38.4922 33.2033C38.5467 33.3025 38.5745 33.4146 38.5726 33.5283C38.5708 33.6419 38.5394 33.753 38.4816 33.8504C38.4239 33.9478 38.3418 34.0279 38.2437 34.0828C38.1456 34.1377 38.035 34.1653 37.923 34.1629H33.9388C33.9891 35.2442 33.9891 36.3226 33.9388 37.3983H37.9397C38.4478 37.4017 38.9514 37.3028 39.4216 37.1073C39.8917 36.9119 40.3189 36.6238 40.6786 36.2597C41.0382 35.8956 41.3231 35.4628 41.5167 34.9863C41.7104 34.5097 41.8089 33.999 41.8067 33.4835C41.8072 32.8027 41.628 32.1342 41.2878 31.5474L24.2296 1.91903ZM104.013 24.015L91.6588 7.82941H88.5786V29.5263H91.7007V12.8991L104.406 29.5263H107.135V7.82941H104.013V24.015ZM72.9015 19.9898H83.9751V17.1705H72.8931V10.6402H85.3896V7.82092H69.7125V29.5263H85.5487V26.707H72.8931L72.9015 19.9898ZM59.8777 17.2385C55.5671 16.1855 54.3618 15.3533 54.3618 13.3322C54.3618 11.5149 55.9438 10.2836 58.3041 10.2836C60.4537 10.3474 62.5269 11.1061 64.2217 12.449L65.8958 10.0458C63.7501 8.33934 61.0884 7.43917 58.3627 7.49823C54.1274 7.49823 51.1728 10.0458 51.1728 13.6719C51.1728 17.5781 53.6838 18.9284 58.2539 20.0578C62.3217 21.0089 63.5689 21.892 63.5689 23.8707C63.5689 25.8493 61.8949 27.0721 59.3085 27.0721C56.7336 27.0601 54.256 26.0728 52.3614 24.3037L50.4781 26.5881C52.9049 28.7036 56.0002 29.8639 59.1997 29.8575C63.7865 29.8575 66.7328 27.3523 66.7328 23.48C66.7077 20.2021 64.7993 18.4443 59.8777 17.2385ZM163.759 7.82941L157.322 18.0197L150.927 7.82941H147.194L155.64 20.9494V29.5348H158.854V20.8475L167.358 7.82941H163.759ZM109.663 10.7676H116.669V29.5348H119.883V10.7676H126.888V7.82941H109.671L109.663 10.7676ZM141.754 21.0598C144.985 20.1512 146.776 17.8584 146.776 14.5805C146.776 10.411 143.771 7.78695 138.925 7.78695H129.416V29.5178H132.597V21.7222H137.996L143.419 29.5348H147.136L141.277 21.1957L141.754 21.0598ZM132.588 18.9368V10.6997H138.59C141.72 10.6997 143.511 12.2028 143.511 14.8098C143.511 17.4168 141.595 18.9368 138.623 18.9368H132.588Z" fill="black"/>
</svg>
