<svg width="111" height="112" viewBox="0 0 111 112" fill="none" xmlns="http://www.w3.org/2000/svg">
<path d="M15.0699 2.232V0H30.4059V2.232H15.0699Z" fill="#3D3D3D"/>
<path d="M36.6559 2.232V0H51.9919V2.232H36.6559Z" fill="#3D3D3D"/>
<path d="M58.2418 2.232V0H73.5778V2.232H58.2418Z" fill="#3D3D3D"/>
<path d="M79.8278 2.232V0H95.1637V2.232H79.8278Z" fill="#3D3D3D"/>
<path d="M0 39.96V9H2.304V39.96H0Z" fill="#3D3D3D"/>
<path d="M21.5859 39.96V9H23.8899V39.96H21.5859Z" fill="#3D3D3D"/>
<path d="M86.3438 39.96V9H88.6478V39.96H86.3438Z" fill="#3D3D3D"/>
<path d="M107.93 39.96V9H110.234V39.96H107.93Z" fill="#3D3D3D"/>
<path d="M0 75.96V45H2.304V75.96H0Z" fill="#3D3D3D"/>
<path d="M21.5859 75.96V45H23.8899V75.96H21.5859Z" fill="#3D3D3D"/>
<path d="M36.6559 74.232V72H51.9919V74.232H36.6559Z" fill="#3D3D3D"/>
<path d="M58.2418 74.232V72H73.5778V74.232H58.2418Z" fill="#3D3D3D"/>
<path d="M86.3438 75.96V45H88.6478V75.96H86.3438Z" fill="#3D3D3D"/>
<path d="M107.93 75.96V45H110.234V75.96H107.93Z" fill="#3D3D3D"/>
<path d="M0 111.96V81H2.304V111.96H0Z" fill="#3D3D3D"/>
<path d="M16.1499 111.96L27.0219 81.036H29.3259L18.4539 111.96H16.1499Z" fill="#3D3D3D"/>
<path d="M36.6559 110.232V108H51.9919V110.232H36.6559Z" fill="#3D3D3D"/>
<path d="M58.2418 110.232V108H73.5778V110.232H58.2418Z" fill="#3D3D3D"/>
<path d="M94.0837 111.96H91.7798L80.9078 81.036H83.2118L94.0837 111.96Z" fill="#3D3D3D"/>
<path d="M107.93 111.96V81H110.234V111.96H107.93Z" fill="#3D3D3D"/>
</svg>
