<svg xmlns="http://www.w3.org/2000/svg" width="22" height="17" viewBox="0 0 22 17">
  <defs>
    <style>
      .cls-1 {
        fill: #f9f9f9;
        fill-rule: evenodd;
      }
    </style>
  </defs>
  <path class="cls-1" d="M548.619,2955.73a2.9,2.9,0,0,0-2.378-2.39,99.971,99.971,0,0,0-16.476,0,2.9,2.9,0,0,0-2.377,2.39,43.374,43.374,0,0,0,0,11.54,2.9,2.9,0,0,0,2.378,2.39,99.971,99.971,0,0,0,16.476,0,2.9,2.9,0,0,0,2.378-2.39A43.655,43.655,0,0,0,548.619,2955.73Zm-13.458,9.56v-8.07l6.994,4.05C539.816,2962.61,537.5,2963.94,535.161,2965.29Z" transform="translate(-527 -2953)"/>
</svg>
