<svg xmlns="http://www.w3.org/2000/svg" width="21" height="21" viewBox="0 0 21 21">
  <defs>
    <style>
      .cls-1 {
        fill: #fff;
        fill-rule: evenodd;
      }
    </style>
  </defs>
  <path class="cls-1" d="M502.591,2954.36a10.637,10.637,0,0,0-3.821-3.92,10.365,10.365,0,0,0-10.541,0A10.95,10.95,0,0,0,485,2966.09a10.326,10.326,0,0,0,5.175,3.89,0.594,0.594,0,0,0,.546-0.1,0.546,0.546,0,0,0,.178-0.42c0-.03,0-0.28-0.007-0.76s-0.007-.89-0.007-1.24l-0.314.05a3.377,3.377,0,0,1-.759.05,4.536,4.536,0,0,1-.95-0.1,2.086,2.086,0,0,1-.916-0.42,1.751,1.751,0,0,1-.6-0.86l-0.136-.32a3.324,3.324,0,0,0-.431-0.71,1.672,1.672,0,0,0-.595-0.54l-0.1-.07a1.012,1.012,0,0,1-.3-0.36,0.116,0.116,0,0,1,.068-0.16,0.758,0.758,0,0,1,.4-0.07l0.273,0.05a1.77,1.77,0,0,1,.677.33,2.262,2.262,0,0,1,.663.73,2.482,2.482,0,0,0,.759.88,1.586,1.586,0,0,0,.9.3,4.3,4.3,0,0,0,.779-0.07,3.04,3.04,0,0,0,.616-0.21,2.312,2.312,0,0,1,.669-1.45,8.724,8.724,0,0,1-1.4-.25,5.146,5.146,0,0,1-1.285-.55,3.708,3.708,0,0,1-1.1-.93,4.661,4.661,0,0,1-.717-1.48,7.078,7.078,0,0,1-.28-2.1,4.122,4.122,0,0,1,1.08-2.88,3.854,3.854,0,0,1,.1-2.86,1.836,1.836,0,0,1,1.176.19,9.6,9.6,0,0,1,1.142.53c0.241,0.15.435,0.28,0.581,0.38a9.75,9.75,0,0,1,5.25,0l0.52-.33a7.078,7.078,0,0,1,1.257-.62,1.684,1.684,0,0,1,1.108-.15,3.822,3.822,0,0,1,.109,2.86,4.122,4.122,0,0,1,1.08,2.88,7.194,7.194,0,0,1-.28,2.11,4.4,4.4,0,0,1-.724,1.47,3.8,3.8,0,0,1-1.108.93,5.146,5.146,0,0,1-1.285.55,8.724,8.724,0,0,1-1.4.25,2.542,2.542,0,0,1,.71,1.99v2.96a0.558,0.558,0,0,0,.171.42,0.579,0.579,0,0,0,.54.1,10.326,10.326,0,0,0,5.175-3.89A11.026,11.026,0,0,0,502.591,2954.36Z" transform="translate(-483 -2949)"/>
</svg>
