<svg xmlns="http://www.w3.org/2000/svg" width="9" height="21" viewBox="0 0 9 21">
  <defs>
    <style>
      .cls-1 {
        fill: #f9f9f9;
        fill-rule: evenodd;
      }
    </style>
  </defs>
  <path class="cls-1" d="M494.988,2955.88v-1.81a4.4,4.4,0,0,1,.035-0.63,1.346,1.346,0,0,1,.159-0.44,0.686,0.686,0,0,1,.4-0.3,2.857,2.857,0,0,1,.733-0.08h1.664V2949h-2.66a4.138,4.138,0,0,0-3.317,1.19,5.331,5.331,0,0,0-1.008,3.51v2.18H489v3.62h1.992V2970h4v-10.5h2.66l0.352-3.62h-3.012Z" transform="translate(-489 -2949)"/>
</svg>
