<svg xmlns="http://www.w3.org/2000/svg" width="17" height="14" viewBox="0 0 17 14">
  <defs>
    <style>
      .cls-1 {
        fill: #fff;
        fill-rule: evenodd;
      }
    </style>
  </defs>
  <path class="cls-1" d="M462,2955.66a6.744,6.744,0,0,1-2,.55,3.561,3.561,0,0,0,1.534-1.95,6.836,6.836,0,0,1-2.216.85,3.481,3.481,0,0,0-6.03,2.42,3.649,3.649,0,0,0,.09.81,9.865,9.865,0,0,1-7.186-3.7,3.584,3.584,0,0,0-.473,1.78,3.534,3.534,0,0,0,1.552,2.94,3.4,3.4,0,0,1-1.58-.44v0.05a3.571,3.571,0,0,0,.239,1.28,3.517,3.517,0,0,0,2.559,2.18,3.494,3.494,0,0,1-.92.13,3.56,3.56,0,0,1-.656-0.07,3.5,3.5,0,0,0,3.257,2.46,6.919,6.919,0,0,1-4.33,1.51,7.635,7.635,0,0,1-.833-0.05,9.853,9.853,0,0,0,15.029-6.33,10.137,10.137,0,0,0,.237-2.14c0-.15,0-0.3-0.009-0.46A7.1,7.1,0,0,0,462,2955.66Z" transform="translate(-445 -2954)"/>
</svg>
