<?xml version="1.0" encoding="utf-8"?>
<!-- Generator: Adobe Illustrator 19.2.1, SVG Export Plug-In . SVG Version: 6.00 Build 0)  -->
<svg version="1.1" id="Layer_1" xmlns="http://www.w3.org/2000/svg" xmlns:xlink="http://www.w3.org/1999/xlink" x="0px" y="0px"
	 viewBox="0 0 19 18.6" style="enable-background:new 0 0 19 18.6;" xml:space="preserve">
<path id="Ellipse_10_copy_14" style="fill:#F59423;" d="M9.5,0c5.1,0.1,9.2,4.4,9.1,9.5c-0.1,5.1-4.4,9.2-9.5,9.1
	C4,18.5,0,14.4,0,9.3C0.1,4.1,4.3-0.1,9.5,0C9.5,0,9.5,0,9.5,0z M12.8,18.1c0,0-0.9,0.1-0.9-0.4l0-3c0-0.5-0.3-1-0.6-1.3
	c0,0,4.3-0.1,4.4-4.2c0.1-1.1-0.3-2.1-1-2.9c0.3-0.8,0.3-1.7-0.1-2.5c0,0-0.7-0.3-2.6,0.9c-1.6-0.4-3.2-0.5-4.8,0
	C6.3,4.2,5.4,3.9,4.5,3.8C4.1,4.6,4.1,5.5,4.4,6.3C3.7,7,3.3,8,3.4,9c0.1,1.8,0.4,4,4.3,4.4c-0.4,0.3-0.6,0.8-0.6,1.2
	c-0.8,0.4-1.8,0.3-2.4-0.4c0,0-1-1.8-2.2-1.2c0,0,0,0.1,0,0.2c0,0,0,0,0,0c0.2,0.2,0.3,0.3,0.5,0.4c0.2,0.2,0.5,0.5,0.6,0.8
	C3.8,14.5,4,15.1,4,15.1C4.4,15.7,5,16,5.7,16c0.5,0.1,1,0,1.4-0.1v1.8c0,0,0,0.6-1.1,0.2s1.5,1,1.5,1l3.1,0L12.8,18.1z"/>
</svg>
