<?xml version="1.0" encoding="utf-8"?>
<!-- Generator: Adobe Illustrator 23.0.5, SVG Export Plug-In . SVG Version: 6.00 Build 0)  -->
<svg version="1.1" id="Layer_1" xmlns="http://www.w3.org/2000/svg" xmlns:xlink="http://www.w3.org/1999/xlink" x="0px" y="0px"
	 viewBox="0 0 143.1 143.7" style="enable-background:new 0 0 143.1 143.7;" xml:space="preserve">
<style type="text/css">
	.st0{fill:#FFFFFF;}
	.st1{fill-rule:evenodd;clip-rule:evenodd;fill:#FFFFFF;}
	.st2{fill-rule:evenodd;clip-rule:evenodd;fill:#FBFF00;}
</style>
<title>MLCRE_logo</title>
<path class="st0" d="M67.9,43.2c0,4.3,1.3,7.3,3.7,10.7L71,54.4c-6.2-5.5-6.7-14.9-1.2-21.1c0.4-0.4,0.8-0.8,1.2-1.2l0.6,0.5
	C69.3,36,67.9,38.9,67.9,43.2L67.9,43.2z"/>
<path class="st0" d="M88.3,43.2c0,4.3-1.3,7.2-3.7,10.7l0.6,0.5c6.2-5.5,6.7-14.9,1.2-21.1c-0.4-0.4-0.8-0.8-1.2-1.2l-0.6,0.5
	C87,36.1,88.3,38.9,88.3,43.2L88.3,43.2z"/>
<polygon class="st1" points="64.2,31 64.6,30.6 60.8,26.8 57,30.6 57.3,31 60.8,28.6 "/>
<polygon class="st2" points="70.3,0 72.2,0 71.9,3.2 74.9,2.1 75.4,3.9 72.4,4.5 74.4,6.8 72.9,8 71.3,5.3 69.6,8 68.1,6.9 
	70.1,4.5 67,3.8 67.6,2 70.6,3.2 "/>
<polygon class="st2" points="91.7,5.2 93.4,6.2 91.5,8.8 94.7,9.3 94.3,11.2 91.3,10.2 91.9,13.2 90,13.4 89.9,10.3 87.2,11.8 
	86.4,10.1 89.3,9 87,6.9 88.4,5.6 90.3,8.1 "/>
<polygon class="st2" points="107.7,20.5 108.7,22.2 105.8,23.5 108.3,25.6 106.9,26.9 104.9,24.6 103.8,27.5 102.1,26.8 103.6,24 
	100.5,24 100.7,22.1 103.7,22.6 102.8,19.6 104.6,19.2 105.1,22.4 "/>
<polygon class="st2" points="113.8,41.5 113.8,43.5 110.7,43.2 111.8,46.2 110,46.7 109.3,43.7 107,45.7 105.9,44.2 108.6,42.5 
	105.9,40.9 107,39.4 109.3,41.4 110,38.3 111.8,38.9 110.7,41.8 "/>
<polygon class="st2" points="108.6,63 107.7,64.6 105.1,62.8 104.5,65.9 102.7,65.5 103.7,62.5 100.6,63.1 100.4,61.2 103.5,61.2 
	102,58.4 103.8,57.6 104.8,60.6 106.9,58.2 108.2,59.6 105.7,61.6 "/>
<polygon class="st2" points="93.4,79 91.8,79.9 90.4,77 88.4,79.5 87,78.2 89.4,76.1 86.4,75.1 87.2,73.4 89.9,74.9 90,71.7 
	91.9,71.9 91.3,75 94.3,74 94.8,75.9 91.6,76.3 "/>
<polygon class="st2" points="70.3,77.1 72.2,77.1 71.9,80.2 74.9,79.1 75.4,80.9 72.4,81.5 74.4,83.9 72.9,85 71.3,82.3 69.6,85.1 
	68.1,83.9 70.1,81.6 67,80.9 67.6,79.1 70.6,80.3 "/>
<polygon class="st2" points="53.1,71.9 54.8,72.9 52.9,75.5 56.1,76 55.7,77.9 52.7,76.9 53.3,80 51.4,80.1 51.3,77 48.5,78.5 
	47.8,76.8 50.7,75.8 48.4,73.7 49.8,72.3 51.7,74.8 "/>
<polygon class="st2" points="40.8,59 41.8,60.7 38.9,62.1 41.4,64.1 40.1,65.5 38,63.1 37,66.1 35.3,65.3 36.8,62.6 33.6,62.5 
	33.8,60.6 36.9,61.2 35.9,58.2 37.8,57.7 38.3,60.9 "/>
<polygon class="st2" points="36.7,41.5 36.7,43.5 33.5,43.2 34.6,46.2 32.8,46.7 32.2,43.7 29.8,45.7 28.7,44.2 31.4,42.5 
	28.6,40.9 29.8,39.4 32.2,41.4 32.8,38.3 34.7,38.9 33.5,41.8 "/>
<polygon class="st2" points="41.8,24.4 40.8,26.1 38.2,24.3 37.7,27.4 35.8,26.9 36.8,24 33.7,24.6 33.6,22.7 36.7,22.6 35.2,19.9 
	36.9,19.1 38,22 40,19.7 41.4,21.1 38.9,23.1 "/>
<polygon class="st2" points="54.9,12.2 53.2,13.2 51.8,10.3 49.8,12.8 48.4,11.5 50.8,9.4 47.8,8.4 48.6,6.6 51.3,8.2 51.4,5 
	53.3,5.2 52.7,8.3 55.7,7.3 56.2,9.1 53,9.6 "/>
<path class="st0" d="M3.6,110l-2.5-0.3V108h7.9l2.5,9.8l0.5,2.6l0.5-2.6l2.5-9.8h7.9v1.6l-2.5,0.3l1.9,13.6l1.8,0.3v1.5h-7.9v-1.5
	l2-0.3l-1.4-14.2l-3.9,15.3H9.8l-4.3-15.3l-1.1,14.2l2.4,0.3v1.5H0v-1.5l1.9-0.3L3.6,110z M26.8,110l-1.7-0.3V108h8v1.6l-2.2,0.3
	v13.6l4.4-0.2l1.5-4.6l2.2,0.3l-0.7,6.4H25v-1.5l1.8-0.3L26.8,110z M46.3,115.3c1.2-2.1,3.4-3.4,5.8-3.3c1.7,0,2.5,0.5,4,0.7
	l-0.2,4.2h-2.3l-0.6-2.7c-0.1-0.5-0.7-0.6-1.1-0.6c-0.7,0-1.4,0.4-1.7,1.1c-0.9,1.6-0.8,5.6,0.2,7.2c0.4,0.8,1.2,1.3,2.1,1.3
	c1.1,0,2.2-0.3,3.2-0.9l0.6,1.4c-2.1,2.3-7.2,2.5-9.3,0C45.1,121.6,44.9,117.8,46.3,115.3L46.3,115.3z M57.9,118.9
	c0-4.1,2.5-6.9,6.6-6.9s6.3,2.7,6.3,6.7s-2.3,6.9-6.6,6.9S57.9,122.9,57.9,118.9z M64.5,123.9c2.2,0,2.2-3.5,2.2-5s0.1-5.3-2.3-5.3
	c-1.5,0-2.3,1.7-2.3,5C62.1,120.2,62.1,123.9,64.5,123.9L64.5,123.9z M74.2,114.8l-1.4-0.4v-1.8l4.2-0.5h0.1l0.6,0.5v0.9v0.5
	c1.3-1.2,3-1.8,4.7-1.9c1.6,0,2.9,0.5,3.4,2.1c0.3,1,0.4,2,0.3,3v6.4l1.3,0.2v1.5h-6.3v-1.5l1.1-0.2v-6.4c0-1.4,0-2.9-1.8-2.9
	c-0.9,0.1-1.7,0.4-2.4,1v8.3l1.3,0.2v1.5H73v-1.5l1.3-0.2L74.2,114.8z M90.6,114.3h-1.8v-1.5l1.8-0.5v-1c0-2.1,1.2-4,3.1-4.9
	c1.4-0.7,3.1-0.9,4.6-0.5v3.4c-0.3-0.3-0.6-0.4-1-0.5c-1.6-0.6-2.9-0.5-2.9,1.4v2.1h2.8v2h-2.8v9.3l2.4,0.2v1.5h-8v-1.5l1.8-0.2
	L90.6,114.3z M101.1,125.5c-1.1,0-2-0.9-2-1.9c0-1.2,1.1-2.2,2.3-2.1c0,0,0.1,0,0.1,0c1.1,0,2,0.8,2,1.9c0,0,0,0.1,0,0.1
	C103.5,124.9,102.4,125.5,101.1,125.5L101.1,125.5z M113.1,109.9l-1.8-0.3V108h12.7l0.3,4.1h-1.9l-0.8-2.4l-4.6-0.2v6.1l2.9-0.1
	l0.4-1.9h1.6v5.8h-1.6l-0.4-2l-2.9-0.1v6.3l5.1-0.3l1.4-3l2,0.6l-0.6,4.3h-13.8v-1.5l1.8-0.3L113.1,109.9z M134.9,125.5
	c-4.9,0-7.2-2.3-7.2-7.2v-8.3l-1.5-0.3V108h7.5v1.6l-1.9,0.4v8.6c0,3.5,1.2,5.3,3.7,5.3c2.9,0,3.5-2.8,3.5-5.2V110l-2-0.3V108h6.1
	v1.6l-1.5,0.3v8.5C141.6,122.8,139.5,125.5,134.9,125.5L134.9,125.5z"/>
<path class="st0" d="M20.9,143.7l-2.4-3.4c-0.3,0-0.6,0.1-0.8,0.1h-2.8v3.3h-1.1v-10.4h3.9c2.3,0,4.3,1.1,4.3,3.6
	c0.1,1.5-0.9,2.9-2.4,3.3l2.5,3.6L20.9,143.7z M17.7,139.4c1.7,0,3.2-0.7,3.2-2.6s-1.5-2.6-3.2-2.6h-2.8v5.3L17.7,139.4z
	 M31.2,140.1h-6.6c0.1,1.6,1.4,2.8,3,2.7c0,0,0.1,0,0.1,0c0.9,0,1.8-0.3,2.4-1l0.6,0.7c-0.8,0.9-1.9,1.3-3,1.3
	c-1.5,0.1-2.9-0.7-3.6-1.9c-0.4-0.6-0.5-1.3-0.5-2c0-0.7,0.2-1.4,0.5-2c1.1-1.8,3.4-2.5,5.3-1.4c0.6,0.3,1,0.8,1.4,1.4
	c0.3,0.6,0.5,1.3,0.5,2L31.2,140.1z M27.4,136.7c-1.5-0.1-2.7,1.1-2.8,2.6c0,0,0,0,0,0h5.6C30.1,137.8,28.9,136.6,27.4,136.7
	L27.4,136.7z M43.2,135.8c2.1,0,3.2,1.3,3.2,3.3v4.6h-1.1v-4.5c0-1.5-0.7-2.5-2.3-2.5c-1.4-0.1-2.6,1-2.6,2.4c0,0.1,0,0.3,0,0.4v4.1
	h-1.1v-4.5c0-1.5-0.7-2.5-2.3-2.5c-1.4-0.1-2.6,1-2.6,2.4c0,0.1,0,0.3,0,0.4v4.1h-1.1v-7.9h1v1.4c0.6-1,1.7-1.6,2.9-1.5
	c1.2-0.1,2.3,0.6,2.8,1.7C40.7,136.3,41.9,135.7,43.2,135.8L43.2,135.8z M52.4,143.8c-2.2,0-4-1.8-4-4s1.8-4,4-4s4,1.8,4,4
	c0.1,2.1-1.6,3.9-3.7,4C52.6,143.8,52.5,143.8,52.4,143.8z M52.4,142.8c1.7-0.1,3-1.5,2.9-3.2c-0.1-1.6-1.3-2.8-2.9-2.9
	c-1.7,0.1-3,1.5-2.9,3.2C49.7,141.5,50.9,142.7,52.4,142.8z M62.7,143.2c-0.5,0.4-1.1,0.6-1.7,0.5c-1.1,0.1-2.2-0.7-2.3-1.8
	c0-0.2,0-0.3,0-0.5v-4.7h-1.4v-0.9h1.4v-1.7h1.1v1.7h2.4v0.9h-2.4v4.7c0,0.9,0.4,1.5,1.3,1.5c0.4,0,0.8-0.1,1.2-0.4L62.7,143.2z
	 M71.5,140.1h-6.6c0.1,1.6,1.4,2.8,3,2.7c0,0,0,0,0.1,0c0.9,0,1.8-0.3,2.4-1l0.6,0.7c-0.8,0.9-1.9,1.3-3,1.3
	c-1.5,0.1-2.9-0.7-3.6-1.9c-0.3-0.6-0.5-1.3-0.5-2c-0.1-2.1,1.5-3.9,3.6-4c2.1-0.1,3.9,1.5,4,3.6c0,0.1,0,0.3,0,0.4L71.5,140.1z
	 M67.7,136.7c-1.5,0-2.7,1.1-2.8,2.6h5.6C70.5,137.8,69.2,136.7,67.7,136.7z M85.2,142.7v1h-7.4v-10.5H85v0.9h-6.1v3.7h5.4v0.9h-5.4
	v3.9L85.2,142.7z M94.8,132.6v11.1h-1v-1.6c-0.6,1-1.8,1.7-3,1.6c-2.2,0-4-1.8-4-4s1.8-4,4-4c1.2-0.1,2.4,0.5,3,1.5v-4.7L94.8,132.6
	z M90.8,142.8c1.1,0,2-0.5,2.5-1.5c0.2-0.5,0.4-1,0.4-1.6c0-0.6-0.1-1.1-0.4-1.6c-0.9-1.4-2.8-1.8-4.2-0.9c-1.4,0.9-1.8,2.8-0.9,4.2
	C88.9,142.3,89.8,142.8,90.8,142.8L90.8,142.8z M97.7,135.8h1.1v7.8h-1.1V135.8z M98.2,134.1c-0.4,0-0.8-0.3-0.8-0.8c0,0,0,0,0,0
	c0-0.4,0.3-0.7,0.7-0.7c0,0,0,0,0,0c0.4,0,0.8,0.3,0.8,0.7c0,0.4-0.3,0.8-0.7,0.8C98.4,134.1,98.3,134.1,98.2,134.1z M105.8,143.2
	c-0.5,0.4-1.1,0.6-1.7,0.5c-1.1,0.1-2.2-0.7-2.3-1.8c0-0.2,0-0.3,0-0.5v-4.7h-1.4v-0.9h1.4v-1.7h1.1v1.7h2.4v0.9H103v4.7
	c0,0.9,0.4,1.5,1.4,1.5c0.4,0,0.8-0.2,1.1-0.4L105.8,143.2z M107.8,135.8h1.1v7.8h-1.1V135.8z M108.3,134.1c-0.2,0-0.4-0.1-0.6-0.2
	c-0.1-0.1-0.2-0.3-0.2-0.5c0-0.2,0.1-0.4,0.2-0.5c0.2-0.1,0.4-0.2,0.6-0.2c0.2,0,0.4,0.1,0.5,0.2c0.1,0.1,0.2,0.3,0.2,0.5
	C109.1,133.8,108.8,134.1,108.3,134.1L108.3,134.1z M115.1,143.7c-2.1,0.1-3.9-1.6-4-3.7c0-0.1,0-0.2,0-0.3c0-2.2,1.8-4,4-4
	s4,1.8,4,4S117.3,143.7,115.1,143.7z M115.1,142.8c1.7-0.1,3-1.5,2.9-3.2c-0.1-1.6-1.3-2.8-2.9-2.9c-1.7,0.1-3,1.5-2.9,3.2
	C112.3,141.5,113.5,142.7,115.1,142.8z M125.2,135.8c1.7-0.1,3.1,1.1,3.2,2.7c0,0.2,0,0.4,0,0.6v4.6h-1.1v-4.5
	c0.2-1.2-0.7-2.3-1.9-2.5c-0.2,0-0.3,0-0.5,0c-1.4-0.1-2.7,1-2.7,2.4c0,0.2,0,0.3,0,0.5v4.1h-1.1v-7.9h1v1.5
	C122.9,136.3,124,135.7,125.2,135.8L125.2,135.8z"/>
<path class="st0" d="M56.9,38.1h-2.1l0.3-1.1h2.1c0.2-1.2,0.6-2.2,1.4-3.2c0.6-0.7,1.6-1.1,2.5-1.1c0.6,0,1.1,0.1,1.6,0.5
	c0.4,0.3,0.6,0.8,0.6,1.3c0,1.5-2.2,1.5-2.2,0.2c0-0.2,0.1-0.5,0.2-0.7c0-0.1,0-0.4-0.1-0.4c-1.5-0.6-2,2.7-2.1,3.4h2l-0.3,1.1h-2
	l-1.6,7.9c-0.3,1.6-0.9,3.1-1.8,4.4c-0.9,1.2-2.8,1.9-4.2,0.9c-0.4-0.3-0.6-0.7-0.6-1.1c0-1.7,2.2-1.6,2.2-0.3
	c0,0.3-0.1,0.5-0.3,0.7c0,0,0.1,0.3,0.2,0.3c1.6,0.5,2.5-4.2,2.7-5.2L56.9,38.1z"/>
<path class="st0" d="M77.1,46.5c-0.7,1-1.8,1.7-3,1.8c-1.2,0.1-2.2-0.7-2.3-1.9c0,0,0,0,0-0.1c0-2.1,2.5-1.9,2.5-0.5
	c0,0.6-0.6,1.1-0.6,1.2s0.4,0.3,0.6,0.3c1.2,0,2-1.6,2.3-2.5c0.3-0.8,0.5-1.7,0.6-2.5c0.2-0.9,0.5-3-0.1-3.8
	c-0.5-0.6-1.3-0.6-1.9-0.1c0,0-0.1,0.1-0.1,0.1c-0.5,0.5-0.8,1-1.1,1.7h-1.1c0.6-1.6,1.8-3.4,3.7-3.4c1.2,0,2.2,0.8,2.4,1.9
	c0.5-1.1,1.6-1.8,2.9-1.9c1.2-0.1,2.2,0.8,2.3,2c0,0,0,0,0,0c0,1.8-2.5,1.7-2.5,0.4c0-0.5,0.5-1,0.5-1.1s-0.3-0.3-0.5-0.3
	c-1.9,0-2.6,3.6-2.8,5.1C78.6,44,78,47,79.8,47c1.1,0,2.1-1.4,2.7-2.3l1.1,0.1c-0.9,1.6-2.2,3.4-4.2,3.4
	C78.3,48.4,77.3,47.6,77.1,46.5C77.2,46.5,77.2,46.5,77.1,46.5L77.1,46.5z"/>
</svg>
