<?xml version="1.0" encoding="utf-8"?>
<!-- Generator: Adobe Illustrator 23.0.5, SVG Export Plug-In . SVG Version: 6.00 Build 0)  -->
<svg version="1.1" id="Layer_1" xmlns="http://www.w3.org/2000/svg" xmlns:xlink="http://www.w3.org/1999/xlink" x="0px" y="0px"
	 width="686.75px" height="690.42px" viewBox="0 0 686.75 690.42" style="enable-background:new 0 0 686.75 690.42;"
	 xml:space="preserve">
<style type="text/css">
	.st0{fill:#383838;}
	.st1{fill-rule:evenodd;clip-rule:evenodd;fill:#383838;}
</style>
<g>
	<path class="st0" d="M348.96,15.95c93.28,0,177.73,37.76,238.85,98.77c61.12,61.05,98.94,145.35,98.94,238.47
		s-37.82,177.43-98.94,238.45c-13.55,13.53-28.24,25.91-43.94,37.02c-0.54-1.03-1.2-1.97-1.92-2.85
		c15.49-10.96,30.05-23.2,43.42-36.56c60.52-60.42,97.94-143.87,97.94-236.05s-37.42-175.63-97.94-236.05
		c-60.49-60.39-144.11-97.78-236.42-97.78c-17.01,0-33.7,1.28-50.03,3.74c-0.09-1.17-0.29-2.31-0.6-3.4
		C314.86,17.24,331.76,15.95,348.96,15.95L348.96,15.95z M263.83,30.31C205.71,45.55,153.74,76,112.52,117.15
		C52,177.57,14.58,261.02,14.58,353.2c0,17.01,1.29,33.7,3.74,50.03c-1.17,0.09-2.29,0.29-3.4,0.6
		c-2.49-16.52-3.77-33.42-3.77-50.63c0-93.12,37.82-177.43,98.94-238.47c41.68-41.61,94.2-72.38,152.97-87.76
		C263.2,28.11,263.46,29.22,263.83,30.31L263.83,30.31z M25.55,438.28c15.27,57.99,45.74,109.82,86.96,150.97
		C173.04,649.64,256.63,687,348.96,687c59.03,0,114.52-15.27,162.69-42.1c0.49,1.03,1.06,2.03,1.74,2.94
		c-48.66,27.14-104.74,42.58-164.44,42.58c-93.28,0-177.76-37.73-238.88-98.77c-41.65-41.58-72.47-93.98-87.88-152.6
		C23.35,438.88,24.47,438.62,25.55,438.28L25.55,438.28z"/>
	<path class="st0" d="M348.96,101.57c69.58,0,132.59,28.17,178.21,73.72c45.6,45.52,73.81,108.42,73.81,177.91
		c0,69.46-28.22,132.39-73.81,177.91c-45.63,45.55-108.63,73.69-178.21,73.69c-59.49,0-114.18-20.58-157.29-54.97
		c0.83-0.8,1.57-1.68,2.23-2.6c42.51,33.88,96.43,54.14,155.06,54.14c68.64,0,130.79-27.77,175.78-72.69
		c45-44.92,72.81-106.97,72.81-175.49c0-68.55-27.82-130.6-72.81-175.49C479.75,132.79,417.6,105,348.96,105
		c-64.81,0-123.81,24.77-168.07,65.3c-0.71-0.88-1.52-1.71-2.4-2.43C223.35,126.71,283.21,101.57,348.96,101.57L348.96,101.57z
		 M165.2,525.41c-42.34-45.01-68.3-105.6-68.3-172.21c0-60.39,21.33-115.81,56.83-159.19c0.8,0.86,1.66,1.6,2.6,2.28
		c-35.02,42.75-56,97.38-56,156.91c0,65.67,25.56,125.4,67.29,169.78C166.75,523.72,165.92,524.52,165.2,525.41L165.2,525.41z"/>
	<path class="st0" d="M348.96,230.28c34.08,0,64.92,13.81,87.25,36.1s36.13,53.08,36.13,87.1s-13.81,64.81-36.13,87.1
		s-53.17,36.07-87.25,36.07s-64.92-13.78-87.28-36.07c-22.33-22.29-36.13-53.08-36.13-87.1c0-13.58,2.2-26.63,6.26-38.84
		c1,0.54,2.06,1,3.17,1.31c-3.89,11.82-6,24.43-6,37.53c0,33.08,13.44,63.01,35.13,84.68c21.73,21.69,51.71,35.07,84.85,35.07
		c33.1,0,63.12-13.38,84.82-35.07c21.7-21.66,35.13-51.6,35.13-84.68s-13.44-63.01-35.13-84.68c-21.7-21.69-51.71-35.1-84.82-35.1
		c-33.13,0-63.12,13.41-84.85,35.1c-4.77,4.77-9.15,9.93-13.06,15.44c-0.91-0.68-1.92-1.26-2.94-1.77
		c4.06-5.74,8.6-11.13,13.58-16.1C284.04,244.1,314.89,230.28,348.96,230.28L348.96,230.28z"/>
	<path class="st0" d="M348.96,273.09c16.61,0,32.05,5.05,44.88,13.64c-0.83,0.8-1.57,1.68-2.26,2.63
		c-12.21-8.11-26.87-12.84-42.62-12.84c-21.3,0-40.57,8.62-54.52,22.55c-13.95,13.93-22.58,33.16-22.58,54.42
		c0,21.23,8.63,40.5,22.58,54.42c13.95,13.93,33.22,22.52,54.52,22.52c21.27,0,40.54-8.59,54.49-22.52
		c13.95-13.93,22.58-33.19,22.58-54.42c0-13.98-3.74-27.11-10.26-38.41c0.97-0.6,1.92-1.28,2.77-2.05
		c6.95,11.87,10.92,25.71,10.92,40.47c0,22.2-9.01,42.3-23.58,56.82c-14.58,14.56-34.71,23.54-56.92,23.54
		c-22.24,0-42.37-8.99-56.95-23.54c-14.58-14.53-23.58-34.62-23.58-56.82c0-22.2,9.01-42.3,23.58-56.85
		C306.6,282.11,326.72,273.09,348.96,273.09L348.96,273.09z"/>
	<path class="st0" d="M348.96,144.67c115.49,0,209.15,93.49,209.15,208.82c0,21.92-3.37,43.04-9.66,62.87
		c-1.06-0.46-2.17-0.74-3.32-0.88c6.2-19.58,9.55-40.38,9.55-61.99c0-113.44-92.11-205.4-205.72-205.4
		c-113.64,0-205.74,91.95-205.74,205.4c0,113.42,92.11,205.37,205.74,205.37c56.8,0,108.23-22.97,145.45-60.13
		c14.67-14.67,27.13-31.51,36.85-50.03c0.91,0.68,1.92,1.26,3,1.66c-9.86,18.81-22.53,35.9-37.42,50.77
		c-37.85,37.79-90.14,61.16-147.88,61.16c-115.52,0-209.17-93.47-209.17-208.79S233.44,144.67,348.96,144.67L348.96,144.67z"/>
	<path class="st0" d="M406.43,279.91c5.46,0,10.41,2.23,13.98,5.79c3.57,3.57,5.77,8.5,5.77,13.96c0,5.45-2.2,10.39-5.77,13.96
		c-3.57,3.57-8.52,5.76-13.98,5.76c-5.46,0-10.41-2.2-13.98-5.76c-0.09-0.09-0.17-0.17-0.26-0.26c1.14-0.4,2.12-1.11,2.83-2.03
		c2.94,2.88,6.98,4.62,11.41,4.62c4.52,0,8.6-1.83,11.55-4.77c2.94-2.94,4.77-7.02,4.77-11.53s-1.83-8.59-4.77-11.53
		c-2.94-2.97-7.03-4.79-11.55-4.79c-4.52,0-8.6,1.83-11.55,4.79c-2.97,2.94-4.8,7.02-4.8,11.53c0,0.63,0.06,1.26,0.11,1.88
		c-1.23,0-2.37,0.37-3.32,1c-0.14-0.94-0.23-1.91-0.23-2.88c0-5.45,2.23-10.39,5.8-13.96S400.97,279.91,406.43,279.91L406.43,279.91
		z"/>
	<path class="st0" d="M240.3,318.47c-10.91,0-19.78-8.85-19.78-19.72c0-10.89,8.87-19.75,19.78-19.75
		c10.89,0,19.75,8.86,19.75,19.75C260.05,309.62,251.19,318.47,240.3,318.47z M240.3,282.43c-9.02,0-16.35,7.32-16.35,16.32
		c0,8.99,7.34,16.3,16.35,16.3c9,0,16.33-7.31,16.33-16.3C256.63,289.75,249.31,282.43,240.3,282.43z"/>
	<path class="st0" d="M540.56,413.02c5.46,0,10.41,2.23,13.98,5.79c0.71,0.74,1.4,1.51,2,2.34c-1.17,0.23-2.26,0.8-3.09,1.63
		c-0.4-0.54-0.86-1.06-1.34-1.54c-2.97-2.97-7.03-4.79-11.55-4.79c-4.52,0-8.6,1.83-11.55,4.79c-2.97,2.94-4.8,7.02-4.8,11.53
		c0,4.51,1.83,8.59,4.8,11.53c2.94,2.94,7.03,4.77,11.55,4.77c4.52,0,8.58-1.83,11.55-4.77c2.86-2.88,4.69-6.82,4.77-11.16
		c0.26,0.03,0.54,0.06,0.83,0.06c0.91,0,1.8-0.23,2.6-0.6v0.17c0,5.45-2.2,10.39-5.77,13.96c-3.57,3.57-8.52,5.76-13.98,5.76
		s-10.41-2.2-13.98-5.76s-5.8-8.5-5.8-13.96c0-5.45,2.23-10.39,5.8-13.96S535.1,413.02,540.56,413.02L540.56,413.02z"/>
	<path class="st0" d="M166.89,161.93c5.46,0,10.41,2.23,13.98,5.79c3.57,3.57,5.8,8.5,5.8,13.96s-2.23,10.39-5.8,13.96
		s-8.52,5.76-13.98,5.76c-5.46,0-10.38-2.2-13.98-5.76c-1.37-1.4-2.54-2.97-3.46-4.71c1.2-0.06,2.34-0.49,3.26-1.17
		c0.71,1.28,1.6,2.43,2.63,3.45c2.97,2.94,7.06,4.77,11.55,4.77c4.52,0,8.6-1.83,11.55-4.77c2.97-2.97,4.8-7.02,4.8-11.53
		s-1.83-8.59-4.8-11.53c-2.94-2.97-7.03-4.79-11.55-4.79c-4.49,0-8.58,1.83-11.55,4.79c-2.37,2.34-4,5.42-4.57,8.88
		c-0.51-0.14-1.06-0.23-1.63-0.23c-0.66,0-1.26,0.11-1.83,0.29c0.57-4.42,2.6-8.36,5.6-11.36
		C156.51,164.16,161.43,161.93,166.89,161.93L166.89,161.93z"/>
	<path class="st0" d="M179.18,517.1c5.43,0,10.38,2.2,13.95,5.79c0.74,0.71,1.43,1.51,2.06,2.37c-1.2,0.23-2.26,0.8-3.09,1.6
		c-0.43-0.54-0.89-1.06-1.37-1.57c-2.97-2.94-7.06-4.77-11.55-4.77c-4.52,0-8.6,1.83-11.58,4.77c-2.94,2.97-4.77,7.05-4.77,11.53
		c0,4.51,1.83,8.59,4.77,11.56c2.97,2.94,7.06,4.77,11.58,4.77c4.49,0,8.58-1.83,11.55-4.77c2.86-2.88,4.66-6.79,4.77-11.13
		c0.26,0.03,0.54,0.06,0.83,0.06c0.91,0,1.8-0.23,2.6-0.6v0.11c0,5.45-2.2,10.39-5.8,13.96c-3.57,3.6-8.52,5.79-13.95,5.79
		c-5.46,0-10.41-2.2-13.98-5.79c-3.6-3.57-5.8-8.5-5.8-13.96c0-5.42,2.2-10.36,5.8-13.93C168.78,519.3,173.72,517.1,179.18,517.1
		L179.18,517.1z"/>
	<path class="st0" d="M527.98,656.95c-10.91,0-19.78-8.86-19.78-19.75c0-10.87,8.87-19.72,19.78-19.72
		c10.89,0,19.75,8.85,19.75,19.72C547.73,648.09,538.87,656.95,527.98,656.95z M527.98,620.9c-9.02,0-16.35,7.31-16.35,16.3
		c0,9,7.34,16.32,16.35,16.32c9,0,16.33-7.32,16.33-16.32C544.31,628.21,536.98,620.9,527.98,620.9z"/>
	<path class="st0" d="M280.96,4.82c0.43,0,0.86,0,1.29,0.03c-0.49,0.88-0.74,1.88-0.74,2.94c0,0.14,0,0.31,0.03,0.46
		c-0.2,0-0.4,0-0.57,0c-4.52,0-8.6,1.83-11.58,4.77c-2.94,2.97-4.77,7.02-4.77,11.53s1.83,8.59,4.77,11.53
		c2.97,2.97,7.06,4.79,11.58,4.79c4.49,0,8.58-1.83,11.55-4.79c2.94-2.94,4.77-7.02,4.77-11.53s-1.83-8.56-4.77-11.53
		c-0.29-0.26-0.54-0.51-0.83-0.74c0.86-0.8,1.49-1.83,1.8-3c0.49,0.43,0.97,0.86,1.46,1.31c3.57,3.57,5.77,8.5,5.77,13.96
		s-2.2,10.39-5.77,13.96c-3.6,3.57-8.52,5.79-13.98,5.79s-10.41-2.23-13.98-5.79c-3.6-3.57-5.8-8.5-5.8-13.96s2.23-10.39,5.8-13.96
		C270.55,7.02,275.49,4.82,280.96,4.82L280.96,4.82z"/>
	<path class="st0" d="M287.59,15.55c-4.3,0-7.8-3.48-7.8-7.76c0-4.3,3.5-7.79,7.8-7.79c4.29,0,7.77,3.5,7.77,7.79
		C295.36,12.07,291.87,15.55,287.59,15.55z M287.59,3.42c-2.41,0-4.38,1.96-4.38,4.37c0,2.39,1.96,4.34,4.38,4.34
		c2.4,0,4.35-1.95,4.35-4.34C291.94,5.38,289.98,3.42,287.59,3.42z"/>
	<path class="st0" d="M149.14,192.64c-4.3,0-7.8-3.48-7.8-7.76c0-4.3,3.5-7.79,7.8-7.79c4.29,0,7.77,3.5,7.77,7.79
		C156.91,189.16,153.42,192.64,149.14,192.64z M149.14,180.51c-2.41,0-4.38,1.96-4.38,4.37c0,2.39,1.96,4.34,4.38,4.34
		c2.4,0,4.35-1.95,4.35-4.34C153.49,182.47,151.54,180.51,149.14,180.51z"/>
	<path class="st0" d="M196.34,539.02c-4.3,0-7.8-3.5-7.8-7.79c0-4.3,3.5-7.79,7.8-7.79c4.29,0,7.77,3.5,7.77,7.79
		C204.11,535.53,200.62,539.02,196.34,539.02z M196.34,526.86c-2.41,0-4.38,1.96-4.38,4.37s1.96,4.37,4.38,4.37
		c2.4,0,4.35-1.96,4.35-4.37S198.73,526.86,196.34,526.86z"/>
	<path class="st0" d="M557.71,434.91c-4.3,0-7.8-3.5-7.8-7.79c0-4.3,3.5-7.79,7.8-7.79c4.29,0,7.77,3.5,7.77,7.79
		C565.48,431.42,562,434.91,557.71,434.91z M557.71,422.75c-2.41,0-4.38,1.96-4.38,4.37s1.96,4.37,4.38,4.37
		c2.4,0,4.35-1.96,4.35-4.37S560.11,422.75,557.71,422.75z"/>
	<path class="st0" d="M390.22,315.39c-4.29,0-7.77-3.48-7.77-7.76c0-4.3,3.49-7.79,7.77-7.79c4.3,0,7.8,3.5,7.8,7.79
		C398.02,311.91,394.52,315.39,390.22,315.39z M390.22,303.26c-2.4,0-4.35,1.96-4.35,4.37c0,2.39,1.95,4.34,4.35,4.34
		c2.41,0,4.38-1.95,4.38-4.34C394.59,305.22,392.63,303.26,390.22,303.26z"/>
	<path class="st0" d="M637.64,321.44c-10.91,0-19.78-8.86-19.78-19.75c0-10.87,8.87-19.72,19.78-19.72
		c10.89,0,19.75,8.85,19.75,19.72C657.39,312.58,648.53,321.44,637.64,321.44z M637.64,285.39c-9.02,0-16.36,7.31-16.36,16.3
		c0,9,7.34,16.32,16.36,16.32c9,0,16.33-7.32,16.33-16.32C653.97,292.7,646.64,285.39,637.64,285.39z"/>
	<path class="st0" d="M19.78,440.93C8.87,440.93,0,432.07,0,421.18c0-10.87,8.87-19.72,19.78-19.72c10.89,0,19.75,8.85,19.75,19.72
		C39.53,432.07,30.67,440.93,19.78,440.93z M19.78,404.89c-9.02,0-16.35,7.31-16.35,16.3c0,9,7.34,16.32,16.35,16.32
		c9,0,16.33-7.32,16.33-16.32C36.11,412.2,28.78,404.89,19.78,404.89z"/>
	<rect x="273.75" y="22.8" class="st1" width="14.38" height="3.51"/>
	<rect x="159.72" y="179.91" class="st1" width="14.38" height="3.51"/>
	<rect x="399.25" y="297.89" class="st1" width="14.35" height="3.51"/>
	<rect x="533.35" y="431" class="st1" width="14.38" height="3.51"/>
	<rect x="171.98" y="535.08" class="st1" width="14.38" height="3.51"/>
	<rect x="233.1" y="296.98" class="st1" width="14.38" height="3.51"/>
	<rect x="12.58" y="419.44" class="st1" width="14.38" height="3.51"/>
	<rect x="520.8" y="635.46" class="st1" width="14.35" height="3.51"/>
	<rect x="630.44" y="299.95" class="st1" width="14.38" height="3.51"/>
	<rect x="238.53" y="291.56" class="st1" width="3.52" height="14.36"/>
	<rect x="18.01" y="414.02" class="st1" width="3.52" height="14.33"/>
	<rect x="526.21" y="630.03" class="st1" width="3.52" height="14.36"/>
	<path class="st0" d="M348.96,187.47c45.91,0,87.48,18.58,117.55,48.63c30.1,30.05,48.71,71.55,48.71,117.38
		s-18.61,87.33-48.71,117.38c-30.07,30.02-71.64,48.6-117.55,48.6c-45.94,0-87.51-18.58-117.58-48.6
		c-30.1-30.05-48.71-71.55-48.71-117.38s18.61-87.33,48.71-117.38C261.46,206.05,303.02,187.47,348.96,187.47L348.96,187.47z
		 M464.12,238.53c-29.47-29.42-70.18-47.63-115.15-47.63s-85.71,18.21-115.15,47.63c-29.47,29.42-47.71,70.06-47.71,114.96
		s18.24,85.53,47.71,114.96c29.45,29.42,70.18,47.6,115.15,47.6s85.68-18.18,115.15-47.6c29.45-29.42,47.68-70.06,47.68-114.96
		S493.56,267.96,464.12,238.53L464.12,238.53z"/>
	<path class="st0" d="M348.96,59.05c81.42,0,155.17,32.96,208.52,86.25c37.54,37.47,65.01,84.99,77.99,138.16
		c-1.11,0.11-2.23,0.4-3.32,0.86c-12.84-52.57-39.99-99.55-77.07-136.59c-52.77-52.66-125.64-85.25-206.12-85.25
		c-161,0-291.51,130.31-291.51,291.02s130.5,290.99,291.51,290.99c160.98,0,291.48-130.28,291.48-290.99
		c0-11.33-0.66-22.49-1.92-33.45h0.71c0.94,0,1.83-0.11,2.72-0.31c1.26,11.07,1.92,22.35,1.92,33.76
		c0,162.59-132.05,294.41-294.91,294.41c-162.89,0-294.94-131.82-294.94-294.41C54.03,190.87,186.07,59.05,348.96,59.05
		L348.96,59.05z"/>
	<rect x="635.87" y="294.53" class="st1" width="3.52" height="14.36"/>
</g>
</svg>
