<?xml version="1.0" encoding="utf-8"?>
<!-- Generator: Adobe Illustrator 23.0.5, SVG Export Plug-In . SVG Version: 6.00 Build 0)  -->
<svg version="1.1" id="Layer_1" xmlns="http://www.w3.org/2000/svg" xmlns:xlink="http://www.w3.org/1999/xlink" x="0px" y="0px"
	 viewBox="0 0 538 300" style="enable-background:new 0 0 538 300;" xml:space="preserve">
<style type="text/css">
	.st0{fill-rule:evenodd;clip-rule:evenodd;fill:#2c302d;}
	.st1{fill:none;}
	.st2{fill:#2c302d;}
</style>
<path class="st0" d="M517,15.5c1.8,0,3.3,1.5,3.3,3.4s-1.5,3.3-3.3,3.3c-1.9,0-3.4-1.5-3.4-3.3S515.1,15.5,517,15.5L517,15.5z
	 M517,37.2c1.8,0,3.3,1.5,3.3,3.4s-1.5,3.3-3.3,3.3c-1.9,0-3.4-1.5-3.4-3.3C513.6,38.7,515.1,37.2,517,37.2L517,37.2z M517,26.4
	c1.8,0,3.3,1.5,3.3,3.4c0,1.9-1.5,3.3-3.3,3.3c-1.9,0-3.4-1.5-3.4-3.3C513.6,27.9,515.1,26.4,517,26.4L517,26.4z"/>
<g>
	<path class="st1" d="M38.7,25.9l-1.6-5l-1.6,4.9c-0.1,0.6-0.7,1.1-1.4,1.1l-5.3,0l4.2,3c0.5,0.3,0.8,1,0.6,1.6l-1.7,5l4.2-3
		c0.5-0.4,1.2-0.5,1.8-0.1l4.3,3.1l-1.6-4.9c-0.3-0.6-0.1-1.3,0.5-1.7l4.3-3.1l-5.1,0C39.6,26.9,38.9,26.5,38.7,25.9z"/>
	<path class="st2" d="M49.8,24l-8.7,0l-2.6-8.1c-0.1-0.5-0.5-0.9-0.9-1c-0.7-0.3-1.5,0.2-1.8,0.9L33.1,24l-8.5,0
		c-0.5,0-1,0.2-1.3,0.6c-0.5,0.6-0.3,1.5,0.3,2h0l7,5l-2.7,8.1c-0.2,0.4-0.1,0.9,0.2,1.3c0.5,0.7,1.3,0.8,2,0.3l7-5.1l6.9,5
		c0.4,0.3,0.9,0.5,1.4,0.3c0.7-0.2,1.2-1,0.9-1.8l-2.7-8.2l7-5c0.4-0.3,0.7-0.7,0.7-1.2C51.2,24.6,50.5,24,49.8,24z M41.1,29.9
		c-0.5,0.4-0.7,1.1-0.5,1.7l1.6,4.9l-4.3-3.1c-0.5-0.4-1.3-0.3-1.8,0.1l-4.2,3l1.7-5c0.2-0.6-0.1-1.3-0.6-1.6l-4.2-3l5.3,0
		c0.7,0,1.2-0.5,1.4-1.1l1.6-4.9l1.6,5c0.2,0.7,0.9,1.1,1.5,1l5.1,0L41.1,29.9z"/>
</g>
<path class="st2" d="M44.9,274.5L44.9,274.5c0,0.1,0,0.2,0,0.3c-0.3,2.5-1.4,4.8-3.1,6.5c-1.7,1.7-3.9,2.8-6.3,3.1v3
	c0,0.8-0.7,1.5-1.5,1.5l0,0c-0.8,0-1.5-0.7-1.5-1.5v-3c-2.4-0.3-4.6-1.5-6.3-3.1c-1.7-1.7-2.9-4-3.2-6.5c0-0.1,0-0.1,0-0.2v0l0,0
	c0-0.8,0.6-1.4,1.4-1.4c0.8,0,1.4,0.6,1.4,1.4l0,0c0.2,1.8,1.1,3.5,2.3,4.7c1.5,1.5,3.5,2.4,5.7,2.4l0,0c2.2,0,4.3-0.9,5.8-2.4
	c1.3-1.3,2.1-2.9,2.3-4.7l0,0c0-0.8,0.6-1.4,1.4-1.4C44.3,273,44.9,273.7,44.9,274.5L44.9,274.5z M34,261.6L34,261.6
	c3.6,0,6.5,2.9,6.5,6.5v5.3c0,3.6-2.9,6.5-6.5,6.5l0,0c-3.6,0-6.5-2.9-6.5-6.5v-5.3C27.5,264.6,30.4,261.6,34,261.6L34,261.6z"/>
<path class="st0" d="M62.7,267.7h15.6c1.1,0,2,0.9,2,1.9v2l7.1-3.9v14.9l-7.1-3.9v2c0,1.1-0.9,2-2,2H62.7c-1.1,0-2-0.9-2-2v-11.1
	C60.7,268.6,61.6,267.7,62.7,267.7L62.7,267.7z"/>
</svg>
