<?xml version="1.0" encoding="UTF-8"?>
<svg version="1.1" viewBox="0 0 1440 381" xmlns="http://www.w3.org/2000/svg">
<g fill="none" fill-rule="evenodd">
<g transform="translate(0 -14869)">
<g transform="translate(0 14869)">
<circle cx="1012" cy="180" r="180" fill="#fff" opacity=".1"/>
<g transform="translate(359)">
<circle cx="653" cy="180" r="180" fill="#fff" opacity=".1"/>
<g transform="translate(473)" stroke="#7898FF" stroke-linecap="round" stroke-linejoin="round" stroke-width=".5">
<path d="m19.602 100.68c-16.653 33.031-22.307 71.369-17.038 108.04"/>
<path d="m28.485 84.919c-2.0417 3.2336-3.9816 6.5319-5.8154 9.8881"/>
<path d="m100.89 19.643c-21.3 10.362-39.518 25.446-55.021 42.788"/>
<path d="m295.07 39.432c-48.372-40.223-114.33-48.394-171.28-29.225"/>
<path d="m363.01 191.13c1.1647-18.456-0.71993-37.31-5.5075-54.837"/>
</g>
<path d="m165.73 315.25v-50.025l35.159-8.67v20.987l4.9346-0.036453v36.979l6.3738-0.047137v-79.274h7.4148v79.219l2.5336-0.018854v19.692h15.421v-65.1h8.6448v-8.6807h4.5181v-52.562h8.4482v-19.289h23.183v19.289h14.564v154.19h-33.032-13.164-2.1604-11.003-23.566v-27.85h8.1449v27.85h-56.415l-165.32-1.26e-4v-27.799h37.164v-13.512h21.131v13.512h10.68v-32.367h56.33v-36.043l30.142-6.2849v55.84h9.8744zm610.16-229.96h6.0227v44.934 37.219h12.459v13.162h12.459v18.155h9.9678v-8.6235h31.148v50.834h24.919v66.232h6.23v-32.206h16.82v15.563h12.148v-82.721h9.6556v-5.4465h10.59v-37.217h2.4921v37.217h10.59v5.4465h9.3447v12.255h19.312v11.347h16.197v75.763h5.6062v-45.353h36.755v19.442h14.951v-19.442h37.378v100.06h-775.21v-184h24.921v-15.052h32.11v21.234h27.318v5.3051h8.6266v18.324h30.742l18.258-50.051 18.257 50.051h26.618v49.485h36.929v-49.485h45.723v49.234h-8.6882v48.657h25.232v-22.475h93.394v-30.11h82.423v-122.8h8.3056v-44.934z" fill="#2700C3"/>
<g transform="translate(36.644 84.882)" stroke="#7898FF" stroke-linecap="round" stroke-linejoin="round" stroke-width=".5">
<path d="m422.97 105.26c1.8086 5.1008 3.5393 10.231 5.5 15.277"/>
<polyline points="0.92626 235.71 22.057 235.71 22.057 242.76"/>
<path d="m22.057 249.22h5.3398"/>
<polyline points="177.15 150.24 182.97 150.24 182.97 195.05"/>
<path d="m182.97 229.49h2.5336"/>
<polyline points="136.69 178.46 164.24 171.67 164.24 185.36"/>
<polyline points="164.24 192.65 169.18 192.65 169.18 229.6"/>
<polyline points="119.21 187.56 119.21 174.52 97.8 178.99"/>
<path d="m129.08 230.36h-9.8749"/>
<path d="m129.08 180.34v14.709"/>
<path d="m32.737 216.85h44.289"/>
<polyline points="493.64 122.83 538.58 122.83 538.58 172.06"/>
<polyline points="435.3 122.83 455.92 122.83 455.92 148.38"/>
<path d="m455.92 156.34v4.3994"/>
<path d="m419.54 96.044c0.58424 1.4682 1.1484 2.9439 1.6993 4.4246"/>
<path d="m411.05 72.774c2.3853 6.4741 4.8982 12.759 6.8921 18.895"/>
<polyline points="362.05 114.02 362.05 104.5 353.42 104.5 353.42 99.196 329.46 99.196"/>
<polyline points="326.1 158.54 326.1 77.962 295.96 77.962"/>
<path d="m316.17 93.014l-43.242 0.060964"/>
<polyline points="385.79 122.83 392.79 122.83 398.42 107.4"/>
<polyline points="260.28 132.04 260.28 122.83 251.77 122.83"/>
<polyline points="245.71 148.38 245.71 103.54 225.1 103.54"/>
<path d="m222.53 122.83h-5.5182"/>
<path d="m260.28 138.71v28.319"/>
<polyline points="529.89 172.06 529.89 220.72 555.12 220.72 555.12 201.32"/>
<path d="m730.94 140.71v-7.6242"/>
<polyline points="667.57 168.13 730.94 168.13 730.94 146.36"/>
<path d="m730.94 126.8v-10.241"/>
<path d="m730.94 105.97v-9.2897"/>
<polyline points="730.94 76.204 730.94 45.334 736.96 45.334"/>
<path d="m739.24 32.732v-32.332c1.4744 0.018226 3.0003-0.018226 4.4748 0"/>
<polyline points="751.41 82.572 747.64 82.56 745.26 82.552"/>
<path d="m757.72 95.714h9.3937"/>
<polyline points="770.18 113.87 780.15 113.87 780.15 105.25 804.6 105.25"/>
<polyline points="815.07 155.85 826.17 155.85 835.78 155.85"/>
<polyline points="871.41 125.44 871.41 122.95 879.41 122.95"/>
<polyline points="891.66 90.589 891.66 82.261 891.66 80.283 894.15 80.283"/>
<path d="m891.66 105.64v-11.965"/>
<polyline points="881.07 172.68 881.07 117.5 891.66 117.5 891.66 108.58"/>
<path d="m896.37 117.5h8.3709"/>
<path d="m907.52 122.95h3.4552"/>
<polyline points="931.08 135.2 922.58 135.2 914.09 135.2"/>
<path d="m933.75 146.55h12.721"/>
<polyline points="953.07 222.31 955.2 222.31 955.2 176.96 981.18 176.96"/>
<path d="m986.05 176.96h5.909"/>
<polyline points="1001.2 196.4 1006.9 196.4 1006.9 176.96 1013.2 176.96"/>
<path d="m1031.9 176.96h9.5802"/>
<polyline points="842.45 202.13 842.45 190.11 851.87 190.11"/>
<polyline points="838.31 222.31 842.45 222.31 842.45 208.2"/>
<polyline points="490.08 172.31 492.85 172.31 486.1 172.31"/>
<path d="m353.42 104.5v23.822"/>
<path d="m538.58 172.06h-29.026"/>
<path d="m530.22 220.72h-9.9942"/>
<path d="m745.12 55.664c0.008795 10.385 0.008795 21.07 0 31.632"/>
</g>
</g>
<g transform="translate(0 3)">
<path d="m788.83 338.7h2.428v-18.312h-2.428v18.312zm-3.9772 0h1.3048v-18.312h-1.3048v18.312zm-17.636 0h1.3048v-18.312h-1.3048v18.312zm-5.0998 0h2.428v-18.312h-2.428v18.312zm-195.36 6.3716h8.9439v2.9325h1.1477v10.998h15.068v-8.274h2.0938v-33.636h-1.1346v-2.6189h-0.95928v-3.2298h2.0938 46.859v-1.4839h3.1153v-5.9355h0.008166l-2.8559-4.0871v-2.6635h5.5144v-18.04h1.9776v-29.725l-3.4897-3.3549v-2.1853h9.9898v-4.1902h6.448l1.3174-16.061h1.1339l1.318 16.061h6.4473v4.1902h9.9905v2.1853l-3.4903 3.3549v29.725h1.9776v18.04h5.5151v2.6635l-2.8565 4.0871h0.008795v5.9355h3.1153v1.4839h46.858 2.0938v3.2298h-0.95928v2.6189h-1.1346v33.636h2.0938v8.274h14.585v-3.1742h1.0925v-0.72905h1.6396v-8.1088h-1.6396v-1.2752h-0.81856v-2.0049h7.8464v-2.7327h0.84997v-2.2777h0.88075v-18.312-0.97228-0.97165h-1.3965v-1.822h1.3965v-1.5794h4.978v-2.7936h1.9424v-3.9784h1.0322v-2.0954h3.0808l0.6257-70.335h-1.5203v-2.612h-0.60748v-8.3822h6.3324v-1.5788c-0.97184-0.12193-2.7007-0.77304-2.8829-1.6234-0.18218-0.85035 2.5662-5.7048 1.6805-5.9688-2.8533-0.85035-6.4963-6.6809-6.071-7.4043 0.42404-0.72276 3.7335 1.4826 5.8581 3.1223 0.57356 0.44246 1.1094 0.82584 1.6723 1.0678-0.34552-1.2388-0.9976-4.3221 1.0648-4.3221 2.0429 0 1.6541 2.6196 1.1565 4.3322 0.57042-0.24197 1.1126-0.62975 1.6924-1.0779 2.1252-1.6397 5.434-3.8451 5.8593-3.1223 0.42467 0.72339-3.2177 6.5539-6.071 7.4043-0.88641 0.26397 1.862 5.1184 1.6798 5.9688-0.18218 0.85035-1.9116 1.5015-2.8822 1.6234v1.5788h6.3318v8.3822h-0.60685v2.612h-1.5215l0.62633 70.335h3.0801v2.0954h1.0328v3.9784h1.9424v2.7936h4.978v1.5794h1.3965v1.822h-1.3965v0.97165 0.97228 18.312h0.88075v2.2777h0.84997v2.7327h7.847v2.0049h-0.81982v1.2752h-1.639v8.1088h1.639v0.72905h1.0931v3.1742h14.086l0.31274-6.4647h-0.82673v-2.2299h0.89458l1.3739-44.475-1.6233-3.6377v-2.4643h-1.1333v-6.6878h-0.7438v-1.4091h-0.89395v-0.82081l6.6854-3.7848h0.043975v-15.842h-1.144v-5.4327h3.9207l6.507-20.669 0.055911-1.4336c-0.5189-0.17849-0.89458-0.66494-0.89458-1.2444 0-0.61466 0.42279-1.1275 0.99195-1.274l0.10742-2.7691h0.43975l0.10805 2.7691c0.56916 0.14644 0.99195 0.65929 0.99195 1.274 0 0.57947-0.37504 1.0659-0.89458 1.2444l0.055911 1.4336 6.507 20.669h3.9207v5.4327h-1.1433v15.842h0.043347l6.6861 3.7848v0.82081h-0.89458v1.4091h-0.7438v6.6878h-1.1333v2.4643l-1.6233 3.6377 0.40645 13.143h77.503l0.40582-13.143-1.6233-3.6377v-2.4643h-1.1333v-6.6878h-0.7438v-1.4091h-0.89457v-0.82081l6.6861-3.7848h0.043975v-15.842h-1.144v-5.4327h3.9207l6.507-20.669 0.055911-1.4336c-0.51953-0.17849-0.89457-0.66494-0.89457-1.2444 0-0.61466 0.42279-1.1275 0.99195-1.274l0.10805-2.7691h0.43975l0.10742 2.7691c0.56916 0.14644 0.99195 0.65929 0.99195 1.274 0 0.57947-0.37567 1.0659-0.89457 1.2444l0.055911 1.4336 6.507 20.669h3.9207v5.4327h-1.144v15.842h0.044603l6.6854 3.7848v0.82081h-0.89457v1.4091h-0.74318v6.6878h-1.1333v2.4643l-1.6233 3.6377 1.3733 44.475h0.89457v2.2299h-0.82673l0.31274 6.4647h16.401c1.883-16.566 6.6761-60.746 6.1703-77.199-0.5321-17.281 0.11056-24.274 0.44729-26.629-0.56728-2.1344-1.2696-5.2517-1.0755-6.9957 0.31411-2.8282 0.78527-6.442-0.62821-8.6418-1.4135-2.1997-21.045-30.325-22.93-83.118 0 0-3.1411-12.57-3.1411-20.112 0-7.5419 0.62821-11.627-0.94232-18.541-1.5705-6.9134-7.5386-28.596-8.4809-55.307-0.94232-26.711-0.62821-30.796-1.8846-37.081s-0.94232-24.825 10.68-25.14c11.622-0.31425 15.391 10.999 16.962 34.567 0 0 3.1411 9.4274 3.4552 17.284 0.31411 7.8561 3.1411 14.455 4.3975 21.683 1.2564 7.2277 5.3398 31.739 7.2244 32.367 1.8846 0.62849 7.8527-19.797 11.936-22.94s9.4232-8.7989 16.334-8.4846c6.9103 0.31425 9.547-0.39846 16.019 11.627 0.16711 0.31173 0.31097 0.69511 0.43724 1.1263 3.136-2.1639 8.7585-5.5471 12.441-4.8972 5.3398 0.94274 14.135 3.1425 15.391 9.7416 0.87259 4.583 3.1065 9.0176 3.2334 15.825 2.7742-3.0997 10.255-11.685 11.53-15.511 1.5705-4.7137 13.192-25.454 13.192-32.996s8.795-24.197 17.59-20.112c8.795 4.0852 5.6539 21.683-0.94232 37.395 0 0-2.827 17.598-7.8526 23.254 0 0-7.5386 22.311-13.821 29.853 0 0 0 5.0279-1.2564 6.2849 0 0 2.827 12.57-1.2564 17.598 0 0 7.8526 42.214-7.2244 70.391 0 0-4.3975 19.169-3.7693 26.397 0.36185 4.1644-0.15894 7.2666-0.62319 10.486-0.45357 3.1469-0.85374 6.4068-0.31913 10.883 0.44226 3.7037 0.92284 8.577 1.4066 14.147 2.053 23.632 4.1605 59.834 3.5775 72.794h11.825v-1.1354h0.96744l0.72056-50.247h-0.93289v-3.0029h-1.274v-0.81892h0.41839v-12.289h-1.4826v-3.4705h-0.8751v-1.6705h-2.8257v-0.77933h6.7414v-4.9865h-1.4826v-3.4693h-0.87573v-1.6718h-2.8257v-0.7787h63.743c-6.3e-4 -0.027025-0.00125-0.055307-0.00125-0.081075 0-0.4764-0.33358-0.87863-0.2783-1.3619-0.29401-0.21432-0.46614-0.6398-0.23621-0.96034 0.01319-0.17095-0.39515 0.22186-0.68538-0.20175-0.06282 0.07102 0.4944 0.52856 0.28458 0.8227-0.23935 0.12821-0.43786 0.024511-0.63198-0.10873l-6.3e-4 -6.29e-4c-0.05905-0.050907-0.1181-0.10182-0.17778-0.15335l-0.14009 0.023883c-0.5811-0.16781-0.54592-0.75168-0.77773-1.1552-0.10491-0.051536-0.2092-0.10244-0.31348-0.15335-0.45043 0.68317-0.11999 1.35 0.0578 2.0131 0.05151 0.19483 0.24814 0.34881 0.16647 0.58513 0.00314 0.25894 0.1313 0.55622-0.2161 0.70642-0.07664-0.014455-0.15203-0.02891-0.22742-0.043365-0.05528-0.02514-0.11056-0.050908-0.16522-0.076048-0.29149-0.080447-0.28897-0.35258-0.31159-0.55999-0.10931-1.0301-0.07036-2.0715-0.22364-3.0997-0.01257-0.079818-0.16836-0.37018 0.17401-0.26082h6.3e-4c0.02262-0.16718 0.10994-0.27842 0.27767-0.32053 0.17967-0.21054 0.0779-0.42235 0.00503-0.63603-0.09612-0.28408-0.20731-0.56941-0.03267-0.8648 0.04774-0.33876-0.08795-0.74288 0.33609-0.94777 0.09172-0.18855 0.42216-0.856 0.19726-0.92891-0.15391-0.47326-0.73187-0.69826-0.73689-1.2582-0.26322-0.26334-0.63952-0.47074-0.46676-0.94902 0.14637-0.18603 0.05402-0.42423 0.13757-0.62346v-6.28e-4 6.28e-4c-0.14071-0.3375-0.28332-0.67437-0.42215-1.0119-0.06408-0.15901 0.03015-0.19735 0.1627-0.20049 0.0622-0.11627 0.16585-0.2162 0.14763-0.36452-0.28332-0.15901-0.44917-0.39784-0.47493-0.72276-0.00565-0.074162 0.02325-0.17221 0.11497-0.15398 0.04649 0.009427 0.07538 0.10999 0.11308 0.16906 0.34426-0.13952 0.6659-0.34253 1.0535-0.35635 0.30782 0.015083 0.65522-0.075419 0.82861 0.30733 0.18532 0.20866 0.48121 0.30859 0.58549 0.5977 0.61502 0.26962 0.6056 0.94085 0.89395 1.4179 0.21736 0.3595 0.32981 0.78247 0.48875 1.1772-0.04335 0.1345 0.02638 0.2338 0.1024 0.33122 0.02136 0.021998 0.03455 0.04588 0.04335 0.069763 0.17024 0.27591 0.24249 0.58701 0.30656 0.90063 0.00189 0.10684 0.00377 0.21369 0.00566 0.32116l0.31662 0.43806c0.11747 0.05845 0.21673 0.1345 0.26824 0.2602-0.00377 0.15335 0.15203 0.24386 0.16962 0.38904 0.00817-0.001885 0.01633-0.005028 0.01633-0.005028 0.04272 0.37332 0.43598 0.077305 0.56163 0.29225 0.14888-0.10056 0.27704 0.088617 0.42215 0.028911 0.24061 0.001257 1.5749 0.16404 2.6165 0.33184 0.02324-0.23128 0.04523-0.46257 0.04272-0.69386-0.10429-0.29602-0.02011-0.5229 0.25317-0.67814 0.03832-0.021369 0.0779-0.043366 0.11684-0.064735 0.28333-0.12821 0.33044-0.44749 0.52582-0.64672l-6.3e-4 -6.28e-4c6.3e-4 6.28e-4 -0.03015-0.010684-0.03015-0.010684l-0.02953 0.015712c-0.28709-0.45377-0.03015-0.80447 0.21736-1.1577 0.07413-0.11187 0.14763-0.22374 0.22113-0.33624-0.21359-0.32304-0.01131-0.63478 0.05277-0.93582 0.07602-0.3595 0.09486-0.71899 0.11559-1.081v-6.29e-4 6.29e-4c-0.07036-0.27465 0.02576-0.57444-0.12564-0.83715-0.00817-0.17661-0.0201-0.35447 0.19475-0.42989l0.02764-0.022626v-6.29e-4l0.12438-0.3111c-0.13192-0.53233 0.19098-0.50845 0.54466-0.4456h6.3e-4c0.15015-0.006284 0.30154-0.013198 0.45232-0.020111 0.0892-0.014456 0.19725-0.077305 0.26824-0.04588 0.05654 0.027025 0.01382 0.1521 0.02073 0.22814 0.13318 0.36515 0.18533 0.76425 0.45169 1.0735 0.17401 0.20175 0.00565 0.38904-0.02639 0.58198 0.08544 0.35761 0.32856 0.71585-0.00377 1.0722-0.06659 0.18666-0.13255 0.37332-0.19851 0.55999l-0.02764 0.73094 0.02764 0.49148c0.25882 0.19735 0.26196 0.46131 0.19223 0.74413 0.18847 0.36013 0.37756 0.72025 0.56539 1.0797 0.37567-0.38087 0.04586-0.85852 0.17465-1.2733 0.0201-0.24448-0.0823-0.50656 0.10114-0.72779-0.05152-0.18478-0.05905-0.36704 0.01822-0.54679v-6.29e-4 6.29e-4c-0.07665-0.52542 0.36813-0.74476 0.62758-1.0716 0.02387-0.0044 0.04586-0.013199 0.06722-0.025769v-6.28e-4c-0.0044-0.025768-0.0044-0.052165-0.00126-0.078562 0.0377-0.23946-0.02324-0.52542 0.22742-0.66809 0-0.001257-6.3e-4 -0.002514-0.00126-0.003771 0.36248-0.78687 0.6948-1.4631 1.4436-1.9483v-0.21432c0.00503-0.38464-0.01822-0.61781 0-1.0094 0.00189-0.048394 0.00126-0.051537 0-0.099302 0 0-0.11245-0.016969-0.1558-0.050908-0.09988-0.054679-0.15202-0.2979-0.0201-0.40726-0.00628-0.0044-0.01256-0.007542-0.01822-0.01257-0.12627-0.1521-0.16584-0.3375-0.20542-0.52416-0.02639-0.21494 0.01005-0.39658 0.14951-0.52416-0.13506-0.03331-0.27767-0.054679-0.33672-0.22312 0-0.003142 0-0.006285-6.3e-4 -0.009427-0.11559-0.040224-0.22741-0.089246-0.33295-0.1477-0.30657-0.15398-0.57105-0.41418-0.75071-0.72905-0.17465-0.29225-0.27642-0.63163-0.27642-0.99553 0-0.79944 0.48624-1.4876 1.1842-1.8019 0.08921-0.17472 0.23558-0.34567-0.00314-0.54364-0.02638-0.01697-0.05528-0.027025-0.08669-0.028911-0.58675 0.1389-0.65271 0.081075-0.73313-0.64106-0.5924-0.059079-0.85248-0.5229-1.1471-0.94462-0.09235-0.060964-0.09863-0.15775-0.10491-0.25454-0.25757-0.1169-0.20857-0.48834-0.48561-0.58953-0.09926-0.15964 0.08795-0.22688 0.13255-0.34064-0.05779-0.049022-0.17024-0.09176-0.16647-0.14832 0.02198-0.33184-0.28898-0.4676-0.15015-0.59644 0.22804-0.21306 0.36562 0.15398 0.55346 0.24511 0.18281 0.087989 0.32855 0.2514 0.49126 0.3815 0.54089 0.12947 0.95991 0.47074 1.3877 0.79881 0.35871 0.13513-0.03769 0.51976 0.22679 0.68568 0.1426-0.002514 0.28458-0.005028 0.42781-0.008171 0.05277-0.10622 0.10554-0.21306 0.15831-0.3199-0.21045-0.40035-0.41085-0.9352 0.15956-1.1237 0.35243-0.044623 0.45671 0.64672 0.23433 1.0779h-6.3e-4c-0.0201 0.23568 0.21171 0.19798 0.31913 0.29476 0.25003 6.28e-4 0.35997-0.13324 0.35683-0.37458h6.2e-4v-6.29e-4c-0.14511-0.66054 0.31976-0.91823 0.77836-1.1797 0.07476-0.1301 0.17841-0.21997 0.33484-0.23317 0.25442-0.37584 1.0303-0.96096 1.0409-0.81767 0.10617 0.16781-0.0691 0.42046-6.2e-4 0.60084-0.24752 0.17346-0.01194 0.54302-0.28584 0.70517-0.04963 0.074791-0.09989 0.14958-0.14951 0.22374 0.10365 0.38652 0.04146 0.71711-0.31851 0.94777-0.08041 0.10119-0.16082 0.20112-0.2406 0.30168 0.00314 0.16718-0.1313 0.225-0.23998 0.30293-0.02701 0.15964 0.17841 0.28219 0.07287 0.4544-0.196 0.3771-0.52518 0.47263-0.91844 0.43177-0.06283-0.014456-0.1269-0.028911-0.19035-0.043366-0.01445 0.099301-0.0289 0.19735-0.04398 0.29539 0.00377 0.11313 0.00754 0.22563 0.01131 0.33813 0.84432 0.24134 1.4625 1.0024 1.4625 1.905 0 0.3727-0.1068 0.71962-0.28961 1.0175-0.04146 0.072277-0.08858 0.1389-0.13946 0.19923-0.22679 0.28534-0.53021 0.50782-0.88201 0.63792-0.12376 0.056564-0.25757 0.094274-0.40394 0.10496-0.02325 0.003771-0.04649 0.006914-0.07036 0.010056 0.13004 0.13073 0.31599 0.34316 0.11433 0.56376v6.29e-4c-0.11999 0.22877 0.18533 0.406-0.0446 0.62849 0.20919 0.048394 0.14135 0.39344-0.06973 0.45063v1.2834c0.37127 0.2118 0.55534 0.46697 0.21548 0.87926 0.09109 0.006914 0.20228 0.050908 0.27075 0.014456 0.31474-0.16906 0.58487-0.24134 0.77333 0.17346 0.02199 0.049023 0.17402 0.038338 0.26699 0.055936 0.19789 0.018226 0.30406 0.13261 0.33547 0.32367 0.11496 0.38087 0.04335 0.70957-0.20794 0.98925-0.01319 0.039595-0.03769 0.074791-0.09235 0.094902-0.07664 0.20049-0.15328 0.40161-0.22992 0.60147v6.28e-4c0.05591 0.14518 0.11182 0.29099 0.16773 0.4368 0.10428 0.086103 0.20857 0.17284 0.31285 0.25831 0.04586 0.1169 0.15705 0.10182 0.2494 0.1257 0.17025-0.025139 0.27893 0.087989 0.39703 0.17849 0.02199 0.015084 0.04523 0.017598 0.07036 0.006285 0.0201 0.011941 0.04084 0.022626 0.06157 0.031424 0.06345-0.17975 0.0647-0.34756 0.00125-0.5405-0.08355-0.25391-0.03078-0.48771 0.30029-0.53736 0-6.28e-4 0.02136-0.046508 0.02136-0.046508 0.33232-0.29665 0.51764-0.055307 0.70171 0.19169 0.12062 0.14141 0.20291 0.30105 0.23307 0.48582v6.28e-4c0.03078 0.099302 0.06156 0.19986 0.09172 0.29979 0.12941 0.14707 0.08355 0.33561 0.1181 0.50531 0.54655-0.42549 0.31034-1.0873 0.49189-1.6228 0.0044-0.011313 0.03267-0.02074 0.04837-0.020112 0.01822 0.001257 0.03518 0.015712 0.05277 0.023254 0.19098-0.36641 0.05026-0.80824 0.26574-1.169 0.12878-0.52919 0.2161-1.0728 0.53021-1.5379-0.00754-0.029539-0.00251-0.056564 0.01382-0.081076-0.00126-0.15209-0.00628-0.30545 0.16271-0.38526 0.12124-0.20992-0.07727-0.59895 0.30279-0.6442 0.19224-0.022625 0.49064-0.24386 0.61126 0.14078 0.0603 0.005657 0.12061 0.010685 0.17966 0.016341 0.13947-0.001257 0.37253-0.35636 0.44729-0.29853 0.10052 0.2074 0.01948 0.37647-0.06659 0.5449h-6.3e-4c0.07099 0.13827 0.14198 0.27716 0.21297 0.41669l-0.00126 6.28e-4h0.00126c0.08104 0.057821 0.16208 0.11501 0.24311 0.17221 0.00315 0.087989 0.00692 0.17535 0.01068 0.26208 0.10994 0.32996-0.08795 0.61152-0.14197 0.91571l0.10617 0.46948c-0.1068 0.39658-0.29024 0.78059-0.21045 1.2098-0.03016 0.45691 0.10051 0.92451-0.09172 1.3707-0.01131 0.18352-0.02136 0.36704-0.03204 0.55119-0.00252 0.047766-0.00503 0.095531-0.00691 0.14392l0.05277 0.096159c0.4253 0.17786 0.49377 0.65175 0.78087 0.94399 0.03894-0.010055 0.07789-0.020111 0.11684-0.029539 0.57921 0.1257 1.1704 0.088618 1.7433 0.2338 0.48373 0.074162 2.3124 0.11564 3.2636 0.23317 0.0245-0.17158 0.12375-0.28911 0.29588-0.3551l0.01948-0.051536c-0.22867-0.35824 0.06094-0.64358 0.13506-0.95908-0.09171-0.40349-0.03015-0.7919 0.11245-1.1728 0.09486-0.30859 0.25694-0.57821 0.47682-0.81327v-6.29e-4c0.01068-0.38652 0.25756-0.65614 0.46864-0.94337 0.12125-0.33184 0.32039-0.60964 0.58613-0.84092 0.2249-0.4588 0.72244-0.60838 1.061-0.93834 0.11056-0.12067 0.22176-0.24134 0.33232-0.36138 0.08293-0.09176 0.21359-0.13513 0.29338-0.067249 0.13318 0.11376 0.06847 0.28974-0.02827 0.38841 0.03769 0.10056 0.09674 0.064735 0.18595 0.084218 0.00691 0.055307 0.01382 0.11062 0.0201 0.16592 0.08795 0.015712 0.1759 0.032053 0.26448 0.047765 0.13255-0.059707 0.34866-0.247 0.40143-0.17975 0.14763 0.22751-0.05403 0.38149-0.10492 0.56376-0.03141 0.035824-0.06282 0.071648-0.09486 0.10747-0.24249 0.3067 0.14198 0.61215 0.00126 0.9176 6.3e-4 0.16529-0.07476 0.28345-0.21736 0.36264 0.02827 0.32304-0.04712 0.65237 0.0691 0.97102 0.09047 0.24825-0.10177 0.46697-0.23935 0.53924-0.22741 0.11753-0.27704 0.34756-0.44791 0.48394-0.02827 6.28e-4 -0.05403-0.003771-0.07916-0.011941l-0.00125 6.28e-4c-0.05466 0.22186-0.05403 0.46131-0.18784 0.65677 0.00754 0.014455 0.01319 0.027654 0.02199 0.042109-0.00628 0.10873-0.00691 0.21872-0.06534 0.31613-0.18469 0.3111 0.06157 0.62912-0.01507 0.94148 0.11559 0.19923 0.31348 0.34818 0.35871 0.58952 0.28646 0.2602 0.21987 0.61089 0.23872 0.9396-0.19349 0.43932-0.22302 0.91006-0.27139 1.3777 0.20291 0.11564 0.47116 0.1125 0.61816 0.3331v6.28e-4c0.17213 0.18289 0.12627 0.41858 0.05089 0.59141-0.36248 0.82835-0.23747 1.7717-0.62884 2.5894-0.00754 0.39092 0.04083 0.81076-0.47368 0.94839-0.04397 0-0.08732 6.29e-4 -0.13192 6.29e-4 -0.32416 0.003142-0.46613-0.15272-0.41525-0.4764-0.02827-0.20112 0.00628-0.41858 0.13067-0.54867 0.56916-0.59518 0.56162-1.3959 0.79846-2.1092-0.0333-0.047765-0.06722-0.096159-0.10052-0.14392-0.38069-0.019483-0.48184 0.49651-0.89834 0.3815-0.2695 0.52039-0.08795 1.2375-0.59303 1.6341-0.20731 0.1301-0.61502-0.35321-0.57419-0.50531 0.04774-0.17346 0.42279-0.39344 0.24312-0.55999l-0.20229 0.10684c0.03832 0.52542-0.44791 0.89183-0.41713 1.4418 0.01068 0.1986 0 0.40035 0.05842 0.59707 0.04335 0.098673 0.08607 0.23128 0.12942 0.34504h62.663v0.7787h-2.8257v1.6718h-0.8751v3.4693h-1.4826v4.9865h6.7401v0.77933h-2.8251v1.6705h-0.8751v3.4705h-1.4832v12.354h-0.42027v0.75356h-1.274v3.0029h-0.93226l0.71993 50.247h0.96807v1.1354h22.202l2.287-13.012 2.7742-120.76h-1.0654v-3.9476h1.1565l0.07664-3.3411c-4.4113-1.4971-7.5901-5.6646-7.5901-10.584 0-4.6615 2.8527-8.6543 6.9047-10.334v-1.1791h-1.09v-1.8641h1.09v-9.5392h-1.09v-2.5221h1.09 2.1969l0.06973-2.7654h-0.55723v-2.3625h0.61754l0.11496-4.517h-0.57293v-2.201h0.62821l0.46111-18.139h-0.46802v-1.7623h0.51262l0.30343-11.948h-0.44477v-1.6448h0.48623l0.50948-20.065h-0.18532v-1.7271h1.2049v1.7271h-0.18532l0.50948 20.065h0.48686v1.6448h-0.44477l0.3028 11.948h0.51262v1.7623h-0.46802l0.46111 18.139h0.62821v2.201h-0.57293l0.11496 4.517h0.61754v2.3625h-0.55723l0.06973 2.7654h2.1969 1.09v2.5221h-1.09v9.5392h1.09v1.8641h-1.09v1.1791c4.052 1.68 6.9047 5.6728 6.9047 10.334 0 4.9192-3.1788 9.0867-7.5901 10.584l0.07664 3.3411h1.1565v3.9476h-1.0654l2.7742 120.76 2.287 13.012h23.65v-9.4622h-0.61125v-1.822h0.61125v-13.895h2.9884v-11.618h-0.9241v-2.2205h0.9241v-4.4422h-2.391v-3.4171h-1.7929v-0.9396h-0.64015v-0.9396h0.64015 1.7929 2.391v-7.5174h-0.93918v-1.3663h-0.7683v-0.79756h0.7683v-1.4235h2.1347v-18.564h-1.1685v-1.1382h-0.539v-1.3117h1.7075v-3.6453h1.622c0-7.3301 4.2266-13.444 9.8416-14.846v-0.94337h1.8784v-5.5037c-0.73626-0.24385-1.2709-0.92954-1.2709-1.7472 0-0.96096 0.73689-1.7409 1.6742-1.8295l0.17276-4.4591 0.17213 4.4591c0.93729 0.088617 1.6742 0.86858 1.6742 1.8295 0 0.81767-0.53398 1.5034-1.2696 1.7472v5.5037h1.8784v0.94337c5.6137 1.4015 9.8403 7.5155 9.8403 14.846h1.622v3.6453h1.7081v1.3117h-0.539v1.1382h-1.1691v18.564h2.1347v1.4235h0.7683v0.79756h-0.7683v1.3663h-0.93918v7.1755h12.893v-20.486h-0.7972v-4.2297h-1.3092v-1.367h3.0707v-5.0116h-0.20605v-3.9595h-1.2256v-1.2796h1.519c0.88327-12.093 8.9037-21.838 19.185-23.59v-7.0479s2.3904-2.3059 2.3904-8.7989h0.85374v-1.5511h-0.14197v-0.032053c-0.27202-0.094902-0.46991-0.34756-0.46991-0.65175 0-0.30482 0.19789-0.55622 0.46991-0.65175v-2.3242h-1.3306v-0.42674h1.3306v-1.3381h0.45545v1.3381h1.3306v0.42674h-1.3306v2.3242c0.27139 0.095531 0.46927 0.34693 0.46927 0.65175 0 0.30419-0.19788 0.55684-0.46927 0.65175v0.032053h-0.14261v1.5511h0.85437c0 6.4929 2.3904 8.7989 2.3904 8.7989v7.0479c10.281 1.7529 18.301 11.498 19.184 23.59h1.519v1.2796h-1.2256v3.9595h-0.20605v5.0116h3.0707v1.367h-1.3092v4.2297h-0.7972v20.486h12.893v-7.1755h-0.9398v-1.3663h-0.76768v-0.79756h0.76768v-1.4235h2.1353v-18.564h-1.1685v-1.1382h-0.53964v-1.3117h1.7081v-3.6453h1.622c0-7.3301 4.226-13.444 9.8409-14.846v-0.94337h1.8784v-5.5037c-0.73564-0.24385-1.2702-0.92954-1.2702-1.7472 0-0.96096 0.7369-1.7409 1.6742-1.8295l0.17213-4.4591 0.17276 4.4591c0.93792 0.088617 1.6742 0.86858 1.6742 1.8295 0 0.81767-0.53461 1.5034-1.2702 1.7472v5.5037h1.8784v0.94337c5.6143 1.4015 9.8403 7.5155 9.8403 14.846h1.6227v3.6453h1.7075v1.3117h-0.53838v1.1382h-1.1691v18.564h2.1347v1.4235h0.76894v0.79756h-0.76894v1.3663h-0.93917v7.5174h2.391 1.7929 0.64078v0.9396h-0.64078v0.9396h-1.7929v3.4171h-2.391v4.4422h0.9241v2.2205h-0.9241v11.618h2.9884v13.895h0.61125v1.822h-0.61125v9.4622h20.832v20h-1440v-20h377.63v-10.998h1.3324v-2.9325h46.801v-11.734h-1.2081v-2.9351h-1.693v-1.3808h1.693v-5.6973h60.587v-12.385h-1.4964v-3.7986h2.3602c2.7051-11.77 11.575-21.181 23.033-24.64v-4.8878h0.90651v-1.8327h0.95174v1.8327h3.9577v-1.8327h1.2564v1.8327h5.995v-1.8327h1.2564v1.8327h3.2598v-1.8327h0.95174v1.8327h0.91593v4.8878c11.458 3.4592 20.328 12.87 23.033 24.64h2.3608v3.7986h-1.4964v12.385h15.578v5.6973h1.6918v1.3808h-1.6918v2.9351h-1.2081v11.734zm278.81 13.931h74.807l0.31274-6.4647h-0.82736v-2.2299h0.89583l0.075385-2.4461c-0.45106-2.5598-1.4172-5.0084-2.8232-7.2936h-70.073c-1.4059 2.2852-2.3721 4.7338-2.8232 7.2936l0.075386 2.4461h0.89583v2.2299h-0.82736l0.31274 6.4647zm238.07 0h12.311v-1.1354h0.96744l0.72056-50.247h-0.93352v-3.0029h-1.2734v-0.75356h-11.273v0.75356h-1.2746v3.0029h-0.93227l0.71993 50.247h0.96808v1.1354zm23.36 0h12.311v-1.1354h0.96744l0.71994-50.247h-0.93227v-3.0029h-1.274v-0.75356h-11.274v0.75356h-1.2734v3.0029h-0.9329l0.71993 50.247h0.96808v1.1354zm23.36 0h28.205v-1.1354h0.96745l0.72056-50.247h-0.9329v-3.0029h-1.274v-0.75356h-27.168v0.75356h-1.2734v3.0029h-0.93353l0.72119 50.247h0.96745v1.1354zm39.254 0h12.311v-1.1354h0.96745l0.71993-50.247h-0.93227v-3.0029h-1.274v-0.75356h-11.274v0.75356h-1.2734v3.0029h-0.93289l0.72055 50.247h0.96745v1.1354zm23.36 0h12.31v-1.1354h0.96808l0.72056-50.247h-0.93353v-3.0029h-1.2734v-0.75356h-11.273v0.75356h-1.2746v3.0029h-0.93226l0.72055 50.247h0.96745v1.1354z" fill="#fff" stroke="#2700C3" stroke-width=".4"/>
<g transform="translate(986 289)">
<path d="m8.5103 12.318c12.497-2.0698 32.277-8.9533 38.988-12.049 0.42909 3.2688 0.65556 5.446 1.1502 8.6074-6.7165 3.2986-29.476 11.268-38.94 11.93-0.33374-3.0958-0.85222-5.2074-1.1979-8.4881zm0 0c1.5555-1.4972 3.5877-3.4477 5.2385-5.2551-5.0299 1.0379-7.6342 1.3302-13.308 1.1214 2.3421 1.9565 3.4387 2.8214 5.5782 4.4319-1.77 2.1891-2.652 3.1912-4.4041 5.1119 2.652 0.19684 5.5782 0.095439 7.521-0.26246l-0.62576-5.1477zm40.037 1.6582c-0.011919-0.01193 1.1621 8.3688 1.1621 8.3688-9.3625 4.7242-27.742 10.224-37.736 11.059 0.011919 0-1.0429-7.8319-1.0787-7.8081 10.477-1.5449 28.689-7.2175 37.653-11.62zm-12.92 5.0165l13.022-10.111c-2.2051 2.6365-10.048 8.1719-13.022 10.111zm-8.6235-2.1832c-3.683 3.0898-12.36 7.0088-16.103 8.7804l16.103-8.7804zm22.199 1.8611c2.9858-1.2646 5.2027-2.2726 8.1885-4.3246-1.472 2.7677-2.2051 4.1396-3.689 6.8775 2.0322 1.0737 3.0692 1.6165 5.1789 2.7081-5.0418 2.726-8.0931 3.9428-12.962 5.2968 1.4363-2.4098 2.3779-4.4737 3.7843-6.8835l-0.50061-3.6744zm-35.448-11.608c0.19071 1.9804 0.2205 2.1533 0.41717 4.0025l-0.41717-4.0025zm31.377 17.543l0.79263 4.6228-0.79263-4.6228z" stroke="#2700C2" stroke-linecap="round" stroke-linejoin="round" stroke-width=".74502"/>
<path d="m29.655 11.423c-0.17879-1.1214 0.31586-2.2547 1.5316-2.6484 0.45889-0.14912 0.84626-0.1193 1.2932 0.10737 0.16687 0.095439 0.22646 0.35193 0.10727 0.54877-0.11323 0.18491-0.3397 0.2386-0.48869 0.14316-0.25626-0.17298-0.48869-0.17298-0.79263-0.071579-0.81646 0.26246-1.1085 1.0081-0.99525 1.7179 0.11323 0.71579 0.60788 1.2646 1.4303 0.99614 0.30394-0.1014 0.5602-0.32807 0.76879-0.64421 0.14303-0.19684 0.38141-0.20281 0.50061-0.095439 0.10727 0.095439 0.18475 0.29825 0.029798 0.56667-0.3099 0.50105-0.74495 0.72772-1.186 0.87088-1.2873 0.41754-2.0263-0.37579-2.1991-1.4912" fill="#2700C2"/>
<path d="m35.102 8.2018c-0.59 0.20281-1.1621 0.87088-1.0131 1.7775 0.14899 0.9007 0.86414 1.1453 1.4541 0.93649 0.60788-0.21474 1.174-0.90667 1.031-1.8074-0.14899-0.89474-0.8701-1.1154-1.472-0.90667zm0.61384 3.406c-0.95354 0.36386-2.0978 0.017895-2.3242-1.3898-0.22646-1.4196 0.69131-2.4695 1.6508-2.7737 0.8999-0.28632 2.0024 0.071579 2.217 1.4256 0.21455 1.3481-0.65556 2.3979-1.5435 2.7379z" fill="#2700C2" fill-rule="nonzero"/>
<path d="m38.386 7.134c0.16091 1.014 0.24434 1.5211 0.40525 2.547 0.34566-0.13123 0.51848-0.19684 0.86414-0.32807 1.4005-0.53684 1.0727-3.0779-0.39929-2.5351-0.34566 0.12526-0.52444 0.19088-0.8701 0.31614zm0.19071 3.3642c-0.17283 0.065614-0.37545 0.029825-0.41717-0.2207-0.20859-1.3004-0.3099-1.9505-0.51848-3.233-0.029798-0.20281 0.13111-0.41754 0.30394-0.47719 0.48273-0.17298 0.72111-0.26246 1.1979-0.43544 2.3898-0.87684 2.9321 3.0182 0.66747 3.8951-0.48869 0.19088-0.73899 0.28632-1.2336 0.47123z" fill="#2700C2" fill-rule="nonzero"/>
<path d="m42.432 8.9891c-0.17879 0.071579-0.3397-0.02386-0.36949-0.2207-0.19071-1.2765-0.28606-1.9088-0.48273-3.1793-0.029798-0.20281 0.089394-0.39965 0.26818-0.47123 0.74495-0.28632 1.1204-0.42947 1.8654-0.71579 0.47677-0.18491 0.56616 0.53684 0.10131 0.72175-0.59596 0.23263-0.89394 0.35193-1.4899 0.5786 0.047677 0.33404 0.077475 0.50105 0.12515 0.83509 0.51848-0.20281 0.78071-0.30421 1.2992-0.51298 0.45889-0.18491 0.5602 0.54281 0.10131 0.72772-0.51253 0.20877-0.77475 0.31018-1.2932 0.51895 0.047677 0.33404 0.071515 0.50105 0.12515 0.83509 0.62576-0.25053 0.93566-0.38175 1.5555-0.63825 0.46485-0.19088 0.59596 0.51298 0.10131 0.72175-0.75687 0.32807-1.1383 0.48316-1.9071 0.7993" fill="#2700C2"/>
<path d="m14.226 27.683c-0.029798-0.21474-0.017879-0.42947 0.25626-0.47719 0.19071-0.029824 0.23838 0.01193 0.40525 0.14316 0.8403 0.86491 1.2575 1.2944 2.0918 2.1235-0.12515-0.9007-0.18475-1.36-0.3099-2.2846-0.029798-0.19684 0.095354-0.4414 0.2801-0.47719 0.19071-0.03579 0.41121 0.14316 0.43505 0.34 0.18475 1.3481 0.27414 2.0161 0.44697 3.2926 0.035758 0.25053-0.10727 0.39965-0.23242 0.4414-0.15495 0.053684-0.28606 0.0059649-0.45889-0.1193-0.83434-0.81719-1.2575-1.2467-2.0918-2.1175 0.12515 0.90667 0.18475 1.354 0.30394 2.2249 0.035758 0.25053-0.089394 0.41158-0.2801 0.4414-0.19071 0.029824-0.37545-0.083509-0.41121-0.32807-0.16091-1.2347-0.2503-1.8909-0.43505-3.2032" fill="#2700C2"/>
<path d="m20.006 26.794c-0.60192 0.13123-1.1919 0.74561-1.0668 1.6761 0.12515 0.92456 0.84626 1.2407 1.4482 1.1154 0.6198-0.13123 1.2217-0.73368 1.0966-1.6642-0.13111-0.93649-0.86414-1.2646-1.478-1.1274zm0.53636 3.4775c-0.97737 0.22667-2.1157-0.2207-2.3123-1.6582-0.19667-1.4435 0.75091-2.4277 1.7223-2.6126 0.91778-0.17298 2.0382 0.35789 2.2348 1.7596 0.19667 1.3958-0.72111 2.2905-1.6448 2.5112z" fill="#2700C2" fill-rule="nonzero"/>
<path d="m23.683 26.055c-0.38141 0.095439-0.56616 0.14316-0.94758 0.23263-0.47081 0.11333-0.57808-0.66211-0.10727-0.77544 1.0191-0.25053 1.5316-0.37579 2.5507-0.64421 0.48273-0.12526 0.59596 0.65018 0.11323 0.77544-0.35758 0.095439-0.53636 0.14316-0.89394 0.23263 0.17283 1.2168 0.26222 1.8253 0.42909 2.9765 0.071515 0.49509-0.64364 0.68596-0.71515 0.17895-0.16687-1.1572-0.25626-1.7596-0.42909-2.9765" fill="#2700C2"/>
<path d="m31.818 25.804c0.17283-1.0677 0.2503-1.6165 0.41717-2.714 0.083434-0.54281 0.76879-0.51895 0.69131 0.059649-0.22051 1.4375-0.32778 2.1474-0.5602 3.5133-0.047677 0.35789-0.11919 0.48316-0.30394 0.53684-0.19667 0.059649-0.27414-0.047719-0.41121-0.2207-0.51848-0.78737-0.77475-1.1989-1.2992-2.0281-0.21455 1.0379-0.32182 1.5568-0.54828 2.553-0.059596 0.26842-0.13111 0.42947-0.32778 0.48912-0.19071 0.053684-0.3099-0.053684-0.43505-0.28035-0.60788-1.1274-0.91778-1.7239-1.5316-2.9228-0.24434-0.50105 0.41121-0.89474 0.62576-0.45333 0.47081 0.90667 0.70323 1.36 1.174 2.2309 0.23838-1.0796 0.35162-1.6344 0.57808-2.7498 0.071515-0.41158 0.41121-0.53088 0.60788-0.20281 0.52444 0.89474 0.79263 1.3361 1.323 2.1891" fill="#2700C2"/>
<path d="m35.775 24.414c-0.33374-0.49509-0.50061-0.74561-0.83434-1.2586-0.16687 0.68-0.2503 1.02-0.42313 1.6821 0.50657-0.16702 0.75687-0.25053 1.2575-0.42351zm-2.062 2.2368c-0.16091-0.01193-0.32778-0.21474-0.25626-0.48912 0.41121-1.4912 0.60788-2.2667 1.0012-3.8295 0.089394-0.36982 0.47081-0.50702 0.65556-0.2207 0.81646 1.1572 1.2217 1.7239 2.0263 2.7975 0.28606 0.36982-0.29202 0.94842-0.55424 0.56667-0.12515-0.16702-0.19071-0.25053-0.31586-0.42351-0.78071 0.27439-1.174 0.40561-1.9607 0.66807-0.059596 0.23263-0.089394 0.35193-0.14899 0.5786-0.053636 0.2207-0.2801 0.35789-0.44697 0.35193z" fill="#2700C2" fill-rule="nonzero"/>
<path d="m37.116 21.569c-0.029798-0.19684 0.089394-0.41754 0.27414-0.48912 0.16687-0.059649 0.33374 0.059649 0.36949 0.25649 0.19667 1.2049 0.29202 1.8074 0.47677 2.9586 0.57212-0.20877 0.85222-0.31018 1.4184-0.52491 0.50657-0.19088 0.63768 0.54877 0.11919 0.74561-0.68535 0.25649-1.031 0.38772-1.7283 0.63825-0.18475 0.065614-0.35162-0.02386-0.38737-0.22667-0.20859-1.2944-0.32182-1.9804-0.54232-3.3582" fill="#2700C2"/>
<path d="m40.102 20.478c-0.029798-0.19684 0.083434-0.42351 0.26818-0.48912 0.16687-0.059649 0.33374 0.053684 0.36354 0.25053 0.19071 1.1989 0.28606 1.7954 0.46485 2.9407 0.5602-0.21474 0.83434-0.32807 1.3886-0.54877 0.49465-0.19684 0.6198 0.53684 0.11323 0.73965-0.66747 0.26842-1.0072 0.40561-1.6866 0.66807-0.17879 0.071579-0.34566-0.01193-0.38141-0.2207-0.20859-1.2884-0.31586-1.9684-0.5304-3.3404" fill="#2700C2"/>
<path d="m43.052 19.899c-0.065556-1.193 1.4005-2.0102 2.1812-1.6642 0.38737 0.18491 0.095354 0.82912-0.23838 0.71579-0.38737-0.13719-1.2873 0.1014-1.2932 0.75158-0.0059596 1.014 2.1037-0.41158 2.2885 1.1214 0.17283 1.4614-1.6329 2.2607-2.4256 1.9028-0.19071-0.083509-0.23242-0.35789-0.15495-0.52491 0.083434-0.19684 0.24434-0.31614 0.44101-0.22667 0.45889 0.14912 1.6031-0.13123 1.4959-0.89474-0.10131-0.76351-2.1991 0.5607-2.2944-1.1811" fill="#2700C2"/>
<g transform="translate(11.919 10.14)" fill="#2700C2">
<path d="m0.92374 5.2372l0.20859 2.1235c0.023838 0.25053-0.16091 0.44737-0.35758 0.49509-0.17879 0.041754-0.34566-0.059649-0.36949-0.31614l-0.32182-3.233c-0.029798-0.29825 0.20263-0.4593 0.29202-0.47719 0.16091-0.041754 0.26222 0.035789 0.36949 0.1193l1.3826 1.4077 1.0846-2.0818c0.16091-0.28035 0.61384-0.29825 0.65556 0.095439l0.32182 3.233c0.023838 0.25053-0.11323 0.43544-0.29202 0.47719-0.19667 0.047719-0.36949-0.053684-0.39333-0.31018l-0.20859-2.1235-0.79859 1.4316c-0.17283 0.30421-0.42313 0.36386-0.63172 0.15509l-0.94162-0.99614z"/>
<path d="m4.9047 6.8358c-0.19071-0.059649-0.32182-0.2386-0.23838-0.50702l1.2396-3.6147c0.11919-0.34 0.51253-0.45333 0.68535-0.17298l1.9011 2.8154c0.27414 0.38772-0.35758 0.91263-0.60192 0.51895l-0.29798-0.4414-2.0382 0.51895-0.18475 0.56667c-0.059596 0.21474-0.26222 0.30421-0.46485 0.31614zm2.2229-2.0639l-0.77475-1.2526-0.52444 1.5867 1.2992-0.33404z" fill-rule="nonzero"/>
<path d="m10.102 3.6923l-0.45293 0.73965 0.095354 0.7993c0.059596 0.47123-0.67343 0.67404-0.72707 0.19088-0.13111-1.0975-0.25626-2.1593-0.38737-3.2568-0.059596-0.48316 0.66747-0.69789 0.72707-0.19088l0.17283 1.4495 1.3886-2.1235c0.16687-0.2386 0.36949-0.24456 0.52444-0.13719 0.17283 0.11333 0.19667 0.31018 0.059596 0.50702-0.2801 0.48316-0.61384 0.94246-0.91778 1.4316l1.4839 1.2705c0.38737 0.38772-0.2801 0.9186-0.54232 0.60842l-1.4243-1.2884z"/>
<path d="m13.081 4.6944c-0.19071 0.053684-0.36354-0.059649-0.38737-0.25649l-0.43505-3.233c-0.029798-0.20281 0.10131-0.39368 0.29202-0.44737l1.9786-0.54877c0.50657-0.14316 0.59596 0.60246 0.10131 0.73965l-1.5853 0.4414 0.11323 0.85298 1.3886-0.38772c0.48869-0.13719 0.59 0.60842 0.10131 0.74561l-1.3886 0.38772 0.11323 0.85298 1.6806-0.47123c0.50061-0.13719 0.64364 0.59649 0.10131 0.74561l-2.0739 0.5786z"/>
</g>
</g>
<g transform="translate(377.06 1.5388)">
<path d="m637.72 136.19c-3.4552 22.311 2.9928 29.682 14.929 30.625 10.409 0.82207 13.192-10.056 13.507-15.084s2.5128-21.054 5.968-34.567c1.0535-4.1223 1.4066-7.5714 1.3513-10.562" stroke="#2700C3" stroke-linecap="round" stroke-linejoin="round" stroke-width=".5"/>
<path d="m577.42 147.49s5.4969 10.632 11.36 3.9281c0 0 9.1644-13.196 16.438-26.711 4.3975-8.1704 10.994-18.855 25.443-20.112 14.449-1.257 26.087-7.0831 29.526-7.5419 4.7116-0.62849 13.507 1.8855 11.308 15.712-1.8011 11.326-10.68 15.712-17.59 19.169-4.8008 2.4015-20.417 5.0279-20.417 5.0279s0.62821 16.655-4.3975 22.469" stroke="#2700C3" stroke-linecap="round" stroke-linejoin="round" stroke-width=".5"/>
<path d="m641.65 226.53c13.253-17.568 13.312-34.306 10.409-46.202-1.705-6.9869-4.4314-12.303-6.1087-15.138" stroke="#2700C3" stroke-linecap="round" stroke-linejoin="round" stroke-width=".5"/>
<path d="m642.41 85.928c1.1798 4.0425 0.64706 12.807 0.34489 16.576" stroke="#2700C3" stroke-linecap="round" stroke-linejoin="round" stroke-width=".5"/>
<path d="m579.93 167.25s-7.7232 15.358 0.1759 32.445" stroke="#2700C3" stroke-linecap="round" stroke-linejoin="round" stroke-width=".5"/>
<path d="m646.2 105.38s4.0834 4.7137 5.1828 10.056c0 0 1.0994 3.4567 4.8686 2.9853 3.7693-0.47137 19.457-4.4749 13.192-15.869-5.1828-9.4274-14.292-2.3568-19.632-0.78561-2.7164 0.79881-4.3975 1.7284-3.6122 3.6138z" stroke="#2700C3" stroke-linecap="round" stroke-linejoin="round" stroke-width=".5"/>
<path d="m644.58 146.08s-1.4399 4.3994-0.6546 9.8987c0.40583 2.8389 2.9055 6.5992 8.8735 6.9134 5.968 0.31424 8.1253-2.4436 9.2661-5.1065 0.94232-2.1997 2.1698-8.4934 1.2564-11.601-1.5705-5.3422-16.229-7.5419-18.741-0.10496z" stroke="#2700C3" stroke-linecap="round" stroke-linejoin="round" stroke-width=".5"/>
<path d="m606.37 93.391s-0.38698 2.3059 2.3351 5.6583" stroke="#2700C3" stroke-linecap="round" stroke-linejoin="round" stroke-width=".5"/>
<path d="m612.02 92.972s-6.323 3.2474-3.9515 26.781" stroke="#2700C3" stroke-linecap="round" stroke-linejoin="round" stroke-width=".5"/>
<path d="m571.81 70.136s4.8165 0.4192 10.051-1.6762" stroke="#2700C3" stroke-linecap="round" stroke-linejoin="round" stroke-width=".5"/>
<path d="m569.09 33.265s5.8631-0.62849 8.1668 0" stroke="#2700C3" stroke-linecap="round" stroke-linejoin="round" stroke-width=".5"/>
<path d="m706.25 63.642s3.7693 0.62849 4.6073 2.0948" stroke="#2700C3" stroke-linecap="round" stroke-linejoin="round" stroke-width=".5"/>
<path d="m694.73 88.782s7.3294 2.3047 7.9576 5.2372" stroke="#2700C3" stroke-linecap="round" stroke-linejoin="round" stroke-width=".5"/>
<path d="m693.15 128.49c-0.48561-1.1395-1.558-2.776-3.8591-3.671" stroke="#2700C3" stroke-linecap="round" stroke-linejoin="round" stroke-width=".5"/>
<path d="m690.63 152.38c-0.71365-0.95908-1.6579-1.9779-2.8113-2.6837" stroke="#2700C3" stroke-linecap="round" stroke-linejoin="round" stroke-width=".5"/>
<path d="m630.66 131.31s0.47116 3.2996 2.827 5.6564" stroke="#2700C3" stroke-linecap="round" stroke-linejoin="round" stroke-width=".5"/>
<path d="m633.48 136.97c-3.6122 0.78562-5.968-0.78561-5.968-0.78561" stroke="#2700C3" stroke-linecap="round" stroke-linejoin="round" stroke-width=".5"/>
<path d="m631.65 154.32c-0.57607 0.45943-2.0436 1.4242-3.9741 1.1828" stroke="#2700C3" stroke-linecap="round" stroke-linejoin="round" stroke-width=".5"/>
<path d="m623.82 110.27c0.69292 0.59958 3.4011 4.2624 4.5558 8.611" stroke="#2700C3" stroke-linecap="round" stroke-linejoin="round" stroke-width=".5"/>
<path d="m612.23 231.45c2.9312 0 27.641-4.6087 33.504-23.463" stroke="#2700C3" stroke-linecap="round" stroke-linejoin="round" stroke-width=".5"/>
<path d="m593.02 239.66c2.2038 0.76739 9.2969 3.0344 15.227 2.6855" stroke="#2700C3" stroke-linecap="round" stroke-linejoin="round" stroke-width=".5"/>
<path d="m683.44 222.77c-1.9242 2.7201-5.1375 6.4138-9.7009 8.9309" stroke="#2700C3" stroke-linecap="round" stroke-linejoin="round" stroke-width=".5"/>
<path d="m626.89 235.22s13.821-3.3517 26.385-1.257" stroke="#2700C3" stroke-linecap="round" stroke-linejoin="round" stroke-width=".5"/>
<path d="m573.7 113.71s11.727 1.6762 16.753-3.3517" stroke="#2700C3" stroke-linecap="round" stroke-linejoin="round" stroke-width=".5"/>
<path d="m601.18 136.21c0.029526 0.21369 0.047745 0.32116 0.092976 0.53799 0.036436 0.17409 0.10051 0.25328 0.18407 0.23631 0.084181-0.01697 0.18846-0.12193 0.31159-0.31613 0.11748-0.18478 0.19726-0.37207 0.24186-0.56187 0.045232-0.18855 0.04586-0.3683 0.009423-0.53799-0.046487-0.2162-0.065962-0.32304-0.096116-0.5361-0.29589 0.46823-0.44477 0.70391-0.7438 1.1778m-1.4286 3.5579c0.37504-1.0414 0.56853-1.5593 0.96808-2.5831-0.013193-0.07919-0.019475-0.11878-0.029526-0.19735-0.44917 0.71208-0.6747 1.071-1.1283 1.7931-0.044603-0.34756-0.057167-0.51976-0.058424-0.85978 1.1974-1.9068 1.7904-2.8496 2.9413-4.6666 0.011308 0.5669 0.051514 0.85789 0.18784 1.4506 0.065334 0.28471 0.096744 0.59015 0.079154 0.91697-0.016333 0.32619-0.072244 0.65049-0.17653 0.97353-0.10428 0.32242-0.24563 0.62724-0.42844 0.91383-0.2161 0.34001-0.4297 0.55684-0.63387 0.64798-0.20354 0.091131-0.38007 0.040224-0.51262-0.1521-0.37442 1.0929-0.55471 1.6448-0.90211 2.754-0.14512-0.39972-0.20668-0.59832-0.30657-0.99113" fill="#2700C3"/>
<path d="m603.09 138.29c-0.25066 0.39155-0.37693 0.58827-0.62884 0.98233 0.25945 0.51536 0.40645 0.77556 0.72496 1.2978-0.22176 0.34441-0.33295 0.51662-0.55534 0.86229-0.31725-0.5229-0.46299-0.78247-0.72056-1.2978-0.26888 0.42046-0.40394 0.63163-0.67344 1.0552 0.28835 0.58073 0.45294 0.87298 0.81542 1.4619-0.23746 0.36892-0.35682 0.55433-0.59492 0.92514-0.58926-0.96159-0.84118-1.4392-1.2244-2.3776 1.2143-1.9163 1.8174-2.8653 3.0003-4.7162 0.40017 0.92954 0.66276 1.4059 1.2721 2.3682-0.23181 0.35824-0.34866 0.53862-0.58172 0.89937-0.37002-0.58952-0.53838-0.88177-0.83364-1.4606" fill="#2700C3"/>
<path d="m604.5 144.54c0.30154-0.88869 0.45357-1.333 0.75637-2.2186-0.60622 0.49274-0.90714 0.74036-1.5058 1.24 0.28772 0.39092 0.43849 0.58701 0.74946 0.97856m-0.37756 1.1124c-0.47179-0.58512-0.69669-0.878-1.117-1.4619-0.29526 0.24951-0.44226 0.37458-0.73564 0.62598-0.27767-0.39469-0.4096-0.59267-0.659-0.98673 1.5793-1.3324 2.3853-1.9835 4.03-3.2644 0.32541 0.4368 0.49566 0.65552 0.84997 1.0942-0.76328 2.431-1.1433 3.6572-1.8903 6.097-0.34929-0.39846-0.51953-0.59832-0.84809-0.99867 0.14826-0.44246 0.22176-0.66306 0.37002-1.1055" fill="#2700C3"/>
<path d="m610.64 146.87c0.10805 0.62912 0.028898 1.2507-0.23935 1.866-0.39766-0.38652-0.59492-0.58198-0.98504-0.97479 0.074129-0.28534 0.078526-0.56376 0.014449-0.83715-0.064706-0.27402-0.19852-0.51348-0.39954-0.72214-0.26385-0.27465-0.55597-0.37709-0.87824-0.30482-0.32227 0.072277-0.61816 0.31048-0.89143 0.71522-0.27264 0.40475-0.41211 0.81138-0.4165 1.218-0.004397 0.40726 0.1225 0.74665 0.38509 1.0169 0.19977 0.20552 0.41525 0.32053 0.64706 0.34693 0.23055 0.027025 0.4542-0.028911 0.66905-0.16592 0.38949 0.38966 0.58675 0.58261 0.98252 0.96599-0.45294 0.42675-0.94797 0.64043-1.4807 0.63855-0.53272-0.001885-1.0397-0.24071-1.5115-0.72402-0.35934-0.3683-0.60183-0.79441-0.72998-1.2777-0.12816-0.48394-0.13821-0.9861-0.03518-1.5034 0.1024-0.51851 0.30971-1.0106 0.62005-1.4744 0.31034-0.4632 0.65522-0.79693 1.0391-1.0006 0.38321-0.20489 0.77333-0.26082 1.176-0.17284 0.40143 0.088618 0.78401 0.32367 1.1484 0.70203 0.47807 0.49651 0.77647 1.0584 0.88578 1.6881" fill="#2700C3"/>
<path d="m614.9 150.24c-0.24814 0.3463-0.37127 0.51851-0.61753 0.86292-0.4209-0.38589-0.63387-0.58198-1.0592-0.97856-1.0353 1.46-1.5479 2.1828-2.5688 3.6321-0.38195-0.34127-0.57293-0.51474-0.95426-0.86355 1.0221-1.4638 1.5347-2.1941 2.5688-3.6641-0.42153-0.39972-0.63261-0.60084-1.0523-1.0081 0.24563-0.35258 0.36876-0.52919 0.61502-0.8824 1.2244 1.1922 1.8532 1.778 3.0682 2.9017" fill="#2700C3"/>
<path d="m595.53 146.82c0.20417-0.050279 0.45043-0.29602 0.72747-0.73785 0.27704-0.44183 0.46111-0.88177 0.56162-1.3186 0.10114-0.43806 0.10931-0.83024 0.049629-1.174-0.029526-0.16718-0.04209-0.25077-0.061565-0.41669-0.69606 1.1124-1.0453 1.6705-1.7414 2.7842 0.019475 0.16718 0.031411 0.25014 0.059052 0.41795 0.058424 0.34567 0.20166 0.49525 0.4052 0.44497m0.15391 1.2155c-0.29023 0.21306-0.55157 0.27591-0.76768 0.19043-0.2161-0.086103-0.36813-0.32619-0.43724-0.71774-0.097373-0.55496-0.12313-0.83087-0.12062-1.372 1.2143-1.9402 1.8268-2.9206 3.0412-4.8601 0 0.53485 0.027642 0.80761 0.12941 1.3588 0.072245 0.39218 0.10051 0.83652 0.062193 1.3293-0.038321 0.49211-0.13632 1.0024-0.30845 1.5279-0.17213 0.52416-0.40645 1.0263-0.70737 1.5046-0.30091 0.47891-0.59994 0.82521-0.89143 1.0389" fill="#2700C3"/>
<path d="m597.51 150.29c0.33735-0.90566 0.50697-1.3588 0.84997-2.2638-0.56916 0.52228-0.85123 0.78436-1.411 1.3104 0.20857 0.38087 0.32164 0.57193 0.56099 0.95342m-0.42027 1.1325c-0.3675-0.56941-0.53524-0.85538-0.83489-1.4235-0.27516 0.26145-0.41148 0.39281-0.68412 0.65489-0.19412-0.38527-0.2827-0.57758-0.441-0.96096 1.4468-1.3883 2.1962-2.0866 3.7278-3.4529 0.23307 0.42549 0.36059 0.63918 0.63135 1.0672-0.87196 2.4832-1.2979 3.7288-2.1284 6.2164-0.28646-0.38966-0.42342-0.5845-0.68224-0.97542 0.16396-0.45 0.24626-0.675 0.41148-1.1256" fill="#2700C3"/>
<path d="m603.58 152.33c-1.3356 0.74099-1.9971 1.1187-3.2975 1.8848-0.41839 0.63918-0.62696 0.95908-1.0453 1.6008-0.3229-0.36012-0.48058-0.54113-0.78401-0.90566 0.4165-0.6442 0.62507-0.96599 1.0416-1.6071 0.40206-1.8107 0.61062-2.7189 1.0472-4.5371 0.31599 0.42612 0.48184 0.63918 0.82547 1.0634-0.27013 1.0747-0.40268 1.6127-0.66339 2.6849 0.76077-0.49148 1.144-0.73596 1.9179-1.2186 0.37316 0.41606 0.56602 0.62346 0.95802 1.0345" fill="#2700C3"/>
<path d="m591.07 152.33c0.023244 0.23694 0.038949 0.35573 0.079155 0.59455 0.05277 0.31613 0.19914 0.30482 0.41399-0.038338 0.21485-0.34316 0.28207-0.67688 0.22678-0.99804-0.039577-0.23254-0.055282-0.34881-0.079154-0.57947-0.25757 0.40978-0.38572 0.61466-0.64078 1.0213m-0.65585 2.5045c0.10554-0.16781 0.17841-0.3463 0.2205-0.5317 0.041462-0.18603 0.045231-0.36138 0.01759-0.52542-0.043347-0.25957-0.060937-0.38904-0.085437-0.64735-0.26636 0.42298-0.39829 0.63289-0.66151 1.0515 0.023872 0.26208 0.040834 0.39406 0.083552 0.65803 0.055911 0.34316 0.20668 0.34316 0.4253-0.005028m0.55283 0.17409c-0.092347 0.3463-0.22364 0.65992-0.39766 0.93771-0.25568 0.40852-0.49126 0.61466-0.69418 0.61969-0.20417 0.005656-0.3562-0.20049-0.42907-0.61341-0.12816-0.72088-0.15894-1.0791-0.14198-1.7874 1.1521-1.8189 1.7458-2.7622 2.9444-4.671-0.006911 0.66117 0.028897 0.99742 0.16396 1.6749 0.075386 0.37961 0.090463 0.78247 0.018218 1.2067-0.072244 0.4236-0.22678 0.83401-0.47493 1.2293-0.18281 0.29036-0.35306 0.47074-0.51011 0.54113-0.15705 0.069762-0.28207 0.034567-0.36688-0.10307 0.014449 0.29602-0.020103 0.61844-0.11182 0.96536" fill="#2700C3"/>
<path d="m592.74 154.79c-0.25505 0.40664-0.38258 0.60964-0.63764 1.015 0.23872 0.51725 0.37379 0.77682 0.67093 1.2928-0.22427 0.35447-0.33547 0.53233-0.55911 0.88617-0.29463-0.51788-0.42907-0.77807-0.66528-1.2978-0.26888 0.428-0.40268 0.64169-0.6703 1.0678 0.26259 0.5889 0.41399 0.88366 0.74946 1.4707-0.23621 0.37521-0.35431 0.56313-0.58989 0.93771-0.54403-0.96536-0.7727-1.4531-1.1157-2.4241 1.1879-1.893 1.7935-2.859 3.011-4.7998 0.36374 0.94211 0.60434 1.4179 1.1697 2.3625-0.23684 0.37521-0.35557 0.56313-0.5924 0.93834-0.34363-0.57884-0.49943-0.8692-0.77082-1.4493" fill="#2700C3"/>
<path d="m593.63 158.97c0.15894 0.22688 0.24123 0.34001 0.40897 0.56501 0.13507 0.181 0.27076 0.26208 0.40268 0.2426 0.13192-0.019483 0.26385-0.1301 0.39389-0.33373 0.12313-0.1942 0.18658-0.38966 0.18972-0.58701 0.003141-0.19609-0.064078-0.38338-0.19726-0.56061-0.16899-0.225-0.25191-0.3375-0.41274-0.56376-0.31411 0.49462-0.47116 0.74288-0.78526 1.2375m-0.93729 3.6892c0.22176-1.0697 0.33609-1.6039 0.57104-2.6705-0.05968-0.08359-0.089206-0.12507-0.147-0.20929-0.46802 0.73848-0.70171 1.108-1.1678 1.8465-0.25191-0.37081-0.37253-0.55747-0.59869-0.93142 1.2231-1.9414 1.8407-2.9187 3.0782-4.8721 0.40143 0.62535 0.62256 0.93771 1.0956 1.5574 0.22616 0.29728 0.38447 0.61278 0.46551 0.95028 0.080411 0.3375 0.091091 0.67249 0.027641 1.0062-0.064078 0.33373-0.19223 0.65112-0.38447 0.95154-0.22867 0.35635-0.48624 0.58575-0.77082 0.68694-0.28458 0.10307-0.5723 0.057193-0.85562-0.13575-0.21234 1.1281-0.31473 1.6919-0.51513 2.8238-0.3317-0.39846-0.49189-0.59895-0.79846-1.0037" fill="#2700C3"/>
<path d="m595.26 164.06c0.43786 0.46446 0.66465 0.69385 1.1289 1.1451-0.23746 0.3683-0.35682 0.55307-0.59492 0.92326-0.80914-0.79127-1.198-1.1998-1.9198-2.0325 1.264-1.9829 1.8953-2.9659 3.1555-4.9186 0.31725 0.3551 0.48121 0.53108 0.81479 0.87989-1.0309 1.5876-1.5485 2.3876-2.5845 4.0029" fill="#2700C3"/>
<path d="m600.31 162.43c-1.2772 1.932-1.9192 2.9124-3.2177 4.9179-0.36374-0.3243-0.5434-0.4896-0.89646-0.82458 1.291-2.0017 1.9305-2.9834 3.2045-4.9223 0.35871 0.33561 0.54089 0.50154 0.90965 0.82898" fill="#2700C3"/>
<path d="m601.23 170.61c-0.38761-0.27025-0.58172-0.40852-0.96745-0.69385 0.16334-1.7101 0.23998-2.5617 0.39515-4.2725-0.79155 1.1966-1.1905 1.8025-1.9939 3.0369-0.37818-0.30608-0.56539-0.46257-0.93604-0.77996 1.3035-2.008 1.9468-2.9866 3.2259-4.9129 0.37441 0.32116 0.56414 0.47954 0.94483 0.79064-0.1558 1.7076-0.23118 2.5542-0.39075 4.2492 0.80662-1.2168 1.2049-1.8126 1.9983-2.9885 0.38635 0.29162 0.5811 0.43429 0.96808 0.71334-1.2778 1.8842-1.923 2.8483-3.2441 4.8576" fill="#2700C3"/>
<path d="m632.41 150.66c1.2596 0.86795 3.518 2.5171 5.4051 4.4007" stroke="#2700C3" stroke-linecap="round" stroke-linejoin="round" stroke-width=".5"/>
<path d="m620.48 113.98s4.9679 2.4027 5.625 6.3308c0 0-2.484-3.0312-3.7404-3.1651-1.2564-0.1345 3.2403 2.0652 3.7404 6.1504" stroke="#2700C3" stroke-linecap="round" stroke-linejoin="round" stroke-width=".5"/>
<path d="m644.66 103.5s-0.62821 0.94274 0 2.1997c0.62821 1.257 4.0834 4.3994 4.8686 8.8774 0.78526 4.478 4.8686 5.1763 4.8686 5.1763" stroke="#2700C3" stroke-linecap="round" stroke-linejoin="round" stroke-width=".5"/>
<path d="m646.01 109.78s1.7929 0.78561 2.5782 4.7922" stroke="#2700C3" stroke-linecap="round" stroke-linejoin="round" stroke-width=".5"/>
<path d="m649.39 109.78l15.06-6.2849" stroke="#2700C3" stroke-linecap="round" stroke-linejoin="round" stroke-width=".5"/>
<path d="m656.92 108.11l12.527-5.5527" stroke="#2700C3" stroke-linecap="round" stroke-linejoin="round" stroke-width=".5"/>
<path d="m646.2 105.38s5.3687-1.8855 7.4644 2.8666" stroke="#2700C3" stroke-linecap="round" stroke-linejoin="round" stroke-width=".5"/>
<path d="m655.13 110.27s1.4681 3.079-0.73061 8.0529" stroke="#2700C3" stroke-linecap="round" stroke-linejoin="round" stroke-width=".5"/>
<path d="m584.83 68.461s-3.6706 4.6094-13.012 4.5566c0 0 10.028 0 11.756-1.5712" stroke="#2700C3" stroke-linecap="round" stroke-linejoin="round" stroke-width=".5"/>
<path d="m577.26 31.851s-4.5256-1.0999-9.2372 0" stroke="#2700C3" stroke-linecap="round" stroke-linejoin="round" stroke-width=".5"/>
<path d="m593.63 106.64s5.865-4.6439 3.3188-0.27905c-2.5461 4.3642-5.1382 5.2636-5.1382 5.2636" stroke="#2700C3" stroke-linecap="round" stroke-linejoin="round" stroke-width=".5"/>
<path d="m594.7 116.54s4.2084-10.385 3.1373-11.939" stroke="#2700C3" stroke-linecap="round" stroke-linejoin="round" stroke-width=".5"/>
<path d="m594.04 253.63s0.68098 2.7459 8.6907 4.3171" stroke="#2700C3" stroke-linecap="round" stroke-linejoin="round" stroke-width=".5"/>
<path d="m666.02 238.15s-1.4135 1.8075-1.4135 7.3458" stroke="#2700C3" stroke-linecap="round" stroke-linejoin="round" stroke-width=".5"/>
<path d="m673.74 244.75s-0.81039 0.94274-2.0668 9.5845c-1.2564 8.6418 0 3.6138 0 3.6138" stroke="#2700C3" stroke-linecap="round" stroke-linejoin="round" stroke-width=".5"/>
<path d="m630.06 236.9s-1.4135 0.42046 0 21.054" stroke="#2700C3" stroke-linecap="round" stroke-linejoin="round" stroke-width=".5"/>
<path d="m642.78 236.9s2.1987 2.7534 0 18.896" stroke="#2700C3" stroke-linecap="round" stroke-linejoin="round" stroke-width=".5"/>
<path d="m678.59 263.27s0.91782 2.0646-7.4757 2.3788c0 0-2.5832-0.78562-2.2691 10.999" stroke="#2700C3" stroke-linecap="round" stroke-linejoin="round" stroke-width=".5"/>
<path d="m657.89 149.59c2.0555-0.33247 3.9942-1.1545 5.7588-2.2469" stroke="#2700C3" stroke-linecap="round" stroke-linejoin="round" stroke-width=".5"/>
<path d="m645.65 144.16c1.7565 2.7691 4.4107 4.5811 7.5976 5.2888" stroke="#2700C3" stroke-linecap="round" stroke-linejoin="round" stroke-width=".5"/>
<path d="m655.01 141.4s1.0698 2.7892-0.6056 18.03" stroke="#2700C3" stroke-linecap="round" stroke-linejoin="round" stroke-width=".5"/>
<path d="m656.92 141.74s0.75386 2.8251-0.56916 20.92" stroke="#2700C3" stroke-linecap="round" stroke-linejoin="round" stroke-width=".5"/>
<path d="m646.2 142.36s2.9589-2.8848 7.0429-2.4656c4.0846 0.4192 8.8804 1.2878 9.9377 3.6817" stroke="#2700C3" stroke-linecap="round" stroke-linejoin="round" stroke-width=".5"/>
<path d="m582.6 33.265s-2.0913-1.4487-6.6892-1.6586" stroke="#2700C3" stroke-linecap="round" stroke-linejoin="round" stroke-width=".5"/>
<path d="m687.82 130.05s3.3528-0.008798 4.0834 4.7137" stroke="#2700C3" stroke-linecap="round" stroke-linejoin="round" stroke-width=".5"/>
<path d="m698.71 94.215s2.641 0.46697 3.9791 2.7541" stroke="#2700C3" stroke-linecap="round" stroke-linejoin="round" stroke-width=".5"/>
<path d="m706.25 66.785h2.3037s1.9657-0.4192 3.2221 1.6762" stroke="#2700C3" stroke-linecap="round" stroke-linejoin="round" stroke-width=".5"/>
<path d="m627.67 241.02s7.0322 0.21809 4.3975 0.60838c-2.6354 0.39029-7.6724 2.5969-4.3975 2.2029 3.2749-0.39406 4.3987 0.078562 4.988 0" stroke="#2700C3" stroke-linecap="round" stroke-linejoin="round" stroke-width=".5"/>
<path d="m646.2 241.02s-9.3943 0.06662-1.2275 1.4286c0 0 3.4903-0.38966-1.7106 1.4292" stroke="#2700C3" stroke-linecap="round" stroke-linejoin="round" stroke-width=".5"/>
<path d="m653.27 262.25s5.5258-1.257 5.9448-4.2945c0.41839-3.0375 4.0834-8.3193 5.3919-4.3171 0 0 0.10491 2.3267 0.70674 4.3171 0.60183 1.9904 5.8801 3.2474 7.1151 4.2945 1.2351 1.0477 4.1299-1.147 2.8288 1.0257-1.301 2.1733-4.1418 2.3788-4.1418 2.3788" stroke="#2700C3" stroke-linecap="round" stroke-linejoin="round" stroke-width=".5"/>
<path d="m653.27 259.4h-6.4103s-2.0316 1.3745 0.76391 3.0507c2.7962 1.6756 9.0783 3.6716 9.9157 6.6538 0.83741 2.9828 2.0938 5.6024 1.2564 7.5394-0.83741 1.9364 1.6754 6.9656 1.8846 8.4325 0.20919 1.4663 2.0511 7.7066 3.7479 4.6911 1.6968-3.0155 3.5814-1.13 3.3716 2.0124-0.20919 3.1425-0.26196 5.4471 1.0208 8.5896 1.2828 3.1425 2.1629 6.0756 3.6078 0 0 0-0.075386-1.6762 1.3123-2.9332 1.3884-1.257 1.0849-1.6756-0.020102-6.4942-1.1044-4.8186-4.9434-11.797-2.6052-22.658" stroke="#2700C3" stroke-linecap="round" stroke-linejoin="round" stroke-width=".5"/>
<path d="m676.08 126.2s-3.2893-0.88366-6.0491 0.90251" stroke="#2700C3" stroke-linecap="round" stroke-linejoin="round" stroke-width=".5"/>
<path d="m670.04 144.77s-2.1648-0.3419-3.246 0.87737" stroke="#2700C3" stroke-linecap="round" stroke-linejoin="round" stroke-width=".5"/>
<path d="m606.35 160.16s3.8911 10.745-2.7679 13.888c-6.6597 3.1425-4.0752 18.541-4.0752 18.541s10.931 36.767 6.8431 45.566" stroke="#2700C3" stroke-linecap="round" stroke-linejoin="round" stroke-width=".5"/>
<path d="m637.82 169.65s-5.9957-1.5712-6.1716 4.0852c-0.1759 5.6564 7.3049 23.647 8.4331 25.965 1.1283 2.3172 4.4521 4.8312 5.931 2.6315 1.4794-2.1997 3.6122-11.295 1.2897-16.017-2.3231-4.7231-4.1387-13.208-7.3143-13.836-3.1756-0.62849-3.1097-2.514-4.8705-0.62849l-1.7603 1.8855" stroke="#2700C3" stroke-linecap="round" stroke-linejoin="round" stroke-width=".5"/>
<path d="m674.67 226.53s-1.4015 0.62849 0-5.1851c1.4015-5.8135 3.2862-8.956 2.1868-17.441s-3.8522-22.154 1.7646-20.426c0 0 1.3764 0.48645 3.7322-0.14895 2.3558-0.63666 3.4552-0.16529 3.7693 1.5631s-2.0266 37.552-7.531 30.639c0 0-1.1069-0.62849-1.264 1.8855-0.15705 2.514-2.3319 6.1278-2.658 10.841" stroke="#2700C3" stroke-linecap="round" stroke-linejoin="round" stroke-width=".5"/>
<path d="m679.53 236.9s-2.0285 7.0624-0.93478 12.256c1.0931 5.1932-0.94986 14.119-0.94986 14.119" stroke="#2700C3" stroke-linecap="round" stroke-linejoin="round" stroke-width=".5"/>
<path d="m619.78 229.91s-1.1867 5.1046-6.2124 8.2471c-5.0257 3.1425-3.6122 3.6729-3.6122 3.6729" stroke="#2700C3" stroke-linecap="round" stroke-linejoin="round" stroke-width=".5"/>
<path d="m614.78 238.15s-1.5228 0.23128-1.8369 2.8653c-0.31411 2.634-1.4135 8.1333 4.0834 13.947s5.968 6.3987 3.2981 8.3055c-2.6699 1.9075-10.039 6.7783-10.366 16.991-0.32541 10.213-0.15705 32.524-2.6699 41.638" stroke="#2700C3" stroke-linecap="round" stroke-linejoin="round" stroke-width=".5"/>
<path d="m630.06 239.66s-0.31411 4.8865 0.94232 21.907" stroke="#2700C3" stroke-linecap="round" stroke-linejoin="round" stroke-width=".5"/>
<path d="m644.41 238.16s1.2577 0.67563-1.1396 26.215" stroke="#2700C3" stroke-linecap="round" stroke-linejoin="round" stroke-width=".5"/>
<path d="m632.07 166.8s-2.7076 2.2205-2.4387 5.3629-3.8396 4.5566-5.0056 7.5419c-1.1647 2.9853-1.6648 5.6564-1.3368 7.5419" stroke="#2700C3" stroke-linecap="round" stroke-linejoin="round" stroke-width=".5"/>
<path d="m576.55 116.54s1.8118 1.3601 5.5258-1.0999c3.7134-2.4599 9.824-2.9853 7.2301 1.0999-2.5945 4.0852-9.5105 13.041-7.2301 21.369 2.2798 8.3275 3.7724 10.144 10.408 7.9787" stroke="#2700C3" stroke-linecap="round" stroke-linejoin="round" stroke-width=".5"/>
<path d="m572.64 74.431s2.1064-2.514 0 16.184c0 0-0.064078 5.0279 2.6058 7.0705" stroke="#2700C3" stroke-linecap="round" stroke-linejoin="round" stroke-width=".5"/>
<path d="m579.25 100.51s9.9119 1.1558 11.197-1.465" stroke="#2700C3" stroke-linecap="round" stroke-linejoin="round" stroke-width=".5"/>
<path d="m590.45 97.685s5.02-3.4027 4.2524-1.4656" stroke="#2700C3" stroke-linecap="round" stroke-linejoin="round" stroke-width=".5"/>
<path d="m575.25 2.7331s-1.328-1.8679-6.154 2.25c-4.8259 4.1172-6.2702 4.0852-4.1418 6.9134 2.129 2.8282-11.063 3.1425 3.0713 5.4993 0 0 0.78527 0-1.8846 1.5712-2.6699 1.5712 0 1.4141 0 1.4141s1.5906 5.7262 0.40331 12.054c-1.1886 6.3289 0 2.4008 0 2.4008s2.7378-2.7754 1.4813 1.2048-1.0994 7.2798 0 11.365c1.0994 4.0852 1.6698 8.4846 1.0705 14.612-0.59931 6.1278 3.0129 4.2429 2.0706 10.999" stroke="#2700C3" stroke-linecap="round" stroke-linejoin="round" stroke-width=".5"/>
<path d="m610.68 95.592s3.0292-4.6106 4.2134-2.2016c1.1842 2.409 0.87007 7.3766 0.87007 7.3766s-0.78526 2.9897 2.6699 3.7251c3.4552 0.73471 2.0662 2.986 2.0662 2.986" stroke="#2700C3" stroke-linecap="round" stroke-linejoin="round" stroke-width=".5"/>
<path d="m568.32 126.54s1.9016-0.82207 1.5875 0.56061c-0.31411 1.3827-1.6045 2.0809-1.5875 1.1036" stroke="#2700C3" stroke-linecap="round" stroke-linejoin="round" stroke-width=".5"/>
<path d="m569.13 123.3s-0.9329 0.62849 0 0.94274c0.93352 0.31425 0.81165-0.94274 0.81165-0.94274" stroke="#2700C3" stroke-linecap="round" stroke-linejoin="round" stroke-width=".5"/>
<path d="m620.72 76.18s-1.0479 0.40915-0.20542 0.92011c0.84243 0.51034 0.9976-0.74288 0.9976-0.74288" stroke="#2700C3" stroke-linecap="round" stroke-linejoin="round" stroke-width=".5"/>
<path d="m617.78 79.564s-3.5381 2.7233 0 2.9332c3.5381 0.20929 3.001-2.9332 3.001-2.9332s-1.9047-1.0672-3.001 0z" stroke="#2700C3" stroke-linecap="round" stroke-linejoin="round" stroke-width=".5"/>
<path d="m643.69 90.458s5.7287-6.2849 6.6471-1.6762c0 0-3.4011 3.1425-0.40394 4.6094l2.9985 1.4663s2.0938 0.0031424 0 4.1914" stroke="#2700C3" stroke-linecap="round" stroke-linejoin="round" stroke-width=".5"/>
<path d="m653.25 84.382s-0.4052 1.8333 2.3633 1.5448c2.7679-0.28785 1.1528-3.221-0.60497-2.3826" stroke="#2700C3" stroke-linecap="round" stroke-linejoin="round" stroke-width=".5"/>
<path d="m564.84 1.0953s-1.0786-1.5373-2.7352 0.70014c-1.6566 2.2368 1.5969 3.0256 2.1661 1.1627" stroke="#2700C3" stroke-linecap="round" stroke-linejoin="round" stroke-width=".5"/>
<path d="m677.02 102.5s6.4838-5.3453 4.1808 1.9885c-2.3037 7.3339-1.1038 12.99-1.1038 12.99s0.41839 1.7503 1.5982 1.399c1.1804-0.35133-2.337 7.7688-2.337 7.7688h-1.0893" stroke="#2700C3" stroke-linecap="round" stroke-linejoin="round" stroke-width=".5"/>
<path d="m710.86 39.76s2.8031-3.3517 2.1749 0c-0.62821 3.3517-1.0466 3.6277-2.9312 4.8513-1.8846 1.2243-2.3847 4.9953-1.0881 5.833 1.2973 0.83778-3.7284 7.8096-3.7284 7.8096s-2.3037 6.5772-1.2564 8.4966c1.0472 1.92-5.3166 12.34-5.3166 12.34s-5.167 5.8959-3.9785 8.0032 1.8036 3.5742 0 6.2975c-1.8036 2.7239 2.0769 4.6125-0.17716 5.6583-2.2547 1.0458-9.3271 3.2455-6.7332 3.5076 2.5939 0.26145 2.102 1.729 1.4053 2.776-0.69606 1.0471 0 2.1463 0 2.1463s-4.9409 9.0308-7.5304 11.403" stroke="#2700C3" stroke-linecap="round" stroke-linejoin="round" stroke-width=".5"/>
<path d="m698.71 99.049s2.5945 0.086732 3.0129 1.7183" stroke="#2700C3" stroke-linecap="round" stroke-linejoin="round" stroke-width=".5"/>
<path d="m592.78 245.5s-0.97876 4.5503 2.3564 8.1339c3.3346 3.5849 6.8475 3.1657 6.8475 3.1657" stroke="#2700C3" stroke-linecap="round" stroke-linejoin="round" stroke-width=".5"/>
<path d="m661.58 84.676s12.471 5.5716 6.8343 4.1053c-5.6363-1.4663-9.9528-1.6888-9.9528-1.6888s7.7126 1.2048 9.9528 3.3649" stroke="#2700C3" stroke-linecap="round" stroke-linejoin="round" stroke-width=".5"/>
<path d="m715.34 39.34s-2.3037-0.20929 0 1.6762c2.3037 1.8855 5.3926 2.9627 4.6073 1.4644-0.78464-1.4983-4.4333-4.6967-5.6313-4.2115" stroke="#2700C3" stroke-linecap="round" stroke-linejoin="round" stroke-width=".5"/>
<path d="m711.78 75.374s2.6963-1.7862 1.3481 3.7156c-1.3481 5.5024-3.442 11.368-3.442 11.368s-1.0472-3.1223 0-7.951c1.0472-4.8281 1.2615-8.1082 3.442-8.1886" stroke="#2700C3" stroke-linecap="round" stroke-linejoin="round" stroke-width=".5"/>
<path d="m268.07 244.41h36.645" stroke="#2700C3" stroke-linecap="round" stroke-linejoin="round" stroke-width=".5"/>
<path d="m271.56 247.77h13.067" stroke="#2700C3" stroke-linecap="round" stroke-linejoin="round" stroke-width=".5"/>
<path d="m295.87 277.49h5.3555" stroke="#2700C3" stroke-linecap="round" stroke-linejoin="round" stroke-width=".5"/>
<path d="m269.59 277.49c6.8255 0.25454 13.094 0.25454 20.184 0" stroke="#2700C3" stroke-linecap="round" stroke-linejoin="round" stroke-width=".5"/>
<polyline points="278.06 242.23 294.73 242.23 281.8 241.09 294.73 241.09" stroke="#2700C3" stroke-linecap="round" stroke-linejoin="round" stroke-width=".5"/>
<path d="m283.34 295.53c8.8678-0.18729 16.891-0.18729 25.371 0" stroke="#2700C3" stroke-linecap="round" stroke-linejoin="round" stroke-width=".5"/>
<path d="m269.59 295.53h7.8212" stroke="#2700C3" stroke-linecap="round" stroke-linejoin="round" stroke-width=".5"/>
<polyline points="294.73 298.2 264.07 298.2 278.66 298.2 264.07 298.2" stroke="#2700C3" stroke-linecap="round" stroke-linejoin="round" stroke-width=".5"/>
<path d="m263.8 309.7h39.403" stroke="#2700C3" stroke-linecap="round" stroke-linejoin="round" stroke-width=".5"/>
<path d="m214.85 312.93l86.377-0.61718" stroke="#2700C3" stroke-linecap="round" stroke-linejoin="round" stroke-width=".5"/>
<path d="m216.95 315.55h21.355" stroke="#2700C3" stroke-linecap="round" stroke-linejoin="round" stroke-width=".5"/>
<path d="m357.94 312.93h-22.425" stroke="#2700C3" stroke-linecap="round" stroke-linejoin="round" stroke-width=".5"/>
<path d="m347.14 315.55h9.8435" stroke="#2700C3" stroke-linecap="round" stroke-linejoin="round" stroke-width=".5"/>
<path d="m333.95 349.24l23.995-0.052165" stroke="#2700C3" stroke-linecap="round" stroke-linejoin="round" stroke-width=".5"/>
<path d="m864.92 182.9h10.728" stroke="#2700C3" stroke-linecap="round" stroke-linejoin="round" stroke-width=".5"/>
<path d="m864.46 192.44h7.2244" stroke="#2700C3" stroke-linecap="round" stroke-linejoin="round" stroke-width=".53147"/>
<path d="m865.46 223.69h6.2243" stroke="#2700C3" stroke-linecap="round" stroke-linejoin="round" stroke-width=".51765"/>
<path d="m865.46 219.74h4.8228" stroke="#2700C3" stroke-linecap="round" stroke-linejoin="round" stroke-width=".54026"/>
<path d="m867.61 223.69l-2.5128 121.62" stroke="#2700C3" stroke-linecap="round" stroke-linejoin="round" stroke-width=".5"/>
<path d="m947.35 272.03h49.447" stroke="#2700C3" stroke-linecap="round" stroke-linejoin="round" stroke-width=".5"/>
<path d="m948.4 273.31h14.345" stroke="#2700C3" stroke-linecap="round" stroke-linejoin="round" stroke-width=".5"/>
<path d="m949.62 277.27h6.9417" stroke="#2700C3" stroke-linecap="round" stroke-linejoin="round" stroke-width=".5"/>
<path d="m946.76 283.65h41.426" stroke="#2700C3" stroke-linecap="round" stroke-linejoin="round" stroke-width=".5"/>
<path d="m948.07 287.88h12.684" stroke="#2700C3" stroke-linecap="round" stroke-linejoin="round" stroke-width=".5"/>
<path d="m996.79 287.88h-3.2698" stroke="#2700C3" stroke-linecap="round" stroke-linejoin="round" stroke-width=".5"/>
<path d="m995.24 277.27h-3.2849" stroke="#2700C3" stroke-linecap="round" stroke-linejoin="round" stroke-width=".5"/>
<path d="m998.1 283.65h-3.9508" stroke="#2700C3" stroke-linecap="round" stroke-linejoin="round" stroke-width=".5"/>
<path d="m948.86 288.54h7.7" stroke="#2700C3" stroke-linecap="round" stroke-linejoin="round" stroke-width=".5"/>
<path d="m948.86 289.27h2.5694" stroke="#2700C3" stroke-linecap="round" stroke-linejoin="round" stroke-width=".5"/>
<path d="m969.1 241.39h3.3302" stroke="#2700C3" stroke-linecap="round" stroke-linejoin="round" stroke-width=".5"/>
<path d="m971.64 242.13h-2.5405" stroke="#2700C3" stroke-linecap="round" stroke-linejoin="round" stroke-width=".5"/>
<path d="m970.37 242.76h-1.2696" stroke="#2700C3" stroke-linecap="round" stroke-linejoin="round" stroke-width=".5"/>
<path d="m1010.1 272.94l23.016 0.3683" stroke="#2700C3" stroke-linecap="round" stroke-linejoin="round" stroke-width=".5"/>
<path d="m1008.4 276.59h15.719" stroke="#2700C3" stroke-linecap="round" stroke-linejoin="round" stroke-width=".5"/>
<path d="m1008.4 277.9h6.4002" stroke="#2700C3" stroke-linecap="round" stroke-linejoin="round" stroke-width=".5"/>
<path d="m1008.9 279.04h1.9877" stroke="#2700C3" stroke-linecap="round" stroke-linejoin="round" stroke-width=".5"/>
<path d="m1039.1 279.04h-9.758" stroke="#2700C3" stroke-linecap="round" stroke-linejoin="round" stroke-width=".5"/>
<path d="m1039.6 276.59h-6.5278" stroke="#2700C3" stroke-linecap="round" stroke-linejoin="round" stroke-width=".5"/>
<path d="m1039.6 277.9h-2.6536" stroke="#2700C3" stroke-linecap="round" stroke-linejoin="round" stroke-width=".5"/>
<path d="m1007.9 297.6h18.763" stroke="#2700C3" stroke-linecap="round" stroke-linejoin="round" stroke-width=".5"/>
<path d="m1007.2 299.02h11.889" stroke="#2700C3" stroke-linecap="round" stroke-linejoin="round" stroke-width=".5"/>
<path d="m1007.2 299.82h5.9442" stroke="#2700C3" stroke-linecap="round" stroke-linejoin="round" stroke-width=".5"/>
<path d="m1007.9 301.19h20.334" stroke="#2700C3" stroke-linecap="round" stroke-linejoin="round" stroke-width=".5"/>
<path d="m1040.8 299.82h-7.7232" stroke="#2700C3" stroke-linecap="round" stroke-linejoin="round" stroke-width=".5"/>
<path d="m1043.9 309.64h-25.823" stroke="#2700C3" stroke-linecap="round" stroke-linejoin="round" stroke-width=".5"/>
<path d="m1041.5 314h-12.175" stroke="#2700C3" stroke-linecap="round" stroke-linejoin="round" stroke-width=".5"/>
<path d="m1040 320.66h-15.943" stroke="#2700C3" stroke-linecap="round" stroke-linejoin="round" stroke-width=".5"/>
<path d="m1042.1 332.28h-12.04" stroke="#2700C3" stroke-linecap="round" stroke-linejoin="round" stroke-width=".5"/>
<path d="m1040 318.44h-3.6757" stroke="#2700C3" stroke-linecap="round" stroke-linejoin="round" stroke-width=".5"/>
<path d="m1042.7 346.18h-7.2967" stroke="#2700C3" stroke-linecap="round" stroke-linejoin="round" stroke-width=".5"/>
<path d="m1042.7 348h-3.6487" stroke="#2700C3" stroke-linecap="round" stroke-linejoin="round" stroke-width=".5"/>
<path d="m900.92 308.7h22.79" stroke="#2700C3" stroke-linecap="round" stroke-linejoin="round" stroke-width=".5"/>
<path d="m900.92 309.64h9.993" stroke="#2700C3" stroke-linecap="round" stroke-linejoin="round" stroke-width=".5"/>
<path d="m901.56 310.58h5.5842" stroke="#2700C3" stroke-linecap="round" stroke-linejoin="round" stroke-width=".5"/>
<path d="m903.35 314h17.716" stroke="#2700C3" stroke-linecap="round" stroke-linejoin="round" stroke-width=".5"/>
<path d="m904.82 318.44h24.939" stroke="#2700C3" stroke-linecap="round" stroke-linejoin="round" stroke-width=".5"/>
<path d="m904.8 297.6h18.906" stroke="#2700C3" stroke-linecap="round" stroke-linejoin="round" stroke-width=".5"/>
<path d="m904.04 299.02h9.0752" stroke="#2700C3" stroke-linecap="round" stroke-linejoin="round" stroke-width=".5"/>
<path d="m904.04 299.82h18.289" stroke="#2700C3" stroke-linecap="round" stroke-linejoin="round" stroke-width=".5"/>
<path d="m904.8 301.19h11.553" stroke="#2700C3" stroke-linecap="round" stroke-linejoin="round" stroke-width=".5"/>
<path d="m932.38 297.6h4.5326" stroke="#2700C3" stroke-linecap="round" stroke-linejoin="round" stroke-width=".5"/>
<path d="m905.77 279.04h17.94" stroke="#2700C3" stroke-linecap="round" stroke-linejoin="round" stroke-width=".5"/>
<path d="m905.23 277.9h17.618" stroke="#2700C3" stroke-linecap="round" stroke-linejoin="round" stroke-width=".5"/>
<path d="m906.94 272.94h12.664" stroke="#2700C3" stroke-linecap="round" stroke-linejoin="round" stroke-width=".5"/>
<path d="m905.23 276.59h11.65" stroke="#2700C3" stroke-linecap="round" stroke-linejoin="round" stroke-width=".5"/>
<path d="m904.82 320.66h14.365" stroke="#2700C3" stroke-linecap="round" stroke-linejoin="round" stroke-width=".5"/>
<path d="m902.75 332.28h16.952" stroke="#2700C3" stroke-linecap="round" stroke-linejoin="round" stroke-width=".5"/>
<path d="m902.14 346.18h9.0877" stroke="#2700C3" stroke-linecap="round" stroke-linejoin="round" stroke-width=".5"/>
<path d="m902.14 348h18.926" stroke="#2700C3" stroke-linecap="round" stroke-linejoin="round" stroke-width=".5"/>
<path d="m214.85 349.19h29.574" stroke="#2700C3" stroke-linecap="round" stroke-linejoin="round" stroke-width=".5"/>
<path d="m263.8 308.22h7.7603" stroke="#2700C3" stroke-linecap="round" stroke-linejoin="round" stroke-width=".5"/>
<path d="m308.99 308.22h-6.9769" stroke="#2700C3" stroke-linecap="round" stroke-linejoin="round" stroke-width=".5"/>
<path d="m266.93 302.28h28.945" stroke="#2700C3" stroke-linecap="round" stroke-linejoin="round" stroke-width=".5"/>
<path d="m266.92 303.1h8.9168" stroke="#2700C3" stroke-linecap="round" stroke-linejoin="round" stroke-width=".5"/>
<path d="m691.8 273.92h53.561" stroke="#2700C3" stroke-linecap="round" stroke-linejoin="round" stroke-width=".5"/>
<path d="m694.62 275.59h26.851" stroke="#2700C3" stroke-linecap="round" stroke-linejoin="round" stroke-width=".5"/>
<path d="m695.5 279.06h33.151" stroke="#2700C3" stroke-linecap="round" stroke-linejoin="round" stroke-width=".5"/>
<path d="m690.24 284.05h28.337" stroke="#2700C3" stroke-linecap="round" stroke-linejoin="round" stroke-width=".5"/>
<path d="m690.24 284.83h16.985" stroke="#2700C3" stroke-linecap="round" stroke-linejoin="round" stroke-width=".5"/>
<path d="m693.07 286.5h21.131" stroke="#2700C3" stroke-linecap="round" stroke-linejoin="round" stroke-width=".5"/>
<path d="m693.94 289.97h23.535" stroke="#2700C3" stroke-linecap="round" stroke-linejoin="round" stroke-width=".5"/>
<path d="m695.01 302.26h33.234" stroke="#2700C3" stroke-linecap="round" stroke-linejoin="round" stroke-width=".5"/>
<path d="m695.01 303.08h7.5046" stroke="#2700C3" stroke-linecap="round" stroke-linejoin="round" stroke-width=".5"/>
<path d="m696.28 306.08h5.3084" stroke="#2700C3" stroke-linecap="round" stroke-linejoin="round" stroke-width=".5"/>
<path d="m718.37 303.08h6.1848" stroke="#2700C3" stroke-linecap="round" stroke-linejoin="round" stroke-width=".5"/>
<path d="m719.64 306.08h4.9107" stroke="#2700C3" stroke-linecap="round" stroke-linejoin="round" stroke-width=".5"/>
<path d="m741.73 302.32h8.8616" stroke="#2700C3" stroke-linecap="round" stroke-linejoin="round" stroke-width=".5"/>
<path d="m741.73 303.08h4.9666" stroke="#2700C3" stroke-linecap="round" stroke-linejoin="round" stroke-width=".5"/>
<path d="m743 306.08h4.6148" stroke="#2700C3" stroke-linecap="round" stroke-linejoin="round" stroke-width=".5"/>
<path d="m780.98 302.32h7.3312" stroke="#2700C3" stroke-linecap="round" stroke-linejoin="round" stroke-width=".5"/>
<path d="m780.98 303.08h9.3817" stroke="#2700C3" stroke-linecap="round" stroke-linejoin="round" stroke-width=".5"/>
<path d="m782.25 306.08h6.9794" stroke="#2700C3" stroke-linecap="round" stroke-linejoin="round" stroke-width=".5"/>
<path d="m804.34 302.32h9.5985" stroke="#2700C3" stroke-linecap="round" stroke-linejoin="round" stroke-width=".5"/>
<path d="m804.34 303.08h4.7995" stroke="#2700C3" stroke-linecap="round" stroke-linejoin="round" stroke-width=".5"/>
<path d="m805.61 306.08h5.5565" stroke="#2700C3" stroke-linecap="round" stroke-linejoin="round" stroke-width=".5"/>
<path d="m827.7 302.32h9.0971" stroke="#2700C3" stroke-linecap="round" stroke-linejoin="round" stroke-width=".5"/>
<path d="m827.7 303.08h7.7647" stroke="#2700C3" stroke-linecap="round" stroke-linejoin="round" stroke-width=".5"/>
<path d="m828.97 306.08h4.9535" stroke="#2700C3" stroke-linecap="round" stroke-linejoin="round" stroke-width=".5"/>
<path d="m784.64 356.34h7.9023" stroke="#2700C3" stroke-linecap="round" stroke-linejoin="round" stroke-width=".5"/>
<path d="m811.17 356.34h4.7374" stroke="#2700C3" stroke-linecap="round" stroke-linejoin="round" stroke-width=".5"/>
<path d="m835.46 356.34h3.8032" stroke="#2700C3" stroke-linecap="round" stroke-linejoin="round" stroke-width=".5"/>
<path d="m747.61 356.34h5.679" stroke="#2700C3" stroke-linecap="round" stroke-linejoin="round" stroke-width=".5"/>
<path d="m726.09 356.34h3.8459" stroke="#2700C3" stroke-linecap="round" stroke-linejoin="round" stroke-width=".5"/>
<path d="m701.59 356.34h4.9855" stroke="#2700C3" stroke-linecap="round" stroke-linejoin="round" stroke-width=".5"/>
<path d="m843.83 273.92h-22.822" stroke="#2700C3" stroke-linecap="round" stroke-linejoin="round" stroke-width=".5"/>
<path d="m841.01 275.59h-6.6697" stroke="#2700C3" stroke-linecap="round" stroke-linejoin="round" stroke-width=".5"/>
<path d="m840.13 279.06h-12.432" stroke="#2700C3" stroke-linecap="round" stroke-linejoin="round" stroke-width=".5"/>
<path d="m845.39 284.05h-23.251" stroke="#2700C3" stroke-linecap="round" stroke-linejoin="round" stroke-width=".5"/>
<path d="m845.39 284.83h-10.335" stroke="#2700C3" stroke-linecap="round" stroke-linejoin="round" stroke-width=".5"/>
<path d="m842.56 286.5h-8.6379" stroke="#2700C3" stroke-linecap="round" stroke-linejoin="round" stroke-width=".5"/>
<path d="m841.69 289.97h-16.27" stroke="#2700C3" stroke-linecap="round" stroke-linejoin="round" stroke-width=".5"/>
<path d="m372.53 354.29h33.942" stroke="#2700C3" stroke-linecap="round" stroke-linejoin="round" stroke-width=".5"/>
<path d="m373.62 353.56h17.182" stroke="#2700C3" stroke-linecap="round" stroke-linejoin="round" stroke-width=".5"/>
<path d="m373.62 345.45h22.274" stroke="#2700C3" stroke-linecap="round" stroke-linejoin="round" stroke-width=".5"/>
<path d="m372.8 344.17h12.937" stroke="#2700C3" stroke-linecap="round" stroke-linejoin="round" stroke-width=".5"/>
<path d="m426.44 344.17h-22.482" stroke="#2700C3" stroke-linecap="round" stroke-linejoin="round" stroke-width=".5"/>
<path d="m425.62 345.45h-9.9364" stroke="#2700C3" stroke-linecap="round" stroke-linejoin="round" stroke-width=".5"/>
<path d="m425.62 353.56h-5.6432" stroke="#2700C3" stroke-linecap="round" stroke-linejoin="round" stroke-width=".5"/>
<path d="m426.71 354.29h-9.1455" stroke="#2700C3" stroke-linecap="round" stroke-linejoin="round" stroke-width=".5"/>
<path d="m380.65 339.44h17.864" stroke="#2700C3" stroke-linecap="round" stroke-linejoin="round" stroke-width=".5"/>
<path d="m380.65 342.17h24.147" stroke="#2700C3" stroke-linecap="round" stroke-linejoin="round" stroke-width=".5"/>
<path d="m418.59 339.44h-8.0399" stroke="#2700C3" stroke-linecap="round" stroke-linejoin="round" stroke-width=".5"/>
<path d="m381.5 337.16h12.511" stroke="#2700C3" stroke-linecap="round" stroke-linejoin="round" stroke-width=".5"/>
<path d="m380.98 316.9h16.378" stroke="#2700C3" stroke-linecap="round" stroke-linejoin="round" stroke-width=".5"/>
<path d="m380.98 315.08h9.8196" stroke="#2700C3" stroke-linecap="round" stroke-linejoin="round" stroke-width=".5"/>
<path d="m382.38 313.5h12.26" stroke="#2700C3" stroke-linecap="round" stroke-linejoin="round" stroke-width=".5"/>
<path d="m407.78 313.5h9.0758" stroke="#2700C3" stroke-linecap="round" stroke-linejoin="round" stroke-width=".5"/>
<path d="m418.26 315.08h-12.731" stroke="#2700C3" stroke-linecap="round" stroke-linejoin="round" stroke-width=".5"/>
<path d="m418.26 316.9h-12.731" stroke="#2700C3" stroke-linecap="round" stroke-linejoin="round" stroke-width=".5"/>
<path d="m383.96 318.85h18.114" stroke="#2700C3" stroke-linecap="round" stroke-linejoin="round" stroke-width=".5"/>
<path d="m387.35 310.71h11.156" stroke="#2700C3" stroke-linecap="round" stroke-linejoin="round" stroke-width=".5"/>
<path d="m389.3 306.73h5.3386" stroke="#2700C3" stroke-linecap="round" stroke-linejoin="round" stroke-width=".5"/>
<path d="m390.33 304.63h8.1806" stroke="#2700C3" stroke-linecap="round" stroke-linejoin="round" stroke-width=".5"/>
<path d="m409.94 306.73h-9.5444" stroke="#2700C3" stroke-linecap="round" stroke-linejoin="round" stroke-width=".5"/>
<path d="m411.88 310.71h-6.3563" stroke="#2700C3" stroke-linecap="round" stroke-linejoin="round" stroke-width=".5"/>
<path d="m391.91 231.69h8.6963" stroke="#2700C3" stroke-linecap="round" stroke-linejoin="round" stroke-width=".5"/>
<path d="m392.52 234.3h7.7748" stroke="#2700C3" stroke-linecap="round" stroke-linejoin="round" stroke-width=".5"/>
<path d="m391.91 223.3h7.2307" stroke="#2700C3" stroke-linecap="round" stroke-linejoin="round" stroke-width=".5"/>
<path d="m404.18 253.87l0.30091 50.279" stroke="#2700C3" stroke-linecap="round" stroke-linejoin="round" stroke-width=".5"/>
<path d="m404.06 234.3l0.093603 15.588" stroke="#2700C3" stroke-linecap="round" stroke-linejoin="round" stroke-width=".5"/>
<path d="m443.74 264.21h12.427" stroke="#2700C3" stroke-linecap="round" stroke-linejoin="round" stroke-width=".5"/>
<path d="m443.74 269.65h8.5531" stroke="#2700C3" stroke-linecap="round" stroke-linejoin="round" stroke-width=".5"/>
<path d="m459.73 264.21h5.8298" stroke="#2700C3" stroke-linecap="round" stroke-linejoin="round" stroke-width=".5"/>
<path d="m458.57 256.59l1.9983 7.6211" stroke="#2700C3" stroke-linecap="round" stroke-linejoin="round" stroke-width=".5"/>
<path d="m455.23 243.85l2.4632 9.3928" stroke="#2700C3" stroke-linecap="round" stroke-linejoin="round" stroke-width=".5"/>
<path d="m460.57 269.65h4.9924" stroke="#2700C3" stroke-linecap="round" stroke-linejoin="round" stroke-width=".5"/>
<path d="m438.16 290.09h26.599" stroke="#2700C3" stroke-linecap="round" stroke-linejoin="round" stroke-width=".5"/>
<path d="m439.05 291.5h10.905" stroke="#2700C3" stroke-linecap="round" stroke-linejoin="round" stroke-width=".5"/>
<path d="m439.8 298.19h17.526" stroke="#2700C3" stroke-linecap="round" stroke-linejoin="round" stroke-width=".5"/>
<path d="m440.93 300.65h13.671" stroke="#2700C3" stroke-linecap="round" stroke-linejoin="round" stroke-width=".5"/>
<path d="m442.55 304.29h7.4047" stroke="#2700C3" stroke-linecap="round" stroke-linejoin="round" stroke-width=".5"/>
<path d="m469.51 298.19h-6.4442" stroke="#2700C3" stroke-linecap="round" stroke-linejoin="round" stroke-width=".5"/>
<path d="m470.25 291.5h-4.6915" stroke="#2700C3" stroke-linecap="round" stroke-linejoin="round" stroke-width=".5"/>
<path d="m471.15 290.09h-2.8301" stroke="#2700C3" stroke-linecap="round" stroke-linejoin="round" stroke-width=".5"/>
<path d="m466.75 304.29h-8.4872" stroke="#2700C3" stroke-linecap="round" stroke-linejoin="round" stroke-width=".5"/>
<path d="m468.37 300.65h-3.6191" stroke="#2700C3" stroke-linecap="round" stroke-linejoin="round" stroke-width=".5"/>
<path d="m440.28 348.77h20.389" stroke="#2700C3" stroke-linecap="round" stroke-linejoin="round" stroke-width=".5"/>
<path d="m440.28 351h9.2906" stroke="#2700C3" stroke-linecap="round" stroke-linejoin="round" stroke-width=".5"/>
<path d="m469.02 351h-8.3477" stroke="#2700C3" stroke-linecap="round" stroke-linejoin="round" stroke-width=".5"/>
<path d="m542.8 351h15.352" stroke="#2700C3" stroke-linecap="round" stroke-linejoin="round" stroke-width=".5"/>
<path d="m542.8 348.77h10.536" stroke="#2700C3" stroke-linecap="round" stroke-linejoin="round" stroke-width=".5"/>
<path d="m571.53 348.77h-6.7885" stroke="#2700C3" stroke-linecap="round" stroke-linejoin="round" stroke-width=".5"/>
<path d="m545.07 304.29h15.073" stroke="#2700C3" stroke-linecap="round" stroke-linejoin="round" stroke-width=".5"/>
<path d="m543.44 300.65h24.697" stroke="#2700C3" stroke-linecap="round" stroke-linejoin="round" stroke-width=".5"/>
<path d="m542.31 298.19h17.829" stroke="#2700C3" stroke-linecap="round" stroke-linejoin="round" stroke-width=".5"/>
<path d="m542.31 291.5h20.97" stroke="#2700C3" stroke-linecap="round" stroke-linejoin="round" stroke-width=".5"/>
<path d="m540.67 290.09h19.467" stroke="#2700C3" stroke-linecap="round" stroke-linejoin="round" stroke-width=".5"/>
<path d="m572.02 298.19h-2.8791" stroke="#2700C3" stroke-linecap="round" stroke-linejoin="round" stroke-width=".5"/>
<path d="m573.66 290.09h-6.2972" stroke="#2700C3" stroke-linecap="round" stroke-linejoin="round" stroke-width=".5"/>
<path d="m572.77 291.5h-4.6262" stroke="#2700C3" stroke-linecap="round" stroke-linejoin="round" stroke-width=".5"/>
<path d="m547.36 285.49h7.0234" stroke="#2700C3" stroke-linecap="round" stroke-linejoin="round" stroke-width=".5"/>
<path d="m546.26 269.65h12.102" stroke="#2700C3" stroke-linecap="round" stroke-linejoin="round" stroke-width=".5"/>
<path d="m546.26 264.21h15.034" stroke="#2700C3" stroke-linecap="round" stroke-linejoin="round" stroke-width=".5"/>
<path d="m569.27 304.29h-2.7403" stroke="#2700C3" stroke-linecap="round" stroke-linejoin="round" stroke-width=".5"/>
<path d="m570.89 300.65h-1.1176" stroke="#2700C3" stroke-linecap="round" stroke-linejoin="round" stroke-width=".5"/>
<path d="m571.53 351h-3.3942" stroke="#2700C3" stroke-linecap="round" stroke-linejoin="round" stroke-width=".5"/>
<path d="m566.93 285.49h-1.8708" stroke="#2700C3" stroke-linecap="round" stroke-linejoin="round" stroke-width=".5"/>
<path d="m934.77 272.94h-4.3868" stroke="#2700C3" stroke-linecap="round" stroke-linejoin="round" stroke-width=".5"/>
<path d="m939.6 314h23.558" stroke="#2700C3" stroke-linecap="round" stroke-linejoin="round" stroke-width=".5"/>
<path d="m967.47 314h41.446" stroke="#2700C3" stroke-linecap="round" stroke-linejoin="round" stroke-width=".5"/>
<path d="m956.56 318.44h22.72" stroke="#2700C3" stroke-linecap="round" stroke-linejoin="round" stroke-width=".5"/>
<path d="m298.55 302.28h7.3143" stroke="#2700C3" stroke-linecap="round" stroke-linejoin="round" stroke-width=".5"/>
<path d="m304.42 277.49h-4.3975" stroke="#2700C3" stroke-linecap="round" stroke-linejoin="round" stroke-width=".5"/>
<path d="m262.96 295.39h8.4193" stroke="#2700C3" stroke-linecap="round" stroke-linejoin="round" stroke-width=".5"/>
<path d="m262.96 298.2h15.705" stroke="#2700C3" stroke-linecap="round" stroke-linejoin="round" stroke-width=".5"/>
<path d="m274.42 308.22h20.306" stroke="#2700C3" stroke-linecap="round" stroke-linejoin="round" stroke-width=".5"/>
<path d="m244.43 315.55h71.93" stroke="#2700C3" stroke-linecap="round" stroke-linejoin="round" stroke-width=".5"/>
<path d="m294.73 241.09h-12.924" stroke="#2700C3" stroke-linecap="round" stroke-linejoin="round" stroke-width=".5"/>
<path d="m277.98 241.98h16.746" stroke="#2700C3" stroke-linecap="round" stroke-linejoin="round" stroke-width=".5"/>
<path d="m633.84 234s6.3418-1.1275 11.896-0.72151" stroke="#2700C3" stroke-linecap="round" stroke-linejoin="round" stroke-width=".62821"/>
<path d="m646.46 166.28s4.9723 9.176 6.0717 16.404" stroke="#2700C3" stroke-linecap="round" stroke-linejoin="round" stroke-width=".62821"/>
<path d="m636.86 149.54s0.56225 12.368 8.7887 16.182c0 0 11.533 4.1933 17.082-3.5736" stroke="#2700C3" stroke-linecap="round" stroke-linejoin="round" stroke-width=".62821"/>
<path d="m631.64 134.14s0.25191 3.1368 3.1618 2.5969c2.9099-0.53987 10.821-1.7328 19.095-4.7966" stroke="#2700C3" stroke-linecap="round" stroke-linejoin="round" stroke-width=".62821"/>
<path d="m633.21 145.62s0.80034-5.4559 0.27641-8.4331" stroke="#2700C3" stroke-linecap="round" stroke-linejoin="round" stroke-width=".62821"/>
<path d="m629.74 240.67v4.033" stroke="#2700C3" stroke-linecap="round" stroke-linejoin="round" stroke-width="1.2564"/>
<path d="m643.92 239.66s0.42342 5.1995 0.081668 6.2466" stroke="#2700C3" stroke-linecap="round" stroke-linejoin="round" stroke-width=".62821"/>
<path d="m592.82 239s-0.22678 1.2168 5.5647 2.2249" stroke="#2700C3" stroke-linecap="round" stroke-linejoin="round" stroke-width=".62821"/>
<path d="m666.55 238.15s-1.0994 2.0036-1.23 3.6729" stroke="#2700C3" stroke-linecap="round" stroke-linejoin="round" stroke-width=".62821"/>
<path d="m467.3 318.85h77.213" stroke="#2700C3" stroke-linecap="round" stroke-linejoin="round" stroke-width=".5"/>
<path d="m467.82 337.16h76.17" stroke="#2700C3" stroke-linecap="round" stroke-linejoin="round" stroke-width=".5"/>
<path d="m106.58 309.4h52.37" stroke="#2700C3" stroke-linecap="round" stroke-linejoin="round" stroke-width=".5"/>
<path d="m106.58 305.6h70.239" stroke="#2700C3" stroke-linecap="round" stroke-linejoin="round" stroke-width=".5"/>
<path d="m131.97 280.96h15.691" stroke="#2700C3" stroke-linecap="round" stroke-linejoin="round" stroke-width=".5"/>
<path d="m47.489 321.78h98.688" stroke="#2700C3" stroke-linecap="round" stroke-linejoin="round" stroke-width=".5"/>
<path d="m45.797 327.48h58.499" stroke="#2700C3" stroke-linecap="round" stroke-linejoin="round" stroke-width=".5"/>
<path d="m192.59 327.48h-65.507" stroke="#2700C3" stroke-linecap="round" stroke-linejoin="round" stroke-width=".5"/>
<path d="m45.797 328.86h46.981" stroke="#2700C3" stroke-linecap="round" stroke-linejoin="round" stroke-width=".5"/>
<path d="m108.69 328.86h68.125" stroke="#2700C3" stroke-linecap="round" stroke-linejoin="round" stroke-width=".5"/>
<path d="m47.489 331.8h117.03" stroke="#2700C3" stroke-linecap="round" stroke-linejoin="round" stroke-width=".5"/>
<path d="m1.897 343.53h143.02" stroke="#2700C3" stroke-linecap="round" stroke-linejoin="round" stroke-width=".5"/>
<path d="m198.64 343.53h-15.814" stroke="#2700C3" stroke-linecap="round" stroke-linejoin="round" stroke-width=".5"/>
<path d="m199.78 346.46h-39.946" stroke="#2700C3" stroke-linecap="round" stroke-linejoin="round" stroke-width=".5"/>
<path d="m0.56445 346.46h128.01" stroke="#2700C3" stroke-linecap="round" stroke-linejoin="round" stroke-width=".5"/>
</g>
</g>
</g>
</g>
</g>
</svg>
