<?xml version="1.0" encoding="UTF-8"?>
<svg width="103px" height="23px" viewBox="0 0 103 23" version="1.1" xmlns="http://www.w3.org/2000/svg" xmlns:xlink="http://www.w3.org/1999/xlink">
    <!-- Generator: Sketch 52.2 (67145) - http://www.bohemiancoding.com/sketch -->
    <title>Anim_dots</title>
    <desc>Created with Sketch.</desc>
    <g id="RDB-Web-Design" stroke="none" stroke-width="1" fill="none" fill-rule="evenodd">
        <g id="1.1_ReactDay---template" transform="translate(-473.000000, -2461.000000)" fill="#0024FF">
            <g id="Anim_dots" transform="translate(524.500000, 2472.500000) rotate(90.000000) translate(-524.500000, -2472.500000) translate(513.000000, 2421.000000)">
                <g id="dots_white">
                    <rect id="Rectangle" transform="translate(21.500000, 1.500000) scale(-1, 1) translate(-21.500000, -1.500000) " x="20" y="0" width="3" height="3"></rect>
                    <rect id="Rectangle" transform="translate(1.500000, 1.500000) scale(-1, 1) translate(-1.500000, -1.500000) " x="0" y="0" width="3" height="3"></rect>
                    <rect id="Rectangle" transform="translate(21.500000, 21.500000) scale(-1, 1) translate(-21.500000, -21.500000) " x="20" y="20" width="3" height="3"></rect>
                    <rect id="Rectangle" transform="translate(1.500000, 21.500000) scale(-1, 1) translate(-1.500000, -21.500000) " x="0" y="20" width="3" height="3"></rect>
                    <rect id="Rectangle" x="20" y="40" width="3" height="3"></rect>
                    <rect id="Rectangle" transform="translate(1.500000, 41.500000) scale(-1, 1) translate(-1.500000, -41.500000) " x="0" y="40" width="3" height="3"></rect>
                    <rect id="Rectangle" x="20" y="60" width="3" height="3"></rect>
                    <rect id="Rectangle" x="0" y="60" width="3" height="3"></rect>
                    <rect id="Rectangle" x="0" y="80" width="3" height="3"></rect>
                    <rect id="Rectangle" x="20" y="80" width="3" height="3"></rect>
                    <rect id="Rectangle" x="20" y="100" width="3" height="3"></rect>
                    <rect id="Rectangle" x="0" y="100" width="3" height="3"></rect>
                </g>
            </g>
        </g>
    </g>
</svg>