<?xml version="1.0" encoding="UTF-8"?>
<svg width="302px" height="690px" viewBox="0 0 302 690" version="1.1" xmlns="http://www.w3.org/2000/svg" xmlns:xlink="http://www.w3.org/1999/xlink">
    <!-- Generator: Sketch 52.2 (67145) - http://www.bohemiancoding.com/sketch -->
    <title>Hand</title>
    <desc>Created with Sketch.</desc>
    <g id="RDB-Web-Design" stroke="none" stroke-width="1" fill="none" fill-rule="evenodd">
        <g id="React-day-Berlin-2018-web" transform="translate(-589.000000, -105.000000)">
            <g id="1-Screen" transform="translate(-12.000000, -4.000000)">
                <g id="Visual" transform="translate(12.000000, 0.000000)">
                    <g id="Group-43" transform="translate(589.000000, 109.000000)">
                        <g id="Hand">
                            <g id="Hand-bg" transform="translate(0.000000, 0.093485)" fill="#FFFFFF">
                                <path d="M231.679022,689.859938 L233.814632,651.016883 C234.900054,627.674113 231.077778,561.763704 227.35211,518.778804 C226.476953,508.676714 225.606342,499.835533 224.807336,493.118287 C223.841253,484.998765 224.562974,479.085263 225.384712,473.375833 C226.223499,467.536435 227.166849,461.909088 226.512187,454.356177 C225.375619,441.245464 233.331591,406.473571 233.331591,406.473571 C260.609207,355.360028 246.402115,278.786619 246.402115,278.786619 C253.789803,269.666123 248.67525,246.864882 248.67525,246.864882 C250.948384,244.584757 250.948384,235.464261 250.948384,235.464261 C262.314058,221.783516 275.952866,181.311313 275.952866,181.311313 C285.045404,171.050754 290.159957,139.129016 290.159957,139.129016 C302.093914,110.627465 307.776751,78.705727 291.864808,71.2953236 C275.952866,63.8849202 260.040923,94.0965649 260.040923,107.77731 C260.040923,121.458054 239.014427,159.080103 236.173009,167.630568 C233.866914,174.568986 220.333807,190.142234 215.314725,195.76502 C215.084002,183.417007 211.042369,175.37387 209.463677,167.060537 C207.190542,155.089885 191.278599,151.099668 181.617777,149.389575 C174.956356,148.209611 164.784078,154.346565 159.108061,158.272939 C158.879611,157.489716 158.62161,156.794278 158.318147,156.229947 C146.606957,134.416 141.83792,135.70883 129.33568,135.138799 C116.833439,134.568768 107.172617,144.829327 99.784929,150.529637 C92.3972413,156.229947 81.5998517,193.281965 78.1901497,192.141902 C74.7804477,191.00184 67.39276,146.53942 65.1196253,133.428706 C62.8464907,120.317992 57.7319377,108.347341 57.163654,94.0965649 C56.5953703,79.8457891 50.9125337,62.7448581 50.9125337,62.7448581 C48.0711154,19.9925307 41.2517114,-0.528586423 20.2252157,0.0414446092 C-0.80127997,0.611475641 -1.36956364,34.2433065 0.90357103,45.6439272 C3.1767057,57.0445478 2.60842203,64.4549512 4.31327303,112.907589 C6.01812403,161.360227 16.8155137,200.692368 19.656932,213.233051 C22.4983504,225.773733 21.361783,233.184137 21.361783,246.864882 C21.361783,260.545626 27.0446197,283.346868 27.0446197,283.346868 C30.4543217,379.112081 65.9720508,430.129858 68.5293273,434.120076 C71.0866038,438.110293 70.2341783,444.66565 69.6658947,449.795929 C69.3158319,452.958461 70.5853777,458.613169 71.6105614,462.48596 C71.0013613,466.757772 69.8397895,479.442103 70.802462,510.789249 C71.7196718,540.696498 63.0101564,621.117616 59.6163663,651.016883 C59.6163663,651.016883 57.97289,673.437344 57.7842198,689.859938" id="Fill-1"></path>
                            </g>
                            <g id="Lines-Hand" transform="translate(11.864286, 3.239063)">
                                <path d="M138.765551,246.123809 C132.514431,286.596012 144.181295,299.96552 165.776074,301.675613 C184.606721,303.166814 189.643988,283.43462 190.212272,274.314124 C190.780555,265.193627 194.758541,236.122045 201.009661,211.61071 C202.915685,204.133043 203.553299,197.876382 203.454418,192.450827" id="Stroke-4" stroke="#2700C3" stroke-width="0.540000021" stroke-linecap="round" stroke-linejoin="round"></path>
                                <path d="M29.6717948,266.618135 C29.6717948,266.618135 39.6167589,285.904565 50.2243419,273.743523 C50.2243419,273.743523 66.8045861,249.80678 79.9648993,225.290885 C87.9208706,210.470078 99.8548276,191.089023 125.995876,188.808899 C152.136925,186.528775 173.191835,175.960399 179.414541,175.128154 C187.938796,173.988092 203.850739,178.54834 199.872753,203.629706 C196.614214,224.174764 180.551108,232.131257 168.048868,238.401599 C159.362083,242.757776 131.110429,247.522095 131.110429,247.522095 C131.110429,247.522095 132.246997,277.73374 123.154458,288.279314" id="Stroke-6" stroke="#2700C3" stroke-width="0.77982694" stroke-linecap="round" stroke-linejoin="round"></path>
                                <path d="M145.885805,409.980939 C169.862829,378.112784 169.970803,347.751792 164.717589,326.171557 C161.632945,313.497487 156.699106,303.853702 153.665608,298.710882" id="Stroke-8" stroke="#2700C3" stroke-width="0.77982694" stroke-linecap="round" stroke-linejoin="round"></path>
                                <path d="M147.252072,154.939935 C149.386546,162.272814 148.4216,178.17326 147.874911,185.007932" id="Stroke-10" stroke="#2700C3" stroke-width="0.77982694" stroke-linecap="round" stroke-linejoin="round"></path>
                                <path d="M34.2202236,302.461116 C34.2202236,302.461116 20.2484014,330.320813 34.539599,361.31454" id="Stroke-12" stroke="#2700C3" stroke-width="0.540000021" stroke-linecap="round" stroke-linejoin="round"></path>
                                <path d="M154.125918,190.233976 C154.125918,190.233976 161.513605,198.784442 163.502598,208.474969 C163.502598,208.474969 165.491591,214.745311 172.310995,213.890264 C179.130399,213.035218 207.511622,205.773022 196.178909,185.103697 C186.802229,168.002766 170.322002,180.828464 160.66118,183.67862 C155.746663,185.127638 152.705209,186.81379 154.125918,190.233976 Z" id="Stroke-14" stroke="#2700C3" stroke-width="0.77982694" stroke-linecap="round" stroke-linejoin="round"></path>
                                <path d="M151.189028,264.052995 C151.189028,264.052995 148.585152,272.03343 150.005861,282.008973 C150.738947,287.158633 155.262485,293.979624 166.059875,294.549655 C176.857264,295.119686 180.760237,290.117094 182.824243,285.286651 C184.529094,281.296434 186.749946,269.879852 185.097378,264.243385 C182.255959,254.552858 155.735297,250.562641 151.189028,264.052995 Z" id="Stroke-16" stroke="#2700C3" stroke-width="0.77982694" stroke-linecap="round" stroke-linejoin="round"></path>
                                <path d="M82.0482272,168.478172 C82.0482272,168.478172 81.3469651,172.66106 86.272848,178.742151" id="Stroke-18" stroke="#2700C3" stroke-width="0.540000021" stroke-linecap="round" stroke-linejoin="round"></path>
                                <path d="M92.2773332,167.717751 C92.2773332,167.717751 80.8366464,173.608451 85.1271881,216.296935" id="Stroke-20" stroke="#2700C3" stroke-width="0.540000021" stroke-linecap="round" stroke-linejoin="round"></path>
                                <path d="M19.5370239,126.295876 C19.5370239,126.295876 28.2510856,127.055157 37.7221012,123.25533" id="Stroke-22" stroke="#2700C3" stroke-width="0.540000021" stroke-linecap="round" stroke-linejoin="round"></path>
                                <path d="M14.6122776,59.4118545 C14.6122776,59.4118545 25.2198605,58.2717925 29.387653,59.4118545" id="Stroke-24" stroke="#2700C3" stroke-width="0.77982694" stroke-linecap="round" stroke-linejoin="round"></path>
                                <path d="M262.762433,114.514474 C262.762433,114.514474 269.581837,115.654536 271.096881,118.315441" id="Stroke-26" stroke="#2700C3" stroke-width="0.540000021" stroke-linecap="round" stroke-linejoin="round"></path>
                                <path d="M241.925744,160.116957 C241.925744,160.116957 255.184939,164.297564 256.321506,169.618234" id="Stroke-28" stroke="#2700C3" stroke-width="0.540000021" stroke-linecap="round" stroke-linejoin="round"></path>
                                <path d="M239.055457,232.14015 C238.176891,230.073217 236.237907,227.104496 232.074661,225.481047" id="Stroke-30" stroke="#2700C3" stroke-width="0.540000021" stroke-linecap="round" stroke-linejoin="round"></path>
                                <path d="M234.509188,275.475847 C233.216911,273.736112 231.50865,271.888072 229.423049,270.607782" id="Stroke-32" stroke="#2700C3" stroke-width="0.540000021" stroke-linecap="round" stroke-linejoin="round"></path>
                                <path d="M125.995876,237.261537 C125.995876,237.261537 126.848302,243.246862 131.110429,247.522095" id="Stroke-34" stroke="#2700C3" stroke-width="0.540000021" stroke-linecap="round" stroke-linejoin="round"></path>
                                <path d="M131.110429,247.522095 C124.575167,248.947173 120.31304,246.097018 120.31304,246.097018" id="Stroke-36" stroke="#2700C3" stroke-width="0.540000021" stroke-linecap="round" stroke-linejoin="round"></path>
                                <path d="M127.78722,279.008557 C126.744988,279.841943 124.089966,281.593078 120.597295,281.154154" id="Stroke-38" stroke="#2700C3" stroke-width="0.540000021" stroke-linecap="round" stroke-linejoin="round"></path>
                                <path d="M113.63457,199.097275 C114.888204,200.184894 119.787945,206.829176 121.87582,214.717265" id="Stroke-40" stroke="#2700C3" stroke-width="0.540000021" stroke-linecap="round" stroke-linejoin="round"></path>
                                <path d="M92.6558101,418.911045 C97.9601699,418.911045 142.664773,410.55097 153.273492,376.349108" id="Stroke-42" stroke="#2700C3" stroke-width="0.540000021" stroke-linecap="round" stroke-linejoin="round"></path>
                                <path d="M57.9071961,433.80094 C61.8942743,435.192956 74.7283926,439.30516 85.4575882,438.672425" id="Stroke-44" stroke="#2700C3" stroke-width="0.77982694" stroke-linecap="round" stroke-linejoin="round"></path>
                                <path d="M221.499697,403.163938 C218.018391,408.098127 212.204849,414.798272 203.948824,419.36422" id="Stroke-46" stroke="#2700C3" stroke-width="0.540000021" stroke-linecap="round" stroke-linejoin="round"></path>
                                <path d="M119.176472,425.751418 C119.176472,425.751418 144.180954,419.671467 166.9123,423.471294" id="Stroke-48" stroke="#2700C3" stroke-width="0.77982694" stroke-linecap="round" stroke-linejoin="round"></path>
                                <path d="M22.9467259,205.339799 C22.9467259,205.339799 44.1630283,208.380344 53.2555669,199.259848" id="Stroke-50" stroke="#2700C3" stroke-width="0.77982694" stroke-linecap="round" stroke-linejoin="round"></path>
                                <path d="M72.6648409,246.148206 C72.7182596,246.535827 72.7523566,246.731918 72.8341895,247.124099 C72.9001104,247.441037 73.0149037,247.584685 73.1672037,247.551623 C73.3195037,247.521981 73.5081739,247.331591 73.7309411,246.979312 C73.9423426,246.644133 74.0878232,246.304395 74.1685195,245.961236 C74.2503524,245.618077 74.2514889,245.29202 74.1844315,244.984203 C74.1014621,244.593162 74.0650919,244.398211 74.0116732,244.01173 C73.4752135,244.861076 73.2069836,245.2886 72.6648409,246.148206 M70.0814234,252.602098 C70.7588175,250.713015 71.1100168,249.774744 71.8317371,247.917583 C71.8078692,247.772795 71.7976401,247.700971 71.779455,247.557323 C70.9668094,248.850153 70.5576451,249.501129 69.7381801,250.81106 C69.6574838,250.180606 69.6347524,249.868229 69.6313427,249.252595 C71.7976401,245.792507 72.8705596,244.082414 74.9538876,240.786494 C74.9732092,241.81483 75.0459495,242.342679 75.2937212,243.417758 C75.4119242,243.934206 75.467616,244.488276 75.4369287,245.079968 C75.4062414,245.6728 75.3050869,246.262213 75.1164167,246.845924 C74.9288831,247.431916 74.6720189,247.983706 74.3424143,248.504715 C73.9514352,249.121488 73.5650023,249.51481 73.1956179,249.680119 C72.8273701,249.845428 72.5068581,249.753083 72.2681789,249.404224 C71.5907848,251.386792 71.26459,252.387766 70.6360683,254.399976 C70.3723846,253.674896 70.261001,253.314636 70.0814234,252.602098" id="Fill-52" fill="#2700C3"></path>
                                <path d="M76.115573,249.931388 C75.6620827,250.641647 75.4324961,250.998486 74.9767326,251.713305 C75.4472714,252.648156 75.7120916,253.119002 76.2883313,254.067533 C75.8882596,254.692287 75.6870871,255.004664 75.2847423,255.631699 C74.7107758,254.683167 74.4470922,254.212321 73.979963,253.27747 C73.4935122,254.040172 73.2502868,254.423233 72.7626994,255.191635 C73.2832472,256.243912 73.5821644,256.775181 74.2379638,257.842279 C73.8083413,258.512635 73.5923935,258.847814 73.1616345,259.52045 C72.0943978,257.777295 71.6386343,256.909708 70.9464648,255.208736 C73.1423129,251.731546 74.2334175,250.010053 76.3735738,246.65257 C77.0987038,248.339862 77.5737889,249.202889 78.6762592,250.949464 C78.2557293,251.599299 78.0443278,251.925357 77.6226613,252.579752 C76.9543597,251.511514 76.6497597,250.980245 76.115573,249.931388" id="Fill-54" fill="#2700C3"></path>
                                <path d="M78.6728495,261.266341 C79.2184018,259.653154 79.4934511,258.84827 80.0412766,257.240782 C78.9444891,258.134591 78.4000734,258.583775 77.3169247,259.488985 C77.8374725,260.199243 78.1091121,260.554943 78.6728495,261.266341 M77.9897726,263.283111 C77.1350739,262.221713 76.7281828,261.690444 75.9689558,260.631327 C75.4347692,261.083931 75.1688124,261.311944 74.6368989,261.766829 C74.1356727,261.05087 73.895857,260.69175 73.4446398,259.976931 C76.3031066,257.56114 77.7613225,256.378895 80.7368558,254.055449 C81.3255977,254.847792 81.6336074,255.245674 82.2734948,256.040297 C80.8937021,260.450057 80.2060789,262.674318 78.8535637,267.100039 C78.2227689,266.37724 77.9147591,266.0147 77.3203344,265.28848 C77.5874277,264.485877 77.7215427,264.085715 77.9897726,263.283111" id="Fill-56" fill="#2700C3"></path>
                                <path d="M89.7722251,265.488105 C89.9677147,266.629307 89.8256438,267.756829 89.339193,268.87409 C88.6208824,268.171811 88.2640003,267.817252 87.5570554,267.105853 C87.6923069,266.587125 87.7002629,266.082078 87.5831964,265.586151 C87.4672666,265.090224 87.2251777,264.65472 86.8614762,264.276219 C86.3841179,263.778012 85.8556141,263.592182 85.2725551,263.723289 C84.689496,263.854396 84.1541728,264.28762 83.659766,265.02182 C83.1664958,265.75488 82.9141778,266.4925 82.9050853,267.23012 C82.8982659,267.97002 83.1278525,268.584514 83.6029376,269.07474 C83.9643661,269.447541 84.3542087,269.656172 84.773602,269.705195 C85.1907222,269.753077 85.5942036,269.651612 85.9840462,269.404218 C86.6875814,270.109917 87.0456001,270.459916 87.7616375,271.155354 C86.9410359,271.930596 86.0454208,272.317077 85.0816117,272.313657 C84.1178026,272.310237 83.2017294,271.877013 82.3481673,271.001445 C81.6980508,270.332229 81.2593358,269.559267 81.0274761,268.682559 C80.7956163,267.804711 80.7762947,266.893802 80.9626917,265.955531 C81.1490888,265.014979 81.524156,264.122311 82.0856203,263.280945 C82.645948,262.440719 83.2699234,261.835346 83.9655026,261.465966 C84.6576721,261.095446 85.364617,260.99284 86.0920201,261.152449 C86.8194232,261.313198 87.5115927,261.739581 88.1708018,262.425899 C89.0357295,263.326548 89.575599,264.345763 89.7722251,265.488105" id="Fill-58" fill="#2700C3"></path>
                                <path d="M97.4806521,271.609212 C97.031708,272.237387 96.8078042,272.549764 96.3634064,273.174518 C95.6007697,272.47452 95.21661,272.11882 94.4471539,271.399441 C92.5740909,274.047805 91.646652,275.358877 89.7985935,277.98786 C89.1086971,277.368806 88.7620441,277.054149 88.0721477,276.421414 C89.9224793,273.76621 90.8487817,272.441458 92.7207081,269.775993 C91.9569349,269.050913 91.5750482,268.684953 90.8169578,267.946193 C91.2602191,267.306618 91.4841228,266.986261 91.9285207,266.345546 C94.144827,268.508244 95.2825309,269.570781 97.4806521,271.609212" id="Fill-60" fill="#2700C3"></path>
                                <path d="M62.4446002,265.39576 C62.8139846,265.304555 63.2583824,264.858791 63.7596086,264.057327 C64.2619713,263.255864 64.5949856,262.45782 64.7768363,261.665477 C64.9586871,260.871994 64.9734625,260.159455 64.8666252,259.534701 C64.8132065,259.232585 64.7904752,259.080956 64.7552416,258.77998 C63.495925,260.79903 62.8639935,261.810265 61.6046769,263.830455 C61.6387739,264.133711 61.6615053,264.2842 61.7115142,264.588596 C61.8160784,265.21563 62.0752158,265.486965 62.4446002,265.39576 M62.7230592,267.60178 C62.1968285,267.987121 61.7251531,268.101127 61.3330373,267.946079 C60.9431947,267.789891 60.6681454,267.354387 60.5419865,266.644128 C60.3658185,265.637453 60.3203558,265.138106 60.3249021,264.155373 C62.5207502,260.636001 63.6300399,258.857504 65.825888,255.340413 C65.825888,256.309466 65.875897,256.804252 66.0611574,257.805227 C66.1918627,258.515486 66.2430082,259.32151 66.172541,260.215318 C66.104347,261.107987 65.9270425,262.033717 65.615623,262.986809 C65.3042036,263.937621 64.880264,264.84853 64.3347117,265.716118 C63.7902959,266.585985 63.2492898,267.213019 62.7230592,267.60178" id="Fill-62" fill="#2700C3"></path>
                                <path d="M66.0308111,271.692779 C66.6411477,270.04995 66.9491575,269.227965 67.5685867,267.586275 C66.5399932,268.533667 66.0296745,269.009073 65.016993,269.963305 C65.3943334,270.654182 65.5977789,271.000761 66.0308111,271.692779 M65.2715841,273.747171 C64.6066922,272.714275 64.3020922,272.195546 63.7610861,271.16493 C63.2632696,271.639196 63.0154979,271.877469 62.5233643,272.352875 C62.1710284,271.654017 62.011909,271.305158 61.725494,270.60972 C64.3430086,268.091323 65.6989334,266.824714 68.468748,264.346219 C68.8915511,265.118041 69.1211377,265.505662 69.6121347,266.282044 C68.0345793,270.78757 67.2639866,273.046033 65.7614446,277.558398 C65.2431699,276.85156 64.9942617,276.498141 64.5271325,275.789022 C64.8237766,274.972738 64.9715303,274.564595 65.2715841,273.747171" id="Fill-64" fill="#2700C3"></path>
                                <path d="M77.0057326,275.385668 C74.5882538,276.729801 73.3914484,277.414978 71.0387541,278.804714 C70.2829368,279.964157 69.9044599,280.544449 69.1486426,281.709592 C68.5633104,281.056337 68.2791686,280.726859 67.72907,280.065623 C68.4837507,278.897059 68.8599545,278.313347 69.6134986,277.150484 C70.3420383,273.865965 70.7193786,272.218576 71.5081564,268.921516 C72.0798497,269.693338 72.3799035,270.079819 73.0027424,270.849361 C72.5140185,272.798867 72.2742028,273.77476 71.8013907,275.719706 C73.1777738,274.828178 73.8722164,274.385834 75.2724674,273.509126 C75.9475884,274.264987 76.295378,274.640067 77.0057326,275.385668" id="Fill-66" fill="#2700C3"></path>
                                <path d="M54.3831554,275.392394 C54.4252084,275.822198 54.4536226,276.03767 54.5263629,276.470893 C54.6229711,277.044344 54.8866547,277.023823 55.2764973,276.401349 C55.6652033,275.780015 55.7856795,275.173502 55.6867981,274.590931 C55.6151944,274.169108 55.5867802,273.958196 55.5435906,273.539794 C55.077598,274.283114 54.8457383,274.654774 54.3831554,275.392394 M53.1965791,279.935542 C53.388659,279.631145 53.5205008,279.307368 53.5955142,278.971049 C53.6705277,278.633591 53.6784836,278.315514 53.6284747,278.017957 C53.548915,277.547112 53.5170911,277.312259 53.472765,276.843693 C52.991997,277.610955 52.7533178,277.991736 52.2759596,278.751017 C52.3202857,279.226423 52.3498364,279.465836 52.4282596,279.944662 C52.5294141,280.567136 52.8010537,280.567136 53.1965791,279.935542 M54.1978949,280.251339 C54.0308195,280.880653 53.793277,281.448404 53.4784478,281.952312 C53.0147283,282.693352 52.5896521,283.068432 52.2214043,283.076413 C51.8520199,283.086673 51.5769707,282.712733 51.4451288,281.963712 C51.2144057,280.656061 51.1575773,280.006226 51.1894012,278.721376 C53.2738657,275.422036 54.3479218,273.710803 56.5153557,270.248434 C56.50399,271.44778 56.5687744,272.057713 56.8131364,273.2867 C56.9495244,273.975297 56.9756655,274.707217 56.8460968,275.475619 C56.7153916,276.245161 56.4346594,276.988481 55.9857153,277.70558 C55.6561108,278.232289 55.3469645,278.559487 55.0628227,278.687174 C54.7786808,278.814861 54.5536405,278.749877 54.3990673,278.500204 C54.4252084,279.037173 54.3626972,279.622025 54.1978949,280.251339" id="Fill-68" fill="#2700C3"></path>
                                <path d="M57.4055152,279.849125 C56.9429323,280.586745 56.7133457,280.956125 56.2518994,281.690325 C56.683795,282.628596 56.928157,283.099442 57.4646167,284.035433 C57.0599988,284.678428 56.8576898,285.001065 56.4542084,285.64292 C55.9211583,284.703509 55.6779329,284.231524 55.2505836,283.288692 C54.7641328,284.065075 54.5209074,284.452696 54.0367297,285.226798 C54.5129514,286.293896 54.7868641,286.829725 55.3937911,287.893403 C54.9664418,288.57402 54.7527671,288.914899 54.3254178,289.595516 C53.342287,287.84324 52.92744,286.958552 52.3068742,285.197156 C54.4572596,281.763289 55.5517739,280.011014 57.755578,276.491642 C58.4125139,278.200595 58.8478192,279.062482 59.8718664,280.775995 C59.4422439,281.457753 59.2285693,281.797491 58.8000834,282.478108 C58.178381,281.428111 57.8965123,280.901402 57.4055152,279.849125" id="Fill-70" fill="#2700C3"></path>
                                <path d="M59.0115985,287.430994 C59.3002866,287.841416 59.4480404,288.046627 59.7526404,288.45591 C59.9970024,288.784247 60.2413644,288.930175 60.4811801,288.894833 C60.7198592,288.859492 60.9574018,288.658841 61.1926713,288.28946 C61.416575,287.937181 61.5313683,287.582622 61.5370512,287.224643 C61.542734,286.868943 61.4211213,286.529205 61.180169,286.207707 C60.8732958,285.799565 60.7244055,285.595494 60.4334443,285.185071 C59.864024,286.0823 59.5798822,286.532625 59.0115985,287.430994 M57.3158401,294.122018 C57.7181849,292.181632 57.9239036,291.21258 58.3501164,289.277894 C58.2421425,289.126266 58.1887238,289.051022 58.0841596,288.898254 C57.2362804,290.238967 56.8134773,290.908183 55.9701444,292.247756 C55.5155174,291.575119 55.2972965,291.236521 54.8869957,290.558184 C57.0998923,287.036532 58.2182745,285.263736 60.4561756,281.720423 C61.1835787,282.855925 61.5836504,283.421395 62.4394856,284.545497 C62.8486499,285.084746 63.1339283,285.657057 63.2805454,286.269271 C63.4271626,286.881484 63.4453477,287.489137 63.3305544,288.09451 C63.2157611,288.699883 62.9839014,289.275614 62.6349752,289.821704 C62.2212647,290.466979 61.7552721,290.883102 61.2404071,291.067792 C60.7266787,291.253622 60.2049942,291.170397 59.6924024,290.820398 C59.3082426,292.86681 59.1241187,293.889445 58.7615537,295.942697 C58.1614462,295.221038 57.8716215,294.856218 57.3158401,294.122018" id="Fill-72" fill="#2700C3"></path>
                                <path d="M61.947352,296.675073 C62.740676,297.517579 63.1509768,297.933702 63.9909,298.752266 C63.560141,299.420342 63.3441932,299.755521 62.9134342,300.428157 C61.450672,298.991679 60.7471369,298.251779 59.4400844,296.741197 C61.7279945,293.143161 62.8702446,291.360104 65.1501987,287.819071 C65.7241652,288.462066 66.0196727,288.781283 66.6243265,289.414018 C64.7592195,292.293814 63.8226881,293.745114 61.947352,296.675073" id="Fill-74" fill="#2700C3"></path>
                                <path d="M71.0876265,293.707947 C68.7769851,297.212498 67.6142767,298.990995 65.264992,302.628933 C64.6069195,302.040661 64.2829978,301.740825 63.644247,301.134312 C65.9798929,297.502074 67.1357818,295.721297 69.441877,292.204206 C70.0897203,292.812999 70.4204614,293.113975 71.0876265,293.707947" id="Fill-76" fill="#2700C3"></path>
                                <path d="M72.7480377,308.549959 C72.0467756,308.059733 71.6955763,307.808919 70.9965874,307.291331 C71.2932315,304.190362 71.4307561,302.645578 71.7126248,299.541189 C70.2794134,301.711867 69.5588297,302.812027 68.1040236,305.049969 C67.4209466,304.494759 67.081113,304.210883 66.4105382,303.635152 C68.7689154,299.992654 69.9327604,298.217577 72.2479481,294.723287 C72.9242056,295.305858 73.2674489,295.593154 73.9562088,296.157485 C73.6743401,299.255033 73.537952,300.790697 73.2504004,303.865444 C74.7097529,301.658284 75.4303366,300.577505 76.8646846,298.444449 C77.56481,298.974578 77.9160093,299.232232 78.6161348,299.73842 C76.3054934,303.156326 75.1382388,304.905181 72.7480377,308.549959" id="Fill-78" fill="#2700C3"></path>
                                <path d="M129.174628,272.354129 C131.453445,273.928555 135.539405,276.921218 138.953653,280.336844" id="Stroke-80" stroke="#2700C3" stroke-width="0.540000021" stroke-linecap="round" stroke-linejoin="round"></path>
                                <path d="M107.578712,205.826377 C107.578712,205.826377 116.56555,210.184835 117.755536,217.310222 C117.755536,217.310222 113.261549,211.811703 110.988414,211.56887 C108.715279,211.324897 116.849692,215.315114 117.755536,222.725517" id="Stroke-82" stroke="#2700C3" stroke-width="0.540000021" stroke-linecap="round" stroke-linejoin="round"></path>
                                <path d="M151.336554,186.81379 C151.336554,186.81379 150.199987,188.523883 151.336554,190.804007 C152.473122,193.084132 158.724242,198.784442 160.144951,206.907384 C161.56566,215.030326 168.953348,216.296935 168.953348,216.296935" id="Stroke-84" stroke="#2700C3" stroke-width="0.540000021" stroke-linecap="round" stroke-linejoin="round"></path>
                                <path d="M153.775173,198.214411 C153.775173,198.214411 157.018936,199.639488 158.439645,206.907384" id="Stroke-86" stroke="#2700C3" stroke-width="0.540000021" stroke-linecap="round" stroke-linejoin="round"></path>
                                <path d="M159.891951,198.214411 L187.13888,186.81379" id="Stroke-88" stroke="#2700C3" stroke-width="0.540000021" stroke-linecap="round" stroke-linejoin="round"></path>
                                <path d="M173.515188,195.177286 L196.178341,185.103697" id="Stroke-90" stroke="#2700C3" stroke-width="0.540000021" stroke-linecap="round" stroke-linejoin="round"></path>
                                <path d="M154.125918,190.233976 C154.125918,190.233976 163.839022,186.81379 167.630611,195.43494" id="Stroke-92" stroke="#2700C3" stroke-width="0.540000021" stroke-linecap="round" stroke-linejoin="round"></path>
                                <path d="M170.274266,199.097275 C170.274266,199.097275 172.931561,204.682439 168.953575,213.70489" id="Stroke-94" stroke="#2700C3" stroke-width="0.540000021" stroke-linecap="round" stroke-linejoin="round"></path>
                                <path d="M43.0785157,123.25533 C43.0785157,123.25533 36.4375528,131.616545 19.5367966,131.52078 C19.5367966,131.52078 37.6798209,131.52078 40.8053811,128.670625" id="Stroke-96" stroke="#2700C3" stroke-width="0.77982694" stroke-linecap="round" stroke-linejoin="round"></path>
                                <path d="M29.387653,56.8467149 C29.387653,56.8467149 21.1998219,54.8516063 12.6755669,56.8467149" id="Stroke-98" stroke="#2700C3" stroke-width="0.77982694" stroke-linecap="round" stroke-linejoin="round"></path>
                                <path d="M59.0115985,192.514101 C59.0115985,192.514101 69.6237277,184.090182 65.0172203,192.007913 C60.4107129,199.924504 55.7200996,201.555933 55.7200996,201.555933" id="Stroke-100" stroke="#2700C3" stroke-width="0.540000021" stroke-linecap="round" stroke-linejoin="round"></path>
                                <path d="M60.9484229,210.470078 C60.9484229,210.470078 68.5611509,191.631693 66.6244402,188.813459" id="Stroke-102" stroke="#2700C3" stroke-width="0.540000021" stroke-linecap="round" stroke-linejoin="round"></path>
                                <path d="M59.7463893,459.152842 C59.7463893,459.152842 60.9795649,464.133773 75.4707984,466.983929" id="Stroke-104" stroke="#2700C3" stroke-width="0.540000021" stroke-linecap="round" stroke-linejoin="round"></path>
                                <path d="M189.979844,431.072088 C189.979844,431.072088 187.422567,434.352046 187.422567,444.397133" id="Stroke-106" stroke="#2700C3" stroke-width="0.540000021" stroke-linecap="round" stroke-linejoin="round"></path>
                                <path d="M203.94837,443.042739 C203.94837,443.042739 202.482198,444.752832 200.209063,460.428686 C197.935929,476.104539 200.209063,466.984043 200.209063,466.984043" id="Stroke-108" stroke="#2700C3" stroke-width="0.540000021" stroke-linecap="round" stroke-linejoin="round"></path>
                                <path d="M124.911364,428.791963 C124.911364,428.791963 122.354087,429.554665 124.911364,466.984043" id="Stroke-110" stroke="#2700C3" stroke-width="0.540000021" stroke-linecap="round" stroke-linejoin="round"></path>
                                <path d="M147.926852,428.791963 C147.926852,428.791963 151.904838,433.786575 147.926852,463.067929" id="Stroke-112" stroke="#2700C3" stroke-width="0.540000021" stroke-linecap="round" stroke-linejoin="round"></path>
                                <path d="M212.723465,476.634554 C212.723465,476.634554 214.38399,480.379658 199.198314,480.949689 C199.198314,480.949689 194.525886,479.524611 195.094169,500.900775" id="Stroke-114" stroke="#2700C3" stroke-width="0.540000021" stroke-linecap="round" stroke-linejoin="round"></path>
                                <path d="M175.25891,270.421382 C178.977758,269.818289 182.486341,268.327088 185.678959,266.34566" id="Stroke-116" stroke="#2700C3" stroke-width="0.540000021" stroke-linecap="round" stroke-linejoin="round"></path>
                                <path d="M153.12142,260.578314 C156.299262,265.601427 161.102395,268.888226 166.868201,270.173076" id="Stroke-118" stroke="#2700C3" stroke-width="0.540000021" stroke-linecap="round" stroke-linejoin="round"></path>
                                <path d="M170.047749,255.572643 C170.047749,255.572643 171.983323,260.632239 168.953234,288.278744" id="Stroke-120" stroke="#2700C3" stroke-width="0.540000021" stroke-linecap="round" stroke-linejoin="round"></path>
                                <path d="M173.515188,256.175052 C173.515188,256.175052 174.879069,261.299631 172.484322,294.123158" id="Stroke-122" stroke="#2700C3" stroke-width="0.540000021" stroke-linecap="round" stroke-linejoin="round"></path>
                                <path d="M154.125918,257.315114 C154.125918,257.315114 159.47915,252.082229 166.867974,252.842651 C174.256798,253.601932 182.93449,255.178638 184.846196,259.521134" id="Stroke-124" stroke="#2700C3" stroke-width="0.540000021" stroke-linecap="round" stroke-linejoin="round"></path>
                                <path d="M39.0484753,59.4118545 C39.0484753,59.4118545 35.2648426,56.7840115 26.9451698,56.4032307" id="Stroke-126" stroke="#2700C3" stroke-width="0.77982694" stroke-linecap="round" stroke-linejoin="round"></path>
                                <path d="M229.423504,234.981412 C229.423504,234.981412 235.489363,234.965452 236.811191,243.531878" id="Stroke-128" stroke="#2700C3" stroke-width="0.540000021" stroke-linecap="round" stroke-linejoin="round"></path>
                                <path d="M249.123625,169.974504 C249.123625,169.974504 253.901754,170.82043 256.321506,174.970255" id="Stroke-130" stroke="#2700C3" stroke-width="0.540000021" stroke-linecap="round" stroke-linejoin="round"></path>
                                <path d="M262.762433,120.214785 L266.930226,120.214785 C266.930226,120.214785 270.486545,119.455503 272.759679,123.25533" id="Stroke-132" stroke="#2700C3" stroke-width="0.540000021" stroke-linecap="round" stroke-linejoin="round"></path>
                                <path d="M120.597181,436.269174 C120.597181,436.269174 133.319916,436.664776 128.553153,437.372755 C123.785253,438.080733 114.672256,442.083491 120.597181,441.368672 C126.52097,440.653853 128.555426,441.51118 129.621526,441.368672" id="Stroke-134" stroke="#2700C3" stroke-width="0.540000021" stroke-linecap="round" stroke-linejoin="round"></path>
                                <path d="M154.125918,436.269174 C154.125918,436.269174 137.12969,436.390021 151.905065,438.860536 C151.905065,438.860536 158.218697,438.153697 148.810192,441.454177" id="Stroke-136" stroke="#2700C3" stroke-width="0.540000021" stroke-linecap="round" stroke-linejoin="round"></path>
                                <path d="M166.9123,474.774087 C166.9123,474.774087 176.909547,472.493962 177.6665,466.984043 C178.424591,461.474123 185.054188,451.893041 187.422794,459.152956 C187.422794,459.152956 187.611465,463.373466 188.701433,466.984043 C189.790264,470.594619 199.338566,472.874743 201.573058,474.774087 C203.807549,476.67457 209.044851,472.693473 206.692157,476.634668 C204.338326,480.577003 199.197632,480.949803 199.197632,480.949803" id="Stroke-138" stroke="#2700C3" stroke-width="0.540000021" stroke-linecap="round" stroke-linejoin="round"></path>
                                <path d="M166.9123,469.622716 L155.314767,469.622716 C155.314767,469.622716 151.639108,472.114892 156.696833,475.155437 C161.754558,478.194843 173.120231,481.81568 174.636412,487.225274 C176.151456,492.636009 178.424591,497.387788 176.909547,500.901459 C175.393366,504.41513 179.939635,513.536767 180.319249,516.197672 C180.697725,518.857436 184.030141,530.177113 187.100009,524.707095 C190.168741,519.237077 193.578443,522.657263 193.199966,528.357574 C192.821489,534.057884 192.724881,538.238492 195.045751,543.938802 C197.367759,549.639112 198.960089,554.959782 201.573058,543.938802 C201.573058,543.938802 201.437806,540.898256 203.948483,538.618132 C206.460297,536.338008 205.910199,535.578727 203.912113,526.837871 C201.914028,518.097015 194.968465,505.438906 199.197632,485.737493" id="Stroke-140" stroke="#2700C3" stroke-width="0.540000021" stroke-linecap="round" stroke-linejoin="round"></path>
                                <path d="M208.184924,227.986334 C208.184924,227.986334 202.233858,226.383406 197.239781,229.623463" id="Stroke-142" stroke="#2700C3" stroke-width="0.540000021" stroke-linecap="round" stroke-linejoin="round"></path>
                                <path d="M197.239895,261.67608 C197.239895,261.67608 193.32442,261.055886 191.367251,263.267606" id="Stroke-144" stroke="#2700C3" stroke-width="0.540000021" stroke-linecap="round" stroke-linejoin="round"></path>
                                <path d="M82.0137892,289.595288 C82.0137892,289.595288 89.0536873,309.085789 77.0060735,314.786099 C64.9573232,320.486409 69.6308881,348.41793 69.6308881,348.41793 C69.6308881,348.41793 89.4094328,415.111561 82.0137892,431.07243" id="Stroke-146" stroke="#2700C3" stroke-width="0.540000021" stroke-linecap="round" stroke-linejoin="round"></path>
                                <path d="M138.953085,306.805322 C138.953085,306.805322 128.105686,303.955167 127.787447,314.215726 C127.469208,324.476284 141.002316,357.110561 143.044727,361.31511 C145.086002,365.518519 151.09958,370.078767 153.775059,366.08855 C156.451675,362.098333 160.310322,345.601635 156.107296,337.034068 C151.905406,328.466502 148.620727,313.075664 142.874242,311.935602 C137.130031,310.79554 137.24937,307.375354 134.063572,310.79554 L130.87891,314.215726" id="Stroke-148" stroke="#2700C3" stroke-width="0.540000021" stroke-linecap="round" stroke-linejoin="round"></path>
                                <path d="M205.628785,409.980939 C205.628785,409.980939 203.091966,411.121001 205.628785,400.575427 C208.164466,390.029853 211.574168,384.329543 209.585175,368.938705 C207.596183,353.547867 202.615745,328.751517 212.777793,331.886688 C212.777793,331.886688 215.268012,332.769096 219.53014,331.616493 C223.792267,330.46161 225.78126,331.316657 226.349544,334.451828 C226.917827,337.586998 222.681841,402.570536 212.723238,390.029853 C212.723238,390.029853 210.721743,388.889791 210.437601,393.450039 C210.153459,398.010288 206.217526,404.565645 205.628785,413.11611" id="Stroke-150" stroke="#2700C3" stroke-width="0.540000021" stroke-linecap="round" stroke-linejoin="round"></path>
                                <path d="M214.416041,428.791963 C214.416041,428.791963 210.746065,441.602841 212.723692,451.023174 C214.702456,460.443506 211.006339,476.634668 211.006339,476.634668" id="Stroke-152" stroke="#2700C3" stroke-width="0.77982694" stroke-linecap="round" stroke-linejoin="round"></path>
                                <path d="M106.315645,416.112193 C106.315645,416.112193 104.168669,425.371777 95.0761302,431.072088 C85.9835916,436.772398 88.5408681,437.73461 88.5408681,437.73461" id="Stroke-154" stroke="#2700C3" stroke-width="0.540000021" stroke-linecap="round" stroke-linejoin="round"></path>
                                <path d="M97.2631131,431.072088 C97.2631131,431.072088 94.5080739,431.49163 93.9397902,436.26963 C93.3715066,441.047631 91.3825137,451.023174 101.327478,461.568748 C111.272442,472.114322 112.124868,473.17572 107.294456,476.634668 C102.464045,480.094756 93.9807067,488.360206 93.3919648,506.886215 C92.8032229,525.412223 91.3825137,566.454458 86.8362444,582.985358" id="Stroke-156" stroke="#2700C3" stroke-width="0.540000021" stroke-linecap="round" stroke-linejoin="round"></path>
                                <path d="M124.911364,433.80094 C124.911364,433.80094 124.34308,442.664923 126.616215,473.538943" id="Stroke-158" stroke="#2700C3" stroke-width="0.540000021" stroke-linecap="round" stroke-linejoin="round"></path>
                                <path d="M150.877154,431.076534 C150.877154,431.076534 153.151425,432.3021 148.815421,478.630803" id="Stroke-160" stroke="#2700C3" stroke-width="0.540000021" stroke-linecap="round" stroke-linejoin="round"></path>
                                <path d="M128.553153,301.637193 C128.553153,301.637193 123.653411,305.665032 124.139862,311.365343 C124.627449,317.065653 117.194299,319.630793 115.08483,325.046088 C112.977634,330.461382 112.072926,335.306646 112.666215,338.726832" id="Stroke-162" stroke="#2700C3" stroke-width="0.540000021" stroke-linecap="round" stroke-linejoin="round"></path>
                                <path d="M28.1044684,210.470078 C28.1044684,210.470078 31.3823286,212.937172 38.1005781,208.474969 C44.8199642,204.012767 55.8753546,203.059675 51.1813316,210.470078 C46.488445,217.880481 33.9759753,234.126366 38.1005781,249.232188 C42.2263175,264.338011 44.9268015,267.63279 56.9300891,263.705276" id="Stroke-164" stroke="#2700C3" stroke-width="0.540000021" stroke-linecap="round" stroke-linejoin="round"></path>
                                <path d="M21.030928,134.08592 C21.030928,134.08592 24.8418382,129.525671 21.030928,163.442518 C21.030928,163.442518 20.9149981,172.563014 25.7454093,176.268216" id="Stroke-166" stroke="#2700C3" stroke-width="0.540000021" stroke-linecap="round" stroke-linejoin="round"></path>
                                <path d="M32.9960269,181.398495 C32.9960269,181.398495 50.9287863,183.49507 53.2553396,178.742151" id="Stroke-168" stroke="#2700C3" stroke-width="0.540000021" stroke-linecap="round" stroke-linejoin="round"></path>
                                <path d="M53.2555669,176.268216 C53.2555669,176.268216 62.3378765,170.09592 60.9489912,173.609591" id="Stroke-170" stroke="#2700C3" stroke-width="0.540000021" stroke-linecap="round" stroke-linejoin="round"></path>
                                <path d="M25.7458639,4.0286655 C25.7458639,4.0286655 23.3431606,0.639260987 14.6120503,8.10894763 C5.87980349,15.5786343 3.26683519,15.5193511 7.11752531,20.6496303 C10.9704886,25.7799096 -12.8974254,26.3499407 12.6753396,30.6251734 C12.6753396,30.6251734 14.0960487,30.6251734 9.26563757,33.4753286 C4.43522641,36.3254837 9.26563757,36.0404682 9.26563757,36.0404682 C9.26563757,36.0404682 12.1434261,46.4275737 9.99417723,57.9079987 C7.84492841,69.3872836 9.99417723,62.2618957 9.99417723,62.2618957 C9.99417723,62.2618957 14.9484742,57.2273816 12.6753396,64.4473947 C10.4022049,71.6674077 10.6863467,77.6527336 12.6753396,85.063137 C14.6643324,92.4735404 15.695199,100.453975 14.6120503,111.56958 C13.5277651,122.685185 20.0630272,119.267279 18.3581762,131.521806" id="Stroke-172" stroke="#2700C3" stroke-width="0.540000021" stroke-linecap="round" stroke-linejoin="round"></path>
                                <path d="M89.8565584,172.471695 C89.8565584,172.471695 95.3382227,164.10706 97.4806521,168.478058 C99.6230815,172.847916 99.0547979,181.858966 99.0547979,181.858966 C99.0547979,181.858966 97.6340887,187.282242 103.885209,188.616114 C110.136329,189.948847 107.622242,194.032549 107.622242,194.032549" id="Stroke-174" stroke="#2700C3" stroke-width="0.540000021" stroke-linecap="round" stroke-linejoin="round"></path>
                                <path d="M13.212595,228.606413 C13.212595,228.606413 16.6529843,227.114072 16.0847006,229.623349 C15.5164169,232.131485 13.1819076,233.398094 13.212595,231.624158" id="Stroke-176" stroke="#2700C3" stroke-width="0.540000021" stroke-linecap="round" stroke-linejoin="round"></path>
                                <path d="M14.6799034,222.725745 C14.6799034,222.725745 12.9909643,223.865807 14.6799034,224.435838 C16.3688424,225.005869 16.1483484,222.725745 16.1483484,222.725745" id="Stroke-178" stroke="#2700C3" stroke-width="0.540000021" stroke-linecap="round" stroke-linejoin="round"></path>
                                <path d="M108.016063,137.25894 C108.016063,137.25894 106.119132,138.001121 107.643269,138.927991 C109.168542,139.852582 109.448138,137.579298 109.448138,137.579298" id="Stroke-180" stroke="#2700C3" stroke-width="0.540000021" stroke-linecap="round" stroke-linejoin="round"></path>
                                <path d="M102.692836,143.396807 C102.692836,143.396807 96.291689,148.336696 102.692836,148.716336 C109.093983,149.097117 108.121082,143.396807 108.121082,143.396807 C108.121082,143.396807 104.676146,141.460981 102.692836,143.396807 Z" id="Stroke-182" stroke="#2700C3" stroke-width="0.540000021" stroke-linecap="round" stroke-linejoin="round"></path>
                                <path d="M149.580671,163.157502 C149.580671,163.157502 159.945029,151.756882 161.607827,160.116957 C161.607827,160.116957 155.454451,165.817267 160.877014,168.478172 L166.300713,171.137937 C166.300713,171.137937 170.090029,171.144777 166.300713,178.742151" id="Stroke-184" stroke="#2700C3" stroke-width="0.540000021" stroke-linecap="round" stroke-linejoin="round"></path>
                                <path d="M166.86786,152.136522 C166.86786,152.136522 166.134775,155.463224 171.143627,154.939935 C176.151342,154.416647 173.228091,149.097117 170.047976,150.61682" id="Stroke-186" stroke="#2700C3" stroke-width="0.540000021" stroke-linecap="round" stroke-linejoin="round"></path>
                                <path d="M6.91601193,1.05720774 C6.91601193,1.05720774 4.96566238,-1.73024401 1.96739776,2.32609682 C-1.02859373,6.38471777 4.85655192,7.81549566 5.88628192,4.4363517" id="Stroke-188" stroke="#2700C3" stroke-width="0.540000021" stroke-linecap="round" stroke-linejoin="round"></path>
                                <path d="M209.883183,185.007932 C209.883183,185.007932 221.613695,175.311704 217.445902,188.616228 C213.279247,201.919613 215.45009,212.180171 215.45009,212.180171 C215.45009,212.180171 216.205907,215.355244 218.341517,214.717949 C220.477127,214.080655 214.113487,228.810256 214.113487,228.810256 L212.142679,228.810256" id="Stroke-190" stroke="#2700C3" stroke-width="0.540000021" stroke-linecap="round" stroke-linejoin="round"></path>
                                <path d="M271.096881,71.1922299 C271.096881,71.1922299 276.169381,65.1122789 275.032814,71.1922299 C273.896247,77.2733209 273.138156,77.7726681 269.728454,79.993509 C266.318752,82.2132098 265.414045,89.0535822 267.75992,90.5732849 C270.108068,92.0941277 261.015529,104.740836 261.015529,104.740836 C261.015529,104.740836 256.847737,116.671586 258.742394,120.153335 C260.635916,123.635085 249.123625,142.536174 249.123625,142.536174 C249.123625,142.536174 239.775359,153.231096 241.925744,157.053724 C244.074993,160.876352 245.187692,163.537257 241.925744,168.478286 C238.662659,173.418175 245.683236,176.845202 241.604096,178.742265 C237.526092,180.638188 224.72948,184.628405 229.423504,185.103811 C234.11639,185.579217 233.225321,188.241262 231.966005,190.140605 C230.706688,192.038809 231.966005,194.032777 231.966005,194.032777 C231.966005,194.032777 223.025766,210.414329 218.341972,214.718063" id="Stroke-192" stroke="#2700C3" stroke-width="0.540000021" stroke-linecap="round" stroke-linejoin="round"></path>
                                <path d="M249.123625,178.742037 C249.123625,178.742037 253.816512,178.899365 254.574602,181.858966" id="Stroke-194" stroke="#2700C3" stroke-width="0.540000021" stroke-linecap="round" stroke-linejoin="round"></path>
                                <path d="M57.4732547,444.397703 C57.4732547,444.397703 55.7036193,452.651752 61.7365187,459.152386 C67.7705547,465.6553 74.1251027,464.894879 74.1251027,464.894879" id="Stroke-196" stroke="#2700C3" stroke-width="0.540000021" stroke-linecap="round" stroke-linejoin="round"></path>
                                <path d="M181.938516,152.670984 C181.938516,152.670984 204.501651,162.777634 194.304369,160.116729 C184.107086,157.456964 176.297732,157.054522 176.297732,157.054522 C176.297732,157.054522 190.251369,159.238881 194.304369,163.157274" id="Stroke-198" stroke="#2700C3" stroke-width="0.540000021" stroke-linecap="round" stroke-linejoin="round"></path>
                                <path d="M279.200493,70.4328345 C279.200493,70.4328345 275.0327,70.0520538 279.200493,73.47224 C283.367149,76.8924262 288.95565,78.8464925 287.536078,76.1285846 C286.116505,73.4118167 279.515322,67.6089008 277.347888,68.4901688" id="Stroke-200" stroke="#2700C3" stroke-width="0.540000021" stroke-linecap="round" stroke-linejoin="round"></path>
                                <path d="M272.759566,135.796013 C272.759566,135.796013 277.637713,132.554816 275.198639,142.53606 C272.759566,152.517303 268.971387,163.157502 268.971387,163.157502 C268.971387,163.157502 267.076729,157.493674 268.971387,148.735717 C270.864908,139.97662 271.252477,134.026637 275.198639,133.880709" id="Stroke-202" stroke="#2700C3" stroke-width="0.540000021" stroke-linecap="round" stroke-linejoin="round"></path>
                                <path d="M131.750771,423.531489 C131.750771,423.531489 143.224419,421.487358 153.273947,422.222698" id="Stroke-204" stroke="#2700C3" stroke-width="1.03976925" stroke-linecap="round" stroke-linejoin="round"></path>
                                <path d="M154.579863,300.693108 C154.579863,300.693108 163.575793,317.338014 165.564786,330.448728" id="Stroke-206" stroke="#2700C3" stroke-width="1.03976925" stroke-linecap="round" stroke-linejoin="round"></path>
                                <path d="M137.220502,270.326643 C137.220502,270.326643 138.237729,292.761924 153.121079,299.679821 C153.121079,299.679821 173.988455,307.287455 184.027754,293.197428" id="Stroke-208" stroke="#2700C3" stroke-width="1.03976925" stroke-linecap="round" stroke-linejoin="round"></path>
                                <path d="M127.781651,242.391816 C127.781651,242.391816 128.237414,248.081866 133.500858,247.102552 C138.765438,246.123239 153.07823,243.959401 168.049095,238.401599" id="Stroke-210" stroke="#2700C3" stroke-width="1.03976925" stroke-linecap="round" stroke-linejoin="round"></path>
                                <path d="M130.608635,263.219154 C130.608635,263.219154 132.057758,253.321135 131.109861,247.921801" id="Stroke-212" stroke="#2700C3" stroke-width="1.03976925" stroke-linecap="round" stroke-linejoin="round"></path>
                                <path d="M124.34308,435.632336 L124.34308,442.948114" id="Stroke-214" stroke="#2700C3" stroke-width="2.07953851" stroke-linecap="round" stroke-linejoin="round"></path>
                                <path d="M149.996882,433.80094 C149.996882,433.80094 150.762929,443.232674 150.143499,445.132017" id="Stroke-216" stroke="#2700C3" stroke-width="1.03976925" stroke-linecap="round" stroke-linejoin="round"></path>
                                <path d="M57.5409941,432.601823 C57.5409941,432.601823 57.1306933,434.810123 67.6075709,436.637642" id="Stroke-218" stroke="#2700C3" stroke-width="1.03976925" stroke-linecap="round" stroke-linejoin="round"></path>
                                <path d="M190.926718,431.072088 C190.926718,431.072088 188.937725,434.706605 188.701319,437.73461" id="Stroke-220" stroke="#2700C3" stroke-width="1.03976925" stroke-linecap="round" stroke-linejoin="round"></path>
                            </g>
                        </g>
                    </g>
                </g>
            </g>
        </g>
    </g>
</svg>