<?xml version="1.0" encoding="UTF-8"?>
<svg width="1435px" height="440px" viewBox="0 0 1435 440" version="1.1" xmlns="http://www.w3.org/2000/svg" xmlns:xlink="http://www.w3.org/1999/xlink">
    <!-- Generator: Sketch 52.2 (67145) - http://www.bohemiancoding.com/sketch -->
    <title>front</title>
    <desc>Created with Sketch.</desc>
    <g id="RDB-Web-Design" stroke="none" stroke-width="1" fill="none" fill-rule="evenodd">
        <g id="React-day-Berlin-2018-web" transform="translate(-5.000000, -357.000000)">
            <g id="1-Screen" transform="translate(-12.000000, -4.000000)">
                <g id="Visual" transform="translate(12.000000, 0.000000)">
                    <g id="front" transform="translate(5.000000, 361.000000)">
                        <g id="Group-6" transform="translate(364.000000, 212.000000)">
                            <path d="M155.789871,41.7370715 C155.790929,41.7338946 155.790929,41.7317767 155.790929,41.7275408 L155.7994,41.7296587 C155.801518,41.7328356 155.7994,41.7349535 155.798341,41.7370715 L155.789871,41.7370715 Z M152.202576,33.8943969 C151.804459,34.0447696 151.403165,34.1972601 151.002929,34.3486917 C150.620694,33.9589936 150.1834,34.3476328 149.779988,34.2597389 C148.657635,34.0744205 147.567047,33.6635432 146.400224,33.7895597 C145.990459,33.0652295 145.905753,32.2847743 146.019047,31.4746682 C146.770812,31.5858592 147.5194,31.7669417 148.273282,31.7944748 C149.512106,31.8421281 150.652459,32.1216941 151.989753,31.9300219 C151.989753,31.9300219 153.245518,32.0825125 154.317047,32.2127649 C153.928459,32.35043 153.540929,32.489154 153.154459,32.6268191 C152.616576,32.8852059 152.134812,33.1827743 152.202576,33.8943969 Z M153.713518,44.4321304 L151.561988,44.4321304 C151.487871,44.1737436 151.398929,43.8867649 151.432812,43.76922 C151.771635,43.2492696 151.349165,42.3544465 151.981282,41.8376729 L152.232224,42.3427979 C152.512812,42.5207035 152.831518,42.4952884 153.141753,42.5154087 C153.193635,42.7536752 153.363047,42.8860455 153.631988,42.9315809 C153.914694,43.0215927 153.797165,43.2153828 153.752694,43.3911705 C153.594929,43.7173309 153.505988,44.10597 153.713518,44.4321304 Z M151.210459,44.1652719 C151.213635,44.164213 151.215753,44.163154 151.218929,44.162095 C151.216812,44.1652719 151.214694,44.1695078 151.212576,44.1737436 C151.211518,44.1705667 151.210459,44.1684488 151.210459,44.1652719 Z M149.940929,37.1157601 L150.034106,37.8813899 C149.994929,37.9449276 149.955753,38.0074064 149.916576,38.0698851 C149.5534,38.2361422 145.834812,42.8309795 145.328694,43.3943474 C145.1974,43.1137224 145.209047,42.7430856 144.900929,42.5736517 C145.065047,42.2517271 145.151871,41.9202719 145.045988,41.5591658 C145.024812,41.5401045 145.005753,41.5231611 144.985635,41.5083356 C145.059753,41.2891304 145.134929,41.0709842 145.209047,40.852838 C145.641047,40.7490597 145.798812,40.4228993 145.879282,40.0533215 C146.059282,39.2442743 146.326106,38.4532295 146.4034,37.6219441 C146.491282,36.698529 146.484929,35.7751139 146.454224,34.8485219 C146.445753,34.7521564 146.434106,34.6589677 146.413988,34.56472 C146.404459,34.539305 146.400224,34.5138899 146.395988,34.4874158 C146.988929,34.0479465 149.795871,34.8421682 150.244812,34.735213 C150.389871,35.5421422 149.673047,36.2601186 149.9674,37.0818733 C149.958929,37.0935219 149.9494,37.1041116 149.940929,37.1157601 Z M144.196812,44.4321304 L144.196812,44.1303262 C144.208459,44.0900856 144.239165,44.0604347 144.332341,44.0699653 C145.078812,44.1483285 145.078812,44.1419748 145.564812,43.7226257 C145.767047,43.5987271 148.575047,40.0617932 149.147871,39.3247554 C149.219871,39.3162837 149.290812,39.3067531 149.363871,39.2982814 C149.392459,39.4359465 149.423165,39.5736116 149.452812,39.7123356 C149.361753,40.1158002 149.200812,40.515029 149.382929,40.9333191 C149.386106,41.2012366 149.357518,41.4744488 149.525871,41.7127153 C150.0214,42.5556493 149.958929,43.5118922 149.905988,44.4321304 L144.196812,44.4321304 Z M117.126929,44.4321304 C117.173518,43.1571399 117.851165,41.9912224 118.1434,40.7893002 C118.158224,40.7299983 118.363635,40.7162318 118.481165,40.682345 C118.916341,41.1408757 120.916459,43.771338 121.885282,44.2404583 C121.895871,44.2891705 121.906459,44.36118 121.918106,44.4321304 L117.126929,44.4321304 Z M116.687518,34.70768 C117.005165,34.6536729 117.305871,34.5297743 117.217988,34.1496068 C117.140694,33.8065031 116.794459,33.892279 116.549871,33.9102814 C116.327518,33.9282837 116.111518,34.0288851 115.892341,34.0924229 C115.932576,33.7482601 115.585282,33.724963 115.431753,33.5417625 C115.167047,33.2261917 115.318459,33.24843 115.676341,33.2208969 C117.348224,33.387154 118.931165,33.6254205 120.160459,33.7768521 C120.101165,34.4196422 120.070459,35.0613733 120.248341,35.7052224 C120.322459,35.8905408 120.396576,36.0779771 120.470694,36.2643545 C120.291753,37.036338 120.680341,37.7596092 120.661282,38.5188851 C120.570224,39.1447318 120.748106,39.6773899 121.208694,40.1136823 C121.319871,40.1983993 121.411988,40.4059559 121.570812,40.1676894 C121.614224,40.2968828 121.656576,40.4260762 121.699988,40.5542106 C121.388694,41.0889866 121.361165,41.6121139 121.7614,42.1172389 L121.894812,42.480463 C121.875753,42.5249394 121.8514,42.5683568 121.821753,42.6096564 C121.705282,42.8532177 121.741282,43.097838 121.773047,43.3445762 C121.171635,42.9315809 118.789282,40.262996 118.792459,40.2216965 C118.768106,39.8563545 118.591282,39.5556092 118.382694,39.2718073 C118.376341,39.2643946 118.371047,39.2580408 118.365753,39.2506281 C118.371047,39.2178002 118.376341,39.1860314 118.3774,39.1532035 C118.437753,37.7246634 117.785518,36.4655573 117.414929,35.1407955 C117.349282,35.1386776 117.283635,35.1376186 117.217988,35.1376186 C117.040106,35.098437 116.828341,35.1948026 116.6854,35.0084252 C116.686459,34.9088828 116.687518,34.8082814 116.687518,34.70768 Z M115.870106,44.4321304 L114.598459,44.4321304 C114.6334,44.2362224 114.713871,43.8984134 114.8854,43.7120361 C115.010341,43.5775479 115.557753,43.5786068 115.884929,43.5394252 C115.957988,43.7374512 116.031047,43.9344182 116.106224,44.1324441 C116.083988,44.2393993 116.097753,44.3421186 116.112576,44.4321304 L115.870106,44.4321304 Z M160.069635,27.4326092 C160.069635,27.4336682 160.070694,27.4347271 160.070694,27.4357861 L160.069635,27.4326092 Z M255.799988,63.2011776 L255.799988,54.6193474 L258.352812,54.6193474 L258.352812,48.6478592 L259.859518,48.6478592 L259.859518,45.7727767 L264.723753,45.7727767 L264.723753,44.4321304 L156.848694,44.4321304 C156.774576,44.2341045 156.701518,44.0074866 156.626341,43.8380526 C156.525753,43.4991847 156.545871,43.151845 156.525753,42.8108592 C156.473871,41.863088 157.3114,41.2330054 157.244694,40.3297106 C157.902224,40.43243 157.255282,40.8094205 157.174812,41.1080479 C157.103871,41.3706705 157.805871,42.2008969 158.161635,41.9785149 C159.031988,41.2954842 158.719635,40.0617932 159.182341,39.1659111 C159.900224,39.363937 160.073871,38.4765267 160.729282,38.5082955 C160.495282,39.9844889 160.509047,41.3632578 159.528576,42.3862153 C159.313635,42.6107153 159.2554,42.985588 159.303047,43.3308097 C159.216224,43.8878238 159.459753,44.1568002 160.017753,44.1515054 C161.130576,43.9132389 161.046929,43.1910267 161.060694,42.5175267 C161.734106,41.1101658 161.519165,39.4878356 162.143871,38.0603545 C162.273047,37.764904 162.350341,37.3582625 162.054929,37.0426917 C161.802929,36.6625243 161.341282,36.669937 160.990812,36.4687342 C161.074459,35.6649818 161.125282,34.8538167 161.459871,34.0987767 C161.425988,33.5332908 161.540341,32.9307413 161.047988,32.4817413 C160.969635,32.0655691 160.628694,31.8093002 160.430694,31.4672554 C160.563047,30.9293026 160.138459,30.3818191 160.455047,29.8459842 C160.553518,29.2783804 160.542929,29.2550833 160.531282,29.2307271 C160.761047,28.8939771 160.761047,28.4809818 160.853165,28.0997554 C161.287282,27.8847861 161.373047,27.4897932 161.763753,27.2864724 C162.000929,27.1625738 162.332341,26.7855833 162.175635,26.3598804 C161.976576,25.810279 162.105753,25.2437342 162.057047,24.68672 C162.301635,24.5511729 162.432929,24.3467932 162.430812,24.0640502 C162.673282,23.536687 162.011518,23.0103828 162.429753,22.4840785 C162.679635,21.9863663 163.026929,21.7205667 162.772812,21.3298097 C162.681753,21.2133238 162.310106,21.5363073 162.082459,21.6390267 C161.437635,21.23768 161.337047,21.2990998 161.2714,21.12543 C161.438694,20.955996 161.550929,20.6531328 161.321165,20.4572248 C160.624459,20.7802083 160.433871,20.9867059 160.243282,21.1953215 C159.659871,21.7629252 158.804341,22.0202531 158.416812,22.80918 C157.9594,23.2073498 157.616341,23.6849417 157.407753,24.2567814 C157.044576,24.7513167 156.618929,25.2151422 156.601988,25.8801705 C156.220812,26.2857531 155.9434,26.7495785 155.780341,27.2811776 C155.534694,27.9366752 155.428812,28.6059394 155.586576,29.2995597 C155.458459,29.8428073 154.959753,30.3331068 155.353635,30.9494229 C155.024341,31.1516847 154.852812,31.3550054 154.810459,31.6504559 C153.173518,31.4481941 150.025635,31.3761847 149.192341,31.2491092 C148.207635,30.9981351 147.189047,31.0627318 146.191635,30.8456446 C145.497047,30.3934677 145.378459,29.5780667 144.646812,29.2720267 C144.5854,28.5424017 144.6034,28.2257719 144.6214,27.9102012 C144.952812,27.1435125 144.727282,26.3376422 144.781282,25.5518922 C144.642576,24.8127366 144.959165,24.1530031 145.1434,23.4699724 C145.081988,23.199937 145.020576,22.9309606 144.959165,22.6609252 C145.054459,22.1377979 145.393282,21.6527932 145.203753,21.0851894 L144.766459,20.337562 L144.400106,19.6195856 C144.5494,19.3304889 144.689165,19.0392743 144.516576,18.682404 C144.388459,18.5828616 143.986106,19.1938828 143.746812,19.1970597 C143.230106,18.5066163 142.715518,18.8867837 142.384106,18.9259653 C141.730812,19.0032696 142.071753,19.6725337 141.863165,20.0346988 C141.571988,20.171305 141.581518,20.4360455 141.583635,20.6976092 C141.019282,21.6379677 140.867871,22.5730314 140.646576,23.4847979 C140.275988,24.1053498 140.5174,24.8646257 140.190224,25.4957672 C139.703165,26.4117696 140.109753,27.551213 139.168459,28.2829559 C139.109165,27.9906823 139.187518,27.6666399 138.965165,27.4124889 C138.754459,26.5790856 138.614694,26.3037554 138.406106,26.0601941 C138.088459,25.6344913 137.770812,25.2193781 137.197988,25.7297979 C136.591282,25.896055 136.500224,26.2984606 136.643165,26.7347531 C136.753282,27.0662083 136.751165,27.355305 136.642106,27.6655809 C136.211165,27.4453167 136.024812,27.2504677 135.731518,27.2917672 C135.122694,26.9296021 134.943753,26.7802884 134.763753,26.6320337 C134.6674,26.3810597 134.571047,26.1311446 134.474694,25.8791116 C134.605988,25.5338899 134.738341,25.1886682 134.870694,24.8445054 C135.462576,24.1995974 135.5854,23.6330526 135.3874,22.9786139 C135.3334,22.6492767 135.150224,22.4523097 134.809282,22.4205408 C134.026812,21.6114936 133.561988,21.7343333 133.017753,22.0266068 C133.138459,21.291687 132.821871,20.8522177 132.182341,20.4889936 L132.182341,18.2810573 C132.545518,18.1815149 132.661988,17.587437 132.303047,17.503779 C132.697988,17.1214936 132.172812,16.8165125 132.378224,16.4225785 C132.726576,16.0413521 132.405753,15.6770691 132.182341,15.4525691 C132.555047,15.4165644 132.784812,15.3519677 132.999753,15.2534842 C133.603282,15.0279252 134.126341,14.6466988 134.517047,14.1563993 C135.071871,13.2996988 135.256106,12.7024441 135.256106,12.0628309 C135.256106,10.5082743 134.193047,9.19833797 132.738224,8.78428373 C133.799165,7.83863042 134.364576,7.67343231 134.7034,7.02534741 C134.885518,6.72777901 134.530812,6.51704552 134.5774,6.24171533 C134.764812,6.10722712 134.995635,6.00874363 134.990341,5.72176486 C135.127988,5.54809505 135.265635,5.3754842 135.404341,5.20181439 C136.024812,4.8057625 136.132812,4.23709976 135.953871,3.5710125 C136.682341,2.9059842 136.276812,2.27060684 136.703518,1.97197948 C136.584929,1.66170354 136.885635,1.22752901 136.703518,0.938432311 C136.684459,0.691694104 135.349282,1.69876722 134.910929,2.34579316 C133.545047,3.19613986 132.745635,3.63984505 132.995518,4.77822948 C132.999753,5.19228373 132.810224,5.4231375 132.379282,5.4231375 C132.195047,5.25688042 131.795871,5.32041816 131.830812,4.91589458 C132.215165,4.17250307 132.036224,2.98328844 131.4274,3.06165165 C130.445871,3.38463514 130.791047,4.30487335 131.154224,4.99531675 C129.689871,5.27276486 130.371753,4.61091344 129.754459,4.38005967 C129.018576,3.81457382 128.296459,3.22684976 127.364694,3.00552665 C127.085165,2.77996769 126.834224,2.49828373 126.519753,2.34791108 C126.195753,2.19118467 125.959635,1.56004316 125.565753,1.92538514 C125.328576,2.14776722 125.863282,2.38179788 125.825165,2.95151958 C126.035871,3.4026375 125.712929,3.51912335 125.8834,3.79445354 C126.360929,3.96812335 126.276224,4.60667759 126.719871,4.80893939 C127.408106,5.97273892 127.853871,6.7701375 128.875635,6.87179788 C129.013282,8.11501958 129.127635,8.21456203 130.137753,7.97523656 C130.696812,8.36599363 130.445871,8.66038514 130.291282,8.96113042 C129.088459,9.50226014 128.253047,10.68618 128.253047,12.0628309 C128.253047,12.6876186 128.427753,13.2711068 128.729518,13.7762318 C129.038694,14.3163026 129.493988,14.7642436 130.021282,15.0289842 C130.696812,15.5902342 130.9414,15.6272979 131.1754,15.6844818 C130.936106,15.903687 130.872576,16.2160809 130.918106,16.5856587 C130.984812,16.9075833 131.054694,17.2263309 131.271753,17.4889535 C131.074812,17.6986281 131.164812,18.1169182 131.3374,18.2101068 C131.573518,19.1430526 131.613753,19.5443993 131.605282,20.2062507 C130.316694,21.4102908 129.744929,22.5740903 129.121282,23.929562 C128.690341,24.1794771 128.796224,24.6718946 128.731635,25.0848899 C128.170459,25.8282814 127.405988,26.2052719 127.537282,27.1085667 C127.403871,27.4188427 127.415518,27.7322955 127.505518,28.0489252 C127.188929,28.4312106 127.365753,28.8812696 127.330812,29.3027366 C127.109518,30.0175361 127.678106,30.8392908 127.031165,31.4947884 C126.706106,30.8752955 126.382106,30.2547436 126.057047,29.6352507 C126.177753,29.149187 126.173518,28.6959512 125.727753,28.3549653 C125.711871,28.0743403 125.694929,27.7915974 125.680106,27.5088545 C125.694929,27.0895054 125.710812,26.6701564 125.726694,26.2508073 C125.839988,25.9299417 125.954341,25.6090762 126.068694,25.2882106 C126.640459,24.6750715 126.222224,24.0587554 126.075047,23.4424394 C126.130106,23.1099252 126.420224,22.7880007 126.120576,22.4406611 C125.662106,21.9080031 125.572106,21.2217955 125.342341,20.5938309 C125.237871,20.2959095 124.812576,20.2030738 124.066459,20.3153238 C123.455518,20.2062507 122.900694,20.1649512 123.1294,21.0809535 C123.080694,21.2002633 122.992812,21.3919355 122.865753,21.65597 C122.497282,21.7862224 122.516341,22.0922625 122.531165,22.3972436 C122.791635,22.8494205 122.626459,23.3640762 122.747165,23.8374323 C122.712224,24.4611611 122.678341,25.0785361 122.548106,25.698029 C122.437988,26.2169205 122.090694,26.7538144 122.458106,27.3087106 C122.331047,27.5014417 122.202929,27.6941729 122.075871,27.886904 C121.650224,28.4936894 121.207635,29.0983568 121.702106,29.879871 C121.470224,30.2145031 121.388694,30.7641045 120.901635,30.9843686 C120.229282,31.3634771 120.084224,31.7521163 120.264224,32.263595 C120.268459,32.6617649 120.230341,33.0599347 120.191165,33.4570455 C118.397518,33.1690078 116.100929,32.8894417 115.685871,32.8862649 C114.743518,32.4658568 114.066929,32.9773356 113.992812,32.3324276 C113.934576,32.0931021 113.665635,31.9374347 113.673047,31.6726941 C113.029282,30.973779 112.848224,30.722805 112.666106,30.469713 C112.544341,29.3779229 112.420459,28.842088 112.129282,28.3676729 C111.922812,28.0806941 111.803165,27.9080833 111.877282,27.6782884 C111.604106,26.9984347 111.409282,26.2719866 111.036576,25.6535526 C110.539988,24.8307389 110.555871,23.6754111 109.497047,23.2126446 C109.318106,22.7149323 108.807753,22.5423215 108.489047,22.1822743 C108.191518,21.5257177 107.593282,21.6813851 107.061753,21.6538521 C106.396812,21.6792672 105.839871,22.0276658 105.249047,22.2680502 C104.901753,22.8007083 105.186576,23.2126446 105.674694,23.4858568 C105.704341,23.7410667 105.526459,23.9126186 105.420576,24.1127625 C105.378224,25.0393545 105.623871,25.6186068 105.8674,26.1989182 C105.722341,26.5420219 105.881165,26.9528993 105.630224,27.2727059 C105.331635,28.0944606 105.978576,28.4523899 106.432812,28.9056257 C106.442341,29.8692814 107.436576,30.2558026 107.702341,31.0712035 C108.087753,31.19722 107.520224,32.3451351 107.362459,32.6691776 C106.631871,33.022871 106.864812,33.7186092 106.783282,34.3010384 C106.483635,34.8093403 106.673165,35.2996399 106.840459,35.7899394 C106.964341,36.1563403 107.140106,36.5206233 106.830929,36.8838474 C106.542929,36.9558568 106.392576,37.147529 106.3534,37.4355667 C106.316341,39.6540927 106.248576,41.4469158 106.438106,43.2185597 C106.476224,43.57543 106.471988,44.0445502 106.974929,44.1822153 C108.248694,44.1292672 108.028459,43.6177884 108.022106,43.1719653 C108.162929,42.7663828 107.823047,42.5005833 107.734106,42.1648922 C107.429165,41.0243899 106.859518,39.8764748 107.635635,38.7010267 C108.573753,39.6583285 108.514459,40.6632837 109.513988,40.9534394 C110.395988,41.4066752 110.737988,41.5845809 111.149871,41.3643167 C111.511988,40.8570738 110.552694,40.0702649 110.659635,39.9484842 C111.160459,40.6759913 111.863518,40.0003733 111.840224,40.2958238 C111.444224,40.8464842 111.740694,41.5792861 112.246812,41.947805 C112.150459,42.7790903 112.726459,43.4716517 112.7254,44.2923474 C112.7254,44.3212924 76.1486941,44.3678867 2.99528235,44.4321304 L2.99528235,45.7727767 L7.85845882,45.7727767 L7.85845882,48.6478592 L9.36516471,48.6478592 L9.36516471,54.6193474 L11.9179882,54.6193474 L11.9179882,63.2011776 L0.313282353,63.2011776 L0.313282353,64.5407649 L5.17751765,64.5407649 L5.17751765,67.4179653 L6.68528235,67.4179653 L6.68528235,73.3894535 L9.23704706,73.3894535 L9.23704706,94.5379889 L8.51598824,95.9474677 L10.7098706,95.9474677 L10.7098706,101.116263 L12.3150471,101.116263 L11.0751647,187.589003 L9.40857647,187.589003 L9.40857647,199.725989 L11.0444588,199.725989 L26.7944588,199.725989 L28.4303412,199.725989 L28.4303412,187.589003 L26.7648118,187.589003 L25.5249294,101.116263 L27.1290471,101.116263 L27.1290471,95.9474677 L29.3239882,95.9474677 L29.3239882,94.6502389 L48.7311647,94.6502389 L48.7311647,95.9474677 L50.9239882,95.9474677 L50.9239882,101.116263 L52.5302235,101.116263 L51.2903412,187.589003 L49.6237529,187.589003 L49.6237529,199.725989 L51.2596353,199.725989 L67.0096353,199.725989 L68.6444588,199.725989 L68.6444588,187.589003 L66.9789294,187.589003 L65.7390471,101.116263 L67.3442235,101.116263 L67.3442235,95.9474677 L69.5381059,95.9474677 L69.5381059,94.6502389 L88.9452824,94.6502389 L88.9452824,95.9474677 L91.1391647,95.9474677 L91.1391647,101.116263 L92.7443412,101.116263 L91.5044588,187.589003 L89.8378706,187.589003 L89.8378706,199.725989 L91.4737529,199.725989 L107.223753,199.725989 L108.859635,199.725989 L108.859635,187.589003 L107.194106,187.589003 L105.954224,101.116263 L107.558341,101.116263 L107.558341,95.9474677 L109.753282,95.9474677 L109.753282,94.6502389 L156.522576,94.6502389 L156.522576,95.9474677 L158.7154,95.9474677 L158.7154,101.116263 L160.320576,101.116263 L159.081753,187.589003 L157.414106,187.589003 L157.414106,199.725989 L159.049988,199.725989 L174.799988,199.725989 L176.435871,199.725989 L176.435871,187.589003 L174.770341,187.589003 L173.530459,101.116263 L175.136694,101.116263 L175.136694,95.9474677 L177.329518,95.9474677 L177.329518,94.6502389 L196.736694,94.6502389 L196.736694,95.9474677 L198.929518,95.9474677 L198.929518,101.116263 L200.535753,101.116263 L199.295871,187.589003 L197.629282,187.589003 L197.629282,199.725989 L199.265165,199.725989 L215.015165,199.725989 L216.651047,199.725989 L216.651047,187.589003 L214.984459,187.589003 L213.745635,101.116263 L215.349753,101.116263 L215.349753,95.9474677 L217.543635,95.9474677 L217.543635,94.6502389 L236.951871,94.6502389 L236.951871,95.9474677 L239.144694,95.9474677 L239.144694,101.116263 L240.749871,101.116263 L239.511047,187.589003 L237.8434,187.589003 L237.8434,199.725989 L239.479282,199.725989 L255.229282,199.725989 L256.865165,199.725989 L256.865165,187.589003 L255.199635,187.589003 L253.959753,101.116263 L255.564929,101.116263 L255.564929,95.9474677 L257.758812,95.9474677 L257.758812,94.6502389 L258.481988,73.3894535 L261.034812,73.3894535 L261.034812,67.4179653 L262.541518,67.4179653 L262.541518,64.5407649 L267.404694,64.5407649 L267.404694,63.2011776 L255.799988,63.2011776 Z" id="Build-3" fill="#FFFFFF"></path>
                            <path d="M2.99475294,45.7722472 L95.2013412,45.7722472" id="Stroke-84" stroke="#1703C4" stroke-width="0.794117647" stroke-linecap="round" stroke-linejoin="round"></path>
                            <path d="M7.85867059,48.6481769 L54.0826706,48.6481769" id="Stroke-85" stroke="#1703C4" stroke-width="0.5" stroke-linecap="round" stroke-linejoin="round"></path>
                            <path d="M9.36527059,54.6193474 L66.4358588,54.6193474" id="Stroke-86" stroke="#1703C4" stroke-width="0.794117647" stroke-linecap="round" stroke-linejoin="round"></path>
                            <path d="M0.3136,63.2006481 L49.0978353,63.2006481" id="Stroke-87" stroke="#1703C4" stroke-width="0.794117647" stroke-linecap="round" stroke-linejoin="round"></path>
                            <path d="M0.3136,64.5409767 L29.5540706,64.5409767" id="Stroke-88" stroke="#1703C4" stroke-width="0.5" stroke-linecap="round" stroke-linejoin="round"></path>
                            <path d="M5.17751765,67.4178594 L41.5534,67.4178594" id="Stroke-89" stroke="#1703C4" stroke-width="0.5" stroke-linecap="round" stroke-linejoin="round"></path>
                            <path d="M6.68507059,73.38903 L47.2009529,73.38903" id="Stroke-90" stroke="#1703C4" stroke-width="0.794117647" stroke-linecap="round" stroke-linejoin="round"></path>
                            <path d="M8.51630588,94.5383066 L65.7298353,94.5383066" id="Stroke-91" stroke="#1703C4" stroke-width="0.5" stroke-linecap="round" stroke-linejoin="round"></path>
                            <path d="M8.51630588,95.9477854 L21.4360706,95.9477854" id="Stroke-92" stroke="#1703C4" stroke-width="0.794117647" stroke-linecap="round" stroke-linejoin="round"></path>
                            <path d="M10.7094471,101.116474 L19.8481529,101.116474" id="Stroke-93" stroke="#1703C4" stroke-width="0.794117647" stroke-linecap="round" stroke-linejoin="round"></path>
                            <path d="M48.7309529,95.9477854 L59.3774235,95.9477854" id="Stroke-94" stroke="#1703C4" stroke-width="0.794117647" stroke-linecap="round" stroke-linejoin="round"></path>
                            <path d="M50.9240941,101.116474 L59.3766824,101.116474" id="Stroke-95" stroke="#1703C4" stroke-width="0.794117647" stroke-linecap="round" stroke-linejoin="round"></path>
                            <path d="M88.9456,94.6500271 L104.201129,94.6500271" id="Stroke-96" stroke="#1703C4" stroke-width="0.5" stroke-linecap="round" stroke-linejoin="round"></path>
                            <path d="M88.9456,95.9477854 L97.4945412,95.9477854" id="Stroke-97" stroke="#1703C4" stroke-width="0.794117647" stroke-linecap="round" stroke-linejoin="round"></path>
                            <path d="M91.1387412,101.116474 L99.0830941,101.116474" id="Stroke-98" stroke="#1703C4" stroke-width="0.794117647" stroke-linecap="round" stroke-linejoin="round"></path>
                            <path d="M156.522047,94.6500271 L169.142165,94.6500271" id="Stroke-99" stroke="#1703C4" stroke-width="0.5" stroke-linecap="round" stroke-linejoin="round"></path>
                            <path d="M156.522047,95.9477854 L172.671224,95.9477854" id="Stroke-100" stroke="#1703C4" stroke-width="0.794117647" stroke-linecap="round" stroke-linejoin="round"></path>
                            <path d="M158.715188,101.116474 L170.730718,101.116474" id="Stroke-101" stroke="#1703C4" stroke-width="0.794117647" stroke-linecap="round" stroke-linejoin="round"></path>
                            <path d="M196.736694,94.6500271 L213.259635,94.6500271" id="Stroke-102" stroke="#1703C4" stroke-width="0.5" stroke-linecap="round" stroke-linejoin="round"></path>
                            <path d="M196.736694,95.9477854 L204.998694,95.9477854" id="Stroke-103" stroke="#1703C4" stroke-width="0.794117647" stroke-linecap="round" stroke-linejoin="round"></path>
                            <path d="M198.929835,101.116474 L208.495247,101.116474" id="Stroke-104" stroke="#1703C4" stroke-width="0.794117647" stroke-linecap="round" stroke-linejoin="round"></path>
                            <path d="M236.951341,94.6500271 L252.6124,94.6500271" id="Stroke-105" stroke="#1703C4" stroke-width="0.5" stroke-linecap="round" stroke-linejoin="round"></path>
                            <path d="M236.951341,95.9477854 L250.318988,95.9477854" id="Stroke-106" stroke="#1703C4" stroke-width="0.794117647" stroke-linecap="round" stroke-linejoin="round"></path>
                            <path d="M239.144482,101.116474 L247.672247,101.116474" id="Stroke-107" stroke="#1703C4" stroke-width="0.794117647" stroke-linecap="round" stroke-linejoin="round"></path>
                            <path d="M162.832635,187.608064 L176.4364,187.608064" id="Stroke-108" stroke="#1703C4" stroke-width="0.794117647" stroke-linecap="round" stroke-linejoin="round"></path>
                            <path d="M208.495459,187.608064 L216.650518,187.608064" id="Stroke-109" stroke="#1703C4" stroke-width="0.5" stroke-linecap="round" stroke-linejoin="round"></path>
                            <path d="M250.318988,187.608064 L256.865694,187.608064" id="Stroke-110" stroke="#1703C4" stroke-width="0.5" stroke-linecap="round" stroke-linejoin="round"></path>
                            <path d="M99.0829882,187.608064 L108.859106,187.608064" id="Stroke-111" stroke="#1703C4" stroke-width="0.794117647" stroke-linecap="round" stroke-linejoin="round"></path>
                            <path d="M62.0241647,187.608064 L68.6449882,187.608064" id="Stroke-112" stroke="#1703C4" stroke-width="0.794117647" stroke-linecap="round" stroke-linejoin="round"></path>
                            <path d="M19.8480471,187.608064 L28.4298118,187.608064" id="Stroke-113" stroke="#1703C4" stroke-width="0.5" stroke-linecap="round" stroke-linejoin="round"></path>
                            <path d="M264.723753,45.7722472 L225.437165,45.7722472" id="Stroke-114" stroke="#1703C4" stroke-width="0.794117647" stroke-linecap="round" stroke-linejoin="round"></path>
                            <path d="M259.859729,48.6481769 L248.376788,48.6481769" id="Stroke-115" stroke="#1703C4" stroke-width="0.5" stroke-linecap="round" stroke-linejoin="round"></path>
                            <path d="M258.353235,54.6193474 L236.951235,54.6193474" id="Stroke-116" stroke="#1703C4" stroke-width="0.5" stroke-linecap="round" stroke-linejoin="round"></path>
                            <path d="M267.404906,63.2006481 L227.377141,63.2006481" id="Stroke-117" stroke="#1703C4" stroke-width="0.794117647" stroke-linecap="round" stroke-linejoin="round"></path>
                            <path d="M267.404906,64.5409767 L249.612435,64.5409767" id="Stroke-118" stroke="#1703C4" stroke-width="0.5" stroke-linecap="round" stroke-linejoin="round"></path>
                            <path d="M262.540988,67.4178594 L247.671929,67.4178594" id="Stroke-119" stroke="#1703C4" stroke-width="0.5" stroke-linecap="round" stroke-linejoin="round"></path>
                            <path d="M261.034388,73.38903 L233.024271,73.38903" id="Stroke-120" stroke="#1703C4" stroke-width="0.794117647" stroke-linecap="round" stroke-linejoin="round"></path>
                        </g>
                        <g id="Group-5" transform="translate(848.000000, 210.000000)">
                            <path d="M178.874129,164.577425 L170.376012,164.577425 C161.048835,154.322434 146.331188,146.783682 129.105188,144.014496 L179.510482,144.014496 L178.874129,164.577425 Z M178.483424,177.24579 C177.829071,175.622401 177.051894,174.035017 176.166718,172.485755 L178.6306,172.485755 L178.483424,177.24579 Z M61.6644824,164.577425 C73.2924824,152.860007 92.6117765,145.176177 114.440482,145.176177 C136.268129,145.176177 155.587424,152.860007 167.215424,164.577425 L61.6644824,164.577425 Z M50.0047176,164.577425 L49.3694235,144.014496 L99.7736588,144.014496 C82.5487176,146.783682 67.8310706,154.322434 58.5028353,164.577425 L50.0047176,164.577425 Z M50.2493059,172.485755 L52.7121294,172.485755 C51.8280118,174.035017 51.0508353,175.622401 50.3964824,177.24579 L50.2493059,172.485755 Z M217.364482,82.2759366 L217.289306,55.5837337 L219.217424,55.5837337 L219.217424,46.4311229 L212.609306,46.4311229 L201.643071,11.6050309 L201.548835,9.18953797 C202.423424,8.88985165 203.055541,8.07021486 203.055541,7.09385165 C203.055541,6.05712759 202.342953,5.19301439 201.383659,4.94733514 L201.2026,0.280488443 L200.461424,0.280488443 L200.280365,4.94733514 C199.321071,5.19301439 198.608482,6.05712759 198.608482,7.09385165 C198.608482,8.07021486 199.2406,8.88985165 200.115188,9.18953797 L200.022012,11.6050309 L189.053659,46.4311229 L182.4466,46.4311229 L182.4466,55.5837337 L184.373659,55.5837337 L184.373659,82.2759366 L173.030482,88.6530073 L173.030482,90.037071 L174.538247,90.037071 L174.538247,92.4102054 L175.791894,92.4102054 L175.791894,103.679682 L177.702012,103.679682 L177.702012,107.831873 L180.438012,113.961146 L179.754012,136.105106 L49.1258941,136.105106 L48.4418941,113.961146 L51.1778941,107.831873 L51.1778941,103.679682 L53.0880118,103.679682 L53.0880118,92.4102054 L54.3416588,92.4102054 L54.3416588,90.037071 L55.8494235,90.037071 L55.8494235,88.6530073 L44.5803647,82.2759366 L44.5062471,55.5837337 L46.4333059,55.5837337 L46.4333059,46.4311229 L39.8262471,46.4311229 L28.8578941,11.6050309 L28.7647176,9.18953797 C29.6393059,8.88985165 30.2714235,8.07021486 30.2714235,7.09385165 C30.2714235,6.05712759 29.5588353,5.19301439 28.5995412,4.94733514 L28.4184824,0.280488443 L27.6773059,0.280488443 L27.4951882,4.94733514 C26.5358941,5.19301439 25.8233059,6.05712759 25.8233059,7.09385165 C25.8233059,8.07021486 26.4564824,8.88985165 27.3310706,9.18953797 L27.2368353,11.6050309 L16.2706,46.4311229 L9.66142353,46.4311229 L9.66142353,55.5837337 L11.5906,55.5837337 L11.5906,82.2759366 L0.247423529,88.6530073 L0.247423529,90.037071 L1.75518824,90.037071 L1.75518824,92.4102054 L3.00777647,92.4102054 L3.00777647,103.679682 L4.91789412,103.679682 L4.91789412,107.831873 L7.65389412,113.961146 L5.33930588,188.896493 L3.83048235,188.896493 L3.83048235,192.653691 L5.22389412,192.653691 L4.68812941,203.726201 L51.4066,203.726201 L50.8708353,192.653691 L52.2653059,192.653691 L52.2653059,188.896493 L50.7564824,188.896493 L50.6294235,184.775012 C51.3886,180.462918 53.0181294,176.337201 55.3867176,172.485755 L173.493188,172.485755 C175.861776,176.337201 177.491306,180.462918 178.250482,184.775012 L178.123424,188.896493 L176.6146,188.896493 L176.6146,192.653691 L178.008012,192.653691 L177.472247,203.726201 L224.191776,203.726201 L223.656012,192.653691 L225.049424,192.653691 L225.049424,188.896493 L223.5406,188.896493 L221.226012,113.961146 L223.962012,107.831873 L223.962012,103.679682 L225.872129,103.679682 L225.872129,92.4102054 L227.124718,92.4102054 L227.124718,90.037071 L228.632482,90.037071 L228.632482,88.6530073 L217.364482,82.2759366 Z" id="Build-4" fill="#FFFFFF"></path>
                            <path d="M9.66195294,46.4308052 L30.6076,46.4308052" id="Stroke-150" stroke="#1703C4" stroke-width="0.794117647" stroke-linecap="round" stroke-linejoin="round"></path>
                            <path d="M9.66195294,55.5839455 L24.0778353,55.5839455" id="Stroke-151" stroke="#1703C4" stroke-width="0.5" stroke-linecap="round" stroke-linejoin="round"></path>
                            <path d="M36.6072118,46.4308052 L46.4330941,46.4308052" id="Stroke-152" stroke="#1703C4" stroke-width="0.794117647" stroke-linecap="round" stroke-linejoin="round"></path>
                            <path d="M34.6518824,33.5898288 L38.02,46.4308052" id="Stroke-153" stroke="#1703C4" stroke-width="0.794117647" stroke-linecap="round" stroke-linejoin="round"></path>
                            <path d="M29.0195765,12.1148153 L33.1701647,27.9410064" id="Stroke-154" stroke="#1703C4" stroke-width="0.794117647" stroke-linecap="round" stroke-linejoin="round"></path>
                            <path d="M38.0195765,55.5839455 L46.4329882,55.5839455" id="Stroke-155" stroke="#1703C4" stroke-width="0.794117647" stroke-linecap="round" stroke-linejoin="round"></path>
                            <path d="M0.247317647,90.0374946 L45.0779059,90.0374946" id="Stroke-156" stroke="#1703C4" stroke-width="0.794117647" stroke-linecap="round" stroke-linejoin="round"></path>
                            <path d="M1.75487059,92.4097818 L20.1349882,92.4097818" id="Stroke-157" stroke="#1703C4" stroke-width="0.5" stroke-linecap="round" stroke-linejoin="round"></path>
                            <path d="M3.00809412,103.679894 L32.5482118,103.679894" id="Stroke-158" stroke="#1703C4" stroke-width="0.794117647" stroke-linecap="round" stroke-linejoin="round"></path>
                            <path d="M4.91789412,107.831979 L27.9610706,107.831979" id="Stroke-159" stroke="#1703C4" stroke-width="0.794117647" stroke-linecap="round" stroke-linejoin="round"></path>
                            <path d="M7.65389412,113.961358 L20.1353059,113.961358" id="Stroke-160" stroke="#1703C4" stroke-width="0.794117647" stroke-linecap="round" stroke-linejoin="round"></path>
                            <path d="M53.0882235,103.679894 L42.2257529,103.679894" id="Stroke-161" stroke="#1703C4" stroke-width="0.794117647" stroke-linecap="round" stroke-linejoin="round"></path>
                            <path d="M54.3414471,92.4097818 L46.4330941,92.4097818" id="Stroke-162" stroke="#1703C4" stroke-width="0.5" stroke-linecap="round" stroke-linejoin="round"></path>
                            <path d="M55.849,90.0374946 L51.0779412,90.0374946" id="Stroke-163" stroke="#1703C4" stroke-width="0.794117647" stroke-linecap="round" stroke-linejoin="round"></path>
                            <path d="M48.4424235,113.961358 L34.1366588,113.961358" id="Stroke-164" stroke="#1703C4" stroke-width="0.5" stroke-linecap="round" stroke-linejoin="round"></path>
                            <path d="M51.1784235,107.831979 L45.0774824,107.831979" id="Stroke-165" stroke="#1703C4" stroke-width="0.5" stroke-linecap="round" stroke-linejoin="round"></path>
                            <path d="M3.83016471,188.896387 L38.1953412,188.896387" id="Stroke-166" stroke="#1703C4" stroke-width="0.794117647" stroke-linecap="round" stroke-linejoin="round"></path>
                            <path d="M3.83016471,192.653374 L19.4901647,192.653374" id="Stroke-167" stroke="#1703C4" stroke-width="0.5" stroke-linecap="round" stroke-linejoin="round"></path>
                            <path d="M52.2650941,192.653374 L38.1954471,192.653374" id="Stroke-168" stroke="#1703C4" stroke-width="0.794117647" stroke-linecap="round" stroke-linejoin="round"></path>
                            <path d="M176.614812,192.653374 L202.489282,192.653374" id="Stroke-169" stroke="#1703C4" stroke-width="0.5" stroke-linecap="round" stroke-linejoin="round"></path>
                            <path d="M176.614812,188.896387 L194.372341,188.896387" id="Stroke-170" stroke="#1703C4" stroke-width="0.794117647" stroke-linecap="round" stroke-linejoin="round"></path>
                            <path d="M225.049847,188.896387 L213.607141,188.896387" id="Stroke-171" stroke="#1703C4" stroke-width="0.794117647" stroke-linecap="round" stroke-linejoin="round"></path>
                            <path d="M180.437588,113.961358 L205.843,113.961358" id="Stroke-172" stroke="#1703C4" stroke-width="0.5" stroke-linecap="round" stroke-linejoin="round"></path>
                            <path d="M177.701588,107.831979 L219.328176,107.831979" id="Stroke-173" stroke="#1703C4" stroke-width="0.794117647" stroke-linecap="round" stroke-linejoin="round"></path>
                            <path d="M175.791788,103.679894 L205.843318,103.679894" id="Stroke-174" stroke="#1703C4" stroke-width="0.794117647" stroke-linecap="round" stroke-linejoin="round"></path>
                            <path d="M175.791788,92.4097818 L211.137435,92.4097818" id="Stroke-175" stroke="#1703C4" stroke-width="0.5" stroke-linecap="round" stroke-linejoin="round"></path>
                            <path d="M173.031012,90.0374946 L205.842894,90.0374946" id="Stroke-176" stroke="#1703C4" stroke-width="0.794117647" stroke-linecap="round" stroke-linejoin="round"></path>
                            <path d="M225.871918,103.679894 L221.019329,103.679894" id="Stroke-177" stroke="#1703C4" stroke-width="0.794117647" stroke-linecap="round" stroke-linejoin="round"></path>
                            <path d="M228.632694,90.0374946 L218.020106,90.0374946" id="Stroke-178" stroke="#1703C4" stroke-width="0.794117647" stroke-linecap="round" stroke-linejoin="round"></path>
                            <path d="M227.125035,92.4097818 L219.328918,92.4097818" id="Stroke-179" stroke="#1703C4" stroke-width="0.5" stroke-linecap="round" stroke-linejoin="round"></path>
                            <path d="M184.299647,82.2762542 L196.137294,82.2762542" id="Stroke-180" stroke="#1703C4" stroke-width="0.794117647" stroke-linecap="round" stroke-linejoin="round"></path>
                            <path d="M182.446706,55.5839455 L202.842824,55.5839455" id="Stroke-181" stroke="#1703C4" stroke-width="0.794117647" stroke-linecap="round" stroke-linejoin="round"></path>
                            <path d="M182.446706,46.4308052 L207.784353,46.4308052" id="Stroke-182" stroke="#1703C4" stroke-width="0.794117647" stroke-linecap="round" stroke-linejoin="round"></path>
                            <path d="M221.226118,113.961358 L216.607529,113.961358" id="Stroke-183" stroke="#1703C4" stroke-width="0.5" stroke-linecap="round" stroke-linejoin="round"></path>
                            <path d="M223.962012,107.831979 L222.078365,107.831979" id="Stroke-184" stroke="#1703C4" stroke-width="0.794117647" stroke-linecap="round" stroke-linejoin="round"></path>
                            <path d="M225.049847,192.653374 L219.329024,192.653374" id="Stroke-185" stroke="#1703C4" stroke-width="0.5" stroke-linecap="round" stroke-linejoin="round"></path>
                            <path d="M217.289624,82.2762542 L214.136447,82.2762542" id="Stroke-186" stroke="#1703C4" stroke-width="0.5" stroke-linecap="round" stroke-linejoin="round"></path>
                            <path d="M49.3699529,138.483959 L179.509953,138.483959" id="Stroke-199" stroke="#1703C4" stroke-width="0.5" stroke-linecap="round" stroke-linejoin="round"></path>
                            <path d="M50.2498353,169.339684 L178.630071,169.339684" id="Stroke-200" stroke="#1703C4" stroke-width="0.794117647" stroke-linecap="round" stroke-linejoin="round"></path>
                        </g>
                        <g id="Group-4" transform="translate(1160.000000, 188.000000)">
                            <path d="M240.856106,140.396862 L237.834224,140.396862 L233.8054,140.396862 L233.8054,127.730614 L235.388341,127.730614 L235.388341,125.427371 L236.683282,125.427371 L236.683282,124.084607 L235.388341,124.084607 L235.388341,121.684999 L231.7894,121.684999 L231.7894,90.4064302 L233.759871,90.4064302 L233.759871,88.4897085 L234.668341,88.4897085 L234.668341,86.2785953 L231.7894,86.2785953 L231.7894,80.1376731 L229.055518,80.1376731 C229.055518,67.7859373 221.932812,57.4854113 212.469047,55.1239255 L212.469047,53.5344231 L209.303165,53.5344231 L209.303165,44.2600316 C210.544106,43.8502132 211.445165,42.6948854 211.445165,41.3182344 C211.445165,39.6980222 210.203165,38.382791 208.6234,38.2345363 L208.332224,30.7211991 L208.042106,38.2345363 C206.461282,38.382791 205.220341,39.6980222 205.220341,41.3182344 C205.220341,42.6948854 206.120341,43.8502132 207.360224,44.2600316 L207.360224,53.5344231 L204.194341,53.5344231 L204.194341,55.1239255 C194.731635,57.4854113 187.608929,67.7859373 187.608929,80.1376731 L184.875047,80.1376731 L184.875047,86.2785953 L181.996106,86.2785953 L181.996106,88.4897085 L182.904576,88.4897085 L182.904576,90.4064302 L184.875047,90.4064302 L184.875047,121.684999 L181.276106,121.684999 L181.276106,124.084607 L179.981165,124.084607 L179.981165,125.427371 L181.276106,125.427371 L181.276106,127.730614 L182.860106,127.730614 L182.860106,139.820786 L161.128812,139.820786 L161.128812,105.302852 L162.472459,105.302852 L162.472459,98.1770953 L164.679047,98.1770953 L164.679047,95.8738524 L159.503518,95.8738524 L159.503518,87.4296873 L159.850812,80.758225 L161.916576,80.758225 L161.916576,78.6021778 L159.356341,78.6021778 C157.867635,58.2256259 144.348576,41.807475 127.020929,38.8540292 L127.020929,26.9777675 C127.020929,26.9777675 122.992106,23.0924349 122.992106,12.1533547 L121.552106,12.1533547 L121.552106,9.53877689 C122.250929,9.32486651 122.584459,8.90022264 122.584459,8.38768491 C122.584459,7.87408821 122.250929,7.44944434 121.792459,7.28954104 L121.792459,3.37349858 L124.035047,3.37349858 L124.035047,2.65446321 L121.792459,2.65446321 L121.792459,0.398873585 L121.024812,0.398873585 L121.024812,2.65446321 L118.782224,2.65446321 L118.782224,3.37349858 L121.024812,3.37349858 L121.024812,7.28954104 C120.5674,7.44944434 120.233871,7.87408821 120.233871,8.38768491 C120.233871,8.90022264 120.5674,9.32486651 121.024812,9.48582877 L121.265165,12.1533547 L119.825165,12.1533547 C119.825165,23.0924349 115.796341,26.9777675 115.796341,26.9777675 L115.796341,38.8540292 C98.4686941,41.807475 84.9506941,58.2256259 83.4619882,78.6021778 L80.9017529,78.6021778 L80.9017529,80.758225 L82.9675176,80.758225 L82.9675176,87.4296873 L83.3148118,95.8738524 L78.1392824,95.8738524 L78.1392824,98.1770953 L80.3458706,98.1770953 L80.3458706,105.302852 L81.6895176,105.302852 L81.6895176,139.820786 L59.9582235,139.820786 L59.9582235,127.730614 L61.5411647,127.730614 L61.5411647,125.427371 L62.8361059,125.427371 L62.8361059,124.084607 L61.5411647,124.084607 L61.5411647,121.684999 L57.9432824,121.684999 L57.9432824,90.4064302 L59.9126941,90.4064302 L59.9126941,88.4897085 L60.8222235,88.4897085 L60.8222235,86.2785953 L57.9432824,86.2785953 L57.9432824,80.1376731 L55.2094,80.1376731 C55.2094,67.7859373 48.0856353,57.4854113 38.6229294,55.1239255 L38.6229294,53.5344231 L35.4570471,53.5344231 L35.4570471,44.2600316 C36.6969294,43.8502132 37.5979882,42.6948854 37.5979882,41.3182344 C37.5979882,39.6980222 36.3559882,38.382791 34.7762235,38.2345363 L34.4861059,30.7211991 L34.1949294,38.2345363 C32.6141059,38.382791 31.3731647,39.6980222 31.3731647,41.3182344 C31.3731647,42.6948854 32.2742235,43.8502132 33.5141059,44.2600316 L33.5141059,53.5344231 L30.3482235,53.5344231 L30.3482235,55.1239255 C20.8855176,57.4854113 13.7617529,67.7859373 13.7617529,80.1376731 L11.0268118,80.1376731 L11.0268118,86.2785953 L8.14998824,86.2785953 L8.14998824,88.4897085 L9.0574,88.4897085 L9.0574,90.4064302 L11.0268118,90.4064302 L11.0268118,121.684999 L7.42998824,121.684999 L7.42998824,124.084607 L6.13398824,124.084607 L6.13398824,125.427371 L7.42998824,125.427371 L7.42998824,127.730614 L9.01292941,127.730614 L9.01292941,140.396862 L4.98304706,140.396862 L1.96116471,140.396862 L0.881164706,140.396862 L0.881164706,141.98001 L1.96116471,141.98001 L1.96116471,143.563159 L4.98304706,143.563159 L4.98304706,149.320737 L9.01292941,149.320737 L9.01292941,156.804423 L7.4554,156.804423 L7.4554,160.546796 L9.01292941,160.546796 L9.01292941,180.121713 L3.97610588,180.121713 L3.97610588,203.53431 L2.94587059,203.53431 L2.94587059,206.604242 L3.97610588,206.604242 L3.97610588,222.725883 L9.01292941,222.725883 L27.8081059,222.725883 L31.0311647,222.725883 L59.9582235,222.725883 L182.860106,222.725883 L211.786106,222.725883 L216.045753,222.725883 L233.8054,222.725883 L238.842224,222.725883 L238.842224,206.604242 L239.872459,206.604242 L239.872459,203.53431 L238.842224,203.53431 L238.842224,180.121713 L233.8054,180.121713 L233.8054,160.546796 L235.362929,160.546796 L235.362929,156.804423 L233.8054,156.804423 L233.8054,149.320737 L237.834224,149.320737 L237.834224,143.563159 L240.856106,143.563159 L240.856106,141.98001 L241.936106,141.98001 L241.936106,140.396862 L240.856106,140.396862 Z" id="Build-1" fill="#FFFFFF"></path>
                            <path d="M79.1310824,78.6016483 L162.472141,78.6016483" id="Stroke-29" stroke="#1703C4" stroke-width="0.799411765" stroke-linecap="round" stroke-linejoin="round"></path>
                            <path d="M80.9013294,80.7578014 L105.078506,80.7578014" id="Stroke-30" stroke="#1703C4" stroke-width="0.5" stroke-linecap="round" stroke-linejoin="round"></path>
                            <path d="M82.9673059,87.4301108 L94.6662471,87.4301108" id="Stroke-31" stroke="#1703C4" stroke-width="0.5" stroke-linecap="round" stroke-linejoin="round"></path>
                            <path d="M78.1394941,98.1768835 L147.960435,98.1768835" id="Stroke-32" stroke="#1703C4" stroke-width="0.794117647" stroke-linecap="round" stroke-linejoin="round"></path>
                            <path d="M80.3460824,105.30317 L101.724788,105.30317" id="Stroke-33" stroke="#1703C4" stroke-width="0.794117647" stroke-linecap="round" stroke-linejoin="round"></path>
                            <path d="M162.472141,105.30317 L156.960965,105.30317" id="Stroke-34" stroke="#1703C4" stroke-width="0.5" stroke-linecap="round" stroke-linejoin="round"></path>
                            <path d="M159.850918,87.4301108 L154.314329,87.4301108" id="Stroke-35" stroke="#1703C4" stroke-width="0.794117647" stroke-linecap="round" stroke-linejoin="round"></path>
                            <path d="M164.678729,98.1768835 L158.019788,98.1768835" id="Stroke-36" stroke="#1703C4" stroke-width="0.5" stroke-linecap="round" stroke-linejoin="round"></path>
                            <path d="M81.6893059,106.415928 L94.6662471,106.415928" id="Stroke-37" stroke="#1703C4" stroke-width="0.5" stroke-linecap="round" stroke-linejoin="round"></path>
                            <path d="M81.6893059,107.651737 L86.0198941,107.651737" id="Stroke-38" stroke="#1703C4" stroke-width="0.5" stroke-linecap="round" stroke-linejoin="round"></path>
                            <path d="M115.796024,26.9782969 L121.408847,26.9782969" id="Stroke-39" stroke="#1703C4" stroke-width="0.5" stroke-linecap="round" stroke-linejoin="round"></path>
                            <path d="M120.0778,28.2295667 L115.795918,28.2295667" id="Stroke-40" stroke="#1703C4" stroke-width="0.5" stroke-linecap="round" stroke-linejoin="round"></path>
                            <path d="M117.937388,29.288529 L115.796447,29.288529" id="Stroke-41" stroke="#1703C4" stroke-width="0.5" stroke-linecap="round" stroke-linejoin="round"></path>
                            <path d="M184.874941,80.1373554 L223.667059,80.7579073" id="Stroke-42" stroke="#1703C4" stroke-width="0.794117647" stroke-linecap="round" stroke-linejoin="round"></path>
                            <path d="M181.996212,86.2780658 L208.489035,86.2780658" id="Stroke-43" stroke="#1703C4" stroke-width="0.794117647" stroke-linecap="round" stroke-linejoin="round"></path>
                            <path d="M181.996212,88.4901321 L192.783506,88.4901321" id="Stroke-44" stroke="#1703C4" stroke-width="0.5" stroke-linecap="round" stroke-linejoin="round"></path>
                            <path d="M182.904153,90.4063243 L186.254271,90.4063243" id="Stroke-45" stroke="#1703C4" stroke-width="0.5" stroke-linecap="round" stroke-linejoin="round"></path>
                            <path d="M233.759659,90.4063243 L217.314012,90.4063243" id="Stroke-46" stroke="#1703C4" stroke-width="0.794117647" stroke-linecap="round" stroke-linejoin="round"></path>
                            <path d="M234.668553,86.2780658 L223.666318,86.2780658" id="Stroke-47" stroke="#1703C4" stroke-width="0.794117647" stroke-linecap="round" stroke-linejoin="round"></path>
                            <path d="M234.668553,88.4901321 L230.195024,88.4901321" id="Stroke-48" stroke="#1703C4" stroke-width="0.5" stroke-linecap="round" stroke-linejoin="round"></path>
                            <path d="M181.276529,121.685104 L212.901471,121.685104" id="Stroke-49" stroke="#1703C4" stroke-width="0.794117647" stroke-linecap="round" stroke-linejoin="round"></path>
                            <path d="M179.980953,124.084289 L200.019188,124.084289" id="Stroke-50" stroke="#1703C4" stroke-width="0.5" stroke-linecap="round" stroke-linejoin="round"></path>
                            <path d="M179.980953,125.427583 L190.0006,125.427583" id="Stroke-51" stroke="#1703C4" stroke-width="0.5" stroke-linecap="round" stroke-linejoin="round"></path>
                            <path d="M181.276529,127.730614 L215.548529,127.730614" id="Stroke-52" stroke="#1703C4" stroke-width="0.794117647" stroke-linecap="round" stroke-linejoin="round"></path>
                            <path d="M236.682859,125.427583 L223.666741,125.427583" id="Stroke-53" stroke="#1703C4" stroke-width="0.5" stroke-linecap="round" stroke-linejoin="round"></path>
                            <path d="M241.935576,141.980116 L198.412635,141.980116" id="Stroke-54" stroke="#1703C4" stroke-width="0.5" stroke-linecap="round" stroke-linejoin="round"></path>
                            <path d="M237.834753,149.320419 L217.313694,149.320419" id="Stroke-55" stroke="#1703C4" stroke-width="0.794117647" stroke-linecap="round" stroke-linejoin="round"></path>
                            <path d="M235.3624,160.547113 L208.489459,160.547113" id="Stroke-56" stroke="#1703C4" stroke-width="0.794117647" stroke-linecap="round" stroke-linejoin="round"></path>
                            <path d="M238.8418,180.121396 L218.548388,180.121396" id="Stroke-57" stroke="#1703C4" stroke-width="0.794117647" stroke-linecap="round" stroke-linejoin="round"></path>
                            <path d="M235.3624,156.804529 L229.167224,156.804529" id="Stroke-58" stroke="#1703C4" stroke-width="0.5" stroke-linecap="round" stroke-linejoin="round"></path>
                            <path d="M239.872776,203.53431 L227.574541,203.53431" id="Stroke-59" stroke="#1703C4" stroke-width="0.794117647" stroke-linecap="round" stroke-linejoin="round"></path>
                            <path d="M239.872776,206.604771 L233.723129,206.604771" id="Stroke-60" stroke="#1703C4" stroke-width="0.5" stroke-linecap="round" stroke-linejoin="round"></path>
                            <path d="M0.881588235,140.396862 L39.2935882,140.396862" id="Stroke-61" stroke="#1703C4" stroke-width="0.794117647" stroke-linecap="round" stroke-linejoin="round"></path>
                            <path d="M0.881588235,141.980116 L17.7253529,141.980116" id="Stroke-62" stroke="#1703C4" stroke-width="0.5" stroke-linecap="round" stroke-linejoin="round"></path>
                            <path d="M1.96105882,143.563371 L11.3729412,143.563371" id="Stroke-63" stroke="#1703C4" stroke-width="0.5" stroke-linecap="round" stroke-linejoin="round"></path>
                            <path d="M4.98347059,149.320419 L34.8422941,149.320419" id="Stroke-64" stroke="#1703C4" stroke-width="0.5" stroke-linecap="round" stroke-linejoin="round"></path>
                            <path d="M7.45582353,156.804529 L49.4900588,156.804529" id="Stroke-65" stroke="#1703C4" stroke-width="0.794117647" stroke-linecap="round" stroke-linejoin="round"></path>
                            <path d="M7.42998824,121.685104 L39.2942235,121.685104" id="Stroke-66" stroke="#1703C4" stroke-width="0.794117647" stroke-linecap="round" stroke-linejoin="round"></path>
                            <path d="M6.13430588,124.084289 L21.4311294,124.084289" id="Stroke-67" stroke="#1703C4" stroke-width="0.5" stroke-linecap="round" stroke-linejoin="round"></path>
                            <path d="M6.13430588,125.427583 L36.9598353,125.427583" id="Stroke-68" stroke="#1703C4" stroke-width="0.794117647" stroke-linecap="round" stroke-linejoin="round"></path>
                            <path d="M7.42998824,127.730614 L26.9017529,127.730614" id="Stroke-69" stroke="#1703C4" stroke-width="0.5" stroke-linecap="round" stroke-linejoin="round"></path>
                            <path d="M53.9013294,121.685104 L61.5418,121.685104" id="Stroke-70" stroke="#1703C4" stroke-width="0.794117647" stroke-linecap="round" stroke-linejoin="round"></path>
                            <path d="M9.05750588,90.4063243 L39.2943294,90.4063243" id="Stroke-71" stroke="#1703C4" stroke-width="0.5" stroke-linecap="round" stroke-linejoin="round"></path>
                            <path d="M8.14967059,88.4901321 L37.8433176,88.4901321" id="Stroke-72" stroke="#1703C4" stroke-width="0.5" stroke-linecap="round" stroke-linejoin="round"></path>
                            <path d="M11.0272353,80.1373554 L32.3720588,80.1373554" id="Stroke-73" stroke="#1703C4" stroke-width="0.794117647" stroke-linecap="round" stroke-linejoin="round"></path>
                            <path d="M8.14967059,86.2780658 L27.7844941,86.2780658" id="Stroke-74" stroke="#1703C4" stroke-width="0.794117647" stroke-linecap="round" stroke-linejoin="round"></path>
                            <path d="M7.45582353,160.547113 L31.6658235,160.547113" id="Stroke-75" stroke="#1703C4" stroke-width="0.5" stroke-linecap="round" stroke-linejoin="round"></path>
                            <path d="M3.97631765,180.121396 L32.5486706,180.121396" id="Stroke-76" stroke="#1703C4" stroke-width="0.794117647" stroke-linecap="round" stroke-linejoin="round"></path>
                            <path d="M2.94544706,203.53431 L18.2623882,203.53431" id="Stroke-77" stroke="#1703C4" stroke-width="0.5" stroke-linecap="round" stroke-linejoin="round"></path>
                            <path d="M2.94544706,206.604771 L34.8425059,206.604771" id="Stroke-78" stroke="#1703C4" stroke-width="0.794117647" stroke-linecap="round" stroke-linejoin="round"></path>
                            <path d="M57.9432824,80.1373554 L50.5495176,80.1373554" id="Stroke-187" stroke="#1703C4" stroke-width="0.794117647" stroke-linecap="round" stroke-linejoin="round"></path>
                            <path d="M66.0778,149.320419 L105.783682,149.320419" id="Stroke-188" stroke="#1703C4" stroke-width="0.794117647" stroke-linecap="round" stroke-linejoin="round"></path>
                            <path d="M113.049647,149.320419 L182.904471,149.320419" id="Stroke-189" stroke="#1703C4" stroke-width="0.794117647" stroke-linecap="round" stroke-linejoin="round"></path>
                            <path d="M94.6660353,156.804529 L132.960506,156.804529" id="Stroke-190" stroke="#1703C4" stroke-width="0.794117647" stroke-linecap="round" stroke-linejoin="round"></path>
                        </g>
                        <g id="Group-3" transform="translate(14.000000, 185.000000)">
                            <polygon id="Build-2" fill="#FFFFFF" points="240.515353 157.932667 240.515353 153.52103 242.133235 153.52103 242.133235 148.079023 238.603118 148.079023 159.625471 148.079023 159.625471 145.578813 154.375824 145.578813 154.375824 135.577974 159.175471 128.691542 159.175471 124.20366 149.879 124.20366 149.879 93.8082663 146.546882 93.8082663 146.546882 43.723587 152.429706 38.0719054 152.429706 34.3898936 135.590176 34.3898936 135.590176 27.3297922 124.723471 27.3297922 122.503118 0.268011557 120.590882 0.268011557 118.371588 27.3297922 107.502765 27.3297922 107.502765 34.3898936 90.6653529 34.3898936 90.6653529 38.0719054 96.5471176 43.723587 96.5471176 93.8082663 93.2139412 93.8082663 93.2139412 124.20366 83.9195882 124.20366 83.9195882 128.691542 88.733 135.577974 88.7192353 145.578813 83.4685294 145.578813 83.4685294 148.079023 4.48982353 148.079023 0.960764706 148.079023 0.960764706 153.52103 2.57758824 153.52103 2.57758824 157.932667 4.48982353 157.932667 4.48982353 214.60621 0.960764706 214.60621 0.960764706 228.726412 242.133235 228.726412 242.133235 214.60621 238.603118 214.60621 238.603118 157.932667"></polygon>
                            <path d="M90.6649294,38.0724349 L152.429282,38.0724349" id="Stroke-10" stroke="#1703C4" stroke-width="0.794117647" stroke-linecap="round" stroke-linejoin="round"></path>
                            <path d="M96.5473294,43.7240106 L118.571918,43.7240106" id="Stroke-11" stroke="#1703C4" stroke-width="0.5" stroke-linecap="round" stroke-linejoin="round"></path>
                            <path d="M137.518929,93.808584 L146.546459,93.808584" id="Stroke-12" stroke="#1703C4" stroke-width="0.5" stroke-linecap="round" stroke-linejoin="round"></path>
                            <path d="M93.2137294,93.808584 C104.718906,94.2374637 115.283847,94.2374637 127.233729,93.808584" id="Stroke-13" stroke="#1703C4" stroke-width="0.794117647" stroke-linecap="round" stroke-linejoin="round"></path>
                            <polyline id="Stroke-14" stroke="#1703C4" stroke-width="0.5" stroke-linecap="round" stroke-linejoin="round" points="107.502659 34.3898936 135.590071 34.3898936 113.806894 32.4647002 135.590071 32.4647002"></polyline>
                            <path d="M116.398259,124.204084 C131.344612,123.888513 144.868965,123.888513 159.160965,124.204084" id="Stroke-15" stroke="#1703C4" stroke-width="0.794117647" stroke-linecap="round" stroke-linejoin="round"></path>
                            <path d="M93.2137294,124.204084 L106.396082,124.204084" id="Stroke-16" stroke="#1703C4" stroke-width="0.5" stroke-linecap="round" stroke-linejoin="round"></path>
                            <polyline id="Stroke-17" stroke="#1703C4" stroke-width="0.5" stroke-linecap="round" stroke-linejoin="round" points="135.590494 128.69133 83.9188471 128.69133 108.5132 128.69133 83.9188471 128.69133"></polyline>
                            <path d="M83.4682118,148.079341 L149.879741,148.079341" id="Stroke-18" stroke="#1703C4" stroke-width="0.5" stroke-linecap="round" stroke-linejoin="round"></path>
                            <path d="M0.960658824,153.52103 L146.546776,152.481129" id="Stroke-19" stroke="#1703C4" stroke-width="0.794117647" stroke-linecap="round" stroke-linejoin="round"></path>
                            <path d="M4.48971765,157.932667 L40.4833647,157.932667" id="Stroke-20" stroke="#1703C4" stroke-width="0.5" stroke-linecap="round" stroke-linejoin="round"></path>
                            <path d="M242.133553,153.52103 L204.336729,153.52103" id="Stroke-21" stroke="#1703C4" stroke-width="0.794117647" stroke-linecap="round" stroke-linejoin="round"></path>
                            <path d="M223.924647,157.932667 L240.515353,157.932667" id="Stroke-22" stroke="#1703C4" stroke-width="0.5" stroke-linecap="round" stroke-linejoin="round"></path>
                            <path d="M201.689353,214.694739 L242.133235,214.605786" id="Stroke-23" stroke="#1703C4" stroke-width="0.794117647" stroke-linecap="round" stroke-linejoin="round"></path>
                            <path d="M0.960658824,214.605786 L50.8068941,214.605786" id="Stroke-79" stroke="#1703C4" stroke-width="0.794117647" stroke-linecap="round" stroke-linejoin="round"></path>
                            <path d="M83.4682118,145.578813 L96.5478588,145.578813" id="Stroke-80" stroke="#1703C4" stroke-width="0.5" stroke-linecap="round" stroke-linejoin="round"></path>
                            <path d="M159.624941,145.578813 L147.866706,145.578813" id="Stroke-81" stroke="#1703C4" stroke-width="0.5" stroke-linecap="round" stroke-linejoin="round"></path>
                            <path d="M88.7334235,135.577656 L137.518718,135.577656" id="Stroke-82" stroke="#1703C4" stroke-width="0.794117647" stroke-linecap="round" stroke-linejoin="round"></path>
                            <path d="M88.7189176,136.948906 L103.747859,136.948906" id="Stroke-83" stroke="#1703C4" stroke-width="0.5" stroke-linecap="round" stroke-linejoin="round"></path>
                            <path d="M142.032271,135.577656 L154.361212,135.577656" id="Stroke-191" stroke="#1703C4" stroke-width="0.794117647" stroke-linecap="round" stroke-linejoin="round"></path>
                            <path d="M151.924647,93.808584 L144.512882,93.808584" id="Stroke-192" stroke="#1703C4" stroke-width="0.794117647" stroke-linecap="round" stroke-linejoin="round"></path>
                            <path d="M82.0422941,123.9673 L96.2337059,123.9673" id="Stroke-193" stroke="#1703C4" stroke-width="0.794117647" stroke-linecap="round" stroke-linejoin="round"></path>
                            <path d="M82.0422941,128.69133 L108.512882,128.69133" id="Stroke-194" stroke="#1703C4" stroke-width="0.794117647" stroke-linecap="round" stroke-linejoin="round"></path>
                            <path d="M101.365824,145.578813 L128.866647,145.578813" id="Stroke-195" stroke="#1703C4" stroke-width="0.711529412" stroke-linecap="round" stroke-linejoin="round"></path>
                            <path d="M50.807,157.932667 L172.042294,157.932667" id="Stroke-196" stroke="#1703C4" stroke-width="0.794117647" stroke-linecap="round" stroke-linejoin="round"></path>
                            <path d="M135.590494,32.4642767 L113.807318,32.4642767" id="Stroke-197" stroke="#1703C4" stroke-width="0.787764706" stroke-linecap="round" stroke-linejoin="round"></path>
                            <path d="M107.366176,33.9648262 L135.590176,33.9648262" id="Stroke-198" stroke="#1703C4" stroke-width="0.765529412" stroke-linecap="round" stroke-linejoin="round"></path>
                        </g>
                        <g id="Group-2" transform="translate(261.000000, 156.000000)">
                            <path d="M66.7056471,220.339684 L70.798,220.339684 L70.798,189.483642 L66.7056471,189.483642 L66.7056471,220.339684 Z M60.0022353,220.339684 L62.2024706,220.339684 L62.2024706,189.483642 L60.0022353,189.483642 L60.0022353,220.339684 Z M30.2768235,220.339684 L32.4770588,220.339684 L32.4770588,189.483642 L30.2768235,189.483642 L30.2768235,220.339684 Z M21.6812941,220.339684 L25.7747059,220.339684 L25.7747059,189.483642 L21.6812941,189.483642 L21.6812941,220.339684 Z M90.0611765,249.199583 L90.0611765,247.971186 L87.2987059,247.971186 L87.2987059,234.308455 L90.0611765,234.308455 L90.0611765,232.159821 L91.4429412,232.159821 L91.4429412,228.78279 L78.2171765,228.78279 L78.2171765,224.177363 L76.7845882,224.177363 L76.7845882,220.339684 L75.3011765,220.339684 L75.3011765,189.483642 L75.3011765,187.846486 L75.3011765,186.20933 L77.6538824,186.20933 L77.6538824,183.139399 L75.3011765,183.139399 L75.3011765,180.478226 L66.91,180.478226 L66.91,175.77008 L63.6350588,175.77008 L63.6350588,169.067908 L61.8954118,169.067908 L61.8954118,165.536269 L56.7029412,165.536269 L55.6483529,47.0278019 L58.2117647,47.0278019 L58.2117647,42.6267547 L59.2356471,42.6267547 L59.2356471,28.504434 L48.5637647,28.504434 L48.5637647,25.8432618 C50.2007059,25.6388821 53.1145882,24.5407382 53.4216471,23.1079623 C53.7287059,21.6751863 49.0963529,13.4957618 50.5903529,13.0509976 C55.3995294,11.6171627 61.5385882,1.79316981 60.8228235,0.575363208 C60.106,-0.642443396 54.5291765,3.07239623 50.9482353,5.83522877 C49.9698824,6.59026887 49.0561176,7.24470755 48.0947059,7.65240802 C48.9332941,4.76779481 49.5876471,0.354040094 46.1454118,0.354040094 C42.6692941,0.354040094 43.7683529,5.54825 44.3496471,7.63652358 C43.4009412,7.22670519 42.4988235,6.58179717 41.5321176,5.83522877 C37.9501176,3.07239623 32.3743529,-0.642443396 31.6575294,0.575363208 C30.9407059,1.79316981 37.0808235,11.6171627 41.89,13.0509976 C43.384,13.4957618 38.7505882,21.6751863 39.0576471,23.1079623 C39.3647059,24.5407382 42.2796471,25.6388821 43.9165882,25.8432618 L43.9165882,28.504434 L33.2447059,28.504434 L33.2447059,42.6267547 L34.2685882,42.6267547 L34.2685882,47.0278019 L36.832,47.0278019 L35.7763529,165.536269 L30.5838824,165.536269 L30.5838824,169.067908 L28.8452941,169.067908 L28.8452941,175.77008 L25.5703529,175.77008 L25.5703529,180.478226 L17.1791765,180.478226 L17.1791765,183.139399 L14.8254118,183.139399 L14.8254118,186.20933 L17.1791765,186.20933 L17.1791765,187.846486 L17.1791765,189.483642 L17.1791765,220.339684 L15.6957647,220.339684 L15.6957647,224.177363 L14.2631765,224.177363 L14.2631765,228.78279 L1.03741176,228.78279 L1.03741176,232.159821 L2.41917647,232.159821 L2.41917647,234.308455 L5.18164706,234.308455 L5.18164706,247.971186 L2.41917647,247.971186 L2.41917647,249.199583 L0.576823529,249.199583 L0.576823529,254.726307 L91.9024706,254.726307 L91.9024706,249.199583 L90.0611765,249.199583 Z" id="Tower-2" fill="#FFFFFF"></path>
                            <path d="M0.577141176,249.199477 L57.7832588,249.199477" id="Stroke-121" stroke="#1703C4" stroke-width="0.794117647" stroke-linecap="round" stroke-linejoin="round"></path>
                            <path d="M2.41875294,247.970975 L31.3775765,247.970975" id="Stroke-122" stroke="#1703C4" stroke-width="0.5" stroke-linecap="round" stroke-linejoin="round"></path>
                            <path d="M2.41875294,234.308879 L39.9604,234.308879" id="Stroke-123" stroke="#1703C4" stroke-width="0.794117647" stroke-linecap="round" stroke-linejoin="round"></path>
                            <path d="M1.03730588,232.159927 L22.8427176,232.159927" id="Stroke-124" stroke="#1703C4" stroke-width="0.5" stroke-linecap="round" stroke-linejoin="round"></path>
                            <path d="M91.4426235,232.159927 L53.5483882,232.159927" id="Stroke-125" stroke="#1703C4" stroke-width="0.794117647" stroke-linecap="round" stroke-linejoin="round"></path>
                            <path d="M90.0611765,234.308879 L73.3137647,234.308879" id="Stroke-126" stroke="#1703C4" stroke-width="0.5" stroke-linecap="round" stroke-linejoin="round"></path>
                            <path d="M90.0611765,247.970975 L80.5487059,247.970975" id="Stroke-127" stroke="#1703C4" stroke-width="0.5" stroke-linecap="round" stroke-linejoin="round"></path>
                            <path d="M91.9027882,249.199477 L76.4894941,249.199477" id="Stroke-128" stroke="#1703C4" stroke-width="0.794117647" stroke-linecap="round" stroke-linejoin="round"></path>
                            <path d="M14.2632824,224.177363 L44.3730471,224.177363" id="Stroke-129" stroke="#1703C4" stroke-width="0.794117647" stroke-linecap="round" stroke-linejoin="round"></path>
                            <path d="M14.2632824,228.782472 L54.9612824,228.782472" id="Stroke-130" stroke="#1703C4" stroke-width="0.794117647" stroke-linecap="round" stroke-linejoin="round"></path>
                            <path d="M78.2166471,224.177363 L64.6658235,224.177363" id="Stroke-131" stroke="#1703C4" stroke-width="0.5" stroke-linecap="round" stroke-linejoin="round"></path>
                            <path d="M15.6954471,220.339684 L36.7840353,220.339684" id="Stroke-132" stroke="#1703C4" stroke-width="0.5" stroke-linecap="round" stroke-linejoin="round"></path>
                            <path d="M14.8258353,186.208801 L42.4304235,186.208801" id="Stroke-133" stroke="#1703C4" stroke-width="0.794117647" stroke-linecap="round" stroke-linejoin="round"></path>
                            <path d="M14.8258353,183.139504 L31.3773647,183.139504" id="Stroke-134" stroke="#1703C4" stroke-width="0.5" stroke-linecap="round" stroke-linejoin="round"></path>
                            <path d="M17.1791765,180.47865 L37.8431765,180.47865" id="Stroke-135" stroke="#1703C4" stroke-width="0.794117647" stroke-linecap="round" stroke-linejoin="round"></path>
                            <path d="M60.0026588,180.47865 L75.3005412,180.47865" id="Stroke-136" stroke="#1703C4" stroke-width="0.5" stroke-linecap="round" stroke-linejoin="round"></path>
                            <path d="M77.6542,183.139504 L56.1950235,183.139504" id="Stroke-137" stroke="#1703C4" stroke-width="0.5" stroke-linecap="round" stroke-linejoin="round"></path>
                            <path d="M77.6542,186.208801 L56.1950235,186.208801" id="Stroke-138" stroke="#1703C4" stroke-width="0.794117647" stroke-linecap="round" stroke-linejoin="round"></path>
                            <path d="M19.8427529,189.483959 L50.3718118,189.483959" id="Stroke-139" stroke="#1703C4" stroke-width="0.5" stroke-linecap="round" stroke-linejoin="round"></path>
                            <path d="M25.5701412,175.770186 L44.3727294,175.770186" id="Stroke-140" stroke="#1703C4" stroke-width="0.5" stroke-linecap="round" stroke-linejoin="round"></path>
                            <path d="M28.8448706,169.067908 L37.8427529,169.067908" id="Stroke-141" stroke="#1703C4" stroke-width="0.794117647" stroke-linecap="round" stroke-linejoin="round"></path>
                            <path d="M30.5840941,165.536269 L44.3720941,165.536269" id="Stroke-142" stroke="#1703C4" stroke-width="0.794117647" stroke-linecap="round" stroke-linejoin="round"></path>
                            <path d="M63.6350588,169.067908 L47.5494118,169.067908" id="Stroke-143" stroke="#1703C4" stroke-width="0.5" stroke-linecap="round" stroke-linejoin="round"></path>
                            <path d="M66.9097882,175.770186 L56.1955529,175.770186" id="Stroke-144" stroke="#1703C4" stroke-width="0.794117647" stroke-linecap="round" stroke-linejoin="round"></path>
                            <path d="M33.2446,42.626437 L47.9018941,42.626437" id="Stroke-145" stroke="#1703C4" stroke-width="0.794117647" stroke-linecap="round" stroke-linejoin="round"></path>
                            <path d="M34.2682706,47.027696 L47.3722706,47.027696" id="Stroke-146" stroke="#1703C4" stroke-width="0.794117647" stroke-linecap="round" stroke-linejoin="round"></path>
                            <path d="M33.2446,28.5041163 L45.4316588,28.5041163" id="Stroke-147" stroke="#1703C4" stroke-width="0.5" stroke-linecap="round" stroke-linejoin="round"></path>
                            <path d="M53.9226824,79.9972153 L54.4309176,164.714196" id="Stroke-148" stroke="#1703C4" stroke-width="0.794117647" stroke-linecap="round" stroke-linejoin="round"></path>
                            <path d="M53.7251059,47.027696 L53.8818118,73.2910191" id="Stroke-149" stroke="#1703C4" stroke-width="0.794117647" stroke-linecap="round" stroke-linejoin="round"></path>
                        </g>
                        <g id="Group" transform="translate(1103.000000, 0.000000)">
                            <path d="M25.4276706,186.14733 L27.2244941,186.14733 L27.2244941,179.497047 L25.2741412,179.497047 L25.1449647,173.866545 C32.5810824,171.344096 37.9376706,164.322118 37.9376706,156.032561 C37.9376706,148.178238 33.1306118,141.452769 26.3012,138.622162 L26.3012,136.63449 L28.1382588,136.63449 L28.1382588,133.493608 L26.3012,133.493608 L26.3012,117.421738 L28.1382588,117.421738 L28.1382588,113.172122 L26.3012,113.172122 L22.5984941,113.172122 L22.4809647,108.511629 L23.4190824,108.511629 L23.4190824,104.53099 L22.3793176,104.53099 L22.1855529,96.9212875 L23.1501412,96.9212875 L23.1501412,93.2117427 L22.0923765,93.2117427 L21.3152,62.6490328 L22.1040235,62.6490328 L22.1040235,59.6807616 L21.2400235,59.6807616 L20.7286118,39.54883 L21.4782588,39.54883 L21.4782588,36.7775257 L20.6576706,36.7775257 L19.8000235,2.96909646 L20.1123765,2.96909646 L20.1123765,0.0590681604 L18.0815529,0.0590681604 L18.0815529,2.96909646 L18.3939059,2.96909646 L17.5352,36.7775257 L16.7146118,36.7775257 L16.7146118,39.54883 L17.4642588,39.54883 L16.9528471,59.6807616 L16.0899059,59.6807616 L16.0899059,62.6490328 L16.8776706,62.6490328 L16.1015529,93.2117427 L15.0427294,93.2117427 L15.0427294,96.9212875 L16.0083765,96.9212875 L15.8146118,104.53099 L14.7737882,104.53099 L14.7737882,108.511629 L15.7129647,108.511629 L15.5943765,113.172122 L11.8927294,113.172122 L10.0546118,113.172122 L10.0546118,117.421738 L11.8927294,117.421738 L11.8927294,133.493608 L10.0546118,133.493608 L10.0546118,136.63449 L11.8927294,136.63449 L11.8927294,138.622162 C5.06225882,141.452769 0.2552,148.178238 0.2552,156.032561 C0.2552,164.322118 5.61284706,171.344096 13.0479059,173.866545 L12.9187294,179.497047 L10.9694353,179.497047 L10.9694353,186.14733 L12.7652,186.14733 L8.08837647,389.622693 L4.20355294,411.726412 L7.5812,411.726412 L30.6116706,411.726412 L33.9903765,411.726412 L30.1044941,389.622693 L25.4276706,186.14733 Z" id="Tower-1" fill="#FFFFFF"></path>
                            <path d="M10.0550353,117.421314 L28.1376235,117.421314" id="Stroke-24" stroke="#1703C4" stroke-width="0.794117647" stroke-linecap="round" stroke-linejoin="round"></path>
                            <path d="M9.28368235,133.493926 L21.4601529,133.493926" id="Stroke-25" stroke="#1703C4" stroke-width="0.895764706" stroke-linecap="round" stroke-linejoin="round"></path>
                            <path d="M10.9691176,186.14733 L21.4599412,186.14733" id="Stroke-26" stroke="#1703C4" stroke-width="0.872470588" stroke-linecap="round" stroke-linejoin="round"></path>
                            <path d="M10.9691176,179.496835 L19.0966471,179.496835" id="Stroke-27" stroke="#1703C4" stroke-width="0.910588235" stroke-linecap="round" stroke-linejoin="round"></path>
                            <path d="M14.5778,186.14733 L10.3425059,391.076648" id="Stroke-28" stroke="#1703C4" stroke-width="0.794117647" stroke-linecap="round" stroke-linejoin="round"></path>
                        </g>
                        <polygon id="Bottom" fill="#FFFFFF" points="0 440 1440 440 1440 410 0 410"></polygon>
                    </g>
                </g>
            </g>
        </g>
    </g>
</svg>