<?xml version="1.0" encoding="UTF-8"?>
<svg width="48px" height="76px" viewBox="0 0 48 76" version="1.1" xmlns="http://www.w3.org/2000/svg" xmlns:xlink="http://www.w3.org/1999/xlink">
    <!-- Generator: Sketch 52.2 (67145) - http://www.bohemiancoding.com/sketch -->
    <title>Group</title>
    <desc>Created with Sketch.</desc>
    <g id="Symbols" stroke="none" stroke-width="1" fill="none" fill-rule="evenodd">
        <g id="icon/pin">
            <g transform="translate(24.000000, 38.000000) scale(-1, 1) translate(-24.000000, -38.000000) " id="Group">
                <g>
                    <path d="M24,75.2727273 C40,53.5638287 48,36.4729196 48,24 C48,10.745166 37.254834,7.10542736e-15 24,7.10542736e-15 C10.745166,7.10542736e-15 5.57991845e-16,10.745166 0,24 C0,36.4729196 8,53.5638287 24,75.2727273 Z" id="Oval" fill="#230CEA"></path>
                    <path d="M34.4461784,21.8463334 C34.1137708,21.7337887 33.7776283,21.628624 33.4414857,21.5326843 C33.4975095,21.3075949 33.5497983,21.0825056 33.5964848,20.8555712 C34.3584079,17.2061718 33.8597964,14.2652503 32.1604092,13.2966281 C30.7542129,12.4959004 28.5748889,13.1084386 26.27418,14.7800038 L26.3339387,16.4072891 C28.5319373,14.6010393 30.5525274,13.9017863 31.4937265,14.4386798 C32.5395033,15.034613 32.9466092,17.4367961 32.2892638,20.589892 C32.2463123,20.7946864 32.1996258,20.9994808 32.1492044,21.2024302 C30.8531882,20.9072311 29.446992,20.6876767 27.9735672,20.5511471 C27.4618836,19.8315992 26.9389952,19.1507961 26.4123719,18.517963 L26.4422512,19.3482106 C26.7186351,19.6618597 26.8848389,20.0696035 26.8848389,20.5160922 C26.8848389,20.7909964 26.8213453,21.0511407 26.7092978,21.28361 C26.7746589,21.4441245 26.8213453,21.612019 26.8512247,21.7836035 C26.9800793,21.7909835 27.1070665,21.8002085 27.2340537,21.8094335 C27.7644119,22.5824862 28.2648908,23.373989 28.7392252,24.1839416 C29.2154271,24.9938943 29.6636172,25.8204519 30.0856628,26.6599245 C29.6692195,27.508622 29.2210295,28.3407146 28.7429601,29.1580472 C28.2704931,29.9698449 27.7700142,30.7668826 27.2452584,31.5473153 C27.1257411,31.5565403 27.0043563,31.5639203 26.8829715,31.5713003 L26.9558023,34.2151776 C27.3031496,33.7668439 27.646762,33.2982153 27.9885069,32.8111367 C29.4992808,32.6782971 30.9241517,32.4624327 32.2183004,32.1672336 C32.281794,32.4218428 32.3378178,32.6709171 32.3882391,32.9144564 C32.7001047,34.4734769 32.7449237,35.8848978 32.5376358,36.9863596 C32.35089,37.9771218 31.9773983,38.6376299 31.5142686,38.9014641 C30.66084,39.3903877 28.9633202,38.9033091 27.0454403,37.5048031 L27.0902594,39.1320884 C29.0865725,40.3774598 30.9316215,40.7556838 32.1828187,40.0398258 C33.857929,39.0822736 34.4032269,36.181942 33.6954601,32.6543121 C33.6413038,32.3849429 33.5778102,32.1100387 33.5087142,31.8295995 C33.7066648,31.7724047 33.9008805,31.7115199 34.0894938,31.650635 C37.6694118,30.4790634 40,28.5842539 40,26.6451645 C39.9981325,24.7909449 37.8188085,22.9939201 34.4461784,21.8463334 Z M29.9467932,23.5273176 C29.6423974,23.0070291 29.3249295,22.4922756 28.9962568,21.9849021 C29.9934796,22.1085167 30.9477509,22.2745662 31.844131,22.4775156 C31.575217,23.3299032 31.2390744,24.2210356 30.8450407,25.134308 C30.5574521,24.5918795 30.2567913,24.0568311 29.9467932,23.5273176 Z M28.9925219,31.3906849 C29.323062,30.8740864 29.6423974,30.3501079 29.9505281,29.8205944 C30.2642611,29.281856 30.5667894,28.7375826 30.8562454,28.1859292 C31.2745562,29.1268764 31.6256384,30.0346138 31.9057571,30.8999163 C31.0019072,31.1047107 30.023359,31.2689153 28.9925219,31.3906849 Z M33.7246617,30.4054577 C33.554723,30.4608076 33.3791819,30.5161574 33.1999059,30.5678173 C32.8040047,29.3316708 32.271779,28.0161896 31.6181685,26.6582736 C32.2418997,25.3317224 32.7535833,24.0346911 33.1382797,22.8059247 C33.4576151,22.8981744 33.7676133,22.9941142 34.0664066,23.0955889 C36.9572324,24.078971 38.7201132,25.5309818 38.7201132,26.6508936 C38.7201132,27.8446051 36.8153055,29.3925557 33.7246617,30.4054577 Z M20.9518498,37.5854876 L20.9088514,39.1966001 C18.9084936,40.3901536 17.0427392,40.7448939 15.7995262,40.0372608 C14.173067,39.1097626 13.6626953,36.406715 14.317018,33.0034248 C14.3880587,32.6339036 14.4703164,32.26623 14.5619216,31.900404 C14.2777586,31.8209569 13.9973346,31.7341194 13.7169106,31.6398915 C10.2695649,30.4740521 8,28.5525419 8,26.6365745 C8,24.7834256 10.1125275,22.9967906 13.4234001,21.8568177 C13.7935598,21.7293329 14.1805449,21.6092385 14.5806165,21.4965346 C14.4946198,21.1565751 14.4179706,20.8166156 14.3487993,20.4729608 C13.6626953,17.0086996 14.1450246,14.2409858 15.7752228,13.3079448 C17.1922987,12.4968457 19.3945618,13.0899272 21.72582,14.7453822 L21.6659962,16.3620375 C19.4469076,14.5790977 17.4072904,13.8991787 16.4445014,14.4497653 C15.4611479,15.0114375 15.0722933,17.250736 15.6593142,20.2179912 C15.7228769,20.5357794 15.7939177,20.8535677 15.8743059,21.1695083 C17.1679953,20.8794342 18.5757238,20.6632643 20.047015,20.528389 C20.5480392,19.8281463 21.0621499,19.1630082 21.585608,18.5385174 L21.5556961,19.3403784 C21.2883586,19.6526238 21.1275822,20.0554019 21.1275822,20.4951321 C21.1275822,20.7685778 21.1911449,21.0290902 21.3033145,21.2618886 C21.2378823,21.4226303 21.1911449,21.5907625 21.161233,21.7644374 C21.0341075,21.7718279 20.9088514,21.7810659 20.7835954,21.7903039 C20.2470508,22.5662984 19.7422876,23.3626166 19.2674363,24.1755633 C18.792585,24.9885099 18.3495151,25.8199326 17.9382265,26.6661362 C18.3513846,27.5141873 18.796324,28.3437624 19.2730448,29.1567091 C19.7516351,29.9751985 20.2601372,30.7733643 20.8004208,31.553054 C20.9051124,31.5585969 21.0098041,31.5659873 21.1163652,31.5715301 L21.0453244,34.1193788 C20.7162936,33.7018198 20.3891323,33.26948 20.0694489,32.824207 C18.5532898,32.7041126 17.1362139,32.5027235 15.855611,32.2218874 C15.7696143,32.5618469 15.6948345,32.903654 15.6275328,33.2473087 C15.0685543,36.1572882 15.4779733,38.3282253 16.4650658,38.8898975 C16.9287001,39.1541051 17.6951924,39.1448671 18.6579815,38.8086028 C19.3739974,38.559176 20.1517066,38.1453123 20.9518498,37.5854876 Z M18.0623518,29.8226704 C17.7538854,29.2961027 17.4585055,28.7621446 17.176212,28.2244913 C16.7798794,29.1556847 16.4396316,30.0702496 16.1629466,30.9515577 C17.0546949,31.1437087 18.0193535,31.29706 19.0438358,31.409764 C18.7035881,30.8887391 18.3764267,30.3584762 18.0623518,29.8226704 Z M19.0157934,21.9648021 C18.024962,22.0867441 17.0733899,22.2474858 16.1816416,22.4470273 C16.4527181,23.3117069 16.7854879,24.2096434 17.1743425,25.1205132 C17.456636,24.5810122 17.7501465,24.0489017 18.0567434,23.522334 C18.3652098,22.9957663 18.6848931,22.476589 19.0157934,21.9648021 Z M14.8655183,30.6300743 C15.2599813,29.3570737 15.78157,28.0212546 16.4078502,26.6725022 C15.789048,25.3422259 15.2749373,24.028578 14.8842132,22.7703583 C14.5215315,22.8719767 14.1625888,22.982833 13.807385,23.104775 C10.9769721,24.080311 9.27947219,25.5159008 9.27947219,26.6410929 C9.27947219,27.1695082 9.67019629,27.8217131 10.446036,28.4776133 C11.3097419,29.2074176 12.567911,29.876251 14.0934175,30.3917331 C14.3495381,30.476723 14.6056587,30.55617 14.8655183,30.6300743 Z M23.2637724,29.701646 C22.4881803,29.3806079 21.941127,28.6158878 21.941127,27.7213096 C21.941127,26.7726239 22.556562,25.9682249 23.4095333,25.6868657 L23.4185309,25.4325602 L23.0640259,25.4325602 C22.9362602,25.4325602 22.8318882,25.3279522 22.8318882,25.1998977 L22.8318882,24.9437886 C22.8318882,24.8157341 22.9362602,24.7111261 23.0640259,24.7111261 L23.1971902,24.7111261 L23.1971902,24.5127318 L23.1971902,24.0383889 L23.1971902,23.6307787 L23.1971902,23.3530266 L23.1971902,22.9454163 C23.1971902,22.6640571 23.3303545,22.4133587 23.5354995,22.2510361 L23.5642918,21.5133698 L23.4077338,21.5133698 C23.2925647,21.5133698 23.1989898,21.4195834 23.1989898,21.3041539 C23.1989898,21.1887245 23.2925647,21.0949381 23.4077338,21.0949381 L23.578688,21.0949381 L24.0762546,7 L24.563024,21.0967416 L24.7465748,21.0967416 C24.861744,21.0967416 24.9553189,21.1905281 24.9553189,21.3059575 C24.9553189,21.421387 24.861744,21.5151734 24.7465748,21.5151734 L24.5774202,21.5151734 L24.604413,22.2402146 C24.6242076,22.2546433 24.6440023,22.2708755 24.663797,22.2889114 C24.8419493,22.4494304 24.9553189,22.6838965 24.9553189,22.9454163 L24.9553189,23.6307787 L24.9553189,24.5235533 L24.9553189,24.7129297 L25.0884832,24.7129297 C25.2162489,24.7129297 25.3206209,24.8175376 25.3206209,24.9455922 L25.3206209,25.2017013 C25.3206209,25.3297558 25.2162489,25.4343637 25.0884832,25.4343637 L24.7213816,25.4343637 L24.7303792,25.6832585 C25.588749,25.959207 26.2113821,26.7672131 26.2113821,27.7213096 C26.2113821,28.6212986 25.6589302,29.3896258 24.8761401,29.7070568 L24.8941353,30.1940247 L25.0884832,30.1940247 C25.2162489,30.1940247 25.3206209,30.2986327 25.3206209,30.4266872 L25.3206209,30.6827963 C25.3206209,30.8108508 25.2162489,30.9154588 25.0884832,30.9154588 L24.921128,30.9154588 L25.1352706,39.0269134 C24.8113575,38.9655915 24.4595518,38.9313234 24.0762546,38.9313234 C23.6911578,38.9313234 23.3258557,38.9655915 23.0001431,39.0269134 L23.2187844,30.9154588 L23.0640259,30.9154588 C22.9362602,30.9154588 22.8318882,30.8108508 22.8318882,30.6827963 L22.8318882,30.4266872 C22.8318882,30.2986327 22.9362602,30.1940247 23.0640259,30.1940247 L23.2457772,30.1940247 L23.2637724,29.701646 Z" id="Combined-Shape" fill="#FFFFFF" fill-rule="nonzero"></path>
                </g>
            </g>
        </g>
    </g>
</svg>