<svg width="99px" height="88px" viewBox="0 0 99 88" version="1.1" xmlns="http://www.w3.org/2000/svg" xmlns:xlink="http://www.w3.org/1999/xlink">
    <defs>
        <polygon id="path-1" points="0 0.922377031 98.268535 0.922377031 98.268535 41.3437177 0 41.3437177"></polygon>
        <polygon id="path-3" points="0.056450766 0.158714062 61.5405928 0.158714062 61.5405928 87.4539317 0.056450766 87.4539317"></polygon>
        <polygon id="path-5" points="0.0565130731 0.158714062 61.5407368 0.158714062 61.5407368 87.4546875 0.0565130731 87.4546875"></polygon>
    </defs>
    <g id="RDB-Web-Design" stroke="none" stroke-width="1" fill="none" fill-rule="evenodd">
        <g id="React-day-Berlin-2018-web" transform="translate(-690.000000, -121.000000)">
            <g id="1-Screen" transform="translate(-12.000000, -4.000000)">
                <g id="Visual" transform="translate(12.000000, 0.000000)">
                    <g id="Group-43" transform="translate(589.000000, 109.000000)">
                        <g id="Page-1" transform="translate(101.385714, 15.115625)">
                            <path d="M56.0870086,44.7279981 C56.0870086,48.5716856 52.9731729,51.6876638 49.1345371,51.6876638 C45.2937443,51.6876638 42.1809871,48.5716856 42.1809871,44.7279981 C42.1809871,40.8843106 45.2937443,37.7683325 49.1345371,37.7683325 C52.9731729,37.7683325 56.0870086,40.8843106 56.0870086,44.7279981" id="Fill-1" fill="#FFFFFF"></path>
                            <g id="Group-5" transform="translate(0.000000, 23.594627)">
                                <mask id="mask-2" fill="white">
                                    <use xlink:href="#path-1"></use>
                                </mask>
                                <g id="Clip-4"></g>
                                <path d="M49.1342136,5.60066297 C42.9410564,5.60066297 36.9366493,6.06276922 31.2903279,6.97510516 C25.8758993,7.84965203 21.0255636,9.09669109 16.8762993,10.6816723 C12.9060779,12.1975536 9.691935,14.0071098 7.58009214,15.913838 C5.65160643,17.6553739 4.67334214,19.4109458 4.67334214,21.1330473 C4.67334214,22.8551489 5.65160643,24.6118005 7.58009214,26.3522567 C9.691935,28.2589848 12.9060779,30.0685411 16.8762993,31.5844223 C21.0255636,33.1694036 25.8758993,34.4164427 31.2903279,35.2909895 C36.9366493,36.2033255 42.9410564,36.6654317 49.1342136,36.6654317 C55.3273707,36.6654317 61.3306993,36.2033255 66.9770207,35.2909895 C72.3925279,34.4164427 77.2428636,33.1694036 81.3910493,31.5844223 C85.3623493,30.0685411 88.5764921,28.2589848 90.688335,26.3522567 C92.6157421,24.6118005 93.595085,22.8551489 93.595085,21.1330473 C93.595085,19.4109458 92.6157421,17.6553739 90.688335,15.913838 C88.5764921,14.0071098 85.3623493,12.1975536 81.3910493,10.6816723 C77.2428636,9.09669109 72.3925279,7.84965203 66.9770207,6.97510516 C61.3306993,6.06276922 55.3273707,5.60066297 49.1342136,5.60066297 M49.1342136,41.3437177 C36.3563779,41.3437177 24.308735,39.4305114 15.210985,35.956077 C10.6421564,34.211302 7.02139214,32.1490989 4.44899929,29.8266911 C3.05440643,28.5666958 1.97044214,27.2257239 1.228385,25.8404848 C0.412985,24.3192052 -0.000107857147,22.7363833 -0.000107857147,21.1330473 C-0.000107857147,19.5307911 0.412985,17.9468895 1.228385,16.4256098 C1.97044214,15.0403708 3.05440643,13.6983192 4.44899929,12.4394036 C7.02139214,10.1169958 10.6421564,8.05479266 15.210985,6.31001766 C24.308735,2.83558328 36.3563779,0.922377031 49.1342136,0.922377031 C61.9120493,0.922377031 73.9596921,2.83558328 83.0574421,6.31001766 C87.6262707,8.05479266 91.247035,10.1169958 93.8194279,12.4394036 C95.2140207,13.6983192 96.297985,15.0403708 97.0400421,16.4256098 C97.8554421,17.9468895 98.268535,19.5307911 98.268535,21.1330473 C98.268535,22.7363833 97.8554421,24.3192052 97.0400421,25.8404848 C96.297985,27.2257239 95.2140207,28.5666958 93.8194279,29.8266911 C91.247035,32.1490989 87.6262707,34.211302 83.0574421,35.956077 C73.9596921,39.4305114 61.9120493,41.3437177 49.1342136,41.3437177" id="Fill-3" fill="#FFFFFF" mask="url(#mask-2)"></path>
                            </g>
                            <g id="Group-8" transform="translate(18.335714, 0.921189)">
                                <mask id="mask-4" fill="white">
                                    <use xlink:href="#path-3"></use>
                                </mask>
                                <g id="Clip-7"></g>
                                <path d="M50.6910236,4.83516453 C49.7451164,4.83516453 48.6902736,5.01547234 47.5318879,5.37500828 C44.8171236,6.21932391 41.6213164,8.06235047 38.2917664,10.7054255 C34.8112164,13.4672661 31.2648736,17.0043223 27.7487307,21.2194223 C24.0815879,25.6137505 20.6193736,30.5446833 17.4570021,35.8761802 C14.2946307,41.2065973 11.626245,46.6093536 9.527345,51.935452 C7.51365214,57.0434536 6.10827357,61.8545411 5.35111643,66.2348333 C4.62631643,70.4261802 4.53895214,74.116552 5.09873071,76.9075442 C5.608895,79.4566864 6.61843786,81.1949833 8.09823786,82.0749286 C9.57695929,82.9537942 11.5841807,83.0088583 14.064895,82.2379614 C16.7807379,81.3936458 19.9754664,79.5506192 23.3050164,76.9075442 C26.7855664,74.1457036 30.3319093,70.6075677 33.8491307,66.3935473 C37.515195,61.9992192 40.9774093,57.0672067 44.1397807,51.7367895 C47.3021521,46.4063723 49.9705379,41.0036161 52.0694379,35.6775177 C54.0842093,30.5695161 55.4885093,25.7584286 56.2456664,21.3781364 C56.9704664,17.1867895 57.0578307,13.495338 56.4991307,10.7054255 C55.9878879,8.15628328 54.9794236,6.41798641 53.4996236,5.53912078 C52.7101093,5.06945672 51.7717521,4.83516453 50.6910236,4.83516453 M10.8960521,87.4539317 C10.7224021,87.4539317 10.5519879,87.4506927 10.3815736,87.4431348 C8.659095,87.3686364 7.08761643,86.9151677 5.71135929,86.0967645 C4.33510214,85.2783614 3.185345,84.1144583 2.29552357,82.6363661 C1.48443786,81.2899958 0.884752143,79.6726239 0.514802143,77.8285177 C-0.165776429,74.4296614 -0.0881192857,70.2599083 0.745616429,65.4369442 C2.40553786,55.8309645 6.91396643,44.4856083 13.438245,33.4868317 C19.9625236,22.4891348 27.7573593,13.0958536 35.3882521,7.03988641 C39.2182593,3.99840672 42.8390236,1.93404422 46.1459236,0.906181719 C47.9406664,0.349062969 49.6458879,0.100734844 51.2141307,0.169834844 C52.9376879,0.245412969 54.5091664,0.697802031 55.8854236,1.51620516 C57.2627593,2.33460828 58.4114379,3.49851141 59.3012593,4.97660359 C60.112345,6.32297391 60.7120307,7.94034578 61.0809021,9.78445203 C61.7636379,13.1833083 61.6849021,17.3530614 60.8511664,22.1760255 C59.1901664,31.7820052 54.6828164,43.1284411 48.1585379,54.126138 C41.6353379,65.1238348 33.8394236,74.5171161 26.2096093,80.5730833 C22.3785236,83.614563 18.7588379,85.6778458 15.4497807,86.706788 C13.8513379,87.2034442 12.3219236,87.4539317 10.8960521,87.4539317" id="Fill-6" fill="#FFFFFF" mask="url(#mask-4)"></path>
                            </g>
                            <g id="Group-11" transform="translate(18.335714, 0.921189)">
                                <mask id="mask-6" fill="white">
                                    <use xlink:href="#path-5"></use>
                                </mask>
                                <g id="Clip-10"></g>
                                <path d="M8.09802214,5.53901281 C6.61822214,6.41787844 5.60867929,8.15617531 5.098515,10.7053175 C4.53873643,13.4963097 4.62610071,17.1866816 5.35090071,21.3780284 C6.10805786,25.7583206 7.51343643,30.5694081 9.52712929,35.6774097 C11.6260293,41.0035081 14.294415,46.4062644 17.4567864,51.7377613 C20.6191579,57.0681784 24.0813721,61.9991113 27.748515,66.3934394 C31.2646579,70.6085394 34.8120793,74.1455956 38.2915507,76.9074363 C41.6211007,79.5505113 44.8169079,81.3935378 47.5327507,82.2378534 C50.0123864,83.0087503 52.0196079,82.9536863 53.4994079,82.0748206 C54.9792079,81.1948753 55.9876721,79.4565784 56.498915,76.9085159 C57.0586936,74.1175238 56.9713293,70.4260722 56.2465293,66.2347253 C55.4882936,61.8544331 54.0839936,57.0433456 52.0703007,51.9353441 C49.9703221,46.6103253 47.303015,41.2064894 44.139565,35.8760722 C40.9771936,30.545655 37.5149793,25.6136425 33.848915,21.2193144 C30.3316936,17.0052941 26.7853507,13.4671581 23.3058793,10.7053175 C19.9763293,8.0622425 16.7805221,6.21921594 14.0646793,5.37490031 C11.583965,4.60400344 9.57674357,4.66014719 8.09802214,5.53901281 M50.700515,87.4549034 C49.2757221,87.4549034 47.7463079,87.2033363 46.1457079,86.70668 C42.8388079,85.6788175 39.2191221,83.614455 35.3880364,80.574055 C27.7582221,74.5170081 19.9623079,65.1248066 13.4380293,54.12603 C6.91375071,43.1283331 2.40640071,31.7818972 0.746479286,22.1759175 C-0.088335,17.3529534 -0.165992143,13.18428 0.515665,9.78434406 C0.885615,7.9413175 1.48422214,6.32286594 2.29530786,4.97649563 C3.18512929,3.49840344 4.33488643,2.33450031 5.71114357,1.51609719 C7.08740071,0.697694063 8.65995786,0.245305 10.3813579,0.169726875 C11.9506793,0.100626875 13.6559007,0.348955 15.449565,0.90607375 C18.7586221,1.93501594 22.3783079,3.99829875 26.2093936,7.03977844 C33.8392079,13.0968253 41.6351221,22.4890269 48.1594007,33.4867238 C54.6826007,44.4844206 59.1899507,55.8319363 60.8509507,65.4368363 C61.685765,70.2598003 61.7634221,74.4295534 61.0806864,77.8284097 C60.711815,79.6725159 60.1132079,81.2898878 59.3021221,82.6362581 C58.4112221,84.1143503 57.2625436,85.2793331 55.8862864,86.0966566 C54.5089507,86.9161394 52.9374721,87.3685284 51.2149936,87.4430269 C51.0445793,87.4505847 50.8730864,87.4549034 50.700515,87.4549034" id="Fill-9" fill="#FFFFFF" mask="url(#mask-6)"></path>
                            </g>
                        </g>
                    </g>
                </g>
            </g>
        </g>
    </g>
</svg>
