<?xml version="1.0" encoding="utf-8"?>
<!-- Generator: Adobe Illustrator 23.0.5, SVG Export Plug-In . SVG Version: 6.00 Build 0)  -->
<svg version="1.1" id="Layer_1" xmlns="http://www.w3.org/2000/svg" xmlns:xlink="http://www.w3.org/1999/xlink" x="0px" y="0px"
	 viewBox="0 0 66 59.2" style="enable-background:new 0 0 66 59.2;" xml:space="preserve">
<style type="text/css">
	.st0{fill:#FECD1B;}
</style>
<path class="st0" d="M66,34.8c0-4.1-3.3-7.4-7.4-7.4h-4.4c-1.6,0-3-1.3-3-3l0,0c0-3.8,1.9-7.2,4.8-9.2c3.1-2.2,6.6-5.2,6.6-9.1l0,0
	c0-3.9-3.2-7.1-6.9-6C45.1,3.2,37.2,13,37.2,24.5v24.7c0,5.5,4.5,10,10,10H56c5.5,0,10-4.5,10-10V34.8z"/>
<path class="st0" d="M18.8,59.2c5.5,0,10-4.5,10-10V34.8c0-4.1-3.3-7.4-7.4-7.4H17c-1.6,0-3-1.3-3-3l0,0c0-3.8,1.9-7.2,4.8-9.2
	c3.1-2.2,6.6-5.2,6.6-9.1l0,0c0-3.9-3.2-7.1-6.9-6C7.8,3.2,0,13,0,24.5v24.7c0,5.5,4.5,10,10,10L18.8,59.2z"/>
</svg>
