<svg width="800" height="427" viewBox="0 0 800 427" fill="none" xmlns="http://www.w3.org/2000/svg">
<path d="M5.7732 426.304L303.68 328.675V40.5281L242.215 0L181.194 40.5372V79.3037C181.076 79.2799 180.954 79.2585 180.836 79.2312C180.294 79.1266 179.755 79.0313 179.212 78.9359L178.606 78.827C177.1 78.5545 175.589 78.3003 173.884 78.046C173.015 77.919 172.147 77.7872 171.274 77.6737C170.568 77.5783 169.853 77.501 168.922 77.3921C167.972 77.2831 167.026 77.1833 166.072 77.0924C165.312 77.0199 164.556 76.9518 163.792 76.8881L161.2 76.7154C160.196 76.6517 159.192 76.5928 158.183 76.5475C157.4 76.5169 156.613 76.4931 155.69 76.4703C153.169 76.4284 147.951 76.4533 147.951 76.4533C132.964 76.8392 118.109 79.4727 103.761 84.2765C84.3326 90.783 66.7453 100.922 51.4966 114.407C36.7727 127.424 24.8443 142.994 16.0371 160.688C7.22986 178.378 1.98716 197.302 0.462759 216.94C-1.12047 237.272 1.36292 257.468 7.84959 276.964C11.2331 287.126 15.6842 296.938 21.1034 306.173L5.78236 311.204L5.7732 426.304ZM34.1218 301.686C28.5534 292.619 24.0164 282.871 20.6283 272.682C8.94869 237.575 11.6175 199.962 28.1463 166.762C44.6706 133.562 73.0373 108.826 108.017 97.1068C122.235 92.3439 136.968 89.9329 151.809 89.9284L153.003 89.9521C154.374 89.9659 155.749 89.9828 157.111 90.0339C158.825 90.102 160.535 90.1973 162.222 90.3335C217.888 94.5879 265.272 131.67 282.949 184.802C286.337 194.996 288.545 205.525 289.522 216.118L34.1218 301.686ZM289.983 47.7566V165.754C278.923 141.208 261.689 120.2 239.651 104.535C226.94 95.4904 212.971 88.4845 198.134 83.6988C197.053 83.3492 195.967 83.0269 194.841 82.6954V47.7475L242.22 16.273L289.983 47.7566ZM290.017 230.233V318.904L19.441 407.575V320.956L290.017 230.233Z" fill="white"/>
<path d="M406.935 272.582C401.957 267.585 394.552 264.072 385.262 264.072C372.067 264.072 364.531 273.797 364.531 287.448C364.531 301.632 373.147 310.825 386.073 310.825C395.631 310.825 401.552 307.988 408.552 302.446V322.986C400.74 327.714 393.341 328.929 385.131 328.929C359.958 328.929 343.937 311.77 343.937 287.448C343.937 262.988 360.358 245.962 385.131 245.962C393.341 245.962 400.472 247.314 406.935 251.096V272.582Z" fill="white"/>
<path d="M478.026 309.876V327.579H424.18V247.317H477.084V265.014H443.969V278.797H474.121V296.093H443.969V309.876H478.026Z" fill="white"/>
<path d="M547.246 296.499V247.316H566.63V327.578H547.652L514.268 279.335V327.578H494.885V247.316H515.073L547.246 296.499Z" fill="white"/>
<path d="M625.397 327.576H605.476V265.018H581.514V247.315H649.359V265.018H625.397V327.576Z" fill="white"/>
<path d="M717.074 309.876V327.579H663.228V247.317H716.132V265.014H683.017V278.797H713.175V296.093H683.017V309.876H717.074Z" fill="white"/>
<path d="M752.583 327.577H732.663V247.722C738.989 246.639 749.62 245.962 757.967 245.962C778.43 245.962 792.161 254.61 792.161 273.797C792.161 285.282 785.698 293.392 777.756 297.581L799.161 327.577H775.604L758.373 301.902H752.583V327.577ZM752.583 285.42H757.561C765.909 285.42 771.836 282.583 771.836 274.342C771.836 266.233 765.641 263.396 758.104 263.396C756.488 263.396 753.662 263.528 752.583 263.665V285.42Z" fill="white"/>
<path d="M697.579 133.773H677.659V71.2148H653.696V53.5118H711.723L721.542 71.2148H697.579V133.773Z" fill="white"/>
<path d="M777.79 53.5118H800L771.196 104.586V133.773H751.269V104.586L722.596 53.5118H744.675L761.632 85.3985L777.79 53.5118Z" fill="white"/>
<path d="M350.139 53.402H370.197V115.961H400.617V133.664H350.139V53.402Z" fill="white"/>
<path d="M433.401 133.663H413.343V53.4013H433.401V133.663Z" fill="white"/>
<path d="M447.927 54.2117C454.253 53.1347 464.89 52.0513 472.426 52.0513C490.194 52.0513 504.331 57.7248 504.331 74.883C504.331 84.2073 497.868 90.5634 490.063 92.0475C500.425 93.1246 508.236 99.75 508.236 111.235C508.236 126.502 496.52 134.743 469.6 134.743C462.057 134.743 453.311 133.935 447.927 133.121V54.2117ZM467.179 85.56H472.963C481.31 85.56 484.679 82.454 484.679 76.6427C484.679 71.3762 480.505 68.9403 474.447 68.9403C472.021 68.9403 468.658 69.2096 467.179 69.4788V85.56ZM467.179 117.992C468.926 118.123 472.021 118.261 473.505 118.261C481.578 118.261 487.773 116.232 487.773 109.744C487.773 103.532 483.194 101.503 476.194 101.503H467.179V117.992Z" fill="white"/>
<path d="M572.943 115.963V133.666H519.096V53.4039H572.001V71.1007H538.885V84.8837H569.043V102.18H538.885V115.963H572.943Z" fill="white"/>
<path d="M606.42 133.333H586.499V53.4785C592.825 52.3951 603.456 51.7188 611.804 51.7188C632.267 51.7188 645.998 60.3668 645.998 79.554C645.998 91.0387 639.535 99.1482 631.593 103.338L652.998 133.333H629.44L612.209 107.658H606.42V133.333ZM606.42 91.1765H611.404C619.746 91.1765 625.672 88.3398 625.672 80.0988C625.672 71.9893 619.477 69.1526 611.941 69.1526C610.325 69.1526 607.499 69.2841 606.42 69.4219V91.1765Z" fill="white"/>
<path d="M349.037 206.594C354.964 211.053 362.095 214.835 371.116 214.835C377.174 214.835 382.42 213.082 382.42 207.678C382.42 202.812 378.247 201.052 370.174 199.03C353.616 194.84 347.421 187.27 347.421 173.894C347.421 158.088 359.406 149.033 375.152 149.033C384.71 149.033 391.304 151.331 397.231 154.844V174.57C391.036 169.435 384.173 166.191 375.963 166.191C369.906 166.191 366.942 168.896 366.942 172.679C366.942 177.814 371.515 179.436 380 181.596C396.42 185.923 402.072 193.619 402.072 207.001C402.072 224.429 388.21 231.994 371.247 231.994C362.363 231.994 354.29 229.564 349.037 226.32V206.594Z" fill="white"/>
<path d="M471.047 175.651C466.069 170.653 458.663 167.14 449.374 167.14C436.185 167.14 428.643 176.865 428.643 190.517C428.643 204.701 437.258 213.893 450.185 213.893C459.743 213.893 465.663 211.057 472.663 205.515V226.054C464.852 230.782 457.453 231.997 449.243 231.997C424.07 231.997 408.049 214.839 408.049 190.517C408.049 166.057 424.469 149.03 449.243 149.03C457.453 149.03 464.584 150.383 471.047 154.165V175.651Z" fill="white"/>
<path d="M505.926 230.645H485.868V150.383H505.926V230.645Z" fill="white"/>
<path d="M574.394 212.945V230.648H520.548V150.386H573.452V168.083H540.337V181.866H570.489V199.162H540.337V212.945H574.394Z" fill="white"/>
<path d="M639.625 199.568V150.385H659.009V230.647H640.03L606.647 182.404V230.647H587.264V150.385H607.452L639.625 199.568Z" fill="white"/>
<path d="M799.096 212.945V230.648H745.25V150.386H798.154V168.083H765.039V181.866H795.19V199.162H765.039V212.945H799.096Z" fill="white"/>
<path d="M732.278 175.651C727.3 170.653 719.895 167.14 710.605 167.14C697.417 167.14 689.874 176.865 689.874 190.517C689.874 204.701 698.49 213.893 711.416 213.893C720.974 213.893 726.894 211.057 733.894 205.515V226.054C726.083 230.782 718.684 231.997 710.474 231.997C685.301 231.997 669.28 214.839 669.28 190.517C669.28 166.057 685.7 149.03 710.474 149.03C718.684 149.03 725.815 150.383 732.278 154.165V175.651Z" fill="white"/>
</svg>
