<svg xmlns="http://www.w3.org/2000/svg" xmlns:xlink="http://www.w3.org/1999/xlink" width="48" height="48" viewBox="0 0 48 48">
  <defs>
    <style>
      .cls-1, .cls-4, .cls-5 {
        fill: #494949;
      }

      .cls-1, .cls-2 {
        fill-opacity: 0;
        stroke: lime;
        stroke-linejoin: round;
        stroke-width: 2px;
      }

      .cls-2, .cls-3 {
        fill: #262827;
      }

      .cls-3 {
        fill-rule: evenodd;
        filter: url(#filter);
      }

      .cls-4 {
        filter: url(#filter-2);
      }

      .cls-5 {
        filter: url(#filter-3);
      }
    </style>
    <filter id="filter" x="1000" y="6117" width="14" height="14" filterUnits="userSpaceOnUse">
      <feFlood result="flood" flood-color="lime"/>
      <feComposite result="composite" operator="in" in2="SourceGraphic"/>
      <feBlend result="blend" in2="SourceGraphic"/>
    </filter>
    <filter id="filter-2" x="20" y="23" width="8" height="2" filterUnits="userSpaceOnUse">
      <feFlood result="flood" flood-color="lime"/>
      <feComposite result="composite" operator="in" in2="SourceGraphic"/>
      <feBlend result="blend" in2="SourceGraphic"/>
    </filter>
    <filter id="filter-3" x="23" y="20" width="2" height="13" filterUnits="userSpaceOnUse">
      <feFlood result="flood" flood-color="lime"/>
      <feComposite result="composite" operator="in" in2="SourceGraphic"/>
      <feBlend result="blend" in2="SourceGraphic"/>
    </filter>
  </defs>
  <circle id="Ellipse_1_copy_3" data-name="Ellipse 1 copy 3" class="cls-1" cx="24" cy="24" r="21"/>
  <circle class="cls-2" cx="24" cy="18" r="1.5"/>
  <path class="cls-3" d="M1007,6117a7,7,0,1,1-7,7A6.995,6.995,0,0,1,1007,6117Zm0,2a5,5,0,1,1-5,5A5,5,0,0,1,1007,6119Zm-13-7h26v13H994v-13Z" transform="translate(-983 -6097)"/>
  <rect id="Rectangle_32_copy_9" data-name="Rectangle 32 copy 9" class="cls-4" x="20" y="23" width="8" height="2"/>
  <rect id="Rectangle_32_copy_10" data-name="Rectangle 32 copy 10" class="cls-5" x="23" y="20" width="2" height="13"/>
</svg>
