<?xml version="1.0" encoding="utf-8"?>
<!-- Generator: Adobe Illustrator 23.0.5, SVG Export Plug-In . SVG Version: 6.00 Build 0)  -->
<svg version="1.1" id="Layer_1" xmlns="http://www.w3.org/2000/svg" xmlns:xlink="http://www.w3.org/1999/xlink" x="0px" y="0px"
	 width="30px" height="20.5px" viewBox="0 0 30 20.5" style="enable-background:new 0 0 30 20.5;" xml:space="preserve">
<style type="text/css">
	.st0{fill:#5C6BC0;}
	.st1{fill:#7785F2;}
</style>
<g>
	<polygon class="st0" points="19.2,0 19.2,0 19.3,0 	"/>
	<path class="st1" d="M6,16.2c6.8,2.7,12.4,3.4,18.9-0.7c0,0-1.2,1.9-4.6,2.9c0.7,0.9,1.6,2,1.6,2c5.7-0.1,7.9-3.7,8-3.5
		C30,9,26.2,2.6,26.2,2.6C22.9,0.1,19.8,0,19.2,0l-0.4,0.4c4.3,1.2,6.4,3.1,6.4,3.1C14-2,4.8,3.4,4.6,3.4c0,0,2.1-2,6.6-3.1L10.9,0
		c0,0-3.5-0.1-7.2,2.6l0,0C3.7,2.6,0,9,0,16.9c0,0,2.1,3.5,7.7,3.7c0,0,0.8-1.1,1.7-2c-3.2-1-4.4-2.9-4.4-2.9L6,16.2z M10.2,14.4
		c-1.4,0-2.6-1.2-2.6-2.7c0-1.5,1.2-2.7,2.6-2.7l0,0c1.4,0,2.6,1.2,2.6,2.7C12.8,13.2,11.7,14.4,10.2,14.4z M19.6,14.4
		c-1.4,0-2.6-1.2-2.6-2.7c0-1.5,1.2-2.7,2.6-2.7v0c1.5,0,2.6,1.2,2.6,2.7C22.2,13.2,21.1,14.4,19.6,14.4z"/>
</g>
</svg>
