<?xml version="1.0" encoding="utf-8"?>
<!-- Generator: Adobe Illustrator 23.0.5, SVG Export Plug-In . SVG Version: 6.00 Build 0)  -->
<svg version="1.1" id="Layer_1" xmlns="http://www.w3.org/2000/svg" xmlns:xlink="http://www.w3.org/1999/xlink" x="0px" y="0px"
	 width="203px" height="227.8px" viewBox="0 0 203 227.8" style="enable-background:new 0 0 203 227.8;" xml:space="preserve">
<style type="text/css">
	.st0{fill-rule:evenodd;clip-rule:evenodd;fill:#2C302D;}
	.st1{fill:#2C302D;}
</style>
<g>
	<path class="st0" d="M155.5,89.3c0.1,14.2-0.6,122.6-54,122.5c-53.4,0.1-54.1-108.3-54-122.5H31.8c1.1,36.8,9.1,138.6,69.7,138.5
		c60.5,0.1,68.6-101.6,69.7-138.5H155.5z"/>
	<path class="st0" d="M102.2,182.5c-6.8,0-12.4-5.6-12.4-12.4c0-0.1,0-0.3,0-0.4H77.2c0,0.1,0,0.3,0,0.4c0,13.8,11.2,25,25,25
		c13.8,0,25-11.2,25-25c0-0.1,0-0.3,0-0.4h-12.6c0,0.1,0,0.3,0,0.4C114.6,176.9,109.1,182.5,102.2,182.5L102.2,182.5z"/>
	<rect x="107.9" y="119.5" class="st0" width="35" height="12.1"/>
	<path class="st0" d="M40.5,153.6l8.6,8.6l25.6-25.6c-1.1-0.6-2.2-1.3-3.1-2.2l-1.6-1.6c-1.5-1.6-2.6-3.5-3.1-5.4L40.5,153.6z
		 M91.1,120.3l29.1-29.1l-8.6-8.6l-29.9,29.8c2,0.6,3.8,1.6,5.4,3.1l1.6,1.7C89.7,118.1,90.5,119.1,91.1,120.3L91.1,120.3z"/>
	<path class="st1" d="M168.1,81c0.1,0,18.1,1,20-18.2c-8.9,4.2-20.9,4-29.2-18.9c-3.8-10.6-14.9-19.5-24.5-24.7
		c-0.3,17.9-14.9,32.2-32.8,32.2c-17.9,0-32.5-14.2-32.8-32c-10.3,5.4-20.5,13.4-24.6,24.6c-8.3,22.8-20.3,23-29.2,18.9
		c1.9,19.2,19.9,18.2,20,18.2L168.1,81z M201.7,47.8c9.3,50.2-34,47.8-34.3,47.8L35.6,95.7c0,0-43.7,2.6-34.3-47.8l12.6-3.5
		c0.1,0.1,10.3,11.8,16.5-5.1C37.5,19.4,57.3,7,76.3,0.3l8.9,10.2c-6,11.8,2.4,26.4,16.3,26.4s22.3-14.8,16.1-26.6L126.4,0
		c18.4,6.2,39.3,20,46.2,39c6.1,17,16.4,5.2,16.5,5.1L201.7,47.8z"/>
	<path class="st0" d="M78.5,105.5c-10.7,0-19.4,8.6-19.4,19.4c0,10.6,8.7,19.4,19.4,19.4c10.7,0,19.4-8.7,19.4-19.4
		C97.9,114.1,89.3,105.5,78.5,105.5L78.5,105.5z M72.4,124.8c0-3.4,2.8-6.1,6.1-6.1c3.4,0,6.1,2.7,6.1,6.1c0,3.4-2.7,6.1-6.1,6.1
		C75.2,130.9,72.4,128.2,72.4,124.8L72.4,124.8z"/>
	<path class="st0" d="M101.5,59.3c-3.4,0-6.2,2.7-6.2,6.1c0,3.4,2.8,6.1,6.2,6.1c3.4,0,6.1-2.7,6.1-6.1
		C107.7,62,104.9,59.3,101.5,59.3L101.5,59.3z"/>
</g>
</svg>
