<?xml version="1.0" encoding="utf-8"?>
<!-- Generator: Adobe Illustrator 23.0.5, SVG Export Plug-In . SVG Version: 6.00 Build 0)  -->
<svg version="1.1" id="Layer_1" xmlns="http://www.w3.org/2000/svg" xmlns:xlink="http://www.w3.org/1999/xlink" x="0px" y="0px"
	 width="161.2px" height="197.3px" viewBox="0 0 161.2 197.3" style="enable-background:new 0 0 161.2 197.3;" xml:space="preserve"
	>
<style type="text/css">
	.st0{fill-rule:evenodd;clip-rule:evenodd;fill:#2C302D;}
</style>
<g>
	<path class="st0" d="M81.3,145c-7.6,0-13.7-6.1-13.7-13.7c0-0.2,0-0.3,0-0.4H53.6c0,0.1,0,0.3,0,0.4c0,15.2,12.4,27.6,27.6,27.6
		s27.6-12.4,27.6-27.6c0-0.2,0-0.3,0-0.4h-14c0.1,0.1,0.1,0.3,0.1,0.4C94.9,138.8,88.8,145,81.3,145L81.3,145z"/>
	<polygon class="st0" points="40.9,61.7 31.4,71.1 55.1,94.7 78.8,71.1 69.3,61.7 55.1,75.8 	"/>
	<polygon class="st0" points="94.6,61.7 85.1,71.1 108.8,94.7 132.5,71.1 123,61.7 108.8,75.8 	"/>
	<path class="st0" d="M20.9,43.1c38.3-12.2,52.9-19.7,59.5-23.5c6.6,3.7,21.1,11.3,59.5,23.5c0,4.3,2.4,136.7-59.5,136.6
		C18.5,179.8,20.9,47.4,20.9,43.1L20.9,43.1z M80.4,197.3c80.1,0.2,76.9-161.4,76.9-166.9C107.8,14.5,88.9,4.8,80.4,0
		C71.9,4.8,53.1,14.5,3.5,30.3C3.5,35.9,0.4,197.4,80.4,197.3L80.4,197.3z"/>
	<path class="st0" d="M20.9,43.1c38.3-12.2,52.9-19.7,59.5-23.5c6.6,3.7,21.1,11.3,59.5,23.5c0,4.3,2.4,136.7-59.5,136.6
		C18.5,179.8,20.9,47.4,20.9,43.1L20.9,43.1z M80.4,197.3c80.1,0.2,76.9-161.4,76.9-166.9C107.8,14.5,88.9,4.8,80.4,0
		C71.9,4.8,53.1,14.5,3.5,30.3C3.5,35.9,0.4,197.4,80.4,197.3L80.4,197.3z"/>
	<path class="st0" d="M81.3,145c-7.6,0-13.7-6.1-13.7-13.7c0-0.2,0-0.3,0-0.4H53.6c0,0.1,0,0.3,0,0.4c0,15.2,12.4,27.6,27.6,27.6
		s27.6-12.4,27.6-27.6c0-0.2,0-0.3,0-0.4h-14c0.1,0.1,0.1,0.3,0.1,0.4C94.9,138.8,88.8,145,81.3,145L81.3,145z"/>
	<path class="st0" d="M28.1,151H14.1v12.8c0,7.5-6.1,13.7-13.7,13.7c-0.1,0-0.3,0-0.4,0v13.9c0.1,0,0.3,0,0.4,0
		c15.3,0,27.6-12.4,27.6-27.6L28.1,151L28.1,151z"/>
	<path class="st0" d="M28.1,119.8H14.1v20.3c0,7.6-6.1,13.7-13.7,13.7c-0.1,0-0.3,0-0.4,0v13.9c0.1,0,0.3,0,0.4,0
		c15.3,0,27.6-12.4,27.6-27.6L28.1,119.8L28.1,119.8z"/>
	<path class="st0" d="M133.1,151h13.9v12.8c0,7.5,6.1,13.7,13.7,13.7c0.1,0,0.3,0,0.4,0v13.9c-0.1,0-0.3,0-0.4,0
		c-15.3,0-27.6-12.4-27.6-27.6L133.1,151L133.1,151z"/>
	<path class="st0" d="M133.1,117.9h13.9v22.2c0,7.6,6.1,13.7,13.7,13.7c0.1,0,0.3,0,0.4,0v13.9c-0.1,0-0.3,0-0.4,0
		c-15.3,0-27.6-12.4-27.6-27.6L133.1,117.9L133.1,117.9z"/>
</g>
</svg>
