<?xml version="1.0" encoding="utf-8"?>
<!-- Generator: Adobe Illustrator 23.0.5, SVG Export Plug-In . SVG Version: 6.00 Build 0)  -->
<svg version="1.1" id="Layer_1" xmlns="http://www.w3.org/2000/svg" xmlns:xlink="http://www.w3.org/1999/xlink" x="0px" y="0px"
	 viewBox="0 0 24 24" style="enable-background:new 0 0 24 24;" xml:space="preserve">
<style type="text/css">
	.st0{fill:none;}
	.st1{fill:#FFFFFF;}
</style>
<g>
	<path class="st0" d="M7.9,11.9c0,0.7,0.3,1.3,0.7,1.3c0.4,0,0.7-0.6,0.7-1.3S9,10.6,8.6,10.6C8.2,10.6,7.9,11.2,7.9,11.9z"/>
	<path class="st0" d="M15.4,13.2c0.4,0,0.7-0.6,0.7-1.3s-0.3-1.3-0.7-1.3s-0.7,0.6-0.7,1.3C14.7,12.7,15.2,13.2,15.4,13.2z"/>
	<path class="st1" d="M21.5,11c0-1.6-0.5-3.1-1.4-4.4c0.2-0.6,0.2-1.1,0.2-1.7l0-0.4c0-0.6,0-1.1-0.4-1.8l-0.1-0.3h-0.3
		c-1.9,0-3.2,0.4-4.4,1.3c-1.9-0.3-4.2-0.3-6.2,0C7.7,2.9,6.4,2.5,4.5,2.5H4.2L4,2.8C3.7,3.6,3.7,4.1,3.7,4.9c0,0.6,0.1,1.2,0.2,1.8
		C3,7.9,2.5,9.4,2.5,11c-0.1,1.3,0.2,2.6,0.8,3.8c0.9,1.8,4.2,2.7,5.7,2.9c-0.1,0.1-0.2,0.3-0.2,0.4l0,0.1c0,0.2-0.1,0.4-0.1,0.6
		c-0.8,0.4-1.4,0-2.2-0.5C6.3,18.1,6.1,18,6,17.9c-1-0.7-1.9-0.9-3.2-0.3l0.4,0.9c0.9-0.4,1.5-0.3,2.2,0.3c0.1,0.1,0.3,0.2,0.4,0.3
		c0.5,0.4,1.2,0.9,2.1,0.9c0.2,0,0.3,0,0.5-0.1c0,0.1-0.1,0.3-0.2,0.4c-0.3,0.2-0.5,0.3-0.7,0.3v1c0.4,0,0.9-0.2,1.4-0.5L9,20.9
		c0.3-0.5,0.5-0.9,0.5-1.4c0-0.3,0.1-0.7,0.2-1c0.2-0.3,0.3-0.6,0.6-0.8l0.7-0.7l-1-0.1c-1.3-0.2-5-0.9-5.8-2.5
		c-0.5-1-0.7-2.1-0.6-3.3c0-1.4,0.5-2.8,1.4-3.9l0.2-0.2L5,6.6C4.8,6.1,4.7,5.5,4.7,4.9c0-0.6,0-1,0.1-1.4c1.6,0,2.6,0.4,3.7,1.2
		l0.2,0.1l0.2,0c1.9-0.4,4.3-0.4,6.2,0l0.2,0l0.2-0.1c1.1-0.8,2.1-1.2,3.7-1.2c0.1,0.3,0.1,0.6,0.1,1c0,0.1,0,0.3,0,0.4
		c0,0.5-0.1,1.1-0.3,1.6l-0.1,0.3L19.1,7c0.9,1.2,1.4,2.6,1.4,4c0.1,1-0.1,2.1-0.6,3.3c-0.8,1.6-4.5,2.4-5.8,2.5L13,17l0.7,0.7
		c0.2,0.2,0.4,0.5,0.6,0.9c0.1,0.3,0.1,0.6,0.1,1c0,0.4,0.2,0.9,0.5,1.4c0.4,0.6,1.2,0.6,1.5,0.6v-1c-0.4,0-0.6-0.1-0.7-0.2
		c-0.2-0.3-0.3-0.6-0.3-0.8c0-0.4,0-0.9-0.3-1.4c-0.1-0.2-0.2-0.3-0.2-0.4c1.6-0.3,4.8-1.1,5.7-3C21.4,13.4,21.6,12.1,21.5,11z"/>
	<path class="st1" d="M6.9,11.9c0,1.3,0.7,2.3,1.7,2.3c1,0,1.7-1,1.7-2.3S9.6,9.6,8.6,9.6C7.6,9.6,6.9,10.6,6.9,11.9z M9.3,11.9
		c0,0.7-0.3,1.3-0.7,1.3c-0.4,0-0.7-0.6-0.7-1.3s0.3-1.3,0.7-1.3C9,10.6,9.3,11.2,9.3,11.9z"/>
	<path class="st1" d="M15.4,14.2c1,0,1.7-1,1.7-2.3s-0.7-2.3-1.7-2.3c-1,0-1.7,1-1.7,2.3C13.7,13.1,14.5,14.2,15.4,14.2z M15.4,10.6
		c0.4,0,0.7,0.6,0.7,1.3s-0.3,1.3-0.7,1.3c-0.2,0-0.7-0.5-0.7-1.3C14.7,11.2,15,10.6,15.4,10.6z"/>
</g>
</svg>
