<?xml version="1.0" encoding="utf-8"?>
<!-- Generator: Adobe Illustrator 19.2.1, SVG Export Plug-In . SVG Version: 6.00 Build 0)  -->
<svg version="1.1" id="Layer_1" xmlns="http://www.w3.org/2000/svg" xmlns:xlink="http://www.w3.org/1999/xlink" x="0px" y="0px"
	 viewBox="0 0 79.4 79.2" style="enable-background:new 0 0 79.4 79.2;" xml:space="preserve">
<g>
	<path style="fill-rule:evenodd;clip-rule:evenodd;" d="M29.8,2.9c8.8-2.4,23.2-5,31.3-0.4c8.1,4.6,13,18.4,15.3,27.2
		c2.4,8.8,5,23.2,0.4,31.2c-4.6,8-18.4,12.9-27.3,15.3c-8.8,2.4-23.2,5-31.3,0.4c-8.1-4.6-13-18.4-15.3-27.2
		c-2.4-8.8-5-23.2-0.4-31.2C7.2,10.2,21,5.3,29.8,2.9L29.8,2.9z M24.2,19.9L24.2,19.9c2.1-0.6,4.3,0.7,4.9,2.8l1.4,5.1l11.3-3
		l-1.3-5.1c-0.6-2.1,0.7-4.3,2.8-4.9l0,0c2.1-0.6,4.3,0.7,4.9,2.8l1.3,5.1l5.1-1.4c2.1-0.6,4.3,0.7,4.9,2.8l0,0
		c0.6,2.1-0.7,4.3-2.8,4.9l-5.1,1.4l3,11.3l5.1-1.3c2.1-0.6,4.3,0.7,4.9,2.8l0,0c0.6,2.1-0.7,4.3-2.8,4.9l-5.1,1.3l1.4,5.1
		c0.6,2.1-0.7,4.3-2.8,4.9l0,0c-2.1,0.6-4.3-0.7-4.9-2.8l-1.4-5.1l-11.3,3l1.3,5.1c0.6,2.1-0.7,4.3-2.8,4.9l0,0
		c-2.1,0.6-4.3-0.7-4.9-2.8l-1.3-5.1l-5.1,1.4c-2.1,0.6-4.3-0.7-4.9-2.8l0,0c-0.6-2.1,0.7-4.3,2.8-4.9l5.1-1.4l-3-11.3l-5.1,1.3
		c-2.1,0.6-4.3-0.7-4.9-2.8l0,0c-0.6-2.1,0.7-4.3,2.8-4.9l5.1-1.3l-1.4-5.1C20.8,22.7,22.1,20.5,24.2,19.9L24.2,19.9z M46.9,43.8
		l-3-11.3l-11.3,3l3,11.3L46.9,43.8z"/>
</g>
</svg>
