<svg xmlns="http://www.w3.org/2000/svg" version="1.1" xmlns:xlink="http://www.w3.org/1999/xlink" xmlns:svgjs="http://svgjs.com/svgjs" width="512" height="512" x="0" y="0" viewBox="0 0 512 512" style="enable-background:new 0 0 512 512" xml:space="preserve" class=""><g><path d="M195.19 512c-37.27 0-72.42-11.89-101.65-34.39a168.49 168.49 0 0 1-15.61-13.63c-34.12-33.72-51.29-78.63-48.34-126.46 2.23-36.15 16.79-71 41.02-98.13 32.09-35.93 76.33-55.72 124.59-55.72 8.29 0 16.66.62 24.9 1.84l12.8 1.9V301l-19.71-6.51a56.376 56.376 0 0 0-17.75-2.86c-15.26 0-29.55 5.98-40.24 16.83-10.64 10.8-16.37 25.08-16.15 40.23.29 19.53 10.58 37.23 27.52 47.37 7.8 4.66 16.68 7.39 25.7 7.89 7.12.39 14.15-.54 20.91-2.77 23.11-7.63 38.64-29.07 38.64-53.34l.1-117.8V0h108.56l.13 14.86c.06 6.73.75 13.46 2.05 19.98 5.1 25.64 19.48 48.49 40.49 64.33 18.65 14.07 40.91 21.5 64.35 21.5.55 0 .55 0 5.56.35l13.95.98v107l-5-.01H466.92c-28.91 0-56-5.51-82.85-16.84-8-3.38-15.79-7.24-23.31-11.55l.34 147.81c-.18 43.72-17.46 84.73-48.65 115.56-25.31 25.01-57.25 40.99-92.37 46.19a169.45 169.45 0 0 1-24.89 1.84zm0-298.33c-39.59 0-75.89 16.23-102.21 45.7-19.76 22.13-31.64 50.54-33.46 79.99-2.4 39.05 11.62 75.73 39.49 103.27 4.03 3.98 8.34 7.75 12.82 11.2C135.77 472.26 164.6 482 195.19 482c6.86 0 13.75-.51 20.5-1.51 28.77-4.26 54.94-17.35 75.68-37.85 25.48-25.18 39.59-58.65 39.74-94.25L330.64 142l24.23 18.69a184.446 184.446 0 0 0 40.88 23.84c19.97 8.43 40.1 13.11 61.25 14.22V150.3c-26.14-1.96-50.83-11.25-71.92-27.16-26.9-20.28-45.31-49.56-51.85-82.43-.7-3.53-1.27-7.1-1.69-10.7h-49.63v200.04l-.1 117.8c0 37.23-23.8 70.11-59.23 81.81-10.33 3.41-21.08 4.83-31.96 4.24-13.86-.76-27.5-4.95-39.46-12.1-25.93-15.51-41.68-42.68-42.12-72.67-.34-23.24 8.45-45.16 24.77-61.73 16.37-16.62 38.25-25.77 61.61-25.77 2.5 0 4.98.11 7.46.32v-48.07c-2.56-.14-5.13-.21-7.69-.21z" fill="#000000" data-original="#000000" class=""></path></g></svg>