<?xml version="1.0" encoding="utf-8"?>
<!-- Generator: Adobe Illustrator 23.0.5, SVG Export Plug-In . SVG Version: 6.00 Build 0)  -->
<svg version="1.1" id="Layer_1" xmlns="http://www.w3.org/2000/svg" xmlns:xlink="http://www.w3.org/1999/xlink" x="0px" y="0px"
	 viewBox="0 0 24 24" style="enable-background:new 0 0 24 24;" xml:space="preserve">

<path d="M12,19c-1.5,0-2.9-0.1-4.4-0.2c-0.8,0-1.6-0.1-2.4-0.1c0,0,0,0,0,0c-0.6,0-1.3-0.4-1.6-0.7
	c-0.5-0.5-0.7-0.9-0.8-1.6c-0.4-3-0.4-5.9,0-8.8C2.9,7,3.2,6.5,3.6,6c0.4-0.4,1-0.6,1.6-0.6c2.1-0.2,4.5-0.3,6.7-0.3
	c1.5,0,3.1,0.1,4.5,0.2c0.8,0,1.5,0.1,2.3,0.1c0.5,0.1,1.2,0.3,1.6,0.7c0.4,0.3,0.7,0.8,0.8,1.5l0,0c0.2,1.4,0.3,2.8,0.4,4.3
	c0,1.5-0.1,3-0.3,4.4c-0.2,0.8-0.5,1.3-0.9,1.6c-0.5,0.4-1,0.6-1.5,0.7C16.5,18.9,14.3,19,12,19z M11.9,6.1c-2.2,0-4.5,0.1-6.7,0.3
	c-0.3,0-0.7,0.2-0.9,0.4C4,7.1,3.9,7.4,3.8,7.8c-0.4,2.7-0.4,5.6,0,8.4c0.1,0.4,0.2,0.7,0.6,1c0.2,0.2,0.6,0.5,0.9,0.5
	c0.8,0,1.6,0.1,2.4,0.1c3.8,0.2,7.3,0.2,11.1-0.1c0.3-0.1,0.7-0.2,1-0.5c0.2-0.2,0.4-0.5,0.5-1c0.2-1.4,0.3-2.7,0.3-4.2
	c-0.1-1.5-0.2-2.9-0.4-4.2c-0.1-0.4-0.2-0.7-0.5-0.9c-0.3-0.2-0.6-0.4-1.1-0.5c-0.7,0-1.5-0.1-2.2-0.1C14.8,6.2,13.4,6.1,11.9,6.1z"
	/>
<path  d="M9.5,15.3V8.5l6.5,3.4L9.5,15.3z M10.5,10.1v3.5l3.3-1.8L10.5,10.1z"/>
</svg>
