<?xml version="1.0" encoding="utf-8"?>
<!-- Generator: Adobe Illustrator 22.1.0, SVG Export Plug-In . SVG Version: 6.00 Build 0)  -->
<svg version="1.1" id="Layer_1" xmlns="http://www.w3.org/2000/svg" xmlns:xlink="http://www.w3.org/1999/xlink" x="0px" y="0px"
	 width="48px" height="48px" viewBox="0 0 48 48" style="enable-background:new 0 0 48 48;" xml:space="preserve">
<path style="fill:#007ACC;" d="M0,0v24v24h48V0H0z M29.4,23.1v2.2h-6.1V45h-5.1V25.3H12V21h17.4V23.1z M44.4,40.8
	c-0.6,1.2-1.8,2.5-3,3.1c-2.6,1.2-6.8,1.3-10.1,0.2l-1.2-0.4v-5.2l0.9,0.7c1.2,0.9,2.8,1.4,4.4,1.5c1.7,0.1,2.9-0.2,3.6-0.9
	c0.5-0.4,0.6-0.7,0.6-1.4c0-1.4-0.8-2.1-4-3.7c-2.8-1.4-3.8-2-4.6-3.3c-1.9-2.7-1.3-6.9,1.2-8.8c2.3-1.4,5.8-2,9.4-1.4
	c0.8,0.1,1.6,0.4,1.9,0.5l0.5,0.2v2.3c0,1.3,0,2.3-0.1,2.3c0,0-0.4-0.2-0.9-0.4c-1.7-1-4.4-1.3-6-0.8c-0.4,0.1-1,0.5-1.3,0.8
	c-0.4,0.4-0.5,0.7-0.5,1.4s0.1,1,0.7,1.5c0.4,0.4,1.9,1.2,3.3,1.9c3,1.5,4.5,2.7,5.2,4.3C45,36.6,45,39.5,44.4,40.8z"/>
</svg>
