<?xml version="1.0" encoding="utf-8"?>
<!-- Generator: Adobe Illustrator 22.1.0, SVG Export Plug-In . SVG Version: 6.00 Build 0)  -->
<svg version="1.1" id="Layer_1" xmlns="http://www.w3.org/2000/svg" xmlns:xlink="http://www.w3.org/1999/xlink" x="0px" y="0px"
	 width="54px" height="48px" viewBox="0 0 54 48" style="enable-background:new 0 0 54 48;" xml:space="preserve">
<path style="fill:#0e5ce4;" d="M54,24c0-3.6-4.5-7-11.3-9.1c1.6-7,0.9-12.5-2.2-14.3C39.7,0.2,38.8,0,38,0v0c-3,0-7,2.2-11,5.9
	C23,2.2,19,0,16,0v0c-0.9,0-1.7,0.2-2.5,0.6C10.4,2.5,9.7,8,11.3,15C4.5,17.1,0,20.5,0,24s4.5,6.9,11.3,9.1
	c-1.6,7-0.9,12.5,2.2,14.3c0.8,0.4,1.6,0.6,2.5,0.6c3,0,7-2.2,11-5.9c4,3.7,8,5.8,11,5.8c0.9,0,1.7-0.2,2.5-0.6
	c3.1-1.8,3.8-7.3,2.2-14.3C49.5,30.9,54,27.6,54,24z M38,2.4L38,2.4c0.4,0,0.9,0.1,1.3,0.3c1.5,0.8,2.1,4.1,1.6,8.3
	c-0.1,1-0.3,2.1-0.6,3.2c-2.3-0.5-4.6-0.9-7-1.2c-1.4-1.9-2.9-3.8-4.6-5.5C32.3,4.3,35.7,2.5,38,2.4z M17.2,29.6
	c0.5,0.9,1,1.7,1.6,2.6c-1.6-0.2-3.1-0.5-4.5-0.9c0.4-1.4,0.9-2.9,1.5-4.3C16.3,27.9,16.7,28.8,17.2,29.6z M14.3,16.7
	c1.4-0.3,3-0.6,4.5-0.9c-0.5,0.8-1.1,1.7-1.6,2.6s-1,1.8-1.4,2.6C15.2,19.6,14.7,18.1,14.3,16.7z M17.1,24c0.7-1.5,1.5-2.9,2.3-4.4
	c0.9-1.5,1.7-2.9,2.7-4.2c1.6-0.1,3.3-0.2,5-0.2s3.3,0.1,5,0.2c0.9,1.3,1.8,2.7,2.7,4.2c0.8,1.4,1.6,2.9,2.3,4.4
	c-0.7,1.5-1.5,2.9-2.3,4.4c-0.9,1.5-1.7,2.9-2.7,4.2c-1.6,0.2-3.3,0.2-5,0.2s-3.3-0.1-5-0.2c-0.9-1.3-1.8-2.7-2.7-4.2
	C18.5,27,17.8,25.5,17.1,24z M36.8,29.6c0.5-0.9,1-1.8,1.4-2.7c0.6,1.5,1.1,2.9,1.5,4.4c-1.4,0.3-3,0.7-4.5,0.9
	C35.7,31.4,36.2,30.5,36.8,29.6L36.8,29.6z M36.7,18.4c-0.5-0.9-1-1.7-1.6-2.6c1.6,0.2,3.1,0.5,4.5,0.9c-0.4,1.4-0.9,2.9-1.5,4.3
	C37.7,20.1,37.3,19.3,36.7,18.4L36.7,18.4z M30,12.9c-1,0-2-0.1-3-0.1s-2.1,0-3.1,0.1c0.9-1.2,2-2.4,3-3.5
	C28,10.5,29.1,11.6,30,12.9L30,12.9z M14.7,2.8c0.4-0.2,0.8-0.3,1.3-0.3v0c2.3,0,5.7,1.8,9.2,5.1c-1.6,1.7-3.2,3.6-4.5,5.5
	c-2.4,0.2-4.7,0.6-7,1.2c-0.3-1.1-0.4-2.2-0.6-3.2C12.6,6.9,13.2,3.7,14.7,2.8L14.7,2.8z M11.9,30.7c-1.1-0.3-2.1-0.7-3.1-1.1
	C5,27.9,2.4,25.7,2.4,24s2.5-3.9,6.4-5.6c0.9-0.4,2-0.8,3-1.1c0.7,2.3,1.5,4.5,2.5,6.7C13.4,26.2,12.6,28.4,11.9,30.7L11.9,30.7z
	 M16,45.6c-0.4,0-0.9-0.1-1.2-0.3c-1.5-0.8-2.1-4.1-1.6-8.3c0.1-1,0.3-2.1,0.6-3.2c2.3,0.5,4.6,0.9,7,1.2c1.4,1.9,2.9,3.8,4.6,5.5
	C21.7,43.7,18.3,45.6,16,45.6L16,45.6z M27,38.7c-1.1-1.1-2.1-2.3-3.1-3.5c1,0,2,0.1,3,0.1s2.1,0,3.1-0.1
	C29.1,36.4,28.1,37.6,27,38.7L27,38.7z M39.3,45.2c-0.4,0.2-0.8,0.3-1.3,0.3c-2.3,0-5.7-1.8-9.2-5.1c1.6-1.7,3.2-3.6,4.5-5.5
	c2.4-0.2,4.7-0.6,7-1.2c0.2,1.1,0.4,2.1,0.6,3.2C41.4,41.1,40.8,44.3,39.3,45.2L39.3,45.2z M45.1,29.6c-0.9,0.4-2,0.8-3,1.1
	c-0.7-2.3-1.5-4.5-2.5-6.7c1-2.2,1.8-4.4,2.4-6.7c1.1,0.3,2.1,0.7,3.1,1.1c3.9,1.7,6.4,3.8,6.4,5.6S49,27.9,45.1,29.6L45.1,29.6z
	 M27,29c2.8,0,5-2.3,5-5c0-2.8-2.3-5-5-5c-2.8,0-5,2.3-5,5C22,26.8,24.2,29,27,29L27,29z"/>
</svg>
