<?xml version="1.0" encoding="utf-8"?>
<!-- Generator: Adobe Illustrator 23.0.5, SVG Export Plug-In . SVG Version: 6.00 Build 0)  -->
<svg version="1.1" id="Layer_1" xmlns="http://www.w3.org/2000/svg" xmlns:xlink="http://www.w3.org/1999/xlink" x="0px" y="0px"
	 viewBox="0 0 39.4 50" style="enable-background:new 0 0 39.4 50;" xml:space="preserve">
<g>
	<path d="M14.6,19.8c0-0.9-0.7-1.6-1.6-1.6s-1.6,0.7-1.6,1.6c0,0.9,0.7,1.6,1.6,1.6S14.6,20.7,14.6,19.8z"/>
	<path d="M39.4,7.7C26.7,3.7,21.9,1.2,19.7,0c-2.2,1.2-7,3.7-19.7,7.7C0,9.1-0.8,50,19.7,50S39.4,9.1,39.4,7.7z M8,19.9
		c0-2.8,2.2-5.1,5-5.1s5.1,2.2,5.1,5.1c0,2.7-2.2,5-5,5C10.3,24.9,8,22.7,8,19.9z M27,34.1c-0.1,3.9-3.2,7-7,7c-3.9,0-7.2-3.1-7.2-7
		V34h3.6v0.1c0,1.9,1.6,3.4,3.5,3.4c1.9,0,3.5-1.5,3.5-3.4V34L27,34.1L27,34.1z M31.2,21.4h-9.9V18h9.9V21.4z"/>
</g>
</svg>
