<svg xmlns="http://www.w3.org/2000/svg" version="1.1" xmlns:xlink="http://www.w3.org/1999/xlink" width="512" height="512" x="0" y="0" viewBox="0 0 512 512" style="enable-background:new 0 0 512 512" xml:space="preserve" class=""><g><path d="M216 143.982C216 163.874 199.874 180 179.982 180H56.018C36.126 180 20 163.874 20 143.982V56.018C20 36.126 36.126 20 56.018 20h123.963C199.874 20 216 36.126 216 56.018v87.964zM492 255.982C492 275.874 475.874 292 455.982 292H328.018C308.126 292 292 275.874 292 255.982V56.018C292 36.126 308.126 20 328.018 20h127.963C475.874 20 492 36.126 492 56.018v199.964zM492 455.982C492 475.874 475.874 492 455.982 492H328.018C308.126 492 292 475.874 292 455.982v-47.963C292 388.126 308.126 372 328.018 372h127.963C475.874 372 492 388.126 492 408.018v47.964zM216 455.982C216 475.874 199.874 492 179.982 492H56.018C36.126 492 20 475.874 20 455.982V292.018C20 272.126 36.126 256 56.018 256h123.963C199.874 256 216 272.126 216 292.018v163.964z" style="stroke-width:40;stroke-linecap:round;stroke-linejoin:round;stroke-miterlimit:10;" fill="none" stroke="#ffffff" stroke-width="40" stroke-linecap="round" stroke-linejoin="round" stroke-miterlimit="10" data-original="#ffffff" class=""></path></g></svg>
