<svg width="579" height="336" viewBox="0 0 579 336" fill="none" xmlns="http://www.w3.org/2000/svg">
<g clip-path="url(#clip0_9_2)">
<path d="M49 277.1C47.7 277.2 46.7 278.6 46.7 280.2C46.7 280.3 46.7 280.3 46.7 280.3C43 280.6 39.9 272 36.2 262.7C32.5 253.3 28.1 243.1 21.9 240.6C27.1 239.1 31.8 235.5 35.3 230.1C38.7 224.9 40.9 217.9 40.9 209.5C40.9 199.4 37.8 191.4 32.8 185.9C27.8 180.4 20.8 177.4 12.9 177.4C8.6 177.4 4.3 177.4 0.1 177.4C0.1 177.4 -0.1 179.3 1.5 179.3C3.1 179.3 3.1 188.3 3.1 189.1C3.1 201.1 3.1 213.1 3.1 225.1C3.1 237.2 3.1 249.2 3.1 261.2C3.1 262 3 271 1.5 271.2C0 271.4 0 273.2 0 273.2C5.4 272.6 10.7 272.1 16.1 271.6C16.1 271.6 16.3 269.7 14.7 269.9C13.1 270.1 13 261.1 13 260.4C13 254 13 247.6 13 241.2C15.9 242 19.9 249.9 24 258.6C28.1 267.2 32.2 276.7 35.1 281C39.7 287.8 47 286.1 49.4 284C50.9 282.7 51.4 281.1 51.4 279.8C51.3 278.1 50.3 277 49 277.1ZM13.9 236.4C13.6 236.4 13.3 236.5 13 236.5C13 227.5 13 218.5 13 209.6C13 200.6 13 191.6 13 182.6C21.5 182.8 31.4 191 31.4 209.4C31.4 224.9 22.5 235.8 13.9 236.4ZM578.5 206.2C578.5 185.7 567.3 177.3 553.5 177.3C549.2 177.3 544.8 177.3 540.5 177.3C540.5 177.3 540.3 179.2 541.9 179.2C543.5 179.2 543.6 188.3 543.6 188.8C543.6 200.6 543.6 212.4 543.6 224.1C543.6 235.9 543.6 247.7 543.6 259.5C543.6 260.1 543.5 269.1 541.9 269C540.4 268.9 540.5 270.8 540.5 270.8C547.4 271.3 554.3 271.9 561.2 272.4C571.6 273.2 578.5 261.4 578.5 246.1C578.5 240.9 578.4 232.6 578.4 224.8C578.5 217 578.5 209.7 578.5 206.2ZM555.8 267C555 266.9 554.3 266.8 553.5 266.6C553.5 252.8 553.5 239 553.5 225.2C553.5 211.3 553.5 197.5 553.5 183.7C565.8 184.2 568.6 190.3 568.6 206C568.6 208.9 568.6 216.3 568.6 224.3C568.6 232.3 568.7 240.9 568.7 246.2C568.7 256.6 563.8 267.7 555.8 267ZM79.9 232.4C79.9 232.4 75.4 231.2 75.4 236.4C75.4 240.2 73.9 255.2 66.3 256C64.6 256.2 62.8 256.3 61 256.4C61 249.6 61 242.8 61 236C62 235.9 68.6 235.8 68.6 237.7C68.6 239.5 70.1 239.2 70.1 239.2C70.1 235.2 70.1 231.3 70.1 227.3C70.1 227.3 68.6 227.2 68.6 228.9C68.6 230.8 62 231.4 61 231.4C61 224.2 61 217 61 209.8C61 202.6 61 195.4 61 188.2C62.9 188.1 64.7 188.1 66.6 188.1C76.1 188.2 65.8 206.7 71.8 213.3C73.3 215 75.3 214.8 76.7 214.2C78.4 213.4 79.5 211.6 79.5 210C79.5 208.5 78.4 207.2 77.2 207.2C76 207.3 74.8 208.6 74.8 210.1C74.8 210.2 74.8 210.2 74.8 210.3C74.4 210.1 74.2 209.3 74.2 208.4C74.5 203 79.1 189.2 79.1 183.4C68.7 183.5 58.4 183.5 48 183.6C48 183.6 47.8 185.5 49.4 185.4C51 185.4 51.1 194 51.1 194.8C51.1 204 51.1 213.3 51.1 222.6C51.1 231.8 51.1 241.1 51.1 250.3C51.1 251 51 259.7 49.4 259.8C47.9 259.9 48 261.7 48 261.7C58.6 260.9 69.2 260.1 79.8 259.2C78.1 250.8 78.1 244 78.4 239.4C78.9 235 79.9 232.4 79.9 232.4ZM126.7 254.9C125 255 123.7 246.4 123.6 246.3C123.4 244.4 123 242.5 122.8 240.6C129.3 238.2 127.8 227.9 121.6 228.1C121.6 228.1 124 231.3 121.7 233.3C120.7 226.8 119.6 220.3 118.7 213.7C117.7 207.2 116.7 200.6 115.7 194C115.7 193.8 114.6 185.2 116.2 185.2C117.7 185.2 117.3 183.5 117.3 183.5C111.8 183.5 106.4 183.6 100.9 183.6C100.9 183.6 100.4 185.3 101.9 185.3C103.5 185.2 102 193.8 101.9 194.2C100.2 203.1 98.4 212 96.7 221C95.1 230 93.3 238.9 91.6 247.9C91.5 248.4 89.7 257 88.1 257.1C86.6 257.2 86.5 259 86.5 259C90.7 258.7 94.8 258.4 99.1 258.2C99.1 258.2 99.6 256.5 98 256.6C96.6 256.7 97.7 249.7 98 248C98.7 244.1 101.9 235.8 112.9 239.7C113.2 242.1 113.6 244.4 114 246.8C114.1 247.3 115.2 255.5 113.5 255.6C112 255.7 112.5 257.4 112.5 257.4C117.8 257.1 123.1 256.8 128.4 256.5C128.2 256.4 128.1 254.8 126.7 254.9ZM99.9 236.5C101 230.5 102.2 224.6 103.3 218.7C104.4 212.8 105.6 206.9 106.7 201C107.5 206.6 108.3 212.1 109.1 217.6C109.9 223.1 110.8 228.6 111.7 234.1C108.5 233.6 104.8 233.4 99.9 236.5ZM156 233.7C161.1 233.6 161.2 249.6 152.1 250C148.2 250.1 145.5 243.5 145.5 238.2C145.5 231.9 145.5 225.7 145.5 219.5C145.5 213.3 145.5 207.1 145.5 200.8C145.5 195.4 148.3 187.5 152.8 187.5C161.4 187.4 152 205 158 211.2C159.6 212.9 161.5 212.7 163 212.1C164.5 211.4 165.7 209.8 165.7 208.2C165.7 206.7 164.7 205.6 163.4 205.6C162.1 205.6 161.1 206.8 161.1 208.3C161.1 208.4 161.1 208.5 161.1 208.5C160.6 208.3 160.3 207.6 160.4 206.7C160.7 201.7 165.5 188.7 165.5 183.3C161 183.3 156.6 183.1 152.2 183.3C143.3 183.7 135.7 191 135.7 200.9C135.7 207.2 135.7 213.4 135.7 219.7C135.7 226 135.7 232.2 135.7 238.5C135.7 248.2 143 255.6 152 255.2C161.3 254.8 166.7 247.8 166.7 238.2C166.6 226.7 156 228.8 156 233.7ZM210.7 205.1C209.3 205.1 208.3 206.3 208.3 207.7C208.3 207.8 208.3 207.8 208.3 207.9C207.9 207.7 207.7 207.1 207.7 206.2C208 201.3 212.5 188.6 212.5 183.2C199.4 183.3 186.2 183.3 173.1 183.3C173.1 188.8 177.7 201.6 178.1 206.5C178.2 207.4 177.9 208 177.4 208.3C177.5 208.2 177.5 208.2 177.5 208.1C177.5 206.6 176.4 205.5 175.1 205.5C173.9 205.5 172.8 206.7 172.8 208.2C172.8 209.9 174.4 211.5 175.6 212C176.9 212.6 178.9 212.6 180.4 210.9C186.4 204.5 176.1 187.6 185.6 187.3C186.3 187.2 187 187.2 187.7 187.2C187.7 196.7 187.7 206.1 187.7 215.4C187.7 224.9 187.7 234.3 187.7 243.7C187.7 244.3 187.6 252.2 186.1 252.2C184.5 252.3 184.7 253.9 184.7 253.9C190 253.7 195.4 253.6 200.8 253.5C200.8 253.5 201 251.9 199.4 251.9C197.8 252 197.7 244 197.7 243.5C197.7 234.1 197.7 224.7 197.7 215.3C197.7 205.9 197.7 196.6 197.7 187.2C198.4 187.2 199.2 187.2 199.9 187.2C209.4 187.4 199.1 204.3 205.1 210.5C206.7 212.1 208.6 212.1 210.1 211.5C211.5 210.9 212.8 209.2 212.8 207.7C212.9 206.3 212 205.1 210.7 205.1ZM278.4 251.2C276.7 251.2 275.4 243 275.3 242.8C275.1 241 274.7 239.2 274.5 237.4C281 235.4 279.5 225.5 273.3 225.5C273.3 225.5 275.7 228.7 273.4 230.5C272.4 224.3 271.3 218 270.4 211.8C269.4 205.6 268.4 199.3 267.5 193.1C267.4 192.9 266.3 184.7 267.9 184.7C269.4 184.8 269 183.1 269 183.1C263.5 183.1 258.1 183.1 252.7 183.1C252.7 183.1 252.1 184.7 253.7 184.7C255.3 184.7 253.8 192.6 253.7 193C252 201.3 250.2 209.6 248.5 217.8C246.8 226.1 245.1 234.4 243.4 242.7C243.3 243.2 241.5 251.1 239.9 251.1C238.4 251.1 238.2 252.7 238.2 252.7C242.4 252.7 246.5 252.6 250.8 252.6C250.8 252.6 251.3 251 249.7 251C248.3 251.1 249.4 244.6 249.7 243C250.5 239.4 253.6 231.8 264.6 235.9C264.9 238.2 265.3 240.4 265.7 242.6C265.8 243.1 266.9 250.9 265.2 250.9C263.7 250.9 264.2 252.5 264.2 252.5C269.5 252.5 274.8 252.6 280.1 252.6C279.9 252.8 279.8 251.2 278.4 251.2ZM251.6 232.7C252.7 227.2 253.9 221.7 255 216.1C256.1 210.6 257.3 205.1 258.4 199.5C259.2 204.7 260 210 260.9 215.2C261.7 220.4 262.5 225.7 263.4 230.9C260.2 230.2 256.5 229.9 251.6 232.7ZM307.5 183.2C300.7 183.2 294 183.2 287.3 183.2C287.3 183.2 287.1 184.8 288.7 184.8C290.2 184.8 290.3 192.7 290.3 193.1C290.3 201.4 290.3 209.7 290.3 217.9C290.3 226.2 290.3 234.5 290.3 242.7C290.3 243.2 290.2 251.1 288.7 251.1C287.1 251 287.3 252.7 287.3 252.7C294 252.8 300.8 252.9 307.5 253C316.7 253.1 324 245.7 324 236.3C324 230.3 324 224.2 324 218.2C324 212.2 324 206.1 324 200.1C324 190.7 316.7 183.2 307.5 183.2ZM314.3 236.3C314.3 243.5 309.1 249.3 302.7 249.2C301.8 249.2 301 249.1 300.2 248.8C300.2 238.5 300.2 228.3 300.2 218C300.2 207.7 300.2 197.5 300.2 187.2C301 187 301.8 186.9 302.7 186.9C309.1 187 314.3 192.9 314.3 200C314.3 206 314.3 212.1 314.3 218.1C314.3 224.2 314.3 230.3 314.3 236.3ZM357.5 183.3C357.5 183.3 357 184.9 358.5 184.9C360.2 184.9 358.6 193.2 358.5 193.4C356.9 200.7 355.5 208.1 354 215.4C352.5 222.7 351 230 349.5 237.3C348.3 229.9 347.1 222.6 346 215.3C344.9 208 343.8 200.6 342.7 193.3C342.6 192.8 341.3 184.8 343 184.8C344.5 184.9 344.1 183.2 344.1 183.2C338.7 183.2 333.3 183.2 328 183.2C328 183.2 328.1 184.8 329.6 184.8C331.2 184.8 332.6 193 332.7 193.3C334 201.6 335.3 210 336.6 218.4C337.9 226.8 339.2 235.2 340.6 243.6C340.7 243.8 341.8 252.1 340.2 252.1C338.7 252.1 339.1 253.7 339.1 253.7C344.6 253.9 350 254 355.5 254.2C355.5 254.2 356 252.6 354.5 252.5C352.9 252.5 354.4 244.4 354.5 244C356.2 235.6 358 227.2 359.7 218.8C361.4 210.4 363.1 202 364.9 193.5C365 193 366.8 185 368.4 185C370 185 370 183.3 370 183.3C365.8 183.3 361.6 183.3 357.5 183.3ZM408.5 254.5C406.9 254.4 405.5 245.9 405.5 245.7C405.3 243.8 404.9 241.9 404.7 240C411.2 238.1 409.7 227.7 403.5 227.5C403.5 227.5 406 230.9 403.6 232.7C402.6 226.2 401.6 219.7 400.6 213.2C399.6 206.7 398.6 200.2 397.7 193.8C397.6 193.6 396.5 185.1 398 185.1C399.6 185.1 399.1 183.4 399.1 183.4C393.6 183.4 388.2 183.3 382.8 183.3C382.8 183.3 382.3 185 383.8 185C385.5 185 383.9 193.2 383.8 193.6C382.1 202.1 380.3 210.6 378.6 219.1C376.9 227.6 375.2 236 373.5 244.5C373.4 245 371.6 253 370 253C368.5 252.9 368.3 254.6 368.3 254.6C372.5 254.8 376.6 254.9 380.9 255.1C380.9 255.1 381.4 253.4 379.8 253.4C378.4 253.4 379.5 246.8 379.8 245.2C380.6 241.5 383.7 233.8 394.7 238.4C395 240.7 395.4 243 395.8 245.4C395.9 245.9 396.9 254.1 395.3 254.1C393.8 254 394.2 255.7 394.2 255.7C399.5 255.9 404.8 256.2 410.2 256.4C410.1 256.3 409.9 254.6 408.5 254.5ZM381.7 234.4C382.8 228.7 384 223.1 385.1 217.4C386.2 211.8 387.4 206.1 388.5 200.4C389.3 205.8 390.2 211.2 391 216.6C391.8 222.1 392.6 227.5 393.5 232.9C390.3 232.1 386.6 231.6 381.7 234.4ZM453.3 256.8C451.7 256.7 451.6 248.2 451.6 247.7C451.6 238.8 451.6 229.9 451.6 221C451.6 212.1 451.6 203.2 451.6 194.3C451.6 193.7 451.8 185.3 453.3 185.3C454.8 185.3 454.7 183.6 454.7 183.6C449.3 183.5 443.9 183.5 438.6 183.5C438.6 183.5 438.4 185.2 440 185.2C441.6 185.2 441.6 193.4 441.6 194.2C441.6 199 441.6 203.9 441.6 208.7C441.6 213.5 441.6 218.3 441.6 223.2C439.7 216.6 437.8 209.9 436 203.3C434.1 196.7 432.2 190.1 430.4 183.5C426.1 183.5 421.7 183.4 417.4 183.4C417.4 183.4 417.2 185.1 418.8 185.1C420.4 185.2 420.5 193.3 420.5 193.9C420.5 202.6 420.5 211.3 420.5 220C420.5 228.7 420.5 237.4 420.5 246.1C420.5 246.8 420.4 254.9 418.8 254.8C417.3 254.7 417.4 256.4 417.4 256.4C421.6 256.6 425.7 256.8 430 257C430 257 430.1 255.3 428.6 255.3C426.9 255.2 426.9 246.2 426.9 246.2C426.9 239.4 426.9 232.5 426.9 225.6C426.9 218.8 426.9 211.9 426.9 205C429.3 213.7 431.9 222.4 434.3 231.1C436.7 239.9 439.3 248.7 441.7 257.6C446 257.8 450.4 258.1 454.8 258.3C454.7 258.6 454.8 256.9 453.3 256.8ZM482.9 237.5C488 237.7 488.1 255 479 254.5C475 254.2 472.4 247 472.4 241.3C472.4 234.8 472.4 228.2 472.4 221.7C472.4 215.2 472.4 208.6 472.4 202C472.4 196.4 475.2 188.1 479.7 188.1C488.2 188.2 478.9 206.6 484.8 213.6C486.4 215.5 488.3 215.3 489.8 214.8C491.4 214.1 492.6 212.5 492.6 210.7C492.6 209.1 491.6 207.8 490.3 207.8C489 207.8 488 209.1 488 210.6C488 210.7 488 210.8 488 210.8C487.5 210.6 487.3 209.8 487.3 208.9C487.6 203.5 492.3 189.7 492.3 183.8C487.8 183.8 483.5 183.6 479.1 183.7C470.1 184 462.6 191.5 462.6 201.8C462.6 208.3 462.6 214.8 462.6 221.3C462.6 227.8 462.6 234.3 462.6 240.8C462.6 250.9 469.9 259.5 479 260C488.2 260.6 493.6 253.5 493.6 243.1C493.4 230.6 482.9 232.3 482.9 237.5ZM532.6 235.1C532.6 235.1 528.1 233.4 528.1 238.9C528.1 242.8 526.6 258.3 519.1 258.1C517.3 258 515.5 257.9 513.7 257.8C513.7 250.9 513.7 244 513.7 237.1C514.7 237.2 521.3 237.7 521.3 239.7C521.3 241.5 522.7 241.3 522.7 241.3C522.7 237.2 522.7 233.1 522.7 229C522.7 229 521.3 228.7 521.3 230.5C521.3 232.5 514.7 232.4 513.7 232.4C513.7 225.1 513.7 217.7 513.7 210.4C513.7 203.1 513.7 195.7 513.7 188.4C515.6 188.4 517.4 188.4 519.3 188.5C528.8 188.8 518.5 207.5 524.5 214.8C526 216.6 528 216.6 529.3 216C531 215.3 532.1 213.5 532.1 211.8C532.1 210.2 531 208.8 529.8 208.8C528.5 208.7 527.4 210.1 527.4 211.7C527.4 211.8 527.4 211.8 527.4 211.9C526.9 211.6 526.7 210.9 526.8 209.9C527.1 204.3 531.8 190.1 531.8 184C521.4 183.9 511.1 183.9 500.7 183.9C500.7 183.9 500.5 185.7 502.1 185.7C503.6 185.7 503.7 194.3 503.7 195.1C503.7 204.3 503.7 213.6 503.7 222.8C503.7 232 503.7 241.2 503.7 250.5C503.7 251.2 503.6 259.8 502.1 259.7C500.5 259.6 500.7 261.4 500.7 261.4C511.3 262.1 521.9 262.8 532.5 263.5C530.8 254.5 530.8 247.4 531.1 242.5C531.7 237.8 532.6 235.1 532.6 235.1Z" fill="white"/>
<path d="M217.2 318.4C217.2 318.4 213.7 317.5 213.7 320.8C213.7 323.2 212.6 332.6 206.8 332.9H202.7V294.2C202.8 293.3 202.9 288.5 204.1 288.5C205.2 288.5 205.2 287.4 205.2 287.4H192.9C192.9 287.4 192.7 288.5 193.9 288.5C195.2 288.5 195.2 294.4 195.2 294.4V328.8C195.2 328.8 195.2 334.6 193.9 334.6C192.7 334.6 192.9 335.7 192.9 335.7H217.3C214.6 324.7 217.2 318.4 217.2 318.4ZM235.4 287.3H235.3C228.5 287.4 223 292.5 223 299V324C223 330.3 228.5 335.4 235.3 335.7C242 335.1 247.5 330.5 247.6 324V299C247.5 292.6 242.1 287.5 235.4 287.3ZM239.9 323.9C239.9 327.3 238 330.3 235.2 331.8C232.4 330.2 230.5 327.3 230.5 323.9V298.9C230.5 295.4 232.4 292.5 235.2 290.9C238 292.5 239.9 295.4 239.9 298.9V323.9ZM282.1 334.5C280.9 334.5 280.7 329 280.7 328.7V294.2C280.7 293.8 280.9 288.4 282.1 288.4C283.3 288.4 283.2 287.3 283.2 287.3H270.9C270.9 287.3 270.7 288.4 272 288.4C273.2 288.4 273.2 293.8 273.2 294.2V313.1L264.6 287.3H254.6C254.6 287.3 254.4 288.4 255.7 288.4C256.9 288.4 256.9 293.8 256.9 294.2V328.7C256.9 329.2 256.8 334.5 255.7 334.5C254.5 334.5 254.6 335.6 254.6 335.6H264.2C264.2 335.6 264.3 334.5 263.1 334.5C261.8 334.5 261.7 328.6 261.7 328.6V301.6L273.1 335.6H283.1C283.2 335.6 283.4 334.5 282.1 334.5ZM305.7 287.3H290.1C290.1 287.3 289.9 288.4 291.1 288.4C292.3 288.4 292.4 293.9 292.4 294.2V328.7C292.4 329 292.3 334.5 291.1 334.5C289.9 334.5 290.1 335.6 290.1 335.6H305.7C312.7 335.6 318.4 330.4 318.4 323.9V298.9C318.4 292.4 312.7 287.3 305.7 287.3ZM310.8 323.9C310.8 328.9 306.8 332.9 301.9 332.9C301.2 332.9 300.7 332.8 300 332.7V290C300.6 289.9 301.2 289.8 301.9 289.8C306.8 289.8 310.8 293.9 310.8 298.9V323.9ZM337.8 287.3C330.9 287.4 325.4 292.5 325.4 299V324C325.4 330.3 330.9 335.4 337.7 335.7C344.4 335.1 349.9 330.5 350 324V299C350 292.6 344.5 287.5 337.8 287.3ZM342.4 323.9C342.4 327.3 340.5 330.3 337.7 331.8C334.9 330.2 333 327.3 333 323.9V298.9C333 295.4 334.9 292.5 337.7 290.9C340.5 292.5 342.4 295.4 342.4 298.9V323.9ZM384.6 334.5C383.4 334.5 383.2 329 383.2 328.7V294.2C383.2 293.8 383.3 288.4 384.6 288.4C385.8 288.4 385.7 287.3 385.7 287.3H373.3C373.3 287.3 373.2 288.4 374.4 288.4C375.6 288.4 375.7 293.8 375.7 294.2V313.1L367 287.3H357C357 287.3 356.9 288.4 358.1 288.4C359.3 288.4 359.4 293.8 359.4 294.2V328.7C359.4 329.2 359.3 334.5 358.1 334.5C356.9 334.5 357 335.6 357 335.6H366.6C366.6 335.6 366.7 334.5 365.6 334.5C364.3 334.5 364.2 328.6 364.2 328.6V301.6L375.6 335.6H385.6C385.7 335.6 385.8 334.5 384.6 334.5Z" fill="white"/>
<path fill-rule="evenodd" clip-rule="evenodd" d="M367.6 78.8C363 78.8 358.6 81.4 355.6 84.8C354.4 86 353.2 87.3 351.9 88.5C351.6 88.8 351.2 89.2 350.8 89.5V47.5C350.8 13.1 318.8 0.100006 289.3 0.100006C259.8 0.100006 227.8 13.1 227.8 47.5V81.8V94.7C236 102.3 245.5 108.3 256.1 112.4C266.4 116.5 277.6 118.8 289.3 118.9C301.1 118.7 312.3 116.4 322.7 112.3C333.4 108 343.1 101.8 351.4 94.1C344.5 103.8 327.5 112.3 323.3 113.9C312.8 118.1 301.3 120.5 289.3 120.6C277.4 120.5 265.9 118.1 255.4 114C244.6 109.7 234.7 103.5 226.3 95.6L226 95.4V87.8C225 86.8 223.9 85.8 222.9 84.7C219.9 81.4 215.5 78.7 210.9 78.7C204.8 78.7 199.8 83.7 199.8 89.8C199.8 101.6 230.4 121.7 239.8 126.4C254.7 133.8 271.5 137.9 289.3 137.9C307 137.9 323.8 133.8 338.8 126.4C348.2 121.8 378.8 101.7 378.8 89.8C378.7 83.8 373.7 78.8 367.6 78.8ZM238.6 31C246.1 16.6 261.1 6.70001 278.4 6.70001C280 6.70001 281.7 6.80001 283.3 7.00001C264.7 7.30001 248.4 16.8 238.6 31ZM289.2 130.6C257.7 130.6 229.4 117 209.9 95.3C230.7 114.7 258.6 126.6 289.2 126.6C319.9 126.6 347.7 114.7 368.5 95.3C349 116.9 320.7 130.6 289.2 130.6Z" fill="white"/>
<path d="M227.1 46.4C232.9 48.5 240.7 51.2 247 52.9C251.2 54 255.5 55.1 259.7 55.9C259.6 56.1 259.5 56.6 259.4 56.8C248.8 54.7 237 50.9 226.9 47.3L227.1 46.4Z" fill="#3C3C3C"/>
<path d="M227.2 58.4C236.1 61.9 245.3 64.8 254.7 66.8C254.6 67.1 254.5 67.4 254.5 67.7C250 66.8 245.8 65.6 241.5 64.3C236.6 62.8 231.8 61.1 227.2 59.2V58.4Z" fill="#3C3C3C"/>
<path fill-rule="evenodd" clip-rule="evenodd" d="M243.7 64.5C246.1 55.9 247.3 51.7 247.3 51.7C247.6 50.7 247 50 245.4 49.6C245.4 49.6 242.5 48.9 236.7 47.5C235.2 47.4 234.3 48.1 234.1 49.7C233.1 52.9 232 56.7 231.1 61.2C230.9 62.8 231.7 64.4 233.3 64.7C238.2 66.1 240.5 66.5 240.5 66.5C242 66.6 243.2 65.7 243.7 64.5ZM244.4 52.3C242.4 59.3 241.5 62.9 241.5 62.9C241.1 63.7 240.5 64.1 239.6 64.1C239.6 64.1 238.1 63.6 234.9 62.9C233.8 62.5 233 62.1 233.3 60.5C234.7 55.3 235.4 52.6 235.4 52.6C236.9 47.1 237.6 51.1 244 51.4C244.6 51.4 244.7 51.6 244.4 52.3Z" fill="#3C3C3C"/>
<path d="M244 64.6L247.7 51.6C247.9 51 247.8 50.4 247.4 50C247 49.6 246.4 49.3 245.5 49.1L236.8 47H236.7C235.9 46.9 235.2 47.2 234.6 47.7C234.1 48.1 233.8 48.8 233.6 49.6C233.1 51.2 232.6 53 232.1 54.9C231.6 56.8 231.1 58.9 230.7 61.2V61.3C230.6 62.1 230.8 63 231.2 63.8C231.6 64.5 232.3 65 233.1 65.3C238 66.6 240.3 67 240.3 67.1H240.4C241.2 67.2 241.9 67 242.5 66.6C243.3 65.9 243.8 65.3 244 64.6ZM246.9 51.4L243.2 64.4C243 65 242.6 65.5 242.1 65.8C241.7 66.1 241.1 66.3 240.5 66.1C240.4 66.1 238.1 65.6 233.3 64.4C232.7 64.2 232.2 63.8 231.9 63.3C231.5 62.7 231.4 62 231.4 61.3C231.9 59.1 232.4 57 232.9 55.1C233.4 53.2 233.9 51.4 234.4 49.9V49.8C234.5 49.1 234.9 48.3 235.2 48.1C236 47.4 237.5 48 238.5 48.3L245.2 49.9C245.9 50.1 246.4 50.3 246.7 50.6C247 50.6 247 51 246.9 51.4ZM242 63.1C242 63.1 242.7 59.8 244.6 53.4C244.7 53 244.8 52.6 244.9 52.2C245 51.9 245 51.7 244.9 51.5C244.8 51.2 244.6 51.1 244.3 51L244.2 50.9C243 50.8 241.7 50.7 240.4 50.3C239.5 50.1 238.7 49.8 237.8 49.4C237.1 49.1 236.6 49.1 236.3 49.4C236.1 49.6 236 49.8 235.8 50.2C235.6 50.8 235.3 51.5 235.1 52.3C234.5 54.7 233.4 57.9 233 60.2C232.9 61.1 233 61.7 233.3 62.1C233.7 62.6 234.2 62.8 234.8 63H234.9C235.9 63.3 237.8 63.8 239.2 64C240 64.2 240.5 64.2 240.9 63.9C241.4 63.9 241.7 63.6 242 63.1Z" fill="white"/>
<path fill-rule="evenodd" clip-rule="evenodd" d="M228.8 48.1C228.7 55.4 228.3 58.8 228.3 58.8C228 58.7 227.5 58.5 227 58.2C226.7 58 227.1 48.8 227.3 47.8C227.3 47.4 227.9 47.7 228.8 48.1Z" fill="white"/>
<path d="M328.7 69.8C334.9 71.2 345.2 72.3 351.1 72V72.9C349 73 346.3 73 343.3 72.7C339.8 72.4 332.3 71.7 328.6 70.6L328.7 69.8ZM325.4 82.8C330.8 84.1 347.4 85.4 350.9 84.8V85.8C344.3 86.1 332.9 85.3 325.1 83.7L325.4 82.8Z" fill="#3C3C3C"/>
<path fill-rule="evenodd" clip-rule="evenodd" d="M349.4 72.9C347.9 78.2 347.7 82.3 349.5 85C350.1 85 350.8 84.9 351 84.9C351 84.8 351.1 81.2 351.4 74.1C351.5 73.4 351.5 73 350.9 72.9C350.9 72.9 350.4 72.9 349.4 72.9Z" fill="white"/>
<path fill-rule="evenodd" clip-rule="evenodd" d="M234.6 61C235.7 57.8 236.5 54.8 237 51.9C235.6 54.8 234.8 57.8 234.6 61Z" fill="black"/>
<path fill-rule="evenodd" clip-rule="evenodd" d="M253.8 39.8L263 30.7L267.4 35L258.2 44.2L253.8 39.8Z" fill="black"/>
<path d="M253.3 39.2L263 29.6L268.5 35.1L258.2 45.3L252.8 39.8L253.3 39.2ZM263 31.7L254.9 39.8L258.2 43.1L266.3 35L263 31.7Z" fill="white"/>
<path fill-rule="evenodd" clip-rule="evenodd" d="M256 37.6L261.4 32.2L265.7 36.6L260.4 42L256 37.6Z" fill="black"/>
<path d="M255.5 37.1L261.4 31.2L266.8 36.7L260.3 43.1L254.9 37.6L255.5 37.1ZM261.4 33.4L257.1 37.6L260.4 40.9L264.7 36.6L261.4 33.4Z" fill="white"/>
<path fill-rule="evenodd" clip-rule="evenodd" d="M255.6 32.4C257.3 30.7 259.9 30.5 261.7 31.9L255.1 38.4C253.7 36.6 253.9 34 255.6 32.4Z" fill="black"/>
<path d="M255 31.8C256 30.8 257.2 30.3 258.5 30.2C259.7 30.1 261 30.4 262.2 31.3L262.9 31.8L255 39.6L254.5 38.9C253.7 37.8 253.4 36.5 253.5 35.2C253.6 34 254.1 32.8 255 31.8ZM258.6 31.8C257.7 31.9 256.8 32.3 256.1 32.9C255.4 33.6 255 34.5 255 35.4C254.9 36 255.1 36.7 255.3 37.3L260.5 32.1C259.9 31.8 259.3 31.7 258.6 31.8Z" fill="white"/>
<path d="M251.565 71.378L245.634 73.1841L249.421 85.6199L255.352 83.8138L251.565 71.378Z" fill="black"/>
<path d="M248.7 85.8L244.7 72.7L252.1 70.4L256.3 84.3L248.9 86.6L248.7 85.8ZM246.6 73.7L249.9 84.6L254.4 83.2L251 72.4L246.6 73.7Z" fill="white"/>
<path fill-rule="evenodd" clip-rule="evenodd" d="M248.5 82.7L246.3 75.4L252.2 73.6L254.4 80.9L248.5 82.7Z" fill="black"/>
<path d="M247.8 82.9L245.4 74.9L252.8 72.6L255.4 81.3L248 83.6L247.8 82.9ZM247.3 75.9L249 81.7L253.5 80.3L251.8 74.5L247.3 75.9Z" fill="white"/>
<path fill-rule="evenodd" clip-rule="evenodd" d="M243.7 80.6C243 78.3 244.1 76 246.1 75L248.8 84C246.6 84.2 244.4 82.8 243.7 80.6Z" fill="black"/>
<path d="M242.9 80.8C242.5 79.5 242.6 78.2 243.1 77C243.7 75.9 244.6 74.9 245.7 74.3L246.5 73.9L249.7 84.5L248.8 84.6C247.5 84.8 246.2 84.5 245.1 83.8C244.2 83.1 243.3 82.1 242.9 80.8ZM244.6 77.6C244.3 78.4 244.2 79.4 244.5 80.4C244.8 81.4 245.3 82.1 246.1 82.6C246.6 82.9 247.2 83.1 247.8 83.2L245.7 76.2C245.2 76.5 244.8 77 244.6 77.6Z" fill="white"/>
<path fill-rule="evenodd" clip-rule="evenodd" d="M272.7 107.5L285.3 110.6L286.8 104.5L274.2 101.4L272.7 107.5Z" fill="black"/>
<path d="M273.7 106.9L284.8 109.6L285.9 105.1L274.8 102.4L273.7 106.9ZM285.1 111.3L271.8 108L273.6 100.5L287.7 103.9L285.8 111.4L285.1 111.3Z" fill="white"/>
<path fill-rule="evenodd" clip-rule="evenodd" d="M275.8 108.2L283.1 110L284.6 104L277.2 102.2L275.8 108.2Z" fill="black"/>
<path d="M276.7 107.6L282.6 109.1L283.7 104.5L277.8 103.1L276.7 107.6ZM282.9 110.7L274.8 108.7L276.7 101.2L285.5 103.3L283.6 110.9L282.9 110.7Z" fill="white"/>
<path fill-rule="evenodd" clip-rule="evenodd" d="M278.1 112.9C280.4 113.5 282.7 112.3 283.6 110.1L274.5 107.9C274.3 110.2 275.8 112.3 278.1 112.9Z" fill="black"/>
<path d="M278.3 112.1C279.3 112.3 280.2 112.2 281.1 111.8C281.6 111.5 282.1 111.1 282.5 110.6L275.3 108.9C275.4 109.5 275.6 110.1 276 110.6C276.5 111.3 277.3 111.9 278.3 112.1ZM281.7 113.2C280.6 113.8 279.2 113.9 277.9 113.6C276.5 113.3 275.5 112.5 274.7 111.5C274 110.4 273.6 109.1 273.7 107.8L273.8 107L284.6 109.6L284.3 110.4C283.8 111.6 282.8 112.6 281.7 113.2Z" fill="white"/>
<path fill-rule="evenodd" clip-rule="evenodd" d="M333.1 58.3L328.7 46.1L322.9 48.2L327.3 60.4L333.1 58.3Z" fill="black"/>
<path d="M332.2 57.8L328.3 47.1L323.9 48.7L327.8 59.4L332.2 57.8ZM329.5 45.9L334.2 58.8L326.9 61.4L322 47.8L329.3 45.2L329.5 45.9Z" fill="white"/>
<path fill-rule="evenodd" clip-rule="evenodd" d="M332.1 55.4L329.5 48.2L323.7 50.4L326.3 57.5L332.1 55.4Z" fill="black"/>
<path d="M331.1 54.9L329.1 49.2L324.7 50.8L326.7 56.5L331.1 54.9ZM330.3 48L333.1 55.8L325.8 58.4L322.7 49.8L330 47.2L330.3 48Z" fill="white"/>
<path fill-rule="evenodd" clip-rule="evenodd" d="M334.7 50.8C333.9 48.6 331.6 47.4 329.3 47.8L332.5 56.6C334.5 55.5 335.5 53.1 334.7 50.8Z" fill="black"/>
<path d="M334 51.1C333.7 50.2 333 49.5 332.3 49C331.7 48.7 331.1 48.5 330.5 48.5L333 55.4C333.5 54.9 333.8 54.4 334.1 53.9C334.3 53 334.3 52 334 51.1ZM333 47.7C334.1 48.3 335 49.3 335.5 50.6C336 51.8 335.9 53.2 335.4 54.4C334.9 55.6 334.1 56.7 332.9 57.3L332.1 57.8L328.3 47.3L329.1 47.1C330.5 46.8 331.8 47.1 333 47.7Z" fill="white"/>
<path fill-rule="evenodd" clip-rule="evenodd" d="M318 100L326.5 90.2L321.9 86.1L313.4 95.8L318 100Z" fill="black"/>
<path d="M317.9 98.8L325.5 90.2L322 87.2L314.4 95.8L317.9 98.8ZM327.2 90.7L318.1 101L312.3 95.9L321.9 85L327.7 90.1L327.2 90.7Z" fill="white"/>
<path fill-rule="evenodd" clip-rule="evenodd" d="M320.1 97.6L325.1 91.9L320.4 87.8L315.4 93.5L320.1 97.6Z" fill="black"/>
<path d="M320 96.5L324 92L320.5 88.9L316.6 93.4L320 96.5ZM325.6 92.4L320.1 98.7L314.3 93.6L320.3 86.8L326.1 91.9L325.6 92.4Z" fill="white"/>
<path fill-rule="evenodd" clip-rule="evenodd" d="M325.3 97.7C326.8 96 326.8 93.3 325.4 91.6L319.3 98.6C321.1 99.8 323.7 99.5 325.3 97.7Z" fill="black"/>
<path d="M324.7 97.2C325.4 96.5 325.7 95.6 325.7 94.7C325.7 94.1 325.6 93.5 325.3 92.9L320.5 98.4C321.1 98.6 321.7 98.7 322.4 98.6C323.2 98.4 324.1 97.9 324.7 97.2ZM327.2 94.7C327.2 96 326.7 97.2 325.8 98.2C324.9 99.2 323.7 99.8 322.4 100C321.2 100.2 319.8 99.9 318.7 99.2L318 98.7L325.3 90.4L325.9 91.1C326.8 92.1 327.2 93.4 327.2 94.7Z" fill="white"/>
<path fill-rule="evenodd" clip-rule="evenodd" d="M310.9 27.5L298.7 23.2L296.7 29L308.8 33.3L310.9 27.5Z" fill="black"/>
<path d="M311.2 26.8L298.2 22.2L295.6 29.5L309.3 34.3L311.8 27L311.2 26.8ZM299.2 24.1L310 27.9L308.4 32.3L297.6 28.5L299.2 24.1Z" fill="white"/>
<path fill-rule="evenodd" clip-rule="evenodd" d="M308 26.4L300.8 23.9L298.8 29.8L305.9 32.3L308 26.4Z" fill="black"/>
<path d="M308.3 25.8L300.4 23L297.8 30.3L306.4 33.3L309 26L308.3 25.8ZM301.4 24.9L307.1 26.9L305.5 31.3L299.8 29.3L301.4 24.9Z" fill="white"/>
<path fill-rule="evenodd" clip-rule="evenodd" d="M306.1 21.6C303.9 20.8 301.5 21.8 300.4 23.8L309.2 26.9C309.6 24.6 308.4 22.4 306.1 21.6Z" fill="black"/>
<path d="M306.4 20.8C305.1 20.3 303.8 20.4 302.6 20.9C301.4 21.4 300.4 22.2 299.8 23.4L299.3 24.2L309.8 27.9L310 27C310.3 25.6 310 24.4 309.4 23.2C308.7 22.2 307.7 21.3 306.4 20.8ZM303.2 22.3C304 22 305 22 306 22.3C306.9 22.6 307.6 23.3 308.1 24C308.4 24.5 308.6 25.1 308.6 25.7L301.7 23.3C302 22.9 302.6 22.5 303.2 22.3Z" fill="white"/>
<path fill-rule="evenodd" clip-rule="evenodd" d="M294.5 28C315.6 30.9 330.3 50.3 327.4 71.3C324.5 92.4 305.1 107.1 284.1 104.2C263 101.3 248.3 81.9 251.2 60.9C254.1 39.8 273.5 25.1 294.5 28Z" fill="black"/>
<path fill-rule="evenodd" clip-rule="evenodd" d="M294 31.9C312.9 34.5 326.1 51.9 323.5 70.8C320.9 89.7 303.5 103 284.6 100.4C265.7 97.8 252.5 80.3 255.1 61.4C257.7 42.5 275.1 29.3 294 31.9Z" fill="white"/>
<path d="M294.1 31.1C303.7 32.5 312 37.6 317.4 44.7C322.9 51.9 325.6 61.2 324.3 70.9C322.9 80.5 317.8 88.8 310.7 94.2C303.5 99.7 294.2 102.4 284.5 101.1C274.9 99.8 266.6 94.7 261.2 87.5C255.7 80.3 253 71 254.3 61.4C255.7 51.7 260.7 43.5 267.9 38C275.2 32.5 284.5 29.8 294.1 31.1ZM316.2 45.7C311 38.8 303.1 33.9 293.9 32.6C284.7 31.4 275.8 34 268.9 39.2C262 44.4 257.1 52.3 255.8 61.5C254.5 70.7 257.2 79.6 262.4 86.5C267.6 93.4 275.5 98.3 284.7 99.6C293.9 100.9 302.8 98.2 309.7 93.1C316.6 87.9 321.5 80 322.8 70.7C324.1 61.5 321.5 52.6 316.2 45.7Z" fill="white"/>
<path d="M294.6 27.2C305.4 28.7 314.5 34.4 320.5 42.4C326.6 50.3 329.6 60.7 328.2 71.4C326.7 82.2 321 91.3 313 97.4C305 103.4 294.7 106.4 284.1 105H284C273.2 103.5 264.1 97.8 258 89.8C252 81.8 249 71.5 250.4 60.9V60.7C251.9 50 257.6 40.9 265.6 34.8C273.6 28.8 283.9 25.8 294.6 27.2ZM319.4 43.3C313.5 35.6 304.7 30.2 294.4 28.7C284.1 27.3 274.2 30.2 266.5 36C258.8 41.9 253.3 50.7 251.9 61C250.5 71.3 253.4 81.2 259.2 88.9C265.1 96.6 273.8 102.1 284.1 103.5H284.2C294.5 104.9 304.4 102 312.1 96.2C319.8 90.3 325.3 81.6 326.7 71.3C328.1 60.9 325.2 51 319.4 43.3Z" fill="white"/>
<path d="M320.4 66.4C320.5 62.8 316.8 59.4 310.8 57C309.7 56.5 308.5 56.1 307.3 55.8C307.6 54.5 307.9 53.2 308 52C308.8 45.7 307.8 40.8 304.7 39L304.3 38.8C301.1 37.3 296.6 38.9 291.8 42.8C291 43.5 290.1 44.2 289.2 45.1C288.3 44.3 287.5 43.5 286.6 42.8C281.8 38.9 277.2 37.3 274.1 38.8H274L273.7 39C270.6 40.8 269.5 45.6 270.4 52C270.6 53.1 270.8 54.3 271.1 55.5C270 55.8 269 56.2 268.1 56.5C261.9 58.8 258.1 62.2 258 65.9C258 69.5 261.8 73 267.9 75.4C268.9 75.8 270 76.2 271.2 76.5C270.9 77.8 270.6 79 270.5 80.2C269.6 86.5 270.7 91.4 273.8 93.2C277 95 281.9 93.4 287 89.1C287.8 88.5 288.5 87.9 289.3 87.1C290 87.8 290.8 88.5 291.6 89.1C296.7 93.3 301.6 95 304.8 93.2C307.9 91.5 309 86.6 308.1 80.2C307.8 78 307.3 75.9 306.7 73.7C306.1 71.7 304.7 68.2 303.9 66.1C303.4 67.1 302.7 68.7 302.2 69.9C302.6 71 303.4 73.4 303.8 74.5C302.3 74.9 300.6 75.2 299 75.4C299.6 74.4 300.2 73.5 300.7 72.5C301.5 71 302.3 69.6 303 68.2C303.3 67.6 303.6 67 303.9 66.2C305 63.6 306 61.1 306.7 58.7C307.9 59 309 59.4 309.9 59.8C314.7 61.8 317.6 64.1 317.6 66.3C317.6 68.6 314.6 70.9 309.8 72.8C309.2 73 307.4 73.6 306.8 73.8C307.1 74.8 307.3 75.8 307.6 76.7C308.3 76.5 310.2 75.8 310.9 75.6C316.7 73.3 320.4 70 320.4 66.4ZM304.3 55.1C303.7 57.7 302.9 60.2 301.9 62.7C301.4 61.7 300.9 60.8 300.4 59.9C299.8 58.9 299.3 58 298.7 57.1C299.9 57.3 302.3 57.7 303.5 58.1C303.9 57 304.2 56 304.3 55.1C302.2 54.6 298.8 54 296.5 53.7C294.9 51.3 293.1 49.2 291.3 47.3C292.1 46.6 292.9 45.8 293.7 45.2C297.7 42 301.3 40.6 303.2 41.7C305.2 42.8 305.7 46.5 305.1 51.6C304.8 52.7 304.6 53.9 304.3 55.1ZM304.4 77.5C304.6 78.6 304.9 79.7 305 80.7C305.7 85.8 305.2 89.5 303.3 90.7C301.3 91.8 297.7 90.3 293.5 86.9C291.1 84.9 288.5 82.2 286 79C287 79.1 288.1 79.1 289.2 79.1C290.4 79.1 291.5 79 292.7 79C291.9 80.1 290.2 82 289.4 82.9C290.1 83.7 290.9 84.5 291.7 85.2C293.2 83.6 295.3 80.7 296.7 78.8C299.3 78.5 301.9 78.1 304.4 77.5ZM281.9 78.7C283.6 81.1 285.3 83.2 287.1 85.1C286.4 85.8 285.7 86.4 285 87C280.9 90.4 277.2 91.9 275.3 90.8C273.3 89.7 272.8 86 273.5 80.8C273.7 79.7 273.9 78.6 274.2 77.5C276.5 78 279.2 78.4 281.9 78.7ZM274.9 74.5C275.3 73 275.9 71.5 276.5 69.9C276.7 69.4 276.8 69 277.1 68.5V68.4C278.1 66.1 279.2 63.7 280.6 61.3V61.2C281.6 59.5 282.6 57.9 283.6 56.4C285.4 56.2 287.3 56.2 289.2 56.2C291.1 56.3 293 56.3 294.8 56.5C295.8 58 296.8 59.6 297.7 61.2C298.7 62.9 299.5 64.5 300.3 66.2C299.6 67.8 298.7 69.4 297.8 71C296.8 72.7 295.8 74.3 294.8 75.8C292.9 76 291 76 289 76C283.9 76.1 279 75.5 274.9 74.5ZM282 53.6C279.2 53.9 276.5 54.3 274.1 54.9C273.9 53.8 273.6 52.7 273.5 51.7C272.8 46.6 273.4 42.9 275.3 41.8C277.3 40.7 280.8 42.1 284.8 45.3C285.6 45.9 286.4 46.7 287.2 47.4C285.7 48.9 283.4 51.8 282 53.6C283.6 53.5 283.3 53.7 286.1 53.4C286.8 52.4 288.5 50.4 289.3 49.5C290.4 50.7 291.5 52 292.6 53.4C291.5 53.3 290.5 53.3 289.3 53.3C286.9 53.3 284.5 53.4 282 53.6ZM279.8 56.9C279.2 57.8 278.7 58.7 278.2 59.6L278.1 59.8C277.5 60.7 277 61.7 276.6 62.6C275.9 60.9 275.4 59.3 274.9 57.8C276.4 57.4 278 57.1 279.8 56.9ZM271.9 58.5C272.6 61 273.6 63.6 274.8 66.2C273.7 68.7 272.7 71.3 272 73.6C270.9 73.3 270 72.9 269.1 72.6C264.1 70.6 261.1 68.2 261.1 65.9C261.1 63.6 264.2 61.2 269.2 59.4C270 59.1 270.9 58.8 271.9 58.5ZM283.5 75.8C282.8 74.7 281.2 72.3 280.6 71C280 69.9 278.6 67.6 278 66.5C277.3 67.9 277.2 68.1 276.5 69.9C277.2 71.6 278.6 74.1 279.3 75.3C280.7 75.6 282.3 75.7 283.5 75.8Z" fill="black"/>
<path fill-rule="evenodd" clip-rule="evenodd" d="M289.2 71.1C291.9 71.1 294.1 68.9 294.1 66.2C294.1 63.5 291.9 61.3 289.2 61.3C286.5 61.3 284.3 63.5 284.3 66.2C284.3 68.9 286.5 71.1 289.2 71.1Z" fill="black"/>
<path d="M289.2 70.7C290.4 70.7 291.5 70.2 292.3 69.4C293.1 68.6 293.7 67.5 293.7 66.2C293.7 65 293.2 63.9 292.3 63.1C291.5 62.3 290.4 61.7 289.2 61.7C288 61.7 286.8 62.2 286 63.1C285.2 63.9 284.7 65 284.7 66.2C284.7 67.4 285.2 68.6 286 69.4C286.9 70.2 288 70.7 289.2 70.7ZM293 70C292 71 290.7 71.6 289.2 71.6C287.7 71.6 286.4 71 285.4 70C284.4 69 283.8 67.7 283.8 66.2C283.8 64.7 284.4 63.4 285.4 62.4C286.4 61.4 287.7 60.8 289.2 60.8C290.7 60.8 292 61.4 293 62.4C294 63.4 294.6 64.7 294.6 66.2C294.6 67.7 294 69 293 70Z" fill="white"/>
<path d="M303.7 78.8C303.6 78.1 303.5 77.3 303.2 76.5C303 75.7 302.7 74.9 302.4 74L303.2 73.7C303.5 74.5 303.8 75.4 304 76.2C304.2 77 304.4 77.8 304.5 78.6L303.7 78.8Z" fill="white"/>
<path d="M276.2 70.6C276.6 69.6 277 68.7 277.4 67.7C277.9 66.7 278.3 65.7 278.8 64.7L279.6 65C278.7 67 277.8 68.9 277 71.1C276.7 71 276.4 70.8 276.2 70.6Z" fill="white"/>
<path d="M286.2 84.1C286.9 84.9 287.6 85.6 288.3 86.3C288.9 87 289.6 87.6 290.2 88.1L289.6 88.8C288.2 87.6 286.8 86.2 285.5 84.7L286.2 84.1Z" fill="white"/>
<path d="M279 78.3C280.6 78.6 282.3 78.8 284 78.9C285.6 79 287.3 79.1 289 79.1V80C287.3 80 285.6 79.9 284 79.8C282.3 79.6 280.6 79.5 278.9 79.2L279 78.3Z" fill="white"/>
<path d="M277.9 57.2C279.1 57 280.5 56.8 282 56.6C283.5 56.5 285.1 56.4 286.8 56.3L286.9 57.2C285.2 57.3 283.6 57.4 282.1 57.5C280.6 57.7 279.3 57.8 278.1 58.1L277.9 57.2Z" fill="white"/>
<path d="M271.7 60.9C271.2 59.5 270.7 58.1 270.4 56.7C270 55.2 269.8 53.8 269.6 52.2L270.5 52.1C270.7 53.6 271 55.1 271.3 56.5C271.6 57.9 272.1 59.3 272.6 60.6L271.7 60.9Z" fill="white"/>
<path d="M295 58.6C294.3 57.3 293.5 56.1 292.7 55.1C291.9 54 291.1 53.1 290.3 52.2L290.9 51.5C291.8 52.4 292.6 53.4 293.4 54.5C294.2 55.6 295 56.8 295.8 58.1L295 58.6Z" fill="white"/>
<path d="M306 60.6C306.4 59.4 306.8 58.1 307.1 56.9C307.4 55.7 307.7 54.5 307.9 53.3L308.7 53.5C308.5 54.7 308.2 55.9 307.9 57.2C307.6 58.5 307.2 59.7 306.8 61L306 60.6Z" fill="white"/>
<path d="M288.7 50.1C289.4 49.3 290.1 48.5 290.8 47.8C291.5 47.1 292.2 46.5 292.9 46L293.4 46.7C292.8 47.2 292.1 47.8 291.4 48.4C290.7 49.1 290 49.8 289.4 50.6L288.7 50.1Z" fill="white"/>
<path fill-rule="evenodd" clip-rule="evenodd" d="M302.9 67.6C303.2 69.1 303 70.2 302.3 70.9C302 70.1 301.7 69.5 301.5 69.1C302.4 68.1 302.9 67.6 302.9 67.6Z" fill="black"/>
</g>
<defs>
<clipPath id="clip0_9_2">
<rect width="578.6" height="335.6" fill="white"/>
</clipPath>
</defs>
</svg>
