<svg xmlns="http://www.w3.org/2000/svg" width="798" height="224.875" viewBox="0 0 798 224.875">
  <defs>
    <style>
      .cls-1 {
        fill: #1d2124;
        fill-rule: evenodd;
      }
    </style>
  </defs>
  <path class="cls-1" d="M-34.742,24.571c21.9-6.985,30.278-11.226,34.031-13.347C3.042,13.344,11.425,17.71,33.32,24.571c0,2.495,1.376,77.961-34.031,77.961S-34.742,27.065-34.742,24.571h0Zm34.031,87.941c45.792,0.124,44.04-92.058,44.04-95.176C14.928,8.23,4.169,2.741-.711,0-5.59,2.741-16.35,8.23-44.751,17.336c0,3.119-1.752,95.3,44.04,95.176h0Zm0.5-29.813a7.518,7.518,0,0,1-7.507-7.484v-1h-8.758V74.84c0,8.732,7.507,15.717,16.265,15.717S16.054,83.572,16.054,74.84V74.217H7.3V74.84A7.418,7.418,0,0,1,.165,82.574a0.46,0.46,0,0,1-.375.125h0ZM-3.964,48.146l-22.521-.125V40.537l22.521,0.125v7.484Zm30.027-.125-22.521.125V40.662l22.521-.125v7.484ZM763.429,24.571c21.895-6.985,30.277-11.226,34.031-13.347,3.753,2.121,12.136,6.486,34.031,13.347,0,2.495,1.376,77.961-34.031,77.961s-34.031-75.467-34.031-77.961h0Zm34.031,87.941c45.792,0.124,44.04-92.058,44.04-95.176C813.1,8.23,802.339,2.741,797.46,0c-4.88,2.744-15.639,8.233-44.041,17.339,0,3.119-1.751,95.3,44.041,95.176h0Zm0.5-29.813a7.518,7.518,0,0,1-7.507-7.484v-1H781.7V74.84c0,8.732,7.507,15.717,16.265,15.717s16.265-6.985,16.265-15.717V74.217h-8.758V74.84a7.418,7.418,0,0,1-7.131,7.734,0.462,0.462,0,0,1-.376.125h0Zm-3.753-34.553-22.521-.125V40.537l22.521,0.125v7.484Zm30.027-.125-22.52.125V40.662l22.52-.125v7.484ZM65.749,24.571C87.644,17.585,96.027,13.344,99.78,11.224c3.753,2.121,12.136,6.486,34.031,13.347,0,2.495,1.376,77.961-34.031,77.961S65.749,27.065,65.749,24.571h0ZM99.78,112.512c45.792,0.124,44.04-92.058,44.04-95.176C115.419,8.23,104.66,2.741,99.78,0,94.9,2.741,84.141,8.23,55.74,17.336c0,3.119-1.752,95.3,44.04,95.176h0Zm0.5-29.813a7.518,7.518,0,0,1-7.506-7.484v-1H84.016v0.249a15.945,15.945,0,0,0,8.258,14.1c11.636,6.112,24.272-2.495,24.272-13.721V74.217h-8.758V74.84a7.417,7.417,0,0,1-7.131,7.734,0.461,0.461,0,0,1-.376.125h0ZM125.3,47.9l-21.269.125V40.537l21.269-.125V47.9ZM95.526,40.163A11.084,11.084,0,0,0,85.017,33.3h0A11.415,11.415,0,0,0,73.631,45.028,11.4,11.4,0,1,0,95.526,40.163ZM84.891,48.146h0a3.626,3.626,0,0,1-3.628-3.617h0a3.656,3.656,0,0,1,4.254-3.617,3.593,3.593,0,0,1,2.878,2.869A3.557,3.557,0,0,1,84.891,48.146ZM414.955,136.73c21.9-6.986,30.278-11.227,34.031-13.347,3.753,2.12,12.136,6.486,34.031,13.347,0,2.494,1.376,77.962-34.031,77.962s-34.031-75.468-34.031-77.962h0Zm34.031,87.941c45.792,0.124,44.04-92.058,44.04-95.176-28.4-9.106-39.161-14.595-44.04-17.339-4.88,2.744-15.639,8.233-44.04,17.339,0,3.118-1.752,95.3,44.04,95.176h0Zm0.5-29.813a7.517,7.517,0,0,1-7.506-7.484v-1h-8.758v0.249a15.944,15.944,0,0,0,8.257,14.1c11.636,6.112,24.272-2.5,24.272-13.721v-0.624h-8.758V187a7.416,7.416,0,0,1-7.131,7.733,0.46,0.46,0,0,1-.376.125h0Zm25.023-34.8-21.269.125V152.7l21.269-.124v7.484Zm-29.777-7.734a11.084,11.084,0,0,0-10.51-6.861h0a11.415,11.415,0,0,0-11.385,11.726A11.4,11.4,0,1,0,444.732,152.322ZM434.1,160.305h0a3.625,3.625,0,0,1-3.628-3.617h0a3.657,3.657,0,0,1,4.254-3.618,3.6,3.6,0,0,1,2.878,2.869A3.558,3.558,0,0,1,434.1,160.305ZM165.553,24.571c21.9-6.985,30.278-11.226,34.031-13.347,3.754,2.121,12.136,6.486,34.031,13.347,0,2.495,1.377,77.961-34.031,77.961s-34.031-75.467-34.031-77.961h0Zm34.031,87.941c45.792,0.124,44.04-92.058,44.04-95.176C215.223,8.23,204.464,2.741,199.584,0c-4.879,2.744-15.639,8.233-44.04,17.339,0,3.119-1.752,95.3,44.04,95.176h0ZM176.938,35.173l-5.38,5.364,13.513,13.472,13.512-13.472-5.38-5.364-8.132,7.983ZM189.575,84.2l5.38,5.489,5.13-5.114,5.129,5.114,5.38-5.489-5.13-4.99,5.13-5.114-5.5-5.364-5,4.99-5.13-4.99-5.38,5.364,5.13,5.114Zm18.142-49.022-5.38,5.364,13.512,13.472,13.512-13.472-5.38-5.364-8.132,7.983Zm57.39-10.6C287,17.585,295.385,13.344,299.139,11.224c3.753,2.121,12.136,6.486,34.031,13.347,0,2.495,1.376,77.961-34.031,77.961s-34.032-75.467-34.032-77.961h0Zm34.032,87.941c45.792,0.124,44.04-92.058,44.04-95.176C314.778,8.23,304.018,2.741,299.139,0,294.259,2.741,283.5,8.23,255.1,17.336c0,3.119-1.751,95.3,44.041,95.176h0Zm-10.76-37.048H310.9v7.484h-22.52V75.464ZM314.027,33.3h0a11.351,11.351,0,1,0,11.386,11.351A11.409,11.409,0,0,0,314.027,33.3Zm0,14.844h0a3.625,3.625,0,0,1-3.628-3.617h0A3.629,3.629,0,1,1,314.027,48.146ZM284.375,33.3h0A11.351,11.351,0,1,0,295.76,44.654,11.409,11.409,0,0,0,284.375,33.3ZM284.25,48.146h0a3.625,3.625,0,0,1-3.628-3.617h0A3.628,3.628,0,1,1,284.25,48.146Zm80.721-23.576c21.9-6.985,30.278-11.226,34.032-13.347,3.753,2.121,12.136,6.486,34.031,13.347,0,2.495,1.376,77.961-34.031,77.961s-34.032-75.467-34.032-77.961h0ZM399,112.512c45.792,0.124,44.04-92.058,44.04-95.176C414.642,8.23,403.882,2.741,399,0c-4.88,2.744-15.64,8.233-44.041,17.339,0,3.119-1.751,95.3,44.041,95.176h0Zm-5.756-42.786-5.38,5.364L405.634,92.8l5.38-5.364Zm13.137-15.717-5.5-5.364,13.638-13.472,13.512,13.472-5.38,5.364L414.517,45.9Zm-30.778,0-5.38-5.364,13.513-13.472,13.512,13.472-5.5,5.364L383.739,45.9Zm88.856-29.438c21.9-6.985,30.278-11.226,34.031-13.347,3.754,2.121,12.137,6.486,34.032,13.347,0,2.495,1.376,77.961-34.032,77.961s-34.031-75.467-34.031-77.961h0Zm34.031,87.941c45.792,0.124,44.041-92.058,44.041-95.176C514.133,8.23,503.373,2.741,498.493,0c-4.879,2.744-15.639,8.233-44.04,17.339,0,3.119-1.752,95.3,44.04,95.176h0Zm-0.25-35.426a8.025,8.025,0,0,1,7.882,7.983v0.5h7.883V84.82a15.64,15.64,0,0,0-31.279,0v0.624h7.507V84.82a8,8,0,0,1,8.007-7.734h0Zm3.5-27.443,5.38,5.364,5.13-4.989,5.13,4.99,5.38-5.364-5-5.114,5-4.989-5.38-5.488-5.13,5.114-5.13-5.114-5.38,5.488,5.13,4.99Zm-27.9,0,5.5,5.364,5-4.989,5.13,4.99,5.38-5.364-5-5.114,5-4.989-5.38-5.488-5.13,5.114-5-5.114-5.5,5.488,5.13,4.99ZM713.93,136.737c21.9-6.985,30.278-11.226,34.031-13.347,3.754,2.121,12.137,6.487,34.032,13.347,0,2.5,1.376,77.962-34.032,77.962s-34.031-75.467-34.031-77.962h0Zm34.031,87.941C793.753,224.8,792,132.621,792,129.5c-28.4-9.106-39.161-14.595-44.041-17.339-4.879,2.744-15.639,8.233-44.04,17.339,0,3.118-1.751,95.3,44.04,95.175h0Zm-0.25-35.425a8.024,8.024,0,0,1,7.882,7.983v0.5h7.883v-0.749a15.64,15.64,0,0,0-31.279,0v0.624H739.7v-0.624a8,8,0,0,1,8.007-7.733h0Zm3.5-27.443,5.38,5.364,5.13-4.99,5.13,4.99,5.38-5.364-5-5.114,5-4.99-5.38-5.488-5.13,5.114-5.13-5.114-5.38,5.488,5.13,4.99Zm-27.9,0,5.5,5.364,5-4.99,5.129,4.99,5.38-5.364-5-5.114,5-4.99-5.38-5.488-5.129,5.114-5-5.114-5.5,5.488,5.13,4.99ZM563.959,24.571c21.9-6.985,30.277-11.226,34.031-13.347,3.753,2.121,12.136,6.486,34.031,13.347,0,2.495,1.376,77.961-34.031,77.961s-34.031-75.467-34.031-77.961h0Zm34.031,87.941c45.792,0.124,44.04-92.058,44.04-95.176C613.629,8.23,602.869,2.741,597.99,0c-4.88,2.744-15.64,8.233-44.041,17.339,0,3.119-1.751,95.3,44.041,95.176h0Zm0.5-29.813a7.518,7.518,0,0,1-7.507-7.484v-1h-8.758V74.84c0,8.732,7.507,15.717,16.265,15.717s16.265-6.985,16.265-15.717V74.217H606V74.84a7.418,7.418,0,0,1-7.131,7.734,0.463,0.463,0,0,1-.376.125h0Zm4.129-30.062L608,58.125l13.637-13.472L608,31.057l-5.38,5.488,8.132,8.108Zm-26.524,0,5.5,5.489,13.512-13.472L581.6,31.057l-5.5,5.488,8.132,8.108Zm-460.1,84.146c21.9-6.986,30.278-11.227,34.032-13.348,3.753,2.121,12.136,6.487,34.031,13.348,0,2.494,1.376,77.961-34.031,77.961s-34.032-75.467-34.032-77.961h0Zm34.032,87.941c45.792,0.124,44.04-92.058,44.04-95.176-28.4-9.106-39.161-14.595-44.04-17.339-4.88,2.744-15.64,8.233-44.041,17.339,0,3.118-1.751,95.3,44.041,95.176h0Zm0.5-29.813a7.518,7.518,0,0,1-7.507-7.484v-1H134.26v0.623c0,8.732,7.507,15.718,16.265,15.718s16.265-6.986,16.265-15.718v-0.623h-8.758v0.623a7.418,7.418,0,0,1-7.132,7.734,0.459,0.459,0,0,1-.375.125h0Zm4.129-30.062,5.38,5.488,13.637-13.471-13.637-13.6-5.38,5.489,8.132,8.108Zm-26.524,0,5.5,5.488,13.512-13.471-13.512-13.6-5.5,5.489,8.132,8.108ZM663.816,24.571c21.895-6.985,30.278-11.226,34.031-13.347,3.754,2.121,12.136,6.486,34.032,13.347,0,2.495,1.376,77.961-34.032,77.961s-34.031-75.467-34.031-77.961h0Zm34.031,87.941c45.792,0.124,44.041-92.058,44.041-95.176C713.487,8.23,702.727,2.741,697.847,0c-4.879,2.744-15.639,8.233-44.04,17.339,0,3.119-1.752,95.3,44.04,95.176h0Zm0.5-29.813a7.518,7.518,0,0,1-7.507-7.484v-1h-8.758V74.84c0,8.732,7.507,15.717,16.265,15.717s16.265-6.985,16.265-15.717V74.217h-8.758V74.84a7.418,7.418,0,0,1-7.132,7.734,0.46,0.46,0,0,1-.375.125h0Zm14.388-49.4h0a11.351,11.351,0,1,0,11.385,11.351A11.409,11.409,0,0,0,712.736,33.3Zm0,14.844h0a3.625,3.625,0,0,1-3.628-3.617h0A3.628,3.628,0,1,1,712.736,48.146ZM683.084,33.3h0a11.351,11.351,0,1,0,11.385,11.351A11.41,11.41,0,0,0,683.084,33.3Zm-0.125,14.844h0a3.626,3.626,0,0,1-3.629-3.617h0A3.629,3.629,0,1,1,682.959,48.146ZM16.522,136.936c21.9-6.985,30.278-11.226,34.031-13.347,3.753,2.121,12.136,6.487,34.031,13.347,0,2.5,1.376,77.962-34.031,77.962s-34.031-75.467-34.031-77.962h0Zm34.031,87.942C96.345,225,94.593,132.82,94.593,129.7c-28.4-9.106-39.161-14.595-44.04-17.339-4.879,2.744-15.639,8.233-44.04,17.339,0,3.118-1.752,95.3,44.04,95.176h0Zm0.5-29.813a7.518,7.518,0,0,1-7.507-7.484v-1H34.789v0.623c0,8.732,7.507,15.717,16.265,15.717s16.265-6.985,16.265-15.717v-0.623H58.56v0.623a7.418,7.418,0,0,1-7.132,7.734,0.46,0.46,0,0,1-.375.125h0Zm16.39-49.771,6.631,3.867-11.01,18.96-6.631-3.867Zm-33.656,0-6.631,3.867,11.01,18.96,6.631-3.867Zm481.285-8.517c21.895-6.985,30.277-11.226,34.031-13.347,3.753,2.121,12.136,6.487,34.031,13.347,0,2.5,1.376,77.962-34.031,77.962s-34.031-75.467-34.031-77.962h0ZM549.1,224.718c45.792,0.125,44.04-92.057,44.04-95.176-28.4-9.106-39.161-14.594-44.04-17.338-4.88,2.744-15.64,8.232-44.041,17.338,0,3.119-1.751,95.3,44.041,95.176h0Zm0.5-29.812a7.518,7.518,0,0,1-7.507-7.485v-1h-8.758v0.624c0,8.732,7.507,15.717,16.265,15.717s16.265-6.985,16.265-15.717v-0.624h-8.758v0.624a7.419,7.419,0,0,1-7.131,7.734,0.462,0.462,0,0,1-.376.125h0Zm16.39-49.771L572.625,149l-11.01,18.96-6.631-3.867Zm-33.656,0L525.707,149l11.01,18.96,6.632-3.867Zm-316.6-8.352c21.895-6.986,30.278-11.227,34.031-13.348,3.754,2.121,12.136,6.487,34.031,13.348,0,2.494,1.377,77.961-34.031,77.961s-34.031-75.467-34.031-77.961h0Zm34.031,87.941c45.792,0.124,44.04-92.058,44.04-95.176-28.4-9.106-39.16-14.595-44.04-17.339-4.879,2.744-15.639,8.233-44.04,17.339,0,3.118-1.752,95.3,44.04,95.176h0Zm-5.755-42.786-5.38,5.364L256.4,205.015l5.38-5.364Zm0.375-17.089-5.38,5.364L225.5,156.741l13.512-13.472,5.5,5.489-8.132,8.108Zm26.4,0-5.38,5.364L251.9,156.741l13.512-13.472,5.5,5.364-8.132,8.233Zm44.766-28.066c21.9-6.986,30.278-11.227,34.032-13.348,3.753,2.121,12.136,6.487,34.031,13.348,0,2.494,1.376,77.961-34.031,77.961s-34.032-75.467-34.032-77.961h0Zm34.032,87.941c45.792,0.124,44.04-92.058,44.04-95.176-28.4-9.106-39.161-14.595-44.04-17.339-4.88,2.744-15.64,8.233-44.041,17.339,0,3.118-1.751,95.3,44.041,95.176h0Zm21.144-59.875-5.5,5.364-13.512-13.472,13.512-13.472,5.5,5.364-8.132,8.233Zm-21.019,15.218h0a11.41,11.41,0,0,0-11.386,11.351A11.323,11.323,0,1,0,349.714,180.067Zm0,14.844h0a3.618,3.618,0,1,1,3.628-3.617A3.626,3.626,0,0,1,349.714,194.911Zm-5.5-30.062-5.38,5.364-13.513-13.472,13.513-13.472,5.5,5.489-8.133,8.108Zm270.323-28.065c21.895-6.986,30.278-11.227,34.031-13.347,3.754,2.12,12.136,6.486,34.031,13.347,0,2.5,1.377,77.962-34.031,77.962s-34.031-75.467-34.031-77.962h0Zm34.031,87.941c45.792,0.125,44.041-92.058,44.041-95.176-28.4-9.106-39.161-14.6-44.041-17.339-4.879,2.744-15.639,8.233-44.04,17.339,0,3.118-1.752,95.3,44.04,95.176h0Zm-10.009-28.316,5.38,5.364,5.13-4.99,5,4.99,5.5-5.364-5.129-4.989,5.129-4.99-5.5-5.489-5,5.115-5.13-5.115-5.38,5.364,5.13,5.115Zm24.9-51.018h0a11.351,11.351,0,1,0,11.385,11.351A11.409,11.409,0,0,0,663.452,145.391Zm0,14.968h0a3.625,3.625,0,0,1-3.628-3.617h0A3.628,3.628,0,1,1,663.452,160.359Zm-29.777-14.968h0a11.351,11.351,0,1,0,11.385,11.351A11.251,11.251,0,0,0,633.675,145.391Zm0,14.968h0a3.625,3.625,0,0,1-3.629-3.617h0A3.629,3.629,0,1,1,633.675,160.359Z"/>
</svg>
