<svg width="1799" height="342" viewBox="0 0 1799 342" fill="none" xmlns="http://www.w3.org/2000/svg">
<path d="M39.0603 5.21924H302.739C321.474 5.21924 336.663 20.4094 336.663 39.1465V302.853C336.663 321.591 321.474 336.781 302.739 336.781H39.0603C20.3252 336.781 5.13672 321.591 5.13672 302.853V38.2726C5.59931 20.2295 20.1453 5.69473 38.1865 5.23209H39.0603V5.21924Z" fill="black"/>
<path d="M302.773 0.0788574H38.0651C17.2591 0.618609 0.539748 17.338 0 38.2084V39.1466V240.101V302.854C0 324.392 17.529 341.921 39.0675 341.921H302.773C324.311 341.921 341.84 324.392 341.84 302.854V39.1466C341.84 17.6079 324.311 0.0788574 302.773 0.0788574ZM10.2809 39.2108V38.4012C10.6793 23.0697 22.9907 10.7582 38.2579 10.3727H39.106H302.773C318.644 10.3727 331.56 23.2882 331.56 39.1594V55.776L207.7 179.649L154.779 126.728C143.367 115.316 124.772 115.316 113.347 126.728L10.2809 229.807V39.2108ZM302.773 331.64H39.0675C23.1963 331.64 10.2809 318.725 10.2809 302.854V285.067L134.076 161.246L186.997 214.154C198.422 225.579 217.004 225.579 228.429 214.154L331.572 110.998V302.841C331.572 318.712 318.657 331.627 302.786 331.627L302.773 331.64Z" fill="url(#paint0_linear_1447_10)"/>
<path d="M420.262 34.8908V17.7227H543.621V34.8908H491.7V177.593H472.393V34.8908H420.262Z" fill="white"/>
<path d="M579.123 180.167C568.04 180.167 558.582 177.625 550.748 172.553C542.913 167.47 536.924 160.478 532.78 151.578C528.636 142.667 526.559 132.532 526.559 121.164C526.559 109.796 528.741 99.4297 533.096 90.4765C537.451 81.5445 543.503 74.5106 551.222 69.3854C558.941 64.2708 567.808 61.7083 577.826 61.7083C588.338 61.7083 597.459 64.2181 605.178 69.2167C612.896 74.2258 618.854 81.1965 623.04 90.1391C627.226 99.0817 629.314 109.416 629.314 121.143V126.184H544.568C545.001 137.278 548.175 146.284 554.111 153.223C560.048 160.162 568.378 163.631 579.101 163.631C587.179 163.631 593.779 161.765 598.893 158.052C603.997 154.34 607.413 149.542 609.143 143.679H627.384C625.95 150.903 622.987 157.251 618.485 162.724C613.982 168.197 608.352 172.468 601.593 175.548C594.834 178.627 587.337 180.167 579.123 180.167ZM544.79 110.534H611.083C610.081 100.6 606.612 92.6911 600.675 86.8172C594.739 80.9539 587.126 78.0222 577.836 78.0222C568.547 78.0222 560.955 80.9539 555.092 86.8172C549.219 92.6911 545.792 100.59 544.79 110.534Z" fill="white"/>
<path d="M692.509 180.167C682.07 180.167 672.897 177.646 664.999 172.606C657.101 167.565 650.943 160.605 646.546 151.736C642.149 142.867 639.945 132.669 639.945 121.164C639.945 109.659 642.149 99.3139 646.546 90.3712C650.943 81.4391 657.091 74.4263 664.999 69.3434C672.897 64.2604 682.07 61.7295 692.509 61.7295C701.093 61.7295 708.769 63.4379 715.57 66.8335C722.361 70.2292 727.918 74.9009 732.251 80.838C736.575 86.7752 739.242 93.5771 740.244 101.223H721.791C720.431 94.5684 717.31 89.0847 712.407 84.7505C707.504 80.4268 700.882 78.2544 692.509 78.2544C681.849 78.2544 673.498 82.1457 667.456 89.9494C661.414 97.7426 658.388 108.151 658.388 121.175C658.388 134.199 661.393 144.343 667.403 152.073C673.413 159.793 681.775 163.663 692.499 163.663C701.008 163.663 707.514 161.564 712.017 157.378C716.519 153.191 719.672 147.634 721.454 140.695H740.223C739.221 148.14 736.553 154.836 732.23 160.816C727.907 166.784 722.329 171.509 715.496 174.978C708.663 178.448 700.998 180.177 692.488 180.177H692.499L692.509 180.167Z" fill="white"/>
<path d="M774.472 111.283V177.593H756.23V17.7227H774.472V80.1629C778.405 74.0149 783.171 69.4697 788.792 66.5381C794.401 63.6064 800.717 62.1406 807.719 62.1406C815.374 62.1406 822.344 63.8067 828.628 67.1286C834.924 70.4505 839.943 75.4385 843.707 82.0928C847.461 88.747 849.338 97.1096 849.338 107.202V177.593H831.096V108.499C831.096 98.702 828.755 91.3201 824.063 86.3426C819.371 81.3756 812.78 78.8869 804.271 78.8869C795.762 78.8869 789.013 81.4284 783.193 86.5008C777.362 91.5838 774.451 99.8409 774.451 111.283H774.472Z" fill="white"/>
<path d="M874.367 177.593V17.7227H907.413V149.268H980.033V177.593H874.367Z" fill="white"/>
<path d="M1043.2 180.166C1031.76 180.166 1021.8 177.625 1013.33 172.553C1004.85 167.47 998.273 160.478 993.592 151.577C988.899 142.666 986.559 132.49 986.559 121.048C986.559 109.606 988.931 99.3031 993.687 90.3605C998.442 81.4284 1005 74.4156 1013.36 69.3326C1021.72 64.2497 1031.31 61.7188 1042.11 61.7188C1052.9 61.7188 1063.01 64.2075 1071.35 69.1745C1079.68 74.1414 1086.18 81.0488 1090.86 89.8859C1095.56 98.7231 1097.9 108.9 1097.9 120.415V128.894H1017.35C1017.63 137.257 1020.1 143.953 1024.75 148.962C1029.4 153.971 1035.86 156.471 1044.16 156.471C1050.31 156.471 1055.43 155.152 1059.56 152.505C1063.67 149.859 1066.43 146.357 1067.87 141.981H1096.72C1095.36 149.489 1092.18 156.112 1087.17 161.828C1082.16 167.554 1075.88 172.036 1068.3 175.294C1060.72 178.553 1052.36 180.177 1043.2 180.177H1043.21L1043.2 180.166ZM1017.57 108.71H1068.09C1067.3 101.623 1064.67 96.034 1060.2 91.9212C1055.73 87.819 1049.92 85.7521 1042.77 85.7521C1035.62 85.7521 1029.93 87.8085 1025.5 91.9212C1021.06 96.0445 1018.42 101.634 1017.56 108.71H1017.57Z" fill="white"/>
<path d="M1146.73 179.523C1135.44 179.523 1126.12 176.697 1118.79 171.044C1111.46 165.392 1107.79 156.924 1107.79 145.619C1107.79 137.109 1109.83 130.444 1113.91 125.614C1117.98 120.784 1123.38 117.273 1130.11 115.048C1136.82 112.833 1144.12 111.357 1152 110.65C1162.36 109.574 1169.62 108.509 1173.77 107.434C1177.91 106.358 1179.99 103.996 1179.99 100.347V99.5983C1179.99 95.4539 1178.35 92.0582 1175.05 89.4113C1171.77 86.7643 1167.21 85.4461 1161.42 85.4461C1155.63 85.4461 1150.81 86.8065 1147.17 89.5273C1143.52 92.248 1141.51 95.7913 1141.16 100.147H1111.44C1112.16 88.4833 1116.96 79.2137 1125.81 72.3064C1134.68 65.399 1146.87 61.9612 1162.39 61.9612C1177.91 61.9612 1189.92 65.4201 1198.42 72.3064C1206.94 79.2032 1211.19 88.7047 1211.19 100.79V177.614H1180.3V161.627H1179.86C1176.86 167.132 1172.75 171.498 1167.53 174.725C1162.31 177.941 1155.37 179.555 1146.71 179.555H1146.74L1146.73 179.523ZM1155.53 157.525C1163.11 157.525 1169.12 155.5 1173.55 151.461C1177.99 147.422 1180.19 142.329 1180.19 136.17V124.802C1178.4 125.804 1175.44 126.721 1171.29 127.533C1167.15 128.356 1162.53 129.168 1157.45 129.948C1152.02 130.813 1147.43 132.363 1143.67 134.62C1139.91 136.877 1138.03 140.251 1138.03 144.754C1138.03 148.762 1139.63 151.883 1142.81 154.14C1146 156.397 1150.22 157.515 1155.52 157.515L1155.53 157.525Z" fill="white"/>
<path d="M1273.19 179.945C1263.33 179.945 1254.71 177.477 1247.35 172.542C1239.98 167.607 1234.27 160.699 1230.24 151.831C1226.2 142.962 1224.18 132.627 1224.18 120.827C1224.18 109.026 1226.24 99.0078 1230.35 90.139C1234.46 81.2702 1240.19 74.3523 1247.51 69.3854C1254.84 64.4184 1263.34 61.9296 1272.99 61.9296C1280.29 61.9296 1286.76 63.4166 1292.41 66.3799C1298.06 69.3432 1302.71 73.8778 1306.35 79.952H1306.47V17.7227H1338.01V177.593H1306.9V160.214H1306.78C1303.51 166.795 1298.94 171.741 1293.12 175.02C1287.29 178.31 1280.66 179.956 1273.21 179.956H1273.19V179.945ZM1281.35 154.203C1289.35 154.203 1295.79 151.177 1300.66 145.134C1305.52 139.091 1307.94 130.992 1307.94 120.827C1307.94 110.661 1305.52 102.657 1300.66 96.5823C1295.79 90.4976 1289.35 87.4604 1281.35 87.4604C1273.35 87.4604 1267.57 90.371 1262.95 96.2027C1258.33 102.034 1256.02 110.239 1256.02 120.827C1256.02 131.414 1258.33 139.619 1262.95 145.45C1267.57 151.282 1273.7 154.193 1281.35 154.193V154.203Z" fill="white"/>
<path d="M1433.42 180.167C1418.69 180.167 1405.79 176.644 1394.7 169.6C1383.62 162.555 1374.99 152.832 1368.81 140.42C1362.62 128.008 1359.53 113.793 1359.53 97.7741C1359.53 81.7554 1362.61 67.3185 1368.75 54.9064C1374.9 42.4942 1383.54 32.7607 1394.65 25.7268C1405.78 18.6824 1418.7 15.1602 1433.43 15.1602C1444.59 15.1602 1454.78 17.3642 1464 21.7617C1473.23 26.1592 1480.93 32.4232 1487.11 40.5328C1493.29 48.6423 1497.36 58.281 1499.29 69.4487H1479.55C1476.98 57.7853 1471.56 48.8321 1463.31 42.5681C1455.04 36.304 1445.08 33.1825 1433.42 33.1825C1421.76 33.1825 1412.51 35.9138 1404.36 41.387C1396.21 46.8601 1389.92 54.4424 1385.48 64.1337C1381.05 73.8357 1378.83 85.0456 1378.83 97.7741C1378.83 110.503 1381.05 121.596 1385.48 131.246C1389.92 140.905 1396.21 148.467 1404.36 153.94C1412.51 159.413 1422.19 162.144 1433.42 162.144C1444.65 162.144 1454.84 159.023 1463.14 152.811C1471.44 146.589 1476.94 137.678 1479.66 126.089H1499.28C1497.35 137.183 1493.32 146.758 1487.17 154.836C1481.02 162.925 1473.31 169.168 1464.05 173.565C1454.79 177.963 1444.58 180.167 1433.42 180.167Z" fill="white"/>
<path d="M1564.4 180.167C1553.96 180.167 1544.79 177.646 1536.89 172.606C1528.99 167.565 1522.84 160.605 1518.44 151.736C1514.04 142.867 1511.84 132.669 1511.84 121.164C1511.84 109.659 1514.04 99.3139 1518.44 90.3712C1522.84 81.4391 1528.99 74.4263 1536.89 69.3434C1544.79 64.2604 1553.96 61.7295 1564.4 61.7295C1574.84 61.7295 1584.1 64.271 1591.98 69.3434C1599.83 74.4263 1605.98 81.4391 1610.38 90.3712C1614.77 99.3139 1616.98 109.575 1616.98 121.164C1616.98 132.754 1614.77 142.878 1610.38 151.736C1605.98 160.605 1599.84 167.565 1591.98 172.606C1584.1 177.646 1574.92 180.167 1564.4 180.167ZM1564.4 163.652C1575.13 163.652 1583.49 159.772 1589.5 152.01C1595.51 144.249 1598.52 133.967 1598.52 121.164C1598.52 108.362 1595.49 97.8375 1589.45 90.0021C1583.42 82.1668 1575.06 78.2544 1564.4 78.2544C1553.74 78.2544 1545.39 82.1562 1539.35 89.9494C1533.32 97.7426 1530.29 108.151 1530.29 121.175C1530.29 134.199 1533.3 144.343 1539.31 152.073C1545.32 159.803 1553.68 163.663 1564.4 163.663V163.652Z" fill="white"/>
<path d="M1652.04 111.283V177.593H1633.8V64.2919H1651.61V80.9222C1655.54 74.4789 1660.35 69.7545 1666.04 66.7068C1671.73 63.6697 1678.14 62.1511 1685.3 62.1511C1692.95 62.1511 1699.92 63.8173 1706.22 67.1392C1712.5 70.461 1717.53 75.4491 1721.28 82.1033C1725.04 88.7576 1726.91 97.1202 1726.91 107.212V177.604H1708.67V108.509C1708.67 98.7126 1706.33 91.3307 1701.64 86.3532C1696.96 81.3862 1690.37 78.8975 1681.86 78.8975C1673.35 78.8975 1666.6 81.439 1660.77 86.5114C1654.94 91.5943 1652.03 99.8515 1652.03 111.293H1652.04V111.283Z" fill="white"/>
<path d="M1799 64.2918V79.9625H1776.04V177.604H1757.81V79.9625H1737.65V64.2918H1757.81V44.1286C1757.81 36.0402 1760.49 29.618 1765.85 24.8725C1771.22 20.1164 1778.47 17.7437 1787.62 17.7437H1798.99V33.4144H1789.34C1784.55 33.4144 1781.14 34.4584 1779.09 36.5253C1777.06 38.6028 1776.03 42.0617 1776.03 46.9338V64.3128H1798.99V64.2918H1799Z" fill="white"/>
<path d="M427.672 325.963V226.492H448.233V308.338H493.429V325.963H427.672Z" fill="white"/>
<path d="M427.672 325.963V226.492H448.233V308.338H493.429V325.963H427.672Z" fill="url(#paint1_linear_1447_10)"/>
<path d="M536.02 327.565C528.899 327.565 522.646 326.029 517.261 322.958C511.921 319.888 507.737 315.615 504.711 310.141C501.729 304.622 500.238 298.169 500.238 290.781C500.238 283.393 501.729 276.94 504.711 271.421C507.737 265.902 511.921 261.607 517.261 258.537C522.646 255.421 528.899 253.863 536.02 253.863C543.186 253.863 549.439 255.421 554.779 258.537C560.165 261.607 564.348 265.902 567.33 271.421C570.356 276.94 571.869 283.393 571.869 290.781C571.869 298.124 570.356 304.555 567.33 310.074C564.348 315.593 560.165 319.888 554.779 322.958C549.439 326.029 543.186 327.565 536.02 327.565ZM536.02 311.61C540.827 311.61 544.699 309.785 547.636 306.135C550.574 302.441 552.042 297.323 552.042 290.781C552.042 284.194 550.574 279.054 547.636 275.36C544.699 271.666 540.827 269.819 536.02 269.819C531.258 269.819 527.409 271.666 524.471 275.36C521.534 279.054 520.065 284.194 520.065 290.781C520.065 297.323 521.534 302.441 524.471 306.135C527.409 309.785 531.258 311.61 536.02 311.61Z" fill="white"/>
<path d="M536.02 327.565C528.899 327.565 522.646 326.029 517.261 322.958C511.921 319.888 507.737 315.615 504.711 310.141C501.729 304.622 500.238 298.169 500.238 290.781C500.238 283.393 501.729 276.94 504.711 271.421C507.737 265.902 511.921 261.607 517.261 258.537C522.646 255.421 528.899 253.863 536.02 253.863C543.186 253.863 549.439 255.421 554.779 258.537C560.165 261.607 564.348 265.902 567.33 271.421C570.356 276.94 571.869 283.393 571.869 290.781C571.869 298.124 570.356 304.555 567.33 310.074C564.348 315.593 560.165 319.888 554.779 322.958C549.439 326.029 543.186 327.565 536.02 327.565ZM536.02 311.61C540.827 311.61 544.699 309.785 547.636 306.135C550.574 302.441 552.042 297.323 552.042 290.781C552.042 284.194 550.574 279.054 547.636 275.36C544.699 271.666 540.827 269.819 536.02 269.819C531.258 269.819 527.409 271.666 524.471 275.36C521.534 279.054 520.065 284.194 520.065 290.781C520.065 297.323 521.534 302.441 524.471 306.135C527.409 309.785 531.258 311.61 536.02 311.61Z" fill="url(#paint2_linear_1447_10)"/>
<path d="M602.445 286.775V325.963H582.751V255.466H602.111V266.548C604.514 262.542 607.518 259.449 611.123 257.268C614.728 255.087 619.067 253.997 624.141 253.997C631.618 253.997 637.604 256.422 642.099 261.274C646.594 266.08 648.842 272.934 648.842 281.835V325.963H629.215V285.44C629.215 280.723 628.08 277.14 625.81 274.692C623.54 272.2 620.358 270.954 616.264 270.954C612.214 270.954 608.898 272.222 606.317 274.759C603.735 277.296 602.445 281.301 602.445 286.775Z" fill="white"/>
<path d="M602.445 286.775V325.963H582.751V255.466H602.111V266.548C604.514 262.542 607.518 259.449 611.123 257.268C614.728 255.087 619.067 253.997 624.141 253.997C631.618 253.997 637.604 256.422 642.099 261.274C646.594 266.08 648.842 272.934 648.842 281.835V325.963H629.215V285.44C629.215 280.723 628.08 277.14 625.81 274.692C623.54 272.2 620.358 270.954 616.264 270.954C612.214 270.954 608.898 272.222 606.317 274.759C603.735 277.296 602.445 281.301 602.445 286.775Z" fill="url(#paint3_linear_1447_10)"/>
<path d="M690.298 327.431C684.157 327.431 678.794 325.896 674.21 322.825C669.626 319.754 666.065 315.459 663.528 309.941C661.036 304.422 659.79 297.991 659.79 290.647C659.79 283.437 661.058 277.073 663.595 271.554C666.176 266.036 669.737 261.741 674.276 258.67C678.86 255.555 684.157 253.997 690.165 253.997C694.704 253.997 698.732 254.932 702.248 256.801C705.764 258.626 708.657 261.429 710.927 265.212H710.993V226.492H730.62V325.963H711.26V315.148H711.194C709.146 319.242 706.298 322.313 702.649 324.36C699.044 326.408 694.927 327.431 690.298 327.431ZM695.372 311.409C700.357 311.409 704.362 309.54 707.388 305.802C710.415 302.019 711.928 296.967 711.928 290.647C711.928 284.372 710.415 279.343 707.388 275.56C704.362 271.777 700.357 269.885 695.372 269.885C690.61 269.885 686.782 271.71 683.89 275.36C681.041 278.965 679.617 284.061 679.617 290.647C679.617 297.234 681.041 302.352 683.89 306.002C686.782 309.607 690.61 311.409 695.372 311.409Z" fill="white"/>
<path d="M690.298 327.431C684.157 327.431 678.794 325.896 674.21 322.825C669.626 319.754 666.065 315.459 663.528 309.941C661.036 304.422 659.79 297.991 659.79 290.647C659.79 283.437 661.058 277.073 663.595 271.554C666.176 266.036 669.737 261.741 674.276 258.67C678.86 255.555 684.157 253.997 690.165 253.997C694.704 253.997 698.732 254.932 702.248 256.801C705.764 258.626 708.657 261.429 710.927 265.212H710.993V226.492H730.62V325.963H711.26V315.148H711.194C709.146 319.242 706.298 322.313 702.649 324.36C699.044 326.408 694.927 327.431 690.298 327.431ZM695.372 311.409C700.357 311.409 704.362 309.54 707.388 305.802C710.415 302.019 711.928 296.967 711.928 290.647C711.928 284.372 710.415 279.343 707.388 275.56C704.362 271.777 700.357 269.885 695.372 269.885C690.61 269.885 686.782 271.71 683.89 275.36C681.041 278.965 679.617 284.061 679.617 290.647C679.617 297.234 681.041 302.352 683.89 306.002C686.782 309.607 690.61 311.409 695.372 311.409Z" fill="url(#paint4_linear_1447_10)"/>
<path d="M777.284 327.565C770.163 327.565 763.91 326.029 758.525 322.958C753.185 319.888 749.001 315.615 745.975 310.141C742.993 304.622 741.502 298.169 741.502 290.781C741.502 283.393 742.993 276.94 745.975 271.421C749.001 265.902 753.185 261.607 758.525 258.537C763.91 255.421 770.163 253.863 777.284 253.863C784.45 253.863 790.703 255.421 796.043 258.537C801.428 261.607 805.612 265.902 808.594 271.421C811.62 276.94 813.133 283.393 813.133 290.781C813.133 298.124 811.62 304.555 808.594 310.074C805.612 315.593 801.428 319.888 796.043 322.958C790.703 326.029 784.45 327.565 777.284 327.565ZM777.284 311.61C782.091 311.61 785.963 309.785 788.9 306.135C791.837 302.441 793.306 297.323 793.306 290.781C793.306 284.194 791.837 279.054 788.9 275.36C785.963 271.666 782.091 269.819 777.284 269.819C772.522 269.819 768.672 271.666 765.735 275.36C762.798 279.054 761.329 284.194 761.329 290.781C761.329 297.323 762.798 302.441 765.735 306.135C768.672 309.785 772.522 311.61 777.284 311.61Z" fill="white"/>
<path d="M777.284 327.565C770.163 327.565 763.91 326.029 758.525 322.958C753.185 319.888 749.001 315.615 745.975 310.141C742.993 304.622 741.502 298.169 741.502 290.781C741.502 283.393 742.993 276.94 745.975 271.421C749.001 265.902 753.185 261.607 758.525 258.537C763.91 255.421 770.163 253.863 777.284 253.863C784.45 253.863 790.703 255.421 796.043 258.537C801.428 261.607 805.612 265.902 808.594 271.421C811.62 276.94 813.133 283.393 813.133 290.781C813.133 298.124 811.62 304.555 808.594 310.074C805.612 315.593 801.428 319.888 796.043 322.958C790.703 326.029 784.45 327.565 777.284 327.565ZM777.284 311.61C782.091 311.61 785.963 309.785 788.9 306.135C791.837 302.441 793.306 297.323 793.306 290.781C793.306 284.194 791.837 279.054 788.9 275.36C785.963 271.666 782.091 269.819 777.284 269.819C772.522 269.819 768.672 271.666 765.735 275.36C762.798 279.054 761.329 284.194 761.329 290.781C761.329 297.323 762.798 302.441 765.735 306.135C768.672 309.785 772.522 311.61 777.284 311.61Z" fill="url(#paint5_linear_1447_10)"/>
<path d="M843.709 286.775V325.963H824.015V255.466H843.375V266.548C845.778 262.542 848.782 259.449 852.387 257.268C855.992 255.087 860.331 253.997 865.405 253.997C872.882 253.997 878.868 256.422 883.363 261.274C887.858 266.08 890.105 272.934 890.105 281.835V325.963H870.479V285.44C870.479 280.723 869.344 277.14 867.074 274.692C864.804 272.2 861.622 270.954 857.527 270.954C853.477 270.954 850.162 272.222 847.581 274.759C844.999 277.296 843.709 281.301 843.709 286.775Z" fill="white"/>
<path d="M843.709 286.775V325.963H824.015V255.466H843.375V266.548C845.778 262.542 848.782 259.449 852.387 257.268C855.992 255.087 860.331 253.997 865.405 253.997C872.882 253.997 878.868 256.422 883.363 261.274C887.858 266.08 890.105 272.934 890.105 281.835V325.963H870.479V285.44C870.479 280.723 869.344 277.14 867.074 274.692C864.804 272.2 861.622 270.954 857.527 270.954C853.477 270.954 850.162 272.222 847.581 274.759C844.999 277.296 843.709 281.301 843.709 286.775Z" fill="url(#paint6_linear_1447_10)"/>
<defs>
<linearGradient id="paint0_linear_1447_10" x1="340.386" y1="17.5664" x2="-57.7623" y2="213.589" gradientUnits="userSpaceOnUse">
<stop stop-color="#E19D65"/>
<stop offset="0.331783" stop-color="#B06AB3"/>
<stop offset="1" stop-color="#4568DC"/>
</linearGradient>
<linearGradient id="paint1_linear_1447_10" x1="972.233" y1="276.569" x2="420.261" y2="322.756" gradientUnits="userSpaceOnUse">
<stop stop-color="#E19D65"/>
<stop offset="0.331783" stop-color="#B06AB3"/>
<stop offset="1" stop-color="#4568DC"/>
</linearGradient>
<linearGradient id="paint2_linear_1447_10" x1="972.233" y1="276.569" x2="420.261" y2="322.756" gradientUnits="userSpaceOnUse">
<stop stop-color="#E19D65"/>
<stop offset="0.331783" stop-color="#B06AB3"/>
<stop offset="1" stop-color="#4568DC"/>
</linearGradient>
<linearGradient id="paint3_linear_1447_10" x1="972.233" y1="276.569" x2="420.261" y2="322.756" gradientUnits="userSpaceOnUse">
<stop stop-color="#E19D65"/>
<stop offset="0.331783" stop-color="#B06AB3"/>
<stop offset="1" stop-color="#4568DC"/>
</linearGradient>
<linearGradient id="paint4_linear_1447_10" x1="972.233" y1="276.569" x2="420.261" y2="322.756" gradientUnits="userSpaceOnUse">
<stop stop-color="#E19D65"/>
<stop offset="0.331783" stop-color="#B06AB3"/>
<stop offset="1" stop-color="#4568DC"/>
</linearGradient>
<linearGradient id="paint5_linear_1447_10" x1="972.233" y1="276.569" x2="420.261" y2="322.756" gradientUnits="userSpaceOnUse">
<stop stop-color="#E19D65"/>
<stop offset="0.331783" stop-color="#B06AB3"/>
<stop offset="1" stop-color="#4568DC"/>
</linearGradient>
<linearGradient id="paint6_linear_1447_10" x1="972.233" y1="276.569" x2="420.261" y2="322.756" gradientUnits="userSpaceOnUse">
<stop stop-color="#E19D65"/>
<stop offset="0.331783" stop-color="#B06AB3"/>
<stop offset="1" stop-color="#4568DC"/>
</linearGradient>
</defs>
</svg>
