<?xml version="1.0" encoding="utf-8"?>
<!-- Generator: Adobe Illustrator 23.0.5, SVG Export Plug-In . SVG Version: 6.00 Build 0)  -->
<svg version="1.1" id="Layer_1" xmlns="http://www.w3.org/2000/svg" xmlns:xlink="http://www.w3.org/1999/xlink" x="0px" y="0px"
	 width="37px" height="37px" viewBox="0 0 37 37" style="enable-background:new 0 0 37 37;" xml:space="preserve">
<style type="text/css">
	.st0{fill:#182E22;}
	.st1{fill:#171717;}
	.st2{fill:#71BB72;}
</style>
<g>
	<circle class="st0" cx="18.5" cy="18.5" r="17.5"/>
	<path class="st1" d="M18.5,37C8.3,37,0,28.7,0,18.5S8.3,0,18.5,0S37,8.3,37,18.5S28.7,37,18.5,37z M18.5,2C9.4,2,2,9.4,2,18.5
		C2,27.6,9.4,35,18.5,35C27.6,35,35,27.6,35,18.5C35,9.4,27.6,2,18.5,2z"/>
</g>
<polygon class="st2" points="15.4,25.4 9.3,19.6 10.7,18.2 15.4,22.6 26.3,12.3 27.7,13.7 "/>
</svg>
