<?xml version="1.0" encoding="utf-8"?>
<!-- Generator: Adobe Illustrator 23.0.5, SVG Export Plug-In . SVG Version: 6.00 Build 0)  -->
<svg version="1.1" id="Layer_1" xmlns="http://www.w3.org/2000/svg" xmlns:xlink="http://www.w3.org/1999/xlink" x="0px" y="0px"
	 viewBox="0 0 578.5 285.8" style="enable-background:new 0 0 578.5 285.8;" xml:space="preserve">
<style type="text/css">
	.st0{fill-rule:evenodd;clip-rule:evenodd;}
	.st1{fill:#F8F9F8;}
	.st2{fill-rule:evenodd;clip-rule:evenodd;fill:#F8F9F8;}
	.st3{fill-rule:evenodd;clip-rule:evenodd;fill:#FEFEFE;}
	.st4{fill:#FEFEFE;}
</style>
<path d="M49,277c-1.3,0.1-2.3,1.5-2.3,3.1c0,0.1,0,0.1,0,0.1c-3.7,0.3-6.8-8.3-10.5-17.6c-3.7-9.4-8.1-19.6-14.3-22.1
	c5.2-1.5,9.9-5.1,13.4-10.5c3.4-5.2,5.6-12.2,5.6-20.6c0-10.1-3.1-18.1-8.1-23.6s-12-8.5-19.9-8.5c-4.3,0-8.6,0-12.8,0
	c0,0-0.2,1.9,1.4,1.9s1.6,9,1.6,9.8c0,12,0,24,0,36c0,12.1,0,24.1,0,36.1c0,0.8-0.1,9.8-1.6,10s-1.5,2-1.5,2
	c5.4-0.6,10.7-1.1,16.1-1.6c0,0,0.2-1.9-1.4-1.7c-1.6,0.2-1.7-8.8-1.7-9.5c0-6.4,0-12.8,0-19.2c2.9,0.8,6.9,8.7,11,17.4
	c4.1,8.6,8.2,18.1,11.1,22.4c4.6,6.8,11.9,5.1,14.3,3c1.5-1.3,2-2.9,2-4.2C51.3,278,50.3,276.9,49,277L49,277z M13.9,236.3
	c-0.3,0-0.6,0.1-0.9,0.1c0-9,0-18,0-26.9c0-9,0-18,0-27c8.5,0.2,18.4,8.4,18.4,26.8C31.4,224.8,22.5,235.7,13.9,236.3L13.9,236.3z
	 M578.5,206.1c0-20.5-11.2-28.9-25-28.9c-4.3,0-8.7,0-13,0c0,0-0.2,1.9,1.4,1.9c1.6,0,1.7,9.1,1.7,9.6c0,11.8,0,23.6,0,35.3
	c0,11.8,0,23.6,0,35.4c0,0.6-0.1,9.6-1.7,9.5c-1.5-0.1-1.4,1.8-1.4,1.8c6.9,0.5,13.8,1.1,20.7,1.6c10.4,0.8,17.3-11,17.3-26.3
	c0-5.2-0.1-13.5-0.1-21.3C578.5,216.9,578.5,209.6,578.5,206.1L578.5,206.1z M555.8,266.9c-0.8-0.1-1.5-0.2-2.3-0.4
	c0-13.8,0-27.6,0-41.4c0-13.9,0-27.7,0-41.5c12.3,0.5,15.1,6.6,15.1,22.3c0,2.9,0,10.3,0,18.3s0.1,16.6,0.1,21.9
	C568.7,256.5,563.8,267.6,555.8,266.9L555.8,266.9z M79.9,232.3c0,0-4.5-1.2-4.5,4c0,3.8-1.5,18.8-9.1,19.6
	c-1.7,0.2-3.5,0.3-5.3,0.4c0-6.8,0-13.6,0-20.4c1-0.1,7.6-0.2,7.6,1.7c0,1.8,1.5,1.5,1.5,1.5c0-4,0-7.9,0-11.9c0,0-1.5-0.1-1.5,1.6
	c0,1.9-6.6,2.5-7.6,2.5c0-7.2,0-14.4,0-21.6s0-14.4,0-21.6c1.9-0.1,3.7-0.1,5.6-0.1c9.5,0.1-0.8,18.6,5.2,25.2
	c1.5,1.7,3.5,1.5,4.9,0.9c1.7-0.8,2.8-2.6,2.8-4.2c0-1.5-1.1-2.8-2.3-2.8c-1.2,0.1-2.4,1.4-2.4,2.9c0,0.1,0,0.1,0,0.2
	c-0.4-0.2-0.6-1-0.6-1.9c0.3-5.4,4.9-19.2,4.9-25c-10.4,0.1-20.7,0.1-31.1,0.2c0,0-0.2,1.9,1.4,1.8c1.6,0,1.7,8.6,1.7,9.4
	c0,9.2,0,18.5,0,27.8c0,9.2,0,18.5,0,27.7c0,0.7-0.1,9.4-1.7,9.5c-1.5,0.1-1.4,1.9-1.4,1.9c10.6-0.8,21.2-1.6,31.8-2.5
	c-1.7-8.4-1.7-15.2-1.4-19.8C78.9,234.9,79.9,232.3,79.9,232.3L79.9,232.3z M126.7,254.8c-1.7,0.1-3-8.5-3.1-8.6
	c-0.2-1.9-0.6-3.8-0.8-5.7c6.5-2.4,5-12.7-1.2-12.5c0,0,2.4,3.2,0.1,5.2c-1-6.5-2.1-13-3-19.6c-1-6.5-2-13.1-3-19.7
	c0-0.2-1.1-8.8,0.5-8.8c1.5,0,1.1-1.7,1.1-1.7c-5.5,0-10.9,0.1-16.4,0.1c0,0-0.5,1.7,1,1.7c1.6-0.1,0.1,8.5,0,8.9
	c-1.7,8.9-3.5,17.8-5.2,26.8c-1.6,9-3.4,17.9-5.1,26.9c-0.1,0.5-1.9,9.1-3.5,9.2c-1.5,0.1-1.6,1.9-1.6,1.9c4.2-0.3,8.3-0.6,12.6-0.8
	c0,0,0.5-1.7-1.1-1.6c-1.4,0.1-0.3-6.9,0-8.6c0.7-3.9,3.9-12.2,14.9-8.3c0.3,2.4,0.7,4.7,1.1,7.1c0.1,0.5,1.2,8.7-0.5,8.8
	c-1.5,0.1-1,1.8-1,1.8c5.3-0.3,10.6-0.6,15.9-0.9C128.2,256.3,128.1,254.7,126.7,254.8L126.7,254.8z M99.9,236.4
	c1.1-6,2.3-11.9,3.4-17.8s2.3-11.8,3.4-17.7c0.8,5.6,1.6,11.1,2.4,16.6s1.7,11,2.6,16.5C108.5,233.5,104.8,233.3,99.9,236.4
	L99.9,236.4z M156,233.6c5.1-0.1,5.2,15.9-3.9,16.3c-3.9,0.1-6.6-6.5-6.6-11.8c0-6.3,0-12.5,0-18.7c0-6.2,0-12.4,0-18.7
	c0-5.4,2.8-13.3,7.3-13.3c8.6-0.1-0.8,17.5,5.2,23.7c1.6,1.7,3.5,1.5,5,0.9c1.5-0.7,2.7-2.3,2.7-3.9c0-1.5-1-2.6-2.3-2.6
	s-2.3,1.2-2.3,2.7c0,0.1,0,0.2,0,0.2c-0.5-0.2-0.8-0.9-0.7-1.8c0.3-5,5.1-18,5.1-23.4c-4.5,0-8.9-0.2-13.3,0
	c-8.9,0.4-16.5,7.7-16.5,17.6c0,6.3,0,12.5,0,18.8c0,6.3,0,12.5,0,18.8c0,9.7,7.3,17.1,16.3,16.7c9.3-0.4,14.7-7.4,14.7-17
	C166.6,226.6,156,228.7,156,233.6L156,233.6z M210.7,205c-1.4,0-2.4,1.2-2.4,2.6c0,0.1,0,0.1,0,0.2c-0.4-0.2-0.6-0.8-0.6-1.7
	c0.3-4.9,4.8-17.6,4.8-23c-13.1,0.1-26.3,0.1-39.4,0.1c0,5.5,4.6,18.3,5,23.2c0.1,0.9-0.2,1.5-0.7,1.8c0.1-0.1,0.1-0.1,0.1-0.2
	c0-1.5-1.1-2.6-2.4-2.6c-1.2,0-2.3,1.2-2.3,2.7c0,1.7,1.6,3.3,2.8,3.8c1.3,0.6,3.3,0.6,4.8-1.1c6-6.4-4.3-23.3,5.2-23.6
	c0.7-0.1,1.4-0.1,2.1-0.1c0,9.5,0,18.9,0,28.2c0,9.5,0,18.9,0,28.3c0,0.6-0.1,8.5-1.6,8.5c-1.6,0.1-1.4,1.7-1.4,1.7
	c5.3-0.2,10.7-0.3,16.1-0.4c0,0,0.2-1.6-1.4-1.6c-1.6,0.1-1.7-7.9-1.7-8.4c0-9.4,0-18.8,0-28.2s0-18.7,0-28.1c0.7,0,1.5,0,2.2,0
	c9.5,0.2-0.8,17.1,5.2,23.3c1.6,1.6,3.5,1.6,5,1c1.4-0.6,2.7-2.3,2.7-3.8C212.9,206.2,212,205,210.7,205L210.7,205z M278.4,251.1
	c-1.7,0-3-8.2-3.1-8.4c-0.2-1.8-0.6-3.6-0.8-5.4c6.5-2,5-11.9-1.2-11.9c0,0,2.4,3.2,0.1,5c-1-6.2-2.1-12.5-3-18.7
	c-1-6.2-2-12.5-2.9-18.7c-0.1-0.2-1.2-8.4,0.4-8.4c1.5,0.1,1.1-1.6,1.1-1.6c-5.5,0-10.9,0-16.3,0c0,0-0.6,1.6,1,1.6s0.1,7.9,0,8.3
	c-1.7,8.3-3.5,16.6-5.2,24.8c-1.7,8.3-3.4,16.6-5.1,24.9c-0.1,0.5-1.9,8.4-3.5,8.4c-1.5,0-1.7,1.6-1.7,1.6c4.2,0,8.3-0.1,12.6-0.1
	c0,0,0.5-1.6-1.1-1.6c-1.4,0.1-0.3-6.4,0-8c0.8-3.6,3.9-11.2,14.9-7.1c0.3,2.3,0.7,4.5,1.1,6.7c0.1,0.5,1.2,8.3-0.5,8.3
	c-1.5,0-1,1.6-1,1.6c5.3,0,10.6,0.1,15.9,0.1C279.9,252.7,279.8,251.1,278.4,251.1L278.4,251.1z M251.6,232.6
	c1.1-5.5,2.3-11,3.4-16.6c1.1-5.5,2.3-11,3.4-16.6c0.8,5.2,1.6,10.5,2.5,15.7c0.8,5.2,1.6,10.5,2.5,15.7
	C260.2,230.1,256.5,229.8,251.6,232.6L251.6,232.6z M307.5,183.1c-6.8,0-13.5,0-20.2,0c0,0-0.2,1.6,1.4,1.6c1.5,0,1.6,7.9,1.6,8.3
	c0,8.3,0,16.6,0,24.8c0,8.3,0,16.6,0,24.8c0,0.5-0.1,8.4-1.6,8.4c-1.6-0.1-1.4,1.6-1.4,1.6c6.7,0.1,13.5,0.2,20.2,0.3
	c9.2,0.1,16.5-7.3,16.5-16.7c0-6,0-12.1,0-18.1s0-12.1,0-18.1C324,190.6,316.7,183.1,307.5,183.1L307.5,183.1z M314.3,236.2
	c0,7.2-5.2,13-11.6,12.9c-0.9,0-1.7-0.1-2.5-0.4c0-10.3,0-20.5,0-30.8c0-10.3,0-20.5,0-30.8c0.8-0.2,1.6-0.3,2.5-0.3
	c6.4,0.1,11.6,6,11.6,13.1c0,6,0,12.1,0,18.1C314.3,224.1,314.3,230.2,314.3,236.2L314.3,236.2z M357.5,183.2c0,0-0.5,1.6,1,1.6
	c1.7,0,0.1,8.3,0,8.5c-1.6,7.3-3,14.7-4.5,22c-1.5,7.3-3,14.6-4.5,21.9c-1.2-7.4-2.4-14.7-3.5-22c-1.1-7.3-2.2-14.7-3.3-22
	c-0.1-0.5-1.4-8.5,0.3-8.5c1.5,0.1,1.1-1.6,1.1-1.6c-5.4,0-10.8,0-16.1,0c0,0,0.1,1.6,1.6,1.6c1.6,0,3,8.2,3.1,8.5
	c1.3,8.3,2.6,16.7,3.9,25.1c1.3,8.4,2.6,16.8,4,25.2c0.1,0.2,1.2,8.5-0.4,8.5c-1.5,0-1.1,1.6-1.1,1.6c5.5,0.2,10.9,0.3,16.4,0.5
	c0,0,0.5-1.6-1-1.7c-1.6,0-0.1-8.1,0-8.5c1.7-8.4,3.5-16.8,5.2-25.2s3.4-16.8,5.2-25.3c0.1-0.5,1.9-8.5,3.5-8.5s1.6-1.7,1.6-1.7
	C365.8,183.2,361.6,183.2,357.5,183.2L357.5,183.2z M408.5,254.4c-1.6-0.1-3-8.6-3-8.8c-0.2-1.9-0.6-3.8-0.8-5.7
	c6.5-1.9,5-12.3-1.2-12.5c0,0,2.5,3.4,0.1,5.2c-1-6.5-2-13-3-19.5s-2-13-2.9-19.4c-0.1-0.2-1.2-8.7,0.3-8.7c1.6,0,1.1-1.7,1.1-1.7
	c-5.5,0-10.9-0.1-16.3-0.1c0,0-0.5,1.7,1,1.7c1.7,0,0.1,8.2,0,8.6c-1.7,8.5-3.5,17-5.2,25.5s-3.4,16.9-5.1,25.4
	c-0.1,0.5-1.9,8.5-3.5,8.5c-1.5-0.1-1.7,1.6-1.7,1.6c4.2,0.2,8.3,0.3,12.6,0.5c0,0,0.5-1.7-1.1-1.7c-1.4,0-0.3-6.6,0-8.2
	c0.8-3.7,3.9-11.4,14.9-6.8c0.3,2.3,0.7,4.6,1.1,7c0.1,0.5,1.1,8.7-0.5,8.7c-1.5-0.1-1.1,1.6-1.1,1.6c5.3,0.2,10.6,0.5,16,0.7
	C410.1,256.2,409.9,254.5,408.5,254.4L408.5,254.4z M381.7,234.3c1.1-5.7,2.3-11.3,3.4-17c1.1-5.6,2.3-11.3,3.4-17
	c0.8,5.4,1.7,10.8,2.5,16.2c0.8,5.5,1.6,10.9,2.5,16.3C390.3,232,386.6,231.5,381.7,234.3L381.7,234.3z M453.3,256.7
	c-1.6-0.1-1.7-8.6-1.7-9.1c0-8.9,0-17.8,0-26.7s0-17.8,0-26.7c0-0.6,0.2-9,1.7-9s1.4-1.7,1.4-1.7c-5.4-0.1-10.8-0.1-16.1-0.1
	c0,0-0.2,1.7,1.4,1.7s1.6,8.2,1.6,9c0,4.8,0,9.7,0,14.5c0,4.8,0,9.6,0,14.5c-1.9-6.6-3.8-13.3-5.6-19.9c-1.9-6.6-3.8-13.2-5.6-19.8
	c-4.3,0-8.7-0.1-13-0.1c0,0-0.2,1.7,1.4,1.7c1.6,0.1,1.7,8.2,1.7,8.8c0,8.7,0,17.4,0,26.1s0,17.4,0,26.1c0,0.7-0.1,8.8-1.7,8.7
	c-1.5-0.1-1.4,1.6-1.4,1.6c4.2,0.2,8.3,0.4,12.6,0.6c0,0,0.1-1.7-1.4-1.7c-1.7-0.1-1.7-9.1-1.7-9.1c0-6.8,0-13.7,0-20.6
	c0-6.8,0-13.7,0-20.6c2.4,8.7,5,17.4,7.4,26.1c2.4,8.8,5,17.6,7.4,26.5c4.3,0.2,8.7,0.5,13.1,0.7
	C454.7,258.5,454.8,256.8,453.3,256.7L453.3,256.7z M482.9,237.4c5.1,0.2,5.2,17.5-3.9,17c-4-0.3-6.6-7.5-6.6-13.2
	c0-6.5,0-13.1,0-19.6s0-13.1,0-19.7c0-5.6,2.8-13.9,7.3-13.9c8.5,0.1-0.8,18.5,5.1,25.5c1.6,1.9,3.5,1.7,5,1.2
	c1.6-0.7,2.8-2.3,2.8-4.1c0-1.6-1-2.9-2.3-2.9s-2.3,1.3-2.3,2.8c0,0.1,0,0.2,0,0.2c-0.5-0.2-0.7-1-0.7-1.9c0.3-5.4,5-19.2,5-25.1
	c-4.5,0-8.8-0.2-13.2-0.1c-9,0.3-16.5,7.8-16.5,18.1c0,6.5,0,13,0,19.5s0,13,0,19.5c0,10.1,7.3,18.7,16.4,19.2
	c9.2,0.6,14.6-6.5,14.6-16.9C493.4,230.5,482.9,232.2,482.9,237.4L482.9,237.4z M532.6,235c0,0-4.5-1.7-4.5,3.8
	c0,3.9-1.5,19.4-9,19.2c-1.8-0.1-3.6-0.2-5.4-0.3c0-6.9,0-13.8,0-20.7c1,0.1,7.6,0.6,7.6,2.6c0,1.8,1.4,1.6,1.4,1.6
	c0-4.1,0-8.2,0-12.3c0,0-1.4-0.3-1.4,1.5c0,2-6.6,1.9-7.6,1.9c0-7.3,0-14.7,0-22c0-7.3,0-14.7,0-22c1.9,0,3.7,0,5.6,0.1
	c9.5,0.3-0.8,19,5.2,26.3c1.5,1.8,3.5,1.8,4.8,1.2c1.7-0.7,2.8-2.5,2.8-4.2c0-1.6-1.1-3-2.3-3c-1.3-0.1-2.4,1.3-2.4,2.9
	c0,0.1,0,0.1,0,0.2c-0.5-0.3-0.7-1-0.6-2c0.3-5.6,5-19.8,5-25.9c-10.4-0.1-20.7-0.1-31.1-0.1c0,0-0.2,1.8,1.4,1.8
	c1.5,0,1.6,8.6,1.6,9.4c0,9.2,0,18.5,0,27.7c0,9.2,0,18.4,0,27.7c0,0.7-0.1,9.3-1.6,9.2c-1.6-0.1-1.4,1.7-1.4,1.7
	c10.6,0.7,21.2,1.4,31.8,2.1c-1.7-9-1.7-16.1-1.4-21C531.7,237.7,532.6,235,532.6,235L532.6,235z"/>
<path class="st0" d="M367.6,78.7c-4.6,0-9,2.6-12,6c-1.2,1.2-2.4,2.5-3.7,3.7c-0.3,0.3-0.7,0.7-1.1,1v-42c0-34.4-32-47.4-61.5-47.4
	s-61.5,13-61.5,47.4v34.3l0,0v12.9c8.2,7.6,17.7,13.6,28.3,17.7c10.3,4.1,21.5,6.4,33.2,6.5c11.8-0.2,23-2.5,33.4-6.6
	c10.7-4.3,20.4-10.5,28.7-18.2c-6.9,9.7-23.9,18.2-28.1,19.8c-10.5,4.2-22,6.6-34,6.7c-11.9-0.1-23.4-2.5-33.9-6.6
	c-10.8-4.3-20.7-10.5-29.1-18.4l-0.3-0.2v-7.6c-1-1-2.1-2-3.1-3.1c-3-3.3-7.4-6-12-6c-6.1,0-11.1,5-11.1,11.1
	c0,11.8,30.6,31.9,40,36.6c14.9,7.4,31.7,11.5,49.5,11.5c17.7,0,34.5-4.1,49.5-11.5c9.4-4.6,40-24.7,40-36.6
	C378.7,83.7,373.7,78.7,367.6,78.7z M238.6,30.9c7.5-14.4,22.5-24.3,39.8-24.3c1.6,0,3.3,0.1,4.9,0.3
	C264.7,7.2,248.4,16.7,238.6,30.9z M289.2,130.5c-31.5,0-59.8-13.6-79.3-35.3c20.8,19.4,48.7,31.3,79.3,31.3
	c30.7,0,58.5-11.9,79.3-31.3C349,116.8,320.7,130.5,289.2,130.5z"/>
<path class="st1" d="M227.1,46.3c5.8,2.1,13.6,4.8,19.9,6.5c4.2,1.1,8.5,2.2,12.7,3c-0.1,0.2-0.2,0.7-0.3,0.9
	c-10.6-2.1-22.4-5.9-32.5-9.5L227.1,46.3z"/>
<path class="st1" d="M227.2,58.3c8.9,3.5,18.1,6.4,27.5,8.4c-0.1,0.3-0.2,0.6-0.2,0.9c-4.5-0.9-8.7-2.1-13-3.4
	c-4.9-1.5-9.7-3.2-14.3-5.1V58.3z"/>
<path class="st2" d="M243.7,64.4c2.4-8.6,3.6-12.8,3.6-12.8c0.3-1-0.3-1.7-1.9-2.1c0,0-2.9-0.7-8.7-2.1c-1.5-0.1-2.4,0.6-2.6,2.2
	c-1,3.2-2.1,7-3,11.5c-0.2,1.6,0.6,3.2,2.2,3.5c4.9,1.4,7.2,1.8,7.2,1.8C242,66.5,243.2,65.6,243.7,64.4L243.7,64.4z M244.4,52.2
	c-2,7-2.9,10.6-2.9,10.6c-0.4,0.8-1,1.2-1.9,1.2c0,0-1.5-0.5-4.7-1.2c-1.1-0.4-1.9-0.8-1.6-2.4c1.4-5.2,2.1-7.9,2.1-7.9
	c1.5-5.5,2.2-1.5,8.6-1.2C244.6,51.3,244.7,51.5,244.4,52.2L244.4,52.2z"/>
<path d="M244,64.5l3.7-13c0.2-0.6,0.1-1.2-0.3-1.6c-0.4-0.4-1-0.7-1.9-0.9l-8.7-2.1h-0.1c-0.8-0.1-1.5,0.2-2.1,0.7
	c-0.5,0.4-0.8,1.1-1,1.9c-0.5,1.6-1,3.4-1.5,5.3c-0.5,1.9-1,4-1.4,6.3v0.1c-0.1,0.8,0.1,1.7,0.5,2.5c0.4,0.7,1.1,1.2,1.9,1.5l0,0
	c4.9,1.3,7.2,1.7,7.2,1.8h0.1c0.8,0.1,1.5-0.1,2.1-0.5C243.3,65.8,243.8,65.2,244,64.5L244,64.5z M246.9,51.3l-3.7,13
	c-0.2,0.6-0.6,1.1-1.1,1.4c-0.4,0.3-1,0.5-1.6,0.3c-0.1,0-2.4-0.5-7.2-1.7c-0.6-0.2-1.1-0.6-1.4-1.1c-0.4-0.6-0.5-1.3-0.5-2
	c0.5-2.2,1-4.3,1.5-6.2s1-3.7,1.5-5.2v-0.1l0,0c0.1-0.7,0.5-1.5,0.8-1.7c0.8-0.7,2.3-0.1,3.3,0.2l6.7,1.6c0.7,0.2,1.2,0.4,1.5,0.7
	C247,50.5,247,50.9,246.9,51.3L246.9,51.3z M242,63c0,0,0.7-3.3,2.6-9.7c0.1-0.4,0.2-0.8,0.3-1.2c0.1-0.3,0.1-0.5,0-0.7
	c-0.1-0.3-0.3-0.4-0.6-0.5l-0.1-0.1c-1.2-0.1-2.5-0.2-3.8-0.6c-0.9-0.2-1.7-0.5-2.6-0.9c-0.7-0.3-1.2-0.3-1.5,0
	c-0.2,0.2-0.3,0.4-0.5,0.8c-0.2,0.6-0.5,1.3-0.7,2.1c-0.6,2.4-1.7,5.6-2.1,7.9c-0.1,0.9,0,1.5,0.3,1.9c0.4,0.5,0.9,0.7,1.5,0.9h0.1
	c1,0.3,2.9,0.8,4.3,1c0.8,0.2,1.3,0.2,1.7-0.1C241.4,63.8,241.7,63.5,242,63L242,63L242,63z"/>
<path class="st0" d="M228.8,48c-0.1,7.3-0.5,10.7-0.5,10.7c-0.3-0.1-0.8-0.3-1.3-0.6c-0.3-0.2,0.1-9.4,0.3-10.4
	C227.3,47.3,227.9,47.6,228.8,48L228.8,48z"/>
<path class="st1" d="M328.7,69.7c6.2,1.4,16.5,2.5,22.4,2.2v0.9c-2.1,0.1-4.8,0.1-7.8-0.2c-3.5-0.3-11-1-14.7-2.1L328.7,69.7z
	 M325.4,82.7c5.4,1.3,22,2.6,25.5,2v1c-6.6,0.3-18-0.5-25.8-2.1L325.4,82.7z"/>
<path class="st0" d="M349.4,72.8c-1.5,5.3-1.7,9.4,0.1,12.1c0.6,0,1.3-0.1,1.5-0.1c0-0.1,0.1-3.7,0.4-10.8c0.1-0.7,0.1-1.1-0.5-1.2
	C350.9,72.8,350.4,72.8,349.4,72.8L349.4,72.8z"/>
<path class="st3" d="M234.6,60.9c1.1-3.2,1.9-6.2,2.4-9.1C235.6,54.7,234.8,57.7,234.6,60.9L234.6,60.9z"/>
<polygon class="st3" points="253.8,39.7 263,30.6 267.4,34.9 258.2,44.1 "/>
<path d="M253.3,39.1l9.7-9.6l5.5,5.5l-10.3,10.2l-5.4-5.5L253.3,39.1z M263,31.6l-8.1,8.1l3.3,3.3l8.1-8.1L263,31.6z"/>
<polygon class="st3" points="256,37.5 261.4,32.1 265.7,36.5 260.4,41.9 "/>
<path d="M255.5,37l5.9-5.9l5.4,5.5l-6.5,6.4l-5.4-5.5L255.5,37z M261.4,33.3l-4.3,4.2l3.3,3.3l4.3-4.3L261.4,33.3z"/>
<path class="st3" d="M255.6,32.3c1.7-1.7,4.3-1.9,6.1-0.5l-6.6,6.5C253.7,36.5,253.9,33.9,255.6,32.3L255.6,32.3z"/>
<path d="M255,31.7c1-1,2.2-1.5,3.5-1.6c1.2-0.1,2.5,0.2,3.7,1.1l0.7,0.5l-7.9,7.8l-0.5-0.7c-0.8-1.1-1.1-2.4-1-3.7
	C253.6,33.9,254.1,32.7,255,31.7L255,31.7z M258.6,31.7c-0.9,0.1-1.8,0.5-2.5,1.1c-0.7,0.7-1.1,1.6-1.1,2.5
	c-0.1,0.6,0.1,1.3,0.3,1.9l5.2-5.2C259.9,31.7,259.3,31.6,258.6,31.7L258.6,31.7z"/>
<rect x="247.4" y="71.9" transform="matrix(0.9566 -0.2913 0.2913 0.9566 -11.9742 76.371)" class="st3" width="6.2" height="13"/>
<path d="M248.7,85.7l-4-13.1l7.4-2.3l4.2,13.9l-7.4,2.3L248.7,85.7z M246.6,73.6l3.3,10.9l4.5-1.4L251,72.3L246.6,73.6z"/>
<polygon class="st3" points="248.5,82.6 246.3,75.3 252.2,73.5 254.4,80.8 "/>
<path d="M247.8,82.8l-2.4-8l7.4-2.3l2.6,8.7l-7.4,2.3L247.8,82.8z M247.3,75.8l1.7,5.8l4.5-1.4l-1.7-5.8L247.3,75.8z"/>
<path class="st3" d="M243.7,80.5c-0.7-2.3,0.4-4.6,2.4-5.6l2.7,9C246.6,84.1,244.4,82.7,243.7,80.5L243.7,80.5z"/>
<path d="M242.9,80.7c-0.4-1.3-0.3-2.6,0.2-3.8c0.6-1.1,1.5-2.1,2.6-2.7l0.8-0.4l3.2,10.6l-0.9,0.1c-1.3,0.2-2.6-0.1-3.7-0.8
	C244.2,83,243.3,82,242.9,80.7L242.9,80.7z M244.6,77.5c-0.3,0.8-0.4,1.8-0.1,2.8c0.3,1,0.8,1.7,1.6,2.2c0.5,0.3,1.1,0.5,1.7,0.6
	l-2.1-7C245.2,76.4,244.8,76.9,244.6,77.5L244.6,77.5z"/>
<polygon class="st3" points="272.7,107.4 285.3,110.5 286.8,104.4 274.2,101.3 "/>
<path d="M273.7,106.8l11.1,2.7l1.1-4.5l-11.1-2.7L273.7,106.8z M285.1,111.2l-13.3-3.3l1.8-7.5l14.1,3.4l-1.9,7.5L285.1,111.2z"/>
<polygon class="st3" points="275.8,108.1 283.1,109.9 284.6,103.9 277.2,102.1 "/>
<path d="M276.7,107.5l5.9,1.5l1.1-4.6l-5.9-1.4L276.7,107.5z M282.9,110.6l-8.1-2l1.9-7.5l8.8,2.1l-1.9,7.6L282.9,110.6z"/>
<path class="st3" d="M278.1,112.8c2.3,0.6,4.6-0.6,5.5-2.8l-9.1-2.2C274.3,110.1,275.8,112.2,278.1,112.8L278.1,112.8z"/>
<path d="M278.3,112c1,0.2,1.9,0.1,2.8-0.3c0.5-0.3,1-0.7,1.4-1.2l-7.2-1.7c0.1,0.6,0.3,1.2,0.7,1.7
	C276.5,111.2,277.3,111.8,278.3,112L278.3,112z M281.7,113.1c-1.1,0.6-2.5,0.7-3.8,0.4c-1.4-0.3-2.4-1.1-3.2-2.1
	c-0.7-1.1-1.1-2.4-1-3.7l0.1-0.8l10.8,2.6l-0.3,0.8C283.8,111.5,282.8,112.5,281.7,113.1L281.7,113.1z"/>
<polygon class="st3" points="333.1,58.2 328.7,46 322.9,48.1 327.3,60.3 "/>
<path d="M332.2,57.7L328.3,47l-4.4,1.6l3.9,10.7L332.2,57.7z M329.5,45.8l4.7,12.9l-7.3,2.6L322,47.7l7.3-2.6L329.5,45.8z"/>
<polygon class="st3" points="332.1,55.3 329.5,48.1 323.7,50.3 326.3,57.4 "/>
<path d="M331.1,54.8l-2-5.7l-4.4,1.6l2,5.7L331.1,54.8z M330.3,47.9l2.8,7.8l-7.3,2.6l-3.1-8.6l7.3-2.6L330.3,47.9z"/>
<path class="st3" d="M334.7,50.7c-0.8-2.2-3.1-3.4-5.4-3l3.2,8.8C334.5,55.4,335.5,53,334.7,50.7L334.7,50.7z"/>
<path d="M334,51c-0.3-0.9-1-1.6-1.7-2.1l0,0c-0.6-0.3-1.2-0.5-1.8-0.5l2.5,6.9c0.5-0.5,0.8-1,1.1-1.5C334.3,52.9,334.3,51.9,334,51
	L334,51z M333,47.6c1.1,0.6,2,1.6,2.5,2.9c0.5,1.2,0.4,2.6-0.1,3.8s-1.3,2.3-2.5,2.9l-0.8,0.5l-3.8-10.5l0.8-0.2
	C330.5,46.7,331.8,47,333,47.6L333,47.6z"/>
<polygon class="st3" points="318,99.9 326.5,90.1 321.9,86 313.4,95.7 "/>
<path d="M317.9,98.7l7.6-8.6l-3.5-3l-7.6,8.6L317.9,98.7z M327.2,90.6l-9.1,10.3l-5.8-5.1l9.6-10.9l5.8,5.1L327.2,90.6z"/>
<polygon class="st3" points="320.1,97.5 325.1,91.8 320.4,87.7 315.4,93.4 "/>
<path d="M320,96.4l4-4.5l-3.5-3.1l-3.9,4.5L320,96.4z M325.6,92.3l-5.5,6.3l-5.8-5.1l6-6.8l5.8,5.1L325.6,92.3z"/>
<path class="st3" d="M325.3,97.6c1.5-1.7,1.5-4.4,0.1-6.1l-6.1,7C321.1,99.7,323.7,99.4,325.3,97.6L325.3,97.6z"/>
<path d="M324.7,97.1c0.7-0.7,1-1.6,1-2.5c0-0.6-0.1-1.2-0.4-1.8l-4.8,5.5c0.6,0.2,1.2,0.3,1.9,0.2C323.2,98.3,324.1,97.8,324.7,97.1
	L324.7,97.1z M327.2,94.6c0,1.3-0.5,2.5-1.4,3.5s-2.1,1.6-3.4,1.8l0,0c-1.2,0.2-2.6-0.1-3.7-0.8l-0.7-0.5l7.3-8.3l0.6,0.7
	C326.8,92,327.2,93.3,327.2,94.6L327.2,94.6z"/>
<polygon class="st3" points="310.9,27.4 298.7,23.1 296.7,28.9 308.8,33.2 "/>
<path d="M311.2,26.7l-13-4.6l-2.6,7.3l13.7,4.8l2.5-7.3L311.2,26.7z M299.2,24l10.8,3.8l-1.6,4.4l-10.8-3.8L299.2,24z"/>
<polygon class="st3" points="308,26.3 300.8,23.8 298.8,29.7 305.9,32.2 "/>
<path d="M308.3,25.7l-7.9-2.8l-2.6,7.3l8.6,3l2.6-7.3L308.3,25.7z M301.4,24.8l5.7,2l-1.6,4.4l-5.7-2L301.4,24.8z"/>
<path class="st3" d="M306.1,21.5c-2.2-0.8-4.6,0.2-5.7,2.2l8.8,3.1C309.6,24.5,308.4,22.3,306.1,21.5L306.1,21.5z"/>
<path d="M306.4,20.7c-1.3-0.5-2.6-0.4-3.8,0.1c-1.2,0.5-2.2,1.3-2.8,2.5l-0.5,0.8l10.5,3.7l0.2-0.9c0.3-1.4,0-2.6-0.6-3.8
	C308.7,22.1,307.7,21.2,306.4,20.7L306.4,20.7z M303.2,22.2c0.8-0.3,1.8-0.3,2.8,0c0.9,0.3,1.6,1,2.1,1.7c0.3,0.5,0.5,1.1,0.5,1.7
	l-6.9-2.4C302,22.8,302.6,22.4,303.2,22.2L303.2,22.2z"/>
<path class="st3" d="M294.5,27.9c21.1,2.9,35.8,22.3,32.9,43.3c-2.9,21.1-22.3,35.8-43.3,32.9c-21.1-2.9-35.8-22.3-32.9-43.3
	C254.1,39.7,273.5,25,294.5,27.9L294.5,27.9z"/>
<path class="st0" d="M294,31.8c18.9,2.6,32.1,20,29.5,38.9s-20,32.2-38.9,29.6s-32.1-20.1-29.5-39S275.1,29.2,294,31.8L294,31.8z"/>
<path d="M294.1,31c9.6,1.4,17.9,6.5,23.3,13.6c5.5,7.2,8.2,16.5,6.9,26.2c-1.4,9.6-6.5,17.9-13.6,23.3c-7.2,5.5-16.5,8.2-26.2,6.9
	c-9.6-1.3-17.9-6.4-23.3-13.6c-5.5-7.2-8.2-16.5-6.9-26.1c1.4-9.7,6.4-17.9,13.6-23.4C275.2,32.4,284.5,29.7,294.1,31L294.1,31z
	 M316.2,45.6c-5.2-6.9-13.1-11.8-22.3-13.1c-9.2-1.2-18.1,1.4-25,6.6s-11.8,13.1-13.1,22.3s1.4,18.1,6.6,25s13.1,11.8,22.3,13.1
	c9.2,1.3,18.1-1.4,25-6.5c6.9-5.2,11.8-13.1,13.1-22.4C324.1,61.4,321.5,52.5,316.2,45.6L316.2,45.6z"/>
<path d="M294.6,27.1c10.8,1.5,19.9,7.2,25.9,15.2c6.1,7.9,9.1,18.3,7.7,29c-1.5,10.8-7.2,19.9-15.2,26c-8,6-18.3,9-28.9,7.6H284
	c-10.8-1.5-19.9-7.2-26-15.2c-6-8-9-18.3-7.6-28.9v-0.2c1.5-10.7,7.2-19.8,15.2-25.9C273.6,28.7,283.9,25.7,294.6,27.1L294.6,27.1z
	 M319.4,43.2c-5.9-7.7-14.7-13.1-25-14.6c-10.3-1.4-20.2,1.5-27.9,7.3c-7.7,5.9-13.2,14.7-14.6,25l0,0c-1.4,10.3,1.5,20.2,7.3,27.9
	c5.9,7.7,14.6,13.2,24.9,14.6h0.1c10.3,1.4,20.2-1.5,27.9-7.3c7.7-5.9,13.2-14.6,14.6-24.9C328.1,60.8,325.2,50.9,319.4,43.2
	L319.4,43.2z"/>
<path class="st4" d="M320.4,66.3c0.1-3.6-3.6-7-9.6-9.4c-1.1-0.5-2.3-0.9-3.5-1.2c0.3-1.3,0.6-2.6,0.7-3.8c0.8-6.3-0.2-11.2-3.3-13
	l-0.4-0.2l0,0c-3.2-1.5-7.7,0.1-12.5,4c-0.8,0.7-1.7,1.4-2.6,2.3c-0.9-0.8-1.7-1.6-2.6-2.3c-4.8-3.9-9.4-5.5-12.5-4H274l-0.3,0.2
	c-3.1,1.8-4.2,6.6-3.3,13c0.2,1.1,0.4,2.3,0.7,3.5c-1.1,0.3-2.1,0.7-3,1c-6.2,2.3-10,5.7-10.1,9.4c0,3.6,3.8,7.1,9.9,9.5
	c1,0.4,2.1,0.8,3.3,1.1c-0.3,1.3-0.6,2.5-0.7,3.7c-0.9,6.3,0.2,11.2,3.3,13c3.2,1.8,8.1,0.2,13.2-4.1c0.8-0.6,1.5-1.2,2.3-2
	c0.7,0.7,1.5,1.4,2.3,2c5.1,4.2,10,5.9,13.2,4.1c3.1-1.7,4.2-6.6,3.3-13c-0.3-2.2-0.8-4.3-1.4-6.5l0,0c-0.6-2-2-5.5-2.8-7.6
	c-0.5,1-1.2,2.6-1.7,3.8c0.4,1.1,1.2,3.5,1.6,4.6c-1.5,0.4-3.2,0.7-4.8,0.9c0.6-1,1.2-1.9,1.7-2.9c0.8-1.5,1.6-2.9,2.3-4.3
	c0.3-0.6,0.6-1.2,0.9-2l0,0c1.1-2.6,2.1-5.1,2.8-7.5c1.2,0.3,2.3,0.7,3.2,1.1c4.8,2,7.7,4.3,7.7,6.5c0,2.3-3,4.6-7.8,6.5
	c-0.6,0.2-2.4,0.8-3,1c0.3,1,0.5,2,0.8,2.9c0.7-0.2,2.6-0.9,3.3-1.1C316.7,73.2,320.4,69.9,320.4,66.3L320.4,66.3z M304.3,55
	L304.3,55c-0.6,2.6-1.4,5.1-2.4,7.6c-0.5-1-1-1.9-1.5-2.8l0,0c-0.6-1-1.1-1.9-1.7-2.8c1.2,0.2,3.6,0.6,4.8,1
	C303.9,56.9,304.2,55.9,304.3,55c-2.1-0.5-5.5-1.1-7.8-1.4c-1.6-2.4-3.4-4.5-5.2-6.4c0.8-0.7,1.6-1.5,2.4-2.1c4-3.2,7.6-4.6,9.5-3.5
	l0,0c2,1.1,2.5,4.8,1.9,9.9C304.8,52.6,304.6,53.8,304.3,55L304.3,55z M304.4,77.4c0.2,1.1,0.5,2.2,0.6,3.2c0.7,5.1,0.2,8.8-1.7,10
	c-2,1.1-5.6-0.4-9.8-3.8c-2.4-2-5-4.7-7.5-7.9c1,0.1,2.1,0.1,3.2,0.1l0,0c1.2,0,2.3-0.1,3.5-0.1c-0.8,1.1-2.5,3-3.3,3.9
	c0.7,0.8,1.5,1.6,2.3,2.3c1.5-1.6,3.6-4.5,5-6.4C299.3,78.4,301.9,78,304.4,77.4L304.4,77.4z M281.9,78.6c1.7,2.4,3.4,4.5,5.2,6.4
	c-0.7,0.7-1.4,1.3-2.1,1.9c-4.1,3.4-7.8,4.9-9.7,3.8c-2-1.1-2.5-4.8-1.8-10c0.2-1.1,0.4-2.2,0.7-3.3
	C276.5,77.9,279.2,78.3,281.9,78.6L281.9,78.6z M274.9,74.4c0.4-1.5,1-3,1.6-4.6l0,0c0.2-0.5,0.3-0.9,0.6-1.4v-0.1
	c1-2.3,2.1-4.7,3.5-7.1v-0.1c1-1.7,2-3.3,3-4.8c1.8-0.2,3.7-0.2,5.6-0.2l0,0c1.9,0.1,3.8,0.1,5.6,0.3c1,1.5,2,3.1,2.9,4.7l0,0
	c1,1.7,1.8,3.3,2.6,5c-0.7,1.6-1.6,3.2-2.5,4.8c-1,1.7-2,3.3-3,4.8c-1.9,0.2-3.8,0.2-5.8,0.2l0,0C283.9,76,279,75.4,274.9,74.4
	L274.9,74.4z M282,53.5L282,53.5c-2.8,0.3-5.5,0.7-7.9,1.3c-0.2-1.1-0.5-2.2-0.6-3.2c-0.7-5.1-0.1-8.8,1.8-9.9l0,0
	c2-1.1,5.5,0.3,9.5,3.5c0.8,0.6,1.6,1.4,2.4,2.1C285.7,48.8,283.4,51.7,282,53.5c1.6-0.1,1.3,0.1,4.1-0.2c0.7-1,2.4-3,3.2-3.9
	c1.1,1.2,2.2,2.5,3.3,3.9c-1.1-0.1-2.1-0.1-3.3-0.1l0,0C286.9,53.2,284.5,53.3,282,53.5L282,53.5z M279.8,56.8
	c-0.6,0.9-1.1,1.8-1.6,2.7l-0.1,0.2c-0.6,0.9-1.1,1.9-1.5,2.8c-0.7-1.7-1.2-3.3-1.7-4.8C276.4,57.3,278,57,279.8,56.8L279.8,56.8z
	 M271.9,58.4c0.7,2.5,1.7,5.1,2.9,7.7c-1.1,2.5-2.1,5.1-2.8,7.4c-1.1-0.3-2-0.7-2.9-1c-5-2-8-4.4-8-6.7c0-2.3,3.1-4.7,8.1-6.5
	C270,59,270.9,58.7,271.9,58.4L271.9,58.4z M283.5,75.7c-0.7-1.1-2.3-3.5-2.9-4.8c-0.6-1.1-2-3.4-2.6-4.5c-0.7,1.4-0.8,1.6-1.5,3.4
	c0.7,1.7,2.1,4.2,2.8,5.4C280.7,75.5,282.3,75.6,283.5,75.7L283.5,75.7z"/>
<path class="st3" d="M289.2,71c2.7,0,4.9-2.2,4.9-4.9c0-2.7-2.2-4.9-4.9-4.9s-4.9,2.2-4.9,4.9C284.3,68.8,286.5,71,289.2,71
	L289.2,71z"/>
<path d="M289.2,70.6c1.2,0,2.3-0.5,3.1-1.3c0.8-0.8,1.4-1.9,1.4-3.2c0-1.2-0.5-2.3-1.4-3.1c-0.8-0.8-1.9-1.4-3.1-1.4
	s-2.4,0.5-3.2,1.4c-0.8,0.8-1.3,1.9-1.3,3.1s0.5,2.4,1.3,3.2C286.9,70.1,288,70.6,289.2,70.6L289.2,70.6z M293,69.9
	c-1,1-2.3,1.6-3.8,1.6s-2.8-0.6-3.8-1.6s-1.6-2.3-1.6-3.8s0.6-2.8,1.6-3.8s2.3-1.6,3.8-1.6s2.8,0.6,3.8,1.6s1.6,2.3,1.6,3.8
	S294,68.9,293,69.9L293,69.9z"/>
<path d="M303.7,78.7c-0.1-0.7-0.2-1.5-0.5-2.3c-0.2-0.8-0.5-1.6-0.8-2.5l0.8-0.3c0.3,0.8,0.6,1.7,0.8,2.5c0.2,0.8,0.4,1.6,0.5,2.4
	L303.7,78.7z"/>
<path d="M276.2,70.5c0.4-1,0.8-1.9,1.2-2.9c0.5-1,0.9-2,1.4-3l0.8,0.3c-0.9,2-1.8,3.9-2.6,6.1C276.7,70.9,276.4,70.7,276.2,70.5
	L276.2,70.5z"/>
<path d="M286.2,84c0.7,0.8,1.4,1.5,2.1,2.2c0.6,0.7,1.3,1.3,1.9,1.8l-0.6,0.7c-1.4-1.2-2.8-2.6-4.1-4.1L286.2,84z"/>
<path d="M279,78.2c1.6,0.3,3.3,0.5,5,0.6c1.6,0.1,3.3,0.2,5,0.2v0.9c-1.7,0-3.4-0.1-5-0.2c-1.7-0.2-3.4-0.3-5.1-0.6L279,78.2z"/>
<path d="M277.9,57.1c1.2-0.2,2.6-0.4,4.1-0.6c1.5-0.1,3.1-0.2,4.8-0.3l0.1,0.9c-1.7,0.1-3.3,0.2-4.8,0.3c-1.5,0.2-2.8,0.3-4,0.6
	L277.9,57.1z"/>
<path d="M271.7,60.8c-0.5-1.4-1-2.8-1.3-4.2c-0.4-1.5-0.6-2.9-0.8-4.5l0.9-0.1c0.2,1.5,0.5,3,0.8,4.4s0.8,2.8,1.3,4.1L271.7,60.8z"
	/>
<path d="M295,58.5c-0.7-1.3-1.5-2.5-2.3-3.5c-0.8-1.1-1.6-2-2.4-2.9l0.6-0.7c0.9,0.9,1.7,1.9,2.5,3s1.6,2.3,2.4,3.6L295,58.5z"/>
<path d="M306,60.5c0.4-1.2,0.8-2.5,1.1-3.7c0.3-1.2,0.6-2.4,0.8-3.6l0.8,0.2c-0.2,1.2-0.5,2.4-0.8,3.7s-0.7,2.5-1.1,3.8L306,60.5z"
	/>
<path d="M288.7,50c0.7-0.8,1.4-1.6,2.1-2.3s1.4-1.3,2.1-1.8l0.5,0.7c-0.6,0.5-1.3,1.1-2,1.7c-0.7,0.7-1.4,1.4-2,2.2L288.7,50z"/>
<path class="st3" d="M302.9,67.5c0.3,1.5,0.1,2.6-0.6,3.3c-0.3-0.8-0.6-1.4-0.8-1.8C302.4,68,302.9,67.5,302.9,67.5L302.9,67.5z"/>
</svg>
