<svg width="24" height="24" viewBox="0 0 24 24" fill="none" xmlns="http://www.w3.org/2000/svg">
<g id="Icon_Facebook">
<path id="Vector" d="M12.2 2C6.67651 2 2.19995 6.50374 2.19995 12.0607C2.19995 17.0809 5.8519 21.2415 10.6328 21.9992V14.9713H8.09565V12.0607H10.6328V9.84461C10.6328 7.32511 12.123 5.93075 14.4082 5.93075C14.4097 5.93075 14.4109 5.93075 14.4125 5.93075C14.4128 5.93075 14.4132 5.93075 14.4136 5.93075C15.5093 5.93075 16.6546 6.12922 16.6546 6.12922V8.60431H15.3945C14.1507 8.60431 13.7671 9.38166 13.7671 10.1755V12.0607H16.5398L16.096 14.9713H13.7671V22C18.5453 21.2447 22.2 17.0828 22.2 12.0607C22.2 6.50374 17.7234 2 12.2 2Z" />
</g>
</svg>
