<svg width="1180" height="513" viewBox="0 0 1180 513" fill="none" xmlns="http://www.w3.org/2000/svg">
<path d="M512.543 256.5C512.543 397.885 397.919 512.5 256.522 512.5C115.125 512.5 0.5 397.885 0.5 256.5C0.5 115.115 115.125 0.5 256.522 0.5C397.919 0.5 512.543 115.115 512.543 256.5Z" stroke="#363636"/>
<path d="M538.197 256.5C538.197 327.241 518.123 391.263 485.694 437.586C453.264 483.911 408.509 512.5 359.132 512.5C309.754 512.5 265 483.911 232.57 437.586C200.14 391.263 180.067 327.241 180.067 256.5C180.067 185.759 200.14 121.737 232.57 75.4139C265 29.0887 309.754 0.5 359.132 0.5C408.509 0.5 453.264 29.0887 485.694 75.4139C518.123 121.737 538.197 185.759 538.197 256.5Z" stroke="#363636"/>
<path d="M563.848 256.5C563.848 327.286 553.087 391.349 535.705 437.697C527.013 460.873 516.676 479.594 505.222 492.511C493.768 505.429 481.24 512.5 468.153 512.5C455.065 512.5 442.537 505.429 431.083 492.511C419.629 479.594 409.292 460.873 400.6 437.697C383.218 391.349 372.457 327.286 372.457 256.5C372.457 185.714 383.218 121.651 400.6 75.3027C409.292 52.1268 419.629 33.4063 431.083 20.4888C442.537 7.57063 455.065 0.5 468.153 0.5C481.24 0.5 493.768 7.57063 505.222 20.4888C516.676 33.4063 527.013 52.1268 535.705 75.3027C553.087 121.651 563.848 185.714 563.848 256.5Z" stroke="#363636"/>
<path d="M667.457 256.5C667.457 397.885 782.081 512.5 923.478 512.5C1064.88 512.5 1179.5 397.885 1179.5 256.5C1179.5 115.115 1064.88 0.5 923.478 0.5C782.081 0.5 667.457 115.115 667.457 256.5Z" stroke="#363636"/>
<path d="M641.803 256.5C641.803 327.241 661.877 391.263 694.306 437.586C726.736 483.911 771.49 512.5 820.868 512.5C870.246 512.5 915 483.911 947.43 437.586C979.86 391.263 999.933 327.241 999.933 256.5C999.933 185.759 979.86 121.737 947.43 75.4139C915 29.0887 870.246 0.5 820.868 0.5C771.49 0.5 726.736 29.0887 694.306 75.4139C661.877 121.737 641.803 185.759 641.803 256.5Z" stroke="#363636"/>
<path d="M616.152 256.5C616.152 327.286 626.913 391.349 644.295 437.697C652.987 460.873 663.324 479.594 674.778 492.511C686.232 505.429 698.76 512.5 711.847 512.5C724.935 512.5 737.463 505.429 748.917 492.511C760.371 479.594 770.708 460.873 779.4 437.697C796.782 391.349 807.543 327.286 807.543 256.5C807.543 185.714 796.782 121.651 779.4 75.3027C770.708 52.1268 760.371 33.4063 748.917 20.4888C737.463 7.57063 724.935 0.5 711.847 0.5C698.76 0.5 686.232 7.57063 674.778 20.4888C663.324 33.4063 652.987 52.1268 644.295 75.3027C626.913 121.651 616.152 185.714 616.152 256.5Z" stroke="#363636"/>
<line x1="590.781" y1="513" x2="590.781" y2="0.00012207" stroke="#363636"/>
</svg>
