<svg width="512" height="512" viewBox="0 0 512 512" fill="none" xmlns="http://www.w3.org/2000/svg">
<path d="M436.823 180.017C427.165 175.882 416.583 172.16 405.45 168.734C408.026 157.53 410.151 146.602 411.508 136.285V136.107L411.547 135.93C413.986 111.416 413.278 89.3432 408.872 71.7205C404.23 53.1133 394.592 40.9841 383.203 33.7184L383.007 33.6003L382.81 33.4821C369.631 25.7833 354.23 25.4879 336.822 29.8394L336.547 29.8985L336.291 29.9773C318.825 35.2346 299.431 45.4932 279.643 60.3396L279.525 60.438L279.407 60.5365C271.677 66.6798 263.828 73.7092 255.961 81.2112C248.093 73.7092 240.245 66.6601 232.495 60.5365L232.377 60.438L232.259 60.3396C212.825 45.7491 193.156 34.3485 175.099 29.8198C157.691 25.4682 142.31 25.7636 129.111 33.4624C116.346 40.925 107.671 53.3889 103.108 71.4449C97.7973 89.3826 97.1482 111.652 100.413 136.206C101.613 146.622 103.679 157.59 106.236 168.833C95.2403 172.219 84.7367 175.901 75.1969 179.997C51.1803 189.96 33.3597 201.755 20.358 213.923C6.62866 226.761 0 240.82 0 255.844C0 269.962 6.53031 284.828 20.358 297.764C33.458 310.011 52.1048 321.766 75.1379 331.651C84.6777 335.746 95.1616 339.429 106.157 342.815C103.639 354.117 101.613 365.144 100.433 375.58V375.737C97.994 400.252 98.7021 422.324 103.088 439.947C107.632 458.141 116.326 470.683 129.151 478.185C142.329 485.884 157.731 486.18 175.138 481.828C193.038 477.339 212.727 466.864 232.554 451.131C240.205 445.066 247.975 438.096 255.784 430.673C263.789 438.175 271.775 445.185 279.603 451.23L279.663 451.269L279.722 451.308C299.135 465.879 318.766 477.26 336.822 481.808C353.561 486.199 369.73 485.865 382.869 478.185C395.635 470.723 404.309 458.259 408.872 440.203C414.183 422.265 414.832 399.996 411.567 375.442C410.367 365.026 408.341 353.999 405.823 342.697C416.72 339.33 427.165 335.707 436.764 331.651C460.8 321.688 478.621 309.874 491.642 297.725C505.371 284.887 512 270.828 512 255.804C512 241.686 505.47 226.82 491.642 213.884C478.542 201.637 459.895 189.881 436.862 179.997H436.823V180.017ZM294.021 79.2422C312.019 65.7347 328.797 57.071 342.861 52.7982C356.748 49.3721 364.95 50.5929 370.693 53.8615C376.614 57.7011 382.692 64.573 385.898 77.4701C389.399 91.4698 390.265 110.491 387.983 133.371C386.764 142.566 384.856 152.372 382.574 162.433C362.059 157.452 339.734 153.711 316.13 151.308C302.007 131.598 287.373 113.739 272.66 98.0463C279.859 91.2138 286.999 84.7948 294.002 79.2422H294.021ZM328.64 297.429C320.438 311.626 311.881 325.074 303.128 337.775C287.943 339.035 272.208 339.724 255.98 339.724C239.753 339.724 223.604 339.015 208.203 337.735C199.607 325.094 191.267 311.705 183.38 297.528C175.433 283.292 168.293 269.194 161.842 255.332C168.234 241.765 175.335 228.041 183.301 214.278C191.503 200.061 200.079 186.593 208.852 173.873C224.057 172.633 239.792 171.924 256 171.924C272.208 171.924 287.943 172.633 303.148 173.873C311.921 186.593 320.497 200.061 328.699 214.278C336.665 228.061 343.785 241.805 350.178 255.391C343.766 269.272 336.626 283.331 328.66 297.41L328.64 297.429ZM362.629 284.06C368.392 298.473 373.192 312.512 377.106 326.039C363.534 329.347 349.096 332.123 333.892 334.289C339.104 326.177 344.218 317.868 349.195 309.263L349.234 309.204V309.145C353.994 300.777 358.42 292.389 362.649 284.02V284.06H362.629ZM255.626 397.121C245.791 386.724 235.957 375.225 226.279 362.683C236.035 363.155 245.909 363.47 255.961 363.47C266.012 363.47 275.355 363.195 284.816 362.742C275.158 375.206 265.382 386.685 255.607 397.121H255.626ZM177.617 334.25C162.55 332.104 148.25 329.367 134.835 326.118C138.749 312.512 143.588 298.434 149.351 283.961C153.561 292.31 157.986 300.698 162.668 309.106C167.487 317.769 172.502 326.098 177.617 334.25ZM149.469 226.761C143.785 212.565 138.966 198.781 135.052 185.471C148.545 182.202 162.943 179.465 178.089 177.319C172.876 185.451 167.742 193.76 162.766 202.385C158.065 210.517 153.659 218.649 149.469 226.761ZM255.98 114.901C265.638 125.238 275.296 136.6 284.836 148.926C275.355 148.473 265.736 148.197 255.98 148.197C246.224 148.197 236.606 148.473 227.125 148.926C236.665 136.6 246.322 125.238 255.98 114.901ZM349.195 202.385C344.218 193.78 339.084 185.451 333.872 177.319C348.919 179.446 363.219 182.163 376.634 185.392C372.739 198.703 368.018 212.486 362.432 226.623C358.262 218.55 353.856 210.458 349.195 202.365V202.385ZM123.978 133.371V133.154C120.929 110.372 121.853 91.6273 125.925 77.982L126.004 77.726L126.063 77.4504C129.426 63.9823 134.953 57.5436 141.07 53.9599C146.853 50.5732 155.154 49.2934 169.355 52.8573C182.849 56.244 199.489 65.4 217.92 79.2422C224.922 84.7948 232.062 91.2138 239.261 98.0463C224.548 113.739 209.934 131.598 195.791 151.308C172.089 153.73 149.686 157.491 129.092 162.512C126.83 152.431 125 142.625 123.938 133.39H123.978V133.371ZM84.481 309.814C63.2771 300.698 47.1481 290.301 36.5461 280.397C26.672 271.163 23.7215 262.302 23.7215 255.844C23.7215 248.696 26.5736 240.603 36.5461 231.29C47.2267 221.287 62.569 210.95 84.3433 201.932H84.4023L84.481 201.873C92.9586 198.23 102.361 194.922 112.235 191.85C118.214 212.23 126.141 233.515 135.838 255.312C125.945 277.404 117.978 299.083 112.018 319.797C102.243 316.745 92.8996 313.457 84.481 309.854V309.814ZM217.821 432.504C199.725 446.858 183.065 455.364 169.375 458.791C155.174 462.354 146.873 461.055 141.09 457.688C134.973 454.104 129.426 447.666 126.082 434.198C122.581 420.178 121.716 401.118 123.997 378.199C125.059 369.003 126.849 359.217 129.052 349.136C149.45 354.098 171.637 357.859 195.103 360.28C209.285 380.266 224.057 398.243 238.946 413.956C231.826 420.71 224.765 427.03 217.841 432.524L217.821 432.504ZM388.003 378.258V378.474C391.052 401.256 390.127 420.001 386.055 433.646L385.977 433.902L385.918 434.178C382.554 447.646 377.027 454.085 370.91 457.668C365.107 461.055 356.04 462.315 342.763 458.81H342.684L342.605 458.771C329.092 455.384 312.432 446.209 293.962 432.347C286.94 426.912 279.722 420.592 272.463 413.818C287.255 398.066 301.948 380.128 316.15 360.32C339.871 357.878 362.255 354.078 382.908 349.037C385.131 359.178 386.921 369.023 387.983 378.277H388.003V378.258ZM475.434 280.378C464.754 290.38 449.411 300.718 427.637 309.755H427.578C419.061 313.378 409.698 316.627 399.942 319.679C394.002 298.985 386.036 277.345 376.142 255.273C385.721 233.495 393.53 212.151 399.47 191.732C409.443 194.843 418.923 198.171 427.499 201.833C448.703 210.95 464.832 221.346 475.434 231.251C485.308 240.485 488.259 249.346 488.259 255.804C488.259 262.952 485.407 271.044 475.434 280.358V280.378Z" fill="#FF4F28"/>
<path d="M273.073 247.83C273.073 263.346 266.504 277.326 256 287.112C245.497 277.345 238.907 263.346 238.907 247.83C238.907 232.314 245.497 218.314 256 208.528C266.504 218.334 273.073 232.314 273.073 247.83Z" fill="#FF4F28"/>
<path d="M219.493 266.457C217.507 263.011 215.913 259.368 214.733 255.607C208.832 255.45 202.991 256.454 197.542 258.561C201.004 269.942 209.029 279.945 220.575 285.576C228.738 289.553 237.53 290.813 245.91 289.671C234.895 285.064 225.532 276.912 219.493 266.437V266.457Z" fill="#FF4F28"/>
<path d="M297.287 255.607C296.106 259.368 294.513 262.991 292.527 266.457C286.488 276.932 277.125 285.084 266.11 289.691C274.49 290.814 283.282 289.573 291.445 285.596C302.991 279.964 311.016 269.962 314.478 258.581C309.029 256.494 303.187 255.47 297.287 255.627V255.607Z" fill="#FF4F28"/>
<path d="M233.341 247.83C233.341 242.159 234.187 236.567 235.74 231.211C230.862 228.041 225.473 225.757 219.867 224.458C215.992 237.099 217.172 251.295 224.312 263.661C229.348 272.403 236.665 278.999 245.064 283.174C237.53 273.033 233.341 260.609 233.341 247.81V247.83Z" fill="#FF4F28"/>
<path d="M292.133 224.458C286.508 225.757 281.118 228.041 276.24 231.211C277.814 236.567 278.64 242.159 278.64 247.81C278.64 260.609 274.45 273.033 266.917 283.174C275.316 278.999 282.633 272.383 287.688 263.641C294.828 251.276 296.008 237.079 292.133 224.438V224.458Z" fill="#FF4F28"/>
</svg>
