<?xml version="1.0" encoding="utf-8"?>
<!-- Generator: Adobe Illustrator 23.0.5, SVG Export Plug-In . SVG Version: 6.00 Build 0)  -->
<svg version="1.1" id="Layer_1" xmlns="http://www.w3.org/2000/svg" xmlns:xlink="http://www.w3.org/1999/xlink" x="0px" y="0px"
	 width="54.6px" height="70px" viewBox="0 0 54.6 70" style="enable-background:new 0 0 54.6 70;" xml:space="preserve">
<style type="text/css">
	.st0{fill-rule:evenodd;clip-rule:evenodd;fill:#FFFFFF;}
</style>
<path class="st0" d="M27.6,51.4c-0.6,0-1.3-0.1-1.9-0.4c-0.6-0.2-1.1-0.6-1.6-1.1c-0.4-0.5-0.8-1-1-1.6c-0.2-0.6-0.4-1.2-0.4-1.9
	v-0.1h-5v0.1c0,2.6,1,5.1,2.9,6.9c1.8,1.8,4.3,2.9,6.9,2.9s5.1-1,6.9-2.9s2.9-4.3,2.9-6.9c0,0,0-0.1,0-0.1h-5v0.1
	c0,0.6-0.1,1.3-0.4,1.9c-0.2,0.6-0.6,1.1-1.1,1.6c-0.5,0.5-1,0.8-1.6,1.1C28.9,51.3,28.3,51.4,27.6,51.4L27.6,51.4z M18.1,20.7
	c-1.4,0-2.8,0.4-3.9,1.2c-1.2,0.8-2.1,1.9-2.6,3.2s-0.7,2.7-0.4,4.1c0.3,1.4,0.9,2.6,1.9,3.6c1,1,2.2,1.7,3.6,1.9
	c1.4,0.3,2.8,0.1,4.1-0.4c1.3-0.5,2.4-1.4,3.2-2.6c0.8-1.2,1.2-2.5,1.2-3.9c0-0.9-0.2-1.8-0.5-2.7c-0.4-0.9-0.9-1.6-1.5-2.3
	c-0.7-0.7-1.4-1.2-2.3-1.5C20,20.9,19.1,20.7,18.1,20.7z M15.9,27.7c0-0.4,0.1-0.9,0.4-1.2c0.2-0.4,0.6-0.7,1-0.8
	c0.4-0.2,0.9-0.2,1.3-0.1c0.4,0.1,0.8,0.3,1.2,0.6c0.3,0.3,0.5,0.7,0.6,1.2c0.1,0.4,0,0.9-0.1,1.3c-0.2,0.4-0.5,0.8-0.8,1
	C19,29.9,18.6,30,18.1,30c-0.6,0-1.2-0.2-1.6-0.7C16.1,28.9,15.9,28.3,15.9,27.7z M6.2,15.3C19.8,10.9,25,8.3,27.3,7
	c2.3,1.3,7.5,4,21.1,8.3c0,1.5,0.9,48.5-21.1,48.5C5.3,63.7,6.2,16.8,6.2,15.3z M27.3,70c28.4,0.1,27.3-57.3,27.3-59.2
	C37,5.2,30.3,1.7,27.3,0c-3,1.7-9.7,5.2-27.3,10.8C0,12.7-1.1,70.1,27.3,70z M29.6,25.2V30h13.7v-4.8H29.6z"/>
</svg>
