<svg width="385" height="418" viewBox="0 0 385 418" fill="none" xmlns="http://www.w3.org/2000/svg">
<g clip-path="url(#clip0_492_387)">
<path d="M19.0267 396.209L10.5328 329.153H0L10.8712 418H26.8437L36.6997 339.019H385V329.153H27.1821L19.0267 396.209Z" fill="#FF4F28"/>
<path d="M68.8987 286.164H78.5516L90.8864 304.356H105.488L91.6139 284.047C99.7271 281.015 103.788 275.138 103.788 266.423C103.788 260.902 102.164 256.515 98.9234 253.263C95.0826 249.418 89.5666 247.495 82.3671 247.495H56.4032V304.356H68.8987V286.164ZM68.8987 258.793H81.3096C84.3891 258.793 86.8002 259.496 88.5345 260.902C90.2688 262.257 91.1317 264.255 91.1317 266.915C91.1317 269.405 90.2942 271.412 88.6191 272.928C86.944 274.393 84.5921 275.121 81.5634 275.121H68.9072V258.793H68.8987Z" fill="white"/>
<path d="M158.694 293.236H127.857V281.295H154.641V270.167H127.857V258.632H158.287V247.504H115.446V304.364H158.694V293.236Z" fill="white"/>
<path d="M183.27 291.61H207.288L212.483 304.364H225.545L201.205 247.097H189.683L165.343 304.364H178.084L183.279 291.61H183.27ZM195.275 262.121L202.821 280.558H187.729L195.275 262.121Z" fill="white"/>
<path d="M257.693 305.338C262.938 305.338 267.346 304.55 270.916 302.984C274.537 301.417 277.896 298.978 280.975 295.675L273.023 287.147C270.536 289.425 268.184 291.102 265.967 292.186C263.751 293.27 261.128 293.812 258.099 293.812C253.336 293.812 249.394 292.076 246.255 288.612C243.176 285.148 241.628 280.922 241.628 275.942C241.628 270.963 243.167 266.686 246.255 263.273C249.394 259.809 253.345 258.073 258.099 258.073C261.128 258.073 263.7 258.59 265.806 259.614C267.972 260.588 270.265 262.189 272.701 264.408L280.163 255.795C277.134 252.814 273.945 250.544 270.586 248.969C267.236 247.343 263.091 246.53 258.175 246.53C249.572 246.53 242.49 249.376 236.915 255.058C231.34 260.741 228.557 267.702 228.557 275.934C228.557 284.166 231.315 291.203 236.831 296.886C242.406 302.518 249.352 305.33 257.685 305.33H257.693V305.338Z" fill="white"/>
<path d="M304.613 304.364H317.108V259.039H334.392V247.504H287.329V259.039H304.613V304.364Z" fill="white"/>
<path d="M83.4922 381.914C78.4585 380.618 75.1591 379.5 73.594 378.586C72.0289 377.671 71.2421 376.282 71.2421 374.444C71.2421 372.928 71.8681 371.709 73.1117 370.786C74.4061 369.812 76.225 369.321 78.5516 369.321C83.0438 369.321 87.9676 371.192 93.3228 374.927L99.8117 365.501C93.805 360.682 86.7747 358.269 78.7123 358.269C72.8664 358.269 68.0865 359.836 64.3471 362.978C60.667 366.119 58.8312 370.261 58.8312 375.401C58.8312 378.162 59.2373 380.542 60.0494 382.549C60.9124 384.497 62.2406 386.123 64.0256 387.419C65.8615 388.715 67.7819 389.773 69.7869 390.586C71.792 391.348 74.4146 392.128 77.6548 392.941C82.2571 394.135 85.3111 395.244 86.8255 396.269C88.3398 397.243 89.1012 398.547 89.1012 400.165C89.1012 401.901 88.3737 403.247 86.9101 404.23C85.4465 405.203 83.4499 405.695 80.9034 405.695C75.1675 405.695 69.5162 403.391 63.941 398.793L56.5554 407.643C63.315 413.706 71.352 416.738 80.6581 416.738C86.9355 416.738 91.9607 415.197 95.7508 412.114C99.5917 408.972 101.512 404.636 101.512 399.114C101.512 394.346 100.049 390.696 97.1298 388.147C94.2111 385.598 89.6681 383.515 83.5007 381.889V381.914H83.4922Z" fill="white"/>
<path d="M148.457 391.662C148.457 396.099 147.374 399.487 145.208 401.816C143.102 404.145 140.098 405.305 136.198 405.305C132.298 405.305 129.278 404.111 127.112 401.731C125.006 399.292 123.948 395.803 123.948 391.255V359.09H111.453V391.577C111.453 399.809 113.619 406.093 117.942 410.42C122.273 414.697 128.297 416.84 136.038 416.84C143.779 416.84 149.912 414.672 154.294 410.344C158.728 406.008 160.944 399.622 160.944 391.171V359.09H148.449V391.662H148.457Z" fill="white"/>
<path d="M202.085 383.133L187.153 359.09H173.685V415.951H185.935V379.068L201.755 403.112H202.085L218.066 378.823V415.951H230.486V359.09H217.009L202.085 383.133Z" fill="white"/>
<path d="M272.524 383.133L257.6 359.09H244.123V415.951H256.382V379.068L272.202 403.112H272.524L288.513 378.823V415.951H300.924V359.09H287.456L272.524 383.133Z" fill="white"/>
<path d="M327.632 359.09H315.137V415.951H327.632V359.09Z" fill="white"/>
<path d="M337.776 370.625H355.06V415.951H367.555V370.625H384.831V359.09H337.776V370.625Z" fill="white"/>
<path d="M355.034 269.87V262.765L368.444 251.713C370.415 250.138 372.386 248.554 373.96 246.581C374.746 245.395 375.533 243.82 375.533 242.236C375.533 240.653 375.136 239.475 373.96 238.29C372.775 237.502 371.591 236.714 370.017 237.104C368.444 237.104 367.259 237.502 366.075 238.29C364.501 239.475 362.919 241.051 361.735 242.236L355.424 237.104C356.997 234.343 359.366 232.37 361.735 230.786C364.493 229.211 367.251 228.813 370.406 228.813C373.951 228.813 377.504 229.999 380.262 232.361C383.02 234.733 384.205 237.883 384.205 241.44C384.205 243.413 383.807 245.387 383.02 247.36C382.234 248.935 381.049 250.519 379.865 252.094C377.894 254.067 375.922 255.643 373.554 257.226L367.242 262.358H384.983V269.853H355.018L355.034 269.87Z" fill="#FF4F28"/>
<path d="M279.588 65.8119C275.434 64.0334 270.882 62.4328 266.094 60.9592C267.202 56.1404 268.116 51.4401 268.7 47.0024V46.9262L268.717 46.85C269.766 36.3062 269.461 26.8125 267.566 19.2329C265.569 11.2297 261.424 6.0129 256.526 2.88787L256.441 2.83706L256.356 2.78625C250.688 -0.525098 244.064 -0.652131 236.577 1.2195L236.458 1.2449L236.348 1.27878C228.836 3.53998 220.494 7.95228 211.983 14.3378L211.933 14.3802L211.882 14.4225C208.557 17.0648 205.182 20.0882 201.798 23.3149C198.414 20.0882 195.038 17.0564 191.705 14.4225L191.654 14.3802L191.603 14.3378C183.245 8.06238 174.785 3.15888 167.018 1.21103C159.531 -0.6606 152.915 -0.533567 147.239 2.77778C141.748 5.98749 138.017 11.3483 136.055 19.1143C133.77 26.8295 133.491 36.4078 134.895 46.9685C135.412 51.4486 136.3 56.1658 137.4 61.0015C132.67 62.4582 128.153 64.0419 124.05 65.8034C113.72 70.0887 106.055 75.1616 100.463 80.3953C94.5579 85.9171 91.7069 91.9639 91.7069 98.4256C91.7069 104.498 94.5156 110.892 100.463 116.456C106.097 121.724 114.118 126.78 124.024 131.031C128.127 132.792 132.637 134.376 137.366 135.833C136.283 140.694 135.412 145.437 134.904 149.925V149.993C133.855 160.537 134.159 170.03 136.046 177.61C138 185.435 141.74 190.83 147.256 194.057C152.924 197.368 159.548 197.495 167.035 195.623C174.734 193.692 183.202 189.187 191.73 182.42C195.021 179.812 198.363 176.814 201.721 173.621C205.165 176.848 208.599 179.863 211.967 182.463L211.992 182.48L212.017 182.497C220.367 188.764 228.811 193.659 236.577 195.615C243.776 197.503 250.73 197.359 256.382 194.057C261.872 190.847 265.603 185.486 267.566 177.72C269.85 170.005 270.129 160.427 268.725 149.866C268.209 145.386 267.338 140.643 266.255 135.782C270.942 134.334 275.434 132.776 279.562 131.031C289.901 126.746 297.565 121.664 303.166 116.439C309.071 110.917 311.922 104.87 311.922 98.4087C311.922 92.3365 309.113 85.9425 303.166 80.3784C297.532 75.1107 289.511 70.0548 279.605 65.8034H279.588V65.8119ZM218.168 22.468C225.909 16.6583 233.125 12.932 239.174 11.0942C245.147 9.62066 248.675 10.1457 251.145 11.5516C253.692 13.203 256.306 16.1587 257.685 21.7058C259.191 27.7272 259.563 35.9082 258.581 45.749C258.057 49.704 257.236 53.9215 256.255 58.2491C247.431 56.1065 237.829 54.4974 227.677 53.4642C221.603 44.9868 215.308 37.3055 208.98 30.5558C212.077 27.6171 215.148 24.8562 218.159 22.468H218.168ZM233.057 116.312C229.53 122.418 225.85 128.202 222.085 133.665C215.554 134.207 208.786 134.503 201.806 134.503C194.826 134.503 187.881 134.198 181.257 133.648C177.56 128.211 173.972 122.452 170.58 116.354C167.162 110.231 164.091 104.168 161.316 98.2055C164.066 92.3704 167.12 86.4675 170.546 80.5478C174.074 74.4332 177.763 68.6405 181.536 63.1696C188.075 62.636 194.843 62.3312 201.814 62.3312C208.786 62.3312 215.554 62.636 222.093 63.1696C225.866 68.6405 229.555 74.4332 233.083 80.5478C236.509 86.476 239.572 92.3873 242.321 98.2309C239.563 104.201 236.492 110.248 233.066 116.304L233.057 116.312ZM247.676 110.562C250.155 116.761 252.219 122.799 253.903 128.617C248.066 130.04 241.856 131.234 235.316 132.166C237.558 128.677 239.758 125.103 241.898 121.402L241.915 121.376V121.351C243.962 117.752 245.866 114.144 247.685 110.545V110.562H247.676ZM201.654 159.19C197.424 154.718 193.194 149.773 189.031 144.378C193.228 144.581 197.474 144.717 201.798 144.717C206.121 144.717 210.139 144.598 214.208 144.403C210.055 149.764 205.85 154.702 201.645 159.19H201.654ZM168.101 132.149C161.621 131.226 155.47 130.049 149.701 128.651C151.384 122.799 153.465 116.744 155.944 110.519C157.755 114.11 159.658 117.718 161.672 121.334C163.744 125.06 165.902 128.643 168.101 132.149ZM155.995 85.9171C153.55 79.811 151.477 73.8827 149.794 68.1578C155.597 66.7519 161.79 65.5747 168.304 64.6516C166.062 68.1493 163.854 71.7232 161.714 75.4326C159.692 78.9302 157.797 82.4279 155.995 85.9171ZM201.806 37.8052C205.96 42.2514 210.114 47.1379 214.217 52.4395C210.139 52.2447 206.002 52.1261 201.806 52.1261C197.61 52.1261 193.473 52.2447 189.395 52.4395C193.498 47.1379 197.652 42.2514 201.806 37.8052ZM241.898 75.4326C239.758 71.7316 237.55 68.1493 235.308 64.6516C241.78 65.5663 247.93 66.735 253.7 68.1239C252.025 73.8489 249.994 79.7771 247.592 85.8578C245.798 82.3855 243.903 78.9048 241.898 75.4241V75.4326ZM145.031 45.749V45.6559C143.719 35.8573 144.117 27.7949 145.868 21.926L145.902 21.8159L145.927 21.6973C147.374 15.9046 149.751 13.1353 152.382 11.5939C154.87 10.1373 158.44 9.58678 164.548 11.1197C170.352 12.5763 177.509 16.5143 185.436 22.468C188.448 24.8562 191.519 27.6171 194.615 30.5558C188.287 37.3055 182.001 44.9868 175.918 53.4642C165.724 54.5059 156.088 56.1234 147.23 58.283C146.257 53.9469 145.471 49.7294 145.014 45.7575H145.031V45.749ZM128.043 121.639C118.923 117.718 111.986 113.246 107.426 108.986C103.179 105.014 101.91 101.203 101.91 98.4256C101.91 95.3514 103.136 91.8707 107.426 87.8649C112.019 83.5627 118.618 79.1165 127.984 75.2378H128.009L128.043 75.2124C131.689 73.6456 135.733 72.2228 139.98 70.9017C142.552 79.667 145.961 88.8219 150.132 98.197C145.877 107.699 142.45 117.023 139.887 125.933C135.682 124.62 131.664 123.206 128.043 121.656V121.639ZM185.394 174.409C177.61 180.583 170.445 184.241 164.556 185.715C158.448 187.248 154.878 186.689 152.391 185.24C149.76 183.699 147.374 180.93 145.936 175.137C144.43 169.107 144.058 160.909 145.039 151.051C145.496 147.096 146.266 142.887 147.213 138.551C155.986 140.686 165.529 142.303 175.622 143.345C181.722 151.941 188.075 159.673 194.48 166.431C191.417 169.336 188.38 172.054 185.402 174.417L185.394 174.409ZM258.59 151.077V151.17C259.901 160.969 259.504 169.031 257.752 174.9L257.719 175.01L257.693 175.129C256.246 180.921 253.869 183.691 251.238 185.232C248.742 186.689 244.842 187.231 239.132 185.723H239.098L239.064 185.706C233.252 184.25 226.086 180.303 218.142 174.341C215.122 172.004 212.017 169.285 208.896 166.372C215.257 159.597 221.577 151.881 227.685 143.362C237.888 142.312 247.516 140.677 256.399 138.509C257.355 142.87 258.125 147.105 258.581 151.085H258.59V151.077ZM296.195 108.978C291.601 113.28 285.002 117.726 275.637 121.614H275.612C271.948 123.172 267.921 124.569 263.725 125.882C261.17 116.981 257.744 107.674 253.488 98.18C257.609 88.8134 260.967 79.6331 263.522 70.8509C267.811 72.189 271.889 73.6202 275.578 75.1954C284.698 79.1165 291.635 83.5881 296.195 87.848C300.442 91.8199 301.711 95.6309 301.711 98.4087C301.711 101.483 300.484 104.964 296.195 108.969V108.978Z" fill="#FF4F28"/>
<path d="M209.158 94.9788C209.158 101.652 206.332 107.665 201.815 111.874C197.297 107.674 194.463 101.652 194.463 94.9788C194.463 88.3053 197.297 82.2839 201.815 78.0749C206.332 82.2924 209.158 88.3053 209.158 94.9788Z" fill="white"/>
<path d="M186.113 102.99C185.258 101.508 184.573 99.9416 184.065 98.324C181.527 98.2563 179.015 98.6882 176.671 99.5944C178.16 104.489 181.612 108.792 186.578 111.214C190.089 112.924 193.871 113.466 197.475 112.975C192.737 110.994 188.71 107.487 186.113 102.982V102.99Z" fill="white"/>
<path d="M219.572 98.324C219.065 99.9416 218.379 101.5 217.525 102.99C214.928 107.496 210.901 111.002 206.163 112.984C209.767 113.466 213.549 112.933 217.06 111.222C222.026 108.8 225.477 104.498 226.966 99.6028C224.623 98.7051 222.11 98.2648 219.572 98.3325V98.324Z" fill="white"/>
<path d="M192.068 94.9789C192.068 92.5398 192.432 90.1346 193.101 87.8311C191.003 86.4676 188.684 85.4852 186.273 84.9263C184.607 90.3633 185.114 96.4694 188.185 101.788C190.351 105.548 193.498 108.385 197.111 110.181C193.87 105.819 192.068 100.475 192.068 94.9704V94.9789Z" fill="white"/>
<path d="M217.356 84.9263C214.936 85.4852 212.618 86.4676 210.52 87.8311C211.197 90.1346 211.552 92.5398 211.552 94.9704C211.552 100.475 209.75 105.819 206.51 110.181C210.122 108.385 213.269 105.54 215.444 101.779C218.515 96.4609 219.022 90.3548 217.356 84.9178V84.9263Z" fill="white"/>
</g>
<defs>
<clipPath id="clip0_492_387">
<rect width="385" height="418" fill="white"/>
</clipPath>
</defs>
</svg>
