<?xml version="1.0" encoding="utf-8"?>
<!-- Generator: Adobe Illustrator 23.0.5, SVG Export Plug-In . SVG Version: 6.00 Build 0)  -->
<svg version="1.1" id="Layer_1" xmlns="http://www.w3.org/2000/svg" xmlns:xlink="http://www.w3.org/1999/xlink" x="0px" y="0px"
	 viewBox="0 0 48 44.8" style="enable-background:new 0 0 48 44.8;" xml:space="preserve">
<style type="text/css">
	.st0{fill-rule:evenodd;clip-rule:evenodd;fill:url(#SVGID_1_);}
	.st1{fill-rule:evenodd;clip-rule:evenodd;fill:url(#SVGID_2_);}
</style>
<linearGradient id="SVGID_1_" gradientUnits="userSpaceOnUse" x1="58.8198" y1="-125.0946" x2="84.5012" y2="-167.5526" gradientTransform="matrix(1 0 0 -1 -47.6378 -123.9136)">
	<stop  offset="0" style="stop-color:#99FF00"/>
	<stop  offset="1" style="stop-color:#00DD3B"/>
</linearGradient>
<path class="st0" d="M12.1,13.3c-0.7-2.8-1.6-9,1-10.6c2.7-1.6,7.3,2.4,9.3,4.4c-1.5,1.6-2.8,3.4-4,5.2
	C16.3,12.5,14.2,12.8,12.1,13.3z M21.3,12.1c0.9-1.2,1.8-2.3,2.7-3.3c0.9,1,1.8,2.1,2.7,3.3C24.9,11.9,23.1,11.9,21.3,12.1z
	 M19.6,14.5c2.9-0.2,5.8-0.2,8.7,0c1.5,2.3,2.8,4.6,4,7.1c0.1,0.3,0.2,0.5,0.4,0.8l-0.4,0.8c-1.2,2.4-2.5,4.8-4,7.1
	c-2.9,0.2-5.8,0.2-8.7,0c-1.6-2.5-3.1-5.2-4.4-7.9C16.5,19.7,18,17,19.6,14.5z M32.4,28.1c0.5-0.9,1-1.9,1.6-2.9
	c0.6,1.4,1,2.8,1.4,4.1c-0.9,0.2-1.9,0.4-3,0.6C32,29.9,31.7,30,31.3,30C31.6,29.4,32,28.7,32.4,28.1z M12.7,15.6
	c1.3-0.3,2.6-0.5,4.1-0.8c-0.9,1.6-1.8,3.2-2.7,4.8C13.5,18.3,13.1,16.9,12.7,15.6z M25.5,37.8c1.5-1.6,2.8-3.4,4-5.2
	c0.9-0.1,1.9-0.2,2.8-0.3c1.3-0.2,2.4-0.4,3.5-0.7c0.7,2.8,1.7,9-1,10.6c-0.7,0.4-1.5,0.5-2.5,0.2c-1.4-0.4-3.2-1.4-5-2.9
	C26.7,38.9,26.1,38.3,25.5,37.8z M14.1,25.1c0.8,1.6,1.7,3.3,2.7,4.8c-1.4-0.2-2.8-0.4-4.1-0.8C13,28,13.5,26.5,14.1,25.1z
	 M12.1,31.5c2.1,0.5,4.2,0.8,6.3,1.1c1.2,1.8,2.6,3.6,4,5.2c-2,2-6.6,6-9.3,4.4C10.4,40.5,11.4,34.3,12.1,31.5z M2.2,22.4
	c0-3.2,5.6-5.5,8.3-6.3c0.6,2.2,1.4,4.2,2.3,6.3c-0.9,2-1.7,4.1-2.3,6.3C7.8,27.9,2.2,25.6,2.2,22.4z M9.9,30.9
	C9,34.8,8.1,41.8,12,44.1c3.9,2.3,9.2-1.9,12-4.7c0.7,0.7,1.3,1.3,2,1.8c2.3,1.9,4.5,3.1,6.4,3.5c1.2,0.3,2.5,0.1,3.6-0.5
	c3.9-2.3,3-9.3,2.1-13.2c3.7-1.1,9.9-3.8,9.9-8.5s-6.2-7.4-9.9-8.5C39,10,39.9,3,36,0.7c-1.1-0.7-2.4-0.8-3.7-0.5
	C29.2,0.7,26,3.4,24,5.4c-2.8-2.8-8.1-7.1-12-4.7C8.1,3,9,10,9.9,13.9C6.2,15,0,17.7,0,22.4S6.2,29.8,9.9,30.9z M32.4,16.8
	c-0.4-0.7-0.7-1.3-1.1-1.9c0.4,0,0.8,0.1,1.1,0.2c1,0.2,2,0.4,3,0.6c-0.4,1.3-0.9,2.7-1.4,4.1C33.4,18.7,32.9,17.7,32.4,16.8z
	 M25.5,7c1.5-1.5,4.3-4,6.8-4.6c0.8-0.3,1.7-0.2,2.5,0.3c2.7,1.6,1.7,7.8,1,10.6c-1.1-0.3-2.3-0.5-3.5-0.7c-0.9-0.1-1.8-0.3-2.8-0.3
	C28.3,10.5,27,8.7,25.5,7z M37.5,28.7c-0.6-2.2-1.4-4.2-2.3-6.3c0.9-2,1.7-4.1,2.3-6.2c2.6,0.8,8.3,3,8.3,6.3
	C45.8,25.7,40.1,27.8,37.5,28.7z M21.3,32.7c1.8,0.1,3.6,0.1,5.4,0c-0.9,1.2-1.8,2.3-2.7,3.3C23.1,35.1,22.2,34,21.3,32.7z"/>
<linearGradient id="SVGID_2_" gradientUnits="userSpaceOnUse" x1="60.8869" y1="-126.4376" x2="82.4609" y2="-166.4727" gradientTransform="matrix(1 0 0 -1 -47.6378 -123.9136)">
	<stop  offset="0" style="stop-color:#99FF00"/>
	<stop  offset="1" style="stop-color:#00DD3B"/>
</linearGradient>
<path class="st1" d="M23.9,26c1.9,0,3.4-1.6,3.4-3.6s-1.5-3.5-3.4-3.5c-1.9,0-3.4,1.6-3.4,3.5C20.6,24.3,22.1,26,23.9,26z"/>
</svg>
