<svg width="142" height="142" viewBox="0 0 142 142" fill="none" xmlns="http://www.w3.org/2000/svg">
<circle cx="70.75" cy="70.75" r="70.75" fill="black"/>
<path fill-rule="evenodd" clip-rule="evenodd" d="M71.0514 87.9838C70.4492 87.9838 69.8471 87.883 69.3452 87.6814C68.8434 87.4799 68.3416 87.0767 67.8397 86.6736C67.4383 86.2705 67.1372 85.7665 66.8361 85.1618C66.6354 84.6579 66.535 84.0532 66.535 83.4485V83.247H61.9182V83.3477C61.9182 85.7665 62.9218 88.0846 64.6281 89.7979C66.3343 91.5112 68.6427 92.519 71.0514 92.519C73.4602 92.519 75.7686 91.5112 77.4748 89.7979C79.181 88.0846 80.1847 85.7665 80.1847 83.3477V83.247H75.5679V83.3477C75.5679 83.9524 75.4675 84.5571 75.2668 85.0611C75.066 85.565 74.6646 86.0689 74.2631 86.5728C73.8617 87.0767 73.3598 87.2783 72.7576 87.5806C72.2558 87.7822 71.6536 87.9838 71.0514 87.9838ZM62.2193 59.2605C60.9145 59.2605 59.6098 59.6637 58.6061 60.3692C57.5021 61.0746 56.6992 62.0825 56.1974 63.2919C55.6955 64.5013 55.5952 65.8115 55.7959 67.1216C56.097 68.4318 56.6992 69.5404 57.6025 70.5483C58.5058 71.4553 59.7102 72.06 61.0149 72.3624C62.3197 72.6647 63.6244 72.4632 64.8288 71.9592C66.0332 71.4553 67.0368 70.6491 67.7394 69.5404C68.4419 68.4318 68.8434 67.2224 68.8434 65.9122C68.8434 65.0052 68.6427 64.1989 68.3416 63.3927C68.0405 62.5864 67.5387 61.8809 66.9365 61.2762C66.3343 60.6715 65.6317 60.1676 64.8288 59.8652C63.9255 59.3613 63.1226 59.2605 62.2193 59.2605ZM60.1116 65.8115C60.1116 65.4083 60.212 65.0052 60.4127 64.6021C60.6134 64.2997 61.0149 63.9974 61.316 63.7958C61.7175 63.5942 62.1189 63.5942 62.5204 63.695C62.9218 63.7958 63.3233 63.9974 63.6244 64.2997C63.9255 64.6021 64.1262 65.0052 64.2266 65.4083C64.327 65.8115 64.2266 66.2146 64.1262 66.6177C63.9255 67.0209 63.7248 67.3232 63.3233 67.5248C63.0222 67.7263 62.6208 67.9279 62.1189 67.9279C61.5167 67.9279 61.0149 67.7263 60.6134 67.3232C60.3123 66.9201 60.1116 66.4162 60.1116 65.8115ZM51.0787 54.2214C63.7248 50.19 68.5423 47.6705 70.7503 46.4611C72.9584 47.6705 77.7759 50.19 90.4219 54.2214C90.4219 55.6323 91.2249 99.5738 70.7503 99.4731C50.2758 99.3723 51.0787 55.6323 51.0787 54.2214ZM70.7503 105.218C97.1464 105.318 96.1428 51.8026 96.1428 49.8877C79.7832 44.7478 73.5606 41.5227 70.7503 39.9102C67.9401 41.5227 61.7175 44.7478 45.3579 49.9885C45.3579 51.8026 44.3543 105.318 70.7503 105.218ZM72.858 63.3927V67.8271H85.6044V63.3927H72.858Z" fill="#FAFF05"/>
<path d="M19.9187 54.7338L11.1944 51.2415L13.7796 44.7708L15.151 45.3197L13.1785 50.2604L15.4486 51.1656L17.1993 46.7856L18.5706 47.3345L16.8199 51.7087L19.16 52.649L21.1616 47.6499L22.533 48.1989L19.9187 54.7338Z" fill="#FAFF05"/>
<path d="M24.7914 44.4145L14.6841 42.8027L15.6353 41.2434L23.2741 42.6041L18.5881 36.4254L19.5218 34.9011L25.55 43.1823L24.7914 44.4204V44.4145Z" fill="#FAFF05"/>
<path d="M28.2052 39.0884L21.1266 32.9038L25.7076 27.6536L26.8222 28.6289L23.3266 32.6352L25.1649 34.2412L28.2636 30.6905L29.3782 31.6599L26.2795 35.2106L28.1819 36.8692L31.7241 32.8104L32.8387 33.7857L28.2111 39.0884H28.2052Z" fill="#FAFF05"/>
<path d="M33.7491 32.8571L27.8376 25.5454L29.028 24.5818L37.0287 26.4681L32.9437 21.4107L34.2042 20.3887L40.1099 27.7004L39.0361 28.5705L30.8021 26.6316L35.0037 31.8351L33.7432 32.8571H33.7491Z" fill="#FAFF05"/>
<path d="M43.6287 25.6622L39.7889 18.7943L37.1862 20.2485L36.4393 18.9111L43.0919 15.191L43.8388 16.5284L41.2361 17.9826L45.076 24.8504L43.6229 25.6622H43.6287Z" fill="#FAFF05"/>
<path d="M52.0495 21.5975L49.4819 12.5513L53.5376 11.4008C54.5763 11.103 55.44 11.1497 56.1286 11.5293C56.648 11.8213 56.9923 12.271 57.1674 12.8784C57.4241 13.7719 57.1849 14.5661 56.4496 15.2611C57.7626 15.3253 58.5679 15.8977 58.8772 16.9722C59.1048 17.7665 58.9764 18.4614 58.492 19.063C58.0135 19.6645 57.2607 20.1142 56.2337 20.4003L52.0495 21.5917V21.5975ZM52.1254 15.921L54.2962 15.302C54.8214 15.1501 55.2066 14.9282 55.4517 14.6304C55.6968 14.3325 55.761 13.9763 55.6443 13.5617C55.5392 13.1996 55.3233 12.9601 54.9907 12.8317C54.658 12.709 54.2379 12.7207 53.7302 12.8609L51.4426 13.5091L52.1254 15.9152V15.921ZM53.2108 19.7462L55.8427 18.9987C56.3912 18.841 56.788 18.6133 57.0331 18.3096C57.2782 18.0059 57.3424 17.6497 57.2257 17.235C56.9981 16.4233 56.2628 16.1955 55.0199 16.5518L52.5047 17.2701L53.2108 19.7521V19.7462Z" fill="#FAFF05"/>
<path d="M63.143 19.0338L62.7229 15.3487L58.3753 10.1102L60.3069 9.88828L63.3881 13.7252L65.559 9.28676L67.438 9.07068L64.3685 15.1093L64.7887 18.8352L63.1372 19.0221L63.143 19.0338Z" fill="#FAFF05"/>
<path d="M77.3002 19.2674C75.8647 19.0746 74.7617 18.4673 73.9856 17.4394C73.2094 16.4116 72.9235 15.2027 73.1044 13.8069C73.2795 12.4754 73.8864 11.4008 74.9193 10.5774C75.9522 9.75396 77.1602 9.4386 78.5432 9.61964C79.3252 9.72476 79.9729 9.91748 80.4981 10.1978C81.0233 10.4781 81.5077 10.8694 81.957 11.36L80.7549 12.4637C80.4106 12.0725 80.0488 11.7688 79.6753 11.5527C79.3018 11.3366 78.835 11.1906 78.2748 11.1147C77.4228 11.0037 76.6641 11.2315 75.9989 11.8038C75.3336 12.3761 74.9368 13.1178 74.8201 14.0347C74.6917 15.0041 74.8784 15.8393 75.3803 16.5401C75.8822 17.2409 76.6058 17.6555 77.5453 17.784C78.4148 17.9008 79.1968 17.7606 79.8854 17.3752L80.1188 15.629L77.7379 15.3137L77.9246 13.8887L81.887 14.4143L81.3676 18.3271C80.113 19.1447 78.7533 19.4601 77.2885 19.2615L77.3002 19.2674Z" fill="#FAFF05"/>
<path d="M82.8032 20.1726L85.2366 11.0913L86.8298 11.5176L84.3963 20.5989L82.8032 20.1726Z" fill="#FAFF05"/>
<path d="M88.4754 21.9479L91.364 14.6245L88.5921 13.5266L89.1524 12.1017L96.2426 14.9049L95.6824 16.3298L92.9105 15.2319L90.0219 22.5553L88.4754 21.9421V21.9479Z" fill="#FAFF05"/>
<path d="M93.7683 24.1146L98.6586 16.0846L99.9657 16.8788L100.888 25.049L104.267 19.4951L105.655 20.3419L100.765 28.372L99.5864 27.6536L98.641 19.244L95.163 24.9556L93.7741 24.1087L93.7683 24.1146Z" fill="#FAFF05"/>
<path d="M101.559 28.8801L110.972 24.6285L112.11 25.6564L108.836 35.4559L107.54 34.2879L108.352 31.9636L105.054 28.9852L102.819 30.0189L101.565 28.8859L101.559 28.8801ZM106.484 28.296L108.883 30.4685L110.196 26.5849L106.478 28.296H106.484Z" fill="#FAFF05"/>
<path d="M110.067 37.1846L116.142 32.1855L114.251 29.8845L115.436 28.9093L120.279 34.8018L119.095 35.7771L117.204 33.4703L111.129 38.4694L110.073 37.1846H110.067Z" fill="#FAFF05"/>
<path d="M113.656 41.9384L121.54 36.8283L122.439 38.2124L114.555 43.3283L113.656 41.9442V41.9384Z" fill="#FAFF05"/>
<path d="M120.244 51.6211C118.99 51.1773 118.062 50.313 117.461 49.0223C116.86 47.7317 116.79 46.4702 117.251 45.238C117.712 44.0057 118.558 43.1005 119.789 42.5224C121.003 41.9559 122.24 41.8916 123.495 42.3355C124.75 42.7793 125.677 43.6436 126.278 44.9343C126.88 46.2249 126.95 47.4864 126.489 48.7186C126.028 49.9509 125.181 50.8561 123.95 51.4342C122.736 52.0007 121.499 52.065 120.244 51.6211ZM118.762 45.9154C118.43 46.7389 118.459 47.5681 118.85 48.4033C119.241 49.2384 119.853 49.7932 120.688 50.056C121.522 50.3246 122.369 50.2546 123.221 49.8574C124.061 49.4603 124.65 48.8529 124.983 48.0353C125.316 47.2119 125.286 46.3826 124.895 45.5475C124.504 44.7124 123.892 44.1576 123.057 43.8948C122.223 43.632 121.377 43.6962 120.525 44.0933C119.684 44.4904 119.095 45.0978 118.762 45.9154Z" fill="#FAFF05"/>
<path d="M120.046 54.6696L129.173 52.4329L129.535 53.9221L124.423 60.3578L130.731 58.8102L131.116 60.387L121.989 62.6237L121.663 61.2805L126.926 54.6521L120.431 56.2406L120.046 54.6638V54.6696Z" fill="#FAFF05"/>
<path d="M121.458 82.3104L130.503 84.8567L128.619 91.5669L127.195 91.1698L128.636 86.0481L126.284 85.3881L125.006 89.9258L123.582 89.5229L124.86 84.9852L122.433 84.3019L120.974 89.4878L119.55 89.0849L121.458 82.3104Z" fill="#FAFF05"/>
<path d="M117.7 93.097L127.924 93.6401L127.142 95.2928L119.404 94.7439L124.715 100.397L123.95 102.009L117.087 94.411L117.712 93.1028L117.7 93.097Z" fill="#FAFF05"/>
<path d="M114.882 98.7326L122.567 104.14L118.564 109.846L117.356 108.994L120.414 104.643L118.418 103.235L115.71 107.096L114.502 106.243L117.21 102.388L115.144 100.934L112.051 105.344L110.843 104.491L114.887 98.7326H114.882Z" fill="#FAFF05"/>
<path d="M110.02 105.513L116.661 112.159L115.582 113.239L107.429 112.206L112.022 116.802L110.872 117.952L104.232 111.306L105.206 110.331L113.598 111.394L108.871 106.663L110.02 105.513Z" fill="#FAFF05"/>
<path d="M100.929 113.724L105.469 120.154L107.902 118.431L108.783 119.681L102.557 124.084L101.676 122.834L104.109 121.112L99.5689 114.682L100.929 113.718V113.724Z" fill="#FAFF05"/>
<path d="M92.998 118.641L96.5111 127.36L92.6012 128.937C91.5975 129.34 90.7338 129.393 90.0102 129.083C89.4616 128.85 89.0706 128.441 88.8314 127.851C88.4813 126.987 88.6388 126.169 89.2924 125.404C87.9794 125.48 87.1157 124.995 86.7014 123.962C86.3921 123.196 86.4446 122.49 86.8589 121.842C87.2733 121.193 87.9736 120.668 88.9598 120.271L92.9922 118.641H92.998ZM92.0351 120.609L89.4967 121.631C88.9656 121.847 88.5921 122.116 88.382 122.443C88.172 122.77 88.1486 123.132 88.3062 123.529C88.6213 124.312 89.3741 124.458 90.5704 123.979L92.998 122.998L92.0351 120.609ZM93.5232 124.294L91.4341 125.141C90.9264 125.346 90.5704 125.608 90.3545 125.93C90.1444 126.251 90.1152 126.613 90.2786 127.01C90.4187 127.36 90.6638 127.576 91.0081 127.664C91.3524 127.752 91.7667 127.699 92.2569 127.501L94.4627 126.613L93.5291 124.294H93.5232Z" fill="#FAFF05"/>
<path d="M82.243 122.367L83.0483 125.988L87.9269 130.736L86.0245 131.156L82.5523 127.664L80.8599 132.307L79.0101 132.716L81.426 126.385L80.6149 122.729L82.2371 122.367H82.243Z" fill="#FAFF05"/>
<path d="M68.1383 123.617C69.5855 123.652 70.7468 124.143 71.6222 125.083C72.4975 126.023 72.9177 127.197 72.8768 128.604C72.8418 129.948 72.3516 131.081 71.4121 132.003C70.4725 132.926 69.2996 133.37 67.9049 133.335C67.1171 133.311 66.4518 133.189 65.9033 132.967C65.3547 132.745 64.8295 132.406 64.3335 131.968L65.4131 130.748C65.7982 131.098 66.1892 131.361 66.5802 131.536C66.9712 131.711 67.4497 131.805 68.0158 131.822C68.8736 131.846 69.603 131.536 70.2099 130.899C70.811 130.263 71.1261 129.48 71.1495 128.558C71.1728 127.582 70.8986 126.771 70.3267 126.122C69.7548 125.474 68.9903 125.141 68.0449 125.118C67.1696 125.095 66.4051 125.311 65.7574 125.772L65.7107 127.53L68.115 127.594L68.0799 129.031L64.0826 128.926L64.1876 124.978C65.3489 124.032 66.6677 123.576 68.1441 123.617H68.1383Z" fill="#FAFF05"/>
<path d="M62.5536 123.296L61.0947 132.581L59.4666 132.324L60.9255 123.039L62.5536 123.296Z" fill="#FAFF05"/>
<path d="M56.7355 122.134L54.6405 129.72L57.5117 130.514L57.1032 131.992L49.7561 129.959L50.1646 128.482L53.0357 129.276L55.1307 121.69L56.7355 122.134Z" fill="#FAFF05"/>
<path d="M51.2325 120.539L47.2176 129.042L45.8346 128.388L44.0606 120.358L41.2828 126.233L39.8123 125.538L43.8272 117.035L45.076 117.625L46.9025 125.889L49.762 119.844L51.2325 120.539Z" fill="#FAFF05"/>
<path d="M42.9985 116.626L34.0875 121.842L32.8504 120.942L35.0796 110.851L36.4918 111.879L35.9257 114.273L39.5146 116.889L41.633 115.622L42.9985 116.621V116.626ZM38.1608 117.724L35.5464 115.821L34.6477 119.815L38.1608 117.724Z" fill="#FAFF05"/>
<path d="M33.6615 109.256L28.141 114.863L30.2652 116.953L29.1914 118.046L23.7585 112.69L24.8322 111.598L26.9564 113.689L32.4769 108.082L33.6615 109.251V109.256Z" fill="#FAFF05"/>
<path d="M29.5999 104.917L22.2996 110.833L21.2608 109.548L28.5612 103.632L29.5999 104.917Z" fill="#FAFF05"/>
<path d="M22.0311 95.982C23.3266 96.2915 24.3362 97.0507 25.0715 98.2713C25.8068 99.4918 26.011 100.736 25.6842 102.015C25.3574 103.294 24.6105 104.281 23.4434 104.981C22.2937 105.676 21.0741 105.869 19.7786 105.56C18.4831 105.25 17.4735 104.491 16.7382 103.27C16.003 102.05 15.7987 100.806 16.1255 99.5269C16.4523 98.2537 17.1993 97.2609 18.3664 96.5601C19.516 95.8652 20.7356 95.6724 22.0311 95.9761V95.982ZM24.1086 101.501C24.3537 100.648 24.237 99.8247 23.7585 99.0363C23.28 98.2479 22.6147 97.7632 21.7569 97.588C20.899 97.4128 20.0645 97.5646 19.2592 98.0493C18.4597 98.5341 17.9404 99.1998 17.7011 100.052C17.456 100.905 17.5727 101.729 18.0513 102.517C18.5298 103.305 19.195 103.79 20.0529 103.965C20.9107 104.14 21.7452 103.989 22.5505 103.504C23.35 103.025 23.8694 102.353 24.1086 101.501Z" fill="#FAFF05"/>
<path d="M21.9028 92.9335L13.0676 96.128L12.5483 94.6855L16.9483 87.7417L10.8384 89.9492L10.2841 88.4191L19.1192 85.2246L19.586 86.527L15.0576 93.6752L21.3425 91.4034L21.8911 92.9335H21.9028Z" fill="#FAFF05"/>
<path d="M127.241 77.0252C127.049 75.9215 126.267 74.5315 124.779 73.4161C124.049 72.8613 123.302 72.5051 122.573 72.3474V71.8101C124.026 71.4655 125.45 70.4844 126.36 69.1646C126.821 68.4988 127.119 67.8389 127.247 67.1614H127.784C128 68.4579 129.004 69.9004 130.363 70.864C131.029 71.337 131.723 71.6582 132.429 71.8159V72.3532C131.005 72.651 129.348 73.9183 128.525 75.2207C128.117 75.8747 127.872 76.4821 127.778 77.0311H127.241V77.0252Z" fill="#FAFF05"/>
<path d="M13.7387 77.0252C13.5462 75.9215 12.7642 74.5315 11.2761 73.4161C10.5467 72.8613 9.7997 72.5051 9.07025 72.3474V71.8101C10.5233 71.4655 11.9472 70.4844 12.8576 69.1646C13.3186 68.4988 13.6162 67.8389 13.7446 67.1614H14.2815C14.4974 68.4579 15.5011 69.9004 16.8608 70.864C17.5261 71.337 18.2205 71.6582 18.9266 71.8159V72.3532C17.5027 72.651 15.8454 73.9183 15.0226 75.2207C14.6141 75.8747 14.369 76.4821 14.2756 77.0311H13.7387V77.0252Z" fill="#FAFF05"/>
</svg>
