<svg width="249" height="60" viewBox="0 0 249 60" fill="none" xmlns="http://www.w3.org/2000/svg">
<path d="M60 20L80 0H100V20L60 60H40V40H20V20L40 0H60V20ZM20 20H0V0H20V20Z" fill="#2156FF"/>
<path d="M131.697 12.5492L135.054 1.18612H138.128L133.376 17.0802H130.279L127.064 5.97806L123.849 17.0802H120.752L116 1.18612H119.073L122.43 12.5492L125.645 1.18612H128.482L131.697 12.5492Z" fill="white"/>
<path d="M143.988 4.95799C147.888 4.95799 150.347 8.06563 149.993 12.1222H140.702C140.914 13.6404 142.191 14.8503 144.035 14.8977C145.359 14.9214 146.517 14.3284 146.99 13.3795H149.803C149.047 15.9415 146.754 17.4123 143.988 17.4123C140.134 17.4123 137.888 14.5419 137.888 11.197C137.888 7.7098 140.371 4.95799 143.988 4.95799ZM143.94 7.47257C142.309 7.47257 141.08 8.44519 140.749 9.89226H147.179C146.825 8.42147 145.595 7.47257 143.94 7.47257Z" fill="white"/>
<path d="M158.866 4.95799C162.175 4.93427 164.658 7.47257 164.658 11.1733C164.658 14.8265 162.246 17.4597 158.866 17.4123C157.093 17.4123 155.698 16.582 154.894 15.467H154.752V17.0802H152.057V0H154.752V6.99812H154.87C155.674 5.83572 157.093 4.98171 158.866 4.95799ZM158.322 14.8265C160.473 14.8265 161.915 13.2371 161.915 11.197C161.915 9.15687 160.473 7.56746 158.322 7.56746C156.194 7.56746 154.776 9.20431 154.776 11.197C154.776 13.2134 156.194 14.8265 158.322 14.8265Z" fill="white"/>
<path d="M129.121 38.374H117.182V22.48H129.121V25.2555H120.019V28.885H128.246V31.5657H120.019V35.5985H129.121V38.374Z" fill="white"/>
<path d="M138.059 26.2519C140.991 26.2519 142.882 28.2683 142.882 31.5894V38.374H140.163V32.0164C140.163 30.1661 139.052 28.9325 137.374 28.9325C135.577 28.9325 134.206 30.3321 134.206 32.3722V38.374H131.487V26.584H134.158V28.1022H134.253C135.104 26.9635 136.475 26.2519 138.059 26.2519Z" fill="white"/>
<path d="M154.72 28.2208V26.584H157.415V39.5364C157.415 41.8375 156.091 43.1185 153.798 43.1185H146.327V40.4142H153.301C154.176 40.4142 154.696 39.916 154.696 39.062L154.72 37.2828V36.666H154.602C153.822 37.8521 152.45 38.7061 150.606 38.7061C147.297 38.7536 144.814 36.1916 144.814 32.4909C144.814 28.8376 147.226 26.2281 150.606 26.2519C152.427 26.2756 153.822 27.0821 154.602 28.2208H154.72ZM151.15 36.0967C153.278 36.0967 154.696 34.4598 154.696 32.4671C154.696 30.4507 153.278 28.8376 151.15 28.8376C148.999 28.8376 147.557 30.427 147.557 32.4671C147.557 34.5073 148.999 36.0967 151.15 36.0967Z" fill="white"/>
<path d="M160.345 21.2939H163.064V24.8997H160.345V21.2939ZM160.345 26.584H163.064V38.374H160.345V26.584Z" fill="white"/>
<path d="M172.597 26.2519C175.528 26.2519 177.42 28.2683 177.42 31.5894V38.374H174.701V32.0164C174.701 30.1661 173.59 28.9325 171.911 28.9325C170.115 28.9325 168.743 30.3321 168.743 32.3722V38.374H166.025V26.584H168.696V28.1022H168.791C169.642 26.9635 171.013 26.2519 172.597 26.2519Z" fill="white"/>
<path d="M185.451 26.2519C189.352 26.2519 191.811 29.3595 191.456 33.416H182.165C182.378 34.9343 183.655 36.1441 185.499 36.1916C186.823 36.2153 187.981 35.6222 188.454 34.6733H191.267C190.511 37.2353 188.217 38.7061 185.451 38.7061C181.598 38.7061 179.352 35.8357 179.352 32.4909C179.352 29.0037 181.834 26.2519 185.451 26.2519ZM185.404 28.7664C183.773 28.7664 182.544 29.7391 182.213 31.1861H188.643C188.288 29.7153 187.059 28.7664 185.404 28.7664Z" fill="white"/>
<path d="M199.096 26.2519C202.996 26.2519 205.455 29.3595 205.101 33.416H195.81C196.022 34.9343 197.299 36.1441 199.143 36.1916C200.467 36.2153 201.625 35.6222 202.098 34.6733H204.911C204.155 37.2353 201.862 38.7061 199.096 38.7061C195.242 38.7061 192.996 35.8357 192.996 32.4909C192.996 29.0037 195.479 26.2519 199.096 26.2519ZM199.048 28.7664C197.417 28.7664 196.188 29.7391 195.857 31.1861H202.287C201.933 29.7153 200.703 28.7664 199.048 28.7664Z" fill="white"/>
<path d="M213.075 26.584H215.463V29.3358H213.028C211.184 29.3358 209.907 30.5693 209.907 32.6095V38.374H207.188V26.584H209.812V28.5292H209.907C210.427 27.2956 211.562 26.584 213.075 26.584Z" fill="white"/>
<path d="M217.393 21.2939H220.111V24.8997H217.393V21.2939ZM217.393 26.584H220.111V38.374H217.393V26.584Z" fill="white"/>
<path d="M229.644 26.2519C232.576 26.2519 234.467 28.2683 234.467 31.5894V38.374H231.748V32.0164C231.748 30.1661 230.637 28.9325 228.959 28.9325C227.162 28.9325 225.791 30.3321 225.791 32.3722V38.374H223.072V26.584H225.743V28.1022H225.838C226.689 26.9635 228.06 26.2519 229.644 26.2519Z" fill="white"/>
<path d="M246.305 28.2208V26.584H249V39.5364C249 41.8375 247.676 43.1185 245.383 43.1185H237.912V40.4142H244.886C245.761 40.4142 246.281 39.916 246.281 39.062L246.305 37.2828V36.666H246.187C245.407 37.8521 244.035 38.7061 242.191 38.7061C238.882 38.7536 236.399 36.1916 236.399 32.4909C236.399 28.8376 238.811 26.2281 242.191 26.2519C244.012 26.2756 245.407 27.0821 246.187 28.2208H246.305ZM242.735 36.0967C244.863 36.0967 246.281 34.4598 246.281 32.4671C246.281 30.4507 244.863 28.8376 242.735 28.8376C240.584 28.8376 239.142 30.427 239.142 32.4671C239.142 34.5073 240.584 36.0967 242.735 36.0967Z" fill="white"/>
<path d="M120.894 43.7738H128.861V46.5494H121.059C119.995 46.5494 119.404 47.261 119.404 48.0202C119.404 48.6607 119.806 49.3249 120.657 49.5384L126.402 50.9143C128.813 51.5074 129.901 53.3814 129.901 55.1843C129.901 57.438 128.293 59.6679 125.244 59.6679H116.922V56.8924H125.125C126.236 56.8924 126.875 56.0621 126.875 55.2555C126.875 54.5913 126.426 53.8559 125.527 53.6424L119.759 52.2665C117.395 51.6971 116.355 49.8468 116.355 48.0913C116.355 45.9089 117.915 43.7738 120.894 43.7738Z" fill="white"/>
<path d="M131.873 54.3066V47.9016H134.591V54.2829C134.591 56.0146 135.679 57.3905 137.476 57.3905C139.32 57.3905 140.407 56.0146 140.407 54.2829V47.9016H143.126V54.3066C143.126 57.7701 140.904 60 137.476 60C134.071 60 131.873 57.7701 131.873 54.3066Z" fill="white"/>
<path d="M159.324 47.5694C161.925 47.5694 163.745 49.3486 163.745 52.48V59.6679H161.026V52.8595C161.026 51.1278 160.104 50.2026 158.71 50.2026C157.504 50.2026 156.133 51.1041 156.133 53.4289V59.6679H153.414V52.8833C153.414 51.1515 152.469 50.1789 151.074 50.2263C149.537 50.2501 148.473 51.626 148.473 53.5949V59.6679H145.755V47.8778H148.379V49.491H148.45C149.182 48.3523 150.364 47.5694 151.854 47.5694C153.509 47.5694 154.738 48.3997 155.4 49.6807H155.447C156.275 48.376 157.622 47.5694 159.324 47.5694Z" fill="white"/>
<path d="M180.033 47.5694C182.634 47.5694 184.454 49.3486 184.454 52.48V59.6679H181.735V52.8595C181.735 51.1278 180.813 50.2026 179.418 50.2026C178.213 50.2026 176.842 51.1041 176.842 53.4289V59.6679H174.123V52.8833C174.123 51.1515 173.177 50.1789 171.783 50.2263C170.246 50.2501 169.182 51.626 169.182 53.5949V59.6679H166.463V47.8778H169.087V49.491H169.158C169.891 48.3523 171.073 47.5694 172.563 47.5694C174.218 47.5694 175.447 48.3997 176.109 49.6807H176.156C176.983 48.376 178.331 47.5694 180.033 47.5694Z" fill="white"/>
<path d="M187.172 42.5877H189.891V46.1935H187.172V42.5877ZM187.172 47.8778H189.891V59.6679H187.172V47.8778Z" fill="white"/>
<path d="M201.551 47.8778V50.5347H196.468V55.9909C196.468 56.6314 196.847 57.011 197.532 57.011H201.551V59.6679H196.989C194.955 59.6679 193.75 58.4818 193.75 56.4654V50.5347H191.859V47.8778H193.75V43.7738H196.468V47.8778H201.551Z" fill="white"/>
</svg>
