<svg width="159" height="34" viewBox="0 0 159 34" fill="none" xmlns="http://www.w3.org/2000/svg">
<path d="M12.0019 33L0 1H3.21176L15.2136 33H12.0019Z" fill="#FEF502" style="fill:#FEF502;fill:color(display-p3 0.9961 0.9608 0.0078);fill-opacity:1;"/>
<path d="M19.5955 33L31.5973 1H34.8091L22.8072 33H19.5955Z" fill="#FEF502" style="fill:#FEF502;fill:color(display-p3 0.9961 0.9608 0.0078);fill-opacity:1;"/>
<path d="M51.1928 33L39.1909 1H42.4027L54.4045 33H51.1928Z" fill="#FEF502" style="fill:#FEF502;fill:color(display-p3 0.9961 0.9608 0.0078);fill-opacity:1;"/>
<path d="M58.7864 33L70.7882 1H74L61.9981 33H58.7864Z" fill="#FEF502" style="fill:#FEF502;fill:color(display-p3 0.9961 0.9608 0.0078);fill-opacity:1;"/>
<path d="M81.9149 9.03114L81 1.08008H81.9367L82.5358 6.96169C82.5503 7.12144 82.5648 7.28844 82.5793 7.46271C82.5938 7.62972 82.6047 7.78947 82.612 7.94196C82.6265 8.09444 82.6338 8.22152 82.6338 8.32317C82.6483 8.22152 82.6592 8.09444 82.6665 7.94196C82.681 7.78947 82.6955 7.62972 82.71 7.46271C82.7318 7.28844 82.7536 7.12144 82.7754 6.96169L83.516 1.08008H84.529L85.2043 6.96169C85.226 7.12144 85.2442 7.28844 85.2587 7.46271C85.2805 7.62972 85.2987 7.78947 85.3132 7.94196C85.335 8.09444 85.3495 8.22152 85.3567 8.32317C85.364 8.22152 85.3713 8.09444 85.3785 7.94196C85.3931 7.78947 85.4076 7.62972 85.4221 7.46271C85.4439 7.28844 85.462 7.12144 85.4766 6.96169L86.0974 1.08008H86.9905L86.0538 9.03114H84.823L84.1478 3.04061C84.1332 2.87361 84.1151 2.71023 84.0933 2.55048C84.0788 2.39073 84.0642 2.24188 84.0497 2.10391C84.0352 1.96595 84.0243 1.8534 84.017 1.76627C84.0098 1.8534 83.9953 1.96595 83.9735 2.10391C83.959 2.24188 83.9444 2.39073 83.9299 2.55048C83.9154 2.71023 83.8972 2.87361 83.8755 3.04061L83.1457 9.03114H81.9149Z" fill="white" style="fill:white;fill-opacity:1;"/>
<path d="M88.1299 9.03114V1.08008H92.7045V1.97321H89.0993V4.43477H92.3233V5.31702H89.0993V8.13801H92.7045V9.03114H88.1299Z" fill="white" style="fill:white;fill-opacity:1;"/>
<path d="M94.3667 9.03114V1.08008H96.6213C97.3475 1.08008 97.9138 1.26161 98.3205 1.62467C98.7343 1.98773 98.9413 2.49239 98.9413 3.13864C98.9413 3.5017 98.8651 3.81757 98.7126 4.08623C98.5601 4.3549 98.3422 4.56185 98.0591 4.70707C97.7831 4.8523 97.4491 4.92128 97.057 4.91402V4.75064C97.4782 4.74338 97.8412 4.82325 98.1462 4.99026C98.4584 5.15727 98.698 5.39689 98.8651 5.70912C99.0393 6.02136 99.1265 6.39168 99.1265 6.82009C99.1265 7.27029 99.0321 7.6624 98.8433 7.99642C98.6545 8.33043 98.3858 8.58821 98.0373 8.76974C97.6887 8.94401 97.2712 9.03114 96.7847 9.03114H94.3667ZM95.3252 8.1489H96.6758C97.1332 8.1489 97.4927 8.02909 97.7541 7.78947C98.0227 7.54259 98.1571 7.20857 98.1571 6.78742C98.1571 6.35174 98.0227 5.99957 97.7541 5.73091C97.4927 5.45498 97.1332 5.31702 96.6758 5.31702H95.3252V8.1489ZM95.3252 4.46745H96.6104C97.0316 4.46745 97.362 4.3549 97.6016 4.1298C97.8485 3.9047 97.9719 3.59973 97.9719 3.21488C97.9719 2.83004 97.8521 2.52507 97.6125 2.29997C97.3729 2.07487 97.0425 1.96232 96.6213 1.96232H95.3252V4.46745Z" fill="white" style="fill:white;fill-opacity:1;"/>
<path d="M81.8169 20.9211V12.97H86.3915V13.8632H82.7863V16.3247H86.0103V17.207H82.7863V20.028H86.3915V20.9211H81.8169Z" fill="white" style="fill:white;fill-opacity:1;"/>
<path d="M88.021 20.9211V12.97H89.328L91.7569 19.7775C91.7424 19.5959 91.7242 19.3745 91.7025 19.1131C91.6879 18.8444 91.6734 18.5648 91.6589 18.2744C91.6516 17.9767 91.648 17.6971 91.648 17.4357V12.97H92.5956V20.9211H91.2886L88.8706 14.1137C88.8851 14.288 88.8996 14.5094 88.9141 14.7781C88.9287 15.0395 88.9395 15.3191 88.9468 15.6168C88.9613 15.9072 88.9686 16.1868 88.9686 16.4554V20.9211H88.021Z" fill="white" style="fill:white;fill-opacity:1;"/>
<path d="M96.6649 21.03C96.1857 21.03 95.7681 20.9393 95.4123 20.7577C95.0638 20.5762 94.7915 20.3148 94.5954 19.9735C94.4066 19.625 94.3122 19.2147 94.3122 18.7427V15.1484C94.3122 14.6692 94.4066 14.2589 94.5954 13.9176C94.7915 13.5764 95.0638 13.315 95.4123 13.1334C95.7681 12.9519 96.1857 12.8611 96.6649 12.8611C97.1441 12.8611 97.558 12.9555 97.9066 13.1443C98.2551 13.3258 98.5238 13.5873 98.7126 13.9285C98.9014 14.2698 98.9958 14.6764 98.9958 15.1484H98.0155C98.0155 14.6982 97.8957 14.3533 97.6561 14.1137C97.4237 13.8668 97.0933 13.7434 96.6649 13.7434C96.2365 13.7434 95.8988 13.8632 95.6519 14.1028C95.4123 14.3424 95.2925 14.6873 95.2925 15.1375V18.7427C95.2925 19.1929 95.4123 19.5415 95.6519 19.7884C95.8988 20.0352 96.2365 20.1587 96.6649 20.1587C97.0933 20.1587 97.4237 20.0352 97.6561 19.7884C97.8957 19.5415 98.0155 19.1929 98.0155 18.7427V17.7625H96.4035V16.8693H98.9958V18.7427C98.9958 19.2075 98.9014 19.6141 98.7126 19.9626C98.5238 20.3039 98.2551 20.5689 97.9066 20.7577C97.558 20.9393 97.1441 21.03 96.6649 21.03Z" fill="white" style="fill:white;fill-opacity:1;"/>
<path d="M100.81 20.9211V20.028H102.433V13.8632H100.81V12.97H105.058V13.8632H103.435V20.028H105.058V20.9211H100.81Z" fill="white" style="fill:white;fill-opacity:1;"/>
<path d="M106.96 20.9211V12.97H108.267L110.696 19.7775C110.681 19.5959 110.663 19.3745 110.642 19.1131C110.627 18.8444 110.613 18.5648 110.598 18.2744C110.591 17.9767 110.587 17.6971 110.587 17.4357V12.97H111.535V20.9211H110.228L107.81 14.1137C107.824 14.288 107.839 14.5094 107.853 14.7781C107.868 15.0395 107.879 15.3191 107.886 15.6168C107.9 15.9072 107.908 16.1868 107.908 16.4554V20.9211H106.96Z" fill="white" style="fill:white;fill-opacity:1;"/>
<path d="M113.382 20.9211V12.97H117.957V13.8632H114.351V16.3247H117.575V17.207H114.351V20.028H117.957V20.9211H113.382Z" fill="white" style="fill:white;fill-opacity:1;"/>
<path d="M119.695 20.9211V12.97H124.27V13.8632H120.664V16.3247H123.888V17.207H120.664V20.028H124.27V20.9211H119.695Z" fill="white" style="fill:white;fill-opacity:1;"/>
<path d="M125.921 20.9211V12.97H128.383C128.855 12.97 129.268 13.0681 129.624 13.2641C129.98 13.4529 130.256 13.718 130.452 14.0592C130.648 14.4005 130.746 14.7999 130.746 15.2573C130.746 15.7947 130.604 16.2558 130.321 16.6406C130.045 17.0255 129.668 17.2905 129.189 17.4357L130.855 20.9211H129.7L128.176 17.5446H126.901V20.9211H125.921ZM126.901 16.6624H128.383C128.789 16.6624 129.116 16.5353 129.363 16.2812C129.61 16.0198 129.733 15.6785 129.733 15.2573C129.733 14.8289 129.61 14.4876 129.363 14.2335C129.116 13.9794 128.789 13.8523 128.383 13.8523H126.901V16.6624Z" fill="white" style="fill:white;fill-opacity:1;"/>
<path d="M132.376 20.9211V20.028H133.998V13.8632H132.376V12.97H136.623V13.8632H135.001V20.028H136.623V20.9211H132.376Z" fill="white" style="fill:white;fill-opacity:1;"/>
<path d="M138.525 20.9211V12.97H139.832L142.261 19.7775C142.247 19.5959 142.228 19.3745 142.207 19.1131C142.192 18.8444 142.178 18.5648 142.163 18.2744C142.156 17.9767 142.152 17.6971 142.152 17.4357V12.97H143.1V20.9211H141.793L139.375 14.1137C139.389 14.288 139.404 14.5094 139.418 14.7781C139.433 15.0395 139.444 15.3191 139.451 15.6168C139.466 15.9072 139.473 16.1868 139.473 16.4554V20.9211H138.525Z" fill="white" style="fill:white;fill-opacity:1;"/>
<path d="M147.169 21.03C146.69 21.03 146.272 20.9393 145.917 20.7577C145.568 20.5762 145.296 20.3148 145.1 19.9735C144.911 19.625 144.816 19.2147 144.816 18.7427V15.1484C144.816 14.6692 144.911 14.2589 145.1 13.9176C145.296 13.5764 145.568 13.315 145.917 13.1334C146.272 12.9519 146.69 12.8611 147.169 12.8611C147.648 12.8611 148.062 12.9555 148.411 13.1443C148.759 13.3258 149.028 13.5873 149.217 13.9285C149.406 14.2698 149.5 14.6764 149.5 15.1484H148.52C148.52 14.6982 148.4 14.3533 148.16 14.1137C147.928 13.8668 147.598 13.7434 147.169 13.7434C146.741 13.7434 146.403 13.8632 146.156 14.1028C145.917 14.3424 145.797 14.6873 145.797 15.1375V18.7427C145.797 19.1929 145.917 19.5415 146.156 19.7884C146.403 20.0352 146.741 20.1587 147.169 20.1587C147.598 20.1587 147.928 20.0352 148.16 19.7884C148.4 19.5415 148.52 19.1929 148.52 18.7427V17.7625H146.908V16.8693H149.5V18.7427C149.5 19.2075 149.406 19.6141 149.217 19.9626C149.028 20.3039 148.759 20.5689 148.411 20.7577C148.062 20.9393 147.648 21.03 147.169 21.03Z" fill="white" style="fill:white;fill-opacity:1;"/>
<path d="M84.0388 32.92C83.516 32.92 83.0658 32.8329 82.6882 32.6586C82.3179 32.4843 82.0311 32.2338 81.8278 31.9071C81.6245 31.5803 81.5192 31.1918 81.5119 30.7416H82.4922C82.4922 31.141 82.6265 31.4569 82.8952 31.6892C83.1711 31.9216 83.5523 32.0378 84.0388 32.0378C84.4963 32.0378 84.8521 31.9252 85.1062 31.7001C85.3676 31.475 85.4983 31.1628 85.4983 30.7634C85.4983 30.4439 85.4112 30.1644 85.2369 29.9247C85.0699 29.6851 84.8267 29.5181 84.5072 29.4237L83.4289 29.0861C82.8843 28.9191 82.4631 28.6395 82.1654 28.2474C81.875 27.8553 81.7298 27.3942 81.7298 26.8641C81.7298 26.4357 81.8242 26.0654 82.0129 25.7532C82.209 25.4337 82.4813 25.1868 82.8298 25.0125C83.1784 24.831 83.5886 24.7402 84.0606 24.7402C84.7577 24.7402 85.3168 24.9363 85.738 25.3284C86.1591 25.7132 86.3733 26.2288 86.3806 26.875H85.4003C85.4003 26.4829 85.2805 26.1779 85.0409 25.9601C84.8085 25.735 84.4781 25.6224 84.0497 25.6224C83.6286 25.6224 83.2982 25.7241 83.0586 25.9274C82.8262 26.1307 82.71 26.4139 82.71 26.777C82.71 27.1037 82.7972 27.3869 82.9714 27.6266C83.1457 27.8662 83.3962 28.0368 83.723 28.1385L84.8122 28.487C85.3422 28.654 85.7525 28.9372 86.0429 29.3366C86.3334 29.7359 86.4786 30.2043 86.4786 30.7416C86.4786 31.1773 86.377 31.5585 86.1736 31.8853C85.9703 32.212 85.6835 32.4662 85.3132 32.6477C84.9501 32.8292 84.5253 32.92 84.0388 32.92Z" fill="white" style="fill:white;fill-opacity:1;"/>
<path d="M90.3083 32.92C89.5676 32.92 89.0013 32.7167 88.6092 32.3101C88.2171 31.8962 88.021 31.337 88.021 30.6327V24.86H89.0013V30.6327C89.0013 31.0684 89.1066 31.4133 89.3171 31.6674C89.535 31.9216 89.8654 32.0487 90.3083 32.0487C90.744 32.0487 91.0707 31.9216 91.2886 31.6674C91.5064 31.4133 91.6153 31.0684 91.6153 30.6327V24.86H92.5956V30.6327C92.5956 31.3443 92.3995 31.9034 92.0074 32.3101C91.6226 32.7167 91.0562 32.92 90.3083 32.92Z" fill="white" style="fill:white;fill-opacity:1;"/>
<path d="M94.1815 32.8111V24.86H95.4668L96.2946 27.4305C96.3744 27.6629 96.4471 27.8952 96.5124 28.1276C96.5778 28.3527 96.625 28.5269 96.654 28.6504C96.6903 28.5269 96.7375 28.3527 96.7956 28.1276C96.8537 27.8952 96.919 27.6592 96.9916 27.4196L97.7759 24.86H99.0611V32.8111H98.1026V29.9247C98.1026 29.6052 98.1135 29.2422 98.1353 28.8356C98.1571 28.4289 98.1861 28.015 98.2224 27.5939C98.2587 27.1655 98.295 26.7588 98.3313 26.374C98.3749 25.9819 98.4112 25.6406 98.4403 25.3502L97.155 29.3257H96.1203L94.8242 25.3502C94.8605 25.6333 94.8968 25.9637 94.9331 26.3413C94.9694 26.7116 95.0021 27.1074 95.0311 27.5285C95.0602 27.9424 95.0856 28.3563 95.1074 28.7702C95.1291 29.1841 95.14 29.5689 95.14 29.9247V32.8111H94.1815Z" fill="white" style="fill:white;fill-opacity:1;"/>
<path d="M100.495 32.8111V24.86H101.78L102.608 27.4305C102.687 27.6629 102.76 27.8952 102.825 28.1276C102.891 28.3527 102.938 28.5269 102.967 28.6504C103.003 28.5269 103.051 28.3527 103.109 28.1276C103.167 27.8952 103.232 27.6592 103.305 27.4196L104.089 24.86H105.374V32.8111H104.416V29.9247C104.416 29.6052 104.427 29.2422 104.448 28.8356C104.47 28.4289 104.499 28.015 104.535 27.5939C104.572 27.1655 104.608 26.7588 104.644 26.374C104.688 25.9819 104.724 25.6406 104.753 25.3502L103.468 29.3257H102.433L101.137 25.3502C101.174 25.6333 101.21 25.9637 101.246 26.3413C101.282 26.7116 101.315 27.1074 101.344 27.5285C101.373 27.9424 101.399 28.3563 101.42 28.7702C101.442 29.1841 101.453 29.5689 101.453 29.9247V32.8111H100.495Z" fill="white" style="fill:white;fill-opacity:1;"/>
<path d="M107.123 32.8111V31.9179H108.746V25.7532H107.123V24.86H111.371V25.7532H109.748V31.9179H111.371V32.8111H107.123Z" fill="white" style="fill:white;fill-opacity:1;"/>
<path d="M115.07 32.8111V25.7423H112.892V24.8491H118.229V25.7423H116.051V32.8111H115.07Z" fill="white" style="fill:white;fill-opacity:1;"/>
</svg>
