<svg width="279" height="315" viewBox="0 0 279 315" fill="none" xmlns="http://www.w3.org/2000/svg">
<path d="M0 0V279.22H179.68L218.77 314.44V279.22H278.03V0H0Z" fill="#FEF502"/>
<path d="M198.46 248.64C188.92 248.64 180.64 247.13 173.63 244.11C166.61 241.09 161.14 236.71 157.2 230.97C153.26 225.23 151.13 218.34 150.79 210.3H171.59C171.87 214.85 173.21 218.62 175.62 221.61C178.03 224.6 181.22 226.87 185.19 228.39C189.15 229.92 193.52 230.68 198.29 230.68C203.45 230.68 207.97 229.9 211.85 228.35C215.73 226.8 218.78 224.61 221 221.78C223.22 218.95 224.33 215.68 224.33 211.96C224.33 208.63 223.39 205.86 221.5 203.64C219.61 201.42 216.95 199.58 213.51 198.11C210.07 196.64 206.02 195.3 201.36 194.08L187.3 190.42C176.71 187.7 168.53 183.65 162.76 178.27C156.99 172.89 154.11 165.87 154.11 157.22C154.11 149.95 156.04 143.6 159.89 138.17C163.74 132.74 169.07 128.51 175.86 125.48C182.65 122.46 190.32 120.95 198.86 120.95C207.4 120.95 215.29 122.48 221.86 125.53C228.43 128.58 233.59 132.78 237.33 138.13C241.07 143.48 243.03 149.68 243.2 156.72H222.98C222.37 151.06 219.89 146.67 215.53 143.53C211.18 140.4 205.53 138.83 198.6 138.83C193.83 138.83 189.66 139.57 186.08 141.03C182.5 142.5 179.76 144.54 177.84 147.14C175.93 149.75 174.97 152.69 174.97 155.96C174.97 159.51 176.05 162.42 178.21 164.7C180.37 166.98 183.13 168.82 186.49 170.23C189.85 171.64 193.3 172.8 196.85 173.68L208.75 176.76C213.46 177.81 217.97 179.27 222.27 181.13C226.57 182.99 230.44 185.29 233.88 188.04C237.32 190.79 240.04 194.13 242.03 198.07C244.03 202.01 245.03 206.61 245.03 211.88C245.03 219.09 243.19 225.47 239.5 231.02C235.81 236.57 230.5 240.89 223.57 244C216.64 247.11 208.26 248.66 198.44 248.66L198.46 248.64Z" fill="black"/>
<path d="M119.16 122.76V196.01C119.16 213.85 104.65 228.36 86.8099 228.36C80.5399 228.36 74.5099 226.52 69.3599 223.22L56.5299 238.51C65.2699 244.73 75.8199 248.23 86.8099 248.23C115.6 248.23 139.03 224.81 139.03 196.01V122.76H119.17H119.16Z" fill="black"/>
<path d="M54.45 122.76H34.59V142.62H54.45V122.76Z" fill="#F0C814"/>
<path d="M54.45 150.87H34.59V170.73H54.45V150.87Z" fill="#F0C814"/>
<path d="M54.51 197.51C54.49 197.01 54.45 196.51 54.45 196V178.97H34.59V196C34.59 197.67 34.7 199.33 34.85 200.97L54.51 197.5V197.51Z" fill="#F0C814"/>
<path d="M55.9099 205.64L36.2799 209.1C37.8199 215.06 40.3899 220.72 43.9699 225.86C45.8299 228.52 47.9199 230.98 50.1899 233.22L63.0299 217.92C62.0399 216.85 60.2599 214.49 60.2599 214.49C58.3499 211.75 56.8899 208.77 55.9199 205.64H55.9099Z" fill="#F0C814"/>
<path d="M86.81 215.74C78.37 215.74 70.93 210.04 68.74 201.88L77.59 199.5C78.71 203.66 82.5 206.57 86.81 206.57C91.12 206.57 94.9 203.66 96.01 199.51L104.87 201.87C102.69 210.04 95.27 215.74 86.81 215.74Z" fill="black"/>
<path d="M100.92 158.51L103.84 167.5H113.29L105.64 173.05L108.56 182.04L100.92 176.48L93.2699 182.04L96.1899 173.05L88.5499 167.5H97.9999L100.92 158.51Z" fill="black"/>
<path d="M72.6899 158.51L75.6099 167.5H85.0599L77.41 173.05L80.3299 182.04L72.6899 176.48L65.0399 182.04L67.9599 173.05L60.3199 167.5H69.7699L72.6899 158.51Z" fill="black"/>
</svg>
