<svg width="118" height="156" viewBox="0 0 118 156" fill="none" xmlns="http://www.w3.org/2000/svg">
<path fill-rule="evenodd" clip-rule="evenodd" d="M59.6825 117.066C53.9087 117.066 49.2176 112.226 49.2176 106.269V105.924H38.5207V106.216C38.5207 118.263 47.9803 128.05 59.6567 128.05C71.3331 128.05 80.8185 118.29 80.8185 106.216V105.924H70.1216V106.216C70.1474 112.173 65.482 117.04 59.7083 117.066H59.6567H59.6825ZM39.062 46.0341C30.6333 46.0873 23.8285 53.1613 23.8801 61.8575C23.9316 70.5537 30.788 77.5745 39.2166 77.5213C47.5937 77.4681 54.3727 70.4739 54.3985 61.8309C54.3985 53.1081 47.5679 46.0607 39.1393 46.0341H39.062ZM34.2677 61.8309C34.2677 59.0917 36.4071 56.8578 39.062 56.8312C41.7169 56.8046 43.882 59.0385 43.9078 61.7777C43.9078 64.5169 41.7684 66.7507 39.1135 66.7773H39.062C36.4071 66.7773 34.2677 64.5701 34.2677 61.8309ZM13.4152 34.0402C42.8252 24.4132 53.9345 18.403 59.0381 15.4245C64.0386 18.3764 75.251 24.3866 104.661 34.0402C104.661 37.4442 106.491 142.118 59.0381 142.038C11.5851 141.958 13.4152 37.4442 13.4152 34.0402ZM59.0381 156C120.41 156 117.987 28.3491 117.987 23.9345C79.9679 11.4886 65.5336 3.74974 59.0381 0C52.4911 3.80293 38.0309 11.5418 0.0118275 23.9345C0.0118275 28.3491 -2.33375 156.08 59.0381 156ZM63.987 56.1132V66.7507H93.5259V56.1132H63.987Z" fill="white" />
</svg>
