<?xml version="1.0" encoding="utf-8"?>
<!-- Generator: Adobe Illustrator 23.0.5, SVG Export Plug-In . SVG Version: 6.00 Build 0)  -->
<svg version="1.1" id="Layer_1" xmlns="http://www.w3.org/2000/svg" xmlns:xlink="http://www.w3.org/1999/xlink" x="0px" y="0px"
	 width="191.8px" height="74.8px" viewBox="0 0 191.8 74.8" style="enable-background:new 0 0 191.8 74.8;" xml:space="preserve">
<style type="text/css">
	.st0{fill-rule:evenodd;clip-rule:evenodd;fill:#fef502;}
	.st1{fill-rule:evenodd;clip-rule:evenodd;fill:#323230;}
	.st2{fill:#323230;}
	.st3{fill-rule:evenodd;clip-rule:evenodd;fill:#DDC92F;}
	.st4{fill-rule:evenodd;clip-rule:evenodd;fill:#FFFFFF;}
	.st5{fill:#FF2407;}
	.st6{fill:#FFFFFF;}
</style>
<g>
	<polygon class="st0" points="66.5,0.1 0,0.1 0,66.5 43,66.5 52.4,74.8 52.4,66.5 66.5,66.5 	"/>
	<path class="st1" d="M24.9,48.7c-1,0-1.9-0.7-2.2-1.6l-2.2,0.5c0.6,1.9,2.3,3.3,4.4,3.3c2.1,0,3.9-1.4,4.4-3.3l-2.2-0.5
		C26.8,48,26,48.7,24.9,48.7L24.9,48.7z"/>
	<path class="st2" d="M41.4,53.4l3.8-1.8c0.4,1.3,1,2.3,2,3c1,0.7,2.2,1,3.7,1c1.4,0,2.5-0.4,3.4-1.2c0.8-0.8,1.2-1.8,1.2-3.2
		c0-1.7-1.4-3.3-4.3-4.6c-0.4-0.2-0.7-0.3-0.9-0.4c-3.2-1.6-5.4-3-6.5-4.3c-1.1-1.3-1.6-2.8-1.6-4.7c0-2.4,0.8-4.3,2.4-5.8
		c1.6-1.5,3.8-2.2,6.4-2.2c2.2,0,4,0.4,5.4,1.3c1.5,0.8,2.5,2,3,3.6l-3.7,1.9c-0.6-0.9-1.2-1.6-1.9-2c-0.7-0.4-1.5-0.6-2.4-0.6
		c-1.3,0-2.3,0.3-3.1,1c-0.8,0.7-1.1,1.6-1.1,2.7c0,1.8,1.6,3.4,5,4.9c0.2,0.1,0.4,0.2,0.6,0.3c2.9,1.3,4.9,2.6,6,3.9
		c1.1,1.3,1.6,2.9,1.6,4.8c0,2.8-0.9,5-2.6,6.6c-1.7,1.6-4.1,2.4-7.1,2.4c-2.5,0-4.5-0.6-6.1-1.7S41.9,55.6,41.4,53.4L41.4,53.4z
		 M24.8,59.8c7,0,12.6-5.7,12.6-12.6V30.1c-1.6-0.1-3.2-0.2-4.8-0.3v5.5l0,0v11.9c0,4.3-3.5,7.8-7.8,7.8c-1.2,0-2.4-0.3-3.4-0.8
		l-3.2,3.7C20.1,59.1,22.4,59.8,24.8,59.8L24.8,59.8z"/>
	<path class="st3" d="M12.2,30.2v4.9H17v-0.4l0,0v-4.8C15.4,29.9,13.8,30,12.2,30.2L12.2,30.2z"/>
	<path class="st3" d="M18.8,29.7v4.8c1.7-0.1,3.4-0.1,5.1-0.1v-4.8C22.2,29.6,20.5,29.6,18.8,29.7L18.8,29.7z"/>
	<path class="st3" d="M25.7,29.6v4.8c1.7,0,3.4,0.1,5.1,0.1v-4.8C29.1,29.6,27.4,29.6,25.7,29.6L25.7,29.6z"/>
	<rect x="12.2" y="36.9" class="st3" width="4.8" height="5.1"/>
	<path class="st3" d="M17,47.2v-3.5h-4.8v3.5c0,0.8,0.1,1.6,0.2,2.4l4.7-1.1C17.1,48,17,47.6,17,47.2L17,47.2z"/>
	<path class="st3" d="M19.9,53.2c-1-0.8-1.8-1.9-2.3-3.1c-0.4,0.1-4.6,1.2-4.7,1.2c0.8,2.2,2.1,4.1,3.8,5.5L19.9,53.2z"/>
	<path class="st4" d="M191.8,59.5h-4.6V48.1c0-3.8-1.3-5.7-4-5.7c-1.4,0-2.6,0.5-3.5,1.6c-0.9,1-1.4,2.4-1.4,4v11.5h-4.6V39.2h4.6
		v3.4h0.1c1.5-2.6,3.7-3.8,6.6-3.8c2.2,0,3.9,0.7,5,2.1c1.2,1.4,1.7,3.5,1.7,6.2V59.5z M75.6,59.5c0-9.9,0-19.8,0-29.7h4.6
		l14.1,20.5V29.8c1.6,0,3.2,0,4.7,0v29.7h-4.5L80.2,39.1v20.5C78.7,59.5,77.1,59.5,75.6,59.5L75.6,59.5z M120.3,59.5h-4.4v-3.2h-0.1
		c-1.4,2.4-3.5,3.6-6.1,3.6c-2,0-3.6-0.5-4.7-1.6s-1.7-2.5-1.7-4.3c0-3.8,2.2-6,6.6-6.7l6-0.9c0-2.9-1.4-4.3-4.1-4.3
		c-2.4,0-4.6,0.8-6.5,2.5v-4c2.1-1.3,4.6-1.9,7.4-1.9c5.1,0,7.7,2.5,7.7,7.5V59.5z M115.8,49.5l-4.3,0.6c-1.3,0.2-2.3,0.5-3,1
		c-0.7,0.5-1,1.3-1,2.5c0,0.9,0.3,1.6,0.9,2.1c0.6,0.6,1.4,0.8,2.5,0.8c1.4,0,2.6-0.5,3.5-1.5c0.9-1,1.4-2.2,1.4-3.7V49.5z
		 M136.2,59.2c-0.9,0.4-2.1,0.7-3.5,0.7c-3.9,0-5.9-1.9-5.9-5.7V42.8h-3.4v-3.6h3.4v-4.7l4.6-1.3v6h4.8v3.6h-4.8v10.1
		c0,1.2,0.2,2.1,0.6,2.6c0.4,0.5,1.2,0.8,2.2,0.8c0.8,0,1.4-0.2,2-0.7V59.2z M143.2,35c-0.7,0-1.4-0.2-1.9-0.7
		c-0.5-0.5-0.8-1.1-0.8-1.9c0-0.8,0.3-1.4,0.8-1.9c0.5-0.5,1.2-0.8,1.9-0.8c0.8,0,1.4,0.3,2,0.8c0.5,0.5,0.8,1.1,0.8,1.9
		c0,0.7-0.3,1.3-0.8,1.8C144.7,34.7,144,35,143.2,35L143.2,35z M145.5,59.5h-4.6V39.2h4.6V59.5z M159.4,59.9c-3.1,0-5.6-0.9-7.5-2.8
		c-1.9-1.9-2.8-4.4-2.8-7.5c0-3.4,1-6,2.9-8c1.9-1.9,4.6-2.9,7.9-2.9c3.2,0,5.6,0.9,7.4,2.8c1.8,1.9,2.6,4.4,2.6,7.7
		c0,3.2-0.9,5.8-2.9,7.7C165.2,59,162.7,59.9,159.4,59.9L159.4,59.9z M159.7,42.4c-1.8,0-3.2,0.6-4.3,1.9c-1,1.3-1.6,3-1.6,5.2
		c0,2.1,0.5,3.8,1.6,5c1,1.2,2.5,1.8,4.2,1.8c1.8,0,3.2-0.6,4.2-1.8c1-1.2,1.5-2.9,1.5-5.1s-0.5-3.9-1.5-5.1
		C162.9,43,161.5,42.4,159.7,42.4L159.7,42.4z"/>
	<path class="st1" d="M21.8,39.3c-1.1,0-2,0.9-2,2c0,1.1,0.9,2,2,2c1.1,0,2-0.9,2-2C23.8,40.2,22.9,39.3,21.8,39.3L21.8,39.3z"/>
	<path class="st1" d="M27.8,39.3c-1.1,0-2,0.9-2,2c0,1.1,0.9,2,2,2s2-0.9,2-2C29.8,40.2,28.9,39.3,27.8,39.3L27.8,39.3z"/>
</g>
<rect x="148.8" class="st5" width="43" height="18"/>
<g>
	<path class="st6" d="M154.6,13.8V4h2.2v7.8h4.9v2H154.6z"/>
	<path class="st6" d="M163.3,13.8V4h2.2v9.8H163.3z"/>
	<path class="st6" d="M171.1,13.8l-4-9.9h2.4l2.6,6.9l2.6-6.9h2.3l-4,9.9H171.1z"/>
	<path class="st6" d="M178.5,13.8V4h7.4v1.9h-5.3v2h4.6v1.9h-4.6v2.1h5.3v1.9H178.5z"/>
</g>
</svg>
