<?xml version="1.0" encoding="utf-8"?>
<!-- Generator: Adobe Illustrator 23.0.5, SVG Export Plug-In . SVG Version: 6.00 Build 0)  -->
<svg version="1.1" id="Layer_1" xmlns="http://www.w3.org/2000/svg" xmlns:xlink="http://www.w3.org/1999/xlink" x="0px" y="0px"
	 viewBox="0 0 127.2 50" style="enable-background:new 0 0 127.2 50;" xml:space="preserve">
<style type="text/css">
	.st0{clip-path:url(#SVGID_2_);}
	.st1{fill-rule:evenodd;clip-rule:evenodd;fill:#FEF502;}
	.st2{fill-rule:evenodd;clip-rule:evenodd;fill:#2E2E2C;}
	.st3{fill:#2E2E2C;}
	.st4{fill-rule:evenodd;clip-rule:evenodd;fill:#E6CB00;}
	.st5{fill:#E6CB00;}
	.st6{fill-rule:evenodd;clip-rule:evenodd;fill:#FFFFFF;}
	.st7{fill:#FFFFFF;}
</style>
<g>
	<defs>
		<rect id="SVGID_1_" width="127.2" height="50"/>
	</defs>
	<clipPath id="SVGID_2_">
		<use xlink:href="#SVGID_1_"  style="overflow:visible;"/>
	</clipPath>
	<g class="st0">
		<path class="st1" d="M44.1,0H0v44.4h28.5l6.2,5.6v-5.6h9.4V0z"/>
		<path class="st2" d="M16.5,32.5c-0.3,0-0.6-0.1-0.9-0.3c-0.3-0.2-0.5-0.4-0.6-0.8l-1.5,0.4c0.2,0.6,0.6,1.2,1.1,1.6
			c0.5,0.4,1.2,0.6,1.8,0.6c0.7,0,1.3-0.2,1.8-0.6c0.5-0.4,0.9-0.9,1.1-1.6L18,31.5c-0.1,0.3-0.3,0.6-0.6,0.8
			C17.2,32.4,16.9,32.5,16.5,32.5L16.5,32.5z"/>
		<path class="st3" d="M27.5,35.7l2.5-1.2c0.2,0.8,0.7,1.5,1.3,2c0.7,0.5,1.6,0.7,2.4,0.7c0.8,0,1.6-0.2,2.2-0.8
			c0.3-0.3,0.5-0.6,0.6-1s0.2-0.8,0.2-1.1c0-1.2-0.9-2.2-2.8-3.1c-0.3-0.1-0.5-0.2-0.6-0.3c-2.1-1.1-3.6-2-4.3-2.9
			c-0.7-0.9-1.1-2-1.1-3.1c0-0.7,0.1-1.4,0.4-2.1c0.3-0.7,0.7-1.3,1.2-1.8c1.1-1,2.5-1.5,4.2-1.5c1.3,0,2.5,0.3,3.6,0.8
			c0.9,0.5,1.7,1.4,2,2.4L37,24.1c-0.3-0.5-0.8-1-1.3-1.3c-0.6-0.3-1.2-0.5-1.9-0.4c-0.6,0-1.3,0.3-1.8,0.7
			c-0.2,0.2-0.4,0.5-0.6,0.8c-0.1,0.3-0.2,0.6-0.2,1c0,1.2,1.1,2.3,3.3,3.3c0.2,0.1,0.3,0.1,0.4,0.2c1.9,0.9,3.2,1.8,4,2.6
			c0.7,0.9,1.1,2,1.1,3.2c0,1.9-0.6,3.3-1.7,4.4c-1.2,1.1-2.7,1.6-4.7,1.6c-1.7,0-3-0.4-4.1-1.2C28.4,38.2,27.7,37,27.5,35.7
			L27.5,35.7z M16.5,40c2.2,0,4.3-0.9,5.9-2.5c1.6-1.6,2.5-3.7,2.5-6V20.1c-1.1-0.1-2.1-0.2-3.2-0.2v3.7v8c0,0.9-0.2,1.8-0.6,2.5
			s-1,1.4-1.8,1.9c-0.7,0.5-1.6,0.7-2.5,0.8c-0.9,0-1.7-0.1-2.5-0.5l-2.1,2.5C13.4,39.5,14.9,40,16.5,40L16.5,40z"/>
		<path class="st4" d="M8.1,20.1v3.3h3.2v-0.3v-3.2C10.2,19.9,9.2,20,8.1,20.1z"/>
		<path class="st4" d="M12.5,19.8V23c1.1-0.1,2.3-0.1,3.4-0.1v-3.2C14.7,19.7,13.6,19.8,12.5,19.8z"/>
		<path class="st4" d="M17,19.7v3.2c1.1,0,2.3,0,3.4,0.1v-3.2C19.3,19.7,18.2,19.7,17,19.7z"/>
		<path class="st5" d="M11.3,24.6H8.1V28h3.2V24.6z"/>
		<path class="st4" d="M11.3,31.5v-2.3H8.1v2.3c0,0.5,0,1.1,0.1,1.6l3.1-0.8C11.3,32.1,11.3,31.8,11.3,31.5z"/>
		<path class="st4" d="M13.2,35.6c-0.7-0.6-1.2-1.3-1.5-2.1l-3.1,0.8C9,35.7,9.9,37,11.1,38L13.2,35.6z"/>
		<path class="st6" d="M50.1,39.8V19.9h3.1l9.3,13.7V19.9h3.1v19.9h-3l-9.4-13.7v13.7H50.1z"/>
		<path class="st7" d="M79.7,39.7h-3v-2.1h0c-0.9,1.6-2.3,2.4-4.1,2.4c-1.3,0-2.4-0.4-3.1-1.1c-0.4-0.4-0.7-0.8-0.9-1.3
			c-0.2-0.5-0.3-1-0.3-1.6c0-2.6,1.5-4,4.4-4.5l4-0.6c0-1.9-0.9-2.9-2.7-2.9c-1.6,0-3.1,0.6-4.3,1.7v-2.7c1.5-0.9,3.2-1.3,4.9-1.3
			c3.4,0,5.1,1.7,5.1,5L79.7,39.7z M76.8,33.1L74,33.5c-0.7,0.1-1.4,0.3-2,0.6c-0.4,0.3-0.7,0.9-0.7,1.7c0,0.3,0,0.5,0.1,0.8
			c0.1,0.2,0.3,0.5,0.5,0.6c0.5,0.4,1,0.6,1.6,0.5c0.4,0,0.9-0.1,1.3-0.2c0.4-0.2,0.8-0.4,1-0.7c0.6-0.7,0.9-1.6,0.9-2.5V33.1z"/>
		<path class="st7" d="M90.3,39.6c-0.7,0.3-1.5,0.5-2.3,0.4c-2.6,0-3.9-1.3-3.9-3.8v-7.7h-2.2v-2.4H84V23l3-0.9v4h3.2v2.4h-3.2v6.8
			c0,0.8,0.1,1.4,0.4,1.7c0.3,0.3,0.8,0.5,1.4,0.5c0.5,0,1-0.1,1.3-0.5L90.3,39.6z"/>
		<path class="st7" d="M95,23.3c-0.5,0-0.9-0.2-1.3-0.5c-0.2-0.2-0.3-0.3-0.4-0.6c-0.1-0.2-0.1-0.4-0.1-0.7c0-0.2,0-0.5,0.1-0.7
			c0.1-0.2,0.2-0.4,0.4-0.6c0.3-0.3,0.8-0.5,1.3-0.5c0.5,0,1,0.2,1.3,0.5c0.2,0.2,0.3,0.4,0.4,0.6c0.1,0.2,0.1,0.5,0.1,0.7
			c0,0.2,0,0.5-0.1,0.7s-0.2,0.4-0.4,0.6C95.9,23.2,95.4,23.3,95,23.3L95,23.3z M96.5,39.7h-3V26.2h3V39.7z"/>
		<path class="st7" d="M105.7,40c-2.1,0-3.7-0.6-5-1.9c-1.2-1.3-1.9-2.9-1.9-5c0-2.3,0.6-4,1.9-5.3c1.3-1.3,3-1.9,5.2-1.9
			c2.1,0,3.7,0.6,4.9,1.9c1.2,1.2,1.8,3,1.8,5.2c0,2.2-0.6,3.9-1.9,5.2C109.5,39.4,107.8,40,105.7,40z M105.8,28.3
			c-0.5,0-1.1,0.1-1.6,0.3s-0.9,0.5-1.3,1c-0.7,0.8-1,2-1,3.5c0,1.4,0.4,2.5,1,3.3c0.3,0.4,0.8,0.7,1.3,0.9c0.5,0.2,1,0.3,1.5,0.3
			c1.2,0,2.1-0.4,2.8-1.2c0.6-0.8,1-2,1-3.4c0-1.5-0.3-2.6-1-3.5C108,28.7,107,28.3,105.8,28.3L105.8,28.3z"/>
		<path class="st7" d="M127.2,39.7h-3v-7.6c0-2.5-0.9-3.8-2.7-3.8c-0.4,0-0.9,0.1-1.3,0.3c-0.4,0.2-0.8,0.4-1,0.8
			c-0.6,0.7-0.9,1.7-0.9,2.6v7.7h-3.1V26.2h3.1v2.3h0.1c1-1.7,2.5-2.6,4.4-2.6c1.5,0,2.6,0.5,3.3,1.4c0.8,1,1.2,2.3,1.2,4.1
			L127.2,39.7z"/>
		<path class="st2" d="M14.5,26.2c-0.3,0-0.5,0.1-0.7,0.2c-0.2,0.1-0.4,0.4-0.5,0.6c-0.1,0.2-0.1,0.5-0.1,0.8
			c0.1,0.3,0.2,0.5,0.4,0.7c0.2,0.2,0.4,0.3,0.7,0.4c0.3,0.1,0.5,0,0.8-0.1c0.2-0.1,0.4-0.3,0.6-0.5c0.1-0.2,0.2-0.5,0.2-0.7
			c0-0.4-0.1-0.7-0.4-0.9C15.2,26.4,14.8,26.2,14.5,26.2z"/>
		<path class="st2" d="M18.4,26.2c-0.3,0-0.5,0.1-0.7,0.2s-0.4,0.4-0.5,0.6c-0.1,0.2-0.1,0.5-0.1,0.8c0.1,0.3,0.2,0.5,0.4,0.7
			c0.2,0.2,0.4,0.3,0.7,0.4c0.3,0.1,0.5,0,0.8-0.1c0.2-0.1,0.4-0.3,0.6-0.5c0.1-0.2,0.2-0.5,0.2-0.7c0-0.4-0.1-0.7-0.4-0.9
			C19.1,26.4,18.8,26.2,18.4,26.2z"/>
	</g>
</g>
</svg>
