<svg width="148" height="155" viewBox="0 0 148 155" fill="none" xmlns="http://www.w3.org/2000/svg">
<path d="M9.72753 56.9043L0 53.26L0.805903 51.1324L8.5882 54.0479L10.4146 49.2264L12.3599 49.9552L9.72619 56.9057L9.72753 56.9043Z" fill="#FEF502"/>
<path d="M9.72753 56.9043L0 53.26L0.805903 51.1324L8.5882 54.0479L10.4146 49.2264L12.3599 49.9552L9.72619 56.9057L9.72753 56.9043Z" fill="#FEF502"/>
<path d="M15.7968 40.7309C16.1964 42.1524 16.0087 43.5511 15.2379 44.927C14.4671 46.3028 13.3723 47.1928 11.9563 47.5955C10.5402 47.9995 9.17407 47.8371 7.86059 47.1082C6.55522 46.3847 5.70342 45.3122 5.30384 43.8907C4.90561 42.4692 5.09055 41.0705 5.86271 39.6947C6.63351 38.3188 7.7283 37.4288 9.14437 37.0261C10.5604 36.6221 11.9266 36.7845 13.24 37.5134C14.5454 38.2369 15.3972 39.3094 15.7968 40.7309ZM11.4811 45.3807C12.3234 45.1713 12.966 44.6719 13.4101 43.88C13.8542 43.0893 13.9433 42.288 13.6788 41.4759C13.4142 40.6638 12.8796 40.0356 12.075 39.59C11.2799 39.1483 10.4605 39.0329 9.61819 39.2423C8.77584 39.4517 8.13193 39.951 7.68915 40.743C7.24503 41.5336 7.15593 42.335 7.42052 43.1471C7.6851 43.9592 8.21967 44.5874 9.02423 45.033C9.81933 45.4746 10.6387 45.5901 11.4811 45.3807Z" fill="#FEF502"/>
<path d="M15.7968 40.7309C16.1964 42.1524 16.0087 43.5511 15.2379 44.927C14.4671 46.3028 13.3723 47.1928 11.9563 47.5955C10.5402 47.9995 9.17407 47.8371 7.86059 47.1082C6.55522 46.3847 5.70342 45.3122 5.30384 43.8907C4.90561 42.4692 5.09055 41.0705 5.86271 39.6947C6.63351 38.3188 7.7283 37.4288 9.14437 37.0261C10.5604 36.6221 11.9266 36.7845 13.24 37.5134C14.5454 38.2369 15.3972 39.3094 15.7968 40.7309ZM11.4811 45.3807C12.3234 45.1713 12.966 44.6719 13.4101 43.88C13.8542 43.0893 13.9433 42.288 13.6788 41.4759C13.4142 40.6638 12.8796 40.0356 12.075 39.59C11.2799 39.1483 10.4605 39.0329 9.61819 39.2423C8.77584 39.4517 8.13193 39.951 7.68915 40.743C7.24503 41.5336 7.15593 42.335 7.42052 43.1471C7.6851 43.9592 8.21967 44.5874 9.02423 45.033C9.81933 45.4746 10.6387 45.5901 11.4811 45.3807Z" fill="#FEF502"/>
<path d="M20.0558 37.1214L9.80043 33.0194L11.396 31.171L18.1389 34.1053L14.2943 27.7683L15.5713 26.289L22.4532 29.1079L18.5142 22.9252L20.0706 21.1212L25.7025 30.5791L24.4066 32.0811L17.7177 29.4475L21.3504 35.6221L20.0544 37.1241L20.0558 37.1214Z" fill="#FEF502"/>
<path d="M20.0558 37.1214L9.80043 33.0194L11.396 31.171L18.1389 34.1053L14.2943 27.7683L15.5713 26.289L22.4532 29.1079L18.5142 22.9252L20.0706 21.1212L25.7025 30.5791L24.4066 32.0811L17.7177 29.4475L21.3504 35.6221L20.0544 37.1241L20.0558 37.1214Z" fill="#FEF502"/>
<path d="M32.4346 24.5293L26.4855 16.054L32.9151 11.5921L34.0788 13.2512L29.512 16.4204L30.7188 18.1399L34.7375 15.3519L35.9012 17.011L31.8824 19.799L33.1311 21.5789L37.7587 18.3681L38.9223 20.0272L32.4319 24.5306L32.4346 24.5293Z" fill="#FEF502"/>
<path d="M32.4346 24.5293L26.4855 16.054L32.9151 11.5921L34.0788 13.2512L29.512 16.4204L30.7188 18.1399L34.7375 15.3519L35.9012 17.011L31.8824 19.799L33.1311 21.5789L37.7587 18.3681L38.9223 20.0272L32.4319 24.5306L32.4346 24.5293Z" fill="#FEF502"/>
<path d="M40.3046 19.1305L35.8148 9.80957L38.0381 8.75049L42.401 11.5183L42.9667 6.4028L45.19 5.34372L49.6798 14.6647L47.6306 15.6405L44.6986 9.55453L43.9777 14.7922L43.9237 14.8177L39.4137 12.1197L42.3254 18.1654L40.3033 19.1278L40.3046 19.1305Z" fill="#FEF502"/>
<path d="M40.3046 19.1305L35.8148 9.80957L38.0381 8.75049L42.401 11.5183L42.9667 6.4028L45.19 5.34372L49.6798 14.6647L47.6306 15.6405L44.6986 9.55453L43.9777 14.7922L43.9237 14.8177L39.4137 12.1197L42.3254 18.1654L40.3033 19.1278L40.3046 19.1305Z" fill="#FEF502"/>
<path d="M51.8937 14.0566L48.6377 4.24168L50.8097 3.52892L54.0657 13.3439L51.8937 14.0566Z" fill="#FEF502"/>
<path d="M51.8937 14.0566L48.6377 4.24168L50.8097 3.52892L54.0657 13.3439L51.8937 14.0566Z" fill="#FEF502"/>
<path d="M59.9352 11.9747C58.2721 12.3344 56.717 12.1076 55.2725 11.2928L56.2485 9.43372C57.4243 10.0351 58.5245 10.2257 59.5491 10.0029C60.004 9.90487 60.3428 9.73977 60.5656 9.51023C60.7883 9.2807 60.8666 9.01224 60.7991 8.70351C60.7357 8.41491 60.5494 8.21088 60.2389 8.09142C59.9284 7.97195 59.3398 7.89544 58.4718 7.86188C57.8603 7.84309 57.3595 7.80282 56.9707 7.74107C56.582 7.67933 56.2013 7.56792 55.826 7.40684C55.4507 7.24576 55.151 7.00683 54.9243 6.68736C54.6975 6.36924 54.5301 5.96386 54.4234 5.47392C54.2237 4.55981 54.3937 3.75309 54.9337 3.05106C55.4737 2.35038 56.2661 1.88594 57.3109 1.65909C58.7526 1.34633 60.1039 1.50204 61.3647 2.12621L60.571 4.05108C59.4681 3.59469 58.515 3.45375 57.7118 3.62691C57.2961 3.71684 56.9923 3.87121 56.802 4.08866C56.6117 4.30612 56.5455 4.55041 56.6049 4.81888C56.6765 5.1464 56.8708 5.36117 57.1867 5.46318C57.5026 5.56654 58.1357 5.635 59.0861 5.67124C60.2524 5.7209 61.146 5.91554 61.767 6.2538C62.388 6.5934 62.7916 7.18536 62.9765 8.03236C63.1912 9.01358 63.0184 9.85386 62.4582 10.5545C61.898 11.2552 61.0556 11.7277 59.9338 11.9707L59.9352 11.9747Z" fill="#FEF502"/>
<path d="M59.9352 11.9747C58.2721 12.3344 56.717 12.1076 55.2725 11.2928L56.2485 9.43372C57.4243 10.0351 58.5245 10.2257 59.5491 10.0029C60.004 9.90487 60.3428 9.73977 60.5656 9.51023C60.7883 9.2807 60.8666 9.01224 60.7991 8.70351C60.7357 8.41491 60.5494 8.21088 60.2389 8.09142C59.9284 7.97195 59.3398 7.89544 58.4718 7.86188C57.8603 7.84309 57.3595 7.80282 56.9707 7.74107C56.582 7.67933 56.2013 7.56792 55.826 7.40684C55.4507 7.24576 55.151 7.00683 54.9243 6.68736C54.6975 6.36924 54.5301 5.96386 54.4234 5.47392C54.2237 4.55981 54.3937 3.75309 54.9337 3.05106C55.4737 2.35038 56.2661 1.88594 57.3109 1.65909C58.7526 1.34633 60.1039 1.50204 61.3647 2.12621L60.571 4.05108C59.4681 3.59469 58.515 3.45375 57.7118 3.62691C57.2961 3.71684 56.9923 3.87121 56.802 4.08866C56.6117 4.30612 56.5455 4.55041 56.6049 4.81888C56.6765 5.1464 56.8708 5.36117 57.1867 5.46318C57.5026 5.56654 58.1357 5.635 59.0861 5.67124C60.2524 5.7209 61.146 5.91554 61.767 6.2538C62.388 6.5934 62.7916 7.18536 62.9765 8.03236C63.1912 9.01358 63.0184 9.85386 62.4582 10.5545C61.898 11.2552 61.0556 11.7277 59.9338 11.9707L59.9352 11.9747Z" fill="#FEF502"/>
<path d="M68.8311 10.6888C67.1343 10.8243 65.6237 10.3921 64.3022 9.39077L65.5198 7.67933C66.6038 8.43236 67.6689 8.7666 68.7137 8.68337C69.1781 8.64579 69.5358 8.52901 69.7882 8.33035C70.0407 8.13303 70.1541 7.87665 70.1284 7.56255C70.1041 7.26858 69.9475 7.04173 69.656 6.882C69.3644 6.72226 68.7906 6.5679 67.9348 6.4189C67.3314 6.31957 66.84 6.21219 66.4634 6.09943C66.0868 5.98668 65.7236 5.8256 65.374 5.61621C65.0244 5.40681 64.7584 5.13029 64.5762 4.78398C64.394 4.43766 64.2833 4.01483 64.2428 3.51416C64.1672 2.5826 64.4452 1.80406 65.0743 1.18123C65.7047 0.558399 66.5525 0.20403 67.6176 0.119465C69.0876 0.00268461 70.4065 0.336919 71.5715 1.12217L70.5253 2.92354C69.494 2.32487 68.5679 2.05775 67.7499 2.12353C67.326 2.15708 67.0047 2.26984 66.786 2.4591C66.5673 2.64971 66.4701 2.88193 66.4917 3.1571C66.5187 3.49134 66.6821 3.72892 66.9818 3.87389C67.2814 4.01752 67.8997 4.17054 68.8365 4.33296C69.9853 4.53699 70.8452 4.84975 71.4149 5.26721C71.9846 5.68601 72.3045 6.32763 72.3747 7.19073C72.4557 8.19209 72.1709 9.0015 71.5202 9.62164C70.8695 10.2418 69.9732 10.5975 68.8284 10.6888H68.8311Z" fill="#FEF502"/>
<path d="M68.8311 10.6888C67.1343 10.8243 65.6237 10.3921 64.3022 9.39077L65.5198 7.67933C66.6038 8.43236 67.6689 8.7666 68.7137 8.68337C69.1781 8.64579 69.5358 8.52901 69.7882 8.33035C70.0407 8.13303 70.1541 7.87665 70.1284 7.56255C70.1041 7.26858 69.9475 7.04173 69.656 6.882C69.3644 6.72226 68.7906 6.5679 67.9348 6.4189C67.3314 6.31957 66.84 6.21219 66.4634 6.09943C66.0868 5.98668 65.7236 5.8256 65.374 5.61621C65.0244 5.40681 64.7584 5.13029 64.5762 4.78398C64.394 4.43766 64.2833 4.01483 64.2428 3.51416C64.1672 2.5826 64.4452 1.80406 65.0743 1.18123C65.7047 0.558399 66.5525 0.20403 67.6176 0.119465C69.0876 0.00268461 70.4065 0.336919 71.5715 1.12217L70.5253 2.92354C69.494 2.32487 68.5679 2.05775 67.7499 2.12353C67.326 2.15708 67.0047 2.26984 66.786 2.4591C66.5673 2.64971 66.4701 2.88193 66.4917 3.1571C66.5187 3.49134 66.6821 3.72892 66.9818 3.87389C67.2814 4.01752 67.8997 4.17054 68.8365 4.33296C69.9853 4.53699 70.8452 4.84975 71.4149 5.26721C71.9846 5.68601 72.3045 6.32763 72.3747 7.19073C72.4557 8.19209 72.1709 9.0015 71.5202 9.62164C70.8695 10.2418 69.9732 10.5975 68.8284 10.6888H68.8311Z" fill="#FEF502"/>
<path d="M74.4657 10.3331L74.7047 0L76.9914 0.0523499L76.7525 10.3854L74.4657 10.3331Z" fill="#FEF502"/>
<path d="M74.4657 10.3331L74.7047 0L76.9914 0.0523499L76.7525 10.3854L74.4657 10.3331Z" fill="#FEF502"/>
<path d="M88.1715 10.2834C86.9754 11.1572 85.5945 11.4794 84.0272 11.2485C82.46 11.0176 81.2369 10.3156 80.3554 9.1411C79.4739 7.96658 79.1445 6.63904 79.3646 5.15982C79.5833 3.69 80.2906 2.51682 81.4867 1.64298C82.6827 0.769141 84.0637 0.446988 85.6309 0.677864C87.1982 0.908741 88.4212 1.61077 89.3027 2.78528C90.1842 3.9598 90.5136 5.28734 90.2935 6.76656C90.0749 8.23773 89.3675 9.40956 88.1715 10.2834ZM82.271 7.91557C82.7664 8.62565 83.463 9.0458 84.3647 9.17868C85.2651 9.31157 86.0507 9.11157 86.7203 8.57733C87.3899 8.04444 87.7921 7.32496 87.9271 6.4189C88.0608 5.52359 87.8799 4.72089 87.3845 4.01081C86.8891 3.30073 86.1911 2.88059 85.2907 2.7477C84.389 2.61481 83.6047 2.81616 82.9351 3.34905C82.2656 3.88195 81.8633 4.60142 81.7283 5.50748C81.5947 6.4028 81.7756 7.20684 82.271 7.91557Z" fill="#FEF502"/>
<path d="M88.1715 10.2834C86.9754 11.1572 85.5945 11.4794 84.0272 11.2485C82.46 11.0176 81.2369 10.3156 80.3554 9.1411C79.4739 7.96658 79.1445 6.63904 79.3646 5.15982C79.5833 3.69 80.2906 2.51682 81.4867 1.64298C82.6827 0.769141 84.0637 0.446988 85.6309 0.677864C87.1982 0.908741 88.4212 1.61077 89.3027 2.78528C90.1842 3.9598 90.5136 5.28734 90.2935 6.76656C90.0749 8.23773 89.3675 9.40956 88.1715 10.2834ZM82.271 7.91557C82.7664 8.62565 83.463 9.0458 84.3647 9.17868C85.2651 9.31157 86.0507 9.11157 86.7203 8.57733C87.3899 8.04444 87.7921 7.32496 87.9271 6.4189C88.0608 5.52359 87.8799 4.72089 87.3845 4.01081C86.8891 3.30073 86.1911 2.88059 85.2907 2.7477C84.389 2.61481 83.6047 2.81616 82.9351 3.34905C82.2656 3.88195 81.8633 4.60142 81.7283 5.50748C81.5947 6.4028 81.7756 7.20684 82.271 7.91557Z" fill="#FEF502"/>
<path d="M91.0941 12.3277L94.373 2.51951L96.3736 3.18126L98.9762 10.7478L100.994 4.70881L103.137 5.4162L99.8577 15.2244L98.0124 14.615L95.3193 6.80146L93.235 13.0365L91.0927 12.3291L91.0941 12.3277Z" fill="#FEF502"/>
<path d="M91.0941 12.3277L94.373 2.51951L96.3736 3.18126L98.9762 10.7478L100.994 4.70881L103.137 5.4162L99.8577 15.2244L98.0124 14.615L95.3193 6.80146L93.235 13.0365L91.0927 12.3291L91.0941 12.3277Z" fill="#FEF502"/>
<path d="M108.432 19.7198L110.313 8.65921L112.466 9.9693L110.962 17.5882L117.102 12.7895L119.203 14.0687L110.155 20.7668L108.432 19.7185V19.7198Z" fill="#FEF502"/>
<path d="M108.432 19.7198L110.313 8.65921L112.466 9.9693L110.962 17.5882L117.102 12.7895L119.203 14.0687L110.155 20.7668L108.432 19.7185V19.7198Z" fill="#FEF502"/>
<path d="M114.719 23.6971L121.413 15.7895L127.411 20.8098L126.102 22.3574L121.841 18.7923L120.483 20.3963L124.232 23.5346L122.921 25.0823L119.172 21.944L117.767 23.6044L122.084 27.2179L120.773 28.7656L114.719 23.6971Z" fill="#FEF502"/>
<path d="M114.719 23.6971L121.413 15.7895L127.411 20.8098L126.102 22.3574L121.841 18.7923L120.483 20.3963L124.232 23.5346L122.921 25.0823L119.172 21.944L117.767 23.6044L122.084 27.2179L120.773 28.7656L114.719 23.6971Z" fill="#FEF502"/>
<path d="M121.984 29.9025L129.819 23.1105L131.206 24.6904L129.583 32.5227L134.406 28.3401L135.89 30.0314L128.055 36.8235L126.777 35.3657L128.449 27.2743L123.468 31.5925L121.984 29.9012V29.9025Z" fill="#FEF502"/>
<path d="M121.984 29.9025L129.819 23.1105L131.206 24.6904L129.583 32.5227L134.406 28.3401L135.89 30.0314L128.055 36.8235L126.777 35.3657L128.449 27.2743L123.468 31.5925L121.984 29.9012V29.9025Z" fill="#FEF502"/>
<path d="M131.428 42.2719C130.683 41.0745 130.438 39.9349 130.69 38.8544C130.942 37.7725 131.709 36.8382 132.988 36.0516L138.039 32.9442L139.242 34.8785L134.242 37.955C133.534 38.3899 133.097 38.8879 132.928 39.449C132.759 40.0101 132.862 40.5927 133.237 41.1953C133.613 41.798 134.084 42.1538 134.652 42.2611C135.219 42.3685 135.848 42.2101 136.539 41.786L141.603 38.6705L142.806 40.6047L137.818 43.6732C136.504 44.4813 135.299 44.7511 134.201 44.484C133.102 44.2155 132.179 43.48 131.43 42.2746L131.428 42.2719Z" fill="#FEF502"/>
<path d="M131.428 42.2719C130.683 41.0745 130.438 39.9349 130.69 38.8544C130.942 37.7725 131.709 36.8382 132.988 36.0516L138.039 32.9442L139.242 34.8785L134.242 37.955C133.534 38.3899 133.097 38.8879 132.928 39.449C132.759 40.0101 132.862 40.5927 133.237 41.1953C133.613 41.798 134.084 42.1538 134.652 42.2611C135.219 42.3685 135.848 42.2101 136.539 41.786L141.603 38.6705L142.806 40.6047L137.818 43.6732C136.504 44.4813 135.299 44.7511 134.201 44.484C133.102 44.2155 132.179 43.48 131.43 42.2746L131.428 42.2719Z" fill="#FEF502"/>
<path d="M134.818 47.8022L144.38 43.7484L147.455 50.9203L145.584 51.7137L143.399 46.6209L141.46 47.4438L143.382 51.9257L141.511 52.719L139.589 48.2371L137.58 49.0881L139.794 54.2493L137.923 55.0426L134.818 47.8035V47.8022Z" fill="#FEF502"/>
<path d="M134.818 47.8022L144.38 43.7484L147.455 50.9203L145.584 51.7137L143.399 46.6209L141.46 47.4438L143.382 51.9257L141.511 52.719L139.589 48.2371L137.58 49.0881L139.794 54.2493L137.923 55.0426L134.818 47.8035V47.8022Z" fill="#FEF502"/>
<path d="M138.308 98.7051L148 102.441L147.174 104.56L139.42 101.572L137.548 106.378L135.609 105.63L138.309 98.7051H138.308Z" fill="#FEF502"/>
<path d="M138.308 98.7051L148 102.441L147.174 104.56L139.42 101.572L137.548 106.378L135.609 105.63L138.309 98.7051H138.308Z" fill="#FEF502"/>
<path d="M132.086 114.818C131.7 113.393 131.899 111.997 132.684 110.627C133.468 109.26 134.571 108.379 135.991 107.988C137.411 107.598 138.775 107.774 140.083 108.513C141.381 109.249 142.224 110.329 142.608 111.755C142.993 113.18 142.795 114.576 142.01 115.946C141.226 117.313 140.125 118.194 138.703 118.585C137.283 118.975 135.92 118.799 134.611 118.06C133.313 117.324 132.471 116.244 132.086 114.818ZM136.445 110.21C135.6 110.411 134.953 110.905 134.501 111.692C134.05 112.478 133.953 113.278 134.209 114.093C134.466 114.907 134.995 115.542 135.794 115.994C136.585 116.442 137.403 116.566 138.248 116.364C139.093 116.163 139.741 115.669 140.192 114.883C140.643 114.096 140.74 113.295 140.484 112.481C140.227 111.666 139.698 111.033 138.899 110.58C138.108 110.132 137.29 110.009 136.445 110.21Z" fill="#FEF502"/>
<path d="M132.086 114.818C131.7 113.393 131.899 111.997 132.684 110.627C133.468 109.26 134.571 108.379 135.991 107.988C137.411 107.598 138.775 107.774 140.083 108.513C141.381 109.249 142.224 110.329 142.608 111.755C142.993 113.18 142.795 114.576 142.01 115.946C141.226 117.313 140.125 118.194 138.703 118.585C137.283 118.975 135.92 118.799 134.611 118.06C133.313 117.324 132.471 116.244 132.086 114.818ZM136.445 110.21C135.6 110.411 134.953 110.905 134.501 111.692C134.05 112.478 133.953 113.278 134.209 114.093C134.466 114.907 134.995 115.542 135.794 115.994C136.585 116.442 137.403 116.566 138.248 116.364C139.093 116.163 139.741 115.669 140.192 114.883C140.643 114.096 140.74 113.295 140.484 112.481C140.227 111.666 139.698 111.033 138.899 110.58C138.108 110.132 137.29 110.009 136.445 110.21Z" fill="#FEF502"/>
<path d="M127.792 118.387L138.008 122.585L136.395 124.418L129.679 121.422L133.464 127.794L132.174 129.261L125.319 126.379L129.2 132.598L127.626 134.388L122.083 124.879L123.392 123.389L130.055 126.085L126.481 119.877L127.79 118.387H127.792Z" fill="#FEF502"/>
<path d="M127.792 118.387L138.008 122.585L136.395 124.418L129.679 121.422L133.464 127.794L132.174 129.261L125.319 126.379L129.2 132.598L127.626 134.388L122.083 124.879L123.392 123.389L130.055 126.085L126.481 119.877L127.79 118.387H127.792Z" fill="#FEF502"/>
<path d="M115.297 130.865L121.166 139.396L114.695 143.797L113.546 142.127L118.142 139.001L116.952 137.271L112.907 140.023L111.759 138.353L115.803 135.601L114.571 133.809L109.913 136.977L108.765 135.307L115.297 130.863V130.865Z" fill="#FEF502"/>
<path d="M115.297 130.865L121.166 139.396L114.695 143.797L113.546 142.127L118.142 139.001L116.952 137.271L112.907 140.023L111.759 138.353L115.803 135.601L114.571 133.809L109.913 136.977L108.765 135.307L115.297 130.863V130.865Z" fill="#FEF502"/>
<path d="M107.374 136.193L111.776 145.556L109.543 146.593L105.207 143.785L104.593 148.895L102.361 149.933L97.9584 140.57L100.017 139.613L102.891 145.726L103.66 140.495L103.714 140.47L108.199 143.209L105.344 137.137L107.375 136.193H107.374Z" fill="#FEF502"/>
<path d="M107.374 136.193L111.776 145.556L109.543 146.593L105.207 143.785L104.593 148.895L102.361 149.933L97.9584 140.57L100.017 139.613L102.891 145.726L103.66 140.495L103.714 140.47L108.199 143.209L105.344 137.137L107.375 136.193H107.374Z" fill="#FEF502"/>
<path d="M95.7378 141.158L98.9007 151.004L96.7219 151.697L93.559 141.851L95.7378 141.16V141.158Z" fill="#FEF502"/>
<path d="M95.7378 141.158L98.9007 151.004L96.7219 151.697L93.559 141.851L95.7378 141.16V141.158Z" fill="#FEF502"/>
<path d="M87.6774 143.164C89.3446 142.819 90.897 143.062 92.3333 143.89L91.3397 145.739C90.1707 145.126 89.0719 144.926 88.0446 145.139C87.5897 145.233 87.2481 145.394 87.0227 145.623C86.7973 145.851 86.7163 146.118 86.7811 146.427C86.8418 146.715 87.0267 146.922 87.3345 147.044C87.6437 147.166 88.2322 147.248 89.1002 147.29C89.7117 147.314 90.2126 147.36 90.6 147.424C90.9874 147.49 91.3681 147.604 91.7407 147.769C92.1132 147.933 92.4116 148.176 92.6357 148.497C92.8598 148.817 93.0231 149.223 93.1257 149.715C93.3174 150.631 93.1392 151.436 92.5925 152.133C92.0457 152.83 91.2479 153.286 90.2018 153.502C88.7573 153.801 87.4074 153.632 86.1533 152.997L86.966 151.08C88.0648 151.548 89.0165 151.697 89.8211 151.53C90.2382 151.444 90.5419 151.293 90.735 151.078C90.928 150.862 90.9955 150.619 90.9388 150.349C90.87 150.021 90.6783 149.804 90.3624 149.699C90.0465 149.593 89.4148 149.518 88.4644 149.474C87.2994 149.413 86.4071 149.211 85.7889 148.866C85.1706 148.521 84.7724 147.925 84.5955 147.076C84.3903 146.094 84.5712 145.254 85.1382 144.558C85.7052 143.863 86.5516 143.398 87.676 143.166L87.6774 143.164Z" fill="#FEF502"/>
<path d="M87.6774 143.164C89.3446 142.819 90.897 143.062 92.3333 143.89L91.3397 145.739C90.1707 145.126 89.0719 144.926 88.0446 145.139C87.5897 145.233 87.2481 145.394 87.0227 145.623C86.7973 145.851 86.7163 146.118 86.7811 146.427C86.8418 146.715 87.0267 146.922 87.3345 147.044C87.6437 147.166 88.2322 147.248 89.1002 147.29C89.7117 147.314 90.2126 147.36 90.6 147.424C90.9874 147.49 91.3681 147.604 91.7407 147.769C92.1132 147.933 92.4116 148.176 92.6357 148.497C92.8598 148.817 93.0231 149.223 93.1257 149.715C93.3174 150.631 93.1392 151.436 92.5925 152.133C92.0457 152.83 91.2479 153.286 90.2018 153.502C88.7573 153.801 87.4074 153.632 86.1533 152.997L86.966 151.08C88.0648 151.548 89.0165 151.697 89.8211 151.53C90.2382 151.444 90.5419 151.293 90.735 151.078C90.928 150.862 90.9955 150.619 90.9388 150.349C90.87 150.021 90.6783 149.804 90.3624 149.699C90.0465 149.593 89.4148 149.518 88.4644 149.474C87.2994 149.413 86.4071 149.211 85.7889 148.866C85.1706 148.521 84.7724 147.925 84.5955 147.076C84.3903 146.094 84.5712 145.254 85.1382 144.558C85.7052 143.863 86.5516 143.398 87.676 143.166L87.6774 143.164Z" fill="#FEF502"/>
<path d="M78.7666 144.366C80.4648 144.247 81.9713 144.694 83.2834 145.706L82.0496 147.407C80.9737 146.644 79.9113 146.299 78.8651 146.373C78.4007 146.405 78.0417 146.519 77.7879 146.715C77.5341 146.911 77.418 147.165 77.4409 147.48C77.4625 147.774 77.6178 148.004 77.9067 148.165C78.1955 148.327 78.7679 148.487 79.6224 148.644C80.2258 148.75 80.7145 148.86 81.0898 148.977C81.4651 149.094 81.8268 149.258 82.1738 149.471C82.522 149.683 82.7839 149.964 82.9635 150.311C83.1417 150.659 83.2497 151.083 83.2848 151.584C83.3509 152.517 83.0661 153.291 82.4303 153.909C81.7944 154.526 80.9426 154.872 79.8762 154.948C78.4048 155.051 77.09 154.705 75.9317 153.907L76.9955 152.115C78.0214 152.723 78.9448 153 79.7642 152.942C80.1894 152.913 80.5107 152.803 80.7307 152.615C80.9507 152.427 81.0506 152.195 81.0317 151.919C81.0074 151.585 80.8468 151.345 80.5485 151.199C80.2501 151.052 79.6332 150.893 78.6977 150.722C77.5516 150.507 76.6944 150.187 76.1288 149.764C75.5632 149.34 75.2487 148.695 75.1879 147.832C75.1164 146.831 75.4093 146.023 76.0654 145.409C76.7214 144.796 77.6218 144.448 78.7679 144.368L78.7666 144.366Z" fill="#FEF502"/>
<path d="M78.7666 144.366C80.4648 144.247 81.9713 144.694 83.2834 145.706L82.0496 147.407C80.9737 146.644 79.9113 146.299 78.8651 146.373C78.4007 146.405 78.0417 146.519 77.7879 146.715C77.5341 146.911 77.418 147.165 77.4409 147.48C77.4625 147.774 77.6178 148.004 77.9067 148.165C78.1955 148.327 78.7679 148.487 79.6224 148.644C80.2258 148.75 80.7145 148.86 81.0898 148.977C81.4651 149.094 81.8268 149.258 82.1738 149.471C82.522 149.683 82.7839 149.964 82.9635 150.311C83.1417 150.659 83.2497 151.083 83.2848 151.584C83.3509 152.517 83.0661 153.291 82.4303 153.909C81.7944 154.526 80.9426 154.872 79.8762 154.948C78.4048 155.051 77.09 154.705 75.9317 153.907L76.9955 152.115C78.0214 152.723 78.9448 153 79.7642 152.942C80.1894 152.913 80.5107 152.803 80.7307 152.615C80.9507 152.427 81.0506 152.195 81.0317 151.919C81.0074 151.585 80.8468 151.345 80.5485 151.199C80.2501 151.052 79.6332 150.893 78.6977 150.722C77.5516 150.507 76.6944 150.187 76.1288 149.764C75.5632 149.34 75.2487 148.695 75.1879 147.832C75.1164 146.831 75.4093 146.023 76.0654 145.409C76.7214 144.796 77.6218 144.448 78.7679 144.368L78.7666 144.366Z" fill="#FEF502"/>
<path d="M73.132 144.67L72.7959 155L70.5105 154.926L70.8466 144.596L73.132 144.67Z" fill="#FEF502"/>
<path d="M73.132 144.67L72.7959 155L70.5105 154.926L70.8466 144.596L73.132 144.67Z" fill="#FEF502"/>
<path d="M59.4276 144.593C60.6317 143.73 62.0154 143.421 63.58 143.667C65.1445 143.913 66.3622 144.625 67.2315 145.808C68.1022 146.99 68.4194 148.321 68.1859 149.799C67.9537 151.267 67.2355 152.432 66.0314 153.295C64.8273 154.158 63.4436 154.467 61.8791 154.221C60.3145 153.976 59.0969 153.263 58.2275 152.08C57.3582 150.898 57.0396 149.568 57.2731 148.09C57.5053 146.621 58.2235 145.456 59.4276 144.593ZM65.3038 147.015C64.8151 146.301 64.1213 145.872 63.2222 145.731C62.3232 145.59 61.5362 145.784 60.8612 146.311C60.1863 146.839 59.7772 147.554 59.6341 148.459C59.4924 149.353 59.6652 150.158 60.1539 150.872C60.6425 151.587 61.3364 152.015 62.2354 152.156C63.1358 152.297 63.9228 152.103 64.5964 151.576C65.2714 151.048 65.6804 150.333 65.8235 149.428C65.9653 148.533 65.7925 147.729 65.3038 147.015Z" fill="#FEF502"/>
<path d="M59.4276 144.593C60.6317 143.73 62.0154 143.421 63.58 143.667C65.1445 143.913 66.3622 144.625 67.2315 145.808C68.1022 146.99 68.4194 148.321 68.1859 149.799C67.9537 151.267 67.2355 152.432 66.0314 153.295C64.8273 154.158 63.4436 154.467 61.8791 154.221C60.3145 153.976 59.0969 153.263 58.2275 152.08C57.3582 150.898 57.0396 149.568 57.2731 148.09C57.5053 146.621 58.2235 145.456 59.4276 144.593ZM65.3038 147.015C64.8151 146.301 64.1213 145.872 63.2222 145.731C62.3232 145.59 61.5362 145.784 60.8612 146.311C60.1863 146.839 59.7772 147.554 59.6341 148.459C59.4924 149.353 59.6652 150.158 60.1539 150.872C60.6425 151.587 61.3364 152.015 62.2354 152.156C63.1358 152.297 63.9228 152.103 64.5964 151.576C65.2714 151.048 65.6804 150.333 65.8235 149.428C65.9653 148.533 65.7925 147.729 65.3038 147.015Z" fill="#FEF502"/>
<path d="M56.5253 142.522L53.1545 152.299L51.1593 151.619L48.6282 144.028L46.552 150.048L44.4165 149.321L47.7872 139.543L49.6272 140.17L52.246 148.009L54.3897 141.794L56.5253 142.522Z" fill="#FEF502"/>
<path d="M56.5253 142.522L53.1545 152.299L51.1593 151.619L48.6282 144.028L46.552 150.048L44.4165 149.321L47.7872 139.543L49.6272 140.17L52.246 148.009L54.3897 141.794L56.5253 142.522Z" fill="#FEF502"/>
<path d="M39.2557 134.967L37.2713 146.009L35.1304 144.679L36.7057 137.074L30.5217 141.815L28.432 140.515L37.544 133.902L39.2571 134.966L39.2557 134.967Z" fill="#FEF502"/>
<path d="M39.2557 134.967L37.2713 146.009L35.1304 144.679L36.7057 137.074L30.5217 141.815L28.432 140.515L37.544 133.902L39.2571 134.966L39.2557 134.967Z" fill="#FEF502"/>
<path d="M33.0056 130.93L26.2371 138.774L20.2866 133.698L21.6109 132.162L25.8375 135.767L27.2104 134.177L23.4913 131.004L24.8156 129.468L28.5346 132.641L29.9561 130.994L25.6728 127.34L26.9971 125.805L33.0042 130.93H33.0056Z" fill="#FEF502"/>
<path d="M33.0056 130.93L26.2371 138.774L20.2866 133.698L21.6109 132.162L25.8375 135.767L27.2104 134.177L23.4913 131.004L24.8156 129.468L28.5346 132.641L29.9561 130.994L25.6728 127.34L26.9971 125.805L33.0042 130.93H33.0056Z" fill="#FEF502"/>
<path d="M25.7997 124.659L17.9013 131.378L16.5311 129.785L18.228 121.967L13.3656 126.104L11.8982 124.399L19.7966 117.68L21.0615 119.15L19.3133 127.225L24.3337 122.954L25.8011 124.659H25.7997Z" fill="#FEF502"/>
<path d="M25.7997 124.659L17.9013 131.378L16.5311 129.785L18.228 121.967L13.3656 126.104L11.8982 124.399L19.7966 117.68L21.0615 119.15L19.3133 127.225L24.3337 122.954L25.8011 124.659H25.7997Z" fill="#FEF502"/>
<path d="M16.4731 112.205C17.2075 113.409 17.4423 114.55 17.1791 115.629C16.9159 116.708 16.141 117.636 14.8545 118.41L9.77478 121.471L8.58955 119.526L13.618 116.496C14.3294 116.068 14.7722 115.574 14.9463 115.014C15.1205 114.454 15.0233 113.872 14.6534 113.265C14.2835 112.658 13.8164 112.3 13.2495 112.186C12.6825 112.073 12.0521 112.225 11.3582 112.644L6.26499 115.712L5.07975 113.767L10.0961 110.744C11.4163 109.948 12.6245 109.689 13.7206 109.967C14.8167 110.245 15.7333 110.99 16.4717 112.202L16.4731 112.205Z" fill="#FEF502"/>
<path d="M16.4731 112.205C17.2075 113.409 17.4423 114.55 17.1791 115.629C16.9159 116.708 16.141 117.636 14.8545 118.41L9.77478 121.471L8.58955 119.526L13.618 116.496C14.3294 116.068 14.7722 115.574 14.9463 115.014C15.1205 114.454 15.0233 113.872 14.6534 113.265C14.2835 112.658 13.8164 112.3 13.2495 112.186C12.6825 112.073 12.0521 112.225 11.3582 112.644L6.26499 115.712L5.07975 113.767L10.0961 110.744C11.4163 109.948 12.6245 109.689 13.7206 109.967C14.8167 110.245 15.7333 110.99 16.4717 112.202L16.4731 112.205Z" fill="#FEF502"/>
<path d="M13.1361 106.641L3.53679 110.605L0.529169 103.404L2.40826 102.629L4.54384 107.741L6.49177 106.937L4.61268 102.438L6.49177 101.662L8.37086 106.162L10.3863 105.329L8.22237 100.148L10.1015 99.3722L13.1374 106.641H13.1361Z" fill="#FEF502"/>
<path d="M13.1361 106.641L3.53679 110.605L0.529169 103.404L2.40826 102.629L4.54384 107.741L6.49177 106.937L4.61268 102.438L6.49177 101.662L8.37086 106.162L10.3863 105.329L8.22237 100.148L10.1015 99.3722L13.1374 106.641H13.1361Z" fill="#FEF502"/>
</svg>
