<svg version="1.1" id="Layer_1" xmlns="http://www.w3.org/2000/svg" x="0" y="0" viewBox="0 0 249.1 186.3" xml:space="preserve">
  <style>
    .st1{fill:#fff}.st2{enable-background:new}.st3{fill:#aaed00}
  </style>
  <title>
    RSRE_Logo_Wht
  </title>
  <linearGradient id="SVGID_1_" gradientUnits="userSpaceOnUse" x1="98.5" y1="527.8" x2="206.4" y2="527.8" gradientTransform="translate(-29.1 -479.6)">
    <stop offset="0" stop-color="#d1ff17"/>
    <stop offset=".3" stop-color="#c8fb11"/>
    <stop offset=".9" stop-color="#aeef03"/>
    <stop offset="1" stop-color="#aaed00"/>
  </linearGradient>
  <path d="M96.5 28.6c-1.5-6-3.7-19.3 2.4-22.8s16.5 5.1 20.9 9.4a98.8 98.8 0 00-9.1 11.2c-4.7.4-9.5 1.1-14.2 2.2zm26.8 11.9a7.6 7.6 0 11-7.6 7.6c0-4.2 3.4-7.6 7.6-7.6zm-6-14.6c2-2.6 4-5 6-7.1 2 2.2 4 4.6 6 7.1-4-.2-8-.2-12 0zm-3.8 5.2c6.5-.5 13.1-.5 19.6 0 3.4 4.9 6.4 10 9 15.2l.9 1.7-.9 1.7c-2.6 5.3-5.7 10.4-9 15.2-6.5.5-13.1.5-19.6 0-3.7-5.4-7-11.1-9.8-17a129 129 0 019.8-16.8zm28.6 29.2c1.2-2.1 2.4-4.1 3.5-6.3 1.2 3 2.3 5.9 3.2 8.8l-6.7 1.3-2.5.4 2.5-4.2zM97.8 33.4c2.9-.7 6-1.2 9.2-1.6-2.2 3.4-4.2 6.9-6 10.4-1.2-3-2.2-5.9-3.2-8.8zm29 47.6c3.3-3.5 6.3-7.3 9.1-11.2 2.1-.2 4.2-.4 6.2-.8 2.8-.4 5.5-.9 8-1.5 1.5 6 3.7 19.3-2.4 22.8a7.5 7.5 0 01-5.7.5c-3.2-.8-7.1-3-11.2-6.3-1.3-1-2.6-2.2-4-3.5zm-25.7-27c1.8 3.5 3.9 7 6 10.4-3.3-.4-6.3-1-9.2-1.6.8-2.8 1.9-5.8 3.2-8.8zm-4.6 13.6c4.7 1 9.4 1.8 14.2 2.2 2.8 3.9 5.8 7.6 9.1 11.2-4.5 4.3-14.9 12.9-20.9 9.4-6-3.5-3.8-16.8-2.4-22.8zM74.4 48.1c0-7 12.7-11.7 18.6-13.4 1.4 4.6 3.1 9.1 5.2 13.4-2 4.4-3.7 8.9-5.2 13.4-6-1.7-18.6-6.4-18.6-13.4zm17.3 18.3c-2.1 8.4-4 23.4 4.7 28.4s20.7-4.1 27-10.1l4.5 3.9c5 4.1 10 6.6 14.3 7.4 2.8.6 5.7.2 8.2-1.2 8.7-5 6.7-20 4.7-28.4 8.3-2.4 22.3-8.2 22.3-18.3s-14-15.8-22.3-18.2c2.1-8.4 4-23.4-4.7-28.4a11.7 11.7 0 00-8.2-1.2c-7 1.2-14.3 7.1-18.8 11.4-6.3-6-18.3-15.2-27-10.1-8.7 5-6.7 20-4.7 28.4-8.3 2.4-22.3 8.2-22.3 18.2s14 15.7 22.3 18.2zm50.4-30.5l-2.5-4.1 2.5.4 6.7 1.3c-.9 2.8-2 5.8-3.2 8.8l-3.5-6.4zm-15.3-20.7c3.3-3.1 9.7-8.5 15.3-9.9 1.9-.6 3.9-.4 5.7.5 6.1 3.5 3.8 16.8 2.4 22.8a87.7 87.7 0 00-14.2-2.3c-2.8-3.9-5.9-7.6-9.2-11.1zm26.9 46.3c-1.4-4.6-3.2-9.1-5.2-13.4 2-4.4 3.7-8.9 5.2-13.4 5.9 1.7 18.6 6.5 18.6 13.4s-12.7 11.7-18.6 13.4zm-36.4 8.8c4 .2 8 .2 12 0a83.2 83.2 0 01-6 7.1c-2-2.1-4-4.5-6-7.1z" fill="url(#SVGID_1_)"/>
  <path class="st1" d="M23.6 143.8V125h8.7c2-.1 4 .5 5.5 1.9a6 6 0 011.6 4.4 5.7 5.7 0 01-4.1 5.9l4.6 6.8H35l-4.1-6h-3.2v6h-4.1v-.2zm4.2-9.7H32c.8.1 1.7-.2 2.3-.8.6-.5.9-1.2.9-2s-.3-1.5-.9-2c-.7-.5-1.6-.7-2.4-.7h-4.1v5.5zM43 143.8V125h14.3v3.6H47.1v3.9h9v3.7h-9v3.9h10.3v3.7zM59.7 143.8l8.1-19h3.8l8.1 19h-4.4l-1.7-4.2h-8l-1.8 4.2h-4.1zm7.4-7.9h5l-2.5-6.1-2.5 6.1zM90 144.2c-2.6.1-5.1-1-6.9-2.8a9.8 9.8 0 017.1-16.7 9.7 9.7 0 017.3 3.1l-2.5 2.9a9.4 9.4 0 00-2.3-1.6c-.8-.3-1.7-.5-2.6-.5-1.5 0-2.9.6-3.9 1.7a6.4 6.4 0 000 8.4c1 1.1 2.4 1.8 3.9 1.7.9 0 1.8-.2 2.6-.5.9-.5 1.6-1 2.3-1.7l2.6 2.8c-.9 1-2.1 1.8-3.3 2.4-1.3.5-2.8.8-4.3.8zM105.7 143.8v-15h-5.8V125h15.7v3.8h-5.8v15zM133.6 144.1c-3 .1-5.8-1-8-3l2.4-2.9a9.3 9.3 0 005.7 2.3c.7 0 1.4-.1 2-.5.5-.3.7-.8.7-1.4 0-.5-.3-1-.8-1.3-1-.5-2-.9-3.1-1.1l-2.6-.8-1.9-1a4 4 0 01-1.3-1.6c-.3-.8-.4-1.6-.4-2.4-.1-1.6.6-3.1 1.9-4.1 1.3-1.1 3-1.6 4.8-1.6 2.5 0 5 .8 7 2.4l-2.1 3a8.8 8.8 0 00-4.9-1.9c-.6 0-1.3.1-1.8.5-.4.3-.6.7-.6 1.2 0 .6.3 1.1.8 1.4 1.1.5 2.2.9 3.3 1.1 1.6.3 3.2 1 4.5 2.1a5 5 0 011.5 3.6 5 5 0 01-1.9 4.3 7.1 7.1 0 01-5.2 1.7zM152.1 144.1c-2.2.1-4.4-.7-6-2.1-1.4-1.4-2.1-3.5-2.1-6.2V125h4.2v10.7a5 5 0 001.1 3.5c.8.8 1.9 1.3 3 1.2 1.1.1 2.2-.4 3-1.2.8-1 1.1-2.2 1.1-3.4V125h4.2v10.6c0 2.8-.7 4.9-2.2 6.4a9 9 0 01-6.3 2.1zM164.6 143.8V125h4.5l5 7.9 5-7.9h4.5v18.8h-4.2v-12.3l-5.3 8.1h-.1l-5.3-8v12.2zM188.1 143.8V125h4.5l5 7.9 5-7.9h4.4v18.8h-4.1v-12.3l-5.3 8.1h-.1l-5.3-8v12.2zM211.4 125h4.2v18.9h-4.2zM224.7 143.8v-15h-5.8V125h15.7v3.8h-5.7v15z"/>
  <g class="st2">
    <path class="st1" d="M23.4 183.2v-17.4h7.9c2.2 0 3.9.6 5.1 1.8 1 1 1.5 2.3 1.5 4 0 2.7-1.2 4.5-3.7 5.4l4.2 6.2H34l-3.8-5.6h-3v5.6h-3.8zm3.8-8.9h3.9c.9 0 1.6-.2 2.2-.7.5-.5.8-1.1.8-1.8 0-.8-.3-1.4-.8-1.8s-1.3-.6-2.2-.6h-3.8l-.1 4.9z"/>
  </g>
  <g class="st2">
    <path class="st1" d="M42.1 183.2v-17.4h13.1v3.4h-9.3v3.5H54v3.4h-8.2v3.6h9.4v3.4H42.1v.1z"/>
  </g>
  <g class="st2">
    <path class="st1" d="M58.6 183.2v-17.4h4.1l4.6 7.3 4.6-7.3H76v17.4h-3.8v-11.3l-4.9 7.4h-.1l-4.8-7.3v11.3l-3.8-.1z"/>
  </g>
  <g class="st2">
    <path class="st1" d="M95.1 180.9c-1.8 1.7-4 2.6-6.6 2.6s-4.8-.9-6.6-2.6c-1.7-1.7-2.6-3.9-2.6-6.4s.9-4.6 2.6-6.4c1.8-1.7 4-2.6 6.6-2.6s4.8.9 6.6 2.6c1.7 1.7 2.6 3.9 2.6 6.4s-.9 4.7-2.6 6.4zm-10.4-2.5c1 1.1 2.2 1.6 3.8 1.6 1.5 0 2.8-.5 3.7-1.6 1-1 1.5-2.3 1.5-3.9 0-1.5-.5-2.8-1.5-3.9a4.8 4.8 0 00-3.8-1.6c-1.5 0-2.8.5-3.7 1.6a5.4 5.4 0 00-1.5 3.9c0 1.6.5 2.8 1.5 3.9z"/>
  </g>
  <g class="st2">
    <path class="st1" d="M104.8 183.2v-13.8h-5.3v-3.5h14.4v3.5h-5.3v13.8h-3.8z"/>
  </g>
  <g class="st2">
    <path class="st1" d="M117.3 183.2v-17.4h13.1v3.4h-9.3v3.5h8.2v3.4h-8.2v3.6h9.4v3.4h-13.2v.1z"/>
  </g>
  <g class="st2">
    <path class="st1" d="M142.8 183.2v-17.4h13.1v3.4h-9.3v3.5h8.2v3.4h-8.2v3.6h9.4v3.4h-13.2v.1z"/>
  </g>
  <g class="st2">
    <path class="st1" d="M159.4 183.2v-17.4h6.8c2.7 0 4.9.8 6.6 2.5 1.7 1.6 2.6 3.7 2.6 6.2s-.9 4.5-2.6 6.2a8.9 8.9 0 01-6.6 2.5h-6.8zm3.8-3.4h3a5 5 0 005.2-5.3c0-1.5-.5-2.8-1.5-3.8s-2.2-1.5-3.8-1.5h-3v10.6h.1z"/>
  </g>
  <g class="st2">
    <path class="st1" d="M178.9 183.2v-17.4h3.8v17.4h-3.8z"/>
  </g>
  <g class="st2">
    <path class="st1" d="M191 183.2v-13.8h-5.3v-3.5h14.4v3.5h-5.3v13.8H191z"/>
  </g>
  <g class="st2">
    <path class="st1" d="M203.7 183.2v-17.4h3.8v17.4h-3.8z"/>
  </g>
  <g class="st2">
    <path class="st1" d="M226.9 180.9c-1.8 1.7-4 2.6-6.6 2.6s-4.8-.9-6.6-2.6c-1.7-1.7-2.6-3.9-2.6-6.4s.9-4.6 2.6-6.4c1.8-1.7 4-2.6 6.6-2.6s4.8.9 6.6 2.6 2.6 3.9 2.6 6.4-.8 4.7-2.6 6.4zm-10.3-2.5c1 1.1 2.3 1.6 3.8 1.6s2.8-.5 3.7-1.6c1-1 1.5-2.3 1.5-3.9 0-1.5-.5-2.8-1.5-3.9s-2.3-1.6-3.8-1.6-2.8.5-3.7 1.6a5.4 5.4 0 00-1.5 3.9c0 1.6.5 2.8 1.5 3.9z"/>
  </g>
  <g class="st2">
    <path class="st1" d="M233.3 183.2v-17.4h3.5l8.1 10.7v-10.7h3.8v17.4h-3.3l-8.4-11v11h-3.7z"/>
  </g>
  <path class="st3" d="M240.5 130.9v-2l3.8-3.1c.6-.4 1.1-.9 1.6-1.5.3-.4.4-.8.4-1.2 0-.4-.1-.8-.4-1.1-.3-.3-.7-.4-1.1-.4-.4 0-.8.1-1.2.4l-1.2 1.2-1.8-1.4c.5-.7 1.1-1.3 1.9-1.8a5 5 0 012.4-.6c1.1 0 2.1.3 2.9 1 .7.7 1.1 1.6 1.1 2.6 0 .6-.1 1.2-.4 1.7-.2.5-.5.9-.9 1.3l-1.7 1.5-1.9 1.5h5v2.2l-8.5-.3zM248.9 153.1H11.5l-3.5 25L4.5 153H0l4.7 33.3h6.7l4.2-29.2h233.5v-4h-.2z"/>
</svg>