<?xml version="1.0" encoding="utf-8"?>
<!-- Generator: Adobe Illustrator 23.0.5, SVG Export Plug-In . SVG Version: 6.00 Build 0)  -->
<svg version="1.1" id="Layer_1" xmlns="http://www.w3.org/2000/svg" xmlns:xlink="http://www.w3.org/1999/xlink" x="0px" y="0px"
	 width="61.55px" height="61.45px" viewBox="0 0 61.55 61.45" style="enable-background:new 0 0 61.55 61.45;" xml:space="preserve"
	>
<style type="text/css">
	.st0{fill:#ccff00;}
</style>
<g>
	<path class="st0" d="M30.79,0c5.03,0,9.78,1.2,13.98,3.34c-0.49,0.54-0.86,1.17-1.09,1.86c-3.89-1.94-8.26-3.05-12.89-3.05
		c-15.84,0-28.64,12.79-28.64,28.6c0,15.78,12.81,28.57,28.64,28.57c15.81,0,28.62-12.79,28.62-28.57c0-7.39-2.8-14.16-7.43-19.21
		c0.57-0.43,1.09-0.97,1.46-1.6c5.03,5.48,8.12,12.79,8.12,20.81c0,16.95-13.78,30.71-30.76,30.71C13.78,61.45,0,47.69,0,30.74
		C0,13.76,13.78,0,30.79,0L30.79,0z"/>
	<path class="st0" d="M48.57,13.43c-3.63,0-6.59-2.94-6.59-6.55c0-3.63,2.96-6.58,6.59-6.58c3.62,0,6.56,2.95,6.56,6.58
		C55.13,10.49,52.19,13.43,48.57,13.43z M48.57,2.44c-2.45,0-4.45,1.99-4.45,4.44c0,2.43,1.99,4.41,4.45,4.41
		c2.44,0,4.42-1.98,4.42-4.41C52.99,4.43,51.01,2.44,48.57,2.44z"/>
</g>
<path id="Shape_20_copy_11" class="st0" d="M37.06,18.13l-3.98,0.01c0,0-5.08-0.43-5.01,4.44v3.58l-3.59,0.02v4.5h3.59l0.01,12.64
	h4.79V30.69l3.63-0.01l0.43-4.55h-4.06l-0.02-2.68c0.03-0.62,0.56-1.1,1.19-1.07c0.05,0,0.1,0.01,0.14,0.02l2.88-0.04V18.13z"/>
</svg>
