<svg id="Layer_1" data-name="Layer 1" xmlns="http://www.w3.org/2000/svg" viewBox="0 0 182.2 233.48">
  <defs>
    <style>.cls-1,.cls-2{stroke:#ff2407;stroke-miterlimit:10;stroke-width:0.57px;}.cls-1,.cls-3{fill-rule:evenodd;}
    </style>
  </defs>
  <title>Face</title>
  <path class="cls-1"
        fill="#ff2407"
        d="M297.73,435.29a16.15,16.15,0,0,1-16.18-16.15v-.51H265v.51a32.7,32.7,0,0,0,65.41,0v-.51H313.92v.51a16.15,16.15,0,0,1-16.18,16.15Z"
        transform="translate(-205.69 -260.06)"/>
  <rect class="cls-2" fill="#ff2407" x="98.73" y="84.02" width="45.63" height="15.87"/>
  <path class="cls-3"
        fill="#ff2407"
        d="M226.32,311c45.43-14.41,62.66-23.35,70.47-27.74,7.78,4.4,25,13.33,70.44,27.74,0,5.14,2.89,161.85-70.44,161.7-73.33.14-70.47-156.57-70.47-161.7Zm70.47,182.54c94.8.2,91.08-191,91.08-197.61-58.72-18.64-81-30.19-91.08-35.87-10.06,5.68-32.39,17.24-91.08,35.87,0,6.62-3.72,197.81,91.08,197.61Z"
        transform="translate(-205.69 -260.06)"/>
  <path class="cls-1"
        fill="#ff2407"
        d="M266,329a23.56,23.56,0,1,0,23.58,23.54A23.58,23.58,0,0,0,266,329Zm-7.49,23.54a7.48,7.48,0,1,1,7.49,7.48,7.47,7.47,0,0,1-7.49-7.48Z"
        transform="translate(-205.69 -260.06)"/>
</svg>
