<svg width="64" height="64" viewBox="0 0 64 64" fill="none" xmlns="http://www.w3.org/2000/svg">
<rect width="64" height="64" rx="32" fill="#FEF502"/>
<path fill-rule="evenodd" clip-rule="evenodd" d="M16.9143 11.7007H47.0857V52.2996H36.1016V46.6675H27.8985V52.2996H16.9143V11.7007ZM21.2794 38.1535H25.6556V42.8078H21.2794V38.1535ZM29.8119 38.1535H34.1881V42.8078H29.8119V38.1535ZM38.3445 38.1535H42.7207V42.8078H38.3445V38.1535ZM21.2794 30.9233H25.6556V35.5781H21.2794V30.9233ZM29.8119 30.9233H34.1881V35.5781H29.8119V30.9233ZM38.3445 30.9233H42.7207V35.5781H38.3445V30.9233ZM21.2794 23.6936H25.6556V28.3478H21.2794V23.6936ZM29.8119 23.6936H34.1881V28.3478H29.8119V23.6936ZM38.3445 23.6936H42.7207V28.3478H38.3445V23.6936ZM21.2794 16.4639H25.6556V21.1181H21.2794V16.4639ZM29.8119 16.4639H34.1881V21.1181H29.8119V16.4639ZM38.3445 16.4639H42.7207V21.1181H38.3445V16.4639Z" fill="black"/>
</svg>
