<svg xmlns="http://www.w3.org/2000/svg" width="30" height="30" viewBox="0 0 30 30" fill="none">
  <path d="M22.5 13.125C23.5917 13.1238 24.6686 13.5045 25.645 14.2368C26.6215 14.9691 27.4706 16.033 28.125 17.3438" stroke="#FEF502" stroke-width="1.4" stroke-linecap="round" stroke-linejoin="round"/>
  <path d="M1.875 17.3438C2.52937 16.033 3.37852 14.9691 4.35497 14.2368C5.33143 13.5045 6.40829 13.1238 7.5 13.125" stroke="#FEF502" stroke-width="1.4" stroke-linecap="round" stroke-linejoin="round"/>
  <path d="M15 20.1562C17.5888 20.1562 19.6875 18.0576 19.6875 15.4688C19.6875 12.8799 17.5888 10.7812 15 10.7812C12.4112 10.7812 10.3125 12.8799 10.3125 15.4688C10.3125 18.0576 12.4112 20.1562 15 20.1562Z" stroke="#FEF502" stroke-width="1.4" stroke-linecap="round" stroke-linejoin="round"/>
  <path d="M8.4375 23.9062C9.11049 22.7642 10.0699 21.8175 11.2208 21.1599C12.3718 20.5022 13.6744 20.1562 15 20.1562C16.3256 20.1562 17.6282 20.5022 18.7792 21.1599C19.9301 21.8175 20.8895 22.7642 21.5625 23.9062" stroke="#FEF502" stroke-width="1.4" stroke-linecap="round" stroke-linejoin="round"/>
  <path d="M19.2188 8.73047C19.3858 8.09388 19.7308 7.51614 20.2147 7.06286C20.6987 6.60958 21.302 6.29892 21.9563 6.16616C22.6107 6.03341 23.2897 6.08388 23.9163 6.31185C24.5429 6.53981 25.092 6.93613 25.5013 7.4558C25.9105 7.97547 26.1635 8.59767 26.2315 9.25172C26.2994 9.90577 26.1797 10.5655 25.8858 11.1559C25.5919 11.7463 25.1357 12.2438 24.5689 12.5919C24.0021 12.94 23.3475 13.1247 22.6795 13.125" stroke="#FEF502" stroke-width="1.4" stroke-linecap="round" stroke-linejoin="round"/>
  <path d="M7.32054 13.125C6.65247 13.1247 5.99788 12.94 5.43111 12.5919C4.86434 12.2438 4.40811 11.7463 4.11422 11.1559C3.82033 10.5655 3.70057 9.90577 3.76854 9.25172C3.8365 8.59767 4.08947 7.97547 4.49871 7.4558C4.90795 6.93613 5.45707 6.53981 6.0837 6.31185C6.71032 6.08388 7.38935 6.03341 8.04366 6.16616C8.69797 6.29892 9.30135 6.60958 9.78526 7.06286C10.2692 7.51614 10.6142 8.09388 10.7812 8.73047" stroke="#FEF502" stroke-width="1.4" stroke-linecap="round" stroke-linejoin="round"/>
</svg>