<svg width="80" height="79" viewBox="0 0 80 79" fill="none" xmlns="http://www.w3.org/2000/svg">
<path d="M39.575 72.0678C36.4837 53.4742 20.2509 39.2887 0.674316 39.2887C0.674316 60.9508 18.3313 78.5041 40.1123 78.5041C61.8933 78.5041 79.5502 60.9522 79.5502 39.2887C59.9791 39.2887 43.7409 53.4742 40.6495 72.0678H40.6549H39.575Z" fill="#FEF502"/>
<path d="M39.575 72.0678C36.4837 53.4742 20.2509 39.2887 0.674316 39.2887C0.674316 60.9508 18.3313 78.5041 40.1123 78.5041C61.8933 78.5041 79.5502 60.9522 79.5502 39.2887C59.9791 39.2887 43.7409 53.4742 40.6495 72.0678H40.6549H39.575Z" fill="#FEF502"/>
<path d="M40.1177 0.0732422C24.7164 15.3876 24.7164 40.2189 40.1177 55.5333C55.5189 40.2189 55.5243 15.393 40.1177 0.0732422Z" fill="#FEF502"/>
<path d="M40.1177 0.0732422C24.7164 15.3876 24.7164 40.2189 40.1177 55.5333C55.5189 40.2189 55.5243 15.393 40.1177 0.0732422Z" fill="#FEF502"/>
</svg>
