<svg xmlns="http://www.w3.org/2000/svg" xmlns:xlink="http://www.w3.org/1999/xlink" preserveAspectRatio="xMidYMid meet" width="128" height="50" viewBox="0 0 128 50" style="width:100%;height:100%"><defs><animate repeatCount="indefinite" dur="3.003003s" begin="0s" xlink:href="#_R_G_L_1_G_D_0_P_0" fill="freeze" attributeName="d" attributeType="XML" from="M1.55 0.25 C1.25,0.25 1.05,0.35 0.85,0.45 C0.65,0.55 0.45,0.85 0.35,1.05 C0.25,1.25 0.25,1.55 0.25,1.85 C0.35,2.15 0.45,2.35 0.65,2.55 C0.85,2.75 1.05,2.85 1.35,2.95 C1.65,3.05 1.85,2.95 2.15,2.85 C2.35,2.75 2.55,2.55 2.75,2.35 C2.85,2.15 2.95,1.85 2.95,1.65 C2.95,1.25 2.85,0.95 2.55,0.75 C2.25,0.45 1.95,0.25 1.55,0.25z " to="M1.55 0.25 C1.25,0.25 1.05,0.35 0.85,0.45 C0.65,0.55 0.45,0.85 0.35,1.05 C0.25,1.25 0.25,1.55 0.25,1.85 C0.35,2.15 0.45,2.35 0.65,2.55 C0.85,2.75 1.05,2.85 1.35,2.95 C1.65,3.05 1.85,2.95 2.15,2.85 C2.35,2.75 2.55,2.55 2.75,2.35 C2.85,2.15 2.95,1.85 2.95,1.65 C2.95,1.25 2.85,0.95 2.55,0.75 C2.25,0.45 1.95,0.25 1.55,0.25z " keyTimes="0;0.9111111;0.9444444;0.9888889;1" values="M1.55 0.25 C1.25,0.25 1.05,0.35 0.85,0.45 C0.65,0.55 0.45,0.85 0.35,1.05 C0.25,1.25 0.25,1.55 0.25,1.85 C0.35,2.15 0.45,2.35 0.65,2.55 C0.85,2.75 1.05,2.85 1.35,2.95 C1.65,3.05 1.85,2.95 2.15,2.85 C2.35,2.75 2.55,2.55 2.75,2.35 C2.85,2.15 2.95,1.85 2.95,1.65 C2.95,1.25 2.85,0.95 2.55,0.75 C2.25,0.45 1.95,0.25 1.55,0.25z ;M1.55 0.25 C1.25,0.25 1.05,0.35 0.85,0.45 C0.65,0.55 0.45,0.85 0.35,1.05 C0.25,1.25 0.25,1.55 0.25,1.85 C0.35,2.15 0.45,2.35 0.65,2.55 C0.85,2.75 1.05,2.85 1.35,2.95 C1.65,3.05 1.85,2.95 2.15,2.85 C2.35,2.75 2.55,2.55 2.75,2.35 C2.85,2.15 2.95,1.85 2.95,1.65 C2.95,1.25 2.85,0.95 2.55,0.75 C2.25,0.45 1.95,0.25 1.55,0.25z ;M1.55 2.19 C1.25,2.19 1.05,2.22 0.85,2.25 C0.65,2.28 0.45,2.38 0.35,2.44 C0.25,2.5 0.25,2.59 0.25,2.68 C0.35,2.77 0.45,2.84 0.65,2.9 C0.85,2.96 1.05,2.99 1.35,3.02 C1.65,3.05 1.85,3.02 2.15,2.99 C2.35,2.96 2.55,2.9 2.75,2.84 C2.85,2.77 2.95,2.68 2.95,2.62 C2.95,2.5 2.85,2.4 2.55,2.34 C2.25,2.25 1.95,2.19 1.55,2.19z ;M1.55 0.25 C1.25,0.25 1.05,0.35 0.85,0.45 C0.65,0.55 0.45,0.85 0.35,1.05 C0.25,1.25 0.25,1.55 0.25,1.85 C0.35,2.15 0.45,2.35 0.65,2.55 C0.85,2.75 1.05,2.85 1.35,2.95 C1.65,3.05 1.85,2.95 2.15,2.85 C2.35,2.75 2.55,2.55 2.75,2.35 C2.85,2.15 2.95,1.85 2.95,1.65 C2.95,1.25 2.85,0.95 2.55,0.75 C2.25,0.45 1.95,0.25 1.55,0.25z ;M1.55 0.25 C1.25,0.25 1.05,0.35 0.85,0.45 C0.65,0.55 0.45,0.85 0.35,1.05 C0.25,1.25 0.25,1.55 0.25,1.85 C0.35,2.15 0.45,2.35 0.65,2.55 C0.85,2.75 1.05,2.85 1.35,2.95 C1.65,3.05 1.85,2.95 2.15,2.85 C2.35,2.75 2.55,2.55 2.75,2.35 C2.85,2.15 2.95,1.85 2.95,1.65 C2.95,1.25 2.85,0.95 2.55,0.75 C2.25,0.45 1.95,0.25 1.55,0.25z " keySplines="0.333 0 0.667 1;0.333 0 0.667 1;0.333 0 0.667 1;0 0 0 0" calcMode="spline"/><animate repeatCount="indefinite" dur="3.003003s" begin="0s" xlink:href="#_R_G_L_0_G_D_0_P_0" fill="freeze" attributeName="d" attributeType="XML" from="M1.55 0.25 C1.25,0.25 1.05,0.35 0.85,0.45 C0.65,0.55 0.45,0.85 0.35,1.05 C0.25,1.25 0.25,1.55 0.25,1.85 C0.35,2.15 0.45,2.35 0.65,2.55 C0.85,2.75 1.05,2.85 1.35,2.95 C1.65,3.05 1.85,2.95 2.15,2.85 C2.35,2.75 2.55,2.55 2.75,2.35 C2.85,2.15 2.95,1.85 2.95,1.65 C2.95,1.25 2.85,0.95 2.55,0.75 C2.25,0.45 1.95,0.25 1.55,0.25z " to="M1.55 0.25 C1.25,0.25 1.05,0.35 0.85,0.45 C0.65,0.55 0.45,0.85 0.35,1.05 C0.25,1.25 0.25,1.55 0.25,1.85 C0.35,2.15 0.45,2.35 0.65,2.55 C0.85,2.75 1.05,2.85 1.35,2.95 C1.65,3.05 1.85,2.95 2.15,2.85 C2.35,2.75 2.55,2.55 2.75,2.35 C2.85,2.15 2.95,1.85 2.95,1.65 C2.95,1.25 2.85,0.95 2.55,0.75 C2.25,0.45 1.95,0.25 1.55,0.25z " keyTimes="0;0.9111111;0.9444444;0.9888889;1" values="M1.55 0.25 C1.25,0.25 1.05,0.35 0.85,0.45 C0.65,0.55 0.45,0.85 0.35,1.05 C0.25,1.25 0.25,1.55 0.25,1.85 C0.35,2.15 0.45,2.35 0.65,2.55 C0.85,2.75 1.05,2.85 1.35,2.95 C1.65,3.05 1.85,2.95 2.15,2.85 C2.35,2.75 2.55,2.55 2.75,2.35 C2.85,2.15 2.95,1.85 2.95,1.65 C2.95,1.25 2.85,0.95 2.55,0.75 C2.25,0.45 1.95,0.25 1.55,0.25z ;M1.55 0.25 C1.25,0.25 1.05,0.35 0.85,0.45 C0.65,0.55 0.45,0.85 0.35,1.05 C0.25,1.25 0.25,1.55 0.25,1.85 C0.35,2.15 0.45,2.35 0.65,2.55 C0.85,2.75 1.05,2.85 1.35,2.95 C1.65,3.05 1.85,2.95 2.15,2.85 C2.35,2.75 2.55,2.55 2.75,2.35 C2.85,2.15 2.95,1.85 2.95,1.65 C2.95,1.25 2.85,0.95 2.55,0.75 C2.25,0.45 1.95,0.25 1.55,0.25z ;M1.55 2.19 C1.25,2.19 1.05,2.22 0.85,2.25 C0.65,2.28 0.45,2.38 0.35,2.44 C0.25,2.5 0.25,2.59 0.25,2.68 C0.35,2.77 0.45,2.84 0.65,2.9 C0.85,2.96 1.05,2.99 1.35,3.02 C1.65,3.05 1.85,3.02 2.15,2.99 C2.35,2.96 2.55,2.9 2.75,2.84 C2.85,2.77 2.95,2.68 2.95,2.62 C2.95,2.5 2.85,2.4 2.55,2.34 C2.25,2.25 1.95,2.19 1.55,2.19z ;M1.55 0.25 C1.25,0.25 1.05,0.35 0.85,0.45 C0.65,0.55 0.45,0.85 0.35,1.05 C0.25,1.25 0.25,1.55 0.25,1.85 C0.35,2.15 0.45,2.35 0.65,2.55 C0.85,2.75 1.05,2.85 1.35,2.95 C1.65,3.05 1.85,2.95 2.15,2.85 C2.35,2.75 2.55,2.55 2.75,2.35 C2.85,2.15 2.95,1.85 2.95,1.65 C2.95,1.25 2.85,0.95 2.55,0.75 C2.25,0.45 1.95,0.25 1.55,0.25z ;M1.55 0.25 C1.25,0.25 1.05,0.35 0.85,0.45 C0.65,0.55 0.45,0.85 0.35,1.05 C0.25,1.25 0.25,1.55 0.25,1.85 C0.35,2.15 0.45,2.35 0.65,2.55 C0.85,2.75 1.05,2.85 1.35,2.95 C1.65,3.05 1.85,2.95 2.15,2.85 C2.35,2.75 2.55,2.55 2.75,2.35 C2.85,2.15 2.95,1.85 2.95,1.65 C2.95,1.25 2.85,0.95 2.55,0.75 C2.25,0.45 1.95,0.25 1.55,0.25z " keySplines="0.333 0 0.667 1;0.333 0 0.667 1;0.333 0 0.667 1;0 0 0 0" calcMode="spline"/><animate attributeType="XML" attributeName="opacity" dur="3s" from="0" to="1" xlink:href="#time_group"/></defs><g id="_R_G"><g id="_R_G_L_16_G" transform=" translate(22.05, 25) translate(-22.3, -25.249)"><path id="_R_G_L_16_G_D_0_P_0" fill="#fef502" fill-opacity="1" fill-rule="nonzero" d=" M0.25 0.25 C0.25,0.25 0.25,44.65 0.25,44.65 C0.25,44.65 28.75,44.65 28.75,44.65 C28.75,44.65 34.95,50.25 34.95,50.25 C34.95,50.25 34.95,44.65 34.95,44.65 C34.95,44.65 44.35,44.65 44.35,44.65 C44.35,44.65 44.35,0.25 44.35,0.25 C44.35,0.25 0.25,0.25 0.25,0.25z "/></g><g id="_R_G_L_15_G" transform=" translate(16.4, 32.7) translate(-3.15, -1.55)"><path id="_R_G_L_15_G_D_0_P_0" fill="#2e2e2c" fill-opacity="1" fill-rule="nonzero" d=" M3.25 1.35 C2.95,1.35 2.65,1.25 2.35,1.05 C2.05,0.85 1.85,0.65 1.75,0.25 C1.75,0.25 0.25,0.65 0.25,0.65 C0.45,1.25 0.85,1.85 1.35,2.25 C1.85,2.65 2.55,2.85 3.15,2.85 C3.85,2.85 4.45,2.65 4.95,2.25 C5.45,1.85 5.85,1.35 6.05,0.65 C6.05,0.65 4.75,0.35 4.75,0.35 C4.65,0.65 4.45,0.95 4.15,1.15 C3.95,1.25 3.65,1.35 3.25,1.35z "/></g><g id="_R_G_L_14_G" transform=" translate(26.1, 29.85) translate(-14.15, -10.6)"><path id="_R_G_L_14_G_D_0_P_0" fill="#2e2e2c" fill-opacity="1" fill-rule="nonzero" d=" M15.55 16.45 C15.55,16.45 18.05,15.25 18.05,15.25 C18.25,16.05 18.75,16.75 19.35,17.25 C20.05,17.75 20.95,17.95 21.75,17.95 C22.55,17.95 23.35,17.75 23.95,17.15 C24.25,16.85 24.45,16.55 24.55,16.15 C24.65,15.75 24.75,15.35 24.75,15.05 C24.75,13.85 23.85,12.85 21.95,11.95 C21.65,11.85 21.45,11.75 21.35,11.65 C19.25,10.55 17.75,9.65 17.05,8.75 C16.35,7.85 15.95,6.75 15.95,5.65 C15.95,4.95 16.05,4.25 16.35,3.55 C16.65,2.85 17.05,2.25 17.55,1.75 C18.65,0.75 20.05,0.25 21.75,0.25 C23.05,0.25 24.25,0.55 25.35,1.05 C26.25,1.55 27.05,2.45 27.35,3.45 C27.35,3.45 25.05,4.85 25.05,4.85 C24.75,4.35 24.25,3.85 23.75,3.55 C23.15,3.25 22.55,3.05 21.85,3.15 C21.25,3.15 20.55,3.45 20.05,3.85 C19.85,4.05 19.65,4.35 19.45,4.65 C19.35,4.95 19.25,5.25 19.25,5.65 C19.25,6.85 20.35,7.95 22.55,8.95 C22.75,9.05 22.85,9.05 22.95,9.15 C24.85,10.05 26.15,10.95 26.95,11.75 C27.65,12.65 28.05,13.75 28.05,14.95 C28.05,16.85 27.45,18.25 26.35,19.35 C25.15,20.45 23.65,20.95 21.65,20.95 C19.95,20.95 18.65,20.55 17.55,19.75 C16.45,18.95 15.75,17.75 15.55,16.45z  M4.55 20.75 C6.75,20.75 8.85,19.85 10.45,18.25 C12.05,16.65 12.95,14.55 12.95,12.25 C12.95,12.25 12.95,0.85 12.95,0.85 C11.85,0.75 10.85,0.65 9.75,0.65 C9.75,0.65 9.75,4.35 9.75,4.35 C9.75,4.35 9.75,12.35 9.75,12.35 C9.75,13.25 9.55,14.15 9.15,14.85 C8.75,15.55 8.15,16.25 7.35,16.75 C6.65,17.25 5.75,17.45 4.85,17.55 C3.95,17.55 3.15,17.45 2.35,17.05 C2.35,17.05 0.25,19.55 0.25,19.55 C1.45,20.25 2.95,20.75 4.55,20.75z "/></g><g id="_R_G_L_13_G" transform=" translate(9.7, 21.65) translate(-1.85, -2)"><path id="_R_G_L_13_G_D_0_P_0" fill="#e6cb00" fill-opacity="1" fill-rule="nonzero" d=" M0.25 0.45 C0.25,0.45 0.25,3.75 0.25,3.75 C0.25,3.75 3.45,3.75 3.45,3.75 C3.45,3.75 3.45,3.45 3.45,3.45 C3.45,3.45 3.45,0.25 3.45,0.25 C2.35,0.25 1.35,0.35 0.25,0.45z "/></g><g id="_R_G_L_12_G" transform=" translate(14.2, 21.35) translate(-1.95, -1.9)"><path id="_R_G_L_12_G_D_0_P_0" fill="#e6cb00" fill-opacity="1" fill-rule="nonzero" d=" M0.25 0.35 C0.25,0.35 0.25,3.55 0.25,3.55 C1.35,3.45 2.55,3.45 3.65,3.45 C3.65,3.45 3.65,0.25 3.65,0.25 C2.45,0.25 1.35,0.35 0.25,0.35z "/></g><g id="_R_G_L_11_G" transform=" translate(18.7, 21.35) translate(-1.95, -1.9)"><path id="_R_G_L_11_G_D_0_P_0" fill="#e6cb00" fill-opacity="1" fill-rule="nonzero" d=" M0.25 0.25 C0.25,0.25 0.25,3.45 0.25,3.45 C1.35,3.45 2.55,3.45 3.65,3.55 C3.65,3.55 3.65,0.35 3.65,0.35 C2.55,0.25 1.45,0.25 0.25,0.25z "/></g><g id="_R_G_L_10_G" transform=" translate(9.7, 26.3) translate(-1.85, -1.95)"><path id="_R_G_L_10_G_D_0_P_0" fill="#e6cb00" fill-opacity="1" fill-rule="nonzero" d=" M3.45 0.25 C3.45,0.25 0.25,0.25 0.25,0.25 C0.25,0.25 0.25,3.65 0.25,3.65 C0.25,3.65 3.45,3.65 3.45,3.65 C3.45,3.65 3.45,0.25 3.45,0.25z "/></g><g id="_R_G_L_9_G" transform=" translate(9.7, 31.15) translate(-1.85, -2.2)"><path id="_R_G_L_9_G_D_0_P_0" fill="#e6cb00" fill-opacity="1" fill-rule="nonzero" d=" M3.45 2.55 C3.45,2.55 3.45,0.25 3.45,0.25 C3.45,0.25 0.25,0.25 0.25,0.25 C0.25,0.25 0.25,2.55 0.25,2.55 C0.25,3.05 0.25,3.65 0.35,4.15 C0.35,4.15 3.45,3.35 3.45,3.35 C3.45,3.35 3.45,2.55 3.45,2.55z "/></g><g id="_R_G_L_8_G" transform=" translate(10.9, 35.75) translate(-2.55, -2.5)"><path id="_R_G_L_8_G_D_0_P_0" fill="#e6cb00" fill-opacity="1" fill-rule="nonzero" d=" M4.85 2.35 C4.15,1.75 3.65,1.05 3.35,0.25 C3.35,0.25 0.25,1.05 0.25,1.05 C0.65,2.45 1.55,3.75 2.75,4.75 C2.75,4.75 4.85,2.35 4.85,2.35z "/></g><g id="_R_G_L_7_G" transform=" translate(57.85, 29.85) translate(-8, -10.2)"><path id="_R_G_L_7_G_D_0_P_0" fill="#ffffff" fill-opacity="1" fill-rule="nonzero" d=" M0.25 20.15 C0.25,20.15 0.25,0.25 0.25,0.25 C0.25,0.25 3.35,0.25 3.35,0.25 C3.35,0.25 12.65,13.95 12.65,13.95 C12.65,13.95 12.65,0.25 12.65,0.25 C12.65,0.25 15.75,0.25 15.75,0.25 C15.75,0.25 15.75,20.15 15.75,20.15 C15.75,20.15 12.75,20.15 12.75,20.15 C12.75,20.15 3.35,6.45 3.35,6.45 C3.35,6.45 3.35,20.15 3.35,20.15 C3.35,20.15 0.25,20.15 0.25,20.15z "/></g><g id="_R_G_L_6_G" transform=" translate(74, 32.85) translate(-5.95, -7.399)"><path id="_R_G_L_6_G_D_0_P_0" fill="#ffffff" fill-opacity="1" fill-rule="nonzero" d=" M11.65 14.25 C11.65,14.25 8.65,14.25 8.65,14.25 C8.65,14.25 8.65,12.15 8.65,12.15 C7.75,13.75 6.35,14.55 4.55,14.55 C3.25,14.55 2.15,14.15 1.45,13.45 C1.05,13.05 0.75,12.65 0.55,12.15 C0.35,11.65 0.25,11.15 0.25,10.55 C0.25,7.95 1.75,6.55 4.65,6.05 C4.65,6.05 8.65,5.45 8.65,5.45 C8.65,3.55 7.75,2.55 5.95,2.55 C4.35,2.55 2.85,3.15 1.65,4.25 C1.65,4.25 1.65,1.55 1.65,1.55 C3.15,0.65 4.85,0.25 6.55,0.25 C9.95,0.25 11.65,1.95 11.65,5.25 C11.65,5.25 11.65,14.25 11.65,14.25z  M8.75 7.65 C8.75,7.65 5.95,8.05 5.95,8.05 C5.25,8.15 4.55,8.35 3.95,8.65 C3.55,8.95 3.25,9.55 3.25,10.35 C3.25,10.65 3.25,10.85 3.35,11.15 C3.45,11.35 3.65,11.65 3.85,11.75 C4.35,12.15 4.85,12.35 5.45,12.25 C5.85,12.25 6.35,12.15 6.75,12.05 C7.15,11.85 7.55,11.65 7.75,11.35 C8.35,10.65 8.65,9.75 8.65,8.85 C8.65,8.85 8.65,7.65 8.65,7.65 C8.65,7.65 8.75,7.65 8.75,7.65z "/></g><g id="_R_G_L_5_G" transform=" translate(86.1, 31.1) translate(-4.45, -9.25)"><path id="_R_G_L_5_G_D_0_P_0" fill="#ffffff" fill-opacity="1" fill-rule="nonzero" d=" M8.65 17.75 C7.95,18.05 7.15,18.25 6.35,18.15 C3.75,18.15 2.45,16.85 2.45,14.35 C2.45,14.35 2.45,6.65 2.45,6.65 C2.45,6.65 0.25,6.65 0.25,6.65 C0.25,6.65 0.25,4.25 0.25,4.25 C0.25,4.25 2.35,4.25 2.35,4.25 C2.35,4.25 2.35,1.15 2.35,1.15 C2.35,1.15 5.35,0.25 5.35,0.25 C5.35,0.25 5.35,4.25 5.35,4.25 C5.35,4.25 8.55,4.25 8.55,4.25 C8.55,4.25 8.55,6.65 8.55,6.65 C8.55,6.65 5.35,6.65 5.35,6.65 C5.35,6.65 5.35,13.45 5.35,13.45 C5.35,14.25 5.45,14.85 5.75,15.15 C6.05,15.45 6.55,15.65 7.15,15.65 C7.65,15.65 8.15,15.55 8.45,15.15 C8.45,15.15 8.65,17.75 8.65,17.75z "/></g><g id="_R_G_L_4_G" transform=" translate(95, 29.7) translate(-2.05, -10.25)"><path id="_R_G_L_4_G_D_0_P_0" fill="#ffffff" fill-opacity="1" fill-rule="nonzero" d=" M2.05 3.85 C1.55,3.85 1.15,3.65 0.75,3.35 C0.55,3.15 0.45,3.05 0.35,2.75 C0.25,2.55 0.25,2.35 0.25,2.05 C0.25,1.85 0.25,1.55 0.35,1.35 C0.45,1.15 0.55,0.95 0.75,0.75 C1.05,0.45 1.55,0.25 2.05,0.25 C2.55,0.25 3.05,0.45 3.35,0.75 C3.55,0.95 3.65,1.15 3.75,1.35 C3.85,1.55 3.85,1.85 3.85,2.05 C3.85,2.25 3.85,2.55 3.75,2.75 C3.65,2.95 3.55,3.15 3.35,3.35 C2.95,3.75 2.45,3.85 2.05,3.85z  M3.55 20.25 C3.55,20.25 0.55,20.25 0.55,20.25 C0.55,20.25 0.55,6.75 0.55,6.75 C0.55,6.75 3.55,6.75 3.55,6.75 C3.55,6.75 3.55,20.25 3.55,20.25z "/></g><g id="_R_G_L_3_G" transform=" translate(105.7, 32.95) translate(-7.15, -7.3)"><path id="_R_G_L_3_G_D_0_P_0" fill="#ffffff" fill-opacity="1" fill-rule="nonzero" d=" M7.15 14.35 C5.05,14.35 3.45,13.75 2.15,12.45 C0.95,11.15 0.25,9.55 0.25,7.45 C0.25,5.15 0.85,3.45 2.15,2.15 C3.45,0.85 5.15,0.25 7.35,0.25 C9.45,0.25 11.05,0.85 12.25,2.15 C13.45,3.35 14.05,5.15 14.05,7.35 C14.05,9.55 13.45,11.25 12.15,12.55 C10.95,13.75 9.25,14.35 7.15,14.35z  M7.25 2.65 C6.75,2.65 6.15,2.75 5.65,2.95 C5.15,3.15 4.75,3.45 4.35,3.95 C3.65,4.75 3.35,5.95 3.35,7.45 C3.35,8.85 3.75,9.95 4.35,10.75 C4.65,11.15 5.15,11.45 5.65,11.65 C6.15,11.85 6.65,11.95 7.15,11.95 C8.35,11.95 9.25,11.55 9.95,10.75 C10.55,9.95 10.95,8.75 10.95,7.35 C10.95,5.85 10.65,4.75 9.95,3.85 C9.45,3.05 8.45,2.65 7.25,2.65z "/></g><g id="_R_G_L_2_G" transform=" translate(121.25, 32.8) translate(-6.3, -7.15)"><path id="_R_G_L_2_G_D_0_P_0" fill="#ffffff" fill-opacity="1" fill-rule="nonzero" d=" M12.25 14.05 C12.25,14.05 9.25,14.05 9.25,14.05 C9.25,14.05 9.25,6.45 9.25,6.45 C9.25,3.95 8.35,2.65 6.55,2.65 C6.15,2.65 5.65,2.75 5.25,2.95 C4.85,3.15 4.45,3.35 4.25,3.75 C3.65,4.45 3.35,5.45 3.35,6.35 C3.35,6.35 3.35,14.05 3.35,14.05 C3.35,14.05 0.25,14.05 0.25,14.05 C0.25,14.05 0.25,0.55 0.25,0.55 C0.25,0.55 3.35,0.55 3.35,0.55 C3.35,0.55 3.35,2.85 3.35,2.85 C3.35,2.85 3.45,2.85 3.45,2.85 C4.45,1.15 5.95,0.25 7.85,0.25 C9.35,0.25 10.45,0.75 11.15,1.65 C11.95,2.65 12.35,3.95 12.35,5.75 C12.35,5.75 12.25,14.05 12.25,14.05z "/></g><g id="_R_G_L_1_G" transform=" translate(18.45, 27.6) translate(-1.6, -1.65)"><path id="_R_G_L_1_G_D_0_P_0" fill="#2e2e2c" fill-opacity="1" fill-rule="nonzero" d=" M1.55 0.25 C1.25,0.25 1.05,0.35 0.85,0.45 C0.65,0.55 0.45,0.85 0.35,1.05 C0.25,1.25 0.25,1.55 0.25,1.85 C0.35,2.15 0.45,2.35 0.65,2.55 C0.85,2.75 1.05,2.85 1.35,2.95 C1.65,3.05 1.85,2.95 2.15,2.85 C2.35,2.75 2.55,2.55 2.75,2.35 C2.85,2.15 2.95,1.85 2.95,1.65 C2.95,1.25 2.85,0.95 2.55,0.75 C2.25,0.45 1.95,0.25 1.55,0.25z "/></g><g id="_R_G_L_0_G" transform=" translate(14.325, 27.6) translate(-1.6, -1.65)"><path id="_R_G_L_0_G_D_0_P_0" fill="#2e2e2c" fill-opacity="1" fill-rule="nonzero" d=" M1.55 0.25 C1.25,0.25 1.05,0.35 0.85,0.45 C0.65,0.55 0.45,0.85 0.35,1.05 C0.25,1.25 0.25,1.55 0.25,1.85 C0.35,2.15 0.45,2.35 0.65,2.55 C0.85,2.75 1.05,2.85 1.35,2.95 C1.65,3.05 1.85,2.95 2.15,2.85 C2.35,2.75 2.55,2.55 2.75,2.35 C2.85,2.15 2.95,1.85 2.95,1.65 C2.95,1.25 2.85,0.95 2.55,0.75 C2.25,0.45 1.95,0.25 1.55,0.25z "/></g></g><g id="time_group"/></svg>