<?xml version="1.0" encoding="utf-8"?>
<!-- Generator: Adobe Illustrator 23.0.5, SVG Export Plug-In . SVG Version: 6.00 Build 0)  -->
<svg version="1.1" id="Layer_1" xmlns="http://www.w3.org/2000/svg" xmlns:xlink="http://www.w3.org/1999/xlink" x="0px" y="0px"
	 width="249px" height="82px" viewBox="0 0 249 82" style="enable-background:new 0 0 249 82;" xml:space="preserve">
<style type="text/css">
	.st0{fill:#FF3586;}
	.st1{fill:#FEF502;}
</style>
<g>
	<g transform="translate(-829 -523)">
		<g>
			<path id="fzqea" class="st0" d="M921,523h80.1v12h-46v23.9h46v12h11.9V593h-11.9v12h-68.2v-12H921v-12h34.1v12h23.9v-22.2H921
				L921,523z"/>
		</g>
		<g>
			<path class="st1" d="M921,523h80.1v12h-46v23.9h46v12h11.9V593h-11.9v12h-68.2v-12H921v-12h34.1v12h23.9v-22.2H921L921,523z"/>
		</g>
	</g>
	<g transform="translate(-829 -523)">
		<g>
			<path id="fzqeb" class="st1" d="M829,546v-11h11v-12h60v12h11v23h-12v12h12v23h-11v12h-60v-11h-11v-24h11v23h36v-23h-23v-12h23
				v-23h-35v11H829z"/>
		</g>
	</g>
	<g transform="translate(-829 -523)">
		<g>
			<path id="fzqec" class="st1" d="M1045,578v-22h-22v-11h22v-22h11v22h22v11h-22v22H1045z"/>
		</g>
	</g>
</g>
</svg>
