<?xml version="1.0" encoding="utf-8"?>
<!-- Generator: Adobe Illustrator 23.0.5, SVG Export Plug-In . SVG Version: 6.00 Build 0)  -->
<svg version="1.1" id="Layer_1" xmlns="http://www.w3.org/2000/svg" xmlns:xlink="http://www.w3.org/1999/xlink" x="0px" y="0px"
	 width="28px" height="28px" viewBox="0 0 28 28" style="enable-background:new 0 0 28 28;" xml:space="preserve">
<path d="M23,5.8c2.9,4.3,4.4,9.2,3.8,14.8c0,0,0,0,0,0.1c-2.2,1.6-4.4,2.6-6.5,3.3c0,0-0.1,0-0.1,0c-0.5-0.7-0.9-1.4-1.3-2.2
	c0,0,0-0.1,0-0.1c0.7-0.3,1.4-0.6,2-1c0.1,0,0.1-0.1,0-0.1c-0.1-0.1-0.3-0.2-0.4-0.3c0,0-0.1,0-0.1,0c-4.2,1.9-8.8,1.9-13.1,0
	c0,0-0.1,0-0.1,0c-0.1,0.1-0.3,0.2-0.4,0.3c0,0,0,0.1,0,0.1c0.6,0.4,1.3,0.7,2,1c0,0,0.1,0.1,0,0.1c-0.4,0.8-0.8,1.5-1.3,2.2
	c0,0-0.1,0-0.1,0c-2.1-0.7-4.3-1.6-6.5-3.3c0,0,0,0,0-0.1c-0.5-4.8,0.5-9.8,3.8-14.8c0,0,0,0,0,0C6.6,5,8.4,4.4,10.3,4.1
	c0,0,0.1,0,0.1,0c0.2,0.4,0.5,0.9,0.7,1.4c2-0.3,3.9-0.3,5.9,0c0.2-0.4,0.4-0.9,0.7-1.4c0,0,0.1,0,0.1,0C19.6,4.4,21.4,5,23,5.8
	C23,5.7,23,5.8,23,5.8L23,5.8z M12,15c0-1.4-1-2.6-2.3-2.6c-1.3,0-2.3,1.2-2.3,2.6c0,1.4,1.1,2.6,2.3,2.6C11,17.6,12,16.4,12,15z
	 M20.7,15c0-1.4-1-2.6-2.3-2.6C17,12.4,16,13.5,16,15c0,1.4,1.1,2.6,2.3,2.6C19.6,17.6,20.7,16.4,20.7,15z"/>
</svg>
