<?xml version="1.0" encoding="utf-8"?>
<!-- Generator: Adobe Illustrator 23.0.5, SVG Export Plug-In . SVG Version: 6.00 Build 0)  -->
<svg version="1.1" id="Layer_1" xmlns="http://www.w3.org/2000/svg" xmlns:xlink="http://www.w3.org/1999/xlink" x="0px" y="0px"
	 width="18px" height="18px" viewBox="0 0 18 18" style="enable-background:new 0 0 18 18;" xml:space="preserve">
<style type="text/css">
	.st0{opacity:0.9;}
	.st1{fill:#FEF502;}
	.st2{fill:#DD0002;}
</style>
<g>
	<g transform="translate(-265 -4196)" class="st0">
		<g>
			<path class="st1" d="M265,4201.4h1.8v-3.6h3.6v-1.8h7.2v1.8h3.6v3.6h1.8v7.2h-1.8v3.6h-3.6v1.8h-1.8v-7.2h3.6v-5.4h-1.8v-1.8
				h-1.8v1.8h-3.6v-1.8h-1.8v1.8h-1.8v5.4h3.6v1.8h-3.6v1.8h3.6v3.6h-1.8v-1.8h-3.6v-3.6H265V4201.4z"/>
		</g>
		<g>
			<path class="st2" d="M265,4201.4h1.8v-3.6h3.6v-1.8h7.2v1.8h3.6v3.6h1.8v7.2h-1.8v3.6h-3.6v1.8h-1.8v-7.2h3.6v-5.4h-1.8v-1.8
				h-1.8v1.8h-3.6v-1.8h-1.8v1.8h-1.8v5.4h3.6v1.8h-3.6v1.8h3.6v3.6h-1.8v-1.8h-3.6v-3.6H265V4201.4z"/>
		</g>
	</g>
</g>
</svg>
