<?xml version="1.0" encoding="utf-8"?>
<!-- Generator: Adobe Illustrator 23.0.5, SVG Export Plug-In . SVG Version: 6.00 Build 0)  -->
<svg version="1.1" id="Layer_1" xmlns="http://www.w3.org/2000/svg" xmlns:xlink="http://www.w3.org/1999/xlink" x="0px" y="0px"
	 viewBox="0 0 22 17" style="enable-background:new 0 0 22 17;" xml:space="preserve">
<style type="text/css">
	.st0{fill:#FEF502;}
	.st1{fill:#DD0002;}
</style>
<g>
	<g transform="translate(-293 -4197)">
		<g>
			<path class="st0" d="M293,4199.4v-2.4h4.9v2.4h2.4v2.4h2.4v2.4h2.4v-2.8h2.4v-4.5h7.3v2.4h-2.4v12.1h2.4v2.4h-9.8v-2.4h2.4v-4.9
				h-2.4v4.9h-2.4v-2.4h-2.4v-2.4h-2.4v4.9h2.4v2.4H293v-2.4h2.4v-12.1L293,4199.4z"/>
		</g>
		<g>
			<path class="st1" d="M293,4199.4v-2.4h4.9v2.4h2.4v2.4h2.4v2.4h2.4v-2.8h2.4v-4.5h7.3v2.4h-2.4v12.1h2.4v2.4h-9.8v-2.4h2.4v-4.9
				h-2.4v4.9h-2.4v-2.4h-2.4v-2.4h-2.4v4.9h2.4v2.4H293v-2.4h2.4v-12.1L293,4199.4z"/>
		</g>
	</g>
</g>
</svg>
