<?xml version="1.0" encoding="utf-8"?>
<!-- Generator: Adobe Illustrator 23.0.5, SVG Export Plug-In . SVG Version: 6.00 Build 0)  -->
<svg version="1.1" id="Layer_1" xmlns="http://www.w3.org/2000/svg" xmlns:xlink="http://www.w3.org/1999/xlink" x="0px" y="0px"
	 width="28px" height="28px" viewBox="0 0 28 28" style="enable-background:new 0 0 28 28;" xml:space="preserve">
<g>
	<g id="Layer_1-2">
		<path d="M15.6,14c0,3.9-3.1,7-7,7s-7-3.1-7-7s3.1-7,7-7S15.6,10.1,15.6,14"/>
		<path d="M23.2,14c0,3.6-1.6,6.6-3.5,6.6s-3.5-3-3.5-6.6s1.6-6.6,3.5-6.6S23.2,10.4,23.2,14"/>
		<path d="M26.3,14c0,3.3-0.5,5.9-1.2,5.9s-1.2-2.6-1.2-5.9s0.5-5.9,1.2-5.9S26.3,10.7,26.3,14"/>
	</g>
</g>
</svg>
