<?xml version="1.0" encoding="utf-8"?>
<!-- Generator: Adobe Illustrator 23.0.5, SVG Export Plug-In . SVG Version: 6.00 Build 0)  -->
<svg version="1.1" id="Layer_1" xmlns="http://www.w3.org/2000/svg" xmlns:xlink="http://www.w3.org/1999/xlink" x="0px" y="0px"
	 viewBox="0 0 39.4 50" style="enable-background:new 0 0 39.4 50;" xml:space="preserve">
<path id="Фигура_25" d="M19.9,37.5c-1.9,0-3.5-1.5-3.5-3.4c0,0,0,0,0,0V34h-3.6v0.1c0,3.9,3.3,7,7.2,7c3.8,0,6.9-3.1,7-7V34
	h-3.6v0.1C23.4,36,21.8,37.5,19.9,37.5L19.9,37.5L19.9,37.5L19.9,37.5z M21.3,18h9.9v3.4h-9.9L21.3,18L21.3,18z M4.5,10.9
	C14.3,7.8,18,5.9,19.7,5c1.7,0.9,5.4,2.8,15.2,5.9c0,1.1,0.6,34.7-15.2,34.6C3.8,45.6,4.5,12,4.5,10.9L4.5,10.9z M19.7,50
	C40.2,50,39.4,9.1,39.4,7.7C26.7,3.7,21.9,1.2,19.7,0c-2.2,1.2-7,3.7-19.7,7.7C0,9.1-0.8,50,19.7,50L19.7,50z M13,14.8
	c-2.8,0-5,2.3-5,5.1s2.3,5,5.1,5c2.8,0,5-2.3,5-5C18.1,17,15.8,14.8,13,14.8C13,14.8,13,14.8,13,14.8L13,14.8z M11.4,19.8
	c0-0.9,0.7-1.6,1.6-1.6s1.6,0.7,1.6,1.6s-0.7,1.6-1.6,1.6C12.1,21.4,11.4,20.7,11.4,19.8C11.4,19.8,11.4,19.8,11.4,19.8z"/>
</svg>
