<svg xmlns="http://www.w3.org/2000/svg" viewBox="0 0 34 34"><path data-name="Rounded Rectangle 1 copy" class="jcls-1" d="M30.2 12.1l.3.2h.281v-.5l.887-.1.843.6H33.9l.1-.1c-.139-.4-.295-.9-.47-1.3h-.9l-.454-.5-.087-.8-.465.3-.249.9-.671-.7-.027-.6-.647-.6-.239-.2h-.75l.236.6.9.5.157.2-.2.1.009.5-.44.2-.376-.1-.235-.3h.612l.165-.2-1.355-.9-.1-.4-.55.5-.557-.1-.849 1.1-.168.4h-1.346l-.481-.2-.142-.9.173-.5.818-.1.892.1.109-.4-.379-.1.129-.8.9-.1.628-.9.648-.1.585.1h.216l-.12-.8-.71.3-.251-.7h-.413l-.077-.4.336-.4.8-.3.206-.4A17.664 17.664 0 0 0 17.353 0a17.154 17.154 0 0 0-10.2 3.3l.876-.1.39.3.735.1.057.3h1.169l-.159-.3-1.038-.1.244-.2-.085-.2h-.938l1.023-.8h.981l.461.6.765.1.461-.5.347.2-.636.6h-.836a2.861 2.861 0 0 1 .073.6h1.066l.115-.3h.735l.087-.5h-.432l.144-.4.331-.1h1.154l-.636.6.1.4.663.1-.043-.7.635-.4 1.125-.1 1.629.7v.6l.519.1-.26.5h-.736l-.218.6-1.679-.4 1.321-.7-.5-.4-1.139.1-.1.1H14.9l-.328.4h-.543l.043.3.19.1h-.008l-.441.1-.033.3h-.421l-.077-.5-.756.2-1.547.9.174.6.432.3.865.1v1l.4-.1.369-.7.919-.3V5.2l.512-.4 1.236.3-.086.8h.332l.909-.4.044 1 .661.3-.028.6-.633.3.043.2.764.3-.016.4h-.223l-.964-.3-.041-.3.282-.2v-.3h-.3l-.076.2-.531.1h-.237l-.151-.3h-.552l-.172.1v.3l.324.1.32.1h-.072l-.292.3-.128-.1-.282-.1-.769.7.1.1-1.135.6-1.067 1.1-.073.5-1.07.7-.531.5.059 1-.735-.3v-.6H7.513l-1.06.5-.46.8-.183.7.3.6.835.1 1.327-.8.117.4-.406.7 1.011.2.1 1.5 1.384.3.88-1 1.068.2.375.5 1.023-.1.029-.3.563.3.635 1h1.1l.4.7.058.8 1.212.5h1.528l.448.7.677.2-.13.6-.742 1-.217 2-.67.5h-1l-.331.6.246 1-1.083 1.4-.345.6-1.032.5-.678.1-.028.3.476.1-.057.3-.427.4.259.3h.513l-.028.4-.137.4-.044.3.759.6-.1.4-1.033-.1-1.027-.8-.8-1.4.112-1.3-.606-.8.245-1.4-.36-.1V24s-1.009-.7-1.067-.7a5.3 5.3 0 0 1-.534-.2l-.1-.5L9.196 21l.13-.6.043-.9.909-.7-.13-1-1.327-.1-1.038-1.2-.735-.2-.476-.1.058-.4-.606-.1v.3l-1.515-.4-.61-.9.248-.5-.959-1.3-.164-1h-.389l.129.9.663 1-.073.4H2.8L2.108 13v-1.3l-.721-.4v-1A16.907 16.907 0 0 0 0 17a17.182 17.182 0 0 0 17.354 17 17.58 17.58 0 0 0 13.459-6.3h-.572v-1.1l-.663-.9v-1.3l-.5-.5-.045-.6.643-1.2-1.217-2.1.142-1.4-1.1-.2-.4-.3h-.736l-.374.3h-1.3l-.044.1h-.727l-1.657-1.8.014-1.5.274-.1.1-.5h-.39l-.159-.6 1.917-1.4v-.9l.939-.5h1.152l.605-.3 1.947-.2v1zM25.332 6l.158-.2.571-.1.142.6.3.5.2.3.367.1-.346.4-.671.1h-.5l.057-.6.419-.1-.035-.3-.391-.2-.273-.2V6zm-.937 1.1l.347-.6.467-.1.332.2-.03.3-.714.5h-.4v-.3zm-9.428 2.1h-.362l.02-.2.161-.2.217.1zm1.266-.5l-.246.1-.05.2-.19.1h-.3a.318.318 0 0 1-.017-.1h-.118v-.2h.5l.1-.3h.423z"/></svg>