<?xml version="1.0" encoding="utf-8"?>
<!-- Generator: Adobe Illustrator 23.0.5, SVG Export Plug-In . SVG Version: 6.00 Build 0)  -->
<svg version="1.1" id="Layer_1" xmlns="http://www.w3.org/2000/svg" xmlns:xlink="http://www.w3.org/1999/xlink" x="0px" y="0px"
	 width="28px" height="28px" viewBox="0 0 28 28" style="enable-background:new 0 0 28 28;" xml:space="preserve">
<style type="text/css">
	.st0{fill-rule:evenodd;clip-rule:evenodd;}
</style>
<g>
	<path class="st0" d="M11.5,4.7c2.2-0.6,5.8-1.3,7.9-0.1s3.3,4.6,3.9,6.9c0.6,2.2,1.3,5.9,0.1,7.9s-4.6,3.3-6.9,3.9
		c-2.2,0.6-5.8,1.3-7.9,0.1c-2-1.2-3.3-4.6-3.9-6.9c-0.6-2.2-1.3-5.9-0.1-7.9C5.8,6.6,9.3,5.3,11.5,4.7L11.5,4.7z M10.1,9L10.1,9
		c0.5-0.2,1.1,0.2,1.2,0.7l0.4,1.3l2.8-0.8L14.2,9c-0.2-0.5,0.2-1.1,0.7-1.2l0,0c0.5-0.2,1.1,0.2,1.2,0.7l0.3,1.3l1.3-0.4
		c0.5-0.2,1.1,0.2,1.2,0.7l0,0c0.2,0.5-0.2,1.1-0.7,1.2L17,11.7l0.8,2.9l1.3-0.3c0.5-0.2,1.1,0.2,1.2,0.7l0,0
		c0.2,0.5-0.2,1.1-0.7,1.2l-1.3,0.3l0.4,1.3c0.2,0.5-0.2,1.1-0.7,1.2l0,0c-0.5,0.2-1.1-0.2-1.2-0.7L16.4,17l-2.8,0.8l0.3,1.3
		c0.2,0.5-0.2,1.1-0.7,1.2l0,0c-0.5,0.2-1.1-0.2-1.2-0.7l-0.3-1.3l-1.3,0.4C9.8,18.8,9.2,18.5,9,18l0,0c-0.2-0.5,0.2-1.1,0.7-1.2
		l1.3-0.4l-0.8-2.9L9,13.8c-0.5,0.2-1.1-0.2-1.2-0.7l0,0c-0.2-0.5,0.2-1.1,0.7-1.2l1.3-0.3l-0.4-1.3C9.3,9.7,9.6,9.2,10.1,9L10.1,9z
		 M15.8,15.1l-0.8-2.9L12.2,13l0.8,2.9L15.8,15.1z"/>
</g>
</svg>
