<svg xmlns="http://www.w3.org/2000/svg" viewBox="0 0 43 42.9"><path fill-rule="evenodd" clip-rule="evenodd" d="M20.4 24.2l3.9-1.6-1.6-3.9-3.9 1.6 1.6 3.9zM3.9 17.3L0 18.8c2.6 6.5 5.3 12.9 7.9 19.4l3.9-1.6 1.6 3.9 3.9-1.6 1.6 3.9c6.5-2.7 13-5.3 19.5-7.9L36.8 31l3.9-1.6-1.6-3.9L43 24c-2.6-6.5-5.3-13-7.9-19.4l-3.9 1.6-1.6-3.9-3.9 1.6L24.2 0c-6.5 2.6-13 5.3-19.5 7.9l1.6 3.9-3.9 1.6 1.5 3.9zm7 6.1l-1.6-3.9 3.9-1.6-1.6-3.9 3.9-1.6 1.6 3.9 3.9-1.6-1.6-3.9 3.9-1.6 1.6 3.9 3.9-1.6 1.6 3.9-3.9 1.6 1.6 3.9 3.9-1.6 1.6 3.9-3.9 1.6 1.6 3.9-3.9 1.6-1.6-3.9-3.9 1.6 1.6 3.9-3.9 1.6-1.6-3.9-3.9 1.6-1.6-3.9 3.9-1.6-1.6-3.9-3.9 1.6z"/></svg>