<?xml version="1.0" encoding="utf-8"?>
<!-- Generator: Adobe Illustrator 23.0.5, SVG Export Plug-In . SVG Version: 6.00 Build 0)  -->
<svg version="1.1" id="Layer_1" xmlns="http://www.w3.org/2000/svg" xmlns:xlink="http://www.w3.org/1999/xlink" x="0px" y="0px"
	 width="28px" height="28px" viewBox="0 0 28 28" style="enable-background:new 0 0 28 28;" xml:space="preserve">
<path d="M23.5,7.7c-0.3,0.1-0.6,0.3-1,0.4c0.4-0.4,0.7-1,0.9-1.5c0-0.1,0-0.3-0.1-0.4c-0.1-0.1-0.3-0.1-0.4,0
	c-0.7,0.4-1.5,0.7-2.3,0.9c-0.8-0.8-1.9-1.2-3-1.2c-2.4,0-4.3,1.9-4.3,4.3c0,0.2,0,0.4,0,0.6c-2.9-0.3-5.7-1.7-7.5-4
	C5.9,6.6,5.8,6.5,5.6,6.5c-0.1,0-0.2,0.1-0.3,0.2C5,7.4,4.8,8.1,4.8,8.9c0,1,0.4,2,1,2.8c-0.2-0.1-0.4-0.2-0.6-0.3
	c-0.1-0.1-0.2-0.1-0.3,0c-0.1,0.1-0.2,0.2-0.2,0.3c0,0,0,0,0,0.1c0,1.5,0.8,2.9,2.1,3.7c-0.1,0-0.2,0-0.3,0c-0.1,0-0.2,0-0.3,0.1
	c-0.1,0.1-0.1,0.2-0.1,0.3c0.5,1.5,1.7,2.5,3.1,2.9c-1.2,0.8-2.6,1.2-4.1,1.2c-0.3,0-0.6,0-0.9-0.1c-0.1,0-0.3,0.1-0.3,0.2
	c-0.1,0.1,0,0.3,0.1,0.4c1.9,1.2,4,1.8,6.3,1.8c4.4,0,7.1-2.1,8.6-3.8c1.9-2.2,3-5,3-7.8c0-0.1,0-0.2,0-0.4c0.7-0.6,1.4-1.2,1.9-2
	c0.1-0.1,0.1-0.3,0-0.4C23.8,7.7,23.7,7.6,23.5,7.7z"/>
</svg>
