<?xml version="1.0" encoding="utf-8"?>
<!-- Generator: Adobe Illustrator 23.0.5, SVG Export Plug-In . SVG Version: 6.00 Build 0)  -->
<svg version="1.1" id="Layer_1" xmlns="http://www.w3.org/2000/svg" xmlns:xlink="http://www.w3.org/1999/xlink" x="0px" y="0px"
	 width="28px" height="28px" viewBox="0 0 28 28" style="enable-background:new 0 0 28 28;" xml:space="preserve">
<path d="M24.1,7.6c-0.8-0.9-2.3-1.3-5.1-1.3H8.9c-2.9,0-4.4,0.4-5.1,1.4C3,8.7,3,10.1,3,12.1v3.8c0,3.9,0.9,5.8,5.9,5.8h10.2
	c2.4,0,3.8-0.3,4.6-1.2c0.9-0.9,1.3-2.2,1.3-4.7v-3.8C25,10,24.9,8.5,24.1,7.6z M17.1,14.5l-4.6,2.4C12.4,17,12.3,17,12.2,17
	c-0.1,0-0.3,0-0.4-0.1c-0.2-0.1-0.3-0.4-0.3-0.6v-4.8c0-0.2,0.1-0.5,0.3-0.6c0.2-0.1,0.5-0.1,0.7,0l4.6,2.4c0.2,0.1,0.4,0.4,0.4,0.6
	C17.5,14.2,17.4,14.4,17.1,14.5z"/>
</svg>
