<svg width="190" height="48" viewBox="0 0 190 48" fill="none" xmlns="http://www.w3.org/2000/svg">
<g clip-path="url(#clip0_3533_506)">
<path d="M27.0134 3.00132L25.442 10.8581L39.0207 0H0V30.0005L27.0134 3.00132Z" fill="black"/>
<path d="M67.7495 5.76123H72.2856L79.3672 21.4917H75.3732L73.9925 18.211H65.9156L64.5136 21.4917H60.6467L67.7495 5.76123ZM72.8489 15.5187L69.9773 8.76255H69.935L69.0921 10.7691L67.0634 15.5187H72.8489Z" fill="black"/>
<path d="M81.0317 5.76123H84.5937V21.4917H81.0317V5.76123Z" fill="black"/>
<path d="M91.5737 13.6179C91.5737 8.76245 94.8773 5.56641 100.447 5.56641C105.22 5.56641 108.414 7.85232 108.956 11.6325H105.33C104.814 9.53713 103.043 8.41533 100.451 8.41533C97.2576 8.41533 95.2246 10.2271 95.2246 13.6179C95.2246 17.0087 97.2534 18.8628 100.451 18.8628C103.064 18.8628 104.877 17.6564 105.33 15.6033H108.956C108.481 19.4004 105.199 21.6906 100.447 21.6906C94.8773 21.6906 91.5737 18.4988 91.5737 13.6179Z" fill="black"/>
<path d="M110.531 13.6179C110.531 8.63123 113.856 5.56641 119.404 5.56641C124.953 5.56641 128.235 8.63123 128.235 13.6179C128.235 18.6046 124.91 21.6906 119.404 21.6906C113.898 21.6906 110.531 18.6258 110.531 13.6179ZM124.589 13.6179C124.589 10.316 122.644 8.39417 119.409 8.39417C116.173 8.39417 114.182 10.316 114.182 13.6179C114.182 16.9198 116.126 18.8628 119.409 18.8628C122.691 18.8628 124.589 16.941 124.589 13.6179Z" fill="black"/>
<path d="M130.421 5.76123H137.934C143.377 5.76123 146.181 8.88955 146.181 13.6392C146.181 18.7105 142.987 21.496 137.934 21.496H130.421V5.76123ZM142.597 13.5757C142.597 10.0156 140.459 8.5255 137.244 8.5255H133.961V18.7105H137.244C140.937 18.7105 142.597 16.7887 142.597 13.5757Z" fill="black"/>
<path d="M148.387 5.76123H151.949V21.4917H148.387V5.76123Z" fill="black"/>
<path d="M154.63 5.76123H158.971L167.154 16.8987H167.286L167.18 12.0644V5.76123H170.699V21.4917H166.426L158.243 10.4431H158.112L158.218 15.0827V21.4917H154.634V5.76123H154.63Z" fill="black"/>
<path d="M172.686 13.6179C172.686 8.76245 176.032 5.56641 181.538 5.56641C186.201 5.56641 189.289 7.80999 189.742 11.133H186.159C185.705 9.38473 183.893 8.39417 181.538 8.39417C178.149 8.39417 176.269 10.4219 176.269 13.6179C176.269 17.0045 178.298 18.8628 181.453 18.8628C184.435 18.8628 186.159 17.5463 186.421 15.345H181.195V13.0337H190.004V14.2868C190.004 19.1422 186.205 21.6906 181.411 21.6906C175.989 21.6906 172.686 18.4988 172.686 13.6179Z" fill="black"/>
<path d="M60.8838 37.1883H64.5982C64.6618 38.9578 66.0213 39.9738 68.6134 39.9738C70.8793 39.9738 72.133 39.2414 72.133 37.8784C72.133 36.2401 70.8582 36.0454 68.0543 35.6983C63.6919 35.1818 61.2946 34.2082 61.2946 31.101C61.2946 27.9939 63.9926 26.3091 68.3339 26.3091C72.438 26.3091 74.9834 28.0151 75.2206 31.1434H71.6163C71.4638 29.4586 70.1932 28.7474 68.2026 28.7474C66.2119 28.7474 64.9625 29.5009 64.9625 30.7116C64.9625 32.1593 66.0213 32.371 68.9988 32.7181C73.4883 33.26 75.8009 34.1193 75.8009 37.5947C75.8009 40.6596 73.1876 42.429 68.4821 42.429C63.2768 42.429 60.9473 40.2701 60.8838 37.1841V37.1883Z" fill="black"/>
<path d="M77.707 35.5248V26.5039H81.2266V35.5248C81.2266 38.0054 82.2643 39.4955 85.2842 39.4955C87.9609 39.4955 89.3671 38.3737 89.3671 35.5248V26.5039H92.8867V35.5248C92.8867 39.9485 90.4471 42.4291 85.2884 42.4291C80.7099 42.4291 77.7113 40.4438 77.7113 35.5248H77.707Z" fill="black"/>
<path d="M95.4151 26.5037H100.642L103.988 35.3299L105.195 38.4159H105.237L106.423 35.3299L109.727 26.5037H114.864V42.2342H111.429V35.694L111.493 30.2755H111.408L109.875 34.3775L106.681 42.2342H103.594L100.421 34.3775L98.867 30.2755H98.8246L98.8458 35.7363V42.23H95.4109V26.4995L95.4151 26.5037Z" fill="black"/>
<path d="M117.549 26.5037H122.776L126.122 35.3299L127.329 38.4159H127.371L128.557 35.3299L131.861 26.5037H136.998V42.2342H133.563V35.694L133.627 30.2755H133.542L132.009 34.3775L128.816 42.2342H125.728L122.556 34.3775L121.001 30.2755H120.959L120.98 35.7363V42.23H117.545V26.4995L117.549 26.5037Z" fill="black"/>
<path d="M139.684 26.5039H143.246V42.2344H139.684V26.5039Z" fill="black"/>
<path d="M150.742 29.3528H145.041V26.5039H160.068V29.3528H154.283V42.2344H150.742V29.3528Z" fill="black"/>
<path d="M9.11046 35.3765L8.48786 36.8708L6.98853 40.4055H11.2578L9.14011 35.3765H9.11046Z" fill="black"/>
<path d="M21.0118 26.9991L22.6806 18.6682L0 30.0005V47.9999H48.0252V14.9219L21.0118 26.9949V26.9991ZM13.1213 44.8547L12.1005 42.4121H6.14133L5.10366 44.8547H2.25323L7.49666 33.1457H10.8426L16.0691 44.8547H13.1213ZM19.593 44.8547H16.9628V33.1457H19.593V44.8547ZM27.2633 42.8947C29.1904 42.8947 30.5288 41.9973 30.8634 40.4691H33.5401C33.1886 43.2969 30.7702 44.9986 27.2633 44.9986C23.1549 44.9986 20.7153 42.6196 20.7153 38.9917C20.7153 35.3639 23.1549 33.0018 27.2633 33.0018C30.7829 33.0018 33.142 34.7035 33.5401 37.5143H30.8634C30.4822 35.9565 29.1734 35.1226 27.2633 35.1226C24.9041 35.1226 23.409 36.473 23.409 38.996C23.409 41.5189 24.9084 42.8989 27.2633 42.8989V42.8947ZM40.0118 44.9986C36.1703 44.9986 34.4507 43.3942 34.4041 41.0956H37.1444C37.191 42.4121 38.1948 43.1656 40.1092 43.1656C41.7822 43.1656 42.7055 42.6196 42.7055 41.6078C42.7055 40.3887 41.7653 40.2405 39.6942 39.9865C36.4753 39.6013 34.7091 38.8774 34.7091 36.5661C34.7091 34.2548 36.6997 33.0018 39.9017 33.0018C42.93 33.0018 44.8105 34.2717 44.9842 36.6H42.3243C42.2142 35.347 41.274 34.8178 39.8085 34.8178C38.3431 34.8178 37.4198 35.3808 37.4198 36.2783C37.4198 37.3535 38.1991 37.5143 40.3972 37.7726C43.7093 38.1747 45.4162 38.8182 45.4162 41.4046C45.4162 43.6863 43.4891 45.0028 40.0161 45.0028L40.0118 44.9986Z" fill="black"/>
</g>
<defs>
<clipPath id="clip0_3533_506">
<rect width="190" height="48" fill="white"/>
</clipPath>
</defs>
</svg>
