<svg width="28" height="28" viewBox="0 0 28 28" fill="none" xmlns="http://www.w3.org/2000/svg">
<rect x="2.33337" y="3.5" width="23.3333" height="2.33333" fill="black"/>
<rect x="2.33337" y="22.1665" width="9.33333" height="2.33333" fill="black"/>
<rect x="2.33337" y="5.8335" width="2.33333" height="16.3333" fill="black"/>
<rect x="23.3334" y="5.8335" width="2.33333" height="9.33333" fill="black"/>
<rect x="7" y="8.1665" width="2.33333" height="2.33333" fill="black"/>
<rect x="11.6666" y="8.1665" width="2.33333" height="2.33333" fill="black"/>
<rect x="16.3334" y="8.1665" width="2.33333" height="2.33333" fill="black"/>
<rect x="18.6666" y="15.1665" width="2.33333" height="2.33333" fill="black"/>
<rect x="18.6666" y="24.5" width="2.33333" height="2.33333" fill="black"/>
<rect x="14" y="19.8335" width="2.33333" height="2.33333" fill="black"/>
<rect x="23.3334" y="19.8335" width="2.33333" height="2.33333" fill="black"/>
<rect x="16.3334" y="17.5" width="2.33333" height="2.33333" fill="black"/>
<rect x="21" y="17.5" width="2.33333" height="2.33333" fill="black"/>
<rect x="21" y="22.1665" width="2.33333" height="2.33333" fill="black"/>
<rect x="16.3334" y="22.1665" width="2.33333" height="2.33333" fill="black"/>
</svg>
