<svg width="12" height="12" viewBox="0 0 12 12" fill="none" xmlns="http://www.w3.org/2000/svg">
<g clip-path="url(#clip0_3627_1911)">
<path d="M0 0H12V12H0" fill="#B31942"/>
<path d="M0 1.38464H12H0ZM12 3.2308H0H12ZM0 5.07695H12H0ZM12 6.92311H0H12ZM0 8.76926H12H0ZM12 10.6154H0H12Z" fill="black"/>
<path fill-rule="evenodd" clip-rule="evenodd" d="M12 1.84617H0V0.923096H12V1.84617ZM0 2.76925H12V3.69233H0V2.76925ZM12 5.53848H0V4.6154H12V5.53848ZM0 6.46156H12V7.38463H0V6.46156ZM12 9.23079H0V8.30771H12V9.23079ZM0 10.1539H12V11.0769H0V10.1539Z" fill="white"/>
<path d="M-3 0H6.16854V6.46154H-3" fill="#0A3161"/>
<path d="M0.0566416 0.922974L0.274825 1.59092L-0.296387 1.17811H0.40967L-0.161542 1.59092L0.0566416 0.922974Z" fill="white"/>
<path d="M0.0566416 2.21533L0.274825 2.88328L-0.296387 2.47046H0.40967L-0.161542 2.88328L0.0566416 2.21533Z" fill="white"/>
<path d="M0.0566416 3.50757L0.274825 4.17551L-0.296387 3.7627H0.40967L-0.161542 4.17551L0.0566416 3.50757Z" fill="white"/>
<path d="M0.0566416 4.79993L0.274825 5.46787L-0.296387 5.05506H0.40967L-0.161542 5.46787L0.0566416 4.79993Z" fill="white"/>
<path d="M0.820313 0.276855L1.0385 0.9448L0.467285 0.531988H1.17334L0.60213 0.9448L0.820313 0.276855Z" fill="white"/>
<path d="M0.820313 1.56921L1.0385 2.23716L0.467285 1.82435H1.17334L0.60213 2.23716L0.820313 1.56921Z" fill="white"/>
<path d="M0.820313 2.86145L1.0385 3.52939L0.467285 3.11658H1.17334L0.60213 3.52939L0.820313 2.86145Z" fill="white"/>
<path d="M0.820313 4.15381L1.0385 4.82175L0.467285 4.40894H1.17334L0.60213 4.82175L0.820313 4.15381Z" fill="white"/>
<path d="M0.820313 5.44604L1.0385 6.11399L0.467285 5.70118H1.17334L0.60213 6.11399L0.820313 5.44604Z" fill="white"/>
<path d="M1.58447 0.922974L1.80266 1.59092L1.23145 1.17811H1.9375L1.36629 1.59092L1.58447 0.922974Z" fill="white"/>
<path d="M1.58447 2.21533L1.80266 2.88328L1.23145 2.47046H1.9375L1.36629 2.88328L1.58447 2.21533Z" fill="white"/>
<path d="M1.58447 3.50757L1.80266 4.17551L1.23145 3.7627H1.9375L1.36629 4.17551L1.58447 3.50757Z" fill="white"/>
<path d="M1.58447 4.79993L1.80266 5.46787L1.23145 5.05506H1.9375L1.36629 5.46787L1.58447 4.79993Z" fill="white"/>
<path d="M2.34863 0.276855L2.56682 0.9448L1.99561 0.531988H2.70166L2.13045 0.9448L2.34863 0.276855Z" fill="white"/>
<path d="M2.34863 1.56921L2.56682 2.23716L1.99561 1.82435H2.70166L2.13045 2.23716L2.34863 1.56921Z" fill="white"/>
<path d="M2.34863 2.86145L2.56682 3.52939L1.99561 3.11658H2.70166L2.13045 3.52939L2.34863 2.86145Z" fill="white"/>
<path d="M2.34863 4.15381L2.56682 4.82175L1.99561 4.40894H2.70166L2.13045 4.82175L2.34863 4.15381Z" fill="white"/>
<path d="M2.34863 5.44604L2.56682 6.11399L1.99561 5.70118H2.70166L2.13045 6.11399L2.34863 5.44604Z" fill="white"/>
<path d="M3.11279 0.922974L3.33098 1.59092L2.75977 1.17811H3.46582L2.89461 1.59092L3.11279 0.922974Z" fill="white"/>
<path d="M3.11279 2.21533L3.33098 2.88328L2.75977 2.47046H3.46582L2.89461 2.88328L3.11279 2.21533Z" fill="white"/>
<path d="M3.11279 3.50757L3.33098 4.17551L2.75977 3.7627H3.46582L2.89461 4.17551L3.11279 3.50757Z" fill="white"/>
<path d="M3.11279 4.79993L3.33098 5.46787L2.75977 5.05506H3.46582L2.89461 5.46787L3.11279 4.79993Z" fill="white"/>
<path d="M3.87647 0.276855L4.09465 0.9448L3.52344 0.531988H4.22949L3.65828 0.9448L3.87647 0.276855Z" fill="white"/>
<path d="M3.87647 1.56921L4.09465 2.23716L3.52344 1.82435H4.22949L3.65828 2.23716L3.87647 1.56921Z" fill="white"/>
<path d="M3.87647 2.86145L4.09465 3.52939L3.52344 3.11658H4.22949L3.65828 3.52939L3.87647 2.86145Z" fill="white"/>
<path d="M3.87647 4.15381L4.09465 4.82175L3.52344 4.40894H4.22949L3.65828 4.82175L3.87647 4.15381Z" fill="white"/>
<path d="M3.87647 5.44604L4.09465 6.11399L3.52344 5.70118H4.22949L3.65828 6.11399L3.87647 5.44604Z" fill="white"/>
<path d="M4.64063 0.922974L4.85881 1.59092L4.2876 1.17811H4.99365L4.42244 1.59092L4.64063 0.922974Z" fill="white"/>
<path d="M4.64063 2.21533L4.85881 2.88328L4.2876 2.47046H4.99365L4.42244 2.88328L4.64063 2.21533Z" fill="white"/>
<path d="M4.64063 3.50757L4.85881 4.17551L4.2876 3.7627H4.99365L4.42244 4.17551L4.64063 3.50757Z" fill="white"/>
<path d="M4.64063 4.79993L4.85881 5.46787L4.2876 5.05506H4.99365L4.42244 5.46787L4.64063 4.79993Z" fill="white"/>
<path d="M5.40479 0.276855L5.62297 0.9448L5.05176 0.531988H5.75781L5.1866 0.9448L5.40479 0.276855Z" fill="white"/>
<path d="M5.40479 1.56921L5.62297 2.23716L5.05176 1.82435H5.75781L5.1866 2.23716L5.40479 1.56921Z" fill="white"/>
<path d="M5.40479 2.86145L5.62297 3.52939L5.05176 3.11658H5.75781L5.1866 3.52939L5.40479 2.86145Z" fill="white"/>
<path d="M5.40479 4.15381L5.62297 4.82175L5.05176 4.40894H5.75781L5.1866 4.82175L5.40479 4.15381Z" fill="white"/>
<path d="M5.40479 5.44604L5.62297 6.11399L5.05176 5.70118H5.75781L5.1866 6.11399L5.40479 5.44604Z" fill="white"/>
</g>
<defs>
<clipPath id="clip0_3627_1911">
<rect width="12" height="12" fill="white"/>
</clipPath>
</defs>
</svg>
