<?xml version="1.0" encoding="utf-8"?>
<!-- Generator: Adobe Illustrator 23.0.5, SVG Export Plug-In . SVG Version: 6.00 Build 0)  -->
<svg version="1.1" id="Layer_1" xmlns="http://www.w3.org/2000/svg" xmlns:xlink="http://www.w3.org/1999/xlink" x="0px" y="0px"
	 width="17px" height="14.3px" viewBox="0 0 17 14.3" style="enable-background:new 0 0 17 14.3;" xml:space="preserve">
<style type="text/css">
	.st0{fill-rule:evenodd;clip-rule:evenodd;fill:#FEFEFE;}
</style>
<g>
	<path class="st0" d="M1.1,5.8h1.5C1.7,5.5,1,4.6,1,3.6c0-1.3,1-2.3,2.3-2.3c1,0,1.8,0.6,2.1,1.4C5.5,1.2,6.8,0,8.3,0
		c1.6,0,3,1.3,3,2.9c0,1.3-0.9,2.5-2.1,2.8h2.2c0.6,0,1.1,0.5,1.1,1.1v1.7L17,5.2v9.2L12.4,11v1.7c0,0.6-0.5,1.1-1.1,1.1H1.1
		c-0.6,0-1.1-0.5-1.1-1.1V6.8C0,6.3,0.5,5.8,1.1,5.8L1.1,5.8z M3.9,5.8h3.6c-0.9-0.3-1.7-1-2-1.9C5.4,4.8,4.8,5.5,3.9,5.8L3.9,5.8z"
		/>
</g>
</svg>
