<?xml version="1.0" encoding="utf-8"?>
<!-- Generator: Adobe Illustrator 23.0.5, SVG Export Plug-In . SVG Version: 6.00 Build 0)  -->
<svg version="1.1" id="Capa_1" xmlns="http://www.w3.org/2000/svg" xmlns:xlink="http://www.w3.org/1999/xlink" x="0px" y="0px"
	 width="30px" height="23.7px" viewBox="0 0 30 23.7" style="enable-background:new 0 0 30 23.7;" xml:space="preserve">
<g>
	<path d="M27.9,6.3h-0.8v9c0,1.4-0.8,2.7-2.5,2.7H8.5v0.4c0,1.2,1.4,2.5,2.9,2.5h12.3l4.7,2.8l-0.7-2.8h0.2c1.5,0,2.1-1.3,2.1-2.5
		v-10C30,7.2,29.3,6.3,27.9,6.3z"/>
	<path d="M22.2,0H3.5C1.9,0,0,1.5,0,2.9v11.3c0,1.3,1.6,2.2,3.1,2.4l-1,3.8l6.4-3.8h13.7c1.6,0,3.2-1,3.2-2.4V5V2.9
		C25.4,1.5,23.9,0,22.2,0z M6.4,9.6c-0.9,0-1.7-0.8-1.7-1.7s0.8-1.7,1.7-1.7c0.9,0,1.7,0.8,1.7,1.7S7.3,9.6,6.4,9.6z M12.7,9.6
		c-0.9,0-1.7-0.8-1.7-1.7s0.8-1.7,1.7-1.7c0.9,0,1.7,0.8,1.7,1.7S13.6,9.6,12.7,9.6z M19,9.6c-0.9,0-1.7-0.8-1.7-1.7
		s0.8-1.7,1.7-1.7c0.9,0,1.7,0.8,1.7,1.7S19.9,9.6,19,9.6z"/>
</g>
</svg>
