<?xml version="1.0" encoding="utf-8"?>
<!-- Generator: Adobe Illustrator 23.0.5, SVG Export Plug-In . SVG Version: 6.00 Build 0)  -->
<svg version="1.1" id="Layer_1" xmlns="http://www.w3.org/2000/svg" xmlns:xlink="http://www.w3.org/1999/xlink" x="0px" y="0px"
	 width="231.1px" height="198.4px" viewBox="0 0 231.1 198.4" style="enable-background:new 0 0 231.1 198.4;" xml:space="preserve"
	>
<style type="text/css">
	.st0{fill-rule:evenodd;clip-rule:evenodd;fill:#2C302D;}
</style>
<g>
	<path class="st0" d="M38.2,30.5c0,0.8-0.1,4.3,0,9.8C28,43.5,20.3,51.8,18,62.3L0,65.6l1.2,6.2C2.8,80.9,7.6,89,14.8,94.9
		L3.6,106.6l4.6,4.3c7.8,7.5,17.9,11.1,28,10.9c3.8-0.1,7.6-0.8,11.2-1.9c9.6,40.2,29,78.7,68.2,78.6c39.3,0.1,58.6-38.4,68.2-78.6
		c3.6,1.2,7.4,1.8,11.2,1.9c10.1,0.2,20.2-3.4,28.1-10.9l4.6-4.3l-11.2-11.6c7.2-5.9,11.9-14,13.7-23.2l1.1-6.2l-18-3.3
		c-2.3-10.5-10.1-18.8-20.2-21.9c0.1-5.6,0.1-9.1,0.1-9.8C143.1,14.6,124.1,4.8,115.5,0C107,4.8,88,14.6,38.2,30.5L38.2,30.5z
		 M38.6,53.8c0.7,14.3,2.3,33.8,6.1,53.6c-7.4,2.8-15.8,2.2-22.8-1.8l12.8-13.5l-7.4-3.8c-5.3-2.8-9.6-7.3-12-12.8l9.3-1.7l4.9-0.9
		l0.3-5C30.2,61.9,33.6,56.6,38.6,53.8L38.6,53.8z M186.3,107.4c3.8-19.9,5.5-39.3,6.1-53.6c5.1,2.8,8.5,8.2,8.7,14.1l0.3,5
		l14.3,2.6c-2.4,5.5-6.7,9.9-12,12.8l-7.4,3.8l12.8,13.5C202,109.7,193.6,110.2,186.3,107.4L186.3,107.4z M101.9,135.8
		c0,3.8,1.5,7.2,4,9.6c2.5,2.4,5.9,4,9.6,4c3.8,0,7.2-1.6,9.7-4c2.4-2.5,3.9-5.9,3.9-9.6h12.6c0,7.3-2.9,13.8-7.7,18.5
		c-4.8,4.7-11.3,7.7-18.6,7.7c-7.2,0-13.8-3-18.6-7.7c-4.8-4.7-7.7-11.3-7.7-18.5H101.9z M115.5,73.3c2.3,0,4.5,0.3,6.6,0.9
		c1-1.7,2.2-3.2,3.6-4.6c4.3-4.4,10.4-7.1,17.1-7.1s12.7,2.7,17.1,7.1C164.3,74,167,80,167,86.7c0,6.7-2.7,12.7-7.1,17.1
		c-4.4,4.4-10.5,7.1-17.1,7.1s-12.7-2.7-17.1-7.1c-4.3-4.2-6.9-10-7.1-16.4c-2-0.6-4.1-0.6-6.2,0c-0.2,6.4-2.8,12.2-7.1,16.4
		c-4.4,4.4-10.5,7.1-17.1,7.1s-12.7-2.7-17.1-7.1C66.7,99.4,64,93.3,64,86.7c0-6.7,2.7-12.7,7.1-17.1c4.3-4.4,10.4-7.1,17.1-7.1
		s12.7,2.7,17.1,7.1c1.4,1.4,2.6,2.9,3.6,4.6C111.1,73.6,113.3,73.3,115.5,73.3L115.5,73.3z M95.7,79.2c-1.9-1.9-4.6-3.1-7.5-3.1
		c-2.9,0-5.6,1.2-7.5,3.1c-1.9,1.9-3.1,4.5-3.1,7.5c0,2.9,1.2,5.6,3.1,7.4c1.9,1.9,4.6,3.1,7.5,3.1c2.9,0,5.6-1.2,7.5-3.1
		c1.9-1.9,3.1-4.5,3.1-7.4C98.8,83.7,97.6,81.1,95.7,79.2L95.7,79.2z M150.3,79.2c-1.9-1.9-4.6-3.1-7.5-3.1s-5.6,1.2-7.5,3.1
		c-1.9,1.9-3.1,4.5-3.1,7.5c0,2.9,1.2,5.6,3.1,7.4c1.9,1.9,4.6,3.1,7.5,3.1s5.6-1.2,7.5-3.1c1.9-1.9,3.1-4.5,3.1-7.4
		C153.4,83.7,152.2,81.1,150.3,79.2L150.3,79.2z M55.7,43.3c38.6-12.2,53.2-19.8,59.8-23.6c6.6,3.7,21.3,11.3,59.9,23.6
		c0,4.4,2.4,137.5-59.9,137.4c-37.8,0.1-51.7-48.7-56.9-88.2c-1.1-8.3-1.8-16.3-2.3-23.2C55.5,54.8,55.7,44.4,55.7,43.3L55.7,43.3z"
		/>
</g>
</svg>
