<?xml version="1.0" encoding="utf-8"?>
<!-- Generator: Adobe Illustrator 23.0.5, SVG Export Plug-In . SVG Version: 6.00 Build 0)  -->
<svg version="1.1" id="Layer_1" xmlns="http://www.w3.org/2000/svg" xmlns:xlink="http://www.w3.org/1999/xlink" x="0px" y="0px"
	 width="157.4px" height="201.7px" viewBox="0 0 157.4 201.7" style="enable-background:new 0 0 157.4 201.7;" xml:space="preserve"
	>
<style type="text/css">
	.st0{fill-rule:evenodd;clip-rule:evenodd;fill:#2C302D;}
</style>
<g>
	<polygon class="st0" points="116.4,94.4 106.7,104.1 82.5,79.9 106.7,55.8 116.4,65.5 101.9,79.9 	"/>
	<polygon class="st0" points="69.1,94.4 59.4,104.1 35.2,79.9 59.4,55.8 69.1,65.5 54.6,79.9 	"/>
	<path class="st0" d="M17.8,44C57.1,31.6,72,23.9,78.7,20c6.8,3.8,21.7,11.5,60.9,24c0,4.4,2.5,139.8-60.9,139.7
		C15.4,183.8,17.8,48.4,17.8,44L17.8,44z M78.7,201.7c81.9,0.2,78.7-165,78.7-170.7c-50.7-16.1-70-26.1-78.7-31
		C70,4.9,50.8,14.9,0,31C0,36.7-3.2,201.9,78.7,201.7L78.7,201.7z"/>
	<path class="st0" d="M78.9,121.5c-11.3,0-20.4,9.1-20.4,20.4c0,11.3,9.1,20.3,20.4,20.3c11.3,0,20.4-9.1,20.4-20.4
		C99.3,130.7,90.2,121.5,78.9,121.5L78.9,121.5z M72.4,141.9c0-3.5,2.9-6.4,6.5-6.4c3.6,0,6.5,2.9,6.5,6.4c0,3.6-2.9,6.4-6.5,6.4
		C75.4,148.3,72.4,145.5,72.4,141.9L72.4,141.9z"/>
</g>
</svg>
