<?xml version="1.0" encoding="utf-8"?>
<svg version="1.1" id="Layer_1" xmlns="http://www.w3.org/2000/svg" xmlns:xlink="http://www.w3.org/1999/xlink" x="0px" y="0px"
	 width="24.33px" height="22.36px" viewBox="0 0 24.33 22.36" style="enable-background:new 0 0 24.33 22.36;" xml:space="preserve"
	>
<style type="text/css">
	.st0{fill:#FFFFFF;}
</style>
<g>
	<path class="st0" d="M12.16,22.36c-0.21,0-0.42-0.04-0.61-0.13C5.57,19.56-0.34,11.85,0.02,7.18c0-0.03,0-0.06,0-0.06
		C0.15,3.06,3.57-0.14,7.6,0c1.61-0.06,3.25,0.5,4.56,1.52C13.48,0.5,15.11-0.04,16.82,0c3.98-0.12,7.36,3.06,7.49,7.11
		c0,0,0,0.05,0,0.05c0.4,4.63-5.53,12.39-11.54,15.06C12.58,22.32,12.37,22.36,12.16,22.36z M7.45,3C5.03,3,3.09,4.86,3.02,7.21
		c0,0.03,0,0.15-0.01,0.18c-0.25,2.96,4.34,9.32,9.16,11.81c4.81-2.49,9.41-8.85,9.16-11.81c0-0.03-0.01-0.11-0.01-0.13l0-0.04
		c-0.08-2.4-2.1-4.28-4.49-4.21c-1.42-0.03-2.67,0.54-3.5,1.55c-0.57,0.7-1.76,0.7-2.33,0C10.18,3.54,8.9,2.96,7.6,3
		C7.55,3,7.5,3,7.45,3z"/>
</g>
</svg>
