<?xml version="1.0" encoding="utf-8"?>
<!-- Generator: Adobe Illustrator 23.0.5, SVG Export Plug-In . SVG Version: 6.00 Build 0)  -->
<svg version="1.1" id="Layer_1" xmlns="http://www.w3.org/2000/svg" xmlns:xlink="http://www.w3.org/1999/xlink" x="0px" y="0px"
	 width="64.4px" height="27.3px" viewBox="0 0 64.4 27.3" style="enable-background:new 0 0 64.4 27.3;" xml:space="preserve">
<style type="text/css">
	.st0{fill:#2C302D;}
	.st1{fill-rule:evenodd;clip-rule:evenodd;fill:#2C302D;}
</style>
<path class="st0" d="M21.9,12.9L21.9,12.9c0,0.1,0,0.2,0,0.3c-0.3,2.5-1.4,4.8-3.1,6.5c-1.7,1.7-3.9,2.8-6.3,3.1v3
	c0,0.8-0.7,1.5-1.5,1.5l0,0c-0.8,0-1.5-0.7-1.5-1.5v-3c-2.4-0.3-4.6-1.5-6.3-3.1c-1.7-1.7-2.9-4-3.2-6.5c0-0.1,0-0.1,0-0.2l0,0l0,0
	c0-0.8,0.6-1.4,1.4-1.4s1.4,0.6,1.4,1.4l0,0c0.2,1.8,1.1,3.5,2.3,4.7c1.5,1.5,3.5,2.4,5.7,2.4l0,0c2.2,0,4.3-0.9,5.8-2.4
	c1.3-1.3,2.1-2.9,2.3-4.7l0,0c0-0.8,0.6-1.4,1.4-1.4C21.3,11.4,21.9,12.1,21.9,12.9L21.9,12.9z M11,0L11,0c3.6,0,6.5,2.9,6.5,6.5
	v5.3c0,3.6-2.9,6.5-6.5,6.5l0,0c-3.6,0-6.5-2.9-6.5-6.5V6.5C4.5,3,7.4,0,11,0L11,0z"/>
<path class="st1" d="M39.7,6.1h15.6c1.1,0,2,0.9,2,1.9v2l7.1-3.9V21l-7.1-3.9v2c0,1.1-0.9,2-2,2H39.7c-1.1,0-2-0.9-2-2V8
	C37.7,7,38.6,6.1,39.7,6.1L39.7,6.1z"/>
</svg>
