<svg xmlns="http://www.w3.org/2000/svg" xmlns:xlink="http://www.w3.org/1999/xlink" width="19" height="13.969" viewBox="0 0 19 13.969">
  <defs>
    <style>
      .cls-1 {
        fill: #f8f8f8;
        fill-rule: evenodd;
        filter: url(#filter);
      }
    </style>
    <filter id="filter" x="181" y="906" width="19" height="13.969" filterUnits="userSpaceOnUse">
      <feFlood result="flood" flood-color="#fff"/>
      <feComposite result="composite" operator="in" in2="SourceGraphic"/>
      <feBlend result="blend" in2="SourceGraphic"/>
    </filter>
  </defs>
  <path id="Rounded_Rectangle_1" data-name="Rounded Rectangle 1" class="cls-1" d="M183.949,906.182s3.265-.193,6.534-0.193,6.56,0.193,6.56.193a2.842,2.842,0,0,1,2.766,2.914s0.185,1.943.185,3.887-0.185,3.885-.185,3.885a2.844,2.844,0,0,1-2.766,2.913s-3.3.2-6.586,0.2c-3.261,0-6.508-.2-6.508-0.2a2.844,2.844,0,0,1-2.766-2.913S181,914.9,181,912.954c0-1.931.185-3.858,0.185-3.858A2.842,2.842,0,0,1,183.949,906.182Zm4.842,3.977v6.16l4.872-3.077Z" transform="translate(-181 -906)"/>
</svg>
