<?xml version="1.0" encoding="utf-8"?>
<!-- Generator: Adobe Illustrator 23.0.5, SVG Export Plug-In . SVG Version: 6.00 Build 0)  -->
<svg version="1.1" id="Layer_1" xmlns="http://www.w3.org/2000/svg" xmlns:xlink="http://www.w3.org/1999/xlink" x="0px" y="0px"
	 viewBox="0 0 81 81" style="enable-background:new 0 0 81 81;" xml:space="preserve">
<style type="text/css">
	.st0{clip-path:url(#SVGID_2_);}
	.st1{clip-path:url(#SVGID_4_);}
	.st2{fill:url(#SVGID_5_);}
	.st3{fill:#FFFFFF;}
	.st4{fill-rule:evenodd;clip-rule:evenodd;}
	.st5{fill-rule:evenodd;clip-rule:evenodd;fill:url(#SVGID_6_);}
	.st6{fill:none;stroke:url(#SVGID_7_);stroke-width:0.5;stroke-opacity:0.85;}
	.st7{fill-rule:evenodd;clip-rule:evenodd;fill:url(#SVGID_8_);}
	.st8{fill:none;stroke:url(#SVGID_9_);stroke-width:0.5;stroke-opacity:0.85;}
	.st9{fill-rule:evenodd;clip-rule:evenodd;fill:url(#SVGID_10_);}
	.st10{fill:none;stroke:url(#SVGID_11_);stroke-width:0.5;stroke-opacity:0.85;}
	.st11{fill:none;stroke:url(#SVGID_12_);stroke-width:0.5;stroke-opacity:0.5;}
</style>
<g>
	<defs>
		<path id="SVGID_1_" d="M8.5,0.5h64c4.4,0,8,3.6,8,8v64c0,4.4-3.6,8-8,8h-64c-4.4,0-8-3.6-8-8v-64C0.5,4.1,4.1,0.5,8.5,0.5z"/>
	</defs>
	<clipPath id="SVGID_2_">
		<use xlink:href="#SVGID_1_"  style="overflow:visible;"/>
	</clipPath>
	<g class="st0">
		<g>
			<defs>
				<rect id="SVGID_3_" x="0.5" y="0.5" width="80" height="80"/>
			</defs>
			<clipPath id="SVGID_4_">
				<use xlink:href="#SVGID_3_"  style="overflow:visible;"/>
			</clipPath>
			<g class="st1">
				
					<linearGradient id="SVGID_5_" gradientUnits="userSpaceOnUse" x1="39.5" y1="83.5" x2="39.5" y2="3.5" gradientTransform="matrix(1 0 0 -1 1 84)">
					<stop  offset="2.083330e-02" style="stop-color:#1B1B1B"/>
					<stop  offset="0.5052" style="stop-color:#131313"/>
					<stop  offset="1" style="stop-color:#161616"/>
					<stop  offset="1" style="stop-color:#0B0B0B"/>
				</linearGradient>
				<rect x="0.5" y="0.5" class="st2" width="80" height="80"/>
				<g>
					<path class="st3" d="M39.7,11h2.4v9.4h5.7v2.1h-8.1V11z M56.6,20c-0.1,0.5-0.3,1-0.8,1.5c-0.7,0.8-1.8,1.2-3.1,1.2
						c-1.1,0-2-0.3-2.9-1c-0.8-0.7-1.2-1.8-1.2-3.4c0-1.5,0.4-2.6,1.1-3.4c0.8-0.8,1.7-1.2,2.9-1.2c0.7,0,1.3,0.1,1.9,0.4
						c0.6,0.3,1,0.7,1.4,1.3c0.3,0.5,0.5,1.1,0.6,1.8c0.1,0.4,0.1,1,0.1,1.7h-5.8c0,0.9,0.3,1.5,0.8,1.8c0.3,0.2,0.7,0.3,1.1,0.3
						c0.5,0,0.8-0.1,1.1-0.4c0.2-0.1,0.3-0.3,0.4-0.6H56.6z M54.4,17.4c0-0.6-0.2-1-0.5-1.3c-0.3-0.3-0.7-0.5-1.2-0.5
						c-0.5,0-0.9,0.2-1.2,0.5c-0.3,0.3-0.5,0.8-0.5,1.3H54.4z M58.5,14.9c0.6-0.8,1.6-1.1,3-1.1c0.9,0,1.8,0.2,2.5,0.6
						c0.7,0.4,1.1,1.1,1.1,2.1v3.9c0,0.3,0,0.6,0,1c0,0.3,0.1,0.5,0.1,0.6c0.1,0.1,0.2,0.2,0.3,0.3v0.3h-2.4
						c-0.1-0.2-0.1-0.3-0.1-0.5c0-0.2,0-0.3-0.1-0.5c-0.3,0.3-0.7,0.6-1.1,0.9c-0.5,0.3-1,0.4-1.6,0.4c-0.8,0-1.4-0.2-1.9-0.7
						c-0.5-0.4-0.8-1.1-0.8-1.9c0-1,0.4-1.8,1.2-2.3c0.4-0.3,1.1-0.4,2-0.5l0.8-0.1c0.4-0.1,0.7-0.1,0.9-0.2
						c0.3-0.1,0.5-0.3,0.5-0.6c0-0.3-0.1-0.6-0.4-0.7c-0.2-0.1-0.6-0.2-1.1-0.2c-0.5,0-0.9,0.1-1.1,0.4c-0.2,0.2-0.3,0.5-0.3,0.8
						h-2.1C58,16,58.2,15.4,58.5,14.9z M60.2,20.9c0.2,0.2,0.5,0.3,0.8,0.3c0.5,0,0.9-0.1,1.3-0.4c0.4-0.3,0.6-0.8,0.6-1.5v-0.8
						c-0.1,0.1-0.3,0.2-0.4,0.2c-0.1,0.1-0.3,0.1-0.6,0.1l-0.5,0.1c-0.5,0.1-0.8,0.2-1,0.3c-0.3,0.2-0.5,0.5-0.5,0.9
						C59.9,20.5,60,20.7,60.2,20.9z M74.9,11v11.5h-2.2v-1.2c-0.3,0.5-0.7,0.9-1.1,1.1c-0.4,0.2-0.9,0.3-1.5,0.3
						c-1,0-1.8-0.4-2.5-1.2c-0.7-0.8-1-1.8-1-3.1c0-1.5,0.3-2.6,1-3.4c0.7-0.8,1.6-1.3,2.7-1.3c0.5,0,1,0.1,1.4,0.3
						c0.4,0.2,0.7,0.5,1,0.9V11H74.9z M68.9,18.3c0,0.8,0.2,1.4,0.5,1.9c0.3,0.5,0.8,0.7,1.4,0.7c0.6,0,1.1-0.2,1.4-0.7
						c0.3-0.5,0.5-1.1,0.5-1.8c0-1-0.3-1.8-0.8-2.2c-0.3-0.3-0.7-0.4-1.1-0.4c-0.7,0-1.1,0.2-1.4,0.7C69,17,68.9,17.6,68.9,18.3z"/>
				</g>
			</g>
		</g>
		<g>
			<path class="st4" d="M100.1,20.7L67.5,63.4c-3,4-9,3.9-12-0.1l-7-9.4L29.2,73.6c-2.3,2.4-6,2.9-9,1.3L9.9,69.3L-8.6,84.9
				l-5.8-6.9L4.9,61.8c2.4-2,5.7-2.3,8.4-0.9l10.3,5.6l19.7-20.2c3.2-3.3,8.6-2.9,11.4,0.8l6.9,9.2l31.4-41.1L100.1,20.7z"/>
			
				<linearGradient id="SVGID_6_" gradientUnits="userSpaceOnUse" x1="-11.4999" y1="32.8959" x2="91.5001" y2="32.8959" gradientTransform="matrix(1 0 0 -1 0 83)">
				<stop  offset="0" style="stop-color:#EE6431"/>
				<stop  offset="0.2083" style="stop-color:#6565FF"/>
				<stop  offset="0.3444" style="stop-color:#A7A7FF"/>
				<stop  offset="0.4666" style="stop-color:#6DA4BF"/>
				<stop  offset="0.7344" style="stop-color:#FF9022"/>
				<stop  offset="0.8698" style="stop-color:#FFD0A8"/>
				<stop  offset="1" style="stop-color:#FDAC5C"/>
			</linearGradient>
			<path class="st5" d="M100.1,20.7L67.5,63.4c-3,4-9,3.9-12-0.1l-7-9.4L29.2,73.6c-2.3,2.4-6,2.9-9,1.3L9.9,69.3L-8.6,84.9
				l-5.8-6.9L4.9,61.8c2.4-2,5.7-2.3,8.4-0.9l10.3,5.6l19.7-20.2c3.2-3.3,8.6-2.9,11.4,0.8l6.9,9.2l31.4-41.1L100.1,20.7z"/>
			
				<linearGradient id="SVGID_7_" gradientUnits="userSpaceOnUse" x1="-11.4999" y1="32.894" x2="91.5001" y2="32.894" gradientTransform="matrix(1 0 0 -1 0 83)">
				<stop  offset="0" style="stop-color:#A465A0"/>
				<stop  offset="0.2135" style="stop-color:#A193FF"/>
				<stop  offset="0.4427" style="stop-color:#94D3F9"/>
				<stop  offset="0.6823" style="stop-color:#FFAD5F"/>
				<stop  offset="1" style="stop-color:#FFFFFF"/>
			</linearGradient>
			<path class="st6" d="M100.3,20.9l0.2-0.2l-0.2-0.2l-7.2-5.5l-0.2-0.2l-0.2,0.2L61.6,56l-6.7-9c-2.8-3.8-8.4-4.2-11.8-0.8
				l-19.6,20l-10.1-5.5c-2.8-1.5-6.3-1.2-8.7,0.9l-19.3,16.3l-0.2,0.2l0.2,0.2l5.8,6.9l0.2,0.2l0.2-0.2L9.9,69.6l10.2,5.6
				c3,1.7,6.8,1.1,9.3-1.4l19.1-19.5l6.8,9.2c3.1,4.1,9.3,4.2,12.4,0.1L100.3,20.9z"/>
		</g>
		<g>
			<path class="st4" d="M100.1,20.7L67.5,63.4c-3,4-9,3.9-12-0.1l-7-9.4L29.2,73.6c-2.3,2.4-6,2.9-9,1.3L9.9,69.3L-8.6,84.9
				l-5.8-6.9L4.9,61.8c2.4-2,5.7-2.3,8.4-0.9l10.3,5.6l19.7-20.2c3.2-3.3,8.6-2.9,11.4,0.8l6.9,9.2l31.4-41.1L100.1,20.7z"/>
			
				<linearGradient id="SVGID_8_" gradientUnits="userSpaceOnUse" x1="-11.4999" y1="32.8959" x2="91.5001" y2="32.8959" gradientTransform="matrix(1 0 0 -1 0 83)">
				<stop  offset="0" style="stop-color:#EE6431"/>
				<stop  offset="0.2083" style="stop-color:#6565FF"/>
				<stop  offset="0.3444" style="stop-color:#A7A7FF"/>
				<stop  offset="0.4666" style="stop-color:#6DA4BF"/>
				<stop  offset="0.7344" style="stop-color:#FF9022"/>
				<stop  offset="0.8698" style="stop-color:#FFD0A8"/>
				<stop  offset="1" style="stop-color:#FDAC5C"/>
			</linearGradient>
			<path class="st7" d="M100.1,20.7L67.5,63.4c-3,4-9,3.9-12-0.1l-7-9.4L29.2,73.6c-2.3,2.4-6,2.9-9,1.3L9.9,69.3L-8.6,84.9
				l-5.8-6.9L4.9,61.8c2.4-2,5.7-2.3,8.4-0.9l10.3,5.6l19.7-20.2c3.2-3.3,8.6-2.9,11.4,0.8l6.9,9.2l31.4-41.1L100.1,20.7z"/>
			
				<linearGradient id="SVGID_9_" gradientUnits="userSpaceOnUse" x1="-11.4999" y1="32.894" x2="91.5001" y2="32.894" gradientTransform="matrix(1 0 0 -1 0 83)">
				<stop  offset="0" style="stop-color:#A465A0"/>
				<stop  offset="0.2135" style="stop-color:#A193FF"/>
				<stop  offset="0.4427" style="stop-color:#94D3F9"/>
				<stop  offset="0.6823" style="stop-color:#FFAD5F"/>
				<stop  offset="1" style="stop-color:#FFFFFF"/>
			</linearGradient>
			<path class="st8" d="M100.3,20.9l0.2-0.2l-0.2-0.2l-7.2-5.5l-0.2-0.2l-0.2,0.2L61.6,56l-6.7-9c-2.8-3.8-8.4-4.2-11.8-0.8
				l-19.6,20l-10.1-5.5c-2.8-1.5-6.3-1.2-8.7,0.9l-19.3,16.3l-0.2,0.2l0.2,0.2l5.8,6.9l0.2,0.2l0.2-0.2L9.9,69.6l10.2,5.6
				c3,1.7,6.8,1.1,9.3-1.4l19.1-19.5l6.8,9.2c3.1,4.1,9.3,4.2,12.4,0.1L100.3,20.9z"/>
		</g>
		<g>
			<path class="st4" d="M100.1,20.7L67.5,63.4c-3,4-9,3.9-12-0.1l-7-9.4L29.2,73.6c-2.3,2.4-6,2.9-9,1.3L9.9,69.3L-8.6,84.9
				l-5.8-6.9L4.9,61.8c2.4-2,5.7-2.3,8.4-0.9l10.3,5.6l19.7-20.2c3.2-3.3,8.6-2.9,11.4,0.8l6.9,9.2l31.4-41.1L100.1,20.7z"/>
			
				<linearGradient id="SVGID_10_" gradientUnits="userSpaceOnUse" x1="-11.4999" y1="32.8959" x2="91.5001" y2="32.8959" gradientTransform="matrix(1 0 0 -1 0 83)">
				<stop  offset="0" style="stop-color:#EE6431"/>
				<stop  offset="0.2083" style="stop-color:#6565FF"/>
				<stop  offset="0.3444" style="stop-color:#A7A7FF"/>
				<stop  offset="0.4666" style="stop-color:#6DA4BF"/>
				<stop  offset="0.7344" style="stop-color:#FF9022"/>
				<stop  offset="0.8698" style="stop-color:#FFD0A8"/>
				<stop  offset="1" style="stop-color:#FDAC5C"/>
			</linearGradient>
			<path class="st9" d="M100.1,20.7L67.5,63.4c-3,4-9,3.9-12-0.1l-7-9.4L29.2,73.6c-2.3,2.4-6,2.9-9,1.3L9.9,69.3L-8.6,84.9
				l-5.8-6.9L4.9,61.8c2.4-2,5.7-2.3,8.4-0.9l10.3,5.6l19.7-20.2c3.2-3.3,8.6-2.9,11.4,0.8l6.9,9.2l31.4-41.1L100.1,20.7z"/>
			
				<linearGradient id="SVGID_11_" gradientUnits="userSpaceOnUse" x1="-11.4999" y1="32.894" x2="91.5001" y2="32.894" gradientTransform="matrix(1 0 0 -1 0 83)">
				<stop  offset="0" style="stop-color:#A465A0"/>
				<stop  offset="0.2135" style="stop-color:#A193FF"/>
				<stop  offset="0.4427" style="stop-color:#94D3F9"/>
				<stop  offset="0.6823" style="stop-color:#FFAD5F"/>
				<stop  offset="1" style="stop-color:#FFFFFF"/>
			</linearGradient>
			<path class="st10" d="M100.3,20.9l0.2-0.2l-0.2-0.2l-7.2-5.5l-0.2-0.2l-0.2,0.2L61.6,56l-6.7-9c-2.8-3.8-8.4-4.2-11.8-0.8
				l-19.6,20l-10.1-5.5c-2.8-1.5-6.3-1.2-8.7,0.9l-19.3,16.3l-0.2,0.2l0.2,0.2l5.8,6.9l0.2,0.2l0.2-0.2L9.9,69.6l10.2,5.6
				c3,1.7,6.8,1.1,9.3-1.4l19.1-19.5l6.8,9.2c3.1,4.1,9.3,4.2,12.4,0.1L100.3,20.9z"/>
		</g>
		<path class="st3" d="M4.8,11h8.4v0.9H9.5v10.6H8.4V11.9H4.8V11z M18.8,17.8c0-0.4-0.1-0.8-0.2-1.1c-0.1-0.4-0.3-0.7-0.5-0.9
			c-0.2-0.3-0.5-0.5-0.8-0.6c-0.3-0.2-0.7-0.2-1.1-0.2c-0.4,0-0.8,0.1-1.1,0.2c-0.3,0.2-0.6,0.4-0.8,0.6c-0.2,0.3-0.4,0.6-0.5,0.9
			c-0.1,0.4-0.2,0.7-0.3,1.1H18.8z M13.4,18.6c0,0.4,0.1,0.9,0.2,1.3c0.1,0.4,0.3,0.7,0.5,1c0.2,0.3,0.5,0.5,0.9,0.7
			c0.4,0.2,0.8,0.3,1.2,0.3c0.6,0,1.2-0.2,1.6-0.5s0.7-0.8,0.9-1.4h1.1c-0.1,0.4-0.3,0.8-0.5,1.1c-0.2,0.3-0.4,0.6-0.7,0.9
			c-0.3,0.2-0.6,0.4-1,0.6c-0.4,0.1-0.9,0.2-1.4,0.2c-0.7,0-1.2-0.1-1.7-0.3c-0.5-0.2-0.9-0.5-1.2-0.9c-0.3-0.4-0.5-0.9-0.7-1.4
			c-0.1-0.5-0.2-1.1-0.2-1.7s0.1-1.2,0.3-1.7c0.2-0.5,0.4-1,0.8-1.4c0.3-0.4,0.7-0.7,1.2-0.9c0.5-0.2,1-0.4,1.6-0.4
			c1.1,0,2,0.4,2.7,1.2c0.7,0.8,1,1.9,1,3.4H13.4z M27.5,16.8c-0.2-0.6-0.5-1.1-0.9-1.4c-0.4-0.4-0.9-0.5-1.6-0.5
			c-0.5,0-0.9,0.1-1.3,0.3c-0.4,0.2-0.6,0.5-0.9,0.8c-0.2,0.3-0.4,0.7-0.5,1.1c-0.1,0.4-0.2,0.8-0.2,1.3c0,0.4,0,0.9,0.1,1.3
			c0.1,0.4,0.3,0.8,0.5,1.1c0.2,0.3,0.5,0.6,0.9,0.8c0.4,0.2,0.8,0.3,1.3,0.3c0.7,0,1.3-0.2,1.7-0.6c0.4-0.4,0.7-0.9,0.8-1.6h1
			c-0.1,0.5-0.2,0.9-0.4,1.3c-0.2,0.4-0.4,0.7-0.7,1c-0.3,0.3-0.6,0.5-1,0.6s-0.9,0.2-1.4,0.2c-0.7,0-1.2-0.1-1.7-0.3
			c-0.5-0.2-0.9-0.5-1.2-0.9c-0.3-0.4-0.5-0.9-0.7-1.4s-0.2-1.1-0.2-1.7c0-0.6,0.1-1.1,0.2-1.6c0.2-0.5,0.4-1,0.7-1.4s0.7-0.7,1.2-1
			c0.5-0.2,1-0.4,1.6-0.4c1,0,1.7,0.2,2.3,0.7c0.6,0.5,1,1.2,1.1,2.1H27.5z M30.5,22.5V11h1v4.4c0.4-0.4,0.8-0.7,1.2-1
			c0.4-0.3,0.9-0.4,1.5-0.4c0.5,0,1,0.1,1.4,0.3c0.4,0.2,0.8,0.5,1.1,0.9c0.2,0.3,0.3,0.6,0.4,0.9c0,0.3,0.1,0.6,0.1,1v5.4h-1v-5.4
			c0-0.7-0.2-1.3-0.5-1.7c-0.3-0.4-0.9-0.6-1.6-0.6c-0.3,0-0.6,0-0.8,0.1c-0.2,0.1-0.5,0.2-0.7,0.4c-0.2,0.1-0.4,0.3-0.5,0.5
			c-0.1,0.2-0.2,0.4-0.3,0.6c-0.1,0.3-0.2,0.5-0.2,0.8c0,0.2,0,0.5,0,0.8v4.5H30.5z M39.5,11h2.4v9.4h5.7v2.1h-8.1V11z M56.4,20
			c-0.1,0.5-0.3,1-0.8,1.5c-0.7,0.8-1.8,1.2-3.1,1.2c-1.1,0-2-0.3-2.9-1c-0.8-0.7-1.2-1.8-1.2-3.4c0-1.5,0.4-2.6,1.1-3.4
			c0.8-0.8,1.7-1.2,2.9-1.2c0.7,0,1.3,0.1,1.9,0.4c0.6,0.3,1,0.7,1.4,1.3c0.3,0.5,0.5,1.1,0.6,1.8c0.1,0.4,0.1,1,0.1,1.7h-5.8
			c0,0.9,0.3,1.5,0.8,1.8c0.3,0.2,0.7,0.3,1.1,0.3c0.5,0,0.8-0.1,1.1-0.4c0.2-0.1,0.3-0.3,0.4-0.6H56.4z M54.2,17.4
			c0-0.6-0.2-1-0.5-1.3c-0.3-0.3-0.7-0.5-1.2-0.5c-0.5,0-0.9,0.2-1.2,0.5c-0.3,0.3-0.5,0.8-0.5,1.3H54.2z M58.3,14.9
			c0.6-0.8,1.6-1.1,3-1.1c0.9,0,1.8,0.2,2.5,0.6c0.7,0.4,1.1,1.1,1.1,2.1v3.9c0,0.3,0,0.6,0,1c0,0.3,0.1,0.5,0.1,0.6
			c0.1,0.1,0.2,0.2,0.3,0.3v0.3H63c-0.1-0.2-0.1-0.3-0.1-0.5c0-0.2,0-0.3-0.1-0.5c-0.3,0.3-0.7,0.6-1.1,0.9c-0.5,0.3-1,0.4-1.6,0.4
			c-0.8,0-1.4-0.2-1.9-0.7c-0.5-0.4-0.8-1.1-0.8-1.9c0-1,0.4-1.8,1.2-2.3c0.4-0.3,1.1-0.4,2-0.5l0.8-0.1c0.4-0.1,0.7-0.1,0.9-0.2
			c0.3-0.1,0.5-0.3,0.5-0.6c0-0.3-0.1-0.6-0.4-0.7c-0.2-0.1-0.6-0.2-1.1-0.2c-0.5,0-0.9,0.1-1.1,0.4c-0.2,0.2-0.3,0.5-0.3,0.8h-2.1
			C57.8,16,58,15.4,58.3,14.9z M60,20.9c0.2,0.2,0.5,0.3,0.8,0.3c0.5,0,0.9-0.1,1.3-0.4c0.4-0.3,0.6-0.8,0.6-1.5v-0.8
			c-0.1,0.1-0.3,0.2-0.4,0.2c-0.1,0.1-0.3,0.1-0.6,0.1l-0.5,0.1c-0.5,0.1-0.8,0.2-1,0.3c-0.3,0.2-0.5,0.5-0.5,0.9
			C59.7,20.5,59.8,20.7,60,20.9z M74.7,11v11.5h-2.2v-1.2c-0.3,0.5-0.7,0.9-1.1,1.1c-0.4,0.2-0.9,0.3-1.5,0.3c-1,0-1.8-0.4-2.5-1.2
			c-0.7-0.8-1-1.8-1-3.1c0-1.5,0.3-2.6,1-3.4c0.7-0.8,1.6-1.3,2.7-1.3c0.5,0,1,0.1,1.4,0.3c0.4,0.2,0.7,0.5,1,0.9V11H74.7z
			 M68.7,18.3c0,0.8,0.2,1.4,0.5,1.9c0.3,0.5,0.8,0.7,1.4,0.7c0.6,0,1.1-0.2,1.4-0.7c0.3-0.5,0.5-1.1,0.5-1.8c0-1-0.3-1.8-0.8-2.2
			c-0.3-0.3-0.7-0.4-1.1-0.4c-0.7,0-1.1,0.2-1.4,0.7C68.8,17,68.7,17.6,68.7,18.3z"/>
		<g>
			<path class="st3" d="M9.8,37V29h2.4v8c0,1-0.2,1.8-0.5,2.3c-0.6,1-1.6,1.5-3.1,1.5c-1.5,0-2.5-0.4-3-1.2
				c-0.5-0.8-0.8-1.9-0.8-3.2v-0.3h2.3v0.3c0,0.9,0.1,1.5,0.3,1.9c0.2,0.4,0.6,0.5,1.1,0.5c0.6,0,0.9-0.2,1.1-0.6
				C9.8,38,9.8,37.6,9.8,37z M18.8,38.8c0.6,0,1-0.1,1.4-0.2c0.7-0.2,1-0.7,1-1.3c0-0.4-0.2-0.7-0.5-0.9c-0.3-0.2-0.9-0.4-1.6-0.5
				l-1.2-0.3c-1.2-0.3-2-0.6-2.5-0.9c-0.8-0.5-1.2-1.4-1.2-2.5c0-1,0.4-1.9,1.1-2.6c0.7-0.7,1.9-1,3.3-1c1.2,0,2.2,0.3,3.1,1
				c0.9,0.6,1.3,1.6,1.4,2.8h-2.3c0-0.7-0.3-1.2-0.9-1.5c-0.4-0.2-0.8-0.3-1.4-0.3c-0.6,0-1.1,0.1-1.5,0.4c-0.4,0.3-0.6,0.6-0.6,1
				c0,0.4,0.2,0.7,0.5,0.9c0.2,0.1,0.7,0.3,1.5,0.5l2,0.5c0.9,0.2,1.5,0.5,2,0.8c0.7,0.5,1,1.3,1,2.4c0,1.1-0.4,1.9-1.2,2.6
				c-0.8,0.7-1.9,1-3.4,1c-1.5,0-2.7-0.3-3.5-1c-0.9-0.7-1.3-1.6-1.3-2.8h2.3c0.1,0.5,0.2,0.9,0.4,1.2
				C17.2,38.6,17.9,38.8,18.8,38.8z"/>
		</g>
	</g>
</g>
<linearGradient id="SVGID_12_" gradientUnits="userSpaceOnUse" x1="40.5" y1="82.5" x2="40.5" y2="2.5" gradientTransform="matrix(1 0 0 -1 0 83)">
	<stop  offset="0" style="stop-color:#424242"/>
	<stop  offset="0.4635" style="stop-color:#1D1D1D;stop-opacity:0.5365"/>
	<stop  offset="1" style="stop-color:#232323"/>
</linearGradient>
<path class="st11" d="M8.5,0.3h64c4.6,0,8.3,3.7,8.3,8.3v64c0,4.6-3.7,8.3-8.3,8.3h-64c-4.6,0-8.3-3.7-8.3-8.3v-64
	C0.3,3.9,3.9,0.3,8.5,0.3z"/>
</svg>
