<svg width="26" height="26" viewBox="0 0 26 26" fill="none" xmlns="http://www.w3.org/2000/svg">
<g clip-path="url(#clip0_81_71)">
<path d="M13 26C20.1797 26 26 20.1797 26 13C26 5.8203 20.1797 0 13 0C5.8203 0 0 5.8203 0 13C0 20.1797 5.8203 26 13 26Z" fill="#F0F0F0"/>
<path d="M2.68726 5.08521C1.6661 6.41379 0.896102 7.9451 0.447754 9.60865H7.2107L2.68726 5.08521Z" fill="#0052B4"/>
<path d="M25.5519 9.6086C25.1036 7.9451 24.3335 6.41379 23.3124 5.08521L18.7891 9.6086H25.5519Z" fill="#0052B4"/>
<path d="M0.447754 16.3914C0.896152 18.0548 1.66615 19.5862 2.68726 20.9147L7.21055 16.3914H0.447754Z" fill="#0052B4"/>
<path d="M20.9145 2.68731C19.5859 1.66615 18.0547 0.896152 16.3911 0.447754V7.21065L20.9145 2.68731Z" fill="#0052B4"/>
<path d="M5.08545 23.3126C6.41404 24.3338 7.94535 25.1038 9.60884 25.5522V18.7893L5.08545 23.3126Z" fill="#0052B4"/>
<path d="M9.60879 0.447754C7.9453 0.896152 6.41399 1.66615 5.08545 2.68726L9.60879 7.2106V0.447754Z" fill="#0052B4"/>
<path d="M16.3911 25.5522C18.0546 25.1038 19.5859 24.3338 20.9145 23.3126L16.3911 18.7893V25.5522Z" fill="#0052B4"/>
<path d="M18.7891 16.3914L23.3124 20.9147C24.3335 19.5862 25.1036 18.0548 25.5519 16.3914H18.7891Z" fill="#0052B4"/>
<path d="M25.89 11.3044H14.6957H14.6957V0.110043C14.1406 0.0377813 13.5747 0 13 0C12.4252 0 11.8594 0.0377813 11.3044 0.110043V11.3043V11.3043H0.110043C0.0377813 11.8594 0 12.4253 0 13C0 13.5748 0.0377813 14.1406 0.110043 14.6956H11.3043H11.3043V25.89C11.8594 25.9622 12.4252 26 13 26C13.5747 26 14.1406 25.9623 14.6956 25.89V14.6957V14.6957H25.89C25.9622 14.1406 26 13.5748 26 13C26 12.4253 25.9622 11.8594 25.89 11.3044Z" fill="#D80027"/>
<path d="M16.3911 16.3914L22.1922 22.1925C22.459 21.9258 22.7135 21.6469 22.9563 21.3579L17.9898 16.3914H16.3911V16.3914Z" fill="#D80027"/>
<path d="M9.60871 16.3914H9.60861L3.80762 22.1924C4.07432 22.4592 4.35316 22.7137 4.64221 22.9565L9.60871 17.9899V16.3914Z" fill="#D80027"/>
<path d="M9.60866 9.60882V9.60871L3.80761 3.80762C3.54081 4.07432 3.28629 4.35316 3.04346 4.64221L8.01002 9.60877H9.60866V9.60882Z" fill="#D80027"/>
<path d="M16.3911 9.60871L22.1922 3.80756C21.9255 3.54076 21.6467 3.28624 21.3576 3.04346L16.3911 8.01002V9.60871Z" fill="#D80027"/>
</g>
<defs>
<clipPath id="clip0_81_71">
<rect width="26" height="26" fill="white"/>
</clipPath>
</defs>
</svg>
