<svg width="180" height="138" viewBox="0 0 180 138" fill="none" xmlns="http://www.w3.org/2000/svg">
<path fill-rule="evenodd" clip-rule="evenodd" d="M168.6 78.7C164 78.7 159.6 81.3 156.6 84.7C155.4 85.9 154.2 87.2 152.9 88.4C152.6 88.7 152.2 89.1 151.8 89.4V47.4C151.8 13 119.8 0 90.3 0C60.8 0 28.8 13 28.8 47.4V81.7V94.6C37 102.2 46.5 108.2 57.1 112.3C67.4 116.4 78.6 118.7 90.3 118.8C102.1 118.6 113.3 116.3 123.7 112.2C134.4 107.9 144.1 101.7 152.4 94C145.5 103.7 128.5 112.2 124.3 113.8C113.8 118 102.3 120.4 90.3 120.5C78.4 120.4 66.9 118 56.4 113.9C45.6 109.6 35.7 103.4 27.3 95.5L27 95.3V87.7C26 86.7 24.9 85.7 23.9 84.6C20.9 81.3 16.5 78.6 11.9 78.6C5.79998 78.6 0.799988 83.6 0.799988 89.7C0.799988 101.5 31.4 121.6 40.8 126.3C55.7 133.7 72.5 137.8 90.3 137.8C108 137.8 124.8 133.7 139.8 126.3C149.2 121.7 179.8 101.6 179.8 89.7C179.7 83.7 174.7 78.7 168.6 78.7ZM39.6 30.9C47.1 16.5 62.1 6.6 79.4 6.6C81 6.6 82.7 6.7 84.3 6.9C65.7 7.2 49.4 16.7 39.6 30.9ZM90.2 130.5C58.7 130.5 30.4 116.9 10.9 95.2C31.7 114.6 59.6 126.5 90.2 126.5C120.9 126.5 148.7 114.6 169.5 95.2C150 116.8 121.7 130.5 90.2 130.5Z" fill="black"/>
<path d="M28.1 46.3C33.9 48.4 41.7 51.1 48 52.8C52.2 53.9 56.5 55 60.7 55.8C60.6 56 60.5 56.5 60.4 56.7C49.8 54.6 38 50.8 27.9 47.2L28.1 46.3Z" fill="#F8F9F8"/>
<path d="M28.2 58.3C37.1 61.8 46.3 64.7 55.7 66.7C55.6 67 55.5 67.3 55.5 67.6C51 66.7 46.8 65.5 42.5 64.2C37.6 62.7 32.8 61 28.2 59.1V58.3Z" fill="#F8F9F8"/>
<path fill-rule="evenodd" clip-rule="evenodd" d="M44.7 64.4C47.1 55.8 48.3 51.6 48.3 51.6C48.6 50.6 48 49.9 46.4 49.5C46.4 49.5 43.5 48.8 37.7 47.4C36.2 47.3 35.3 48 35.1 49.6C34.1 52.8 33 56.6 32.1 61.1C31.9 62.7 32.7 64.3 34.3 64.6C39.2 66 41.5 66.4 41.5 66.4C43 66.5 44.2 65.6 44.7 64.4ZM45.4 52.2C43.4 59.2 42.5 62.8 42.5 62.8C42.1 63.6 41.5 64 40.6 64C40.6 64 39.1 63.5 35.9 62.8C34.8 62.4 34 62 34.3 60.4C35.7 55.2 36.4 52.5 36.4 52.5C37.9 47 38.6 51 45 51.3C45.6 51.3 45.7 51.5 45.4 52.2Z" fill="#F8F9F8"/>
<path d="M45 64.5L48.7 51.5C48.9 50.9 48.8 50.3 48.4 49.9C48 49.5 47.4 49.2 46.5 49L37.8 46.9H37.7C36.9 46.8 36.2 47.1 35.6 47.6C35.1 48 34.8 48.7 34.6 49.5C34.1 51.1 33.6 52.9 33.1 54.8C32.6 56.7 32.1 58.8 31.7 61.1V61.2C31.6 62 31.8 62.9 32.2 63.7C32.6 64.4 33.3 64.9 34.1 65.2C39 66.5 41.3 66.9 41.3 67H41.4C42.2 67.1 42.9 66.9 43.5 66.5C44.3 65.8 44.8 65.2 45 64.5ZM47.9 51.3L44.2 64.3C44 64.9 43.6 65.4 43.1 65.7C42.7 66 42.1 66.2 41.5 66C41.4 66 39.1 65.5 34.3 64.3C33.7 64.1 33.2 63.7 32.9 63.2C32.5 62.6 32.4 61.9 32.4 61.2C32.9 59 33.4 56.9 33.9 55C34.4 53.1 34.9 51.3 35.4 49.8V49.7C35.5 49 35.9 48.2 36.2 48C37 47.3 38.5 47.9 39.5 48.2L46.2 49.8C46.9 50 47.4 50.2 47.7 50.5C48 50.5 48 50.9 47.9 51.3ZM43 63C43 63 43.7 59.7 45.6 53.3C45.7 52.9 45.8 52.5 45.9 52.1C46 51.8 46 51.6 45.9 51.4C45.8 51.1 45.6 51 45.3 50.9L45.2 50.8C44 50.7 42.7 50.6 41.4 50.2C40.5 50 39.7 49.7 38.8 49.3C38.1 49 37.6 49 37.3 49.3C37.1 49.5 37 49.7 36.8 50.1C36.6 50.7 36.3 51.4 36.1 52.2C35.5 54.6 34.4 57.8 34 60.1C33.9 61 34 61.6 34.3 62C34.7 62.5 35.2 62.7 35.8 62.9H35.9C36.9 63.2 38.8 63.7 40.2 63.9C41 64.1 41.5 64.1 41.9 63.8C42.4 63.8 42.7 63.5 43 63Z" fill="black"/>
<path fill-rule="evenodd" clip-rule="evenodd" d="M29.8 48C29.7 55.3 29.3 58.7 29.3 58.7C29 58.6 28.5 58.4 28 58.1C27.7 57.9 28.1 48.7 28.3 47.7C28.3 47.3 28.9 47.6 29.8 48Z" fill="black"/>
<path d="M129.7 69.7C135.9 71.1 146.2 72.2 152.1 71.9V72.8C150 72.9 147.3 72.9 144.3 72.6C140.8 72.3 133.3 71.6 129.6 70.5L129.7 69.7ZM126.4 82.7C131.8 84 148.4 85.3 151.9 84.7V85.7C145.3 86 133.9 85.2 126.1 83.6L126.4 82.7Z" fill="#F8F9F8"/>
<path fill-rule="evenodd" clip-rule="evenodd" d="M150.4 72.8C148.9 78.1 148.7 82.2 150.5 84.9C151.1 84.9 151.8 84.8 152 84.8C152 84.7 152.1 81.1 152.4 74C152.5 73.3 152.5 72.9 151.9 72.8C151.9 72.8 151.4 72.8 150.4 72.8Z" fill="black"/>
<path fill-rule="evenodd" clip-rule="evenodd" d="M35.6 60.9C36.7 57.7 37.5 54.7 38 51.8C36.6 54.7 35.8 57.7 35.6 60.9Z" fill="#FEFEFE"/>
<path fill-rule="evenodd" clip-rule="evenodd" d="M54.8 39.7L64 30.6L68.4 34.9L59.2 44.1L54.8 39.7Z" fill="#FEFEFE"/>
<path d="M54.3 39.1L64 29.5L69.5 35L59.2 45.2L53.8 39.7L54.3 39.1ZM64 31.6L55.9 39.7L59.2 43L67.3 34.9L64 31.6Z" fill="black"/>
<path fill-rule="evenodd" clip-rule="evenodd" d="M57 37.5L62.4 32.1L66.7 36.5L61.4 41.9L57 37.5Z" fill="#FEFEFE"/>
<path d="M56.5 37L62.4 31.1L67.8 36.6L61.3 43L55.9 37.5L56.5 37ZM62.4 33.3L58.1 37.5L61.4 40.8L65.7 36.5L62.4 33.3Z" fill="black"/>
<path fill-rule="evenodd" clip-rule="evenodd" d="M56.6 32.3C58.3 30.6 60.9 30.4 62.7 31.8L56.1 38.3C54.7 36.5 54.9 33.9 56.6 32.3Z" fill="#FEFEFE"/>
<path d="M56 31.7C57 30.7 58.2 30.2 59.5 30.1C60.7 30 62 30.3 63.2 31.2L63.9 31.7L56 39.5L55.5 38.8C54.7 37.7 54.4 36.4 54.5 35.1C54.6 33.9 55.1 32.7 56 31.7ZM59.6 31.7C58.7 31.8 57.8 32.2 57.1 32.8C56.4 33.5 56 34.4 56 35.3C55.9 35.9 56.1 36.6 56.3 37.2L61.5 32C60.9 31.7 60.3 31.6 59.6 31.7Z" fill="black"/>
<path d="M52.564 71.2769L46.6331 73.0829L50.42 85.5187L56.3509 83.7127L52.564 71.2769Z" fill="#FEFEFE"/>
<path d="M49.7 85.7L45.7 72.6L53.1 70.3L57.3 84.2L49.9 86.5L49.7 85.7ZM47.6 73.6L50.9 84.5L55.4 83.1L52 72.3L47.6 73.6Z" fill="black"/>
<path fill-rule="evenodd" clip-rule="evenodd" d="M49.5 82.6L47.3 75.3L53.2 73.5L55.4 80.8L49.5 82.6Z" fill="#FEFEFE"/>
<path d="M48.8 82.8L46.4 74.8L53.8 72.5L56.4 81.2L49 83.5L48.8 82.8ZM48.3 75.8L50 81.6L54.5 80.2L52.8 74.4L48.3 75.8Z" fill="black"/>
<path fill-rule="evenodd" clip-rule="evenodd" d="M44.7 80.5C44 78.2 45.1 75.9 47.1 74.9L49.8 83.9C47.6 84.1 45.4 82.7 44.7 80.5Z" fill="#FEFEFE"/>
<path d="M43.9 80.7C43.5 79.4 43.6 78.1 44.1 76.9C44.7 75.8 45.6 74.8 46.7 74.2L47.5 73.8L50.7 84.4L49.8 84.5C48.5 84.7 47.2 84.4 46.1 83.7C45.2 83 44.3 82 43.9 80.7ZM45.6 77.5C45.3 78.3 45.2 79.3 45.5 80.3C45.8 81.3 46.3 82 47.1 82.5C47.6 82.8 48.2 83 48.8 83.1L46.7 76.1C46.2 76.4 45.8 76.9 45.6 77.5Z" fill="black"/>
<path fill-rule="evenodd" clip-rule="evenodd" d="M73.7 107.4L86.3 110.5L87.8 104.4L75.2 101.3L73.7 107.4Z" fill="#FEFEFE"/>
<path d="M74.7 106.8L85.8 109.5L86.9 105L75.8 102.3L74.7 106.8ZM86.1 111.2L72.8 107.9L74.6 100.4L88.7 103.8L86.8 111.3L86.1 111.2Z" fill="black"/>
<path fill-rule="evenodd" clip-rule="evenodd" d="M76.8 108.1L84.1 109.9L85.6 103.9L78.2 102.1L76.8 108.1Z" fill="#FEFEFE"/>
<path d="M77.7 107.5L83.6 109L84.7 104.4L78.8 103L77.7 107.5ZM83.9 110.6L75.8 108.6L77.7 101.1L86.5 103.2L84.6 110.8L83.9 110.6Z" fill="black"/>
<path fill-rule="evenodd" clip-rule="evenodd" d="M79.1 112.8C81.4 113.4 83.7 112.2 84.6 110L75.5 107.8C75.3 110.1 76.8 112.2 79.1 112.8Z" fill="#FEFEFE"/>
<path d="M79.3 112C80.3 112.2 81.2 112.1 82.1 111.7C82.6 111.4 83.1 111 83.5 110.5L76.3 108.8C76.4 109.4 76.6 110 77 110.5C77.5 111.2 78.3 111.8 79.3 112ZM82.7 113.1C81.6 113.7 80.2 113.8 78.9 113.5C77.5 113.2 76.5 112.4 75.7 111.4C75 110.3 74.6 109 74.7 107.7L74.8 106.9L85.6 109.5L85.3 110.3C84.8 111.5 83.8 112.5 82.7 113.1Z" fill="black"/>
<path fill-rule="evenodd" clip-rule="evenodd" d="M134.1 58.2L129.7 46L123.9 48.1L128.3 60.3L134.1 58.2Z" fill="#FEFEFE"/>
<path d="M133.2 57.7L129.3 47L124.9 48.6L128.8 59.3L133.2 57.7ZM130.5 45.8L135.2 58.7L127.9 61.3L123 47.7L130.3 45.1L130.5 45.8Z" fill="black"/>
<path fill-rule="evenodd" clip-rule="evenodd" d="M133.1 55.3L130.5 48.1L124.7 50.3L127.3 57.4L133.1 55.3Z" fill="#FEFEFE"/>
<path d="M132.1 54.8L130.1 49.1L125.7 50.7L127.7 56.4L132.1 54.8ZM131.3 47.9L134.1 55.7L126.8 58.3L123.7 49.7L131 47.1L131.3 47.9Z" fill="black"/>
<path fill-rule="evenodd" clip-rule="evenodd" d="M135.7 50.7C134.9 48.5 132.6 47.3 130.3 47.7L133.5 56.5C135.5 55.4 136.5 53 135.7 50.7Z" fill="#FEFEFE"/>
<path d="M135 51C134.7 50.1 134 49.4 133.3 48.9C132.7 48.6 132.1 48.4 131.5 48.4L134 55.3C134.5 54.8 134.8 54.3 135.1 53.8C135.3 52.9 135.3 51.9 135 51ZM134 47.6C135.1 48.2 136 49.2 136.5 50.5C137 51.7 136.9 53.1 136.4 54.3C135.9 55.5 135.1 56.6 133.9 57.2L133.1 57.7L129.3 47.2L130.1 47C131.5 46.7 132.8 47 134 47.6Z" fill="black"/>
<path fill-rule="evenodd" clip-rule="evenodd" d="M119 99.9L127.5 90.1L122.9 86L114.4 95.7L119 99.9Z" fill="#FEFEFE"/>
<path d="M118.9 98.7L126.5 90.1L123 87.1L115.4 95.7L118.9 98.7ZM128.2 90.6L119.1 100.9L113.3 95.8L122.9 84.9L128.7 90L128.2 90.6Z" fill="black"/>
<path fill-rule="evenodd" clip-rule="evenodd" d="M121.1 97.5L126.1 91.8L121.4 87.7L116.4 93.4L121.1 97.5Z" fill="#FEFEFE"/>
<path d="M121 96.4L125 91.9L121.5 88.8L117.6 93.3L121 96.4ZM126.6 92.3L121.1 98.6L115.3 93.5L121.3 86.7L127.1 91.8L126.6 92.3Z" fill="black"/>
<path fill-rule="evenodd" clip-rule="evenodd" d="M126.3 97.6C127.8 95.9 127.8 93.2 126.4 91.5L120.3 98.5C122.1 99.7 124.7 99.4 126.3 97.6Z" fill="#FEFEFE"/>
<path d="M125.7 97.1C126.4 96.4 126.7 95.5 126.7 94.6C126.7 94 126.6 93.4 126.3 92.8L121.5 98.3C122.1 98.5 122.7 98.6 123.4 98.5C124.2 98.3 125.1 97.8 125.7 97.1ZM128.2 94.6C128.2 95.9 127.7 97.1 126.8 98.1C125.9 99.1 124.7 99.7 123.4 99.9C122.2 100.1 120.8 99.8 119.7 99.1L119 98.6L126.3 90.3L126.9 91C127.8 92 128.2 93.3 128.2 94.6Z" fill="black"/>
<path fill-rule="evenodd" clip-rule="evenodd" d="M111.9 27.4L99.7 23.1L97.7 28.9L109.8 33.2L111.9 27.4Z" fill="#FEFEFE"/>
<path d="M112.2 26.7L99.2 22.1L96.6 29.4L110.3 34.2L112.8 26.9L112.2 26.7ZM100.2 24L111 27.8L109.4 32.2L98.6 28.4L100.2 24Z" fill="black"/>
<path fill-rule="evenodd" clip-rule="evenodd" d="M109 26.3L101.8 23.8L99.8 29.7L106.9 32.2L109 26.3Z" fill="#FEFEFE"/>
<path d="M109.3 25.7L101.4 22.9L98.8 30.2L107.4 33.2L110 25.9L109.3 25.7ZM102.4 24.8L108.1 26.8L106.5 31.2L100.8 29.2L102.4 24.8Z" fill="black"/>
<path fill-rule="evenodd" clip-rule="evenodd" d="M107.1 21.5C104.9 20.7 102.5 21.7 101.4 23.7L110.2 26.8C110.6 24.5 109.4 22.3 107.1 21.5Z" fill="#FEFEFE"/>
<path d="M107.4 20.7C106.1 20.2 104.8 20.3 103.6 20.8C102.4 21.3 101.4 22.1 100.8 23.3L100.3 24.1L110.8 27.8L111 26.9C111.3 25.5 111 24.3 110.4 23.1C109.7 22.1 108.7 21.2 107.4 20.7ZM104.2 22.2C105 21.9 106 21.9 107 22.2C107.9 22.5 108.6 23.2 109.1 23.9C109.4 24.4 109.6 25 109.6 25.6L102.7 23.2C103 22.8 103.6 22.4 104.2 22.2Z" fill="black"/>
<path fill-rule="evenodd" clip-rule="evenodd" d="M95.5 27.9C116.6 30.8 131.3 50.2 128.4 71.2C125.5 92.3 106.1 107 85.1 104.1C64 101.2 49.3 81.8 52.2 60.8C55.1 39.7 74.5 25 95.5 27.9Z" fill="#FEFEFE"/>
<path fill-rule="evenodd" clip-rule="evenodd" d="M95 31.8C113.9 34.4 127.1 51.8 124.5 70.7C121.9 89.6 104.5 102.9 85.6 100.3C66.7 97.7 53.5 80.2 56.1 61.3C58.7 42.4 76.1 29.2 95 31.8Z" fill="black"/>
<path d="M95.1 31C104.7 32.4 113 37.5 118.4 44.6C123.9 51.8 126.6 61.1 125.3 70.8C123.9 80.4 118.8 88.7 111.7 94.1C104.5 99.6 95.2 102.3 85.5 101C75.9 99.7 67.6 94.6 62.2 87.4C56.7 80.2 54 70.9 55.3 61.3C56.7 51.6 61.7 43.4 68.9 37.9C76.2 32.4 85.5 29.7 95.1 31ZM117.2 45.6C112 38.7 104.1 33.8 94.9 32.5C85.7 31.3 76.8 33.9 69.9 39.1C63 44.3 58.1 52.2 56.8 61.4C55.5 70.6 58.2 79.5 63.4 86.4C68.6 93.3 76.5 98.2 85.7 99.5C94.9 100.8 103.8 98.1 110.7 93C117.6 87.8 122.5 79.9 123.8 70.6C125.1 61.4 122.5 52.5 117.2 45.6Z" fill="black"/>
<path d="M95.6 27.1C106.4 28.6 115.5 34.3 121.5 42.3C127.6 50.2 130.6 60.6 129.2 71.3C127.7 82.1 122 91.2 114 97.3C106 103.3 95.7 106.3 85.1 104.9H85C74.2 103.4 65.1 97.7 59 89.7C53 81.7 50 71.4 51.4 60.8V60.6C52.9 49.9 58.6 40.8 66.6 34.7C74.6 28.7 84.9 25.7 95.6 27.1ZM120.4 43.2C114.5 35.5 105.7 30.1 95.4 28.6C85.1 27.2 75.2 30.1 67.5 35.9C59.8 41.8 54.3 50.6 52.9 60.9C51.5 71.2 54.4 81.1 60.2 88.8C66.1 96.5 74.8 102 85.1 103.4H85.2C95.5 104.8 105.4 101.9 113.1 96.1C120.8 90.2 126.3 81.5 127.7 71.2C129.1 60.8 126.2 50.9 120.4 43.2Z" fill="black"/>
<path d="M121.4 66.3C121.5 62.7 117.8 59.3 111.8 56.9C110.7 56.4 109.5 56 108.3 55.7C108.6 54.4 108.9 53.1 109 51.9C109.8 45.6 108.8 40.7 105.7 38.9L105.3 38.7C102.1 37.2 97.6 38.8 92.8 42.7C92 43.4 91.1 44.1 90.2 45C89.3 44.2 88.5 43.4 87.6 42.7C82.8 38.8 78.2 37.2 75.1 38.7H75L74.7 38.9C71.6 40.7 70.5 45.5 71.4 51.9C71.6 53 71.8 54.2 72.1 55.4C71 55.7 70 56.1 69.1 56.4C62.9 58.7 59.1 62.1 59 65.8C59 69.4 62.8 72.9 68.9 75.3C69.9 75.7 71 76.1 72.2 76.4C71.9 77.7 71.6 78.9 71.5 80.1C70.6 86.4 71.7 91.3 74.8 93.1C78 94.9 82.9 93.3 88 89C88.8 88.4 89.5 87.8 90.3 87C91 87.7 91.8 88.4 92.6 89C97.7 93.2 102.6 94.9 105.8 93.1C108.9 91.4 110 86.5 109.1 80.1C108.8 77.9 108.3 75.8 107.7 73.6C107.1 71.6 105.7 68.1 104.9 66C104.4 67 103.7 68.6 103.2 69.8C103.6 70.9 104.4 73.3 104.8 74.4C103.3 74.8 101.6 75.1 100 75.3C100.6 74.3 101.2 73.4 101.7 72.4C102.5 70.9 103.3 69.5 104 68.1C104.3 67.5 104.6 66.9 104.9 66.1C106 63.5 107 61 107.7 58.6C108.9 58.9 110 59.3 110.9 59.7C115.7 61.7 118.6 64 118.6 66.2C118.6 68.5 115.6 70.8 110.8 72.7C110.2 72.9 108.4 73.5 107.8 73.7C108.1 74.7 108.3 75.7 108.6 76.6C109.3 76.4 111.2 75.7 111.9 75.5C117.7 73.2 121.4 69.9 121.4 66.3ZM105.3 55C104.7 57.6 103.9 60.1 102.9 62.6C102.4 61.6 101.9 60.7 101.4 59.8C100.8 58.8 100.3 57.9 99.7 57C100.9 57.2 103.3 57.6 104.5 58C104.9 56.9 105.2 55.9 105.3 55C103.2 54.5 99.8 53.9 97.5 53.6C95.9 51.2 94.1 49.1 92.3 47.2C93.1 46.5 93.9 45.7 94.7 45.1C98.7 41.9 102.3 40.5 104.2 41.6C106.2 42.7 106.7 46.4 106.1 51.5C105.8 52.6 105.6 53.8 105.3 55ZM105.4 77.4C105.6 78.5 105.9 79.6 106 80.6C106.7 85.7 106.2 89.4 104.3 90.6C102.3 91.7 98.7 90.2 94.5 86.8C92.1 84.8 89.5 82.1 87 78.9C88 79 89.1 79 90.2 79C91.4 79 92.5 78.9 93.7 78.9C92.9 80 91.2 81.9 90.4 82.8C91.1 83.6 91.9 84.4 92.7 85.1C94.2 83.5 96.3 80.6 97.7 78.7C100.3 78.4 102.9 78 105.4 77.4ZM82.9 78.6C84.6 81 86.3 83.1 88.1 85C87.4 85.7 86.7 86.3 86 86.9C81.9 90.3 78.2 91.8 76.3 90.7C74.3 89.6 73.8 85.9 74.5 80.7C74.7 79.6 74.9 78.5 75.2 77.4C77.5 77.9 80.2 78.3 82.9 78.6ZM75.9 74.4C76.3 72.9 76.9 71.4 77.5 69.8C77.7 69.3 77.8 68.9 78.1 68.4V68.3C79.1 66 80.2 63.6 81.6 61.2V61.1C82.6 59.4 83.6 57.8 84.6 56.3C86.4 56.1 88.3 56.1 90.2 56.1C92.1 56.2 94 56.2 95.8 56.4C96.8 57.9 97.8 59.5 98.7 61.1C99.7 62.8 100.5 64.4 101.3 66.1C100.6 67.7 99.7 69.3 98.8 70.9C97.8 72.6 96.8 74.2 95.8 75.7C93.9 75.9 92 75.9 90 75.9C84.9 76 80 75.4 75.9 74.4ZM83 53.5C80.2 53.8 77.5 54.2 75.1 54.8C74.9 53.7 74.6 52.6 74.5 51.6C73.8 46.5 74.4 42.8 76.3 41.7C78.3 40.6 81.8 42 85.8 45.2C86.6 45.8 87.4 46.6 88.2 47.3C86.7 48.8 84.4 51.7 83 53.5C84.6 53.4 84.3 53.6 87.1 53.3C87.8 52.3 89.5 50.3 90.3 49.4C91.4 50.6 92.5 51.9 93.6 53.3C92.5 53.2 91.5 53.2 90.3 53.2C87.9 53.2 85.5 53.3 83 53.5ZM80.8 56.8C80.2 57.7 79.7 58.6 79.2 59.5L79.1 59.7C78.5 60.6 78 61.6 77.6 62.5C76.9 60.8 76.4 59.2 75.9 57.7C77.4 57.3 79 57 80.8 56.8ZM72.9 58.4C73.6 60.9 74.6 63.5 75.8 66.1C74.7 68.6 73.7 71.2 73 73.5C71.9 73.2 71 72.8 70.1 72.5C65.1 70.5 62.1 68.1 62.1 65.8C62.1 63.5 65.2 61.1 70.2 59.3C71 59 71.9 58.7 72.9 58.4ZM84.5 75.7C83.8 74.6 82.2 72.2 81.6 70.9C81 69.8 79.6 67.5 79 66.4C78.3 67.8 78.2 68 77.5 69.8C78.2 71.5 79.6 74 80.3 75.2C81.7 75.5 83.3 75.6 84.5 75.7Z" fill="#FEFEFE"/>
<path fill-rule="evenodd" clip-rule="evenodd" d="M90.2 71C92.9 71 95.1 68.8 95.1 66.1C95.1 63.4 92.9 61.2 90.2 61.2C87.5 61.2 85.3 63.4 85.3 66.1C85.3 68.8 87.5 71 90.2 71Z" fill="#FEFEFE"/>
<path d="M90.2 70.6C91.4 70.6 92.5 70.1 93.3 69.3C94.1 68.5 94.7 67.4 94.7 66.1C94.7 64.9 94.2 63.8 93.3 63C92.5 62.2 91.4 61.6 90.2 61.6C89 61.6 87.8 62.1 87 63C86.2 63.8 85.7 64.9 85.7 66.1C85.7 67.3 86.2 68.5 87 69.3C87.9 70.1 89 70.6 90.2 70.6ZM94 69.9C93 70.9 91.7 71.5 90.2 71.5C88.7 71.5 87.4 70.9 86.4 69.9C85.4 68.9 84.8 67.6 84.8 66.1C84.8 64.6 85.4 63.3 86.4 62.3C87.4 61.3 88.7 60.7 90.2 60.7C91.7 60.7 93 61.3 94 62.3C95 63.3 95.6 64.6 95.6 66.1C95.6 67.6 95 68.9 94 69.9Z" fill="black"/>
<path d="M104.7 78.7C104.6 78 104.5 77.2 104.2 76.4C104 75.6 103.7 74.8 103.4 73.9L104.2 73.6C104.5 74.4 104.8 75.3 105 76.1C105.2 76.9 105.4 77.7 105.5 78.5L104.7 78.7Z" fill="black"/>
<path d="M77.2 70.5C77.6 69.5 78 68.6 78.4 67.6C78.9 66.6 79.3 65.6 79.8 64.6L80.6 64.9C79.7 66.9 78.8 68.8 78 71C77.7 70.9 77.4 70.7 77.2 70.5Z" fill="black"/>
<path d="M87.2 84C87.9 84.8 88.6 85.5 89.3 86.2C89.9 86.9 90.6 87.5 91.2 88L90.6 88.7C89.2 87.5 87.8 86.1 86.5 84.6L87.2 84Z" fill="black"/>
<path d="M80 78.2C81.6 78.5 83.3 78.7 85 78.8C86.6 78.9 88.3 79 90 79V79.9C88.3 79.9 86.6 79.8 85 79.7C83.3 79.5 81.6 79.4 79.9 79.1L80 78.2Z" fill="black"/>
<path d="M78.9 57.1C80.1 56.9 81.5 56.7 83 56.5C84.5 56.4 86.1 56.3 87.8 56.2L87.9 57.1C86.2 57.2 84.6 57.3 83.1 57.4C81.6 57.6 80.3 57.7 79.1 58L78.9 57.1Z" fill="black"/>
<path d="M72.7 60.8C72.2 59.4 71.7 58 71.4 56.6C71 55.1 70.8 53.7 70.6 52.1L71.5 52C71.7 53.5 72 55 72.3 56.4C72.6 57.8 73.1 59.2 73.6 60.5L72.7 60.8Z" fill="black"/>
<path d="M96 58.5C95.3 57.2 94.5 56 93.7 55C92.9 53.9 92.1 53 91.3 52.1L91.9 51.4C92.8 52.3 93.6 53.3 94.4 54.4C95.2 55.5 96 56.7 96.8 58L96 58.5Z" fill="black"/>
<path d="M107 60.5C107.4 59.3 107.8 58 108.1 56.8C108.4 55.6 108.7 54.4 108.9 53.2L109.7 53.4C109.5 54.6 109.2 55.8 108.9 57.1C108.6 58.4 108.2 59.6 107.8 60.9L107 60.5Z" fill="black"/>
<path d="M89.7 50C90.4 49.2 91.1 48.4 91.8 47.7C92.5 47 93.2 46.4 93.9 45.9L94.4 46.6C93.8 47.1 93.1 47.7 92.4 48.3C91.7 49 91 49.7 90.4 50.5L89.7 50Z" fill="black"/>
<path fill-rule="evenodd" clip-rule="evenodd" d="M103.9 67.5C104.2 69 104 70.1 103.3 70.8C103 70 102.7 69.4 102.5 69C103.4 68 103.9 67.5 103.9 67.5Z" fill="#FEFEFE"/>
</svg>
