<?xml version="1.0" encoding="utf-8"?>
<!-- Generator: Adobe Illustrator 19.2.1, SVG Export Plug-In . SVG Version: 6.00 Build 0)  -->
<svg version="1.1" id="Layer_1" xmlns="http://www.w3.org/2000/svg" xmlns:xlink="http://www.w3.org/1999/xlink" x="0px" y="0px"
	 viewBox="0 0 39.9 42.6" style="filter: drop-shadow( 1.5px 2.6px 10px rgba(3, 3, 3, 0.34)); enable-background:new 0 0 39.9 42.6;" xml:space="preserve">
<g>
	<path  style="fill-rule:evenodd;clip-rule:evenodd;fill:#1e201f;" d="M38.3,8.7c0-0.9,0.7-1.6,1.6-1.6V0H0v7.1
		c0.9,0,1.6,0.7,1.6,1.6c0,0.9-0.7,1.6-1.6,1.6v30.1c0,1.3,1,2.3,2.3,2.3h35.3c1.3,0,2.3-1,2.3-2.3V10.3C39,10.3,38.3,9.6,38.3,8.7
		L38.3,8.7z M18.4,8.7c0-0.2,0.1-0.4,0.3-0.4c0.2,0,0.3,0.2,0.3,0.4c0,0.2-0.1,0.3-0.3,0.3C18.5,9.1,18.4,8.9,18.4,8.7L18.4,8.7z
		 M28.4,8.7c0-0.2,0.1-0.4,0.3-0.4c0.2,0,0.3,0.2,0.3,0.4c0,0.2-0.1,0.3-0.3,0.3C28.5,9.1,28.4,8.9,28.4,8.7L28.4,8.7z M8.7,8.4
		c0.2,0,0.3,0.2,0.3,0.4c0,0.2-0.1,0.3-0.3,0.3c-0.2,0-0.3-0.2-0.3-0.3C8.4,8.5,8.5,8.4,8.7,8.4L8.7,8.4z M33.4,8.7
		c0-0.2,0.1-0.4,0.3-0.4s0.3,0.2,0.3,0.4c0,0.2-0.1,0.3-0.3,0.3S33.4,8.9,33.4,8.7L33.4,8.7z M13.7,8.4c0.2,0,0.3,0.2,0.3,0.4
		c0,0.2-0.1,0.3-0.3,0.3c-0.2,0-0.3-0.2-0.3-0.3C13.4,8.5,13.6,8.4,13.7,8.4L13.7,8.4z M23.4,8.7c0-0.2,0.1-0.4,0.3-0.4
		c0.2,0,0.3,0.2,0.3,0.4c0,0.2-0.1,0.3-0.3,0.3C23.5,9.1,23.4,8.9,23.4,8.7L23.4,8.7z M35.9,8.7c0-0.2,0.2-0.4,0.3-0.4
		c0.2,0,0.4,0.2,0.4,0.4c0,0.2-0.2,0.3-0.4,0.3C36,9.1,35.9,8.9,35.9,8.7L35.9,8.7z M16.2,8.4c0.2,0,0.3,0.2,0.3,0.4
		c0,0.2-0.2,0.3-0.3,0.3c-0.2,0-0.3-0.2-0.3-0.3C15.9,8.5,16,8.4,16.2,8.4L16.2,8.4z M25.9,8.7c0-0.2,0.2-0.4,0.4-0.4
		c0.2,0,0.3,0.2,0.3,0.4c0,0.2-0.2,0.3-0.3,0.3C26,9.1,25.9,8.9,25.9,8.7L25.9,8.7z M30.9,8.7c0-0.2,0.2-0.4,0.3-0.4
		c0.2,0,0.4,0.2,0.4,0.4c0,0.2-0.2,0.3-0.4,0.3C31,9.1,30.9,8.9,30.9,8.7L30.9,8.7z M11.2,8.4c0.2,0,0.3,0.2,0.3,0.4
		c0,0.2-0.2,0.3-0.3,0.3c-0.2,0-0.3-0.2-0.3-0.3C10.9,8.5,11,8.4,11.2,8.4L11.2,8.4z M20.9,8.7c0-0.2,0.2-0.4,0.4-0.4
		c0.2,0,0.3,0.2,0.3,0.4c0,0.2-0.2,0.3-0.3,0.3C21,9.1,20.9,8.9,20.9,8.7L20.9,8.7z M37.1,8.7c0-0.2,0.1-0.4,0.3-0.4
		c0.2,0,0.3,0.2,0.3,0.4c0,0.2-0.1,0.3-0.3,0.3C37.3,9.1,37.1,8.9,37.1,8.7L37.1,8.7z M17.1,8.7c0-0.2,0.2-0.4,0.3-0.4
		c0.2,0,0.3,0.2,0.3,0.4c0,0.2-0.1,0.3-0.3,0.3C17.3,9.1,17.1,8.9,17.1,8.7L17.1,8.7z M27.1,8.7c0-0.2,0.2-0.4,0.3-0.4
		c0.2,0,0.3,0.2,0.3,0.4c0,0.2-0.1,0.3-0.3,0.3C27.3,9.1,27.1,8.9,27.1,8.7L27.1,8.7z M7.5,8.4c0.2,0,0.4,0.2,0.4,0.4
		c0,0.2-0.2,0.3-0.4,0.3c-0.2,0-0.3-0.2-0.3-0.3C7.1,8.5,7.3,8.4,7.5,8.4L7.5,8.4z M32.1,8.7c0-0.2,0.2-0.4,0.3-0.4
		c0.2,0,0.3,0.2,0.3,0.4c0,0.2-0.1,0.3-0.3,0.3C32.3,9.1,32.1,8.9,32.1,8.7L32.1,8.7z M12.5,8.4c0.2,0,0.4,0.2,0.4,0.4
		c0,0.2-0.2,0.3-0.4,0.3c-0.2,0-0.3-0.2-0.3-0.3C12.1,8.5,12.3,8.4,12.5,8.4L12.5,8.4z M22.1,8.7c0-0.2,0.2-0.4,0.3-0.4
		c0.2,0,0.3,0.2,0.3,0.4c0,0.2-0.1,0.3-0.3,0.3C22.3,9.1,22.1,8.9,22.1,8.7L22.1,8.7z M34.6,8.7c0-0.2,0.1-0.4,0.3-0.4
		c0.2,0,0.3,0.2,0.3,0.4c0,0.2-0.2,0.3-0.3,0.3C34.8,9.1,34.6,8.9,34.6,8.7L34.6,8.7z M15,8.4c0.2,0,0.3,0.2,0.3,0.4
		c0,0.2-0.1,0.3-0.3,0.3c-0.2,0-0.3-0.2-0.3-0.3C14.6,8.5,14.8,8.4,15,8.4L15,8.4z M24.6,8.7c0-0.2,0.1-0.4,0.3-0.4
		c0.2,0,0.3,0.2,0.3,0.4c0,0.2-0.2,0.3-0.3,0.3C24.8,9.1,24.6,8.9,24.6,8.7L24.6,8.7z M29.6,8.7c0-0.2,0.1-0.4,0.3-0.4
		c0.2,0,0.3,0.2,0.3,0.4c0,0.2-0.2,0.3-0.3,0.3C29.8,9.1,29.6,8.9,29.6,8.7L29.6,8.7z M10,8.4c0.2,0,0.3,0.2,0.3,0.4
		c0,0.2-0.1,0.3-0.3,0.3c-0.2,0-0.3-0.2-0.3-0.3C9.6,8.5,9.8,8.4,10,8.4L10,8.4z M19.6,8.7c0-0.2,0.1-0.4,0.3-0.4
		c0.2,0,0.3,0.2,0.3,0.4c0,0.2-0.1,0.3-0.3,0.3C19.8,9.1,19.6,8.9,19.6,8.7L19.6,8.7z M3.7,8.4c0.2,0,0.3,0.2,0.3,0.4
		c0,0.2-0.1,0.3-0.3,0.3c-0.2,0-0.3-0.2-0.3-0.3C3.4,8.5,3.5,8.4,3.7,8.4L3.7,8.4z M6.2,8.4c0.2,0,0.3,0.2,0.3,0.4
		c0,0.2-0.2,0.3-0.3,0.3C6,9.1,5.9,8.9,5.9,8.7C5.9,8.5,6,8.4,6.2,8.4L6.2,8.4z M5,8.4c0.2,0,0.3,0.2,0.3,0.4c0,0.2-0.1,0.3-0.3,0.3
		c-0.2,0-0.3-0.2-0.3-0.3C4.6,8.5,4.8,8.4,5,8.4L5,8.4z M2.5,8.4c0.2,0,0.3,0.2,0.3,0.4c0,0.2-0.2,0.3-0.3,0.3
		c-0.2,0-0.4-0.2-0.4-0.3C2.1,8.5,2.3,8.4,2.5,8.4L2.5,8.4z"/>
</g>
</svg>
