<svg id="Layer_1" data-name="Layer 1" xmlns="http://www.w3.org/2000/svg" viewBox="0 0 143 143.8"><defs><style>.cls-1{fill:#fff;}.cls-2{fill:#fbd724;}</style></defs><title>ML_logo</title><path class="cls-1" d="M155.7,141.74c0,4.3,1.3,7.2,3.7,10.7l-.6.5a15,15,0,0,1,0-22.4l.6.5c-2.4,3.5-3.7,6.4-3.7,10.7Z" transform="translate(-87.8 -98.54)"/><path class="cls-1" d="M176,141.74c0,4.3-1.3,7.2-3.7,10.7l.6.5a15,15,0,0,0,0-22.4l-.6.5c2.5,3.6,3.7,6.4,3.7,10.7Z" transform="translate(-87.8 -98.54)"/><polygon class="cls-1" points="64.1 31 64.5 30.5 60.7 26.8 56.9 30.5 57.3 31 60.7 28.6 64.1 31"/><polygon class="cls-2" points="70.2 0 72.1 0 71.8 3.1 74.8 2 75.3 3.9 72.3 4.5 74.3 6.8 72.8 7.9 71.2 5.3 69.5 8 68 6.9 70 4.5 66.9 3.8 67.5 2 70.5 3.1 70.2 0"/><polygon class="cls-2" points="91.6 5.2 93.3 6.1 91.4 8.8 94.6 9.3 94.2 11.1 91.2 10.1 91.8 13.2 89.9 13.4 89.8 10.3 87.1 11.8 86.3 10.1 89.2 9 86.9 6.9 88.3 5.6 90.2 8.1 91.6 5.2"/><polygon class="cls-2" points="107.6 20.5 108.6 22.2 105.7 23.5 108.2 25.6 106.9 26.9 104.8 24.6 103.7 27.5 102 26.7 103.5 24 100.4 24 100.6 22 103.7 22.6 102.7 19.6 104.5 19.2 105 22.3 107.6 20.5"/><polygon class="cls-2" points="113.7 41.5 113.7 43.4 110.6 43.2 111.7 46.2 109.9 46.7 109.3 43.6 106.9 45.7 105.8 44.1 108.5 42.5 105.8 40.9 106.9 39.3 109.3 41.4 109.9 38.3 111.7 38.9 110.6 41.8 113.7 41.5"/><polygon class="cls-2" points="108.5 62.9 107.6 64.6 105 62.8 104.4 65.9 102.6 65.4 103.6 62.5 100.5 63.1 100.3 61.2 103.5 61.1 101.9 58.4 103.7 57.6 104.7 60.5 106.8 58.2 108.1 59.6 105.6 61.6 108.5 62.9"/><polygon class="cls-2" points="93.4 78.9 91.7 79.9 90.3 77 88.3 79.5 86.9 78.2 89.3 76.1 86.3 75.1 87.1 73.4 89.8 74.9 89.9 71.7 91.8 71.9 91.2 75 94.2 74 94.7 75.9 91.5 76.3 93.4 78.9"/><polygon class="cls-2" points="70.2 77 72.1 77 71.8 80.2 74.8 79.1 75.3 80.9 72.3 81.5 74.3 83.9 72.8 85 71.2 82.3 69.5 85 68 83.9 70 81.5 66.9 80.9 67.5 79.1 70.5 80.2 70.2 77"/><polygon class="cls-2" points="53 71.9 54.7 72.9 52.9 75.5 56 76 55.6 77.9 52.6 76.9 53.2 79.9 51.3 80.1 51.2 77 48.4 78.5 47.7 76.8 50.6 75.8 48.3 73.6 49.7 72.3 51.7 74.8 53 71.9"/><polygon class="cls-2" points="40.8 59 41.7 60.7 38.8 62.1 41.3 64.1 40 65.4 38 63.1 36.9 66 35.2 65.3 36.7 62.5 33.5 62.5 33.7 60.6 36.8 61.1 35.8 58.2 37.7 57.7 38.2 60.9 40.8 59"/><polygon class="cls-2" points="36.6 41.5 36.6 43.4 33.4 43.2 34.5 46.2 32.7 46.7 32.1 43.6 29.7 45.7 28.6 44.1 31.3 42.5 28.6 40.9 29.7 39.3 32.1 41.4 32.7 38.3 34.6 38.9 33.4 41.8 36.6 41.5"/><polygon class="cls-2" points="41.7 24.4 40.7 26 38.1 24.2 37.6 27.4 35.7 26.9 36.7 24 33.6 24.6 33.5 22.7 36.6 22.6 35.1 19.8 36.8 19.1 37.9 22 40 19.7 41.3 21.1 38.8 23 41.7 24.4"/><polygon class="cls-2" points="54.8 12.2 53.1 13.2 51.7 10.3 49.7 12.8 48.3 11.5 50.7 9.4 47.7 8.3 48.5 6.6 51.3 8.1 51.3 5 53.2 5.2 52.7 8.2 55.6 7.3 56.1 9.1 52.9 9.6 54.8 12.2"/><path class="cls-1" d="M91.4,208.44l-2.5-.3v-1.6h7.9l2.5,9.8.5,2.6.5-2.6,2.5-9.8h7.9v1.6l-2.5.3,1.9,13.6,1.8.3v1.5H104v-1.5l2-.3-1.4-14.2-3.9,15.3H97.6l-4.3-15.3L92.1,222l2.4.3v1.5H87.8v-1.5l1.9-.3Zm23.1,0-1.7-.3v-1.6h8v1.6l-2.2.3V222l4.4-.2,1.5-4.6,2.2.3-.7,6.4H112.7v-1.6l1.8-.3Zm19.5,5.4a6.44,6.44,0,0,1,5.9-3.3c1.7,0,2.5.5,4,.7l-.2,4.2h-2.3l-.6-2.7c-.1-.5-.7-.6-1.1-.6a2,2,0,0,0-1.7,1.1c-.9,1.6-.8,5.6.2,7.2a2.26,2.26,0,0,0,2.1,1.3,6.2,6.2,0,0,0,3.2-.9l.6,1.4c-2.1,2.3-7.2,2.5-9.3,0a7.59,7.59,0,0,1-.8-8.4Zm11.7,3.6c0-4.1,2.5-6.9,6.6-6.9s6.3,2.7,6.3,6.7-2.3,6.9-6.6,6.9-6.3-2.7-6.3-6.7Zm6.5,5c2.2,0,2.2-3.5,2.2-5s.1-5.3-2.3-5.3c-1.5,0-2.3,1.7-2.3,5,0,1.6,0,5.3,2.4,5.3Zm9.7-9.1-1.4-.4v-1.8l4.2-.5h.1l.6.5v1.4a7,7,0,0,1,4.7-1.9c1.6,0,2.9.5,3.4,2.1a11.52,11.52,0,0,1,.3,3v6.4l1.3.2v1.6h-6.3v-1.6l1.1-.2v-6.4c0-1.4,0-2.9-1.8-2.9a4,4,0,0,0-2.4,1v8.3l1.3.2v1.5h-6.5v-1.5l1.3-.2v-8.8Zm16.4-.5h-1.8v-1.5l1.8-.5v-1a5.71,5.71,0,0,1,3.1-4.9,6.15,6.15,0,0,1,4.6-.5v3.4a1.87,1.87,0,0,0-1-.5c-1.6-.6-2.9-.5-2.9,1.4v2.1h2.8v1.9h-2.8v9.2l2.4.2v1.5h-8v-1.3l1.8-.2ZM188.8,224a2,2,0,0,1-2-1.9,2.19,2.19,0,0,1,2.4-2.1,1.94,1.94,0,0,1,2,2c.1,1.3-1,2-2.4,2Zm12-15.6-1.8-.3v-1.6h12.8l.3,4.1h-1.9l-.8-2.4-4.6-.2v6.1l2.9-.1.4-1.9h1.6V218h-1.6l-.4-2-2.9-.1v6.3l5.1-.3,1.4-3,2,.6-.6,4.4H198.9v-1.6l1.8-.3v-13.6ZM222.6,224c-4.9,0-7.2-2.3-7.2-7.2v-8.3l-1.5-.3v-1.6h7.5v1.6l-1.9.4v8.6c0,3.5,1.2,5.3,3.7,5.3,2.9,0,3.5-2.8,3.5-5.2v-8.7l-2-.3v-1.6h6.1v1.6l-1.5.3v8.5c0,4.2-2.1,6.9-6.7,6.9Z" transform="translate(-87.8 -98.54)"/><path class="cls-1" d="M108.6,242.14l-2.4-3.4c-.3,0-.5.1-.8.1h-2.8v3.3h-1.1v-10.4h3.9c2.3,0,4.3,1.1,4.3,3.6a3.33,3.33,0,0,1-2.4,3.3l2.5,3.6h-1.2Zm-3.2-4.2c1.7,0,3.2-.7,3.2-2.6s-1.5-2.6-3.2-2.6h-2.8V238h2.8Zm13.5.7h-6.6a2.85,2.85,0,0,0,3.1,2.7,3.1,3.1,0,0,0,2.4-1l.6.7a4.25,4.25,0,0,1-6.6-.6,4.65,4.65,0,0,1-.5-2.1,5,5,0,0,1,.5-2.1,3.55,3.55,0,0,1,3.3-1.9,3.74,3.74,0,0,1,3.3,1.9,4.65,4.65,0,0,1,.5,2.1Zm-3.8-3.4a2.69,2.69,0,0,0-2.8,2.6h5.6a2.63,2.63,0,0,0-2.8-2.6Zm15.8-1a3,3,0,0,1,3.2,3.3v4.6H133v-4.5c0-1.5-.7-2.5-2.3-2.5s-2.6,1.2-2.6,2.9v4.1H127v-4.5c0-1.5-.7-2.5-2.3-2.5s-2.6,1.2-2.6,2.9v4.1h-1v-7.8h1v1.4a3.07,3.07,0,0,1,2.9-1.5,2.84,2.84,0,0,1,2.8,1.7,3.45,3.45,0,0,1,3.1-1.7Zm9.3,8a4,4,0,1,1,4-4,4,4,0,0,1-4,4Zm0-.9a2.84,2.84,0,0,0,2.9-3.1,2.89,2.89,0,0,0-2.9-3.1,3.11,3.11,0,0,0,0,6.2Zm10.3.4a2.46,2.46,0,0,1-1.7.5,2.06,2.06,0,0,1-2.3-2.3v-4.7h-1.4v-.9h1.4v-1.7h1.1v1.7H150v.9h-2.4v4.7c0,.9.4,1.5,1.3,1.5a1.75,1.75,0,0,0,1.2-.4Zm8.7-3.1h-6.6a2.85,2.85,0,0,0,3.1,2.7,3.1,3.1,0,0,0,2.4-1l.6.7a3.8,3.8,0,0,1-3,1.3,3.91,3.91,0,0,1-3.6-1.9,4.65,4.65,0,0,1-.5-2.1,3.78,3.78,0,0,1,3.8-4,3.73,3.73,0,0,1,3.8,4Zm-3.8-3.4a2.82,2.82,0,0,0-2.8,2.6h5.6a2.63,2.63,0,0,0-2.8-2.6Zm17.6,6v1h-7.4v-10.4h7.2v.9h-6.1v3.7h5.4v.9h-5.4v3.9Zm9.5-10.1v11.1h-1v-1.6a3.42,3.42,0,0,1-3,1.6,4,4,0,0,1,0-8,3.56,3.56,0,0,1,3,1.5V231h1Zm-4,10.2a2.65,2.65,0,0,0,2.5-1.5,4.19,4.19,0,0,0,.4-1.6,3,3,0,0,0-2.9-3.1,2.84,2.84,0,0,0-2.9,3.1,2.89,2.89,0,0,0,2.9,3.1Zm6.9-7h1.1v7.8h-1.1Zm.6-1.7a.79.79,0,0,1-.8-.8.71.71,0,0,1,.8-.7.77.77,0,0,1,.8.7.86.86,0,0,1-.8.8Zm7.6,9.1a2.46,2.46,0,0,1-1.7.5,2.06,2.06,0,0,1-2.3-2.3v-4.7h-1.4v-.9h1.4v-1.7h1.1v1.7h2.4v.9h-2.4v4.7c0,.9.4,1.5,1.4,1.5a1.5,1.5,0,0,0,1.1-.4Zm1.9-7.4h1.1v7.8h-1.1Zm.6-1.7a1.42,1.42,0,0,1-.6-.2.73.73,0,0,1,0-1,1.07,1.07,0,0,1,.6-.2.7.7,0,1,1,0,1.4Zm6.7,9.6a4,4,0,0,1,0-8,3.83,3.83,0,0,1,4,4,4,4,0,0,1-4,4Zm0-.9a2.84,2.84,0,0,0,2.9-3.1,2.89,2.89,0,0,0-2.9-3.1,2.84,2.84,0,0,0-2.9,3.1,2.79,2.79,0,0,0,2.9,3.1Zm10.1-7.1a3,3,0,0,1,3.2,3.3v4.6h-1v-4.5a2.24,2.24,0,0,0-2.4-2.5A2.58,2.58,0,0,0,210,238v4.1h-1.1v-7.8h1v1.5a3.42,3.42,0,0,1,3-1.6Z" transform="translate(-87.8 -98.54)"/><path class="cls-1" d="M144.6,136.64h-2.1l.3-1.1h2.1a7.34,7.34,0,0,1,1.4-3.2,3.41,3.41,0,0,1,2.5-1.1,2.2,2.2,0,0,1,1.6.5,1.49,1.49,0,0,1,.6,1.3c0,1.5-2.2,1.5-2.2.2a2,2,0,0,1,.2-.7s0-.4-.1-.4c-1.5-.6-2,2.7-2.1,3.4h2l-.3,1.1h-2l-1.6,7.9a10.18,10.18,0,0,1-1.8,4.4c-.9,1.2-2.8,1.9-4.1.9a1.38,1.38,0,0,1-.6-1.1c0-1.7,2.2-1.6,2.2-.3a1.1,1.1,0,0,1-.3.7s.1.3.2.3c1.6.5,2.5-4.2,2.7-5.2Z" transform="translate(-87.8 -98.54)"/><path class="cls-1" d="M164.9,145a3.72,3.72,0,0,1-3,1.8,2.08,2.08,0,0,1-2.3-2c0-2.1,2.5-1.9,2.5-.5,0,.6-.6,1.1-.6,1.2s.4.3.6.3c1.2,0,2-1.6,2.3-2.5a8.34,8.34,0,0,0,.6-2.5c.2-.9.5-3-.1-3.9a1.34,1.34,0,0,0-2,0,7.1,7.1,0,0,0-1.1,1.7h-1.1c.6-1.6,1.8-3.4,3.7-3.4a2.46,2.46,0,0,1,2.4,1.9,3.51,3.51,0,0,1,2.9-1.9,2.15,2.15,0,0,1,2.3,2c0,1.8-2.5,1.7-2.5.4,0-.5.5-1,.5-1.1s-.3-.3-.5-.3c-1.9,0-2.6,3.6-2.8,5.1-.2,1.1-.8,4.1,1,4.1,1.1,0,2.1-1.4,2.7-2.3l1.1.1c-.9,1.6-2.2,3.4-4.2,3.4-1.4.2-2.3-.4-2.4-1.6Z" transform="translate(-87.8 -98.54)"/></svg>