<svg xmlns="http://www.w3.org/2000/svg" xmlns:xlink="http://www.w3.org/1999/xlink" width="296" height="82"
     viewBox="0 0 296 82">
  <defs>
    <path id="emc1a"
          d="M1135.003 1947.949h11.925v-11.96h68.142v11.96h11.924v58.082h-11.924v11.96h-68.142v-11.96h-11.925zm34.07 58.082h23.85v-58.082h-23.85z"/>
    <path id="emc1b"
          d="M1237.003 1947.949h11.925v-11.96h68.141v11.96h11.925v58.082h-11.925v11.96h-68.141v-11.96h-11.925zm34.07 58.082h23.85v-58.082h-23.85z"/>
    <path id="emc1c"
          d="M1032.994 1935.989h80.083v11.96h-46.005v23.917h46.005v11.957h11.927v22.208h-11.927v11.96h-68.156v-11.96h-11.927v-11.955h34.078v11.955h23.854v-22.208h-57.932z"/>
  </defs>
  <g>
    <g transform="translate(-1033 -1936)">
      <use fill="#ff3586" xlink:href="#emc1a"/>
      <use fill="#fef502" xlink:href="#emc1a"/>
    </g>
    <g transform="translate(-1033 -1936)">
      <use fill="#ff3586" xlink:href="#emc1b"/>
      <use fill="#fef502" xlink:href="#emc1b"/>
    </g>
    <g transform="translate(-1033 -1936)">
      <use fill="#ff3586" xlink:href="#emc1c"/>
      <use fill="#fef502" xlink:href="#emc1c"/>
    </g>
  </g>
</svg>
