<svg width="29" height="29" viewBox="0 0 29 29" fill="none" xmlns="http://www.w3.org/2000/svg">
<path d="M3.96147 7.44046C5.78117 7.44046 7.25632 5.96144 7.25632 4.13698C7.25632 2.31252 5.78117 0.833496 3.96147 0.833496C2.14178 0.833496 0.666626 2.31252 0.666626 4.13698C0.666626 5.96144 2.14178 7.44046 3.96147 7.44046Z" fill="#0C0C0C"/>
<path d="M6.83398 9.98415H1.09196V28.3335H6.83398V9.98415Z" fill="#0C0C0C"/>
<path d="M21.4571 9.53367C18.3001 9.53367 16.7545 11.0323 15.9967 12.4948H15.8589V9.98114H10.3774V28.3305H16.1195V18.4891C16.1195 17.2878 16.4489 14.5279 19.5251 14.5279C22.6013 14.5279 22.5684 17.477 22.5684 18.405V28.3305H28.1666V17.3569C28.1666 14.4348 27.6365 9.53367 21.4631 9.53367H21.4571Z" fill="#0C0C0C"/>
</svg>
