<?xml version="1.0" encoding="utf-8"?>
<!-- Generator: Adobe Illustrator 23.0.5, SVG Export Plug-In . SVG Version: 6.00 Build 0)  -->
<svg version="1.1" id="Layer_1" xmlns="http://www.w3.org/2000/svg" xmlns:xlink="http://www.w3.org/1999/xlink" x="0px" y="0px"
	 width="28px" height="28px" viewBox="0 0 28 28" style="enable-background:new 0 0 28 28;" xml:space="preserve">
<style type="text/css">
	.st0{fill-rule:evenodd;clip-rule:evenodd;}
</style>
<path class="st0" d="M14.1,19.4c-0.2,0-0.5,0-0.6-0.1c-0.2-0.1-0.4-0.2-0.5-0.4c-0.2-0.2-0.3-0.4-0.4-0.5s-0.1-0.4-0.1-0.6v-0.1
	h-1.6v0.1c0,0.8,0.4,1.6,0.9,2.3c0.6,0.6,1.5,0.9,2.3,0.9c0.8,0,1.6-0.4,2.3-0.9c0.6-0.6,0.9-1.4,0.9-2.3c0,0,0,0,0-0.1h-1.6v0.1
	c0,0.2,0,0.5-0.1,0.6s-0.2,0.4-0.4,0.5s-0.4,0.3-0.5,0.4C14.5,19.3,14.3,19.4,14.1,19.4L14.1,19.4z M11,9.3c-0.5,0-0.9,0.2-1.3,0.4
	c-0.4,0.3-0.6,0.6-0.8,1.1s-0.2,0.9-0.1,1.4c0.1,0.5,0.3,0.9,0.6,1.2c0.4,0.4,0.7,0.5,1.2,0.6c0.5,0.1,0.9,0,1.4-0.1
	c0.5-0.2,0.8-0.5,1.1-0.8c0.3-0.4,0.4-0.8,0.4-1.3c0-0.3-0.1-0.6-0.2-0.9c-0.1-0.3-0.3-0.5-0.5-0.7c-0.4-0.4-0.5-0.5-0.9-0.6
	C11.5,9.4,11.3,9.3,11,9.3z M10.3,11.7c0-0.2,0-0.3,0.1-0.5c0.1-0.1,0.2-0.2,0.4-0.3c0.1-0.1,0.3-0.1,0.5,0c0.2,0,0.3,0.1,0.4,0.2
	s0.2,0.3,0.2,0.4c0,0.2,0,0.3,0,0.5c-0.1,0.1-0.2,0.3-0.3,0.4c-0.1,0.1-0.3,0.1-0.5,0.1s-0.4-0.1-0.5-0.2
	C10.3,12,10.3,11.8,10.3,11.7z M7,7.5c4.5-1.4,6.2-2.3,7-2.7c0.7,0.5,2.5,1.3,7,2.7c0,0.5,0.3,15.8-7,15.8C6.7,23.4,7,8.1,7,7.5z
	 M14,25.4c9.4,0,9-18.7,9-19.4c-5.8-1.8-8-3-9-3.5c-1,0.5-3.2,1.7-9,3.5C5,6.7,4.6,25.4,14,25.4z M14.7,10.8v1.5h4.5v-1.5H14.7z"/>
</svg>
