<svg id="Слой_1" xmlns="http://www.w3.org/2000/svg" viewBox="0 0 149 113"><style>.st1{fill:#fff}</style><path id="yod7a" d="M20 105V93H8V12h12V0h117v12h12v81h-12v12H20zm44-24h13V24H64v57zm26-11V59h13V46H90V35H77v35h13z" fill="#fef502"/><path id="yod7a_1_" class="st1" d="M20 105V93H8V12h12V0h117v12h12v81h-12v12H20zm44-24h13V24H64v57zm26-11V59h13V46H90V35H77v35h13z"/><g><path id="yod7b" d="M0 20h4v77h12v12h113v4H12v-12H0V20z" fill="#ff2407"/><path id="yod7b_1_" class="st1" d="M0 20h4v77h12v12h113v4H12v-12H0V20z"/></g></svg>