<?xml version="1.0" encoding="utf-8"?>
<!-- Generator: Adobe Illustrator 22.1.0, SVG Export Plug-In . SVG Version: 6.00 Build 0)  -->
<svg version="1.1" id="Layer_1" xmlns="http://www.w3.org/2000/svg" xmlns:xlink="http://www.w3.org/1999/xlink" x="0px" y="0px"
	 width="39.406px" height="50px" viewBox="0 0 39.406 50" style="enable-background:new 0 0 39.406 50;" xml:space="preserve">
<style type="text/css">
	.st0{fill:#24FC89;}
</style>
<path id="Фигура_25" class="st0" d="M19.9,37.52c-1.916,0.017-3.483-1.523-3.5-3.44c0-0.003,0-0.007,0-0.01v-0.12h-3.574v0.11
	c0.046,3.906,3.25,7.035,7.156,6.989c3.841-0.046,6.943-3.148,6.989-6.989v-0.11h-3.573v0.11c-0.009,1.92-1.572,3.469-3.492,3.46
	c0,0,0,0,0,0L19.9,37.52L19.9,37.52z M21.345,17.99h9.867v3.4H21.34v-3.4H21.345z M4.466,10.91c9.825-3.09,13.551-5,15.24-5.94
	c1.682,0.94,5.406,2.85,15.232,5.94c0,1.1,0.625,34.66-15.232,34.63C3.834,45.57,4.461,12.01,4.461,10.91H4.466z M19.7,50
	C40.2,50.04,39.4,9.1,39.4,7.68C26.7,3.69,21.883,1.22,19.7,0c-2.176,1.22-7,3.69-19.7,7.68C0,9.1-0.8,50.04,19.7,50L19.7,50z
	 M13.037,14.77c-2.786,0.03-5.02,2.313-4.99,5.1s2.314,5.02,5.1,4.99c2.766-0.03,4.993-2.283,4.99-5.049
	c-0.015-2.798-2.295-5.055-5.094-5.04C13.041,14.77,13.04,14.77,13.037,14.77L13.037,14.77z M11.417,19.81
	c0.003-0.884,0.721-1.598,1.605-1.595c0.884,0.003,1.598,0.721,1.595,1.605s-0.721,1.598-1.605,1.595
	c-0.88-0.003-1.592-0.715-1.595-1.595V19.81z"/>
</svg>
