<?xml version="1.0" encoding="utf-8"?>
<!-- Generator: Adobe Illustrator 22.1.0, SVG Export Plug-In . SVG Version: 6.00 Build 0)  -->
<svg version="1.1" id="Слой_1" xmlns="http://www.w3.org/2000/svg" xmlns:xlink="http://www.w3.org/1999/xlink" x="0px" y="0px"
	 width="215.4px" height="237.2px" viewBox="0 0 215.4 237.2" style="enable-background:new 0 0 215.4 237.2;" xml:space="preserve"
	>
<style type="text/css">
	.st0{fill:none;}
	.st1{fill:#24FC89;}
	.st2{fill:none;stroke:#24FC89;stroke-width:0;stroke-linecap:round;stroke-linejoin:round;}
</style>
<g>
	<path class="st0" d="M45.5,191.1c-0.5,0.4-1,0.8-1.5,1.2c-2.1,1.6-3.4,3.8-4,6.8c-0.1,0.7-0.1,1,0,1.1c1.2,2.4,2.7,4.7,5.2,6.2
		c0.7,0.4,1.3,0.7,2.1,0.9c-0.9-6-0.2-8.7,0.9-11.7L45.5,191.1L45.5,191.1z"/>
	<path class="st0" d="M115.7,220.5l0.1,5.4c3.5,0.7,5.6-0.4,8.3-1.9c0.1-0.1,0.2-0.4,0.2-0.7c0-2.2,0-4.5,0-7.5c0-0.3,0-0.6-0.1-1
		C122.1,217.9,119,219.3,115.7,220.5z"/>
	<path class="st0" d="M44.6,188.4l-1.7-5.1c-3.5,0.4-5.3,2-7.4,4.2c-0.1,0.1-0.1,0.5,0,0.7c0.6,2.1,1.2,4.4,2.1,7.2
		c0.1,0.3,0.2,0.6,0.3,0.9C39.2,192.8,41.8,190.5,44.6,188.4z"/>
	<path class="st0" d="M96.1,135.4c4.2,0,7.6-3.4,7.7-7.6v0c0-2-0.7-4-2.2-5.5c-1.4-1.5-3.3-2.3-5.4-2.3c0,0-0.1,0-0.1,0
		c-4.2,0-7.6,3.4-7.7,7.6c-0.1,4.2,3.3,7.7,7.6,7.8C96,135.4,96.1,135.4,96.1,135.4z M93.3,127.7c0-1.6,1.3-2.8,2.9-2.8
		c1.6,0,2.8,1.3,2.8,2.9c0,1.6-1.3,2.8-2.9,2.8C94.5,130.6,93.3,129.3,93.3,127.7z"/>
	<path class="st0" d="M40.9,173.6c-3.4,0.6-5.9,1.6-7.9,3.5c0.1,0.4,0.1,0.7,0.2,1.1c0.2,1.1,0.4,2.1,0.6,3.1
		c0.1,0.5,0.2,0.9,0.3,1.4c0.1,0.7,0.2,1.4,0.4,2c2-2.1,4.6-3.4,7.7-4.1L40.9,173.6z"/>
	<path class="st0" d="M57.2,193.7l-1.7,2c0.9,2.4,2.4,4.5,4.7,6.2c0.4,0.3,0.9,0.5,1.3,0.6c0.2,0,0.5,0,0.5-0.1
		c0.5-0.5,0.9-1.1,1.3-1.7c0-2,0-4.1,0.1-6.1c0-0.1,0-0.2,0-0.3l-0.6-0.1L57.2,193.7z"/>
	<path class="st0" d="M53.1,197.1l-2.7,0c-1.1,3.2-1.2,6.6-0.4,10c0.1,0.4,0.3,0.6,0.8,0.6c2.1-0.1,4.4-0.3,6.5-1.3
		c0.8-0.4,1.5-0.9,2.3-1.4c0.1,0,0.1-0.1,0.2-0.1C56.7,202.8,55.6,201.7,53.1,197.1z"/>
	<path class="st0" d="M54.7,40.1c-0.8-0.1-1.5,0.1-1.9,0.8c-1,1.6-0.2,5.2,2.9,8.8c0-1.5-0.1-2.9-0.2-4.4
		C55.2,43.9,54.9,42.2,54.7,40.1z"/>
	<path class="st0" d="M40.2,168.2c-1.3,0.1-2.4,0.5-3.6,1l-0.1,0c-1.1,0.4-2.2,0.6-3.3,0.8c-0.3,0.1-0.6,0.1-0.9,0.2
		c0,1.1,0.1,2.2,0.3,3.5c0,0.1,0,0.3,0.1,0.4c2.5-1.8,5.2-2.5,7.9-3.1L40.2,168.2z"/>
	<path class="st0" d="M107.6,40.8c-0.5-0.8-1.5-0.9-2.4-0.7c0,1.9-0.1,3.8-0.1,5.7c0,1.1-0.1,2.3-0.1,3.4
		C107.8,45.9,108.6,42.3,107.6,40.8z"/>
	<path class="st0" d="M85.1,80.4c-1.1,0.6-3.1,0.9-5.2,0.9c-2,0-4.1-0.3-5.2-0.9c-5.7-3-9.7-5.7-12.5-8.4l-0.9,11.1
		c0.5,1.3,4.3,10.1,18.1,10.1c16.7,0,20-9.9,20.3-11l-1.2-11C95.4,74.1,91.1,77.1,85.1,80.4z"/>
	<path class="st0" d="M73.8,174.4c3.7,0.3,7-1.8,7.9-4.9L67,167.8C67.3,171.2,70.3,174.2,73.8,174.4z"/>
	<path class="st0" d="M31.1,163.7c-1,1-0.2,1.9-0.1,2.7c0.1,0.8,0.3,1.6,0.5,2.4c0.4-0.1,0.8-0.2,1.2-0.2
		C32.1,166.9,32.2,165.2,31.1,163.7z"/>
	<path class="st0" d="M37.7,167.3c0.4-0.1,0.9-0.2,1.3-0.3c-0.2-0.7-0.3-1.4-0.5-2c-0.3-0.7,0.1-1.8-1.2-2.2c0,0.4-0.2,0.8-0.1,1.1
		c0.1,0.9,0.4,1.8,0.5,2.6C37.7,166.7,37.7,167,37.7,167.3z"/>
	<path class="st0" d="M75.4,79.1c1.9,1,7.2,1,9,0c17.8-9.8,19.1-16.2,19.1-24.8c0-2.8,0.1-5.7,0.1-8.5c0.3-14.2,0.7-27.6-8.6-29.6
		c-2.5-0.5-5.5,0.2-8.4,0.9c-2.2,0.5-4.4,1.1-6.3,1.1c-1.9,0-4.2-0.5-6.6-1c-2.5-0.5-5-1.1-7.2-1.1c-0.7,0-1.3,0.1-1.9,0.2
		c-8.8,1.9-8.3,13.9-7.7,27.7c0.1,3.4,0.3,7,0.3,10.5C57.2,63.7,58.1,70,75.4,79.1z M95.5,44c-0.1,0.2-0.4,0.3-0.6,0.3
		c-0.2,0-0.3,0-0.4-0.1c-0.6-0.5-1.3-0.7-2-0.9c0.4,0.4,0.6,0.9,0.6,1.4c0,1.1-0.9,2-2,2s-2-0.9-2-2c0-0.6,0.3-1.2,0.7-1.5
		c-1.2,0.1-2.1,0.5-2.5,0.9c-0.3,0.3-0.8,0.3-1.1,0c-0.3-0.3-0.3-0.8,0-1.1c1.3-1.4,6-2.3,9.1,0C95.7,43.2,95.8,43.6,95.5,44z
		 M85.7,35.7c1.3-0.8,2.7-0.9,3.6-0.9c4.1,0,8.5,1.6,8.7,1.7c0.4,0.1,0.6,0.6,0.4,1c-0.1,0.3-0.4,0.5-0.7,0.5c-0.1,0-0.2,0-0.3,0
		c0,0-4.3-1.6-8.1-1.6c-0.8,0-1.8,0.1-2.8,0.7c-0.3,0.2-0.8,0.1-1-0.2C85.3,36.4,85.4,35.9,85.7,35.7z M72.9,44
		c-0.1,0.2-0.4,0.3-0.6,0.3c-0.2,0-0.3,0-0.4-0.1c-0.6-0.5-1.3-0.7-2-0.9c0.4,0.4,0.6,0.9,0.6,1.4c0,1.1-0.9,2-2,2c-1.1,0-2-0.9-2-2
		c0-0.6,0.3-1.2,0.7-1.5C66,43.2,65,43.6,64.7,44c-0.3,0.3-0.8,0.3-1.1,0c-0.3-0.3-0.3-0.8,0-1.1c1.3-1.4,6-2.3,9.1,0
		C73,43.2,73.1,43.6,72.9,44z M80.5,70h-2.7c-0.4,0-0.8-0.3-0.8-0.8s0.3-0.8,0.8-0.8h2.7c0.4,0,0.8,0.3,0.8,0.8S80.9,70,80.5,70z
		 M83.6,64.6c0.3,0.3,0.3,0.7,0.1,1c-0.1,0.1-1.2,1.3-4.5,1.3c-3.3,0-4.3-1.1-4.5-1.3c-0.3-0.3-0.2-0.8,0.1-1.1
		c0.3-0.2,0.8-0.2,1,0.1c0,0,0.8,0.8,3.3,0.8c2.5,0,3.3-0.8,3.3-0.8C82.8,64.3,83.3,64.3,83.6,64.6z M61.3,37.5
		c-0.1-0.4,0-0.8,0.4-1c0.2-0.1,4.6-1.7,8.7-1.7c1.4,0,3.4,0.2,5,2.1c2.6,3.2,3.1,9.8,1.5,19.8h5.2c0.4,0,0.8,0.3,0.8,0.8
		s-0.3,0.8-0.8,0.8h-6.1c-0.2,0-0.4-0.1-0.6-0.3c-0.1-0.2-0.2-0.4-0.2-0.6c2.2-12.5,0.7-17.4-1-19.4c-1.2-1.4-2.7-1.6-3.8-1.6
		c-3.8,0-8.1,1.6-8.1,1.6C61.9,38,61.4,37.8,61.3,37.5z"/>
	<path class="st0" d="M64.8,203.1l0,2c0,2.9,1.4,4.8,4.1,5.6c1.4,0.5,2.7,0.8,4,0.9c7.2,1,14.5,1.9,21.3,2.8c1,0.1,2,0.2,3.3,0.2
		c0,0,0,0,0.1,0c3.6,0,5.7-1.7,6.5-5.1c0.3-1.4,0.7-2.9,1.1-4.2c0.5-1.9,1-3.8,1.4-5.7l-41.5-5C64.7,197.5,64.7,200.3,64.8,203.1z
		 M82.7,201.6c0.2-1.2,1.4-2,2.7-1.8c1.2,0.2,1.9,1.2,1.7,2.4c-0.2,1.2-1.2,2-2.4,1.8C83.3,203.8,82.4,202.7,82.7,201.6z"/>
	<path class="st0" d="M176.2,79.9c-3.6-11.1-12.7-9.5-19.9-20.5c-10.3,3.5-15,10.9-16.4,17c0,1.2,0.2,2.4,0.3,3.6
		c2.1,12.9,6.9,23,12.5,26.1c2.2,1.2,4.4,1.4,6.6,0.5c10.9-4.3,16.3-7.4,18.3-17.1C182.9,83.7,179.7,75,176.2,79.9z M151.8,81.3
		c-0.1,0.2-0.4,0.3-0.6,0.3c-0.2,0-0.3,0-0.4-0.1c-0.3-0.3-0.7-0.4-1.1-0.5c0.1,0.2,0.2,0.5,0.2,0.7c0,0.8-0.6,1.4-1.4,1.4
		c-0.8,0-1.4-0.6-1.4-1.4c0-0.3,0.1-0.6,0.3-0.9c-0.7,0.1-1.2,0.3-1.4,0.5c-0.3,0.3-0.8,0.3-1.1,0c-0.3-0.3-0.3-0.8,0-1.1
		c1-1.1,4.5-1.8,6.9,0C152,80.5,152.1,81,151.8,81.3z M149.9,75.8c-2.7,0-5.8,1.2-5.8,1.2c-0.4,0.1-0.8,0-1-0.4
		c-0.1-0.4,0-0.8,0.4-1c0.1-0.1,3.4-1.3,6.4-1.3c1,0,2.6,0.2,3.8,1.6c1.9,2.3,2.3,7.1,1.1,14.3h3.6c0.4,0,0.8,0.3,0.8,0.8
		s-0.3,0.8-0.8,0.8h-4.4c-0.2,0-0.4-0.1-0.6-0.3s-0.2-0.4-0.2-0.6c1.6-9,0.5-12.5-0.7-13.9C151.7,76,150.7,75.8,149.9,75.8z
		 M157.2,100.4h-1.9c-0.4,0-0.8-0.3-0.8-0.8s0.3-0.8,0.8-0.8h1.9c0.4,0,0.8,0.3,0.8,0.8S157.6,100.4,157.2,100.4z M159.6,97.1
		c-0.1,0.2-1,1-3.4,1c-2.5,0-3.3-0.9-3.4-1.1c-0.3-0.3-0.2-0.8,0.1-1.1c0.3-0.2,0.8-0.2,1,0.1c0,0,0.6,0.5,2.2,0.5
		c1.7,0,2.3-0.5,2.3-0.5c0.3-0.3,0.8-0.3,1,0C159.9,96.3,159.9,96.8,159.6,97.1z M168.3,81.3c-0.1,0.2-0.4,0.3-0.6,0.3
		c-0.2,0-0.3,0-0.4-0.1c-0.3-0.3-0.7-0.4-1.1-0.5c0.1,0.2,0.2,0.5,0.2,0.7c0,0.8-0.6,1.4-1.4,1.4s-1.4-0.6-1.4-1.4
		c0-0.3,0.1-0.6,0.3-0.9c-0.7,0.1-1.2,0.3-1.4,0.5c-0.3,0.3-0.8,0.3-1.1,0c-0.3-0.3-0.3-0.8,0-1.1c1-1.1,4.5-1.8,6.9,0
		C168.5,80.5,168.5,81,168.3,81.3z M170.4,76.6c-0.1,0.3-0.4,0.5-0.7,0.5c-0.1,0-0.2,0-0.3,0c0,0-3.1-1.2-5.8-1.2
		c-0.6,0-1.3,0.1-1.9,0.5c-0.3,0.2-0.8,0.1-1-0.2c-0.2-0.3-0.1-0.8,0.2-1c1-0.6,2.1-0.7,2.8-0.7c3,0,6.2,1.2,6.4,1.3
		C170.4,75.7,170.6,76.2,170.4,76.6z"/>
	<path class="st0" d="M107,178.8c3,0.2,6.1-1.9,7-4.5c-3.5-0.5-7-0.9-10.4-1.3c-1.3-0.1-2.7-0.3-4-0.4
		C100.1,176.2,102.9,178.5,107,178.8z"/>
	<path class="st0" d="M112.8,163c-2.4-1.9-5.2-2.3-8.2-1.1c-2.3,1-3.7,2.7-4.3,5.5l15.2,2C115.7,166.8,114.8,164.6,112.8,163z"/>
	<path class="st0" d="M66.7,152.8c-6.8,5.8-10.7,13.7-10.9,22.3c-0.1,3.5,0.4,6.9,1.6,10.3l63.1,8.2c3.5-4.9,5.4-10.5,5.6-16.4
		c0.3-8.5-3.2-16.6-9.6-22.9c-6.5-6.2-15.2-9.8-24.6-10.1C82.4,143.9,73.5,147,66.7,152.8z M74.5,175.9c-0.3,0-0.5,0-0.8,0
		c-4.7-0.3-8.5-4.5-8.2-9c0-0.2,0.1-0.4,0.3-0.5c0.2-0.1,0.4-0.2,0.6-0.2l16.4,1.9c0.2,0,0.4,0.1,0.5,0.3c0.1,0.2,0.2,0.4,0.1,0.6
		C82.7,173.1,79,175.9,74.5,175.9z M84.4,165.7c-0.1,0.3-0.4,0.6-0.7,0.6c0,0-0.1,0-0.1,0l-16.5-2.2c-0.4-0.1-0.7-0.4-0.6-0.8
		c0.2-2.4,1.4-4.6,3.4-6c2.1-1.5,4.7-2.1,7.3-1.6c2.4,0.5,4.6,2,6,4.1C84.4,161.6,84.8,163.7,84.4,165.7z M104.1,160.6
		c3.5-1.4,6.9-1,9.7,1.3c2.5,2.1,3.6,5,3.2,8.5c0,0.2-0.1,0.4-0.3,0.5c-0.1,0.1-0.3,0.2-0.5,0.2c0,0-0.1,0-0.1,0l-16.7-2.2
		c-0.2,0-0.4-0.1-0.5-0.3s-0.2-0.4-0.1-0.6C99.4,164.2,101.2,161.8,104.1,160.6z M98.2,171.1c0.2-0.2,0.4-0.2,0.6-0.2
		c1.7,0.2,3.3,0.4,5,0.5c3.7,0.4,7.5,0.8,11.3,1.4c0.2,0,0.4,0.1,0.5,0.3s0.2,0.4,0.1,0.6c-0.6,3.6-4.5,6.5-8.3,6.5
		c-0.2,0-0.3,0-0.5,0c-5.2-0.3-8.7-3.7-8.9-8.6C98,171.5,98.1,171.3,98.2,171.1z"/>
	<path class="st0" d="M76.9,157.1c-2.1-0.4-4.4,0.1-6.1,1.4c-1.4,1.1-2.4,2.6-2.7,4.3l15,2c0.1-1.4-0.3-2.9-1.1-4.2
		C80.7,158.8,78.9,157.5,76.9,157.1z"/>
	<path class="st1" d="M59.9,81.8l-0.1,1.4c0,0.1,0,0.2,0,0.3c0,0.1,3.9,11.3,19.5,11.3c18.8,0,21.8-12.2,21.8-12.3
		c0-0.1,0-0.2,0-0.2l-0.1-1c7.1,0.4,14.4,1.1,21.9,2.1c2.4,0.2,7.1,1.2,12.6,4.9c0.3,0.2,0.8,0.1,1-0.2c0.2-0.3,0.1-0.8-0.2-1
		c-4.2-2.9-9-4.7-13.3-5.1c-7.7-1-15.1-1.6-22.2-2.1l-1-9.2c0-0.2-0.1-0.3-0.2-0.4c4.4-4.8,5.4-9.5,5.4-15.7c0-0.9,0-1.9,0-2.8
		c0.1,0,0.1-0.1,0.2-0.1c3.7-3.9,5.3-8.8,3.7-11.3c-0.4-0.6-1.4-1.7-3.6-1.4c0-0.4,0-0.8,0-1.2c0.3-4.6,0.4-10.3,0.2-16.5
		C105,5.9,96.7,5.9,96.7,5.9s0,0,4.5-3.4C68.7-5,54.8,5.4,54,21.2c-0.4,6.8,0,12.8,0.5,17.3c-1.8,0-2.6,0.9-3,1.5
		c-1.6,2.5,0,7.4,3.7,11.3c0.1,0.1,0.3,0.2,0.5,0.2c0,0.9,0,1.8,0,2.7c0,6.3,0.5,11.4,5.3,16.5c-0.2,0.1-0.3,0.3-0.3,0.5L60,80.3
		c-9.2,1-17.5,2.5-24.9,4.7C11,92.8,7.9,109.7,5.9,120.8c-0.2,0.9-0.3,1.7-0.5,2.6L0,159.8c-0.1,0.4,0.2,0.8,0.6,0.9
		c0,0,0.1,0,0.1,0c0.4,0,0.7-0.3,0.7-0.6l5.4-36.3c0.2-0.8,0.3-1.7,0.5-2.6c1.9-10.8,4.9-27.1,28.1-34.7
		C42.8,84.3,50.9,82.7,59.9,81.8z M105.1,45.8c0-1.9,0.1-3.8,0.1-5.7c0.9-0.2,1.9-0.1,2.4,0.7c1,1.5,0.2,5-2.6,8.4
		C105.1,48.1,105.1,47,105.1,45.8z M52.8,40.8c0.4-0.7,1.2-0.8,1.9-0.8c0.3,2.1,0.6,3.8,0.8,5.2c0.1,1.5,0.1,2.9,0.2,4.4
		C52.6,46.1,51.8,42.4,52.8,40.8z M99.6,82.2c-0.3,1.2-3.6,11-20.3,11c-13.7,0-17.6-8.8-18.1-10.1L62.2,72c2.8,2.7,6.8,5.4,12.5,8.4
		c1.2,0.6,3.2,0.9,5.2,0.9c2,0,4.1-0.3,5.2-0.9c6-3.3,10.3-6.3,13.3-9.1L99.6,82.2z M57.2,54.3c0-3.5-0.1-7-0.3-10.5
		c-0.6-13.8-1.1-25.7,7.7-27.7c0.6-0.1,1.2-0.2,1.9-0.2c2.2,0,4.7,0.6,7.2,1.1c2.4,0.5,4.7,1,6.6,1c1.9,0,4.1-0.5,6.3-1.1
		c2.9-0.7,5.9-1.4,8.4-0.9c9.2,2,8.9,15.4,8.6,29.6c-0.1,2.8-0.1,5.7-0.1,8.5c0,8.6-1.3,15-19.1,24.8c-1.8,1-7.1,1-9,0
		C58.1,70,57.2,63.7,57.2,54.3z"/>
	<path class="st1" d="M63.6,42.9c-0.3,0.3-0.3,0.8,0,1.1c0.3,0.3,0.8,0.3,1.1,0c0.3-0.3,1.3-0.7,2.5-0.9c-0.4,0.4-0.7,0.9-0.7,1.5
		c0,1.1,0.9,2,2,2c1.1,0,2-0.9,2-2c0-0.5-0.2-1-0.6-1.4c0.7,0.2,1.4,0.5,2,0.9c0.1,0.1,0.3,0.1,0.4,0.1c0.2,0,0.5-0.1,0.6-0.3
		c0.2-0.3,0.2-0.8-0.2-1C69.6,40.6,64.9,41.6,63.6,42.9z"/>
	<path class="st1" d="M86.3,42.9c-0.3,0.3-0.3,0.8,0,1.1c0.3,0.3,0.8,0.3,1.1,0c0.3-0.3,1.3-0.7,2.5-0.9c-0.4,0.4-0.7,0.9-0.7,1.5
		c0,1.1,0.9,2,2,2s2-0.9,2-2c0-0.5-0.2-1-0.6-1.4c0.7,0.2,1.4,0.5,2,0.9c0.1,0.1,0.3,0.1,0.4,0.1c0.2,0,0.5-0.1,0.6-0.3
		c0.2-0.3,0.2-0.8-0.2-1C92.2,40.6,87.5,41.6,86.3,42.9z"/>
	<path class="st1" d="M79.2,65.4c-2.5,0-3.3-0.7-3.3-0.8c-0.3-0.3-0.7-0.4-1-0.1c-0.3,0.3-0.4,0.7-0.1,1.1c0.2,0.2,1.2,1.3,4.5,1.3
		c3.3,0,4.3-1.2,4.5-1.3c0.3-0.3,0.2-0.8-0.1-1c-0.3-0.3-0.8-0.2-1.1,0.1C82.5,64.6,81.7,65.4,79.2,65.4z"/>
	<path class="st1" d="M74.2,37.9c1.7,2,3.2,7,1,19.4c0,0.2,0,0.4,0.2,0.6c0.1,0.2,0.4,0.3,0.6,0.3h6.1c0.4,0,0.8-0.3,0.8-0.8
		s-0.3-0.8-0.8-0.8h-5.2c1.7-10,1.2-16.6-1.5-19.8c-1.6-1.9-3.6-2.1-5-2.1c-4.1,0-8.5,1.6-8.7,1.7c-0.4,0.1-0.6,0.6-0.4,1
		c0.1,0.4,0.6,0.6,1,0.4c0,0,4.3-1.6,8.1-1.6C71.5,36.3,73,36.5,74.2,37.9z"/>
	<path class="st1" d="M86.5,37c1-0.6,2-0.7,2.8-0.7c3.8,0,8.1,1.6,8.1,1.6c0.1,0,0.2,0,0.3,0c0.3,0,0.6-0.2,0.7-0.5
		c0.1-0.4,0-0.8-0.4-1c-0.2-0.1-4.6-1.7-8.7-1.7c-0.9,0-2.3,0.1-3.6,0.9c-0.3,0.2-0.4,0.7-0.2,1C85.7,37.1,86.2,37.2,86.5,37z"/>
	<path class="st1" d="M80.5,68.5h-2.7c-0.4,0-0.8,0.3-0.8,0.8s0.3,0.8,0.8,0.8h2.7c0.4,0,0.8-0.3,0.8-0.8S80.9,68.5,80.5,68.5z"/>
	<path class="st1" d="M212.8,149.2c-4-20.3-15.6-23.5-29.2-25.5c-4.4-0.6-9.3-5.5-9.8-9.7c-0.4-4-0.2-9.1,0-13.2
		c2.6-2.5,4.3-5.5,5.4-9.5c5.3-5.6,8.6-15.9,5-30.4c5.6-4.3,7.2-13-2.7-18.7c-7-4-10.3-0.8-11.8,2.8c-4.3-1.2-9-0.9-13.6,1.5
		c-10.1-1.3-17.1,7.2-18.1,24.3c-0.5,3.1-0.4,6.2,0.1,9.4c1.9,11.5,5.7,20.6,10.6,25.3c0.1,3.2,0.2,7,0.2,8.6c0.1,6.3-8.1,9-13,10.1
		c-1.9,0.4-3.5,0.7-5,0.9c-1.3,0.2-2.4,0.4-3.3,0.6c-16.4,4.3-18.5,13.6-19.9,19.8c-0.1,0.3-0.1,0.6-0.2,0.8
		c-2.8-1.3-5.7-2.3-8.8-2.9l0.6-7.2c3.4-1.3,5.8-4.6,5.9-8.4c0-2.5-0.9-4.8-2.6-6.5c-1.7-1.8-4-2.8-6.4-2.8c0,0-0.1,0-0.2,0
		c-5,0-9.1,4-9.2,9c-0.1,3.4,1.7,6.4,4.4,8l-0.6,7.1c-9.4,0-18.3,3.1-25.1,9c-7.1,6.1-11.2,14.4-11.4,23.3
		c-0.1,3.4,0.4,6.8,1.4,10.1l-2.6-0.3l3,8l-2,2.3c-0.1,0.2-0.2,0.4-0.1,0.6c-0.1-0.1-0.3-0.1-0.4-0.1c0,0,0,0,0,0l-3.7,0
		c-0.1,0-0.1,0-0.2,0c0.1-0.2,0-0.4-0.1-0.6l-3.2-5.5c-0.1-0.1-0.2-0.2-0.4-0.3c0.2-0.2,0.3-0.5,0.2-0.8l-2-6.2
		c-0.1-0.3-0.3-0.5-0.6-0.5c0.1-0.1,0.1-0.1,0.2-0.2c0.1-0.2,0.2-0.4,0.1-0.6l-1.7-8.4c-0.1-0.3-0.2-0.5-0.5-0.5
		c0.2-0.2,0.3-0.4,0.3-0.7l-0.4-4.1c0-0.1-0.1-0.3-0.2-0.4c0.1,0,0.2-0.1,0.3-0.1c1.6-0.5,2.4-1.5,2.2-3.2c-0.2-1.6-0.6-3.2-1.2-4.7
		c-0.9-2.3-2.3-3-4.7-2.5c-0.1,0-0.1,0-0.2,0l2.6-20.8c0.1-0.4-0.2-0.8-0.7-0.8c-0.4-0.1-0.8,0.2-0.8,0.7L36.3,157
		c-2,0.5-3.9,1-5.9,1.6c-1.2,0.4-2.3,1-3.4,1.6c-1.1,0.6-1.6,1.7-1.4,2.9c0.2,1.4,0.5,2.7,0.9,4c0.6,1.9,2.2,2.6,4.2,2.1
		c-0.1,0.1-0.1,0.2-0.1,0.3c-0.1,1.5,0.1,2.9,0.3,4.4c0.1,0.5,0.2,1.1,0.2,1.7c0,0.3,0.2,0.5,0.5,0.6c0,0,0.1,0,0.1,0
		c-0.1,0.1-0.1,0.1-0.2,0.2c-0.2,0.2-0.3,0.4-0.2,0.7c0.1,0.5,0.2,1,0.3,1.5c0.2,1.1,0.4,2.1,0.7,3.2c0.1,0.4,0.2,0.8,0.2,1.3
		c0.2,1.1,0.4,2.3,1.1,3.5c0.1,0.2,0.3,0.4,0.6,0.4c0,0,0,0,0,0c-0.3,0.5-0.3,1.3-0.2,1.8c0.6,2.1,1.3,4.4,2.1,7.2
		c0.2,0.6,0.4,1.2,0.7,1.7c0.1,0.2,0.2,0.5,0.3,0.7c0.1,0.3,0.3,0.4,0.6,0.5l0.4,0c0,0,0.1,0,0.1,0c0.1,0,0.1,0,0.2,0
		c0,0,0,0.1,0,0.1c-0.2,0.9-0.1,1.5,0.1,2c1.3,2.6,3,5.1,5.8,6.8c1,0.6,2.2,1.2,3.6,1.2c0,0,0.1,0,0.1,0c0.2,0,0.4-0.1,0.6-0.3
		c0.1-0.1,0.1-0.2,0.1-0.3c0.4,0.6,1.1,1,1.9,1c0,0,0.1,0,0.1,0c0.2,0,0.4,0,0.7,0c-0.7,3.1-2.7,13.1-3.3,17.6
		c-0.1,0.4,0.2,0.8,0.6,0.8c0,0,0.1,0,0.1,0c0.4,0,0.7-0.3,0.7-0.7c0.6-4.6,2.9-15.4,3.4-17.9c1.6-0.2,3.3-0.5,4.9-1.3
		c0.9-0.4,1.6-1,2.5-1.5c0.4-0.3,0.7-0.5,1.1-0.8c0.2-0.1,0.3-0.4,0.3-0.6c0-0.3-0.1-0.5-0.3-0.6c-0.1,0-0.1-0.1-0.2-0.1
		c0.1,0,0.2,0,0.3,0c0.5,0,1.1-0.2,1.5-0.6c0.1-0.1,0.1-0.1,0.2-0.2l0,1.8c0,3.5,1.8,6,5.1,7.1c1.5,0.5,2.9,0.8,4.3,1
		c7.2,1,14.5,1.9,21.3,2.8c1,0.1,2.2,0.2,3.5,0.2c0,0,0,0,0.1,0c4.2,0,7-2.2,7.9-6.3c0.3-1.4,0.7-2.8,1.1-4.2c0.5-1.9,1-3.9,1.4-5.9
		l9.3,1.1c0.1,0.2,0.2,0.3,0.4,0.4c0,0,0,0,0.1,0c1,0.3,1.8,1,2.5,1.8c2,2.1,2.7,4.8,3.2,7.4c0,0,0,0.3-0.3,1
		c-1.4,2.7-3.3,4.4-5.7,5.4c-0.6,0.2-1.2,0.5-1.8,0.7l-0.1,0l-1.3-5.4c-0.1-0.3-0.2-0.4-0.5-0.5c-0.1-0.1-0.3-0.1-0.4,0
		c-0.4,0.1-0.7,0.5-0.6,0.9l1.5,6.2c0,0.2,0.1,0.3,0.3,0.4c-0.3,0.1-0.4,0.4-0.4,0.7l0.2,6.5c0,0.3,0.2,0.6,0.5,0.7
		c-0.1,0-0.2,0.1-0.2,0.1c-0.2,0.1-0.3,0.3-0.3,0.5l-0.8,8.5c0,0.4,0.3,0.8,0.7,0.8c0,0,0,0,0.1,0c0.4,0,0.7-0.3,0.7-0.7l0-0.2
		l0.7-7.6c3.2,0.2,6-0.3,8.6-1.8c0,0.7-0.1,1.4-0.2,2.1c-0.1,0.5-0.1,0.9-0.1,1.4c-0.1,1-0.2,2.1-0.3,3.2c0,0.5-0.1,1-0.1,1.5
		c0,0.1,0,0.1,0,0.2c0,0.3,0.3,0.6,0.7,0.7c0.4,0,0.8-0.3,0.8-0.7c0-0.5,0.1-1,0.1-1.5c0.1-1.1,0.2-2.2,0.3-3.2
		c0-0.4,0.1-0.9,0.1-1.3c0.1-1.1,0.3-2.3,0-3.7c-0.1-0.2-0.2-0.4-0.5-0.5c0,0,0,0,0,0c0.4-0.4,0.6-1.1,0.7-1.7c0-2.2,0-4.6,0-7.5
		c0-0.6-0.1-1.2-0.2-1.8c0-0.3-0.1-0.5-0.1-0.8c0-0.3-0.2-0.5-0.5-0.6l-0.4-0.2c-0.1,0-0.2-0.1-0.3-0.1c0,0,0-0.1,0.1-0.1
		c0.4-0.8,0.6-1.4,0.5-2c-0.5-2.8-1.4-5.8-3.6-8.1c-0.3-0.3-0.6-0.6-1-0.9l3.9-7.2l-2.3-0.3c3.4-5,5.2-10.6,5.4-16.5
		c0.3-8.9-3.3-17.5-10.1-24c-2.5-2.4-5.3-4.5-8.4-6.1c0.1-0.4,0.2-0.8,0.3-1.2c1.3-5.8,3.3-14.6,18.8-18.7c0.9-0.2,2-0.4,3.2-0.6
		c1.5-0.3,3.1-0.5,5-1c9.3-2,14.3-6.1,14.2-11.5c0-1.4-0.1-4.4-0.2-7.2c0.4,0.3,0.9,0.6,1.4,0.9c1.6,0.9,3.2,1.3,4.8,1.3
		c1.2,0,2.3-0.2,3.5-0.7c5.2-2.1,9.2-4,12.2-6.3c-0.2,3.9-0.3,8.3,0.1,12c0.5,4.9,6,10.3,11.1,11.1c13.5,1.9,24.1,4.9,27.9,24.3
		c1.1,4.8,2.6,23.6,2.6,23.8c0,0.4,0.4,0.7,0.8,0.7c0.4,0,0.7-0.4,0.7-0.8C215.3,172.4,213.9,154.2,212.8,149.2z M37.2,162.7
		c1.3,0.4,1,1.5,1.2,2.2c0.2,0.6,0.4,1.3,0.5,2c-0.5,0.1-0.9,0.2-1.3,0.3c0-0.2,0-0.5-0.1-0.8c-0.1-0.9-0.4-1.8-0.5-2.6
		C37.1,163.5,37.2,163.1,37.2,162.7z M31.4,168.8c-0.2-0.8-0.4-1.6-0.5-2.4c-0.1-0.8-0.9-1.6,0.1-2.7c1.1,1.5,1,3.2,1.6,4.8
		C32.3,168.6,31.8,168.7,31.4,168.8z M32.6,174c0-0.1,0-0.3-0.1-0.4c-0.2-1.3-0.4-2.4-0.3-3.5c0.3-0.1,0.6-0.1,0.9-0.2
		c1.1-0.2,2.3-0.4,3.3-0.8l0.1,0c1.2-0.4,2.3-0.8,3.6-1l0.3,2.7C37.8,171.5,35.1,172.3,32.6,174z M34.1,182.7
		c-0.1-0.5-0.2-0.9-0.3-1.4c-0.2-1-0.4-2-0.6-3.1c-0.1-0.3-0.1-0.7-0.2-1.1c2-1.8,4.5-2.9,7.9-3.5l1.4,6.9c-3.1,0.7-5.7,2.1-7.7,4.1
		C34.3,184,34.2,183.4,34.1,182.7z M38,196.2c-0.1-0.3-0.2-0.6-0.3-0.9c-0.9-2.8-1.6-5.1-2.1-7.2c-0.1-0.3,0-0.6,0-0.7
		c2.1-2.2,3.9-3.8,7.4-4.2l1.7,5.1C41.8,190.5,39.2,192.8,38,196.2z M47.2,207.2c-0.7-0.2-1.4-0.5-2.1-0.9c-2.5-1.4-4-3.8-5.2-6.2
		c0-0.1-0.1-0.3,0-1.1c0.6-3,1.9-5.2,4-6.8c0.5-0.4,1-0.8,1.5-1.2l0.1,0l2.6,4.5C47,198.6,46.3,201.2,47.2,207.2z M124.3,215.9
		c0,2.9,0,5.3,0,7.5c0,0.3-0.2,0.6-0.2,0.7c-2.6,1.5-4.8,2.6-8.3,1.9l-0.1-5.4c3.3-1.2,6.5-2.6,8.6-5.6
		C124.3,215.2,124.3,215.5,124.3,215.9z M88.4,127.6c0.1-4.2,3.5-7.6,7.7-7.6c0,0,0.1,0,0.1,0c2.1,0,4,0.9,5.4,2.3
		c1.4,1.5,2.2,3.4,2.2,5.5v0c-0.1,4.2-3.5,7.6-7.7,7.6c0,0-0.1,0-0.1,0C91.8,135.4,88.4,131.9,88.4,127.6z M59.5,205
		c-0.8,0.5-1.5,1-2.3,1.4c-2.1,1-4.3,1.2-6.5,1.3c-0.6,0-0.7-0.2-0.8-0.6c-0.9-3.5-0.8-6.9,0.4-10l2.7,0c2.5,4.6,3.6,5.7,6.7,7.7
		C59.7,204.9,59.6,204.9,59.5,205z M63.4,194.7c-0.1,2-0.1,4.1-0.1,6.1c-0.4,0.6-0.8,1.2-1.3,1.7c-0.1,0.1-0.4,0.1-0.5,0.1
		c-0.4-0.1-0.9-0.3-1.3-0.6c-2.2-1.7-3.8-3.8-4.7-6.2l1.7-2l5.6,0.7l0.6,0.1C63.4,194.6,63.4,194.6,63.4,194.7z M105,205.4
		c-0.4,1.4-0.7,2.8-1.1,4.2c-0.8,3.4-2.9,5.1-6.5,5.1c0,0,0,0-0.1,0c-1.2,0-2.3-0.1-3.3-0.2c-6.8-0.9-14.1-1.8-21.3-2.8
		c-1.3-0.2-2.6-0.5-4-0.9c-2.7-0.9-4.1-2.8-4.1-5.6l0-2c0-2.8,0-5.6,0.1-8.4l41.5,5C106,201.6,105.5,203.5,105,205.4z M116.4,154.3
		c6.4,6.2,9.8,14.3,9.6,22.9c-0.2,5.9-2.1,11.5-5.6,16.4l-63.1-8.2c-1.1-3.3-1.7-6.8-1.6-10.3c0.3-8.5,4.1-16.4,10.9-22.3
		c6.8-5.8,15.8-8.9,25.1-8.6C101.2,144.5,109.9,148.1,116.4,154.3z M159.3,106.6c-2.2,0.9-4.4,0.7-6.6-0.5
		c-5.6-3.2-10.4-13.2-12.5-26.1c-0.2-1.2-0.3-2.4-0.3-3.6c1.4-6,6-13.4,16.4-17c7.2,11.1,16.3,9.4,19.9,20.5c3.6-5,6.8,3.8,1.4,9.6
		C175.6,99.2,170.2,102.3,159.3,106.6z"/>
	<path class="st1" d="M144.8,80.3c-0.3,0.3-0.3,0.8,0,1.1c0.3,0.3,0.8,0.3,1.1,0c0.2-0.2,0.7-0.4,1.4-0.5c-0.2,0.2-0.3,0.5-0.3,0.9
		c0,0.8,0.6,1.4,1.4,1.4c0.8,0,1.4-0.6,1.4-1.4c0-0.3-0.1-0.5-0.2-0.7c0.4,0.1,0.8,0.3,1.1,0.5c0.1,0.1,0.3,0.1,0.4,0.1
		c0.2,0,0.5-0.1,0.6-0.3c0.2-0.3,0.2-0.8-0.2-1C149.3,78.5,145.8,79.3,144.8,80.3z"/>
	<path class="st1" d="M161.2,80.3c-0.3,0.3-0.3,0.8,0,1.1c0.3,0.3,0.8,0.3,1.1,0c0.2-0.2,0.7-0.4,1.4-0.5c-0.2,0.2-0.3,0.5-0.3,0.9
		c0,0.8,0.6,1.4,1.4,1.4s1.4-0.6,1.4-1.4c0-0.3-0.1-0.5-0.2-0.7c0.4,0.1,0.8,0.3,1.1,0.5c0.1,0.1,0.3,0.1,0.4,0.1
		c0.2,0,0.5-0.1,0.6-0.3c0.2-0.3,0.2-0.8-0.2-1C165.7,78.5,162.2,79.3,161.2,80.3z"/>
	<path class="st1" d="M158.5,96.1c0,0-0.6,0.5-2.3,0.5c-1.7,0-2.2-0.5-2.2-0.5c-0.3-0.3-0.7-0.3-1-0.1c-0.3,0.3-0.4,0.7-0.1,1.1
		c0.1,0.2,0.9,1.1,3.4,1.1c2.4,0,3.2-0.9,3.4-1c0.3-0.3,0.2-0.7-0.1-1C159.3,95.8,158.8,95.8,158.5,96.1z"/>
	<path class="st1" d="M153.2,90.9c0,0.2,0,0.4,0.2,0.6s0.4,0.3,0.6,0.3h4.4c0.4,0,0.8-0.3,0.8-0.8s-0.3-0.8-0.8-0.8h-3.6
		c1.2-7.2,0.8-12-1.1-14.3c-1.2-1.5-2.7-1.6-3.8-1.6c-3,0-6.2,1.2-6.4,1.3c-0.4,0.1-0.6,0.6-0.4,1c0.1,0.4,0.6,0.6,1,0.4
		c0,0,3.1-1.2,5.8-1.2c0.8,0,1.8,0.1,2.6,1.1C153.7,78.4,154.7,81.9,153.2,90.9z"/>
	<path class="st1" d="M170,75.6c-0.1-0.1-3.4-1.3-6.4-1.3c-0.7,0-1.7,0.1-2.8,0.7c-0.3,0.2-0.5,0.7-0.2,1c0.2,0.3,0.7,0.5,1,0.2
		c0.7-0.4,1.4-0.5,1.9-0.5c2.7,0,5.8,1.2,5.8,1.2c0.1,0,0.2,0,0.3,0c0.3,0,0.6-0.2,0.7-0.5C170.6,76.2,170.4,75.7,170,75.6z"/>
	<path class="st1" d="M157.2,98.9h-1.9c-0.4,0-0.8,0.3-0.8,0.8s0.3,0.8,0.8,0.8h1.9c0.4,0,0.8-0.3,0.8-0.8S157.6,98.9,157.2,98.9z"
		/>
	<path class="st1" d="M185.2,130.2c-7.7,7.9-15.9,11.8-24.3,11.5c-12.9-0.3-22-10.4-22.1-10.5c-0.3-0.3-0.7-0.3-1.1-0.1
		s-0.3,0.7-0.1,1.1c0.4,0.4,9.6,10.7,23.1,11c0.2,0,0.5,0,0.7,0c8.6,0,16.9-4,24.7-12c0.3-0.3,0.3-0.8,0-1.1
		C185.9,129.9,185.5,130,185.2,130.2z"/>
	<path class="st1" d="M84.7,204c1.2,0.2,2.2-0.5,2.4-1.8c0.2-1.3-0.5-2.2-1.7-2.4c-1.3-0.2-2.5,0.6-2.7,1.8
		C82.4,202.7,83.3,203.8,84.7,204z"/>
	<path class="st1" d="M99.4,168.8l16.7,2.2c0,0,0.1,0,0.1,0c0.2,0,0.3-0.1,0.5-0.2c0.2-0.1,0.3-0.3,0.3-0.5c0.4-3.5-0.7-6.4-3.2-8.5
		c-2.8-2.3-6.2-2.7-9.7-1.3c-3,1.2-4.7,3.7-5.4,7.4c0,0.2,0,0.4,0.1,0.6S99.2,168.8,99.4,168.8z M104.7,161.9c3-1.2,5.8-0.9,8.2,1.1
		c1.9,1.6,2.8,3.8,2.7,6.4l-15.2-2C101,164.7,102.4,162.9,104.7,161.9z"/>
	<path class="st1" d="M106.9,180.3c0.2,0,0.3,0,0.5,0c3.9,0,7.7-3,8.3-6.5c0-0.2,0-0.4-0.1-0.6s-0.3-0.3-0.5-0.3
		c-3.8-0.6-7.6-1-11.3-1.4c-1.7-0.2-3.3-0.4-5-0.5c-0.2,0-0.4,0-0.6,0.2c-0.2,0.2-0.2,0.4-0.2,0.6C98.2,176.6,101.7,180,106.9,180.3
		z M103.6,173c3.4,0.4,7,0.7,10.4,1.3c-0.9,2.6-4,4.7-7,4.5c-4.1-0.3-6.9-2.6-7.4-6.2C100.9,172.7,102.3,172.8,103.6,173z"/>
	<path class="st1" d="M77.2,155.7c-2.6-0.5-5.2,0.1-7.3,1.6c-2,1.5-3.2,3.6-3.4,6c0,0.4,0.2,0.8,0.6,0.8l16.5,2.2c0,0,0.1,0,0.1,0
		c0.3,0,0.7-0.2,0.7-0.6c0.4-2,0-4.1-1.2-6C81.8,157.6,79.6,156.1,77.2,155.7z M83,164.7l-15-2c0.3-1.7,1.3-3.2,2.7-4.3
		c1.7-1.3,4-1.8,6.1-1.4c2,0.4,3.9,1.6,5,3.4C82.8,161.9,83.2,163.3,83,164.7z"/>
	<path class="st1" d="M82.7,168.1l-16.4-1.9c-0.2,0-0.4,0-0.6,0.2c-0.2,0.1-0.3,0.3-0.3,0.5c-0.3,4.5,3.5,8.7,8.2,9
		c0.3,0,0.5,0,0.8,0c4.5,0,8.2-2.9,8.9-7c0-0.2,0-0.4-0.1-0.6C83.1,168.2,82.9,168.1,82.7,168.1z M73.8,174.4
		c-3.6-0.3-6.6-3.3-6.8-6.6l14.7,1.7C80.8,172.6,77.6,174.7,73.8,174.4z"/>
	<line class="st2" x1="105.3" y1="127.9" x2="105.3" y2="127.9"/>
	<line class="st2" x1="105.3" y1="127.9" x2="105.3" y2="127.9"/>
	<path class="st1" d="M98.9,127.8c0-1.6-1.2-2.8-2.8-2.9c-1.6,0-2.8,1.2-2.9,2.8c0,1.6,1.2,2.8,2.8,2.9
		C97.6,130.6,98.9,129.4,98.9,127.8z"/>
	<path class="st1" d="M97.7,104.6l-0.6,9.2c0,0.4,0.3,0.8,0.7,0.8c0,0,0,0,0,0c0.4,0,0.7-0.3,0.7-0.7l0.6-9.2c0-0.4-0.3-0.8-0.7-0.8
		C98.1,103.9,97.8,104.2,97.7,104.6z"/>
	<path class="st1" d="M114.4,112.1l-8.1,6.3c-0.3,0.3-0.4,0.7-0.1,1.1c0.1,0.2,0.4,0.3,0.6,0.3c0.2,0,0.3-0.1,0.5-0.2l8.1-6.3
		c0.3-0.3,0.4-0.7,0.1-1.1C115.2,111.9,114.8,111.9,114.4,112.1z"/>
	<path class="st1" d="M81.6,109.2c-0.3,0.3-0.3,0.7-0.1,1.1l6.9,7.9c0.1,0.2,0.4,0.3,0.6,0.3c0.2,0,0.3-0.1,0.5-0.2
		c0.3-0.3,0.3-0.7,0.1-1.1l-6.9-7.9C82.4,109,81.9,108.9,81.6,109.2z"/>
</g>
</svg>
