<?xml version="1.0" encoding="utf-8"?>
<!-- Generator: Adobe Illustrator 22.1.0, SVG Export Plug-In . SVG Version: 6.00 Build 0)  -->
<svg version="1.1" id="Layer_1" xmlns="http://www.w3.org/2000/svg" xmlns:xlink="http://www.w3.org/1999/xlink" x="0px" y="0px"
	 width="48px" height="48px" viewBox="0 0 48 48" style="enable-background:new 0 0 48 48;" xml:space="preserve">
<style type="text/css">
	.st0{fill:#DD4B39;}
	.st1{fill:#FFFFFF;}
</style>
<g>
	<rect class="st0" width="48" height="48"/>
	<path class="st1" d="M28.4,43.6H23l-2.7-5.1h-3.6v5.1H12V25.3h8.2c4.9,0,7.6,2.4,7.6,6.4c0,2.8-1.1,4.8-3.3,5.9L28.4,43.6z
		 M16.7,29.1v5.6h3.5c1.9,0,3.1-1,3.1-2.8c0-1.8-1.1-2.8-3.1-2.8H16.7z M30.9,25.3h14.5v3.8h-9.7v3.4h8.7v3.8l-8.7,0v3.4h9.9v3.8
		H30.9V25.3z"/>
</g>
</svg>
