<?xml version="1.0" encoding="utf-8"?>
<!-- Generator: Adobe Illustrator 22.1.0, SVG Export Plug-In . SVG Version: 6.00 Build 0)  -->
<svg version="1.1" id="Layer_1" xmlns="http://www.w3.org/2000/svg" xmlns:xlink="http://www.w3.org/1999/xlink" x="0px" y="0px"
	 width="50px" height="55px" viewBox="0 0 50 55" style="enable-background:new 0 0 50 55;" xml:space="preserve">
<style type="text/css">
	.st0{fill:none;}
	.st1{fill:#C21325;}
	.st2{fill:#FFFFFF;}
</style>
<g>
	<path class="st0" d="M35.6,25.4c0.3-1.1,0.9-2.2,1.8-2.9l-4.1-8.2l-4,8.1c0.9,0.8,1.6,1.9,1.9,3.1C32.6,25.4,34.1,25.4,35.6,25.4z"
		/>
	<path class="st1" d="M46.2,35.5c0,0,0-0.1,0-0.1c0-0.1,0-0.1,0-0.2c0,0,0-0.1,0-0.1c0-0.1,0-0.1,0-0.2c0,0,0-0.1,0-0.1
		c0-0.1,0-0.1,0-0.2c0,0,0-0.1,0-0.1c0-0.1,0-0.1,0-0.2c0,0,0-0.1,0-0.1c0-0.1,0-0.1,0-0.2c0,0,0-0.1,0-0.1c0-0.1,0-0.1,0-0.2
		c0,0,0-0.1,0-0.1c0-0.1,0-0.1,0-0.2c0,0,0-0.1-0.1-0.1c0-0.1,0-0.1-0.1-0.2c0,0,0-0.1-0.1-0.1c0,0,0-0.1-0.1-0.1c0,0,0-0.1-0.1-0.1
		c0,0,0-0.1-0.1-0.1c0,0,0-0.1-0.1-0.1c-1,0.7-2.3,1.1-3.6,1.1c-3.2,0-5.9-2.4-6.3-5.5c-1.3,0-2.7,0-4.1,0c-0.4,3.1-3.1,5.5-6.3,5.5
		c-0.3,0-0.6,0-1-0.1c0,0,0,0,0,0.1c-0.1,0.1-0.1,0.2-0.2,0.3c-0.1,0.1-0.2,0.2-0.2,0.3c-0.1,0.1-0.1,0.2-0.2,0.3
		c-0.1,0.1-0.2,0.2-0.2,0.3C23,34.8,23,34.9,22.9,35c-0.1,0.1-0.2,0.2-0.3,0.3c-0.1,0.1-0.1,0.2-0.2,0.3c-0.1,0.1-0.2,0.2-0.3,0.3
		C22,36,22,36.1,21.9,36.2c-0.1,0.1-0.2,0.2-0.3,0.3c-0.1,0.1-0.1,0.2-0.2,0.2c-0.1,0.1-0.2,0.3-0.4,0.4c-0.1,0.1-0.1,0.1-0.2,0.2
		c-0.2,0.2-0.4,0.4-0.6,0.6c-0.1,0.1-0.2,0.2-0.3,0.3c-0.2,0.2-0.5,0.4-0.7,0.6c-0.2,0.2-0.5,0.4-0.7,0.6c-0.4,0.3-0.7,0.5-1.1,0.8
		c-1.1,0.7-2.2,1.4-3.4,1.9c-0.5,0.2-0.9,0.4-1.4,0.6l-0.5,0.2l0,0l0,0l-0.5-0.2c-3.5-1.8-5.2-5.6-4.1-9.1c-0.6-0.1-1.1-0.2-1.7-0.4
		c-0.2,0.4-0.4,0.7-0.5,1.1c-1.1,2.1-2.1,4.4-2.5,6.8c-0.4,2.6-0.6,7.4,3.1,9.9c1.7,1.2,3.5,1.7,5.4,1.7c3.5,0,7.2-1.9,11.3-3.9
		c3.1-1.5,6.3-3.1,9.7-4c1.3-0.3,2.5-0.5,3.8-0.7c2.3-0.3,4.5-0.6,6.4-1.7c0.6-0.4,1.2-0.8,1.7-1.3c0.1-0.1,0.3-0.3,0.4-0.4
		c0.1-0.1,0.1-0.1,0.2-0.2c0.8-1,1.3-2.1,1.5-3.3c0,0,0,0,0,0c0-0.1,0-0.2,0-0.3c0,0,0-0.1,0-0.1c0-0.1,0-0.1,0-0.2c0,0,0-0.1,0-0.1
		c0-0.1,0-0.1,0-0.2c0,0,0-0.1,0-0.1c0-0.1,0-0.1,0-0.2c0,0,0-0.1,0-0.1C46.2,35.6,46.2,35.5,46.2,35.5z"/>
	<path class="st2" d="M47.2,30.4c1,1.6,1.5,3.5,1.5,5.4C48.7,33.9,48.2,32,47.2,30.4C47.2,30.4,47.2,30.4,47.2,30.4z"/>
	<path class="st2" d="M10.1,33.5l-0.1,0.2c-1,2.3,0,5,2.2,6.4c0,0,0,0,0,0c-2.3-1.4-3.2-4.1-2.2-6.4L10.1,33.5
		c0-0.1,0.1-0.2,0.1-0.3c0,0,0,0,0,0C10.2,33.2,10.2,33.4,10.1,33.5z"/>
	<path class="st2" d="M33.7,46.9c0.9-0.2,1.8-0.3,2.7-0.4c1.4-0.2,2.8-0.4,4.1-0.8c-1.4,0.4-2.8,0.6-4.1,0.8
		C35.5,46.6,34.6,46.7,33.7,46.9z"/>
	<path class="st2" d="M11.1,55C11.1,55,11.1,55,11.1,55c4.2,0,8.5-2.1,12.6-4.2c3-1.5,6.1-3,9.2-3.8c-3.1,0.8-6.2,2.3-9.2,3.8
		C19.5,52.9,15.3,55,11.1,55z"/>
	<path class="st2" d="M44.6,40.4c0.8-1,1.3-2.1,1.5-3.3c0,0,0,0,0,0c0,0,0,0,0,0C45.9,38.3,45.3,39.4,44.6,40.4z"/>
	<path class="st2" d="M24,33.4C24,33.4,24,33.4,24,33.4C24,33.4,24,33.4,24,33.4C24,33.4,24,33.4,24,33.4z"/>
	<path class="st2" d="M2.7,40.9c0.4-2.4,1.5-4.6,2.5-6.8c0.2-0.4,0.4-0.7,0.5-1.1c0,0,0,0,0,0c-0.2,0.4-0.4,0.7-0.5,1.1
		C4.2,36.3,3.1,38.5,2.7,40.9c-0.4,2.6-0.6,7.4,3.1,9.9c1.7,1.2,3.5,1.7,5.4,1.7c-1.8,0-3.6-0.5-5.4-1.7C2.1,48.3,2.3,43.5,2.7,40.9
		z"/>
	<path class="st2" d="M35.4,27.9c0-0.3-0.1-0.6-0.1-0.8c0-0.6,0.1-1.1,0.2-1.7c-1.4-0.1-3-0.1-4.4,0c0.1,0.5,0.2,1.1,0.2,1.7
		c0,0.3,0,0.6-0.1,0.8C32.6,27.9,34.1,27.9,35.4,27.9z"/>
	<path class="st2" d="M19.2,38.9c0.2-0.2,0.5-0.4,0.7-0.6C19.7,38.5,19.4,38.7,19.2,38.9z"/>
	<path class="st2" d="M18.5,39.4c0.2-0.2,0.5-0.4,0.7-0.6C19,39.1,18.7,39.2,18.5,39.4z"/>
	<path class="st2" d="M12.6,42.7c0.5-0.2,0.9-0.4,1.4-0.6C13.5,42.3,13.1,42.5,12.6,42.7l-0.5,0.2l0,0L12.6,42.7z"/>
	<path class="st2" d="M45.4,32.3C45.4,32.3,45.4,32.3,45.4,32.3c0,0,0,0.1,0.1,0.1C45.4,32.4,45.4,32.3,45.4,32.3z"/>
	<path class="st1" d="M27.1,21.1l6.2-12.5l6.2,12.6c0.3-0.1,0.5-0.2,0.8-0.2l6.3-18.4H20l6.2,18.3C26.5,20.9,26.8,21,27.1,21.1z"/>
	<path class="st1" d="M25,30.9c2.1,0,3.9-1.7,3.9-3.9c0-2.1-1.7-3.9-3.9-3.9s-3.9,1.7-3.9,3.9C21.1,29.2,22.8,30.9,25,30.9z"/>
	<path class="st1" d="M37.8,27.1c0,2.1,1.7,3.9,3.9,3.9c2.1,0,3.9-1.7,3.9-3.9c0-2.1-1.7-3.9-3.9-3.9C39.6,23.2,37.8,24.9,37.8,27.1
		z"/>
	<path class="st2" d="M47.2,30.4c0.6-1,0.9-2.1,0.9-3.3c0-3.1-2.2-5.7-5.2-6.3L50,0H16.5l7.1,20.9c-2.9,0.6-5,3.2-5,6.2
		c0,2.3,1.2,4.3,3,5.4c-0.9,1.3-1.9,2.5-3.1,3.6c-0.1,0.1-0.2,0.2-0.4,0.3c-1.8,1.6-3.8,2.8-5.9,3.7c0,0,0,0,0,0
		c-2.3-1.4-3.2-4.1-2.2-6.4l0.1-0.2c0-0.1,0.1-0.2,0.1-0.3c0,0,0,0,0,0c2.5-0.9,4.3-3.2,4.3-6c0-3.5-2.9-6.4-6.4-6.4
		s-6.4,2.9-6.4,6.4c0,1.8,0.7,3.4,1.9,4.5C3.5,32.1,3.3,32.6,3,33c-1.1,2.2-2.3,4.7-2.8,7.5c-0.9,5.5,0.6,9.9,4.2,12.4
		c2.2,1.5,4.4,2.1,6.6,2.1c0,0,0,0,0,0c4.2,0,8.5-2.1,12.6-4.2c3-1.5,6.1-3,9.2-3.8c0.3-0.1,0.6-0.1,0.9-0.2
		c0.9-0.2,1.8-0.3,2.7-0.4c1.4-0.2,2.8-0.4,4.1-0.8c0.3-0.1,0.6-0.2,0.9-0.3c0.7-0.3,1.5-0.6,2.2-1c0.1,0,0.2-0.1,0.2-0.1
		c0.2-0.1,0.3-0.2,0.5-0.3c0.1-0.1,0.2-0.1,0.2-0.2c2.1-1.5,3.5-3.8,4-6.3c0.1-0.6,0.1-1.1,0.2-1.7C48.7,33.9,48.2,32,47.2,30.4
		C47.2,30.4,47.2,30.4,47.2,30.4z M45.6,27.1c0,2.1-1.7,3.9-3.9,3.9c-2.1,0-3.9-1.7-3.9-3.9c0-2.1,1.7-3.9,3.9-3.9
		C43.9,23.2,45.6,24.9,45.6,27.1z M20,2.5h26.5l-6.3,18.4C40,21,39.7,21,39.4,21.1L33.3,8.6l-6.2,12.5c-0.3-0.1-0.5-0.2-0.8-0.2
		L20,2.5z M21.1,27.1c0-2.1,1.7-3.9,3.9-3.9s3.9,1.7,3.9,3.9c0,2.1-1.7,3.9-3.9,3.9S21.1,29.2,21.1,27.1z M8.2,23.2
		c2.1,0,3.9,1.7,3.9,3.9c0,2.1-1.7,3.9-3.9,3.9c-2.1,0-3.9-1.7-3.9-3.9C4.3,25,6,23.2,8.2,23.2z M46.2,36c0,0,0,0.1,0,0.1
		c0,0.1,0,0.1,0,0.2c0,0,0,0.1,0,0.1c0,0.1,0,0.1,0,0.2c0,0,0,0.1,0,0.1c0,0.1,0,0.2,0,0.3c0,0,0,0,0,0c-0.2,1.2-0.7,2.4-1.5,3.3
		c-0.1,0.1-0.1,0.1-0.2,0.2c-0.1,0.1-0.2,0.3-0.4,0.4c-0.5,0.5-1,0.9-1.7,1.3c-1.8,1.1-4,1.4-6.4,1.7c-1.2,0.2-2.5,0.4-3.8,0.7
		c-3.3,0.8-6.6,2.4-9.7,4c-4.1,2-7.8,3.9-11.3,3.9c-1.8,0-3.6-0.5-5.4-1.7c-3.7-2.6-3.5-7.3-3.1-9.9c0.4-2.4,1.5-4.6,2.5-6.8
		c0.2-0.4,0.4-0.7,0.5-1.1c0,0,0,0,0,0c0.5,0.2,1.1,0.3,1.7,0.4c-1.1,3.5,0.6,7.3,4.1,9.1l0.5,0.2l0,0l0.5-0.2
		c0.5-0.2,0.9-0.4,1.4-0.6c1.2-0.5,2.3-1.1,3.4-1.9c0.4-0.3,0.7-0.5,1.1-0.8c0.2-0.2,0.5-0.4,0.7-0.6c0.2-0.2,0.5-0.4,0.7-0.6
		c0.1-0.1,0.2-0.2,0.3-0.3c0.2-0.2,0.4-0.4,0.6-0.6c0.1-0.1,0.1-0.1,0.2-0.2c0.1-0.1,0.2-0.3,0.4-0.4c0.1-0.1,0.1-0.2,0.2-0.2
		c0.1-0.1,0.2-0.2,0.3-0.3C22,36.1,22,36,22.1,36c0.1-0.1,0.2-0.2,0.3-0.3c0.1-0.1,0.1-0.2,0.2-0.3c0.1-0.1,0.2-0.2,0.3-0.3
		c0.1-0.1,0.1-0.2,0.2-0.3c0.1-0.1,0.2-0.2,0.2-0.3c0.1-0.1,0.1-0.2,0.2-0.3c0.1-0.1,0.2-0.2,0.2-0.3c0.1-0.1,0.1-0.2,0.2-0.3
		c0,0,0,0,0-0.1c0,0,0,0,0,0c0.3,0,0.6,0.1,1,0.1c3.2,0,5.9-2.4,6.3-5.5c0-0.3,0.1-0.6,0.1-0.8c0-0.6-0.1-1.1-0.2-1.7
		c-0.3-1.2-1-2.3-1.9-3.1l4-8.1l4.1,8.2c-0.8,0.8-1.5,1.8-1.8,2.9c-0.1,0.5-0.2,1.1-0.2,1.7c0,0.3,0,0.6,0.1,0.8
		c0.4,3.1,3.1,5.5,6.3,5.5c1.4,0,2.6-0.4,3.6-1.1c0,0,0,0,0,0c0,0,0,0.1,0.1,0.1c0,0,0,0.1,0.1,0.1c0,0,0,0.1,0.1,0.1
		c0,0,0,0.1,0.1,0.1c0,0,0,0.1,0.1,0.1c0,0.1,0,0.1,0.1,0.2c0,0,0,0.1,0.1,0.1c0,0.1,0,0.1,0,0.2c0,0,0,0.1,0,0.1c0,0.1,0,0.1,0,0.2
		c0,0,0,0.1,0,0.1c0,0.1,0,0.1,0,0.2c0,0,0,0.1,0,0.1c0,0.1,0,0.1,0,0.2c0,0,0,0.1,0,0.1c0,0.1,0,0.1,0,0.2c0,0,0,0.1,0,0.1
		c0,0.1,0,0.1,0,0.2c0,0,0,0.1,0,0.1c0,0.1,0,0.1,0,0.2c0,0,0,0.1,0,0.1c0,0.1,0,0.1,0,0.2c0,0,0,0.1,0,0.1
		C46.2,35.8,46.2,35.9,46.2,36z"/>
	<path class="st1" d="M8.2,31c2.1,0,3.9-1.7,3.9-3.9c0-2.1-1.7-3.9-3.9-3.9c-2.1,0-3.9,1.7-3.9,3.9C4.3,29.3,6,31,8.2,31z"/>
</g>
</svg>
