<?xml version="1.0" encoding="utf-8"?>
<!-- Generator: Adobe Illustrator 22.1.0, SVG Export Plug-In . SVG Version: 6.00 Build 0)  -->
<svg version="1.1" id="Layer_1" xmlns="http://www.w3.org/2000/svg" xmlns:xlink="http://www.w3.org/1999/xlink" x="0px" y="0px"
	 width="48px" height="48px" viewBox="0 0 48 48" style="enable-background:new 0 0 48 48;" xml:space="preserve">
<style type="text/css">
	.st0{fill:#007ACC;}
	.st1{fill:#FFFFFF;}
</style>
<path class="st0" d="M0,24v24h48V0H0V24z"/>
<g id="Layer_2">
	<polygon class="st1" points="29.4,23.1 29.4,25.3 23.3,25.3 23.3,45 18.2,45 18.2,25.3 12,25.3 12,21 29.4,21 	"/>
	<path class="st1" d="M41.6,21.2c0.8,0.1,1.6,0.4,1.9,0.5l0.5,0.2v2.3c0,1.3,0,2.3-0.1,2.3c0,0-0.4-0.2-0.9-0.4
		c-1.7-1-4.4-1.3-6-0.8c-0.4,0.1-1,0.5-1.3,0.8c-0.4,0.4-0.5,0.7-0.5,1.4c0,0.7,0.1,1,0.7,1.5c0.4,0.4,1.9,1.2,3.3,1.9
		c3,1.5,4.5,2.7,5.2,4.3c0.6,1.4,0.6,4.3,0,5.6c-0.6,1.2-1.8,2.5-3,3.1c-2.6,1.2-6.8,1.3-10.1,0.2l-1.2-0.4v-5.2l0.9,0.7
		c1.2,0.9,2.8,1.4,4.4,1.5c1.7,0.1,2.9-0.2,3.6-0.9c0.5-0.4,0.6-0.7,0.6-1.4c0-1.4-0.8-2.1-4-3.7c-2.8-1.4-3.8-2-4.6-3.3
		c-1.9-2.7-1.3-6.9,1.2-8.8C34.5,21.2,38,20.6,41.6,21.2L41.6,21.2z"/>
</g>
</svg>
