<svg xmlns="http://www.w3.org/2000/svg" width="48" height="53" viewBox="0 0 48 53">
  <metadata><?xpacket begin="﻿" id="W5M0MpCehiHzreSzNTczkc9d"?>
<x:xmpmeta xmlns:x="adobe:ns:meta/" x:xmptk="Adobe XMP Core 5.6-c142 79.160924, 2017/07/13-01:06:39        ">
   <rdf:RDF xmlns:rdf="http://www.w3.org/1999/02/22-rdf-syntax-ns#">
      <rdf:Description rdf:about=""/>
   </rdf:RDF>
</x:xmpmeta>
                                                                                                    
                                                                                                    
                                                                                                    
                                                                                                    
                                                                                                    
                                                                                                    
                                                                                                    
                                                                                                    
                                                                                                    
                                                                                                    
                                                                                                    
                                                                                                    
                                                                                                    
                                                                                                    
                                                                                                    
                                                                                                    
                                                                                                    
                                                                                                    
                                                                                                    
                                                                                                    
                           
<?xpacket end="w"?></metadata>
<defs>
    <style>
      .cls-1 {
        fill: #e10098;
        fill-rule: evenodd;
      }
    </style>
  </defs>
  <path class="cls-1" d="M1095.58,1591.29a4.578,4.578,0,0,0-1.27-.49v-12.59a5.221,5.221,0,0,0,1.29-.5,4.7,4.7,0,0,0,1.76-6.46,4.864,4.864,0,0,0-6.57-1.73,4.564,4.564,0,0,0-1.09.85l-11.09-6.3a4.592,4.592,0,0,0,.2-1.35,4.811,4.811,0,0,0-9.62,0,4.642,4.642,0,0,0,.2,1.35l-11.09,6.29a5.024,5.024,0,0,0-1.09-.84,4.859,4.859,0,0,0-6.57,1.73,4.692,4.692,0,0,0,1.76,6.46,5.309,5.309,0,0,0,1.28.5v12.59a4.638,4.638,0,0,0-1.26.49,4.7,4.7,0,0,0-1.77,6.46h0a4.859,4.859,0,0,0,6.57,1.73,4.7,4.7,0,0,0,1.08-.83l11.09,6.29a4.525,4.525,0,0,0-.2,1.34,4.811,4.811,0,0,0,9.62,0,4.612,4.612,0,0,0-.25-1.49l11.03-6.26a4.656,4.656,0,0,0,1.19.95,4.848,4.848,0,0,0,6.56-1.73A4.663,4.663,0,0,0,1095.58,1591.29Zm-39.42-.44a1.332,1.332,0,0,1-.19-0.05v-12.61a4.714,4.714,0,0,0,3-2.22,4.649,4.649,0,0,0,.46-3.66l11.11-6.3c0.05,0.04.09,0.09,0.14,0.13Zm21.39,12.24a4.858,4.858,0,0,0-7.01-.09l-11.1-6.3c0.02-.06.03-0.12,0.05-0.18h29.02c0.03,0.1.06,0.21,0.09,0.31Zm11.46-10.06a4.546,4.546,0,0,0-.5,1.24h-29.02a4.676,4.676,0,0,0-.5-1.24,4.887,4.887,0,0,0-.85-1.06l14.52-24.71a4.986,4.986,0,0,0,1.34.19,4.874,4.874,0,0,0,1.34-.19l14.52,24.71A4.451,4.451,0,0,0,1089.01,1593.03Zm3.02-2.23c-0.06.02-.13,0.03-0.19,0.05l-14.52-24.71a1.593,1.593,0,0,0,.13-0.13l11.12,6.31a4.625,4.625,0,0,0,.46,3.65,4.714,4.714,0,0,0,3,2.22v12.61Z" transform="translate(-1050 -1558)"/>
</svg>
