<svg xmlns="http://www.w3.org/2000/svg" width="32" height="44" viewBox="0 0 32 44">
  <metadata><?xpacket begin="﻿" id="W5M0MpCehiHzreSzNTczkc9d"?>
<x:xmpmeta xmlns:x="adobe:ns:meta/" x:xmptk="Adobe XMP Core 5.6-c142 79.160924, 2017/07/13-01:06:39        ">
   <rdf:RDF xmlns:rdf="http://www.w3.org/1999/02/22-rdf-syntax-ns#">
      <rdf:Description rdf:about=""/>
   </rdf:RDF>
</x:xmpmeta>
                                                                                                    
                                                                                                    
                                                                                                    
                                                                                                    
                                                                                                    
                                                                                                    
                                                                                                    
                                                                                                    
                                                                                                    
                                                                                                    
                                                                                                    
                                                                                                    
                                                                                                    
                                                                                                    
                                                                                                    
                                                                                                    
                                                                                                    
                                                                                                    
                                                                                                    
                                                                                                    
                           
<?xpacket end="w"?></metadata>
<defs>
    <style>
      .cls-1 {
        fill: #27fd8b;
      }

      .cls-1, .cls-2 {
        fill-rule: evenodd;
      }

      .cls-2 {
        fill: #171717;
      }
    </style>
  </defs>
  <path id="Эллипс_2" data-name="Эллипс 2" class="cls-1" d="M1158,4984a15.875,15.875,0,0,1,16,15.76c0,8.7-16,28.23-16,28.23s-16-19.53-16-28.23A15.875,15.875,0,0,1,1158,4984Z" transform="translate(-1142 -4984)"/>
  <path id="Фигура_31" data-name="Фигура 31" class="cls-2" d="M1166.01,5001.2a1.732,1.732,0,0,0-1.23.6c-0.1.1-.39,0.37-0.5,0.47v-4.32c0-3.4-3.3-4.69-6.28-4.69s-6.28,1.29-6.28,4.69v4.32c-0.11-.1-0.4-0.37-0.5-0.47a1.732,1.732,0,0,0-1.23-.6,1.125,1.125,0,0,0-1.13,1.11c0,1.19,3.13,3.22,4.09,3.69a11.572,11.572,0,0,0,10.1,0c0.96-.47,4.09-2.5,4.09-3.69A1.125,1.125,0,0,0,1166.01,5001.2Z" transform="translate(-1142 -4984)"/>
</svg>
