<?xml version="1.0" encoding="utf-8"?>
<!-- Generator: Adobe Illustrator 22.1.0, SVG Export Plug-In . SVG Version: 6.00 Build 0)  -->
<svg version="1.1" id="Layer_1" xmlns="http://www.w3.org/2000/svg" xmlns:xlink="http://www.w3.org/1999/xlink" x="0px" y="0px"
	 width="225px" height="225px" viewBox="0 0 225 225" style="enable-background:new 0 0 225 225;" xml:space="preserve">
<style type="text/css">
	.st0{opacity:0.2;fill:none;stroke:#24FC89;enable-background:new    ;}
	.st1{opacity:0.1;fill:none;stroke:#24FC89;enable-background:new    ;}
	.st2{opacity:5.000000e-02;fill:none;stroke:#24FC89;enable-background:new    ;}
	.st3{fill:#27FD8B;}
	.st4{fill:#171717;}
</style>
<circle id="Эллипс_1_копия_3" class="st0" cx="112.5" cy="112.5" r="16"/>
<circle id="Эллипс_1_копия_3-2" class="st0" cx="112" cy="112" r="33.5"/>
<circle id="Эллипс_1_копия_4" class="st1" cx="112.5" cy="112.5" r="60.3"/>
<circle id="Эллипс_1_копия_5" class="st2" cx="112.5" cy="112.5" r="112"/>
<path id="Эллипс_2" class="st3" d="M112.5,72.5c8.8-0.1,15.9,7,16,15.7c0,0,0,0,0,0c0,8.7-16,28.2-16,28.2s-16-19.5-16-28.2
	C96.6,79.5,103.7,72.4,112.5,72.5C112.5,72.5,112.5,72.5,112.5,72.5z"/>
<path id="Фигура_31" class="st4" d="M120.5,89.7c-0.5,0-0.9,0.2-1.2,0.6c-0.1,0.1-0.4,0.4-0.5,0.5v-4.3c0-3.4-3.3-4.7-6.3-4.7
	s-6.3,1.3-6.3,4.7v4.3c-0.1-0.1-0.4-0.4-0.5-0.5c-0.3-0.4-0.8-0.6-1.2-0.6c-0.6,0-1.1,0.5-1.1,1.1c0,1.2,3.1,3.2,4.1,3.7
	c3.2,1.5,6.9,1.5,10.1,0c1-0.5,4.1-2.5,4.1-3.7C121.6,90.2,121.1,89.7,120.5,89.7z"/>
</svg>
