<svg width="26" height="26" viewBox="0 0 26 26" fill="none" xmlns="http://www.w3.org/2000/svg">
<g clip-path="url(#clip0_81_20)">
<path d="M13 26C20.1797 26 26 20.1797 26 13C26 5.8203 20.1797 0 13 0C5.8203 0 0 5.8203 0 13C0 20.1797 5.8203 26 13 26Z" fill="#F0F0F0"/>
<path d="M26.0002 13.0001C26.0002 7.8461 23.0008 3.39279 18.6523 1.29004V24.7101C23.0008 22.6074 26.0002 18.1541 26.0002 13.0001Z" fill="#D80027"/>
<path d="M0 13.0001C0 18.1541 2.99939 22.6074 7.34784 24.7101V1.29004C2.99939 3.39279 0 7.8461 0 13.0001Z" fill="#D80027"/>
<path d="M15.2611 14.6956L17.5219 13.5652L16.3916 13V11.8695L14.1307 13L15.2611 10.7391H14.1307L13.0002 9.04346L11.8698 10.7391H10.7393L11.8698 13L9.60891 11.8695V13L8.47852 13.5652L10.7393 14.6956L10.1742 15.8261H12.435V17.5217H13.5654V15.8261H15.8263L15.2611 14.6956Z" fill="#D80027"/>
</g>
<defs>
<clipPath id="clip0_81_20">
<rect width="26" height="26" fill="white"/>
</clipPath>
</defs>
</svg>
