<svg width="966" height="560" viewBox="0 0 966 560" fill="none" xmlns="http://www.w3.org/2000/svg">
<path d="M260.299 390.306C268.813 390.306 268.898 416.871 253.657 417.467C247.016 417.638 242.588 406.654 242.588 397.714V335.302C242.588 326.277 247.186 313.079 254.679 313.079C268.983 312.994 253.402 342.284 263.279 352.672C264.3 353.779 265.663 354.545 267.195 354.886C268.728 355.141 270.261 354.886 271.623 354.204C272.9 353.694 274.007 352.757 274.773 351.565C275.54 350.458 276.05 349.096 276.136 347.648C276.136 347.137 276.136 346.541 276.05 346.031C275.88 345.52 275.625 345.009 275.284 344.583C274.944 344.157 274.433 343.817 274.007 343.561C273.496 343.306 272.985 343.221 272.389 343.221C271.793 343.221 271.282 343.391 270.771 343.561C270.261 343.732 269.835 344.157 269.494 344.583C269.154 345.009 268.898 345.52 268.728 346.031C268.558 346.541 268.558 347.137 268.728 347.648V347.989C267.876 347.648 267.451 346.456 267.451 344.924C268.047 336.579 275.965 314.867 275.965 305.842C268.558 305.842 261.065 305.587 253.742 305.842C246.25 306.183 239.183 309.503 234.074 314.953C228.965 320.402 226.155 327.724 226.326 335.302V398.139C226.326 414.317 238.587 426.663 253.572 425.982C269.069 425.301 278.009 413.551 278.009 397.629C278.009 378.471 260.469 381.877 260.299 389.965V390.306Z" fill="white"/>
<path d="M211.435 425.555C208.625 425.64 206.411 411.421 206.241 411.166C205.901 407.93 205.305 404.78 204.794 401.629C215.607 397.627 213.138 380.343 202.835 380.769C202.835 380.769 206.922 386.133 203.006 389.539C201.303 378.64 199.515 367.827 197.982 356.843C196.449 345.944 194.661 335.046 192.958 323.977C192.958 323.636 191.085 309.247 193.725 309.247C196.364 309.247 195.513 306.437 195.513 306.437H168.181C168.181 306.437 167.33 309.332 169.884 309.332C172.438 309.332 169.969 323.466 169.884 324.232C167.074 339.133 163.924 353.948 161.114 368.934C158.304 383.919 155.495 398.905 152.685 413.89C152.515 414.656 149.534 429.131 146.725 429.301C144.255 429.387 144 432.367 144 432.367L164.946 430.919C164.946 430.919 165.712 428.024 163.073 428.195C160.688 428.28 162.476 416.7 163.073 413.805C164.265 407.334 169.629 393.455 188.02 399.926C188.616 403.928 189.127 407.845 189.808 411.762C189.893 412.528 191.766 426.321 189.042 426.577C186.317 426.832 187.339 429.557 187.339 429.557C196.194 429.046 205.134 428.535 213.904 428.024C213.904 428.024 213.734 425.214 211.35 425.385L211.435 425.555ZM176.185 390.986C172.779 391.667 169.544 393.03 166.649 395.073C168.522 385.026 170.48 375.149 172.353 365.272C174.227 355.395 176.185 345.519 178.058 335.642C179.506 344.923 180.783 354.203 182.145 363.399C183.422 372.595 184.955 381.79 186.487 390.986C183.082 390.305 179.591 390.305 176.185 390.986Z" fill="white"/>
<path d="M965.214 344.412C965.214 310.269 946.567 296.135 923.493 296.135H901.781C901.781 296.135 901.525 299.2 903.995 299.2C906.464 299.2 906.975 314.441 906.975 315.292V433.389C906.975 434.41 906.805 449.481 904.165 449.226C901.526 448.97 901.951 452.206 901.951 452.206C913.446 453.057 925.026 453.994 936.52 454.845C953.89 456.293 965.384 436.454 965.384 410.91C965.384 402.14 965.299 388.347 965.299 375.32C965.299 362.293 965.214 350.117 965.214 344.412ZM927.324 445.905C926.047 445.82 924.77 445.564 923.578 445.224V306.778C944.098 307.544 948.781 317.847 948.781 343.986V374.553C948.781 387.921 948.866 402.311 948.866 411.081C948.866 428.365 940.777 446.927 927.324 445.905Z" fill="white"/>
<path d="M888.837 392.434V392.604H888.752C888.752 392.604 881.259 389.794 881.259 398.905C881.259 405.461 878.705 431.26 866.274 430.92C863.294 430.834 860.228 430.579 857.333 430.324V395.669C859.036 395.755 870.02 396.691 870.02 400.012C870.02 403.077 872.404 402.737 872.404 402.737V382.217C872.404 382.217 870.02 381.706 870.02 384.771C870.02 388.092 859.036 388.006 857.333 388.006V314.611C860.399 314.611 863.549 314.611 866.699 314.696C882.536 315.122 865.422 346.456 875.384 358.546C876.321 359.738 877.598 360.59 879.045 360.93C880.493 361.271 882.026 361.186 883.473 360.59C884.835 359.994 886.027 359.057 886.879 357.78C887.73 356.503 888.156 355.055 888.241 353.608C888.241 350.883 886.368 348.499 884.495 348.499C882.196 348.329 880.578 350.713 880.578 353.352V353.693C880.152 353.267 879.812 352.756 879.641 352.16C879.471 351.564 879.386 350.968 879.641 350.372C880.237 341.091 887.986 317.251 887.986 307.119C870.701 307.033 853.332 307.033 836.132 306.948C836.132 306.948 835.792 309.928 838.346 309.928C840.9 309.928 841.071 324.318 841.071 325.51V418.148C841.071 419.34 840.9 433.729 838.346 433.474C835.792 433.304 836.132 436.369 836.132 436.369C853.842 437.476 871.468 438.668 889.178 439.945C886.879 428.45 886.112 416.615 886.964 404.865C887.219 400.608 887.986 396.521 889.178 392.434H888.837Z" fill="white"/>
<path d="M805.651 396.606C814.08 396.946 814.25 425.725 799.009 424.959C792.283 424.448 787.94 412.443 787.94 402.906V337.26C787.94 327.808 792.538 314.015 800.031 314.1C814.25 314.185 798.584 345.093 808.631 356.673C809.567 357.865 810.93 358.716 812.462 359.142C813.995 359.482 815.527 359.312 816.975 358.716C818.337 358.12 819.444 357.184 820.296 355.992C821.147 354.799 821.573 353.352 821.573 351.905C821.658 350.798 821.403 349.606 820.636 348.669C819.955 347.732 818.933 347.136 817.741 346.966C816.634 347.051 815.613 347.647 814.931 348.499C814.25 349.35 813.91 350.542 813.995 351.649V351.99C813.143 351.649 812.803 350.287 812.888 348.754C813.399 339.814 821.147 316.654 821.147 306.863C813.739 306.863 806.417 306.522 799.094 306.778C784.109 307.374 771.678 319.805 771.678 337.004V402.14C771.678 418.999 783.939 433.303 799.009 434.24C814.165 435.177 823.361 423.341 823.361 405.972C823.361 385.111 805.736 387.836 805.736 396.606H805.651Z" fill="white"/>
<path d="M81.8381 462.594C79.6243 462.849 78.0917 465.233 78.0917 467.873V468.043C71.9613 468.639 66.6823 454.164 60.5518 438.583C54.3362 423.001 47.0137 405.887 36.626 401.63C45.9069 398.65 53.8254 392.434 58.9341 384.09C64.5536 375.32 68.2149 363.655 68.2149 349.606C68.2149 332.747 63.021 319.379 54.7619 310.269C50.5047 305.671 45.396 302.095 39.6913 299.626C33.9865 297.157 27.7709 295.965 21.5553 296.05H0.0136232C0.0136232 296.05 -0.241812 299.285 2.39769 299.285C5.03719 299.285 5.12233 314.356 5.12233 315.633V436.028C5.12233 437.305 5.12233 452.376 2.39769 452.717C-0.326957 453.057 0.0136232 456.208 0.0136232 456.208C8.95386 455.271 17.8941 454.42 26.9195 453.483C26.9195 453.483 27.1749 450.248 24.5354 450.588C21.8959 450.844 21.6405 435.943 21.6405 434.666V402.566C26.4086 403.843 33.2202 417.041 40.0318 431.686C46.8434 446.246 53.7402 461.912 58.5935 469.065C66.1714 480.389 78.5174 477.579 82.349 474.088C83.3707 473.237 84.2222 472.13 84.8182 470.938C85.4142 469.746 85.6696 468.383 85.6696 467.021C85.6696 464.382 83.9667 462.423 81.8381 462.594ZM23.1731 394.648C22.6622 394.648 22.1514 394.733 21.6405 394.733V304.649C35.8597 304.905 52.3779 318.698 52.3779 349.436C52.3779 375.405 37.4775 393.711 23.1731 394.563V394.648Z" fill="white"/>
<path d="M125.853 394.818C125.853 401.119 123.299 426.152 110.697 427.599C107.802 427.94 104.737 428.11 101.842 428.28V394.222C103.545 394.137 114.443 393.967 114.443 397.117C114.443 400.267 116.913 399.586 116.913 399.586V379.662C116.913 379.662 114.443 379.492 114.443 382.387C114.443 385.622 103.46 386.559 101.842 386.644V314.441C104.907 314.356 108.058 314.271 111.123 314.356C127.045 314.526 109.675 345.434 119.808 356.503C120.829 357.61 122.192 358.376 123.639 358.631C125.087 358.887 126.619 358.631 127.982 357.95C129.344 357.269 130.451 356.332 131.302 355.055C132.154 353.778 132.579 352.331 132.579 350.883C132.579 348.329 130.791 346.2 128.833 346.285C127.726 346.456 126.619 347.052 125.938 347.988C125.172 348.925 124.831 350.032 124.916 351.224V351.564C124.916 351.564 124.235 350.713 124.065 350.117C123.895 349.606 123.895 349.01 124.065 348.414C124.576 339.474 132.239 316.399 132.239 306.693L80.3854 306.948C80.3854 306.948 80.13 310.014 82.6843 309.928C85.2387 309.843 85.4941 324.318 85.4941 325.51V418.233C85.4941 419.425 85.3238 433.815 82.6843 434.07C80.0448 434.24 80.3854 437.306 80.3854 437.306C98.0956 436.028 115.721 434.581 133.431 433.133C131.132 422.32 130.366 411.166 131.132 400.097C131.387 396.01 132.154 392.008 133.346 388.092C133.346 388.092 125.938 386.048 125.938 394.818H125.853Z" fill="white"/>
<path d="M681.592 425.044H681.507C678.782 424.874 676.483 410.569 676.483 410.229C676.143 406.993 675.547 403.928 675.036 400.693C685.849 397.457 683.38 380.173 672.992 379.832C672.992 379.832 677.164 385.452 673.163 388.602C671.46 377.703 669.842 366.89 668.139 356.076C666.436 345.178 664.818 334.364 663.286 323.636C663.201 323.296 661.242 309.162 663.797 309.162C666.351 309.162 665.585 306.352 665.585 306.352C656.474 306.352 647.364 306.267 638.338 306.267C638.338 306.267 637.487 309.076 640.041 309.076C642.851 309.076 640.211 322.7 640.041 323.466C637.146 337.685 634.081 351.819 631.442 366.124C628.717 380.343 625.737 394.307 622.842 408.441C622.757 409.207 619.777 422.66 617.052 422.575C614.583 422.49 614.242 425.214 614.242 425.214L635.188 426.066C635.188 426.066 636.039 423.256 633.4 423.171C631.186 423.171 632.804 412.187 633.4 409.463C634.677 403.332 639.871 390.39 658.262 398.053C658.858 401.885 659.454 405.801 660.135 409.718C660.221 410.484 662.009 424.278 659.369 424.193C656.73 424.107 657.581 426.917 657.581 426.917C666.436 427.258 675.376 427.684 684.232 428.109C684.232 428.109 684.061 425.214 681.592 425.129V425.044ZM646.597 388.091C643.192 388.517 639.871 389.624 636.891 391.412C638.764 381.875 640.637 372.424 642.51 362.973C644.384 353.522 646.342 344.071 648.215 334.62C649.663 343.645 651.025 352.671 652.472 361.696C653.75 370.807 655.197 379.832 656.73 388.857C653.409 387.921 649.918 387.665 646.597 388.091Z" fill="white"/>
<path d="M532.762 314.27C530.208 311.63 527.142 309.502 523.737 308.054C520.331 306.607 516.755 305.84 513.008 305.84H479.206C479.206 305.84 478.865 308.565 481.505 308.565C484.144 308.565 484.229 321.762 484.229 322.529V405.545C484.229 406.312 484.059 419.594 481.505 419.594C478.95 419.594 479.206 422.234 479.206 422.234C490.36 422.234 501.684 422.489 512.923 422.745C516.584 422.745 520.246 422.063 523.566 420.701C526.972 419.339 530.037 417.295 532.592 414.656C535.146 412.016 537.19 408.951 538.552 405.545C539.914 402.14 540.595 398.563 540.51 394.902V334.364C540.51 330.703 539.914 327.041 538.552 323.636C537.19 320.23 535.146 317.08 532.592 314.44L532.762 314.27ZM524.418 394.562C524.418 406.482 515.648 416.274 505.09 416.103C503.642 416.103 502.28 415.933 500.918 415.422V312.737C502.28 312.397 503.642 312.141 505.09 312.141C515.733 312.226 524.418 322.188 524.418 334.109V394.562Z" fill="white"/>
<path d="M310.96 421.383C310.96 421.383 310.279 421.383 309.938 421.638C309.597 421.808 309.342 421.979 309.086 422.319C308.831 422.575 308.746 422.915 308.576 423.256C308.49 423.596 308.49 423.937 308.576 424.278C317.431 424.022 326.456 423.852 335.396 423.596C335.396 423.596 335.737 420.872 333.183 420.872C330.628 420.872 330.288 407.589 330.288 406.823V312.823H333.949C349.871 313.078 332.501 341.346 342.634 351.649C343.655 352.756 345.018 353.522 346.465 353.863C347.913 354.203 349.53 353.948 350.893 353.352C352.17 352.756 353.192 351.904 354.043 350.712C354.809 349.605 355.32 348.243 355.491 346.881C355.491 346.37 355.491 345.774 355.32 345.348C355.15 344.837 354.895 344.412 354.554 343.986C354.213 343.56 353.788 343.219 353.277 343.049C352.766 342.879 352.255 342.709 351.744 342.623C351.233 342.623 350.637 342.794 350.126 343.049C349.616 343.305 349.19 343.645 348.849 344.071C348.509 344.497 348.168 344.922 347.998 345.518C347.827 346.029 347.742 346.625 347.742 347.136V347.392C347.061 347.136 346.721 345.944 346.806 344.497C347.402 336.323 354.895 315.036 354.895 306.096C333.012 306.181 311.13 306.181 289.077 306.266C289.077 315.377 296.826 336.748 297.422 345.008C297.507 346.54 297.166 347.562 296.23 347.988C296.315 347.817 296.4 347.732 296.4 347.647C296.4 347.136 296.4 346.54 296.23 346.029C296.059 345.518 295.804 345.008 295.378 344.582C295.037 344.156 294.527 343.815 294.016 343.645C293.505 343.39 292.994 343.305 292.398 343.305C291.802 343.305 291.291 343.475 290.78 343.645C290.269 343.901 289.844 344.241 289.503 344.667C289.162 345.093 288.907 345.604 288.737 346.114C288.566 346.625 288.566 347.221 288.652 347.732C288.822 349.094 289.333 350.457 290.099 351.564C290.951 352.671 292.057 353.607 293.335 354.118C294.697 354.714 296.23 354.799 297.677 354.544C299.124 354.203 300.487 353.437 301.423 352.33C311.385 341.687 294.271 313.334 310.023 312.993C311.215 312.908 312.407 312.908 313.599 312.908V407.334C313.599 408.356 313.514 421.468 310.96 421.553V421.383Z" fill="white"/>
<path d="M441.24 394.221C441.75 397.968 442.346 401.629 443.028 405.375C443.113 406.142 444.986 419.254 442.261 419.254C439.537 419.254 440.558 421.979 440.558 421.979C449.414 421.979 458.354 422.064 467.209 422.064C467.209 422.064 467.039 419.339 464.655 419.339H464.569C461.76 419.339 459.461 405.716 459.376 405.375C459.035 402.31 458.439 399.33 457.928 396.35C468.741 393.029 466.272 376.511 455.97 376.426C455.97 376.426 459.972 381.705 456.14 384.77C454.437 374.382 452.649 363.995 451.116 353.607C449.584 343.219 447.796 332.832 446.263 322.444C446.178 322.103 444.305 308.395 446.944 308.395C449.584 308.395 448.732 305.755 448.732 305.755H421.401C421.401 305.755 420.464 308.48 423.104 308.48C425.743 308.48 423.274 321.678 423.104 322.359C420.294 336.237 417.144 350.031 414.504 363.824C411.779 377.618 408.799 391.582 405.904 405.46C405.819 406.227 402.669 419.509 400.114 419.509C397.56 419.509 397.305 422.234 397.305 422.234C404.287 422.234 411.183 422.149 418.25 422.064C418.25 422.064 419.017 419.339 416.377 419.339C414.163 419.424 415.866 408.696 416.377 405.971C417.654 399.926 422.933 387.239 441.325 394.136L441.24 394.221ZM425.573 360.759C427.446 351.478 429.404 342.283 431.278 333.087C432.725 341.857 434.002 350.542 435.45 359.227C436.897 367.826 438.174 376.766 439.707 385.366C432.98 383.748 425.828 384.855 419.868 388.346C421.741 379.15 423.7 370.04 425.573 360.674V360.759Z" fill="white"/>
<path d="M756.434 428.791C753.795 428.621 753.539 414.401 753.539 413.635V324.573C753.539 323.551 753.795 309.503 756.434 309.503C759.074 309.503 758.648 306.608 758.648 306.608C749.708 306.608 740.682 306.608 731.827 306.608C731.827 306.608 731.487 309.417 734.126 309.417C736.766 309.417 736.851 323.126 736.851 324.488V372.936C733.615 361.867 730.465 350.713 727.485 339.644C724.505 328.575 721.184 317.591 718.119 306.608C710.882 306.608 703.644 306.522 696.407 306.522C696.407 306.522 696.151 309.332 698.706 309.332C701.26 309.332 701.516 322.955 701.516 324.148V411.506C701.516 412.613 701.345 426.151 698.706 426.066C696.066 425.981 696.407 428.791 696.407 428.791C703.389 429.046 710.286 429.472 717.353 429.728C717.353 429.728 717.523 426.918 714.969 426.833C712.159 426.662 712.074 411.677 712.074 411.677V342.879C716.161 357.354 720.418 371.914 724.505 386.559C728.592 401.119 732.849 416.019 736.936 430.834C744.173 431.175 751.411 431.601 758.733 432.026C758.733 432.026 758.989 429.131 756.519 428.961L756.434 428.791Z" fill="white"/>
<path d="M591.431 421.553C589.047 421.468 591.345 408.1 591.431 407.334C594.326 393.285 597.22 379.321 600.03 365.272C602.84 351.223 605.82 337.089 608.715 323.04C608.885 322.274 611.78 308.821 614.505 308.821C617.23 308.821 617.23 306.011 617.23 306.011H596.454C596.454 306.011 595.688 308.736 598.157 308.736C600.967 308.736 598.242 322.529 598.157 322.955C595.518 335.216 593.134 347.477 590.664 359.652C588.195 371.828 585.641 384.004 583.171 396.265C581.213 383.919 579.255 371.743 577.382 359.567C575.508 347.391 573.72 335.045 571.847 322.87C571.762 322.103 569.548 308.65 572.358 308.65C574.912 308.736 574.146 305.926 574.146 305.926H547.24C547.24 305.926 547.411 308.65 549.88 308.65C552.604 308.65 554.988 322.359 555.074 322.785C557.287 336.663 559.416 350.712 561.545 364.761C563.673 378.81 565.972 392.774 568.186 406.823C568.356 407.163 570.229 421.042 567.505 420.957C565.036 420.957 565.717 423.682 565.717 423.682C574.827 423.937 583.853 424.192 593.048 424.448C593.048 424.448 593.815 421.723 591.345 421.638L591.431 421.553Z" fill="white"/>
<path fill-rule="evenodd" clip-rule="evenodd" d="M419.979 110.235C419.979 110.808 420.027 111.369 420.063 111.943C415.477 110.545 410.903 109.112 406.412 107.643L411.679 92.1528C415.059 93.2635 418.451 94.3503 421.819 95.4013C420.648 100.167 419.979 105.123 419.979 110.235Z" fill="white"/>
<path fill-rule="evenodd" clip-rule="evenodd" d="M392.102 85.2259L386.823 100.764C384.841 99.9995 382.918 99.2232 380.983 98.4469L380.553 98.2797L380.529 80.5801L392.114 85.2259H392.102Z" fill="white"/>
<path fill-rule="evenodd" clip-rule="evenodd" d="M501.526 95.2219C500.678 95.0667 499.734 94.9233 498.838 94.8278C499.292 95.5802 499.782 96.3684 500.236 97.1686C500.737 97.9688 501.227 98.7571 501.681 99.5572C502.135 100.357 502.624 101.205 503.03 101.994C502.278 103.881 501.442 105.875 500.487 107.87C499.543 105.923 498.492 103.988 497.346 102.041C496.199 100.095 495.053 98.2077 493.858 96.4162C493.416 95.616 492.915 94.8756 492.413 94.1709C491.171 92.3317 489.929 90.588 488.627 88.9399C488.078 88.1874 487.481 87.447 486.931 86.7543C486.131 85.763 485.343 84.8076 484.495 83.9118C484.053 83.3624 483.599 82.8131 483.098 82.2637C482.596 82.7653 482.106 83.3147 481.7 83.8521C480.852 84.7956 480.052 85.7391 479.216 86.7423C478.667 87.435 478.069 88.1874 477.568 88.9279C478.464 88.8801 479.359 88.8801 480.255 88.8801C481.199 88.8324 482.142 88.8324 483.098 88.8324C484.053 88.8324 484.985 88.8324 485.94 88.8801C487.182 90.4686 488.484 92.2123 489.726 94.0037C487.588 93.8485 485.391 93.8007 483.109 93.8007C480.828 93.8007 478.631 93.8485 476.493 94.0037C475.597 94.0037 474.702 94.0515 473.806 94.147C471.62 94.3023 469.423 94.4934 467.38 94.792C466.437 94.8875 465.541 95.0428 464.645 95.1861C463.403 95.3891 462.161 95.5802 460.967 95.831C460.274 95.9265 459.57 96.0818 458.877 96.2251C459.08 96.8701 459.271 97.515 459.522 98.2196C459.916 99.4139 460.37 100.608 460.871 101.803C461.17 102.651 461.516 103.498 461.863 104.394C462.317 103.594 462.711 102.806 463.153 102.006C463.606 101.158 464.048 100.357 464.55 99.5214C464.992 98.7212 465.493 97.933 465.995 97.1328C468.037 96.7865 470.175 96.5356 472.373 96.3804C471.131 98.1718 469.984 100.059 468.885 102.006C467.739 103.952 466.7 105.935 465.696 107.882C465.302 108.682 464.896 109.422 464.502 110.222C463.559 112.169 462.663 114.152 461.863 116.051C461.516 116.946 461.17 117.794 460.812 118.642C460.358 119.837 459.916 121.079 459.522 122.225C459.271 122.918 459.068 123.623 458.877 124.267C459.57 124.423 460.274 124.566 460.967 124.662C462.161 124.912 463.403 125.163 464.705 125.354C465.601 125.498 466.497 125.605 467.44 125.701C466.939 124.948 466.449 124.16 466.043 123.36C465.493 122.56 464.992 121.771 464.55 120.923C464.096 120.123 463.606 119.275 463.2 118.487C463.893 116.54 464.741 114.606 465.685 112.611C466.676 114.498 467.727 116.445 468.873 118.439C469.972 120.386 471.166 122.273 472.361 124.112C472.815 124.865 473.304 125.605 473.806 126.358C475.048 128.197 476.29 129.94 477.592 131.589H477.64C478.141 132.341 478.691 133.034 479.228 133.726C480.028 134.718 480.876 135.673 481.664 136.617C482.106 137.166 482.608 137.715 483.109 138.205C483.611 137.703 484.053 137.214 484.507 136.664C485.355 135.721 486.155 134.718 486.991 133.726C487.54 133.034 488.09 132.329 488.579 131.589C487.684 131.636 486.788 131.636 485.892 131.636C484.949 131.684 484.053 131.684 483.109 131.684C482.166 131.684 481.222 131.684 480.267 131.636C479.025 129.988 477.723 128.304 476.481 126.513C478.619 126.668 480.816 126.716 483.098 126.716C485.379 126.716 487.528 126.668 489.666 126.513C490.61 126.513 491.505 126.465 492.401 126.369C494.587 126.214 496.736 126.023 498.719 125.725C499.663 125.629 500.606 125.521 501.502 125.378C502.792 125.175 504.046 124.924 505.24 124.685C505.933 124.59 506.637 124.435 507.33 124.291C507.127 123.646 506.936 122.942 506.685 122.249C506.291 121.103 505.837 119.86 505.395 118.666C505.049 117.818 504.703 116.97 504.344 116.075C503.89 116.875 503.496 117.723 502.995 118.511C502.601 119.311 502.099 120.159 501.645 120.947C501.144 121.795 500.702 122.595 500.152 123.384C498.11 123.682 496.02 123.933 493.834 124.136C495.029 122.297 496.223 120.398 497.322 118.463C498.468 116.516 499.46 114.629 500.463 112.742V112.695C500.917 111.847 501.311 111.046 501.705 110.258C502.648 108.264 503.544 106.329 504.344 104.43C504.691 103.534 505.037 102.686 505.336 101.838C505.837 100.644 506.279 99.4498 506.685 98.2554C506.936 97.5627 507.139 96.9059 507.33 96.261C506.637 96.1057 505.933 95.9624 505.24 95.8668C504.046 95.616 502.804 95.413 501.502 95.2219H501.526ZM483.098 118.475C478.619 118.475 474.857 114.713 474.857 110.234C474.857 105.756 478.619 101.994 483.098 101.994C487.576 101.994 491.338 105.756 491.338 110.234C491.338 114.713 487.576 118.475 483.098 118.475Z" fill="white"/>
<path fill-rule="evenodd" clip-rule="evenodd" d="M585.544 122.321V138.707C570.436 138.098 555.4 137.023 540.865 135.542C543.075 130.514 544.627 125.152 545.463 119.55C558.541 120.804 572.001 121.736 585.556 122.333L585.544 122.321Z" fill="white"/>
<path fill-rule="evenodd" clip-rule="evenodd" d="M483.1 52.0957C451.045 52.0957 424.961 78.1794 424.961 110.235C424.961 142.29 451.045 168.373 483.1 168.373C515.155 168.373 541.239 142.29 541.239 110.235C541.239 78.1794 515.155 52.0957 483.1 52.0957ZM535.375 110.258C535.375 117.377 527.755 123.456 515.561 127.289C515.215 125.701 514.761 124.101 514.212 122.464C524.363 119.228 530.394 114.594 530.394 110.27C530.394 105.947 524.375 101.361 514.271 98.1243C513.626 97.9213 512.922 97.7302 512.229 97.5272C512.026 98.1721 511.835 98.8767 511.584 99.5217C510.688 102.161 509.637 104.896 508.347 107.691C508.049 108.539 507.655 109.434 507.201 110.282C507.595 111.13 508.001 112.026 508.395 112.874C509.59 115.657 510.641 118.404 511.536 121.091C511.787 121.784 511.978 122.44 512.181 123.085C512.731 124.781 513.172 126.37 513.579 127.97C513.782 128.663 513.925 129.32 514.08 129.965C514.331 131.254 514.582 132.508 514.773 133.703C516.517 144.702 514.57 152.465 509.243 155.559C507.655 156.454 505.863 156.908 503.917 156.908C499.235 156.908 493.61 154.364 487.543 149.444C486.599 148.644 485.596 147.855 484.652 146.9C485.799 145.801 486.993 144.607 488.14 143.317C488.988 144.117 489.836 144.858 490.684 145.562C497.408 151.044 503.427 153.182 506.759 151.235C510.091 149.348 511.238 143.066 509.84 134.503C509.685 133.404 509.446 132.317 509.243 131.219C509.088 130.526 508.897 129.869 508.742 129.176C508.049 129.32 507.344 129.475 506.652 129.63C503.917 130.18 500.979 130.621 497.945 130.92C497.002 131.075 496.058 131.171 495.103 131.219C494.601 131.971 494.052 132.711 493.514 133.464C491.723 135.9 489.836 138.193 487.985 140.331C487.543 140.881 487.041 141.382 486.587 141.872C485.441 143.114 484.294 144.308 483.1 145.407C482.598 145.956 482.109 146.458 481.559 146.9C480.616 147.796 479.612 148.644 478.669 149.444C472.59 154.376 466.965 156.908 462.295 156.908C460.348 156.908 458.557 156.454 456.968 155.559C451.642 152.477 449.647 144.702 451.439 133.703C451.642 132.508 451.881 131.266 452.131 129.965C453.672 130.466 455.272 130.86 456.956 131.207C456.753 132.305 456.503 133.392 456.359 134.491C454.962 143.054 456.108 149.324 459.441 151.223C462.773 153.17 468.804 151.02 475.516 145.55C476.364 144.858 477.212 144.105 478.06 143.305C478.561 142.851 479.111 142.409 479.601 141.86C479.099 141.358 478.657 140.869 478.155 140.319C476.316 138.181 474.477 135.888 472.626 133.452C472.076 132.7 471.575 131.959 471.037 131.207C470.094 131.159 469.15 131.063 468.255 130.908C465.221 130.609 462.283 130.156 459.548 129.618C458.855 129.475 458.151 129.32 457.458 129.164C455.762 128.818 454.174 128.412 452.633 127.97C451.94 127.767 451.283 127.576 450.639 127.325C438.445 123.491 430.825 117.424 430.825 110.294C430.825 103.164 438.397 97.1569 450.543 93.371C450.937 94.9116 451.391 96.512 451.94 98.1482C441.837 101.385 435.817 105.959 435.817 110.294C435.817 114.63 441.837 119.252 452 122.488C452.645 122.691 453.35 122.882 454.042 123.085C454.245 122.44 454.436 121.795 454.687 121.091C455.583 118.404 456.634 115.669 457.828 112.874C458.222 112.026 458.628 111.13 459.023 110.282C458.581 109.434 458.175 108.539 457.876 107.691C456.586 104.908 455.535 102.161 454.639 99.5217C454.389 98.8767 454.198 98.1721 453.995 97.5272C453.445 95.8312 453.003 94.2428 452.645 92.6424C452.442 91.9497 452.251 91.2451 452.143 90.6002C449.361 78.1555 450.854 68.5413 456.968 65.0181C463.095 61.4352 472.196 65.0181 481.655 73.6291C480.46 74.7278 479.266 75.9699 478.072 77.2598C471.897 71.6346 466.272 68.6488 462.343 68.6488C461.244 68.6488 460.3 68.8518 459.453 69.3415C455.714 71.4793 454.723 79.0035 456.968 89.3581C457.112 90.003 457.267 90.7077 457.47 91.4481C458.163 91.3048 458.867 91.1496 459.56 91.054C462.295 90.4569 465.185 90.003 468.219 89.7044C469.162 89.5492 470.106 89.4536 471.061 89.4059C471.563 88.6057 472.112 87.8652 472.65 87.1128C474.441 84.7242 476.28 82.4311 478.179 80.2933C478.621 79.7439 479.123 79.2423 479.624 78.7526C480.771 77.4628 481.965 76.2088 483.16 75.122C483.661 74.5726 484.211 74.071 484.7 73.6291C485.644 72.7811 486.587 71.9332 487.543 71.1927C496.201 64.1224 503.917 61.9368 509.243 65.0181C515.37 68.5533 516.863 78.1555 514.068 90.6002C512.528 90.0986 510.927 89.7044 509.243 89.3581C511.489 79.0035 510.485 71.4913 506.759 69.3415C505.959 68.8399 504.968 68.6488 503.869 68.6488C500.489 68.6488 495.759 70.8941 490.672 75.0264C489.824 75.7191 489.024 76.4237 488.188 77.212C487.686 77.6658 487.137 78.1077 486.647 78.6571C487.089 79.1587 487.59 79.7081 488.044 80.2455C489.883 82.3833 491.723 84.6764 493.574 87.1128C494.123 87.8652 494.673 88.6057 495.222 89.4059C496.166 89.4536 497.061 89.5492 497.957 89.7044C501.038 90.003 503.929 90.4569 506.723 91.054C507.416 91.1496 508.121 91.3048 508.765 91.4481C510.461 91.7945 512.05 92.2005 513.59 92.6424C514.283 92.8455 514.988 93.0366 515.681 93.3351C527.827 97.1211 535.399 103.188 535.399 110.258H535.375Z" fill="white"/>
<path fill-rule="evenodd" clip-rule="evenodd" d="M393.202 81.9653C393.512 81.0457 394.169 80.2933 395.041 79.8633C395.925 79.4334 396.928 79.3617 397.836 79.6842L410.579 84.0195C411.499 84.33 412.251 84.9869 412.681 85.8707C413.111 86.7545 413.171 87.7458 412.86 88.6654L412.645 89.2984C415.846 90.3732 419.142 91.4242 422.558 92.4752C430.249 66.296 454.458 47.1154 483.086 47.1154C517.888 47.1154 546.205 75.4325 546.205 110.235C546.205 112.349 546.097 114.439 545.882 116.505C558.745 117.771 571.99 118.702 585.533 119.264V79.1468C585.545 21.7125 532.148 0 483.038 0C433.928 0 381.689 21.2826 380.578 77.3075C384.507 78.9915 388.64 80.6755 393.071 82.3714L393.214 81.9653H393.202ZM547.351 98.7573C547.244 98.196 547.136 97.6346 547.017 97.0614L553.072 95.0908L553.597 96.715L547.339 98.7453L547.351 98.7573ZM556.691 86.3245C557.527 88.8804 556.822 91.5556 555.126 93.4068L551.257 81.5115C553.717 82.0131 555.855 83.7687 556.679 86.3245H556.691ZM552.26 92.5827L546.384 94.4936C546.061 93.0246 545.631 91.5437 545.154 90.0747C544.676 88.6057 544.15 87.1606 543.553 85.7752L549.429 83.8643L552.26 92.5708V92.5827ZM548.092 79.732L548.617 81.3562L542.562 83.3268C542.311 82.7894 542.072 82.2758 541.834 81.7623L548.092 79.732ZM506.649 42.4218L505.276 48.8591C504.738 48.68 504.201 48.4889 503.64 48.2978L504.965 42.0635L506.637 42.4218H506.649ZM499.185 34.5513C501.812 35.1126 503.783 37.0474 504.535 39.448L492.306 36.8444C493.978 34.9693 496.557 33.99 499.185 34.5513ZM493.428 39.6152L502.386 41.5141L501.108 47.5573C499.674 47.1035 498.182 46.7332 496.665 46.4108C495.16 46.0883 493.631 45.8136 492.138 45.6584L493.416 39.6152H493.428ZM489.177 38.7075L490.849 39.0658L489.523 45.3001C488.938 45.2404 488.376 45.1926 487.803 45.1448L489.177 38.7075ZM425.592 58.4613C427.395 56.4549 430.058 55.7383 432.507 56.2758L424.135 65.5675C423.346 63.1789 423.788 60.4558 425.592 58.4613ZM429.079 73.6171L424.194 69.2101L425.341 67.9322L430.07 72.1959C429.736 72.6736 429.401 73.1394 429.079 73.6052V73.6171ZM434.609 66.5707C433.581 67.7172 432.578 68.8996 431.694 70.1059L427.108 65.9735L433.235 59.166L437.821 63.2983C436.711 64.3135 435.636 65.4242 434.609 66.5707ZM439.732 61.471L434.991 57.2073L436.137 55.9294L441.022 60.3364C440.592 60.7066 440.162 61.0888 439.72 61.471H439.732ZM426.189 22.1305C437.893 15.0124 451.329 11.2265 465.063 11.2265C467.798 11.2265 470.486 11.4295 473.232 11.6803C458.543 11.9311 444.056 15.6574 431.121 22.6321C418.127 29.6069 407.032 39.5555 398.72 51.7016C404.99 39.5077 414.496 29.2964 426.201 22.1305H426.189Z" fill="white"/>
<path fill-rule="evenodd" clip-rule="evenodd" d="M626.796 136.748C626.796 136.748 626.713 136.689 626.677 136.653C626.414 136.39 626.092 136.187 625.805 135.936C625.208 135.411 624.611 134.861 623.954 134.419C620.908 132.365 617.302 131.243 613.563 131.243C605.968 131.243 598.575 135.65 593.583 141.251C591.612 143.305 589.534 145.371 587.384 147.354C586.835 147.903 586.226 148.429 585.581 148.954V141.585C585.33 141.585 585.139 141.585 584.888 141.538C584.387 141.538 583.897 141.538 583.443 141.49C572.097 140.988 560.99 140.295 550.086 139.352C549.943 139.352 549.787 139.304 549.644 139.304C547.16 139.053 544.616 138.803 542.18 138.552C541.284 138.504 540.436 138.397 539.54 138.301C539.493 138.397 539.397 138.552 539.337 138.647C538.74 139.842 538.143 140.988 537.45 142.087C535.014 146.315 532.028 150.256 528.636 153.731C527.788 154.627 526.94 155.475 526.045 156.275C524.898 157.374 523.752 158.365 522.557 159.309C511.761 168.015 498.062 173.246 483.133 173.246C449.979 173.246 422.749 147.509 420.265 114.952C415.189 113.459 410.257 111.919 405.527 110.318L405.324 110.772C405.025 111.716 404.381 112.468 403.485 112.91C402.983 113.161 402.434 113.256 401.896 113.256C401.502 113.256 401.096 113.209 400.702 113.053L387.959 108.718C386.072 108.073 385.021 105.983 385.666 104.084L385.917 103.439C384.077 102.746 382.381 102.042 380.638 101.349L380.685 148.739L377.019 145.634C375.526 144.177 374.045 142.72 372.576 141.251C367.572 135.674 360.311 131.243 352.595 131.243C350.171 131.243 347.758 131.72 345.525 132.652C343.292 133.583 341.238 134.933 339.518 136.653C339.494 136.677 339.482 136.701 339.47 136.713C339.458 136.713 339.446 136.736 339.434 136.748C339.076 137.119 338.801 137.549 338.479 137.943C338.049 138.468 337.571 138.958 337.201 139.519C337.189 139.543 337.165 139.567 337.141 139.591C336.795 140.092 336.496 140.582 336.198 141.132C335.899 141.681 335.648 142.23 335.397 142.78C335.147 143.329 334.944 143.926 334.8 144.476C334.299 146.219 334 148.011 334 149.85C334 169.616 384.973 203.116 400.654 210.831C426.296 223.479 454.613 230.048 483.193 230C511.773 230.048 539.994 223.527 565.636 210.831C581.317 203.116 632.29 169.616 632.29 149.85C632.29 144.917 630.296 140.248 626.82 136.76L626.796 136.748ZM542.371 155.666C542.765 157.804 542.227 160.145 540.627 161.889C539.528 163.178 538.035 163.883 536.495 164.134C535.551 164.337 534.608 164.277 533.712 164.086L542.12 154.782C542.216 155.081 542.323 155.38 542.371 155.678V155.666ZM537.14 146.757L542.072 151.14L540.926 152.43L536.148 148.154C536.495 147.652 536.841 147.211 537.14 146.757ZM531.622 153.767C532.673 152.621 533.664 151.426 534.56 150.232L534.763 150.435L539.146 154.364L533.82 160.288L533.019 161.184L528.445 157.052C529.544 156.06 530.631 154.914 531.634 153.767H531.622ZM526.487 158.903L526.69 159.106L531.264 163.143L530.32 164.194L530.117 164.444L525.185 160.013C525.639 159.667 526.08 159.261 526.475 158.915L526.487 158.903ZM476.66 175.229L476.708 175.074C477.305 175.121 477.854 175.169 478.451 175.229L477.054 181.654L476.003 181.404L475.406 181.308L476.648 175.229H476.66ZM465.111 172.984L465.159 172.781C466.556 173.234 468.049 173.629 469.59 173.927C471.083 174.274 472.623 174.524 474.068 174.68L472.826 180.759L472.229 180.615L463.869 178.824L465.111 172.996V172.984ZM473.925 183.494C472.874 184.688 471.536 185.488 470.044 185.787C469.1 185.99 468.049 186.037 467.058 185.787C464.812 185.333 463.081 183.84 462.185 181.953C461.982 181.607 461.839 181.26 461.731 180.902L473.925 183.494ZM460.931 171.694L460.979 171.491C461.528 171.694 462.03 171.837 462.627 172.04L461.277 178.263L459.832 177.964L459.581 177.916L460.931 171.694ZM423.692 136.999C423.943 137.549 424.194 138.098 424.385 138.588H424.337L418.163 140.63L417.613 138.982L423.585 137.035L423.681 136.987L423.692 136.999ZM419.859 125.844C420.157 127.337 420.611 128.83 421.053 130.275C421.555 131.768 422.104 133.213 422.701 134.551L416.825 136.498L416.622 135.9L413.983 127.791L419.703 125.904L419.859 125.856V125.844ZM418.82 121.664L418.915 121.617C419.011 122.166 419.118 122.715 419.214 123.312L413.195 125.259L412.753 123.91L412.657 123.659L418.832 121.664H418.82ZM410.746 127.385C410.842 127.23 410.949 127.086 411.093 126.931L414.974 138.826C414.377 138.731 413.827 138.528 413.278 138.277C413.23 138.277 413.183 138.229 413.183 138.229C411.534 137.381 410.197 135.936 409.552 134.001C408.752 131.661 409.301 129.176 410.746 127.385ZM533.796 190.6C517.876 197.001 500.618 200.321 483.157 200.321C465.696 200.321 448.45 197.013 432.518 190.6C416.562 184.162 402.267 174.727 390.634 162.987C415.726 184.258 448.797 196.058 483.157 196.022C517.481 196.082 550.552 184.246 575.608 162.987C563.964 174.763 549.716 184.162 533.796 190.6Z" fill="white"/>
<path fill-rule="evenodd" clip-rule="evenodd" d="M396.114 83.5775L388.924 104.681C388.745 105.194 389.02 105.756 389.533 105.923L401.142 109.876C401.655 110.055 402.217 109.781 402.384 109.267L409.574 88.1756C409.753 87.662 409.478 87.1007 408.964 86.9335L397.344 82.9684C396.83 82.7892 396.269 83.0639 396.102 83.5775H396.114Z" fill="white"/>
<path d="M348.501 535.902C348.501 530.35 362.262 528.206 362.262 541.327C362.262 552.178 355.254 560 343.278 560C331.556 560 322 551.294 322 540.444V498.556C322 487.453 331.811 479.631 343.405 479H360.605C360.605 485.182 354.49 499.818 354.108 505.495C353.98 506.505 354.362 507.262 354.999 507.514V507.262C354.999 505.621 356.274 504.234 357.93 504.234C359.586 504.234 360.86 505.621 360.86 507.262C360.86 509.154 359.331 510.921 357.293 511.678C355.509 512.308 352.961 512.435 350.922 510.542C343.15 503.35 355.254 483.668 344.169 483.668C338.309 483.668 334.741 492.5 334.741 498.556V540.444C334.741 546.5 338.181 554.07 343.405 554.07C355.254 554.07 355.127 535.902 348.501 535.902Z" fill="white"/>
<path d="M419.117 558.107C421.028 558.107 421.155 560 421.155 560H400.388C400.388 560 399.75 558.107 401.789 558.107C403.828 558.107 402.426 548.897 402.299 548.393L400.897 540.57C386.627 535.776 382.55 544.607 381.531 548.771C381.148 550.664 379.747 558.107 381.531 558.107C383.569 558.107 382.932 560 382.932 560H366.624C366.624 560 366.878 558.107 368.79 558.107C370.956 558.107 373.249 548.897 373.376 548.393L386.755 490.607C386.882 490.103 388.921 480.893 386.755 480.893C384.843 480.893 385.48 479 385.48 479H406.758C406.758 479 407.395 480.893 405.357 480.893C403.318 480.893 404.847 490.355 404.847 490.607L412.619 534.009C415.677 531.864 412.492 528.206 412.492 528.206C420.518 528.206 422.43 539.687 414.02 542.084L415.167 548.393C415.167 548.645 416.951 558.107 419.117 558.107ZM384.334 536.533C390.704 533.379 395.546 533.757 399.75 534.514L393.253 498.051L384.334 536.533Z" fill="white"/>
<path d="M473.771 558.107C475.81 558.107 475.555 560 475.555 560H458.609L439.243 502.972V548.266C439.243 548.266 439.37 558.107 441.536 558.107C443.447 558.107 443.32 560 443.32 560H427.011C427.011 560 426.757 558.107 428.795 558.107C430.834 558.107 430.961 549.15 430.961 548.393V490.607C430.961 489.85 430.834 480.893 428.795 480.893C426.757 480.893 427.011 479 427.011 479H443.957L458.609 522.276V490.607C458.609 489.85 458.482 480.893 456.443 480.893C454.405 480.893 454.66 479 454.66 479H475.555C475.555 479 475.81 480.893 473.771 480.893C471.733 480.893 471.478 489.977 471.478 490.607V548.393C471.478 548.897 471.733 558.107 473.771 558.107Z" fill="white"/>
<path d="M532.592 558.107C534.503 558.107 534.631 560 534.631 560H513.863C513.863 560 513.226 558.107 515.264 558.107C517.303 558.107 515.901 548.897 515.774 548.393L514.372 540.57C500.102 535.776 496.025 544.607 495.006 548.771C494.624 550.664 493.222 558.107 495.006 558.107C497.045 558.107 496.407 560 496.407 560H480.099C480.099 560 480.354 558.107 482.265 558.107C484.431 558.107 486.724 548.897 486.852 548.393L500.23 490.607C500.357 490.103 502.396 480.893 500.23 480.893C498.319 480.893 498.956 479 498.956 479H520.233C520.233 479 520.87 480.893 518.832 480.893C516.793 480.893 518.322 490.355 518.322 490.607L526.094 534.009C529.152 531.864 525.967 528.206 525.967 528.206C533.994 528.206 535.905 539.687 527.496 542.084L528.642 548.393C528.642 548.645 530.426 558.107 532.592 558.107ZM497.809 536.533C504.18 533.379 509.021 533.757 513.226 534.514L506.728 498.051L497.809 536.533Z" fill="white"/>
<path d="M566.861 479C578.71 479 588.266 487.706 588.266 498.556V540.444C588.266 551.294 578.71 560 566.861 560H540.487C540.487 560 540.232 558.107 542.27 558.107C544.309 558.107 544.436 548.897 544.436 548.393V490.607C544.436 490.103 544.309 480.893 542.27 480.893C540.232 480.893 540.487 479 540.487 479H566.861ZM575.525 540.444V498.556C575.525 490.229 568.772 483.416 560.49 483.416C559.343 483.416 558.324 483.542 557.305 483.794V555.206C558.324 555.458 559.343 555.584 560.49 555.584C568.772 555.584 575.525 548.771 575.525 540.444Z" fill="white"/>
<path d="M641.961 558.107C643.873 558.107 644 560 644 560H623.232C623.232 560 622.595 558.107 624.634 558.107C626.672 558.107 625.271 548.897 625.143 548.393L623.742 540.57C609.472 535.776 605.395 544.607 604.375 548.771C603.993 550.664 602.591 558.107 604.375 558.107C606.414 558.107 605.777 560 605.777 560H589.468C589.468 560 589.723 558.107 591.634 558.107C593.8 558.107 596.094 548.897 596.221 548.393L609.599 490.607C609.726 490.103 611.765 480.893 609.599 480.893C607.688 480.893 608.325 479 608.325 479H629.603C629.603 479 630.24 480.893 628.201 480.893C626.162 480.893 627.691 490.355 627.691 490.607L635.463 534.009C638.521 531.864 635.336 528.206 635.336 528.206C643.363 528.206 645.274 539.687 636.865 542.084L638.012 548.393C638.012 548.645 639.795 558.107 641.961 558.107ZM607.178 536.533C613.549 533.379 618.39 533.757 622.595 534.514L616.097 498.051L607.178 536.533Z" fill="white"/>
</svg>
