<svg width="397" height="230" viewBox="0 0 397 230" fill="none" xmlns="http://www.w3.org/2000/svg">
<path d="M107.11 160.304C110.607 160.304 110.642 171.215 104.383 171.46C101.655 171.53 99.8366 167.018 99.8366 163.347V137.713C99.8366 134.006 101.725 128.586 104.802 128.586C110.677 128.551 104.278 140.581 108.334 144.847C108.754 145.302 109.314 145.617 109.943 145.756C110.573 145.861 111.202 145.756 111.762 145.477C112.286 145.267 112.741 144.882 113.055 144.393C113.37 143.938 113.58 143.378 113.615 142.784C113.615 142.574 113.615 142.329 113.58 142.12C113.51 141.91 113.405 141.7 113.265 141.525C113.125 141.35 112.916 141.21 112.741 141.105C112.531 141 112.321 140.966 112.076 140.966C111.831 140.966 111.622 141.035 111.412 141.105C111.202 141.175 111.027 141.35 110.887 141.525C110.747 141.7 110.642 141.91 110.573 142.12C110.503 142.329 110.503 142.574 110.573 142.784V142.924C110.223 142.784 110.048 142.294 110.048 141.665C110.293 138.238 113.545 129.32 113.545 125.614C110.503 125.614 107.425 125.509 104.418 125.614C101.34 125.753 98.4378 127.117 96.3396 129.355C94.2414 131.593 93.0874 134.601 93.1573 137.713V163.521C93.1573 170.166 98.193 175.236 104.348 174.957C110.712 174.677 114.384 169.851 114.384 163.312C114.384 155.443 107.18 156.842 107.11 160.164V160.304Z" fill="white"/>
<path d="M87.0417 174.782C85.8877 174.817 84.9785 168.977 84.9085 168.872C84.7686 167.543 84.5238 166.249 84.314 164.955C88.7553 163.311 87.7411 156.212 83.5097 156.387C83.5097 156.387 85.1883 158.59 83.5797 159.989C82.8802 155.513 82.1459 151.072 81.5164 146.561C80.8869 142.084 80.1526 137.608 79.4532 133.062C79.4532 132.922 78.6838 127.012 79.7679 127.012C80.852 127.012 80.5023 125.858 80.5023 125.858H69.2768C69.2768 125.858 68.9271 127.047 69.9762 127.047C71.0253 127.047 70.0112 132.852 69.9762 133.167C68.8222 139.287 67.5283 145.372 66.3743 151.526C65.2202 157.681 64.0662 163.836 62.9122 169.991C62.8422 170.305 61.6183 176.25 60.4643 176.32C59.4501 176.355 59.3452 177.579 59.3452 177.579L67.9479 176.985C67.9479 176.985 68.2626 175.796 67.1786 175.866C66.1994 175.901 66.9338 171.145 67.1786 169.956C67.6682 167.298 69.8713 161.598 77.4249 164.256C77.6697 165.899 77.8795 167.508 78.1593 169.116C78.1942 169.431 78.9636 175.096 77.8445 175.201C76.7255 175.306 77.1451 176.425 77.1451 176.425C80.782 176.215 84.4539 176.006 88.0559 175.796C88.0559 175.796 87.9859 174.642 87.0067 174.712L87.0417 174.782ZM72.564 160.584C71.1652 160.863 69.8363 161.423 68.6473 162.262C69.4167 158.136 70.221 154.079 70.9903 150.023C71.7597 145.966 72.564 141.91 73.3333 137.853C73.9278 141.665 74.4524 145.477 75.0119 149.253C75.5365 153.03 76.1659 156.807 76.7954 160.584C75.3966 160.304 73.9628 160.304 72.564 160.584Z" fill="white"/>
<path d="M396.629 141.455C396.629 127.432 388.971 121.627 379.494 121.627H370.576C370.576 121.627 370.471 122.886 371.486 122.886C372.5 122.886 372.709 129.145 372.709 129.495V177.999C372.709 178.419 372.64 184.608 371.555 184.503C370.471 184.398 370.646 185.727 370.646 185.727C375.367 186.077 380.123 186.462 384.844 186.811C391.978 187.406 396.699 179.258 396.699 168.767C396.699 165.165 396.664 159.5 396.664 154.149C396.664 148.799 396.629 143.798 396.629 141.455ZM381.067 183.14C380.543 183.105 380.018 183 379.529 182.86V125.998C387.957 126.313 389.88 130.544 389.88 141.28V153.834C389.88 159.325 389.915 165.235 389.915 168.837C389.915 175.936 386.593 183.559 381.067 183.14Z" fill="white"/>
<path d="M365.26 161.178V161.248H365.225C365.225 161.248 362.148 160.094 362.148 163.836C362.148 166.529 361.099 177.125 355.993 176.985C354.769 176.95 353.51 176.845 352.321 176.74V162.507C353.021 162.542 357.532 162.927 357.532 164.29C357.532 165.549 358.511 165.409 358.511 165.409V156.982C358.511 156.982 357.532 156.772 357.532 158.031C357.532 159.395 353.021 159.36 352.321 159.36V129.215C353.58 129.215 354.874 129.215 356.168 129.25C362.672 129.425 355.643 142.294 359.735 147.26C360.12 147.749 360.644 148.099 361.239 148.239C361.833 148.379 362.463 148.344 363.057 148.099C363.617 147.854 364.106 147.47 364.456 146.945C364.806 146.421 364.98 145.826 365.015 145.232C365.015 144.113 364.246 143.133 363.477 143.133C362.533 143.063 361.868 144.043 361.868 145.127V145.267C361.693 145.092 361.553 144.882 361.483 144.637C361.414 144.392 361.379 144.148 361.483 143.903C361.728 140.091 364.911 130.299 364.911 126.138C357.812 126.103 350.678 126.103 343.614 126.068C343.614 126.068 343.474 127.292 344.523 127.292C345.572 127.292 345.642 133.202 345.642 133.691V171.739C345.642 172.229 345.572 178.139 344.523 178.034C343.474 177.964 343.614 179.223 343.614 179.223C350.887 179.677 358.126 180.167 365.4 180.692C364.456 175.971 364.141 171.11 364.491 166.284C364.596 164.535 364.911 162.857 365.4 161.178H365.26Z" fill="white"/>
<path d="M331.094 162.891C334.556 163.031 334.626 174.851 328.367 174.537C325.604 174.327 323.82 169.396 323.82 165.479V138.517C323.82 134.635 325.709 128.97 328.786 129.005C334.626 129.04 328.192 141.734 332.318 146.49C332.703 146.98 333.262 147.33 333.892 147.505C334.521 147.644 335.151 147.574 335.745 147.33C336.305 147.085 336.759 146.7 337.109 146.211C337.459 145.721 337.634 145.127 337.634 144.532C337.669 144.077 337.564 143.588 337.249 143.203C336.969 142.818 336.55 142.574 336.06 142.504C335.605 142.539 335.186 142.784 334.906 143.133C334.626 143.483 334.486 143.973 334.521 144.427V144.567C334.172 144.427 334.032 143.868 334.067 143.238C334.277 139.566 337.459 130.054 337.459 126.033C334.416 126.033 331.409 125.893 328.402 125.998C322.247 126.243 317.141 131.348 317.141 138.412V165.165C317.141 172.089 322.177 177.964 328.367 178.348C334.591 178.733 338.368 173.872 338.368 166.738C338.368 158.17 331.129 159.29 331.129 162.891H331.094Z" fill="white"/>
<path d="M33.8142 189.994C32.905 190.099 32.2755 191.078 32.2755 192.162V192.232C29.7577 192.477 27.5895 186.532 25.0716 180.132C22.5188 173.733 19.5114 166.704 15.245 164.955C19.0567 163.731 22.309 161.178 24.4072 157.751C26.7152 154.149 28.219 149.358 28.219 143.588C28.219 136.664 26.0858 131.174 22.6937 127.432C20.9451 125.543 18.8469 124.075 16.5039 123.061C14.1609 122.046 11.6081 121.557 9.05523 121.592H0.207744C0.207744 121.592 0.102833 122.921 1.18691 122.921C2.27099 122.921 2.30596 129.11 2.30596 129.635V179.083C2.30596 179.608 2.30596 185.797 1.18691 185.937C0.0678624 186.077 0.207744 187.371 0.207744 187.371C3.87963 186.986 7.55151 186.637 11.2584 186.252C11.2584 186.252 11.3633 184.923 10.2792 185.063C9.19512 185.168 9.09021 179.048 9.09021 178.524V165.34C11.0485 165.864 13.8462 171.285 16.6438 177.3C19.4414 183.279 22.274 189.714 24.2673 192.652C27.3797 197.303 32.4504 196.149 34.024 194.715C34.4437 194.365 34.7934 193.91 35.0382 193.421C35.283 192.931 35.3879 192.372 35.3879 191.812C35.3879 190.728 34.6885 189.924 33.8142 189.994ZM9.71967 162.087C9.50985 162.087 9.30003 162.122 9.09021 162.122V125.124C14.9302 125.229 21.7145 130.894 21.7145 143.518C21.7145 154.184 15.5947 161.703 9.71967 162.053V162.087Z" fill="white"/>
<path d="M51.892 162.157C51.892 164.745 50.8428 175.027 45.6672 175.621C44.4782 175.761 43.2193 175.831 42.0303 175.901V161.913C42.7297 161.878 47.2059 161.808 47.2059 163.102C47.2059 164.396 48.2201 164.116 48.2201 164.116V155.933C48.2201 155.933 47.2059 155.863 47.2059 157.052C47.2059 158.381 42.6948 158.765 42.0303 158.8V129.145C43.2893 129.11 44.5832 129.075 45.8421 129.11C52.3815 129.18 45.2476 141.875 49.4091 146.421C49.8287 146.875 50.3882 147.19 50.9827 147.295C51.5772 147.4 52.2067 147.295 52.7662 147.015C53.3257 146.736 53.7804 146.351 54.1301 145.826C54.4798 145.302 54.6546 144.707 54.6546 144.113C54.6546 143.064 53.9202 142.189 53.1159 142.224C52.6613 142.294 52.2067 142.539 51.9269 142.924C51.6122 143.308 51.4723 143.763 51.5073 144.253V144.392C51.5073 144.392 51.2275 144.043 51.1576 143.798C51.0876 143.588 51.0876 143.343 51.1576 143.099C51.3674 139.427 54.5147 129.95 54.5147 125.963L33.2178 126.068C33.2178 126.068 33.1129 127.327 34.162 127.292C35.2111 127.257 35.316 133.202 35.316 133.692V171.774C35.316 172.264 35.2461 178.174 34.162 178.279C33.0779 178.349 33.2178 179.608 33.2178 179.608C40.4916 179.083 47.7305 178.489 55.0043 177.894C54.0601 173.453 53.7454 168.872 54.0601 164.326C54.165 162.647 54.4798 161.003 54.9693 159.395C54.9693 159.395 51.9269 158.555 51.9269 162.157H51.892Z" fill="white"/>
<path d="M280.142 174.572H280.107C278.987 174.502 278.043 168.627 278.043 168.487C277.903 167.158 277.659 165.899 277.449 164.57C281.89 163.241 280.876 156.142 276.61 156.002C276.61 156.002 278.323 158.31 276.679 159.604C275.98 155.128 275.316 150.687 274.616 146.246C273.917 141.77 273.252 137.328 272.623 132.922C272.588 132.782 271.784 126.977 272.833 126.977C273.882 126.977 273.567 125.823 273.567 125.823C269.825 125.823 266.083 125.788 262.377 125.788C262.377 125.788 262.027 126.942 263.076 126.942C264.23 126.942 263.146 132.537 263.076 132.852C261.887 138.692 260.628 144.497 259.544 150.372C258.425 156.212 257.201 161.947 256.012 167.752C255.977 168.067 254.753 173.593 253.634 173.558C252.62 173.523 252.48 174.642 252.48 174.642L261.083 174.991C261.083 174.991 261.432 173.837 260.348 173.802C259.439 173.802 260.104 169.291 260.348 168.172C260.873 165.654 263.006 160.339 270.56 163.486C270.804 165.06 271.049 166.668 271.329 168.277C271.364 168.592 272.098 174.257 271.014 174.222C269.93 174.187 270.28 175.341 270.28 175.341C273.917 175.481 277.589 175.656 281.226 175.831C281.226 175.831 281.156 174.642 280.142 174.607V174.572ZM265.769 159.395C264.37 159.569 263.006 160.024 261.782 160.758C262.551 156.842 263.321 152.96 264.09 149.078C264.859 145.197 265.664 141.315 266.433 137.433C267.028 141.14 267.587 144.847 268.182 148.554C268.706 152.296 269.301 156.002 269.93 159.709C268.566 159.325 267.133 159.22 265.769 159.395Z" fill="white"/>
<path d="M219.015 129.075C217.966 127.991 216.707 127.117 215.308 126.522C213.909 125.928 212.44 125.613 210.902 125.613H197.019C197.019 125.613 196.879 126.732 197.963 126.732C199.047 126.732 199.082 132.152 199.082 132.467V166.563C199.082 166.878 199.012 172.333 197.963 172.333C196.914 172.333 197.019 173.417 197.019 173.417C201.6 173.417 206.251 173.522 210.867 173.627C212.371 173.627 213.874 173.348 215.238 172.788C216.637 172.228 217.896 171.389 218.945 170.305C219.994 169.221 220.833 167.962 221.393 166.563C221.952 165.164 222.232 163.696 222.197 162.192V137.328C222.197 135.824 221.952 134.321 221.393 132.922C220.833 131.523 219.994 130.229 218.945 129.145L219.015 129.075ZM215.588 162.052C215.588 166.948 211.986 170.97 207.65 170.9C207.055 170.9 206.496 170.83 205.936 170.62V128.446C206.496 128.306 207.055 128.201 207.65 128.201C212.021 128.236 215.588 132.327 215.588 137.223V162.052Z" fill="white"/>
<path d="M127.918 173.068C127.918 173.068 127.638 173.068 127.498 173.173C127.358 173.243 127.253 173.313 127.148 173.453C127.043 173.557 127.008 173.697 126.938 173.837C126.903 173.977 126.903 174.117 126.938 174.257C130.575 174.152 134.282 174.082 137.954 173.977C137.954 173.977 138.094 172.858 137.045 172.858C135.996 172.858 135.856 167.403 135.856 167.088V128.481H137.36C143.899 128.586 136.765 140.196 140.927 144.427C141.346 144.882 141.906 145.196 142.5 145.336C143.095 145.476 143.759 145.371 144.319 145.127C144.843 144.882 145.263 144.532 145.613 144.042C145.927 143.588 146.137 143.028 146.207 142.469C146.207 142.259 146.207 142.014 146.137 141.839C146.067 141.63 145.962 141.455 145.822 141.28C145.683 141.105 145.508 140.965 145.298 140.895C145.088 140.825 144.878 140.755 144.668 140.72C144.459 140.72 144.214 140.79 144.004 140.895C143.794 141 143.619 141.14 143.479 141.315C143.34 141.49 143.2 141.664 143.13 141.909C143.06 142.119 143.025 142.364 143.025 142.574V142.679C142.745 142.574 142.605 142.084 142.64 141.49C142.885 138.132 145.962 129.39 145.962 125.718C136.975 125.753 127.988 125.753 118.93 125.788C118.93 129.53 122.113 138.307 122.357 141.699C122.392 142.329 122.252 142.749 121.868 142.923C121.903 142.853 121.938 142.819 121.938 142.784C121.938 142.574 121.938 142.329 121.868 142.119C121.798 141.909 121.693 141.699 121.518 141.525C121.378 141.35 121.168 141.21 120.959 141.14C120.749 141.035 120.539 141 120.294 141C120.049 141 119.839 141.07 119.63 141.14C119.42 141.245 119.245 141.385 119.105 141.56C118.965 141.734 118.86 141.944 118.79 142.154C118.72 142.364 118.72 142.609 118.755 142.819C118.825 143.378 119.035 143.938 119.35 144.392C119.7 144.847 120.154 145.231 120.679 145.441C121.238 145.686 121.868 145.721 122.462 145.616C123.057 145.476 123.616 145.162 124.001 144.707C128.092 140.336 121.063 128.69 127.533 128.551C128.023 128.516 128.512 128.516 129.002 128.516V167.298C129.002 167.717 128.967 173.103 127.918 173.138V173.068Z" fill="white"/>
<path d="M181.426 161.912C181.635 163.451 181.88 164.955 182.16 166.493C182.195 166.808 182.964 172.194 181.845 172.194C180.726 172.194 181.146 173.313 181.146 173.313C184.783 173.313 188.455 173.348 192.091 173.348C192.091 173.348 192.022 172.229 191.042 172.229H191.007C189.853 172.229 188.909 166.633 188.874 166.493C188.734 165.234 188.49 164.011 188.28 162.787C192.721 161.423 191.707 154.638 187.475 154.603C187.475 154.603 189.119 156.772 187.545 158.031C186.846 153.764 186.112 149.498 185.482 145.231C184.853 140.965 184.118 136.699 183.489 132.432C183.454 132.292 182.684 126.662 183.769 126.662C184.853 126.662 184.503 125.578 184.503 125.578H173.277C173.277 125.578 172.893 126.697 173.977 126.697C175.061 126.697 174.047 132.118 173.977 132.397C172.823 138.098 171.529 143.763 170.445 149.428C169.326 155.093 168.102 160.828 166.913 166.528C166.878 166.843 165.584 172.298 164.535 172.298C163.486 172.298 163.381 173.418 163.381 173.418C166.248 173.418 169.081 173.383 171.984 173.348C171.984 173.348 172.298 172.229 171.214 172.229C170.305 172.264 171.004 167.857 171.214 166.738C171.739 164.255 173.907 159.045 181.461 161.877L181.426 161.912ZM174.991 148.169C175.76 144.357 176.565 140.58 177.334 136.804C177.929 140.406 178.453 143.973 179.048 147.539C179.642 151.071 180.167 154.743 180.796 158.275C178.033 157.611 175.096 158.066 172.648 159.499C173.417 155.723 174.222 151.981 174.991 148.134V148.169Z" fill="white"/>
<path d="M310.881 176.11C309.797 176.041 309.692 170.2 309.692 169.886V133.307C309.692 132.887 309.797 127.117 310.881 127.117C311.965 127.117 311.79 125.928 311.79 125.928C308.118 125.928 304.411 125.928 300.774 125.928C300.774 125.928 300.634 127.082 301.718 127.082C302.803 127.082 302.837 132.712 302.837 133.272V153.17C301.509 148.624 300.215 144.043 298.991 139.497C297.767 134.95 296.403 130.439 295.144 125.928C292.172 125.928 289.199 125.893 286.227 125.893C286.227 125.893 286.122 127.047 287.171 127.047C288.22 127.047 288.325 132.642 288.325 133.132V169.011C288.325 169.466 288.255 175.026 287.171 174.991C286.087 174.956 286.227 176.11 286.227 176.11C289.094 176.215 291.927 176.39 294.829 176.495C294.829 176.495 294.899 175.341 293.85 175.306C292.696 175.236 292.661 169.081 292.661 169.081V140.825C294.34 146.77 296.088 152.75 297.767 158.765C299.445 164.745 301.194 170.865 302.872 176.95C305.845 177.09 308.817 177.264 311.825 177.439C311.825 177.439 311.93 176.25 310.916 176.18L310.881 176.11Z" fill="white"/>
<path d="M243.111 173.138C242.132 173.103 243.076 167.613 243.111 167.298C244.3 161.528 245.489 155.793 246.643 150.023C247.797 144.252 249.021 138.447 250.21 132.677C250.28 132.362 251.469 126.837 252.588 126.837C253.707 126.837 253.707 125.683 253.707 125.683H245.174C245.174 125.683 244.86 126.802 245.874 126.802C247.028 126.802 245.909 132.467 245.874 132.642C244.79 137.678 243.81 142.714 242.796 147.714C241.782 152.715 240.733 157.716 239.719 162.752C238.915 157.681 238.11 152.68 237.341 147.679C236.572 142.679 235.837 137.608 235.068 132.607C235.033 132.293 234.124 126.767 235.278 126.767C236.327 126.802 236.012 125.648 236.012 125.648H224.961C224.961 125.648 225.031 126.767 226.046 126.767C227.165 126.767 228.144 132.397 228.179 132.572C229.088 138.272 229.962 144.043 230.836 149.813C231.711 155.583 232.655 161.318 233.564 167.088C233.634 167.228 234.403 172.928 233.284 172.893C232.27 172.893 232.55 174.012 232.55 174.012C236.292 174.117 239.999 174.222 243.775 174.327C243.775 174.327 244.09 173.208 243.076 173.173L243.111 173.138Z" fill="white"/>
<path fill-rule="evenodd" clip-rule="evenodd" d="M172.694 45.2751C172.694 45.5105 172.714 45.7411 172.729 45.9765C170.845 45.4026 168.966 44.814 167.122 44.2107L169.285 37.8486C170.673 38.3048 172.067 38.7512 173.45 39.1828C172.969 41.14 172.694 43.1757 172.694 45.2751Z" fill="white"/>
<path fill-rule="evenodd" clip-rule="evenodd" d="M161.244 35.0036L159.076 41.3852C158.262 41.0713 157.472 40.7525 156.678 40.4336L156.501 40.365L156.491 33.0955L161.249 35.0036H161.244Z" fill="white"/>
<path fill-rule="evenodd" clip-rule="evenodd" d="M206.186 39.109C205.838 39.0452 205.451 38.9864 205.083 38.9471C205.269 39.2562 205.47 39.5799 205.657 39.9085C205.863 40.2372 206.064 40.5609 206.25 40.8896C206.437 41.2182 206.638 41.5665 206.804 41.8902C206.495 42.6653 206.152 43.4844 205.76 44.3036C205.372 43.504 204.94 42.7094 204.47 41.9099C203.999 41.1103 203.528 40.3353 203.037 39.5995C202.856 39.2709 202.65 38.9667 202.444 38.6773C201.934 37.9219 201.423 37.2058 200.889 36.5289C200.663 36.2198 200.418 35.9157 200.192 35.6312C199.864 35.2241 199.54 34.8317 199.192 34.4638C199.01 34.2381 198.824 34.0125 198.618 33.7869C198.412 33.9929 198.211 34.2185 198.044 34.4393C197.695 34.8268 197.367 35.2143 197.023 35.6263C196.798 35.9108 196.553 36.2198 196.347 36.524C196.714 36.5043 197.082 36.5043 197.45 36.5043C197.838 36.4847 198.225 36.4847 198.618 36.4847C199.01 36.4847 199.393 36.4847 199.785 36.5043C200.295 37.1567 200.83 37.8729 201.34 38.6087C200.462 38.5449 199.559 38.5253 198.623 38.5253C197.686 38.5253 196.783 38.5449 195.905 38.6087C195.537 38.6087 195.169 38.6283 194.801 38.6675C193.904 38.7313 193.001 38.8098 192.162 38.9324C191.775 38.9717 191.407 39.0354 191.039 39.0943C190.529 39.1777 190.019 39.2562 189.528 39.3592C189.244 39.3984 188.954 39.4622 188.67 39.521C188.753 39.7859 188.832 40.0508 188.935 40.3402C189.097 40.8307 189.283 41.3212 189.489 41.8118C189.612 42.16 189.754 42.5083 189.896 42.8762C190.083 42.5475 190.244 42.2238 190.426 41.8951C190.612 41.5469 190.794 41.2182 191 40.8749C191.181 40.5462 191.387 40.2225 191.593 39.8938C192.432 39.7516 193.31 39.6486 194.213 39.5848C193.703 40.3206 193.232 41.0956 192.78 41.8951C192.31 42.6947 191.883 43.509 191.471 44.3085C191.309 44.6371 191.142 44.9413 190.98 45.2699C190.593 46.0695 190.225 46.8837 189.896 47.6637C189.754 48.0315 189.612 48.3798 189.465 48.7281C189.278 49.2186 189.097 49.7287 188.935 50.1996C188.832 50.4841 188.748 50.7735 188.67 51.0384C188.954 51.1022 189.244 51.1611 189.528 51.2003C190.019 51.3033 190.529 51.4063 191.064 51.4848C191.432 51.5437 191.799 51.5878 192.187 51.627C191.981 51.318 191.78 50.9943 191.613 50.6656C191.387 50.337 191.181 50.0132 191 49.665C190.813 49.3363 190.612 48.9881 190.446 48.6643C190.73 47.8648 191.078 47.0701 191.466 46.251C191.873 47.026 192.305 47.8255 192.776 48.6447C193.227 49.4442 193.717 50.2193 194.208 50.9747C194.394 51.2837 194.595 51.5878 194.801 51.8968C195.312 52.6522 195.822 53.3684 196.356 54.0453H196.376C196.582 54.3543 196.808 54.6388 197.028 54.9233C197.357 55.3305 197.705 55.7229 198.029 56.1104C198.211 56.336 198.417 56.5617 198.623 56.7628C198.829 56.5568 199.01 56.3556 199.196 56.13C199.545 55.7425 199.873 55.3305 200.217 54.9233C200.442 54.6388 200.668 54.3494 200.869 54.0453C200.501 54.0649 200.133 54.0649 199.765 54.0649C199.378 54.0845 199.01 54.0845 198.623 54.0845C198.235 54.0845 197.848 54.0845 197.455 54.0649C196.945 53.388 196.41 52.6964 195.9 51.9606C196.778 52.0244 197.681 52.044 198.618 52.044C199.555 52.044 200.437 52.0244 201.316 51.9606C201.703 51.9606 202.071 51.941 202.439 51.9017C203.336 51.838 204.219 51.7595 205.034 51.6369C205.421 51.5976 205.809 51.5535 206.177 51.4946C206.706 51.4112 207.221 51.3082 207.712 51.2101C207.996 51.1709 208.286 51.1071 208.57 51.0482C208.487 50.7834 208.408 50.4939 208.305 50.2094C208.144 49.7385 207.957 49.2284 207.776 48.7379C207.633 48.3896 207.491 48.0414 207.344 47.6735C207.158 48.0021 206.996 48.3504 206.79 48.6741C206.628 49.0028 206.422 49.351 206.235 49.6748C206.029 50.023 205.848 50.3517 205.622 50.6754C204.783 50.7981 203.925 50.9011 203.027 50.9845C203.518 50.2291 204.008 49.4491 204.46 48.6545C204.931 47.855 205.338 47.0799 205.75 46.3049V46.2853C205.936 45.937 206.098 45.6084 206.26 45.2846C206.647 44.4655 207.015 43.6708 207.344 42.8909C207.486 42.523 207.628 42.1747 207.751 41.8265C207.957 41.336 208.139 40.8454 208.305 40.3549C208.408 40.0704 208.492 39.8006 208.57 39.5357C208.286 39.472 207.996 39.4131 207.712 39.3739C207.221 39.2709 206.711 39.1875 206.177 39.109H206.186ZM198.618 48.6594C196.778 48.6594 195.233 47.1143 195.233 45.2748C195.233 43.4354 196.778 41.8902 198.618 41.8902C200.457 41.8902 202.002 43.4354 202.002 45.2748C202.002 47.1143 200.457 48.6594 198.618 48.6594Z" fill="white"/>
<path fill-rule="evenodd" clip-rule="evenodd" d="M240.694 50.2391V56.969C234.489 56.7188 228.313 56.2774 222.343 55.6691C223.251 53.604 223.888 51.4016 224.232 49.1011C229.603 49.6161 235.131 49.9987 240.698 50.244L240.694 50.2391Z" fill="white"/>
<path fill-rule="evenodd" clip-rule="evenodd" d="M198.619 21.3965C185.453 21.3965 174.74 32.1094 174.74 45.275C174.74 58.4405 185.453 69.1534 198.619 69.1534C211.784 69.1534 222.497 58.4405 222.497 45.275C222.497 32.1094 211.784 21.3965 198.619 21.3965ZM220.089 45.2848C220.089 48.2083 216.959 50.705 211.951 52.2796C211.809 51.6272 211.622 50.9699 211.397 50.2979C215.566 48.9686 218.043 47.0653 218.043 45.2897C218.043 43.514 215.571 41.6304 211.421 40.3011C211.156 40.2177 210.867 40.1392 210.582 40.0558C210.499 40.3207 210.421 40.6101 210.318 40.875C209.95 41.959 209.518 43.0823 208.988 44.2301C208.866 44.5784 208.704 44.9463 208.517 45.2946C208.679 45.6428 208.846 46.0107 209.008 46.359C209.498 47.5019 209.93 48.6301 210.298 49.7338C210.401 50.0183 210.479 50.2881 210.563 50.5529C210.788 51.2495 210.97 51.9019 211.137 52.5592C211.22 52.8437 211.279 53.1134 211.343 53.3783C211.446 53.9081 211.549 54.4231 211.627 54.9137C212.343 59.4313 211.544 62.6197 209.356 63.8902C208.704 64.258 207.968 64.4444 207.168 64.4444C205.246 64.4444 202.935 63.3996 200.443 61.3787C200.056 61.05 199.644 60.7263 199.256 60.3339C199.727 59.8826 200.218 59.3921 200.689 58.8623C201.037 59.191 201.385 59.4951 201.733 59.7845C204.495 62.036 206.967 62.914 208.336 62.1145C209.704 61.3395 210.175 58.7593 209.601 55.2423C209.538 54.791 209.44 54.3447 209.356 53.8934C209.292 53.6089 209.214 53.3391 209.15 53.0546C208.866 53.1135 208.576 53.1772 208.292 53.241C207.168 53.4666 205.962 53.6481 204.716 53.7707C204.328 53.8345 203.941 53.8738 203.548 53.8934C203.342 54.2024 203.117 54.5065 202.896 54.8156C202.16 55.8162 201.385 56.758 200.625 57.636C200.443 57.8617 200.237 58.0677 200.051 58.2688C199.58 58.7789 199.109 59.2695 198.619 59.7207C198.413 59.9464 198.212 60.1524 197.986 60.3339C197.598 60.7018 197.186 61.05 196.799 61.3787C194.302 63.4045 191.992 64.4444 190.074 64.4444C189.274 64.4444 188.539 64.258 187.886 63.8902C185.698 62.6246 184.879 59.4313 185.615 54.9137C185.698 54.4231 185.797 53.913 185.9 53.3783C186.532 53.5843 187.19 53.7462 187.881 53.8885C187.798 54.3397 187.695 54.7861 187.636 55.2374C187.062 58.7544 187.533 61.3296 188.902 62.1096C190.27 62.9091 192.747 62.0262 195.504 59.7796C195.852 59.4951 196.2 59.1861 196.549 58.8574C196.755 58.671 196.98 58.4895 197.181 58.2639C196.975 58.0579 196.794 57.8568 196.588 57.6311C195.833 56.7531 195.077 55.8113 194.317 54.8106C194.091 54.5016 193.885 54.1975 193.664 53.8885C193.277 53.8689 192.889 53.8296 192.522 53.7658C191.276 53.6432 190.069 53.4568 188.946 53.2361C188.661 53.1772 188.372 53.1134 188.087 53.0497C187.391 52.9074 186.738 52.7407 186.106 52.5592C185.821 52.4758 185.551 52.3973 185.286 52.2943C180.278 50.7197 177.149 48.2279 177.149 45.2995C177.149 42.3711 180.259 39.9038 185.247 38.3488C185.409 38.9816 185.595 39.6389 185.821 40.3109C181.671 41.6402 179.199 43.5189 179.199 45.2995C179.199 47.0801 181.671 48.9784 185.846 50.3077C186.11 50.3911 186.4 50.4695 186.684 50.5529C186.768 50.2881 186.846 50.0232 186.949 49.7338C187.317 48.6301 187.749 47.5068 188.239 46.359C188.401 46.0107 188.568 45.6428 188.73 45.2946C188.548 44.9463 188.382 44.5784 188.259 44.2301C187.729 43.0872 187.298 41.959 186.93 40.875C186.827 40.6101 186.748 40.3207 186.665 40.0558C186.439 39.3593 186.258 38.7069 186.11 38.0496C186.027 37.7651 185.949 37.4757 185.904 37.2108C184.762 32.0996 185.375 28.1509 187.886 26.7039C190.403 25.2323 194.14 26.7039 198.025 30.2405C197.535 30.6918 197.044 31.202 196.554 31.7317C194.018 29.4214 191.707 28.1951 190.093 28.1951C189.642 28.1951 189.255 28.2785 188.906 28.4796C187.371 29.3576 186.964 32.4479 187.886 36.7007C187.945 36.9656 188.009 37.255 188.092 37.5591C188.377 37.5002 188.666 37.4365 188.951 37.3972C190.074 37.152 191.261 36.9656 192.507 36.8429C192.894 36.7792 193.282 36.7399 193.674 36.7203C193.88 36.3917 194.106 36.0875 194.327 35.7785C195.062 34.7975 195.818 33.8557 196.598 32.9776C196.779 32.752 196.985 32.546 197.191 32.3449C197.662 31.8151 198.153 31.3001 198.643 30.8537C198.849 30.6281 199.075 30.422 199.276 30.2405C199.664 29.8923 200.051 29.544 200.443 29.2399C204 26.336 207.168 25.4384 209.356 26.7039C211.873 28.1558 212.486 32.0996 211.338 37.2108C210.705 37.0048 210.048 36.8429 209.356 36.7007C210.278 32.4479 209.866 29.3625 208.336 28.4796C208.007 28.2736 207.6 28.1951 207.149 28.1951C205.761 28.1951 203.818 29.1173 201.729 30.8145C201.38 31.099 201.052 31.3884 200.708 31.7121C200.502 31.8985 200.277 32.08 200.076 32.3056C200.257 32.5116 200.463 32.7373 200.649 32.958C201.405 33.8361 202.16 34.7778 202.921 35.7785C203.146 36.0875 203.372 36.3917 203.597 36.7203C203.985 36.7399 204.353 36.7792 204.721 36.8429C205.986 36.9656 207.173 37.152 208.321 37.3972C208.606 37.4365 208.895 37.5002 209.16 37.5591C209.856 37.7013 210.509 37.8681 211.142 38.0496C211.426 38.133 211.716 38.2115 212 38.3341C216.989 39.8891 220.099 42.3809 220.099 45.2848H220.089Z" fill="white"/>
<path fill-rule="evenodd" clip-rule="evenodd" d="M161.696 33.6643C161.823 33.2866 162.093 32.9776 162.451 32.801C162.814 32.6244 163.226 32.595 163.599 32.7274L168.833 34.508C169.21 34.6356 169.519 34.9053 169.696 35.2683C169.872 35.6313 169.897 36.0384 169.769 36.4161L169.681 36.6761C170.996 37.1176 172.35 37.5492 173.752 37.9809C176.911 27.2287 186.854 19.351 198.612 19.351C212.906 19.351 224.536 30.9812 224.536 45.2749C224.536 46.1431 224.492 47.0015 224.403 47.8501C229.686 48.3701 235.126 48.7527 240.689 48.9832V32.5067C240.694 8.91764 218.763 0 198.592 0C178.422 0 156.967 8.74105 156.511 31.7513C158.125 32.4429 159.822 33.1346 161.642 33.8311L161.7 33.6643H161.696ZM225.007 40.561C224.963 40.3305 224.919 40.0999 224.869 39.8645L227.356 39.0551L227.572 39.7222L225.002 40.5561L225.007 40.561ZM228.843 35.4547C229.186 36.5044 228.897 37.6032 228.2 38.3635L226.611 33.4779C227.621 33.6839 228.499 34.405 228.838 35.4547H228.843ZM227.023 38.025L224.61 38.8099C224.477 38.2065 224.3 37.5983 224.104 36.9949C223.908 36.3916 223.692 35.7981 223.447 35.2291L225.86 34.4443L227.023 38.0201V38.025ZM225.311 32.7471L225.527 33.4142L223.04 34.2235C222.937 34.0028 222.839 33.7919 222.741 33.5809L225.311 32.7471ZM208.29 17.4232L207.726 20.0671C207.505 19.9936 207.284 19.9151 207.054 19.8366L207.598 17.2761L208.285 17.4232H208.29ZM205.224 14.1907C206.303 14.4213 207.113 15.2159 207.422 16.2018L202.399 15.1325C203.086 14.3624 204.145 13.9602 205.224 14.1907ZM202.86 16.2705L206.539 17.0504L206.014 19.5325C205.425 19.3461 204.812 19.194 204.189 19.0616C203.571 18.9291 202.943 18.8163 202.33 18.7525L202.855 16.2705H202.86ZM201.114 15.8977L201.8 16.0449L201.256 18.6054C201.016 18.5809 200.785 18.5612 200.55 18.5416L201.114 15.8977ZM174.998 24.0109C175.739 23.1868 176.833 22.8925 177.839 23.1133L174.4 26.9295C174.076 25.9485 174.258 24.8301 174.998 24.0109ZM176.431 30.2356L174.424 28.4256L174.895 27.9007L176.838 29.6519C176.701 29.8481 176.563 30.0394 176.431 30.2307V30.2356ZM178.702 27.3415C178.28 27.8124 177.868 28.298 177.505 28.7935L175.621 27.0963L178.138 24.3003L180.021 25.9975C179.565 26.4145 179.124 26.8706 178.702 27.3415ZM180.806 25.247L178.859 23.4959L179.33 22.971L181.336 24.781C181.159 24.9331 180.983 25.0901 180.801 25.247H180.806ZM175.244 9.08932C180.051 6.16583 185.569 4.61088 191.21 4.61088C192.333 4.61088 193.437 4.69427 194.565 4.79728C188.532 4.90029 182.582 6.43071 177.27 9.29534C171.933 12.16 167.376 16.246 163.962 21.2346C166.537 16.2264 170.441 12.0324 175.249 9.08932H175.244Z" fill="white"/>
<path fill-rule="evenodd" clip-rule="evenodd" d="M257.637 56.1645C257.637 56.1645 257.602 56.1399 257.587 56.1252C257.48 56.0173 257.347 55.9339 257.229 55.8309C256.984 55.6151 256.739 55.3895 256.469 55.208C255.218 54.3643 253.737 53.9032 252.202 53.9032C249.082 53.9032 246.046 55.7132 243.995 58.0137C243.186 58.8574 242.332 59.706 241.449 60.5203C241.224 60.7459 240.974 60.9618 240.709 61.1776V58.1511C240.606 58.1511 240.527 58.1511 240.424 58.1315C240.218 58.1315 240.017 58.1315 239.831 58.1118C235.171 57.9058 230.609 57.6213 226.13 57.2338C226.072 57.2338 226.008 57.2142 225.949 57.2142C224.929 57.1112 223.884 57.0082 222.883 56.9052C222.515 56.8855 222.167 56.8414 221.799 56.8021C221.78 56.8414 221.74 56.9052 221.716 56.9444C221.471 57.4349 221.225 57.9058 220.941 58.3571C219.94 60.0935 218.714 61.7122 217.321 63.1397C216.972 63.5075 216.624 63.8558 216.256 64.1845C215.785 64.6357 215.315 65.0429 214.824 65.4304C210.39 69.0063 204.763 71.1547 198.632 71.1547C185.015 71.1547 173.831 60.5841 172.811 47.2125C170.726 46.5994 168.701 45.9666 166.758 45.3093L166.675 45.4957C166.552 45.8832 166.287 46.1922 165.919 46.3737C165.713 46.4767 165.488 46.516 165.267 46.516C165.105 46.516 164.938 46.4963 164.776 46.4326L159.543 44.652C158.767 44.3871 158.336 43.5287 158.601 42.7488L158.704 42.4839C157.948 42.1994 157.252 41.91 156.536 41.6255L156.555 61.0893L155.049 59.8139C154.436 59.2155 153.828 58.6171 153.225 58.0137C151.169 55.723 148.187 53.9032 145.018 53.9032C144.022 53.9032 143.032 54.0994 142.114 54.482C141.197 54.8646 140.353 55.4189 139.647 56.1252C139.637 56.135 139.632 56.1449 139.627 56.1498C139.623 56.1498 139.618 56.1596 139.613 56.1645C139.466 56.3165 139.353 56.4931 139.22 56.655C139.044 56.8708 138.848 57.0719 138.695 57.3025C138.691 57.3123 138.681 57.3221 138.671 57.3319C138.529 57.5379 138.406 57.739 138.283 57.9647C138.161 58.1903 138.058 58.416 137.955 58.6416C137.852 58.8672 137.768 59.1125 137.71 59.3381C137.503 60.0543 137.381 60.7901 137.381 61.5455C137.381 69.6636 158.316 83.4226 164.757 86.5914C175.288 91.786 186.918 94.4838 198.656 94.4642C210.395 94.4838 221.986 91.8056 232.517 86.5914C238.958 83.4226 259.893 69.6636 259.893 61.5455C259.893 59.5196 259.074 57.6017 257.646 56.1694L257.637 56.1645ZM222.962 63.9343C223.124 64.8123 222.903 65.7737 222.246 66.4899C221.794 67.0197 221.181 67.3091 220.548 67.4121C220.161 67.4955 219.773 67.4709 219.405 67.3925L222.859 63.5713C222.898 63.6939 222.942 63.8166 222.962 63.9392V63.9343ZM220.813 60.275L222.839 62.0752L222.368 62.605L220.406 60.8489C220.548 60.6429 220.691 60.4614 220.813 60.275ZM218.547 63.1544C218.979 62.6835 219.386 62.193 219.754 61.7024L219.837 61.7858L221.637 63.3996L219.45 65.8326L219.121 66.2005L217.242 64.5033C217.694 64.0962 218.14 63.6253 218.552 63.1544H218.547ZM216.438 65.2636L216.521 65.347L218.4 67.0049L218.012 67.4366L217.929 67.5396L215.903 65.7198C216.09 65.5775 216.271 65.4108 216.433 65.2685L216.438 65.2636ZM195.973 71.969L195.993 71.9052C196.238 71.9249 196.464 71.9445 196.709 71.969L196.135 74.608L195.704 74.505L195.458 74.4657L195.968 71.969H195.973ZM191.23 71.0468L191.25 70.9634C191.824 71.1498 192.437 71.3117 193.069 71.4343C193.683 71.5766 194.315 71.6796 194.909 71.7434L194.399 74.2401L194.154 74.1812L190.72 73.4455L191.23 71.0517V71.0468ZM194.85 75.3634C194.418 75.8539 193.869 76.1826 193.256 76.3052C192.868 76.3886 192.437 76.4082 192.03 76.3052C191.107 76.1188 190.396 75.5056 190.028 74.7306C189.945 74.5884 189.886 74.4461 189.842 74.299L194.85 75.3634ZM189.513 70.5171L189.533 70.4337C189.758 70.5171 189.965 70.5759 190.21 70.6593L189.655 73.2149L189.062 73.0923L188.959 73.0727L189.513 70.5171ZM174.219 56.2675C174.322 56.4931 174.425 56.7188 174.503 56.9199H174.484L171.948 57.7587L171.722 57.0817L174.175 56.2822L174.214 56.2626L174.219 56.2675ZM172.644 51.686C172.767 52.2992 172.953 52.9123 173.135 53.5059C173.341 54.119 173.566 54.7125 173.812 55.2619L171.398 56.0615L171.315 55.8162L170.231 52.4856L172.581 51.7106L172.644 51.6909V51.686ZM172.218 49.9692L172.257 49.9496C172.296 50.1752 172.34 50.4009 172.379 50.6461L169.907 51.4457L169.726 50.8914L169.686 50.7884L172.222 49.9692H172.218ZM168.902 52.3188C168.941 52.255 168.985 52.1962 169.044 52.1324L170.638 57.018C170.393 56.9787 170.167 56.8953 169.942 56.7923C169.922 56.7923 169.902 56.7727 169.902 56.7727C169.225 56.4244 168.676 55.8309 168.411 55.0363C168.082 54.0749 168.308 53.0546 168.902 52.3188ZM219.44 78.282C212.901 80.9112 205.813 82.2748 198.642 82.2748C191.47 82.2748 184.387 80.9161 177.844 78.282C171.29 75.6381 165.419 71.763 160.641 66.9412C170.947 75.6773 184.53 80.5237 198.642 80.5089C212.739 80.5335 226.322 75.6724 236.613 66.9412C231.83 71.7777 225.978 75.6381 219.44 78.282Z" fill="white"/>
<path fill-rule="evenodd" clip-rule="evenodd" d="M162.892 34.3266L159.939 42.9941C159.865 43.205 159.978 43.4356 160.189 43.5042L164.957 45.1279C165.168 45.2014 165.398 45.0886 165.467 44.8777L168.42 36.2151C168.494 36.0042 168.381 35.7737 168.17 35.705L163.397 34.0765C163.186 34.0029 162.956 34.1157 162.887 34.3266H162.892Z" fill="white"/>
<path d="M143.337 220.103C143.337 217.823 148.988 216.942 148.988 222.331C148.988 226.787 146.11 230 141.191 230C136.377 230 132.452 226.425 132.452 221.968V204.764C132.452 200.204 136.482 196.991 141.243 196.732H148.308C148.308 199.271 145.796 205.282 145.639 207.614C145.587 208.029 145.744 208.34 146.005 208.443V208.34C146.005 207.666 146.529 207.096 147.209 207.096C147.889 207.096 148.413 207.666 148.413 208.34C148.413 209.117 147.785 209.842 146.947 210.153C146.215 210.412 145.168 210.464 144.331 209.687C141.139 206.733 146.11 198.649 141.557 198.649C139.15 198.649 137.685 202.277 137.685 204.764V221.968C137.685 224.455 139.098 227.565 141.243 227.565C146.11 227.565 146.058 220.103 143.337 220.103Z" fill="white"/>
<path d="M172.339 229.223C173.124 229.223 173.177 230 173.177 230H164.647C164.647 230 164.385 229.223 165.223 229.223C166.06 229.223 165.484 225.44 165.432 225.233L164.856 222.02C158.995 220.051 157.321 223.678 156.902 225.388C156.745 226.165 156.17 229.223 156.902 229.223C157.74 229.223 157.478 230 157.478 230H150.78C150.78 230 150.884 229.223 151.669 229.223C152.559 229.223 153.501 225.44 153.553 225.233L159.048 201.5C159.1 201.292 159.937 197.509 159.048 197.509C158.263 197.509 158.524 196.732 158.524 196.732H167.263C167.263 196.732 167.525 197.509 166.688 197.509C165.851 197.509 166.479 201.396 166.479 201.5L169.671 219.325C170.927 218.444 169.618 216.942 169.618 216.942C172.915 216.942 173.7 221.657 170.246 222.642L170.717 225.233C170.717 225.336 171.45 229.223 172.339 229.223ZM158.054 220.362C160.67 219.066 162.659 219.222 164.385 219.533L161.717 204.557L158.054 220.362Z" fill="white"/>
<path d="M194.787 229.223C195.624 229.223 195.519 230 195.519 230H188.56L180.605 206.578V225.181C180.605 225.181 180.658 229.223 181.547 229.223C182.332 229.223 182.28 230 182.28 230H175.582C175.582 230 175.477 229.223 176.314 229.223C177.152 229.223 177.204 225.544 177.204 225.233V201.5C177.204 201.189 177.152 197.509 176.314 197.509C175.477 197.509 175.582 196.732 175.582 196.732H182.542L188.56 214.506V201.5C188.56 201.189 188.507 197.509 187.67 197.509C186.833 197.509 186.937 196.732 186.937 196.732H195.519C195.519 196.732 195.624 197.509 194.787 197.509C193.949 197.509 193.845 201.24 193.845 201.5V225.233C193.845 225.44 193.949 229.223 194.787 229.223Z" fill="white"/>
<path d="M218.945 229.223C219.73 229.223 219.783 230 219.783 230H211.253C211.253 230 210.991 229.223 211.829 229.223C212.666 229.223 212.09 225.44 212.038 225.233L211.462 222.02C205.601 220.051 203.927 223.678 203.508 225.388C203.351 226.165 202.776 229.223 203.508 229.223C204.345 229.223 204.084 230 204.084 230H197.386C197.386 230 197.49 229.223 198.275 229.223C199.165 229.223 200.107 225.44 200.159 225.233L205.654 201.5C205.706 201.292 206.543 197.509 205.654 197.509C204.869 197.509 205.13 196.732 205.13 196.732H213.869C213.869 196.732 214.131 197.509 213.294 197.509C212.457 197.509 213.084 201.396 213.084 201.5L216.277 219.325C217.532 218.444 216.224 216.942 216.224 216.942C219.521 216.942 220.306 221.657 216.852 222.642L217.323 225.233C217.323 225.336 218.056 229.223 218.945 229.223ZM204.659 220.362C207.276 219.066 209.264 219.222 210.991 219.533L208.322 204.557L204.659 220.362Z" fill="white"/>
<path d="M233.02 196.732C237.887 196.732 241.811 200.308 241.811 204.764V221.968C241.811 226.425 237.887 230 233.02 230H222.188C222.188 230 222.083 229.223 222.92 229.223C223.758 229.223 223.81 225.44 223.81 225.233V201.5C223.81 201.292 223.758 197.509 222.92 197.509C222.083 197.509 222.188 196.732 222.188 196.732H233.02ZM236.578 221.968V204.764C236.578 201.344 233.805 198.546 230.403 198.546C229.932 198.546 229.514 198.598 229.095 198.701V228.031C229.514 228.135 229.932 228.186 230.403 228.186C233.805 228.186 236.578 225.388 236.578 221.968Z" fill="white"/>
<path d="M263.865 229.223C264.65 229.223 264.702 230 264.702 230H256.172C256.172 230 255.911 229.223 256.748 229.223C257.585 229.223 257.01 225.44 256.957 225.233L256.382 222.02C250.521 220.051 248.846 223.678 248.428 225.388C248.271 226.165 247.695 229.223 248.428 229.223C249.265 229.223 249.003 230 249.003 230H242.305C242.305 230 242.41 229.223 243.195 229.223C244.084 229.223 245.026 225.44 245.079 225.233L250.573 201.5C250.626 201.292 251.463 197.509 250.573 197.509C249.788 197.509 250.05 196.732 250.05 196.732H258.789C258.789 196.732 259.051 197.509 258.213 197.509C257.376 197.509 258.004 201.396 258.004 201.5L261.196 219.325C262.452 218.444 261.144 216.942 261.144 216.942C264.441 216.942 265.225 221.657 261.772 222.642L262.243 225.233C262.243 225.336 262.975 229.223 263.865 229.223ZM249.579 220.362C252.195 219.066 254.184 219.222 255.911 219.533L253.242 204.557L249.579 220.362Z" fill="white"/>
</svg>
