<svg width="1799" height="342" viewBox="0 0 1799 342" fill="none" xmlns="http://www.w3.org/2000/svg">
<g clip-path="url(#clip0_1626_29)">
<path d="M39.0603 5.21924H302.739C321.474 5.21924 336.663 20.4094 336.663 39.1465V302.853C336.663 321.591 321.474 336.781 302.739 336.781H39.0603C20.3252 336.781 5.13672 321.591 5.13672 302.853V38.2726C5.59931 20.2295 20.1453 5.69473 38.1865 5.23209H39.0603V5.21924Z" fill="black"/>
<path d="M302.773 0.0786133H38.0651C17.2591 0.618365 0.539748 17.3378 0 38.2082V39.1464V240.101V302.854C0 324.392 17.529 341.921 39.0675 341.921H302.773C324.311 341.921 341.84 324.392 341.84 302.854V39.1464C341.84 17.6077 324.311 0.0786133 302.773 0.0786133ZM10.2809 39.2106V38.401C10.6793 23.0695 22.9907 10.758 38.2579 10.3725H39.106H302.773C318.644 10.3725 331.56 23.288 331.56 39.1592V55.7758L207.7 179.649L154.779 126.728C143.367 115.316 124.772 115.316 113.347 126.728L10.2809 229.807V39.2106ZM302.773 331.64H39.0675C23.1963 331.64 10.2809 318.725 10.2809 302.854V285.067L134.076 161.246L186.997 214.154C198.422 225.579 217.004 225.579 228.429 214.154L331.572 110.998V302.841C331.572 318.712 318.657 331.627 302.786 331.627L302.773 331.64Z" fill="url(#paint0_linear_1626_29)"/>
<path d="M420.262 34.8908V17.7227H543.621V34.8908H491.7V177.593H472.393V34.8908H420.262Z" fill="white"/>
<path d="M579.123 180.167C568.04 180.167 558.582 177.625 550.748 172.553C542.913 167.47 536.924 160.478 532.78 151.578C528.636 142.667 526.559 132.532 526.559 121.164C526.559 109.796 528.741 99.4299 533.096 90.4767C537.451 81.5447 543.503 74.5108 551.222 69.3856C558.941 64.271 567.808 61.7085 577.826 61.7085C588.338 61.7085 597.459 64.2183 605.178 69.2169C612.896 74.226 618.854 81.1967 623.04 90.1393C627.226 99.0819 629.314 109.416 629.314 121.143V126.184H544.568C545.001 137.278 548.175 146.284 554.111 153.223C560.048 160.162 568.378 163.631 579.101 163.631C587.179 163.631 593.779 161.765 598.893 158.052C603.997 154.34 607.413 149.542 609.143 143.679H627.384C625.95 150.903 622.987 157.251 618.485 162.724C613.982 168.197 608.352 172.468 601.593 175.548C594.834 178.627 587.337 180.167 579.123 180.167ZM544.79 110.534H611.083C610.081 100.6 606.612 92.6913 600.675 86.8174C594.739 80.9541 587.126 78.0224 577.836 78.0224C568.547 78.0224 560.955 80.9541 555.092 86.8174C549.219 92.6913 545.792 100.59 544.79 110.534Z" fill="white"/>
<path d="M692.509 180.167C682.07 180.167 672.897 177.646 664.999 172.606C657.101 167.565 650.943 160.605 646.546 151.736C642.149 142.867 639.945 132.669 639.945 121.164C639.945 109.659 642.149 99.3139 646.546 90.3712C650.943 81.4391 657.091 74.4263 664.999 69.3434C672.897 64.2604 682.07 61.7295 692.509 61.7295C701.093 61.7295 708.769 63.4379 715.57 66.8335C722.361 70.2292 727.918 74.9009 732.251 80.838C736.575 86.7752 739.242 93.5771 740.244 101.223H721.791C720.431 94.5684 717.31 89.0847 712.407 84.7505C707.504 80.4268 700.882 78.2544 692.509 78.2544C681.849 78.2544 673.498 82.1457 667.456 89.9494C661.414 97.7426 658.388 108.151 658.388 121.175C658.388 134.199 661.393 144.343 667.403 152.073C673.413 159.793 681.775 163.663 692.499 163.663C701.008 163.663 707.514 161.564 712.017 157.378C716.519 153.191 719.672 147.634 721.454 140.695H740.223C739.221 148.14 736.553 154.836 732.23 160.816C727.907 166.784 722.329 171.509 715.496 174.978C708.663 178.448 700.998 180.177 692.488 180.177H692.499L692.509 180.167Z" fill="white"/>
<path d="M774.472 111.283V177.593H756.23V17.7227H774.472V80.1629C778.405 74.0149 783.171 69.4697 788.792 66.5381C794.401 63.6064 800.717 62.1406 807.719 62.1406C815.374 62.1406 822.344 63.8067 828.628 67.1286C834.924 70.4505 839.943 75.4385 843.707 82.0928C847.461 88.747 849.339 97.1096 849.339 107.202V177.593H831.096V108.499C831.096 98.702 828.755 91.3201 824.063 86.3426C819.371 81.3756 812.78 78.8869 804.271 78.8869C795.762 78.8869 789.013 81.4284 783.193 86.5008C777.362 91.5838 774.451 99.8409 774.451 111.283H774.472Z" fill="white"/>
<path d="M874.367 177.593V17.7227H907.413V149.268H980.033V177.593H874.367Z" fill="white"/>
<path d="M1043.2 180.166C1031.76 180.166 1021.8 177.625 1013.33 172.553C1004.85 167.47 998.273 160.478 993.592 151.577C988.899 142.666 986.559 132.49 986.559 121.048C986.559 109.606 988.931 99.303 993.687 90.3604C998.442 81.4283 1005 74.4156 1013.36 69.3326C1021.72 64.2497 1031.31 61.7188 1042.11 61.7188C1052.9 61.7188 1063.01 64.2074 1071.35 69.1744C1079.68 74.1413 1086.18 81.0488 1090.86 89.8859C1095.56 98.7231 1097.9 108.9 1097.9 120.415V128.894H1017.35C1017.63 137.257 1020.1 143.953 1024.75 148.962C1029.4 153.971 1035.86 156.471 1044.16 156.471C1050.31 156.471 1055.43 155.152 1059.56 152.505C1063.67 149.859 1066.43 146.357 1067.87 141.981H1096.72C1095.36 149.489 1092.18 156.112 1087.17 161.828C1082.16 167.554 1075.88 172.036 1068.3 175.294C1060.72 178.553 1052.36 180.177 1043.2 180.177H1043.21L1043.2 180.166ZM1017.57 108.71H1068.09C1067.3 101.623 1064.67 96.034 1060.2 91.9212C1055.73 87.819 1049.92 85.752 1042.77 85.752C1035.62 85.752 1029.93 87.8085 1025.5 91.9212C1021.06 96.0445 1018.42 101.634 1017.56 108.71H1017.57Z" fill="white"/>
<path d="M1146.73 179.523C1135.44 179.523 1126.12 176.697 1118.79 171.044C1111.46 165.392 1107.79 156.924 1107.79 145.619C1107.79 137.109 1109.83 130.444 1113.91 125.614C1117.98 120.784 1123.38 117.273 1130.11 115.048C1136.82 112.833 1144.12 111.357 1152 110.65C1162.36 109.574 1169.62 108.509 1173.77 107.434C1177.91 106.358 1179.99 103.996 1179.99 100.347V99.5985C1179.99 95.4541 1178.35 92.0584 1175.05 89.4115C1171.77 86.7645 1167.21 85.4463 1161.42 85.4463C1155.63 85.4463 1150.81 86.8067 1147.17 89.5275C1143.52 92.2482 1141.51 95.7915 1141.16 100.147H1111.44C1112.16 88.4835 1116.96 79.2139 1125.81 72.3066C1134.68 65.3992 1146.87 61.9614 1162.39 61.9614C1177.91 61.9614 1189.92 65.4203 1198.42 72.3066C1206.94 79.2034 1211.19 88.7049 1211.19 100.79V177.614H1180.3V161.627H1179.86C1176.86 167.132 1172.75 171.498 1167.53 174.725C1162.31 177.941 1155.37 179.555 1146.71 179.555H1146.74L1146.73 179.523ZM1155.53 157.525C1163.11 157.525 1169.12 155.5 1173.55 151.461C1177.99 147.422 1180.19 142.329 1180.19 136.17V124.802C1178.4 125.804 1175.44 126.721 1171.29 127.533C1167.15 128.356 1162.53 129.168 1157.45 129.948C1152.02 130.813 1147.43 132.363 1143.67 134.62C1139.91 136.877 1138.03 140.251 1138.03 144.754C1138.03 148.762 1139.63 151.883 1142.81 154.14C1146 156.397 1150.22 157.515 1155.52 157.515L1155.53 157.525Z" fill="white"/>
<path d="M1273.19 179.945C1263.33 179.945 1254.71 177.477 1247.35 172.542C1239.98 167.607 1234.27 160.699 1230.24 151.831C1226.2 142.962 1224.18 132.627 1224.18 120.827C1224.18 109.026 1226.24 99.0078 1230.35 90.139C1234.46 81.2702 1240.19 74.3523 1247.51 69.3854C1254.84 64.4184 1263.34 61.9296 1272.99 61.9296C1280.29 61.9296 1286.76 63.4166 1292.41 66.3799C1298.06 69.3432 1302.71 73.8778 1306.35 79.952H1306.47V17.7227H1338.01V177.593H1306.9V160.214H1306.78C1303.51 166.795 1298.94 171.741 1293.12 175.02C1287.29 178.31 1280.66 179.956 1273.21 179.956H1273.19V179.945ZM1281.35 154.203C1289.35 154.203 1295.79 151.177 1300.66 145.134C1305.52 139.091 1307.94 130.992 1307.94 120.827C1307.94 110.661 1305.52 102.657 1300.66 96.5823C1295.79 90.4976 1289.35 87.4604 1281.35 87.4604C1273.35 87.4604 1267.57 90.371 1262.95 96.2027C1258.33 102.034 1256.02 110.239 1256.02 120.827C1256.02 131.414 1258.33 139.619 1262.95 145.45C1267.57 151.282 1273.7 154.193 1281.35 154.193V154.203Z" fill="white"/>
<path d="M1433.42 180.167C1418.69 180.167 1405.79 176.644 1394.7 169.6C1383.62 162.555 1374.99 152.832 1368.81 140.42C1362.62 128.008 1359.53 113.793 1359.53 97.7741C1359.53 81.7554 1362.61 67.3185 1368.75 54.9064C1374.9 42.4942 1383.54 32.7607 1394.65 25.7268C1405.78 18.6824 1418.7 15.1602 1433.43 15.1602C1444.59 15.1602 1454.78 17.3642 1464 21.7617C1473.23 26.1592 1480.93 32.4232 1487.11 40.5328C1493.29 48.6423 1497.36 58.281 1499.29 69.4487H1479.55C1476.98 57.7853 1471.56 48.8321 1463.31 42.5681C1455.04 36.304 1445.08 33.1825 1433.42 33.1825C1421.76 33.1825 1412.51 35.9138 1404.36 41.387C1396.21 46.8601 1389.92 54.4424 1385.48 64.1337C1381.05 73.8357 1378.83 85.0456 1378.83 97.7741C1378.83 110.503 1381.05 121.596 1385.48 131.246C1389.92 140.905 1396.21 148.467 1404.36 153.94C1412.51 159.413 1422.19 162.144 1433.42 162.144C1444.65 162.144 1454.84 159.023 1463.14 152.811C1471.44 146.589 1476.94 137.678 1479.66 126.089H1499.28C1497.35 137.183 1493.32 146.758 1487.17 154.836C1481.02 162.925 1473.31 169.168 1464.05 173.565C1454.79 177.963 1444.58 180.167 1433.42 180.167Z" fill="white"/>
<path d="M1564.4 180.167C1553.96 180.167 1544.79 177.646 1536.89 172.606C1528.99 167.565 1522.84 160.605 1518.44 151.736C1514.04 142.867 1511.84 132.669 1511.84 121.164C1511.84 109.659 1514.04 99.3139 1518.44 90.3712C1522.84 81.4391 1528.99 74.4263 1536.89 69.3434C1544.79 64.2604 1553.96 61.7295 1564.4 61.7295C1574.84 61.7295 1584.1 64.271 1591.98 69.3434C1599.83 74.4263 1605.98 81.4391 1610.38 90.3712C1614.77 99.3139 1616.98 109.575 1616.98 121.164C1616.98 132.754 1614.77 142.878 1610.38 151.736C1605.98 160.605 1599.84 167.565 1591.98 172.606C1584.1 177.646 1574.92 180.167 1564.4 180.167ZM1564.4 163.652C1575.13 163.652 1583.49 159.772 1589.5 152.01C1595.51 144.249 1598.52 133.967 1598.52 121.164C1598.52 108.362 1595.49 97.8375 1589.45 90.0021C1583.42 82.1668 1575.06 78.2544 1564.4 78.2544C1553.74 78.2544 1545.39 82.1562 1539.35 89.9494C1533.32 97.7426 1530.29 108.151 1530.29 121.175C1530.29 134.199 1533.3 144.343 1539.31 152.073C1545.32 159.803 1553.68 163.663 1564.4 163.663V163.652Z" fill="white"/>
<path d="M1652.04 111.283V177.593H1633.8V64.2917H1651.61V80.922C1655.54 74.4787 1660.35 69.7543 1666.04 66.7066C1671.73 63.6695 1678.14 62.1509 1685.3 62.1509C1692.95 62.1509 1699.92 63.8171 1706.22 67.139C1712.5 70.4608 1717.53 75.4489 1721.28 82.1031C1725.04 88.7574 1726.91 97.12 1726.91 107.212V177.604H1708.67V108.509C1708.67 98.7124 1706.33 91.3305 1701.64 86.353C1696.96 81.386 1690.37 78.8973 1681.86 78.8973C1673.35 78.8973 1666.6 81.4388 1660.77 86.5112C1654.94 91.5941 1652.03 99.8513 1652.03 111.293H1652.04V111.283Z" fill="white"/>
<path d="M1799 64.2918V79.9625H1776.04V177.604H1757.81V79.9625H1737.65V64.2918H1757.81V44.1286C1757.81 36.0402 1760.49 29.618 1765.85 24.8725C1771.22 20.1164 1778.47 17.7437 1787.62 17.7437H1798.99V33.4144H1789.34C1784.55 33.4144 1781.14 34.4584 1779.09 36.5253C1777.06 38.6028 1776.03 42.0617 1776.03 46.9338V64.3128H1798.99V64.2918H1799Z" fill="white"/>
<path d="M420 326L455.189 225.749H481.833L517.021 326H494.078L487.081 304.133H449.604L442.338 326H420ZM455.189 287.582H481.698L478.334 277.22C475.239 266.993 472.144 256.766 468.578 244.319C464.945 256.766 461.85 266.993 458.62 277.22L455.189 287.582Z" fill="white"/>
<path d="M420 326L455.189 225.749H481.833L517.021 326H494.078L487.081 304.133H449.604L442.338 326H420ZM455.189 287.582H481.698L478.334 277.22C475.239 266.993 472.144 256.766 468.578 244.319C464.945 256.766 461.85 266.993 458.62 277.22L455.189 287.582Z" fill="url(#paint1_linear_1626_29)"/>
<path d="M524.759 326V254.95H543.867V267.733C548.106 258.112 556.382 253.469 565.397 253.469C574.951 253.469 582.958 258.65 585.919 267.33C589.619 258.65 598.366 253.469 608.66 253.469C622.318 253.469 632.478 262.62 632.478 278.902V326H612.697V282.535C612.697 273.991 607.449 269.819 600.653 269.819C592.983 269.819 588.206 275.269 588.206 283.208V326H569.098V281.997C569.098 274.596 564.254 269.819 557.323 269.819C550.259 269.819 544.607 274.932 544.607 284.083V326H524.759Z" fill="white"/>
<path d="M524.759 326V254.95H543.867V267.733C548.106 258.112 556.382 253.469 565.397 253.469C574.951 253.469 582.958 258.65 585.919 267.33C589.619 258.65 598.366 253.469 608.66 253.469C622.318 253.469 632.478 262.62 632.478 278.902V326H612.697V282.535C612.697 273.991 607.449 269.819 600.653 269.819C592.983 269.819 588.206 275.269 588.206 283.208V326H569.098V281.997C569.098 274.596 564.254 269.819 557.323 269.819C550.259 269.819 544.607 274.932 544.607 284.083V326H524.759Z" fill="url(#paint2_linear_1626_29)"/>
<path d="M676.077 327.749C657.642 327.749 644.387 318.935 643.176 303.662H662.688C663.428 309.852 668.003 313.553 675.741 313.553C683.074 313.553 687.582 310.458 687.582 306.084C687.582 302.316 684.151 300.096 678.365 298.952L665.917 296.53C652.124 293.839 644.791 286.841 644.791 275.807C644.791 262.351 656.431 253.469 674.933 253.469C693.301 253.469 705.412 262.687 705.816 277.489H687.448C687.313 271.77 682.469 267.531 675.471 267.531C668.676 267.531 664.572 270.828 664.572 275.067C664.572 278.7 667.734 281.055 673.184 282.199L686.64 284.823C700.971 287.649 707.565 293.839 707.565 304.268C707.565 318.464 694.647 327.749 676.077 327.749Z" fill="white"/>
<path d="M676.077 327.749C657.642 327.749 644.387 318.935 643.176 303.662H662.688C663.428 309.852 668.003 313.553 675.741 313.553C683.074 313.553 687.582 310.458 687.582 306.084C687.582 302.316 684.151 300.096 678.365 298.952L665.917 296.53C652.124 293.839 644.791 286.841 644.791 275.807C644.791 262.351 656.431 253.469 674.933 253.469C693.301 253.469 705.412 262.687 705.816 277.489H687.448C687.313 271.77 682.469 267.531 675.471 267.531C668.676 267.531 664.572 270.828 664.572 275.067C664.572 278.7 667.734 281.055 673.184 282.199L686.64 284.823C700.971 287.649 707.565 293.839 707.565 304.268C707.565 318.464 694.647 327.749 676.077 327.749Z" fill="url(#paint3_linear_1626_29)"/>
<path d="M760.449 254.95V270.492H745.916V304.066C745.916 308.91 747.464 310.458 752.846 310.458H760.449V326H748.877C733.267 326 726.068 320.079 726.068 307.161V270.492H713.822V254.95H726.068V235.572H745.916V254.95H760.449Z" fill="white"/>
<path d="M760.449 254.95V270.492H745.916V304.066C745.916 308.91 747.464 310.458 752.846 310.458H760.449V326H748.877C733.267 326 726.068 320.079 726.068 307.161V270.492H713.822V254.95H726.068V235.572H745.916V254.95H760.449Z" fill="url(#paint4_linear_1626_29)"/>
<path d="M801.828 327.615C780.297 327.615 766.303 312.14 766.303 290.542C766.303 268.877 780.768 253.335 801.155 253.335C822.08 253.335 836.142 268.473 836.142 290.138V295.454H785.613C785.949 305.95 792.005 312.745 802.433 312.745C810.171 312.745 815.486 309.179 817.303 303.662H835.402C832.778 317.791 819.052 327.615 801.828 327.615ZM785.747 282.805H817.437C816.428 273.923 810.507 268.406 801.559 268.406C792.677 268.406 786.824 273.923 785.747 282.805Z" fill="white"/>
<path d="M801.828 327.615C780.297 327.615 766.303 312.14 766.303 290.542C766.303 268.877 780.768 253.335 801.155 253.335C822.08 253.335 836.142 268.473 836.142 290.138V295.454H785.613C785.949 305.95 792.005 312.745 802.433 312.745C810.171 312.745 815.486 309.179 817.303 303.662H835.402C832.778 317.791 819.052 327.615 801.828 327.615ZM785.747 282.805H817.437C816.428 273.923 810.507 268.406 801.559 268.406C792.677 268.406 786.824 273.923 785.747 282.805Z" fill="url(#paint5_linear_1626_29)"/>
<path d="M846.773 326V254.95H865.881V267.06H866.083C868.707 258.516 874.089 254.479 883.441 254.479C885.729 254.479 887.68 254.546 889.295 254.613V271.501C887.815 271.434 884.114 271.165 880.75 271.165C872.609 271.165 866.621 276.816 866.621 287.514V326H846.773Z" fill="white"/>
<path d="M846.773 326V254.95H865.881V267.06H866.083C868.707 258.516 874.089 254.479 883.441 254.479C885.729 254.479 887.68 254.546 889.295 254.613V271.501C887.815 271.434 884.114 271.165 880.75 271.165C872.609 271.165 866.621 276.816 866.621 287.514V326H846.773Z" fill="url(#paint6_linear_1626_29)"/>
<path d="M925.157 327.48C906.587 327.48 894.409 312.678 894.409 290.407C894.409 268.608 906.856 253.469 925.022 253.469C934.24 253.469 941.372 257.103 945.947 264.773H946.014V225.749H965.795V326H946.283V315.1H946.216C942.112 323.376 934.509 327.48 925.157 327.48ZM930.27 311.332C940.295 311.332 946.956 303.124 946.956 290.407C946.956 277.758 940.295 269.483 930.27 269.483C920.649 269.483 914.391 277.086 914.391 290.407C914.391 303.729 920.649 311.332 930.27 311.332Z" fill="white"/>
<path d="M925.157 327.48C906.587 327.48 894.409 312.678 894.409 290.407C894.409 268.608 906.856 253.469 925.022 253.469C934.24 253.469 941.372 257.103 945.947 264.773H946.014V225.749H965.795V326H946.283V315.1H946.216C942.112 323.376 934.509 327.48 925.157 327.48ZM930.27 311.332C940.295 311.332 946.956 303.124 946.956 290.407C946.956 277.758 940.295 269.483 930.27 269.483C920.649 269.483 914.391 277.086 914.391 290.407C914.391 303.729 920.649 311.332 930.27 311.332Z" fill="url(#paint7_linear_1626_29)"/>
<path d="M1001.59 327.211C987.393 327.211 977.166 320.146 977.166 305.95C977.166 289.936 990.084 285.361 1004.89 284.016C1017.87 282.737 1022.45 282.132 1022.45 277.557V277.086C1022.45 271.837 1018.07 268.204 1010.81 268.204C1003.41 268.204 998.562 271.972 998.091 277.422H979.454C980.328 262.754 991.901 253.469 1011.41 253.469C1030.86 253.469 1042.03 262.62 1042.03 277.826V326H1022.65V315.975H1022.38C1018.61 322.905 1012.49 327.211 1001.59 327.211ZM1007.11 313.418C1016.66 313.418 1022.58 307.699 1022.58 300.029V292.897C1020.29 294.175 1014.71 295.117 1008.32 296.126C1001.52 297.136 996.14 299.76 996.14 305.411C996.14 310.458 1000.45 313.418 1007.11 313.418Z" fill="white"/>
<path d="M1001.59 327.211C987.393 327.211 977.166 320.146 977.166 305.95C977.166 289.936 990.084 285.361 1004.89 284.016C1017.87 282.737 1022.45 282.132 1022.45 277.557V277.086C1022.45 271.837 1018.07 268.204 1010.81 268.204C1003.41 268.204 998.562 271.972 998.091 277.422H979.454C980.328 262.754 991.901 253.469 1011.41 253.469C1030.86 253.469 1042.03 262.62 1042.03 277.826V326H1022.65V315.975H1022.38C1018.61 322.905 1012.49 327.211 1001.59 327.211ZM1007.11 313.418C1016.66 313.418 1022.58 307.699 1022.58 300.029V292.897C1020.29 294.175 1014.71 295.117 1008.32 296.126C1001.52 297.136 996.14 299.76 996.14 305.411C996.14 310.458 1000.45 313.418 1007.11 313.418Z" fill="url(#paint8_linear_1626_29)"/>
<path d="M1056.02 326V254.95H1075.13V267.733C1079.37 258.112 1087.64 253.469 1096.66 253.469C1106.21 253.469 1114.22 258.65 1117.18 267.33C1120.88 258.65 1129.63 253.469 1139.92 253.469C1153.58 253.469 1163.74 262.62 1163.74 278.902V326H1143.96V282.535C1143.96 273.991 1138.71 269.819 1131.92 269.819C1124.25 269.819 1119.47 275.269 1119.47 283.208V326H1100.36V281.997C1100.36 274.596 1095.52 269.819 1088.59 269.819C1081.52 269.819 1075.87 274.932 1075.87 284.083V326H1056.02Z" fill="white"/>
<path d="M1056.02 326V254.95H1075.13V267.733C1079.37 258.112 1087.64 253.469 1096.66 253.469C1106.21 253.469 1114.22 258.65 1117.18 267.33C1120.88 258.65 1129.63 253.469 1139.92 253.469C1153.58 253.469 1163.74 262.62 1163.74 278.902V326H1143.96V282.535C1143.96 273.991 1138.71 269.819 1131.92 269.819C1124.25 269.819 1119.47 275.269 1119.47 283.208V326H1100.36V281.997C1100.36 274.596 1095.52 269.819 1088.59 269.819C1081.52 269.819 1075.87 274.932 1075.87 284.083V326H1056.02Z" fill="url(#paint9_linear_1626_29)"/>
</g>
<defs>
<linearGradient id="paint0_linear_1626_29" x1="340.386" y1="17.5662" x2="-57.7623" y2="213.589" gradientUnits="userSpaceOnUse">
<stop stop-color="#E19D65"/>
<stop offset="0.331783" stop-color="#B06AB3"/>
<stop offset="1" stop-color="#4568DC"/>
</linearGradient>
<linearGradient id="paint1_linear_1626_29" x1="1164" y1="277" x2="640.639" y2="616.814" gradientUnits="userSpaceOnUse">
<stop stop-color="#E19D65"/>
<stop offset="0.331783" stop-color="#B06AB3"/>
<stop offset="1" stop-color="#4568DC"/>
</linearGradient>
<linearGradient id="paint2_linear_1626_29" x1="1164" y1="277" x2="640.639" y2="616.814" gradientUnits="userSpaceOnUse">
<stop stop-color="#E19D65"/>
<stop offset="0.331783" stop-color="#B06AB3"/>
<stop offset="1" stop-color="#4568DC"/>
</linearGradient>
<linearGradient id="paint3_linear_1626_29" x1="1164" y1="277" x2="640.639" y2="616.814" gradientUnits="userSpaceOnUse">
<stop stop-color="#E19D65"/>
<stop offset="0.331783" stop-color="#B06AB3"/>
<stop offset="1" stop-color="#4568DC"/>
</linearGradient>
<linearGradient id="paint4_linear_1626_29" x1="1164" y1="277" x2="640.639" y2="616.814" gradientUnits="userSpaceOnUse">
<stop stop-color="#E19D65"/>
<stop offset="0.331783" stop-color="#B06AB3"/>
<stop offset="1" stop-color="#4568DC"/>
</linearGradient>
<linearGradient id="paint5_linear_1626_29" x1="1164" y1="277" x2="640.639" y2="616.814" gradientUnits="userSpaceOnUse">
<stop stop-color="#E19D65"/>
<stop offset="0.331783" stop-color="#B06AB3"/>
<stop offset="1" stop-color="#4568DC"/>
</linearGradient>
<linearGradient id="paint6_linear_1626_29" x1="1164" y1="277" x2="640.639" y2="616.814" gradientUnits="userSpaceOnUse">
<stop stop-color="#E19D65"/>
<stop offset="0.331783" stop-color="#B06AB3"/>
<stop offset="1" stop-color="#4568DC"/>
</linearGradient>
<linearGradient id="paint7_linear_1626_29" x1="1164" y1="277" x2="640.639" y2="616.814" gradientUnits="userSpaceOnUse">
<stop stop-color="#E19D65"/>
<stop offset="0.331783" stop-color="#B06AB3"/>
<stop offset="1" stop-color="#4568DC"/>
</linearGradient>
<linearGradient id="paint8_linear_1626_29" x1="1164" y1="277" x2="640.639" y2="616.814" gradientUnits="userSpaceOnUse">
<stop stop-color="#E19D65"/>
<stop offset="0.331783" stop-color="#B06AB3"/>
<stop offset="1" stop-color="#4568DC"/>
</linearGradient>
<linearGradient id="paint9_linear_1626_29" x1="1164" y1="277" x2="640.639" y2="616.814" gradientUnits="userSpaceOnUse">
<stop stop-color="#E19D65"/>
<stop offset="0.331783" stop-color="#B06AB3"/>
<stop offset="1" stop-color="#4568DC"/>
</linearGradient>
<clipPath id="clip0_1626_29">
<rect width="1799" height="342" fill="white"/>
</clipPath>
</defs>
</svg>
