<svg width="225" height="48" viewBox="0 0 225 48" fill="none" xmlns="http://www.w3.org/2000/svg">
<path d="M47.9065 14.4008L0 0L23.9533 24H9.58056L33.5338 48V33.5993H47.9065V14.4008Z" fill="black"/>
<path d="M60.5175 24.065L65.0734 24.0855C68.5782 24.0855 70.8459 22.4956 70.8459 19.2319C70.8459 16.257 69.0116 14.3987 65.0734 14.3987H57.4871V29.4555H60.5175V24.065ZM60.5175 16.7957H64.7646C66.6398 16.7957 67.795 17.6009 67.795 19.3362C67.795 20.9262 66.8258 21.8973 64.7646 21.8973L60.5175 21.8768V16.7957Z" fill="black"/>
<path d="M75.2958 23.7762H80.553C82.5323 23.7762 83.0272 24.5609 83.0272 25.9663V29.4575H86.0576V25.5339C86.0576 23.7986 85.3563 22.8498 83.6876 22.5591V22.4137C85.4605 21.9589 86.4297 20.5348 86.4297 18.738C86.4297 15.6196 84.1415 14.4006 80.9883 14.4006H72.269V29.4575H75.2995V23.7781L75.2958 23.7762ZM75.2958 16.7343H80.4079C82.1603 16.7343 83.3546 17.3531 83.3546 19.0679C83.3546 20.5348 82.5919 21.5469 80.4079 21.5469H75.2958V16.7343Z" fill="black"/>
<path d="M95.5563 29.6421C100.73 29.6421 103.885 26.5853 103.885 21.918C103.885 17.2507 100.752 14.2144 95.5563 14.2144C90.3604 14.2144 87.1868 17.2712 87.1868 21.918C87.1868 26.5648 90.3195 29.6421 95.5563 29.6421ZM95.5563 16.6505C98.7523 16.6505 100.813 18.5499 100.813 21.918C100.813 25.2861 98.7727 27.206 95.5563 27.206C92.3398 27.206 90.2581 25.3066 90.2581 21.918C90.2581 18.5294 92.2989 16.6505 95.5563 16.6505Z" fill="black"/>
<path d="M120.354 21.9384C120.354 17.3941 117.633 14.4006 112.52 14.4006H105.449V29.4575H112.52C117.324 29.4575 120.354 26.751 120.354 21.9402V21.9384ZM108.48 27.0605V16.7753H111.964C115.181 16.7753 117.283 18.3652 117.283 21.8769C117.283 25.0996 115.571 27.0605 111.964 27.0605H108.48Z" fill="black"/>
<path d="M133.01 23.0754C133.01 25.9253 131.629 27.1238 128.846 27.1238C125.775 27.1238 124.683 25.6159 124.683 23.0754V14.4006H121.694V23.0959C121.694 27.7632 124.518 29.6439 128.846 29.6439C133.629 29.6439 136.02 27.3512 136.02 23.0959V14.4006H133.01V23.0754Z" fill="black"/>
<path d="M145.727 16.6504C148.138 16.6504 149.994 17.7856 150.426 19.5209H153.477C153.003 16.3186 150.117 14.2124 145.727 14.2124C140.512 14.2124 137.357 17.2692 137.357 21.916C137.357 26.5628 140.511 29.6402 145.727 29.6402C149.911 29.6402 153.066 27.5339 153.477 24.2907H150.447C150.056 26.067 148.199 27.2022 145.727 27.2022C142.49 27.2022 140.429 25.3028 140.429 21.9142C140.429 18.5255 142.49 16.6467 145.727 16.6467V16.6504Z" fill="black"/>
<path d="M153.295 16.8573H158.489V29.4556H161.499V16.8573H166.756V14.4006H153.295V16.8573Z" fill="black"/>
<path d="M171.062 14.4006H168.032V29.4575H171.062V14.4006Z" fill="black"/>
<path d="M181.491 25.5115L180.915 26.999H180.771L180.193 25.491L175.453 14.4006H172.114L178.874 29.4556H182.79L189.572 14.4006H186.233L181.491 25.5115Z" fill="black"/>
<path d="M193.652 14.4006H190.622V29.4575H193.652V14.4006Z" fill="black"/>
<path d="M194.971 16.8573H200.165V29.4556H203.175V16.8573H208.432V14.4006H194.971V16.8573Z" fill="black"/>
<path d="M221.599 14.4006L217.107 21.1332H216.982L212.551 14.4006H209.107L215.518 23.6532V29.4556H218.548V23.6532L225 14.4006H221.599Z" fill="black"/>
<path d="M65.5348 35.0083C67.9457 35.0083 69.8023 36.1435 70.2339 37.8788H73.2848C72.8104 34.6766 69.9251 32.5703 65.5348 32.5703C60.3204 32.5703 57.1653 35.6272 57.1653 40.274C57.1653 44.9207 60.3185 47.9981 65.5348 47.9981C69.7186 47.9981 72.8737 45.8918 73.2848 42.6486H70.2544C69.8619 44.4249 68.0071 45.5601 65.5329 45.5601C62.296 45.5601 60.2348 43.6607 60.2348 40.2721C60.2348 36.8835 62.296 35.0046 65.5329 35.0046L65.5348 35.0083Z" fill="black"/>
<path d="M82.5604 32.5723C77.346 32.5723 74.1909 35.6291 74.1909 40.2759C74.1909 44.9227 77.3237 48 82.5604 48C87.7972 48 90.889 44.9432 90.889 40.2759C90.889 35.6086 87.7563 32.5723 82.5604 32.5723ZM82.5604 45.562C79.3235 45.562 77.2623 43.6627 77.2623 40.274C77.2623 36.8854 79.303 35.0066 82.5604 35.0066C85.8178 35.0066 87.8176 36.9059 87.8176 40.274C87.8176 43.6422 85.7769 45.562 82.5604 45.562Z" fill="black"/>
<path d="M104.555 39.1818L104.657 43.9106H104.532L96.1647 32.7568H92.4534V47.8137H95.5247V41.2881L95.402 36.7438H95.5657L103.915 47.8137H107.563V32.7568H104.555V39.1818Z" fill="black"/>
<path d="M109.403 47.8137H112.433V41.7H120.76V39.3868H112.433V35.1949H121.586V32.7568H109.403V47.8137Z" fill="black"/>
<path d="M128.296 35.0232H132.962V36.1043H129.656V37.4911H132.649V38.5162H129.656V40.7324H128.296V35.0251V35.0232Z" fill="black"/>
<path d="M133.24 37.8732C133.24 36.1043 134.444 34.9524 136.468 34.9524C138.492 34.9524 139.672 36.1043 139.672 37.8732C139.672 39.6421 138.468 40.8014 136.468 40.8014C134.468 40.8014 133.24 39.6421 133.24 37.8732ZM138.297 37.8732C138.297 36.6672 137.569 36.0335 136.468 36.0335C135.367 36.0335 134.625 36.6672 134.625 37.8732C134.625 39.0791 135.344 39.7203 136.468 39.7203C137.592 39.7203 138.297 39.0791 138.297 37.8732Z" fill="black"/>
<path d="M140.343 35.0232H143.703C144.914 35.0232 145.844 35.4687 145.844 36.7063C145.844 37.3867 145.468 37.9365 144.804 38.1005V38.1546C145.422 38.2646 145.703 38.6169 145.703 39.2748V40.0577C145.703 40.2776 145.703 40.5032 145.805 40.7306H144.438C144.367 40.5889 144.345 40.3708 144.345 40.0577V39.4705C144.345 38.9766 144.164 38.6951 143.478 38.6951H141.703V40.7306H140.343V35.0232ZM143.429 37.7091C144.211 37.7091 144.469 37.3643 144.469 36.8554C144.469 36.2608 144.047 36.0558 143.429 36.0558H141.703V37.7073H143.429V37.7091Z" fill="black"/>
<path d="M148.149 35.0233H150.18L151.594 39.0718H151.641L153.04 35.0233H155.071V40.7307H153.804V38.4753L153.819 36.384H153.756L152.201 40.7288H151.021L149.474 36.384H149.403L149.427 38.4903V40.7288H148.145V35.0215L148.149 35.0233Z" fill="black"/>
<path d="M157.979 35.0232H159.744L162.191 40.7306H160.714L160.245 39.588H157.471L157.01 40.7306H155.54L157.979 35.0232ZM159.876 38.5703L159.134 36.8014L158.885 36.1285H158.838L158.589 36.7939L157.854 38.5721H159.878L159.876 38.5703Z" fill="black"/>
<path d="M162.657 35.0232H166.017C167.228 35.0232 168.158 35.4687 168.158 36.7063C168.158 37.3867 167.783 37.9365 167.118 38.1005V38.1546C167.736 38.2646 168.017 38.6169 168.017 39.2748V40.0577C168.017 40.2776 168.017 40.5032 168.119 40.7306H166.752C166.681 40.5889 166.659 40.3708 166.659 40.0577V39.4705C166.659 38.9766 166.479 38.6951 165.792 38.6951H164.017V40.7306H162.657V35.0232ZM165.744 37.7091C166.525 37.7091 166.784 37.3643 166.784 36.8554C166.784 36.2608 166.361 36.0558 165.744 36.0558H164.017V37.7073H165.744V37.7091Z" fill="black"/>
<path d="M168.798 35.0232H170.158V37.8023L172.871 35.0232H174.629L172.175 37.4184L174.777 40.7306H173.058L171.206 38.3354L170.158 39.3923V40.7306H168.798V35.0232Z" fill="black"/>
<path d="M175.237 35.0232H180.059V36.1043H176.597V37.3419H179.676V38.3522H176.597V39.6513H180.074V40.7324H175.237V35.0251V35.0232Z" fill="black"/>
<path d="M182.308 36.1192H180.416V35.0232H185.582V36.1192H183.66V40.7306H182.308V36.1192Z" fill="black"/>
<path d="M186.151 35.0232H187.511V40.7306H186.151V35.0232Z" fill="black"/>
<path d="M188.434 35.0232H190.091L192.936 38.9617H192.99L192.951 37.232V35.0232H194.303V40.7306H192.67L189.825 36.8238H189.762L189.809 38.492V40.7306H188.434V35.0232Z" fill="black"/>
<path d="M194.973 37.8732C194.973 36.1043 196.184 34.9524 198.201 34.9524C199.905 34.9524 201.023 35.7669 201.186 36.9804H199.812C199.648 36.3783 199.013 36.0335 198.202 36.0335C196.999 36.0335 196.35 36.7455 196.35 37.8732C196.35 39.0791 197.06 39.7203 198.171 39.7203C199.211 39.7203 199.804 39.2655 199.906 38.5218H198.07V37.6458H201.274V38.1155C201.274 39.8844 199.882 40.8014 198.148 40.8014C196.178 40.8014 194.975 39.6421 194.975 37.8732H194.973Z" fill="black"/>
<path d="M128.006 45.998H129.429C129.444 46.5926 129.922 46.9448 130.82 46.9448C131.626 46.9448 132.039 46.6783 132.039 46.2328C132.039 45.6606 131.616 45.5991 130.608 45.4742C128.999 45.2859 128.154 44.9188 128.154 43.7911C128.154 42.6634 129.131 42.0371 130.725 42.0371C132.21 42.0371 133.147 42.6634 133.233 43.7594H131.858C131.795 43.2114 131.35 42.9691 130.671 42.9691C129.992 42.9691 129.553 43.2282 129.553 43.642C129.553 44.1359 129.905 44.2142 130.967 44.3391C132.625 44.5348 133.445 44.8628 133.445 46.1247C133.445 47.2282 132.5 47.8861 130.772 47.8861C128.88 47.8861 128.02 47.1107 128.006 45.9998V45.998Z" fill="black"/>
<path d="M134.078 42.1062H137C138.555 42.1062 139.234 42.835 139.234 43.9701C139.234 45.2544 138.351 45.8341 137 45.8341L135.438 45.8266V47.8154H134.078V42.1081V42.1062ZM135.438 43.1705V44.8611L136.859 44.8686C137.555 44.8686 137.867 44.548 137.867 44.0149C137.867 43.4128 137.469 43.1686 136.859 43.1686H135.438V43.1705Z" fill="black"/>
<path d="M139.867 42.1062H144.689V43.1873H141.227V44.4249H144.306V45.4352H141.227V46.7344H144.704V47.8154H139.867V42.1081V42.1062Z" fill="black"/>
<path d="M145.141 44.9562C145.141 43.1873 146.344 42.0354 148.368 42.0354C150.08 42.0354 151.181 42.8499 151.354 44.0708H149.987C149.831 43.4986 149.191 43.1165 148.368 43.1165C147.243 43.1165 146.525 43.7502 146.525 44.9562C146.525 46.1622 147.245 46.8033 148.368 46.8033C149.196 46.8033 149.853 46.4268 149.994 45.8322H151.354C151.198 47.0774 149.98 47.8844 148.368 47.8844C146.344 47.8844 145.141 46.7251 145.141 44.9562Z" fill="black"/>
<path d="M152.017 42.1062H153.376V47.8136H152.017V42.1062Z" fill="black"/>
<path d="M156.282 42.1062H158.048L160.494 47.8136H159.017L158.548 46.671H155.775L155.313 47.8136H153.844L156.282 42.1062ZM158.182 45.6533L157.439 43.8844L157.19 43.2115H157.144L156.894 43.8769L156.16 45.6551H158.184L158.182 45.6533Z" fill="black"/>
<path d="M160.963 42.1062H162.323V46.6952H165.175V47.8154H160.963V42.1081V42.1062Z" fill="black"/>
<path d="M165.744 42.1062H167.104V47.8136H165.744V42.1062Z" fill="black"/>
<path d="M167.736 45.998H169.159C169.174 46.5926 169.652 46.9448 170.551 46.9448C171.356 46.9448 171.769 46.6783 171.769 46.2328C171.769 45.6606 171.347 45.5991 170.339 45.4742C168.729 45.2859 167.885 44.9188 167.885 43.7911C167.885 42.6634 168.862 42.0371 170.456 42.0371C171.94 42.0371 172.878 42.6634 172.964 43.7594H171.589C171.526 43.2114 171.081 42.9691 170.402 42.9691C169.723 42.9691 169.284 43.2282 169.284 43.642C169.284 44.1359 169.635 44.2142 170.698 44.3391C172.355 44.5348 173.176 44.8628 173.176 46.1247C173.176 47.2282 172.231 47.8861 170.502 47.8861C168.61 47.8861 167.751 47.1107 167.736 45.9998V45.998Z" fill="black"/>
<path d="M175.276 43.2022H173.384V42.1062H178.55V43.2022H176.628V47.8136H175.276V43.2022Z" fill="black"/>
<path d="M178.76 45.998H180.183C180.198 46.5926 180.676 46.9448 181.575 46.9448C182.38 46.9448 182.793 46.6783 182.793 46.2328C182.793 45.6606 182.371 45.5991 181.363 45.4742C179.754 45.2859 178.909 44.9188 178.909 43.7911C178.909 42.6634 179.886 42.0371 181.48 42.0371C182.965 42.0371 183.902 42.6634 183.988 43.7594H182.613C182.55 43.2114 182.105 42.9691 181.426 42.9691C180.747 42.9691 180.308 43.2282 180.308 43.642C180.308 44.1359 180.66 44.2142 181.722 44.3391C183.379 44.5348 184.2 44.8628 184.2 46.1247C184.2 47.2282 183.255 47.8861 181.527 47.8861C179.635 47.8861 178.775 47.1107 178.76 45.9998V45.998Z" fill="black"/>
</svg>
