<svg width="225" height="48" viewBox="0 0 225 48" fill="none" xmlns="http://www.w3.org/2000/svg">
<path d="M60.5177 23.938L65.0736 23.9583C68.5784 23.9583 70.8461 22.3768 70.8461 19.1304C70.8461 16.1713 69.0119 14.3228 65.0736 14.3228H57.4873V29.2999H60.5177V23.938ZM60.5177 16.7071H64.7648C66.64 16.7071 67.7952 17.508 67.7952 19.2342C67.7952 20.8157 66.826 21.7817 64.7648 21.7817L60.5177 21.7613V16.7071Z" fill="black"/>
<path d="M75.2958 23.6507H80.553C82.5323 23.6507 83.0272 24.4312 83.0272 25.8292V29.3019H86.0576V25.3991C86.0576 23.6729 85.3563 22.7292 83.6876 22.44V22.2953C85.4605 21.843 86.4297 20.4264 86.4297 18.6391C86.4297 15.5373 84.1415 14.3247 80.9883 14.3247H72.269V29.3019H75.2995V23.6525L75.2958 23.6507ZM75.2958 16.646H80.4079C82.1603 16.646 83.3546 17.2616 83.3546 18.9673C83.3546 20.4264 82.5919 21.4332 80.4079 21.4332H75.2958V16.646Z" fill="black"/>
<path d="M95.5563 29.4853C100.73 29.4853 103.885 26.4446 103.885 21.802C103.885 17.1594 100.752 14.1392 95.5563 14.1392C90.3604 14.1392 87.1868 17.1798 87.1868 21.802C87.1868 26.4242 90.3195 29.4853 95.5563 29.4853ZM95.5563 16.5624C98.7523 16.5624 100.813 18.4517 100.813 21.802C100.813 25.1523 98.7727 27.062 95.5563 27.062C92.3398 27.062 90.2581 25.1727 90.2581 21.802C90.2581 18.4313 92.2989 16.5624 95.5563 16.5624Z" fill="black"/>
<path d="M120.354 21.8226C120.354 17.3023 117.633 14.3247 112.52 14.3247H105.449V29.3019H112.52C117.324 29.3019 120.354 26.6098 120.354 21.8244V21.8226ZM108.48 26.9175V16.6868H111.964C115.181 16.6868 117.283 18.2683 117.283 21.7614C117.283 24.9671 115.571 26.9175 111.964 26.9175H108.48Z" fill="black"/>
<path d="M133.01 22.9516C133.01 25.7865 131.629 26.9786 128.846 26.9786C125.775 26.9786 124.683 25.4787 124.683 22.9516V14.3228H121.694V22.972C121.694 27.6146 124.518 29.4853 128.846 29.4853C133.629 29.4853 136.02 27.2048 136.02 22.972V14.3228H133.01V22.9516Z" fill="black"/>
<path d="M145.727 16.5623C148.138 16.5623 149.994 17.6915 150.426 19.4176H153.477C153.003 16.2323 150.117 14.1372 145.727 14.1372C140.512 14.1372 137.357 17.1779 137.357 21.8001C137.357 26.4223 140.511 29.4833 145.727 29.4833C149.911 29.4833 153.066 27.3882 153.477 24.1622H150.447C150.056 25.9291 148.199 27.0582 145.727 27.0582C142.49 27.0582 140.429 25.1689 140.429 21.7982C140.429 18.4275 142.49 16.5586 145.727 16.5586V16.5623Z" fill="black"/>
<path d="M153.295 16.7683H158.489V29.2999H161.499V16.7683H166.756V14.3228H153.295V16.7683Z" fill="black"/>
<path d="M171.062 14.3228H168.032V29.2999H171.062V14.3228Z" fill="black"/>
<path d="M181.491 25.3767L180.915 26.8563H180.771L180.193 25.3563L175.453 14.3228H172.114L178.874 29.2999H182.79L189.572 14.3228H186.233L181.491 25.3767Z" fill="black"/>
<path d="M193.652 14.3228H190.622V29.2999H193.652V14.3228Z" fill="black"/>
<path d="M194.971 16.7683H200.165V29.2999H203.175V16.7683H208.432V14.3228H194.971V16.7683Z" fill="black"/>
<path d="M221.599 14.3228L217.107 21.0215H216.982L212.551 14.3228H209.107L215.518 23.5282V29.2999H218.548V23.5282L225 14.3228H221.599Z" fill="black"/>
<path d="M65.5348 34.8233C67.9457 34.8233 69.8023 35.9524 70.2339 37.6786H73.2848C72.8104 34.4933 69.9251 32.3982 65.5348 32.3982C60.3204 32.3982 57.1653 35.4389 57.1653 40.0611C57.1653 44.6833 60.3185 47.7443 65.5348 47.7443C69.7186 47.7443 72.8737 45.6492 73.2848 42.4231H70.2544C69.8619 44.1901 68.0071 45.3192 65.5329 45.3192C62.296 45.3192 60.2348 43.4299 60.2348 40.0592C60.2348 36.6885 62.296 34.8196 65.5329 34.8196L65.5348 34.8233Z" fill="black"/>
<path d="M82.5602 32.3999C77.3457 32.3999 74.1907 35.4406 74.1907 40.0628C74.1907 44.685 77.3234 47.746 82.5602 47.746C87.7969 47.746 90.8888 44.7054 90.8888 40.0628C90.8888 35.4202 87.756 32.3999 82.5602 32.3999ZM82.5602 45.3209C79.3233 45.3209 77.262 43.4316 77.262 40.0609C77.262 36.6902 79.3028 34.8213 82.5602 34.8213C85.8176 34.8213 87.8174 36.7106 87.8174 40.0609C87.8174 43.4112 85.7766 45.3209 82.5602 45.3209Z" fill="black"/>
<path d="M104.555 38.9726L104.657 43.6782H104.532L96.1647 32.5835H92.4534V47.5607H95.5247V41.0696L95.402 36.5493H95.5657L103.915 47.5607H107.563V32.5835H104.555V38.9726Z" fill="black"/>
<path d="M109.403 47.5607H112.433V41.4793H120.76V39.1784H112.433V35.0086H121.586V32.5835H109.403V47.5607Z" fill="black"/>
<path d="M47.9065 14.3227L0 0L23.9533 23.873H9.58056L33.5338 47.746V33.4214H47.9065V14.3227Z" fill="black"/>
<path d="M130.163 35.1106H131.845L134.174 40.5171H132.768L132.321 39.4343H129.68L129.241 40.5171H127.842L130.163 35.1106ZM131.97 38.4683L131.263 36.7922L131.025 36.1544H130.98L130.742 36.7848L130.043 38.4683H131.97Z" fill="black"/>
<path d="M134.621 35.1106H135.916V40.5171H134.621V35.1106Z" fill="black"/>
<path d="M128.274 42.5269H129.568V47.9333H128.274V42.5269Z" fill="black"/>
<path d="M130.447 42.5269H132.024L134.733 46.2572H134.785L134.748 44.6182V42.5269H136.035V47.9333H134.48L131.771 44.2326H131.712L131.756 45.8123V47.9333H130.447V42.5269Z" fill="black"/>
<path d="M138.498 42.5269H140.432L141.779 46.3611H141.824L143.156 42.5269H145.09V47.9333H143.885V45.7974L143.9 43.8173H143.84L142.36 47.9333H141.236L139.763 43.8173H139.696L139.718 45.8123V47.9333H138.498V42.5269Z" fill="black"/>
<path d="M147.857 42.5269H149.539L151.868 47.9333H150.461L150.015 46.8505H147.373L146.934 47.9333H145.535L147.857 42.5269ZM149.665 45.8846L148.958 44.2085L148.72 43.5707H148.675L148.437 44.2011L147.738 45.8846H149.665Z" fill="black"/>
<path d="M152.316 42.5269H155.516C156.669 42.5269 157.555 42.9496 157.555 44.1214C157.555 44.7666 157.198 45.2857 156.565 45.4415V45.4934C157.153 45.5972 157.421 45.9309 157.421 46.5539V47.2955C157.421 47.5032 157.421 47.7182 157.518 47.9333H156.215C156.148 47.7998 156.126 47.5922 156.126 47.2955V46.7393C156.126 46.2721 155.955 46.0051 155.3 46.0051H153.611V47.9333H152.316V42.5269ZM155.254 45.0706C155.998 45.0706 156.243 44.7443 156.243 44.2623C156.243 43.6986 155.841 43.5058 155.254 43.5058H153.609V45.0706H155.254Z" fill="black"/>
<path d="M158.165 42.5269H159.46V45.1596L162.042 42.5269H163.716L161.38 44.7962L163.858 47.9333H162.22L160.457 45.6639L159.46 46.6651V47.9333H158.165V42.5269Z" fill="black"/>
<path d="M164.297 42.5269H168.888V43.5503H165.591V44.7221H168.523V45.6788H165.591V46.9099H168.903V47.9333H164.297V42.5269Z" fill="black"/>
<path d="M171.029 43.5651H169.228V42.5269H174.147V43.5651H172.316V47.9333H171.029V43.5651Z" fill="black"/>
<path d="M174.69 42.5269H175.985V47.9333H174.69V42.5269Z" fill="black"/>
<path d="M176.863 42.5269H178.44L181.149 46.2572H181.201L181.164 44.6182V42.5269H182.451V47.9333H180.896L178.187 44.2326H178.128L178.172 45.8123V47.9333H176.863V42.5269Z" fill="black"/>
<path d="M183.091 45.2265C183.091 43.5504 184.244 42.4602 186.164 42.4602C187.786 42.4602 188.851 43.2315 189.007 44.381H187.697C187.541 43.81 186.938 43.4837 186.164 43.4837C185.018 43.4837 184.401 44.1585 184.401 45.2265C184.401 46.3686 185.078 46.9767 186.135 46.9767C187.124 46.9767 187.69 46.5466 187.786 45.842H186.038V45.0114H189.089V45.4564C189.089 47.1325 187.764 48.0002 186.112 48.0002C184.237 48.0002 183.091 46.9026 183.091 45.2265Z" fill="black"/>
</svg>
