<?xml version="1.0" encoding="UTF-8"?>
<svg width="12px" height="182px" viewBox="0 0 12 182" version="1.1" xmlns="http://www.w3.org/2000/svg" xmlns:xlink="http://www.w3.org/1999/xlink">
    <!-- Generator: Sketch 52.2 (67145) - http://www.bohemiancoding.com/sketch -->
    <title>Group 22</title>
    <desc>Created with Sketch.</desc>
    <g id="RDB-Web-Design" stroke="none" stroke-width="1" fill="none" fill-rule="evenodd">
        <g id="React-day-Berlin-2018-mob" transform="translate(-10.000000, -458.000000)">
            <g id="Group-22" transform="translate(10.000000, 458.000000)">
                <g id="Group-9" fill="#FFFFFF">
                    <rect id="Rectangle" x="10" y="0" width="2" height="2"></rect>
                    <rect id="Rectangle" x="0" y="0" width="2" height="2"></rect>
                    <rect id="Rectangle" x="10" y="10" width="2" height="2"></rect>
                    <rect id="Rectangle" x="0" y="10" width="2" height="2"></rect>
                    <rect id="Rectangle" x="10" y="20" width="2" height="2"></rect>
                    <rect id="Rectangle" x="0" y="20" width="2" height="2"></rect>
                    <rect id="Rectangle" x="10" y="30" width="2" height="2"></rect>
                    <rect id="Rectangle" x="0" y="30" width="2" height="2"></rect>
                    <rect id="Rectangle" x="10" y="40" width="2" height="2"></rect>
                    <rect id="Rectangle" x="0" y="40" width="2" height="2"></rect>
                    <rect id="Rectangle" x="10" y="50" width="2" height="2"></rect>
                    <rect id="Rectangle" x="0" y="50" width="2" height="2"></rect>
                    <rect id="Rectangle" x="10" y="60" width="2" height="2"></rect>
                    <rect id="Rectangle" x="0" y="60" width="2" height="2"></rect>
                </g>
                <g id="Group-9" transform="translate(0.000000, 70.000000)" fill="#230CEA">
                    <rect id="Rectangle" opacity="0.200000003" x="10" y="0" width="2" height="2"></rect>
                    <rect id="Rectangle" opacity="0.200000003" x="0" y="0" width="2" height="2"></rect>
                    <rect id="Rectangle" opacity="0.200000003" x="10" y="10" width="2" height="2"></rect>
                    <rect id="Rectangle" opacity="0.200000003" x="0" y="10" width="2" height="2"></rect>
                    <rect id="Rectangle" opacity="0.200000003" x="10" y="20" width="2" height="2"></rect>
                    <rect id="Rectangle" opacity="0.200000003" x="0" y="20" width="2" height="2"></rect>
                    <rect id="Rectangle" x="10" y="30" width="2" height="2"></rect>
                    <rect id="Rectangle" x="0" y="30" width="2" height="2"></rect>
                    <rect id="Rectangle" x="10" y="40" width="2" height="2"></rect>
                    <rect id="Rectangle" x="0" y="40" width="2" height="2"></rect>
                    <rect id="Rectangle" x="10" y="50" width="2" height="2"></rect>
                    <rect id="Rectangle" x="0" y="50" width="2" height="2"></rect>
                    <rect id="Rectangle" x="10" y="60" width="2" height="2"></rect>
                    <rect id="Rectangle" x="0" y="60" width="2" height="2"></rect>
                    <rect id="Rectangle" x="10" y="70" width="2" height="2"></rect>
                    <rect id="Rectangle" x="0" y="70" width="2" height="2"></rect>
                    <rect id="Rectangle" x="10" y="80" width="2" height="2"></rect>
                    <rect id="Rectangle" x="0" y="80" width="2" height="2"></rect>
                    <rect id="Rectangle" x="10" y="90" width="2" height="2"></rect>
                    <rect id="Rectangle" x="0" y="90" width="2" height="2"></rect>
                    <rect id="Rectangle" x="10" y="100" width="2" height="2"></rect>
                    <rect id="Rectangle" x="0" y="100" width="2" height="2"></rect>
                    <rect id="Rectangle" x="10" y="110" width="2" height="2"></rect>
                    <rect id="Rectangle" x="0" y="110" width="2" height="2"></rect>
                </g>
            </g>
        </g>
    </g>
</svg>