<svg width="1920" height="828" viewBox="0 0 1920 828" fill="none" xmlns="http://www.w3.org/2000/svg">
<path d="M1997.29 90.1529C2008.53 84.776 2017.13 75.167 2021.13 63.361C2025.14 51.5596 2024.23 38.5282 2018.65 27.2121C2013.07 15.896 2003.28 7.24488 1991.48 3.24046C1979.68 -0.768536 1966.82 0.197403 1955.71 5.84714C1911.27 28.4308 1866.84 51.0144 1822.4 73.598C1361.2 307.984 899.999 542.371 438.8 776.757C457.73 766.422 480.646 789.643 470.133 808.375C539.385 666.421 608.638 524.468 677.891 382.514C688.646 363.421 664.815 339.893 645.921 350.82C454.033 452.029 262.145 553.237 70.2562 654.445C26.1662 677.7 -17.9242 700.955 -62.0142 724.209C-64.5638 725.555 -66.482 727.874 -67.356 730.638C-68.2296 733.404 -67.9874 736.389 -66.6736 738.954C-65.3597 741.52 -63.0792 743.461 -60.3245 744.368C-57.5702 745.274 -54.5674 745.073 -51.9858 743.791C-7.34867 721.604 37.2887 699.418 81.9257 677.231C276.195 580.671 470.464 484.111 664.733 387.551C650.578 395.63 632.917 378.226 640.859 363.893C568.21 504.139 495.56 644.384 422.91 784.629C409.611 808.086 438.582 837.409 462.258 824.324C928.966 601.108 1395.67 377.891 1862.38 154.675C1907.35 133.168 1952.32 111.66 1997.29 90.1529Z" fill="url(#paint0_linear_1348_1811)" fill-opacity="0.8"/>
<defs>
<linearGradient id="paint0_linear_1348_1811" x1="1656.5" y1="66.9997" x2="924.358" y2="1265.48" gradientUnits="userSpaceOnUse">
<stop stop-color="#E19D65"/>
<stop offset="0.5" stop-color="#B06AB3"/>
<stop offset="1" stop-color="#4568DC"/>
</linearGradient>
</defs>
</svg>
