<svg width="272" height="243" viewBox="0 0 272 243" fill="none" xmlns="http://www.w3.org/2000/svg">
<path d="M261.805 10.191V0H10.2002V10.191H0V126.535V145.944H19.4267V136.237H29.1427V175.06H38.8587V184.768H48.5746V155.651H58.2906V145.944H68.0066V155.651H58.2906V175.06H68.0066V165.353H97.1493V155.646H87.4333V145.939H97.1493V155.646H106.865V175.055H116.581V184.762H126.297V194.469H136.013V184.762H145.729V175.055H126.302V165.348H145.729V155.641H155.445V145.934H165.161V155.641H155.445V165.348H165.161V175.055H174.877V155.646H184.593V145.939H194.309V155.646H184.593V175.055H194.309V165.348H213.736V175.055H223.452V155.646H213.736V145.939H223.452V136.232H233.168V145.939H223.452V155.646H272.021V126.53V10.191H261.821H261.805ZM252.573 145.944H242.857V136.237H252.573V145.944Z" fill="#83F35D"/>
<path d="M203.999 194.469V184.768H194.288V194.469V204.177H203.999H213.715V194.469H203.999Z" fill="#83F35D"/>
<path d="M272.005 194.469H262.289V204.176H272.005V194.469Z" fill="#83F35D"/>
<path d="M194.288 204.177H184.572V213.884H194.288V204.177Z" fill="#83F35D"/>
<path d="M9.71598 155.651H0V165.359H9.71598V155.651Z" fill="#83F35D"/>
<path d="M252.573 165.353V175.06H262.289H272V165.353H262.289H252.573Z" fill="#83F35D"/>
<path d="M155.429 165.353H145.713V175.06H155.429V165.353Z" fill="#83F35D"/>
<path d="M87.4277 175.061V184.768H97.1437V193.502H106.86V183.795H97.1437V175.061H87.4277Z" fill="#83F35D"/>
<path d="M77.717 175.061H68.001V184.768H77.717V175.061Z" fill="#83F35D"/>
<path d="M48.5744 204.177H38.8584V213.884H48.5744V204.177Z" fill="#83F35D"/>
<path d="M106.86 223.586H97.1436V233.293V243H106.86V233.293H116.57V223.586V213.884H106.86V223.586Z" fill="#83F35D"/>
<path d="M97.1437 204.177H87.4277V213.884H97.1437V204.177Z" fill="#83F35D"/>
<path d="M19.4318 194.469H9.71582V204.176H19.4318V194.469Z" fill="#83F35D"/>
<path d="M223.431 204.177H213.715V213.884H223.431V204.177Z" fill="#83F35D"/>
<path d="M262.289 204.177H252.573V213.884H262.289V204.177Z" fill="#83F35D"/>
<path d="M126.287 204.177V213.884V223.586H136.003V213.884H145.714V204.177H136.003H126.287Z" fill="#83F35D"/>
<path d="M68.001 213.884V223.586H77.717V213.884V204.177H68.001V213.884Z" fill="#83F35D"/>
<path d="M38.8586 223.585H29.1426V233.293V243H38.8586V233.293H48.5693V243H58.2852V233.293V223.585H48.5693H38.8586Z" fill="#83F35D"/>
</svg>
