<svg width="429" height="211" viewBox="0 0 429 211" fill="none" xmlns="http://www.w3.org/2000/svg">
<path d="M363.353 26.5601H350.22V39.6884H363.353V26.5601Z" fill="#83F35D"/>
<path d="M363.353 52.8101H350.22V65.9384H363.353V52.8101Z" fill="#83F35D"/>
<path d="M363.354 92.1885H376.48V79.0601V65.9385H363.354V79.0601V92.1885Z" fill="#83F35D"/>
<path d="M389.614 39.6885H376.48V52.8169H389.614V39.6885Z" fill="#83F35D"/>
<path d="M415.873 26.5601H402.739V39.6884H415.873V26.5601Z" fill="#83F35D"/>
<path d="M389.613 131.56H376.48V118.438V105.31H363.353V92.1885H350.219V79.0601V65.9384H337.093V52.8101H350.219V39.6884H337.093V26.5601H350.219V13.4384V0.310059H337.093V13.4384H323.959V0.310059H310.833H297.699H13.1335V13.4384H0V197.188H13.1335V210.31H297.699H310.833H323.959H337.093V197.188H323.959V184.06H337.093H350.219V170.938H337.093V157.81H323.959V144.688H337.093V131.56V118.438H350.219V131.56V144.688H337.093V157.81H350.219V170.938H363.353V184.06H350.219V197.188V210.31H363.353V197.188H376.48V184.06V170.938H389.613V157.81H376.48V144.688H389.613H402.74V131.56H389.613Z" fill="#83F35D"/>
<path d="M415.874 79.0601H402.741H389.614V92.1884H376.48V105.31H389.614V118.438H402.741V105.31H415.874V92.1884V79.0601Z" fill="#83F35D"/>
<path d="M415.873 144.688H402.739V157.817H415.873V144.688Z" fill="#83F35D"/>
<path d="M429.007 39.6885H415.873V52.8169H429.007V39.6885Z" fill="#83F35D"/>
<path d="M415.873 118.438V131.56H429V118.438V105.31H415.873V118.438Z" fill="#83F35D"/>
</svg>
