<?xml version="1.0" encoding="utf-8"?>
<!-- Generator: Adobe Illustrator 23.0.5, SVG Export Plug-In . SVG Version: 6.00 Build 0)  -->
<svg version="1.1" id="Layer_1" xmlns="http://www.w3.org/2000/svg" xmlns:xlink="http://www.w3.org/1999/xlink" x="0px" y="0px"
	 viewBox="0 0 606.2 757.2" style="enable-background:new 0 0 606.2 757.2;" xml:space="preserve">
<path style="fill-opacity:5.000000e-02;" d="M460.2,252.1H363l48.6-84.2L460.2,252.1z"/>
<path style="fill-opacity:5.000000e-02;" d="M414.2,673.1H317l48.6-84.2L414.2,673.1z"/>
<path style="fill-opacity:5.000000e-02;" d="M508.2,505.1H411l48.6-84.2L508.2,505.1z"/>
<path style="fill-opacity:0.1;" d="M363.2,420.1H266l48.6-84.2L363.2,420.1z"/>
<path style="fill-opacity:0.1;" d="M508.2,168.1H411l48.6-84.2L508.2,168.1z"/>
<path style="fill-opacity:5.000000e-02;" d="M605.2,337.1H508l48.6-84.2L605.2,337.1z"/>
<path style="fill-opacity:5.000000e-02;" d="M315.7,168.1h-97.2l48.6-84.2L315.7,168.1z"/>
<path style="fill-opacity:5.000000e-02;" d="M557.2,87.1H460l48.6-84.2L557.2,87.1z"/>
<path style="fill:none;stroke:#000000;stroke-width:2;stroke-opacity:5.000000e-02;" d="M509.6,506.9l46.9,81.2h-93.8L509.6,506.9z"
	/>
<path style="fill:#FFFFFF;fill-opacity:0.7;" d="M363.5,253h97.2l-48.6,84.2L363.5,253z"/>
<path style="fill:#FFFFFF;" d="M509,505h97.2l-48.6,84.2L509,505z"/>
<path style="fill:#FFFFFF;" d="M508,168h97.2l-48.6,84.2L508,168z"/>
<path style="fill:#FFFFFF;fill-opacity:0.7;" d="M461,422h97.2l-48.6,84.2L461,422z"/>
<path style="fill:#FFFFFF;fill-opacity:0.7;" d="M411.5,0l97.2,0l-48.6,84.2L411.5,0z"/>
<path style="fill:#FFFFFF;fill-opacity:0.7;" d="M0,345h97.2l-48.6,84.2L0,345z"/>
<path style="fill:#FFFFFF;fill-opacity:0.7;" d="M131,673h97.2l-48.6,84.2L131,673z"/>
<path style="fill:#FFFFFF;fill-opacity:0.7;" d="M460.5,252h97.2l-48.6,84.2L460.5,252z"/>
<path style="fill:#FFFFFF;" d="M412,338h97.2l-48.6,84.2L412,338z"/>
</svg>
