<?xml version="1.0" encoding="utf-8"?>
<!-- Generator: Adobe Illustrator 23.0.5, SVG Export Plug-In . SVG Version: 6.00 Build 0)  -->
<svg version="1.1" id="Layer_1" xmlns="http://www.w3.org/2000/svg" xmlns:xlink="http://www.w3.org/1999/xlink" x="0px" y="0px"
	 viewBox="0 0 618 415" style="enable-background:new 0 0 618 415;" xml:space="preserve">
<style type="text/css">
	.st0{fill:none;stroke:#384A6F;stroke-width:2;stroke-opacity:0.5;}
	.st1{fill:none;stroke:#00CA6E;stroke-width:2;}
</style>
<path class="st0" d="M334.7,83l46.8-81l46.8,81H334.7z"/>
<path class="st0" d="M144.7,84l46.8-81l46.8,81H144.7z"/>
<path class="st0" d="M237.7,249l46.8-81l46.8,81H237.7z"/>
<path class="st0" d="M190.7,331.8l46.8-81.7l46.8,81.7H190.7z"/>
<path class="st0" d="M427.8,84.5l46.9,81.2h-93.8L427.8,84.5z"/>
<path class="st0" d="M96.7,331.8l46.8-81.7l46.8,81.7H96.7z"/>
<path class="st0" d="M522.7,83l46.8-81l46.8,81H522.7z"/>
<path class="st1" d="M49.2,412.8L2.3,331.6h93.8L49.2,412.8z"/>
<path class="st0" d="M1.7,168l46.8-81l46.8,81H1.7z"/>
<path class="st0" d="M475.3,2l-46.8,81L381.7,2L475.3,2z"/>
<path class="st0" d="M190.3,332l-46.8,81l-46.8-81H190.3z"/>
<path class="st0" d="M95.3,168l-46.8,81L1.7,168H95.3z"/>
<path class="st0" d="M237.3,250l-46.8,81l-46.8-81H237.3z"/>
<path class="st1" d="M190.3,168l-46.8,81l-46.8-81H190.3z"/>
</svg>
