<?xml version="1.0" encoding="utf-8"?>
<!-- Generator: Adobe Illustrator 23.0.5, SVG Export Plug-In . SVG Version: 6.00 Build 0)  -->
<svg version="1.1" id="Layer_1" xmlns="http://www.w3.org/2000/svg" xmlns:xlink="http://www.w3.org/1999/xlink" x="0px" y="0px"
	 viewBox="0 0 456.6 492.4" style="enable-background:new 0 0 456.6 492.4;" xml:space="preserve">
<style type="text/css">
	.st0{fill:#358C65;}
	.st1{fill:#46617C;}
	.st2{fill:#4AB181;}
	.st3{fill:#70BD95;}
	.st4{fill:#8BC7A7;}
	.st5{fill:#567DA2;}
	.st6{fill:#35495E;}
	.st7{fill:#87A9C9;}
	.st8{fill:#AFD7C3;}
	.st9{fill:#A3BEDA;}
	.st10{fill:#6991B5;}
	.st11{fill:#399F73;}
	.st12{fill:#FF2407;}
	.st13{fill:#FFFFFF;}
</style>
<path class="st0" d="M246.6,349.6h-36.7l18.3-32L246.6,349.6z M228.2,349.6l-9.2-16h18.4"/>
<path class="st1" d="M209.9,157.6h36.7l-18.4,32L209.9,157.6z M228.2,157.6l9.2,16H219"/>
<path class="st2" d="M173.1,221.6h-36.8l18.4-32L173.1,221.6L173.1,221.6z M154.7,221.6l-9.2-16h18.4 M320.1,221.6h-36.8l18.4-32
	L320.1,221.6z M301.7,221.6l-9.2-16h18.4 M209.9,285.6h-36.8l18.4-32L209.9,285.6L209.9,285.6z M191.5,285.6l-9.2-16h18.4"/>
<path class="st3" d="M246.6,221.6h36.8l-18.4,32L246.6,221.6z M265,221.6l9.2,16h-18.4"/>
<path class="st4" d="M136.3,157.6H99.6l18.4-32L136.3,157.6z M118,157.6l-9.2-16h18.3"/>
<path class="st5" d="M283.4,157.6h-36.8l18.4-32L283.4,157.6z M265,157.6l-9.2-16h18.4"/>
<path class="st2" d="M246.6,285.6h-36.7l18.3-32L246.6,285.6z M228.2,285.6l-9.2-16h18.4"/>
<path class="st6" d="M209.9,221.6h36.7l-18.4,32L209.9,221.6z M228.2,221.6l9.2,16H219"/>
<path class="st4" d="M173.1,157.6h-36.8l18.4-32L173.1,157.6L173.1,157.6z M154.7,157.6l-9.2-16h18.4 M320.1,157.6h-36.8l18.4-32
	L320.1,157.6z M301.7,157.6l-9.2-16h18.4"/>
<path class="st2" d="M283.4,285.6h-36.8l18.4-32L283.4,285.6z M265,285.6l-9.2-16h18.4"/>
<path class="st3" d="M173.1,221.6h36.8l-18.4,32L173.1,221.6L173.1,221.6z M191.5,221.6l9.2,16h-18.4"/>
<path class="st5" d="M209.8,157.6h-36.7l18.4-32L209.8,157.6z M191.5,157.6l-9.2-16h18.4"/>
<path class="st4" d="M356.9,157.6h-36.8l18.4-32L356.9,157.6z M338.5,157.6l-9.2-16h18.4"/>
<path class="st0" d="M228.2,317.6h-36.7l18.4-32L228.2,317.6z M209.9,317.6l-9.2-16H219"/>
<path class="st6" d="M228.2,189.6H265l-18.4,32L228.2,189.6L228.2,189.6z M246.6,189.6l9.2,16h-18.4"/>
<path class="st2" d="M154.7,189.6h-36.8l18.4-32L154.7,189.6L154.7,189.6z M136.3,189.6l-9.2-16h18.3 M301.7,189.6H265l18.4-32
	L301.7,189.6L301.7,189.6z M283.4,189.6l-9.2-16h18.3 M191.5,253.6h-36.8l18.4-32L191.5,253.6L191.5,253.6z M173.1,253.6l-9.2-16
	h18.4"/>
<path class="st4" d="M118,125.6H81.2l18.4-32L118,125.6z M99.6,125.6l-9.2-16h18.4"/>
<path class="st7" d="M173.1,93.6h-36.8l18.4-32L173.1,93.6L173.1,93.6z M154.7,93.6l-9.2-16h18.4 M283.4,93.6h-36.8l18.4-32
	L283.4,93.6z M265,93.6l-9.2-16h18.4"/>
<path class="st8" d="M136.3,93.6H99.6l18.4,32L136.3,93.6z M118,93.6l-9.2,16h18.3"/>
<path class="st9" d="M304.2,38.5h-36.8l18.4,32L304.2,38.5z M285.9,38.5l-9.2,16H295"/>
<path class="st10" d="M265,125.6h-36.8l18.4-32L265,125.6z M246.6,125.6l-9.2-16h18.4"/>
<path class="st4" d="M360,70.2h-36.8l18.4-32L360,70.2z M341.6,70.2l-9.2-16h18.4"/>
<path class="st9" d="M283.4,93.6h-36.8l18.4,32L283.4,93.6z M265,93.6l-9.2,16h18.4"/>
<path class="st8" d="M56.5,0H19.8l18.4,32L56.5,0z M38.1,0l-9.2,16h18.4"/>
<path class="st2" d="M265,253.6h-36.8l18.4-32L265,253.6z M246.6,253.6l-9.2-16h18.4"/>
<path class="st10" d="M191.5,125.6h-36.8l18.4-32L191.5,125.6L191.5,125.6z M173.1,125.6l-9.2-16h18.4"/>
<path class="st4" d="M134.8,88.1H98.1l18.4-32L134.8,88.1z M116.4,88.1l-9.2-16h18.4"/>
<path class="st9" d="M209.8,93.6h-36.7l18.4,32L209.8,93.6z M191.5,93.6l-9.2,16h18.4 M151.1,33.2h-36.7l18.3,32
	C132.7,65.2,151.1,33.2,151.1,33.2z M132.7,33.2l-9.2,16h18.4"/>
<path class="st4" d="M338.5,125.6h-36.8l18.4-32L338.5,125.6z M320.1,125.6l-9.2-16h18.4"/>
<path class="st8" d="M430.7,7.2h-36.8l18.4,32C412.3,39.2,430.7,7.2,430.7,7.2z M412.3,7.2l-9.2,16h18.3 M356.9,80.9h-36.8l18.4,32
	L356.9,80.9z M338.5,80.9l-9.2,16h18.4"/>
<path class="st9" d="M338.3,8.7h-36.7l18.3,32L338.3,8.7L338.3,8.7z M319.9,8.7l-9.2,16h18.4"/>
<path class="st0" d="M265,317.6h-36.8l18.4-32L265,317.6z M246.6,317.6l-9.2-16h18.4"/>
<path class="st6" d="M191.5,189.6h36.7l-18.3,32L191.5,189.6z M209.9,189.6l9.2,16h-18.4"/>
<path class="st2" d="M191.5,189.6h-36.8l18.4-32L191.5,189.6L191.5,189.6z M173.1,189.6l-9.2-16h18.4 M338.5,189.6h-36.8l18.4-32
	L338.5,189.6z M320.1,189.6l-9.2-16h18.4 M228.2,253.6h-36.7l18.4-32L228.2,253.6z M209.9,253.6l-9.2-16H219"/>
<path class="st4" d="M154.7,125.6h-36.8l18.4-32L154.7,125.6L154.7,125.6z M136.3,125.6l-9.2-16h18.3"/>
<path class="st7" d="M209.8,93.6h-36.7l18.4-32L209.8,93.6z M191.5,93.6l-9.2-16h18.4 M320.1,93.6h-36.8l18.4-32L320.1,93.6z
	 M301.7,93.6l-9.2-16h18.4"/>
<path class="st9" d="M173.1,93.6h-36.8l18.4,32L173.1,93.6L173.1,93.6z M154.7,93.6l-9.2,16h18.4 M191.5,50.4h-36.8l18.4,32
	L191.5,50.4L191.5,50.4z M173.1,50.4l-9.2,16h18.4"/>
<path class="st10" d="M301.7,125.6H265l18.4-32L301.7,125.6L301.7,125.6z M283.4,125.6l-9.2-16h18.3"/>
<path class="st4" d="M400.5,82.2h-36.8l18.4-32L400.5,82.2z M382.1,82.2l-9.2-16h18.4"/>
<path class="st9" d="M320.1,93.6h-36.8l18.4,32L320.1,93.6z M301.7,93.6l-9.2,16h18.4"/>
<path class="st8" d="M94.6,79.9H57.8l18.4,32L94.6,79.9z M76.2,79.9l-9.2,16h18.3"/>
<path class="st2" d="M301.7,253.6H265l18.4-32L301.7,253.6L301.7,253.6z M283.4,253.6l-9.2-16h18.3"/>
<path class="st10" d="M228.2,125.6h-36.7l18.3-32L228.2,125.6z M209.8,125.6l-9.2-16H219"/>
<path class="st4" d="M85.2,70.5H48.4l18.4-32C66.8,38.5,85.2,70.5,85.2,70.5z M66.8,70.5l-9.2-16H76"/>
<path class="st8" d="M108.3,21.8H71.6l18.4,32L108.3,21.8z M89.9,21.8l-9.2,16h18.4"/>
<path class="st4" d="M375.2,125.6h-36.7l18.4-32L375.2,125.6L375.2,125.6z M356.9,125.6l-9.2-16h18.4"/>
<path class="st8" d="M393.6,93.6h-36.7l18.3,32L393.6,93.6L393.6,93.6z M375.2,93.6l-9.2,16h18.4 M383.6,18.9h-36.8l18.4,32
	C365.2,50.9,383.6,18.9,383.6,18.9z M365.2,18.9l-9.2,16h18.4"/>
<path class="st11" d="M191.5,317.6h36.7l-18.3,32L191.5,317.6z M209.9,317.6l9.2,16h-18.4"/>
<path class="st5" d="M265,189.6h-36.8l18.4-32L265,189.6z M246.6,189.6l-9.2-16h18.4"/>
<path class="st3" d="M118,189.6h36.7l-18.4,32L118,189.6z M136.3,189.6l9.2,16h-18.3 M265,189.6h36.8l-18.4,32L265,189.6z
	 M283.4,189.6l9.2,16h-18.3"/>
<path class="st11" d="M154.7,253.6h36.8l-18.4,32L154.7,253.6L154.7,253.6z M173.1,253.6l9.2,16h-18.4"/>
<path class="st3" d="M81.2,125.6H118l-18.4,32C99.6,157.6,81.2,125.6,81.2,125.6z M99.6,125.6l9.2,16H90.4"/>
<path class="st7" d="M228.2,125.6H265l-18.4,32L228.2,125.6L228.2,125.6z M246.6,125.6l9.2,16h-18.4"/>
<path class="st11" d="M228.2,253.6H265l-18.4,32L228.2,253.6L228.2,253.6z M246.6,253.6l9.2,16h-18.4"/>
<path class="st7" d="M154.7,125.6h36.8l-18.4,32L154.7,125.6L154.7,125.6z M173.1,125.6l9.2,16h-18.4"/>
<path class="st3" d="M301.7,125.6h36.8l-18.4,32C320.1,157.6,301.7,125.6,301.7,125.6z M320.1,125.6l9.2,16h-18.4"/>
<path class="st11" d="M228.2,317.6H265l-18.4,32L228.2,317.6L228.2,317.6z M246.6,317.6l9.2,16h-18.4"/>
<path class="st5" d="M228.2,189.6h-36.7l18.4-32L228.2,189.6z M209.9,189.6l-9.2-16H219"/>
<path class="st3" d="M154.7,189.6h36.8l-18.4,32L154.7,189.6L154.7,189.6z M173.1,189.6l9.2,16h-18.4 M301.7,189.6h36.8l-18.4,32
	L301.7,189.6z M320.1,189.6l9.2,16h-18.4"/>
<path class="st11" d="M191.5,253.6h36.7l-18.3,32L191.5,253.6z M209.9,253.6l9.2,16h-18.4"/>
<path class="st3" d="M118,125.6h36.7l-18.4,32C136.3,157.6,118,125.6,118,125.6z M136.3,125.6l9.2,16h-18.3"/>
<path class="st7" d="M265,125.6h36.8l-18.4,32C283.4,157.6,265,125.6,265,125.6z M283.4,125.6l9.2,16h-18.3"/>
<path class="st11" d="M265,253.6h36.8l-18.4,32L265,253.6z M283.4,253.6l9.2,16h-18.3"/>
<path class="st7" d="M191.5,125.6h36.7l-18.4,32C209.8,157.6,191.5,125.6,191.5,125.6z M209.8,125.6l9.2,16h-18.4"/>
<path class="st3" d="M338.5,125.6h36.7l-18.3,32L338.5,125.6L338.5,125.6z M356.9,125.6l9.2,16h-18.4"/>
<path class="st11" d="M209.9,349.6h36.7l-18.4,32L209.9,349.6z M228.2,349.6l9.2,16H219"/>
<path class="st5" d="M246.6,157.6h-36.7l18.3-32L246.6,157.6z M228.2,157.6l-9.2-16h18.4"/>
<path class="st3" d="M136.3,221.6h36.8l-18.4,32L136.3,221.6L136.3,221.6z M154.7,221.6l9.2,16h-18.4 M283.4,221.6h36.8l-18.4,32
	L283.4,221.6z M301.7,221.6l9.2,16h-18.4"/>
<path class="st11" d="M173.1,285.6h36.8l-18.4,32L173.1,285.6L173.1,285.6z M191.5,285.6l9.2,16h-18.4"/>
<path class="st2" d="M283.4,221.6h-36.8l18.4-32L283.4,221.6z M265,221.6l-9.2-16h18.4"/>
<path class="st3" d="M99.6,157.6h36.8l-18.4,32C118,189.6,99.6,157.6,99.6,157.6z M118,157.6l9.2,16h-18.4"/>
<path class="st1" d="M246.6,157.6h36.8l-18.4,32L246.6,157.6z M265,157.6l9.2,16h-18.4"/>
<path class="st11" d="M209.9,285.6h36.7l-18.4,32L209.9,285.6z M228.2,285.6l9.2,16H219"/>
<path class="st1" d="M246.6,221.6h-36.7l18.3-32L246.6,221.6z M228.2,221.6l-9.2-16h18.4"/>
<path class="st3" d="M136.3,157.6h36.8l-18.4,32L136.3,157.6L136.3,157.6z M154.7,157.6l9.2,16h-18.4 M283.4,157.6h36.8l-18.4,32
	L283.4,157.6z M301.7,157.6l9.2,16h-18.4"/>
<path class="st11" d="M246.6,285.6h36.8l-18.4,32L246.6,285.6z M265,285.6l9.2,16h-18.4"/>
<path class="st2" d="M209.9,221.6h-36.8l18.4-32L209.9,221.6L209.9,221.6z M191.5,221.6l-9.2-16h18.4"/>
<path class="st1" d="M173.1,157.6h36.7l-18.3,32L173.1,157.6z M191.5,157.6l9.2,16h-18.4"/>
<path class="st3" d="M320.1,157.6h36.8l-18.4,32L320.1,157.6z M338.5,157.6l9.2,16h-18.4 M0,0 M0,0"/>
<g>
	<path class="st2" d="M78.1,430.1l-21.9,50.5H44.8L23,430.1h12.6L51,466.1l15.6-36.1H78.1z"/>
	<path class="st2" d="M89,475.4c-4-4-6-9.7-6-17.1v-28.3h11.7v27.8c0,9,3.8,13.6,11.3,13.6c3.7,0,6.4-1.1,8.4-3.3
		c1.9-2.2,2.9-5.6,2.9-10.3v-27.8h11.5v28.3c0,7.4-2,13.1-6,17.1c-4,4-9.6,6-16.8,6C98.6,481.4,93,479.4,89,475.4z"/>
	<path class="st2" d="M179.3,471.2v9.4h-39.1v-50.5h38.1v9.4h-26.5v11h23.4v9.1h-23.4v11.7H179.3z"/>
	<path class="st2" d="M187.8,479.1c-1.3-1.3-2-3-2-5c0-2.1,0.7-3.7,2-5c1.3-1.3,3-1.9,5-1.9c2,0,3.6,0.6,5,1.9c1.3,1.3,2,2.9,2,5
		c0,2-0.7,3.7-2,5c-1.3,1.3-3,2-5,2C190.8,481.1,189.2,480.4,187.8,479.1z"/>
	<path class="st2" d="M212,479.5c-2.9-1.3-5.2-3.1-7-5.4l6.5-7.8c2.7,3.7,5.9,5.6,9.4,5.6c4.8,0,7.1-2.8,7.1-8.4v-24h-17.7v-9.4
		h29.4v32.7c0,6.2-1.5,10.9-4.6,14c-3.1,3.1-7.6,4.7-13.6,4.7C218,481.4,214.9,480.8,212,479.5z"/>
	<path class="st2" d="M256.2,479.8c-3.7-1.1-6.7-2.5-9-4.2l4-8.8c2.2,1.6,4.7,2.9,7.7,3.8c3,1,6,1.4,8.9,1.4c3.3,0,5.8-0.5,7.4-1.5
		c1.6-1,2.4-2.3,2.4-3.9c0-1.2-0.5-2.2-1.4-3c-0.9-0.8-2.1-1.4-3.6-1.9c-1.5-0.5-3.5-1-5.9-1.6c-3.8-0.9-7-1.8-9.4-2.7
		c-2.5-0.9-4.6-2.4-6.3-4.4c-1.8-2-2.6-4.7-2.6-8.1c0-2.9,0.8-5.6,2.4-8c1.6-2.4,4-4.3,7.2-5.7c3.2-1.4,7.1-2.1,11.7-2.1
		c3.2,0,6.4,0.4,9.4,1.2c3.1,0.8,5.8,1.9,8.1,3.3l-3.6,8.9c-4.7-2.6-9.3-4-14-4c-3.3,0-5.7,0.5-7.2,1.6c-1.6,1.1-2.3,2.5-2.3,4.2
		c0,1.7,0.9,3,2.7,3.9c1.8,0.8,4.6,1.7,8.3,2.5c3.8,0.9,7,1.8,9.4,2.7c2.5,0.9,4.6,2.4,6.3,4.3c1.8,2,2.6,4.6,2.6,8
		c0,2.9-0.8,5.5-2.4,7.9c-1.6,2.4-4,4.3-7.2,5.7c-3.2,1.4-7.1,2.1-11.8,2.1C263.7,481.4,259.9,480.9,256.2,479.8z"/>
</g>
<rect x="309.1" y="422.9" class="st12" width="124.3" height="64"/>
<g>
	<path class="st13" d="M324.5,440.5h7v24.6h15.2v5.7h-22.2V440.5z"/>
	<path class="st13" d="M350.7,440.5h7v30.3h-7V440.5z"/>
	<path class="st13" d="M393.8,440.5l-13.1,30.3h-6.9l-13.1-30.3h7.6l9.2,21.6l9.3-21.6H393.8z"/>
	<path class="st13" d="M419.8,465.2v5.6h-23.5v-30.3h22.9v5.6h-15.9v6.6h14.1v5.5h-14.1v7H419.8z"/>
</g>
</svg>
