<svg width="140" height="56" viewBox="0 0 140 56" fill="none" xmlns="http://www.w3.org/2000/svg">
<path d="M12.8008 44.7305H17.9764C18.0464 45.4305 18.3262 46.0605 18.8857 46.6905C19.4452 47.3205 20.1446 47.5305 21.1238 47.5305C22.1729 47.5305 23.0122 47.1805 23.5718 46.4805C24.1313 45.7805 24.4111 44.8005 24.4111 43.5405V27.2305H29.7266V43.6105C29.7266 46.3405 28.9573 48.5105 27.4186 49.9805C25.8798 51.5205 23.7816 52.2905 21.0539 52.2905C18.6059 52.2905 16.5776 51.5905 15.1088 50.1205C13.5701 48.7205 12.8008 46.9005 12.8008 44.7305Z" fill="#F7DF1E"/>
<path d="M32.1719 44.8005H37.5574C38.1169 46.7605 39.6556 47.7405 42.1036 47.7405C43.2926 47.7405 44.2718 47.4605 44.9712 46.9005C45.6706 46.3405 46.0203 45.6405 46.0203 44.7305C46.0203 43.2605 45.0411 42.3505 43.1527 42.0705L39.236 41.4405C34.7597 40.7405 32.5216 38.5005 32.5216 34.5805C32.5216 32.2705 33.3609 30.3805 35.1094 28.9805C36.858 27.5105 39.0261 26.8105 41.6839 26.8105C44.3417 26.8105 46.44 27.4405 48.1885 28.7705C49.937 30.0305 50.9162 31.8505 51.2659 34.0905H45.9504C45.3908 32.2705 43.992 31.3605 41.7539 31.3605C40.7047 31.3605 39.7955 31.6405 39.0961 32.1305C38.3967 32.6205 38.047 33.3205 38.047 34.2305C38.047 35.5605 38.9562 36.4005 40.8446 36.6105L44.6914 37.1705C46.8596 37.5205 48.5382 38.2205 49.7272 39.4105C50.9861 40.6005 51.6156 42.2105 51.6156 44.2405C51.6156 46.6905 50.7763 48.5805 49.0977 50.0505C47.4191 51.4505 45.1111 52.2205 42.2435 52.2205C39.5157 52.2205 37.2776 51.5905 35.4591 50.1905C33.5707 48.9305 32.5216 47.1105 32.1719 44.8005Z" fill="#F7DF1E"/>
<path d="M14.8994 31.7793C14.8994 31.7793 15.1092 35.0693 12.8711 38.4293C10.633 41.7893 8.88444 43.9593 8.04514 48.9993C7.9752 49.4193 7.4856 44.0993 9.65379 39.9693C11.822 35.8393 13.8503 34.9293 14.8994 31.7793Z" fill="#F7DF1E"/>
<path d="M16.0881 15.541C16.0881 15.541 15.5985 16.521 15.8783 18.131C16.2979 20.231 15.4586 21.631 13.1505 22.821C11.6118 23.591 9.86328 25.551 9.86328 25.551C9.86328 25.551 10.5627 23.591 12.5211 21.561C15.1089 19.111 13.7101 17.501 16.0881 15.541Z" fill="#F7DF1E"/>
<path d="M15.948 11.8301C15.948 11.8301 16.2278 13.8601 14.2694 15.5401C12.3111 17.2201 10.5625 16.9401 10.5625 16.9401C10.5625 16.9401 12.311 16.3801 13.7798 14.9101C15.2486 13.4401 15.8781 11.8301 15.948 11.8301Z" fill="#F7DF1E"/>
<path d="M14.3394 9.87024C14.3394 9.87024 13.7799 11.4802 10.4227 14.0702C10.2129 14.2102 12.451 13.7902 14.829 11.4102C17.207 9.03024 16.9273 8.33023 16.8573 7.84023C16.7874 7.21023 16.2279 6.51023 15.9481 6.93023C14.9689 8.19023 13.9897 9.31024 11.8915 10.4302C12.5909 9.87023 13.5701 8.82024 14.5493 7.56024C16.018 5.74024 15.7383 4.27023 15.1088 3.99023C15.2487 4.76023 14.6891 6.37023 10.0031 10.5002C7.2054 13.0202 4.6875 13.7902 4.6875 13.7902C4.6875 13.7902 6.50598 13.8602 9.51346 12.5302C12.5209 11.2702 14.3394 9.87024 14.3394 9.87024Z" fill="#F7DF1E"/>
<path d="M36.931 14.3508L45.324 14.9108C45.3939 14.9108 45.3939 14.8408 45.324 14.8408L37.0709 13.3708C36.7911 13.3008 36.5113 13.5108 36.4414 13.8608C36.4414 14.0708 36.6512 14.3508 36.931 14.3508Z" fill="#F7DF1E"/>
<path d="M35.5994 20.7196L42.5236 24.9896C42.5935 25.0596 42.6635 24.9196 42.5935 24.9196L36.1589 19.9496C35.9491 19.7396 35.5994 19.8796 35.4595 20.0896C35.3196 20.2996 35.3896 20.5796 35.5994 20.7196Z" fill="#F7DF1E"/>
<path d="M33.9923 11.62C33.8524 11.41 33.7125 11.27 33.5726 11.06C33.5027 10.92 33.4327 10.85 33.4327 10.71L33.2928 8.96L32.9431 10.01C32.9431 10.08 32.8032 10.15 32.7333 10.08C32.5934 9.94 32.4535 9.87 32.3136 9.73C32.2437 9.66 32.1738 9.52 32.1738 9.45L31.894 7.42L31.5443 8.89C31.4744 9.03 31.3345 9.1 31.2645 9.03C31.0547 8.96 30.9148 8.89 30.705 8.82C30.5651 8.75 30.4952 8.68 30.4952 8.54L30.2154 6.23L29.5859 8.4C29.5859 8.47 29.446 8.54 29.3761 8.54C29.3062 8.54 29.1663 8.47 29.0963 8.47C29.0264 8.47 28.9565 8.4 28.9565 8.33L28.4669 5.32L27.9073 8.12C27.9073 8.19 27.7675 8.26 27.6975 8.26C27.6276 8.26 27.5576 8.26 27.4877 8.26C27.4177 8.26 27.3478 8.19 27.3478 8.12L26.5784 5.25L26.1588 8.12C26.1588 8.19 26.0889 8.33 25.949 8.33C25.8091 8.33 25.7392 8.33 25.5993 8.4C25.4594 8.4 25.3894 8.33 25.3894 8.26L24.5501 5.81L24.4103 8.54C24.4103 8.61 24.3403 8.68 24.2704 8.68C24.1305 8.68 24.0605 8.75 23.9207 8.75C23.8507 8.75 23.7109 8.75 23.7109 8.61L22.8715 6.58L22.8016 9.03C22.8016 9.1 22.7317 9.17 22.7317 9.17C22.6617 9.24 22.4519 9.31 22.382 9.31C22.312 9.38 22.1721 9.31 22.1721 9.24L21.4727 7.56V9.59C21.4727 9.73 21.4028 9.87 21.2629 9.87C21.0531 9.94 20.9132 10.08 20.7733 10.15C20.7034 10.22 20.5635 10.15 20.5635 10.08L20.1438 8.89L20.0039 10.36C20.0039 10.5 19.934 10.71 19.7941 10.78C18.6051 11.76 17.6959 13.09 17.0664 15.4C17.0664 15.4 18.3253 12.39 21.8924 11.06C26.2987 9.45 29.5859 10.64 30.705 9.45C30.705 9.59 30.8449 10.29 31.894 11.06C33.083 11.97 34.2021 12.74 34.8315 14C34.6917 13.09 34.4818 12.32 33.9923 11.62Z" fill="#F7DF1E"/>
<path d="M30.9856 16.8005C30.1463 15.8205 30.8457 14.3505 30.8457 14.3505C30.9156 14.2105 32.3844 14.6305 33.1538 15.4005C33.1538 14.9805 33.0139 14.4205 31.8948 13.5805C30.7758 12.7405 30.1463 11.5505 30.0763 11.0605C29.7966 11.3405 29.5168 11.6905 27.7683 11.7605C26.0197 11.8305 24.9007 11.6905 23.7117 12.9505C23.8516 12.8805 24.9007 12.3205 26.4394 12.6005C28.048 12.9505 28.048 13.4405 29.237 13.5805C29.4469 13.5805 29.237 14.2105 28.8873 14.6305C28.4677 15.1205 27.6983 15.7505 26.929 15.3305C26.1596 14.9105 25.1105 14.7005 24.0614 15.1905C23.0123 15.6805 20.7741 15.3305 19.6551 17.0805C18.9556 18.1305 18.7458 18.9705 18.6759 19.4605C18.6059 19.7405 18.6759 20.0905 18.8158 20.3005L20.7042 24.0805C20.8441 24.3605 21.1938 24.5005 21.5435 24.4305C22.3128 24.2205 23.7816 23.8005 25.1105 23.6605C26.5793 23.5205 28.3978 23.8005 29.0972 23.9405C29.307 24.0105 29.5168 23.9405 29.7266 23.8005C30.4261 23.3105 31.9648 22.1205 32.3145 21.0705C32.8041 19.8105 32.3145 18.1305 30.9856 16.8005ZM31.1255 18.9705C30.9856 19.4605 30.6359 19.6005 30.6359 19.6005C30.6359 19.6005 30.8457 19.8105 30.7058 20.5805C30.6359 21.1405 30.9156 21.4905 30.9156 21.4905C30.9156 21.4905 30.4261 21.9805 29.4469 21.8405C28.8174 21.7005 28.7475 21.5605 28.1879 21.3505C27.6983 21.1405 27.0689 21.3505 26.859 21.6305C26.9989 21.1405 27.6983 20.6505 28.2579 20.6505C28.8873 20.6505 29.237 21.1405 29.7266 21.0705C30.2862 21.0005 30.3561 21.1405 30.3561 21.1405C30.3561 21.1405 30.2162 20.7205 29.9365 20.5805C29.5868 20.4405 29.5168 20.6505 29.0272 20.3705C28.5376 20.0905 27.8382 20.1605 27.2087 20.5105C26.7192 20.7905 26.2995 20.7905 26.1596 20.6505C26.7192 20.3705 27.0689 19.9505 27.9082 19.4605C28.6775 18.9705 29.307 19.6005 29.237 19.3905C29.0272 18.8305 28.118 18.6205 27.6983 18.6205C27.2787 18.6205 27.2087 17.9905 27.4186 17.9205C28.7475 17.3605 29.5168 16.7305 29.5868 16.8705C30.0064 17.7105 30.7758 17.3605 30.7758 17.3605C30.7758 17.3605 31.3353 18.0605 31.1255 18.9705Z" fill="#F7DF1E"/>
<path d="M12.1007 28.9095C10.3522 30.7295 7.20483 33.3895 5.31641 38.8495C3.28811 44.8695 5.03665 52.4295 5.03665 52.4295C5.17653 49.2095 5.4563 44.4495 6.85513 40.6695C8.3239 36.7495 10.7019 34.5095 13.2898 32.0595C15.2481 30.2395 15.9475 28.7695 16.0175 28.0695C16.577 29.1895 17.2764 32.8295 15.5279 39.3395C16.7169 37.5895 18.3955 33.6695 18.6752 30.0295C18.8851 27.0195 18.4654 23.8695 17.4163 21.7695C16.0175 25.6195 12.0308 26.1095 8.39386 28.3495C4.96672 30.3795 3.84766 33.7395 3.84766 33.7395C3.84766 33.7395 7.62449 29.4695 12.1007 28.9095Z" fill="#F7DF1E"/>
<path d="M0 0V14.98C0 14.98 0 15.05 0 15.47V56H55.9532V0H0ZM29.7251 1.4L28.676 3.22C28.4662 3.57 28.1165 3.71 27.6968 3.64C26.2281 3.36 24.6194 3.5 23.2206 3.78C22.731 3.92 22.1715 3.57 22.1015 3.08L21.7518 1.4H29.7251ZM54.5544 54.6H1.39883V32.27C5.10573 30.17 6.15484 27.79 7.13402 24.78C8.60279 20.44 11.3305 19.39 11.3305 19.39C8.9525 19.25 6.22479 21.49 4.47625 26.39C3.63695 28.7 2.72772 30.24 1.39883 31.29V29.19C1.39883 26.74 2.16819 24.5 2.79766 23.38C4.61614 20.09 7.48373 18.76 7.48373 18.76C5.2456 18.76 2.65776 20.44 1.46875 22.96V17.71C2.93753 17.78 6.22479 17.71 9.02245 15.89C8.81263 15.96 6.9242 16.45 3.70689 16.31C2.86759 16.31 2.09823 16.17 1.46875 16.1V12.53C1.8884 13.02 2.37801 13.44 3.07742 13.58C1.67859 12.25 1.46875 10.92 1.46875 9.66V1.4H5.10572C5.03578 1.75 4.8959 2.17 4.82596 2.52C4.33637 5.53 4.33637 8.75 4.40631 9.8C4.54619 10.85 5.31554 11.13 6.71437 10.43C9.72185 8.89 11.1207 7.42 11.6103 6.72C11.8201 6.51 11.8901 6.23 11.8901 5.95C11.8901 5.18 11.8901 3.29 12.1698 1.33H20.6327L20.8426 3.85C20.8426 4.27 20.6327 4.62 20.283 4.76C18.9542 5.39 17.905 6.09 17.4854 6.72C17.2756 7 17.6952 7.7 17.6952 7.7C17.6952 7.7 20.4929 5.04 25.109 4.62C29.3055 4.27 30.8442 5.39 32.8026 7.21C34.691 8.89 35.6002 12.04 35.6702 12.32C35.6702 12.18 35.6702 10.71 34.7609 8.96C34.621 8.75 34.691 8.47 34.9008 8.33L44.273 2.87C44.3429 2.87 44.273 2.73 44.203 2.8L34.0615 7.28C33.8517 7.35 33.6419 7.35 33.502 7.14C32.8026 6.3 31.8933 5.46 30.7043 4.69C30.6344 4.62 30.5644 4.62 30.4945 4.55C30.0748 4.34 29.935 3.85 30.1448 3.43L31.054 1.26H54.6243V54.6H54.5544Z" fill="#F7DF1E"/>
<path d="M63.9531 27.3008H66.4011L67.3103 32.4808L67.73 35.2108H67.8699L69.4785 27.3008H72.1363L73.8149 35.2108H73.8848L74.3045 32.4808L75.2137 27.3008H77.6617L75.4935 37.5908H72.486L70.8773 30.2408H70.8074L69.1288 37.5908H66.1213L63.9531 27.3008Z" fill="white"/>
<path d="M78.5 27.3008H85.9837V29.1908H80.7381V31.5008H85.2843V33.2508H80.7381V35.7008H86.0537V37.5908H78.5699V27.3008H78.5Z" fill="white"/>
<path d="M87.1055 27.3008H94.5892V29.1908H89.3436V31.5008H93.8898V33.2508H89.3436V35.7008H94.6591V37.5908H87.1754V27.3008H87.1055Z" fill="white"/>
<path d="M95.7773 27.3008H97.9455V32.2008L102.072 27.3008H104.66L100.883 31.5708L104.73 37.5908H102.142L99.4143 33.1808L98.0155 34.7908V37.5908H95.8473V27.3008H95.7773Z" fill="white"/>
<path d="M105.5 27.3008H112.984V29.1908H107.738V31.5008H112.284V33.2508H107.738V35.7008H113.054V37.5908H105.57V27.3008H105.5Z" fill="white"/>
<path d="M114.242 27.3008H116.83L121.166 34.5808H121.236L121.166 31.2908V27.3008H123.265V37.5908H120.817L116.48 30.4508H116.41L116.48 33.4608V37.5908H114.242V27.3008Z" fill="white"/>
<path d="M124.73 27.3008H129.067C132.144 27.3008 133.823 29.4008 133.823 32.4808C133.823 35.5608 132.144 37.5908 129.067 37.5908H124.73V27.3008ZM128.717 35.7008C130.396 35.7008 131.585 34.8608 131.585 32.4108C131.585 29.9608 130.396 29.1908 128.717 29.1908H126.899V35.7008H128.717Z" fill="white"/>
<path d="M64.9336 41.582H67.5214L71.8578 48.862H71.9277L71.8578 45.572V41.582H73.9561V51.872H71.5081L67.1717 44.732H67.1018L67.1717 47.742V51.872H64.9336V41.582Z" fill="white"/>
<path d="M75.2852 41.582H82.7689V43.472H77.5233V45.782H82.0695V47.532H77.5233V49.982H82.8388V51.872H75.3551V41.582H75.2852Z" fill="white"/>
<path d="M83.3984 41.582H85.8464L86.7556 46.762L87.1753 49.492H87.3152L88.9238 41.582H91.5816L93.2602 49.492H93.3301L93.7498 46.762L94.729 41.582H97.1769L95.0087 51.872H92.0012L90.3926 44.522H90.3226L88.6441 51.872H85.6366L83.3984 41.582Z" fill="white"/>
<path d="M102.98 47.952L99.2031 41.582H101.721L104.099 45.782H104.169L106.547 41.582H109.065L105.218 47.952V51.872H103.05V47.952H102.98Z" fill="white"/>
<path d="M108.227 46.6914C108.227 43.3314 110.255 41.4414 113.402 41.4414C116.55 41.4414 118.578 43.4014 118.578 46.6914C118.578 50.0514 116.55 51.9414 113.402 51.9414C110.255 52.0114 108.227 50.0514 108.227 46.6914ZM116.27 46.6914C116.27 44.4514 115.151 43.3314 113.402 43.3314C111.654 43.3314 110.535 44.4514 110.535 46.6914C110.535 48.9314 111.654 50.1214 113.402 50.1214C115.151 50.1214 116.27 49.0014 116.27 46.6914Z" fill="white"/>
<path d="M119.418 41.582H124.524C126.902 41.582 128.091 42.632 128.091 44.522C128.091 45.782 127.391 46.692 126.342 46.972V47.042C127.391 47.252 127.881 47.882 127.881 49.002V50.682C127.881 51.032 127.881 51.452 128.091 51.872H125.853C125.713 51.592 125.713 51.172 125.713 50.682V49.422C125.713 48.582 125.363 48.022 124.174 48.022H121.726V51.802H119.558V41.582H119.418ZM124.174 46.342C125.363 46.342 125.853 45.712 125.853 44.802C125.853 43.752 125.153 43.402 124.174 43.402H121.656V46.342H124.174Z" fill="white"/>
<path d="M129.211 41.582H131.379V46.482L135.506 41.582H138.094L134.317 45.852L138.163 51.872H135.576L132.848 47.462L131.449 49.072V51.872H129.281V41.582H129.211Z" fill="white"/>
</svg>
