<?xml version="1.0" encoding="utf-8"?>
<!-- Generator: Adobe Illustrator 23.0.5, SVG Export Plug-In . SVG Version: 6.00 Build 0)  -->
<svg version="1.1" id="Layer_1" xmlns="http://www.w3.org/2000/svg" xmlns:xlink="http://www.w3.org/1999/xlink" x="0px" y="0px"
	 viewBox="0 0 600 600" style="enable-background:new 0 0 600 600;" xml:space="preserve">
<style type="text/css">
	.st0{clip-path:url(#SVGID_2_);}
	.st1{fill:#181818;}
	.st2{fill-rule:evenodd;clip-rule:evenodd;}
	.st3{fill-rule:evenodd;clip-rule:evenodd;fill:url(#SVGID_3_);}
	.st4{fill:none;stroke:url(#SVGID_4_);stroke-width:0.5;stroke-opacity:0.85;}
	.st5{fill:#FFFFFF;}
</style>
<g>
	<defs>
		<rect id="SVGID_1_" width="600" height="600"/>
	</defs>
	<clipPath id="SVGID_2_">
		<use xlink:href="#SVGID_1_"  style="overflow:visible;"/>
	</clipPath>
	<g class="st0">
		<rect class="st1" width="600" height="600"/>
		<g>
			<path class="st2" d="M658,198.2L454.6,465.4c-18.9,24.8-56.3,24.6-74.9-0.5l-43.7-59L215.4,529.2c-14.7,15-37.5,18.4-55.9,8.3
				l-64.6-35.4L-20.7,600L-57,557L63.5,455c14.8-12.5,35.7-14.6,52.7-5.3l64,35.1l123.3-126.1c20.2-20.6,53.9-18.3,71.1,4.9
				l42.8,57.9L613.3,164L658,198.2z"/>
			
				<linearGradient id="SVGID_3_" gradientUnits="userSpaceOnUse" x1="-38.8606" y1="226" x2="604.426" y2="226" gradientTransform="matrix(1 0 0 -1 0 608)">
				<stop  offset="0" style="stop-color:#EE6431"/>
				<stop  offset="0.2083" style="stop-color:#6565FF"/>
				<stop  offset="0.3444" style="stop-color:#A7A7FF"/>
				<stop  offset="0.4666" style="stop-color:#6DA4BF"/>
				<stop  offset="0.7344" style="stop-color:#FF9022"/>
				<stop  offset="0.8698" style="stop-color:#FFD0A8"/>
				<stop  offset="1" style="stop-color:#FDAC5C"/>
			</linearGradient>
			<path class="st3" d="M658,198.2L454.6,465.4c-18.9,24.8-56.3,24.6-74.9-0.5l-43.7-59L215.4,529.2c-14.7,15-37.5,18.4-55.9,8.3
				l-64.6-35.4L-20.7,600L-57,557L63.5,455c14.8-12.5,35.7-14.6,52.7-5.3l64,35.1l123.3-126.1c20.2-20.6,53.9-18.3,71.1,4.9
				l42.8,57.9L613.3,164L658,198.2z"/>
			
				<linearGradient id="SVGID_4_" gradientUnits="userSpaceOnUse" x1="-38.8606" y1="225.9979" x2="604.426" y2="225.9979" gradientTransform="matrix(1 0 0 -1 0 608)">
				<stop  offset="0" style="stop-color:#A465A0"/>
				<stop  offset="0.2135" style="stop-color:#A193FF"/>
				<stop  offset="0.4427" style="stop-color:#94D3F9"/>
				<stop  offset="0.6823" style="stop-color:#FFAD5F"/>
				<stop  offset="1" style="stop-color:#FFFFFF"/>
			</linearGradient>
			<path class="st4" d="M658.2,198.3l0.2-0.2l-0.2-0.2l-44.7-34.2l-0.2-0.2l-0.2,0.2L417.5,420.9l-42.6-57.6
				c-17.2-23.3-51.2-25.6-71.5-4.9l-123.2,126l-63.9-35c-17.1-9.3-38.1-7.2-53,5.4l-120.5,102l-0.2,0.2l0.2,0.2l36.3,43l0.2,0.2
				l0.2-0.2l115.4-97.7l64.5,35.3c18.5,10.1,41.5,6.7,56.2-8.4L336,406.2l43.5,58.8c18.7,25.2,56.3,25.5,75.3,0.5L658.2,198.3z"/>
		</g>
		<g>
			<path class="st5" d="M44,84h57.3v6.3H76.4v72.5h-7.4V90.3H44V84z"/>
			<path class="st5" d="M139.8,130.5c0-2.8-0.4-5.4-1.2-7.8c-0.7-2.5-1.9-4.6-3.4-6.3c-1.5-1.8-3.3-3.2-5.6-4.3
				c-2.3-1.1-4.8-1.6-7.8-1.6c-2.9,0-5.5,0.5-7.8,1.6c-2.2,1.1-4.1,2.6-5.7,4.4c-1.5,1.8-2.8,3.9-3.7,6.3c-0.9,2.4-1.6,5-1.9,7.7
				H139.8z M102.8,136c0,3.1,0.4,6,1.2,8.8c0.8,2.7,2,5.1,3.5,7.1c1.6,2,3.6,3.6,6,4.8c2.4,1.2,5.2,1.8,8.3,1.8c4.3,0,8-1.1,11-3.4
				c3.1-2.3,5.1-5.5,6.1-9.6h7.3c-0.8,2.7-1.9,5.2-3.2,7.6c-1.3,2.3-3,4.3-4.9,6c-2,1.7-4.3,3-7,3.9c-2.7,0.9-5.8,1.4-9.4,1.4
				c-4.5,0-8.4-0.8-11.7-2.3c-3.3-1.5-6-3.6-8.1-6.2c-2.1-2.7-3.7-5.8-4.7-9.4c-1-3.6-1.5-7.6-1.5-11.7c0-4.2,0.6-8.1,1.8-11.7
				c1.2-3.6,3-6.8,5.1-9.5c2.3-2.8,5-4.9,8.2-6.5c3.2-1.6,6.9-2.4,10.9-2.4c7.8,0,13.9,2.7,18.4,8.1c4.4,5.3,6.6,13.1,6.6,23.3
				H102.8z"/>
			<path class="st5" d="M199.7,124c-1.2-4.2-3.2-7.5-6-9.9c-2.8-2.4-6.5-3.6-10.8-3.6c-3.4,0-6.2,0.7-8.6,2.1
				c-2.4,1.4-4.4,3.2-5.9,5.6c-1.5,2.3-2.7,4.9-3.4,7.8c-0.7,2.8-1.1,5.7-1.1,8.6c0,3,0.3,5.9,1,8.8c0.7,2.8,1.9,5.4,3.4,7.7
				c1.5,2.3,3.5,4.1,5.9,5.5c2.4,1.3,5.3,2,8.8,2c4.9,0,8.8-1.4,11.7-4.1c3-2.7,4.9-6.4,5.7-11.2h7c-0.6,3.1-1.5,6-2.8,8.6
				c-1.2,2.6-2.9,4.8-4.9,6.7c-2,1.8-4.3,3.2-7.1,4.3c-2.8,1-5.9,1.5-9.5,1.5c-4.5,0-8.4-0.8-11.7-2.3c-3.3-1.5-6-3.6-8.1-6.2
				c-2.1-2.7-3.7-5.9-4.7-9.5c-1-3.6-1.5-7.6-1.5-11.7c0-3.9,0.5-7.7,1.6-11.3c1.2-3.6,2.8-6.9,5-9.6s4.9-5,8.1-6.6
				c3.3-1.7,7-2.5,11.3-2.5c6.6,0,11.9,1.6,15.9,4.7c4.1,3.1,6.6,8,7.7,14.7H199.7z"/>
			<path class="st5" d="M220.3,162.8V84h6.6v30c2.6-2.8,5.3-5,8.1-6.8c2.8-1.8,6.2-2.6,10.2-2.6c3.5,0,6.7,0.6,9.7,1.9
				c3,1.2,5.5,3.2,7.5,6.2c1.4,2,2.2,4.2,2.4,6.3c0.3,2.1,0.4,4.3,0.4,6.7v37.1h-6.6v-37c0-5.1-1.1-8.9-3.4-11.5
				c-2.3-2.6-6-3.8-11.3-3.8c-2,0-3.9,0.3-5.6,1c-1.7,0.6-3.2,1.4-4.6,2.4c-1.3,1-2.4,2.2-3.4,3.5c-0.9,1.3-1.7,2.7-2.2,4.2
				c-0.7,1.8-1.1,3.6-1.2,5.3c-0.1,1.7-0.2,3.5-0.2,5.5v30.5H220.3z"/>
			<path class="st5" d="M281.6,84H298v64.6h39v14.2h-55.4V84z"/>
			<path class="st5" d="M397.1,145.7c-0.4,3.5-2.2,7-5.4,10.5c-5,5.7-12,8.5-20.9,8.5c-7.4,0-13.9-2.4-19.6-7.2
				c-5.7-4.8-8.5-12.5-8.5-23.3c0-10.1,2.5-17.8,7.6-23.2c5.1-5.4,11.8-8.1,19.9-8.1c4.8,0,9.2,0.9,13.1,2.7
				c3.9,1.8,7.1,4.7,9.6,8.6c2.3,3.5,3.8,7.5,4.4,12c0.4,2.7,0.6,6.5,0.5,11.5H358c0.2,5.8,2,9.9,5.5,12.3c2.1,1.5,4.6,2.2,7.6,2.2
				c3.1,0,5.7-0.9,7.6-2.7c1.1-1,2-2.3,2.8-4H397.1z M382,127.9c-0.2-4-1.5-7.1-3.7-9.1c-2.2-2.1-4.9-3.2-8.1-3.2
				c-3.5,0-6.3,1.1-8.2,3.3c-1.9,2.2-3.1,5.2-3.6,9H382z"/>
			<path class="st5" d="M410.3,110.9c4-5.1,10.9-7.7,20.7-7.7c6.4,0,12,1.3,17,3.8c5,2.5,7.4,7.3,7.4,14.3V148c0,1.9,0,4.1,0.1,6.7
				c0.1,2,0.4,3.3,0.9,4.1c0.5,0.7,1.2,1.3,2.2,1.8v2.2h-16.6c-0.5-1.2-0.8-2.3-1-3.3c-0.2-1-0.3-2.2-0.4-3.5
				c-2.1,2.3-4.5,4.2-7.3,5.8c-3.3,1.9-7,2.8-11.1,2.8c-5.3,0-9.6-1.5-13.1-4.5c-3.4-3-5.1-7.3-5.1-12.8c0-7.2,2.8-12.3,8.3-15.6
				c3-1.7,7.5-3,13.4-3.7l5.2-0.6c2.8-0.4,4.8-0.8,6-1.3c2.2-0.9,3.3-2.4,3.3-4.3c0-2.4-0.8-4-2.5-4.9c-1.6-0.9-4.1-1.4-7.3-1.4
				c-3.6,0-6.1,0.9-7.6,2.7c-1.1,1.3-1.8,3.1-2.1,5.3H406C406.3,118.3,407.8,114.1,410.3,110.9z M421.6,151.8
				c1.4,1.2,3.2,1.8,5.2,1.8c3.3,0,6.3-1,9-2.9c2.8-1.9,4.2-5.4,4.3-10.5v-5.7c-1,0.6-1.9,1.1-2.9,1.5c-1,0.4-2.3,0.7-4,1l-3.4,0.6
				c-3.2,0.6-5.5,1.3-6.9,2.1c-2.4,1.4-3.5,3.5-3.5,6.5C419.4,148.8,420.2,150.7,421.6,151.8z"/>
			<path class="st5" d="M522,84.1v78.7h-14.8v-8.1c-2.2,3.5-4.6,6-7.4,7.5c-2.8,1.6-6.2,2.4-10.4,2.4c-6.8,0-12.5-2.7-17.2-8.2
				c-4.6-5.5-6.9-12.6-6.9-21.2c0-9.9,2.3-17.8,6.8-23.5c4.6-5.7,10.7-8.6,18.4-8.6c3.5,0,6.7,0.8,9.4,2.4c2.7,1.5,5,3.7,6.7,6.4
				V84.1H522z M481,134.1c0,5.4,1.1,9.7,3.2,12.9c2.1,3.2,5.3,4.9,9.6,4.9c4.3,0,7.6-1.6,9.8-4.8c2.2-3.2,3.4-7.4,3.4-12.5
				c0-7.1-1.8-12.2-5.4-15.3c-2.2-1.9-4.8-2.8-7.7-2.8c-4.5,0-7.7,1.7-9.8,5.1C482,124.9,481,129.1,481,134.1z"/>
		</g>
		<g>
			<path class="st5" d="M102.8,224.4c-1.4-6.2-4-10.6-7.9-13.2c-3.8-2.6-8.9-3.9-15-3.9c-4.4,0-8.1,0.9-11.3,2.6
				c-3.2,1.8-5.8,4.1-7.9,7.1c-2,3-3.5,6.4-4.5,10.3c-0.9,3.8-1.4,7.9-1.4,12.2c0,4,0.4,8,1.2,11.9c0.9,3.9,2.3,7.4,4.2,10.5
				c2,3,4.6,5.5,7.9,7.4c3.3,1.9,7.4,2.8,12.4,2.8c3.1,0,5.9-0.5,8.5-1.5c2.6-1,4.8-2.4,6.7-4.1c2-1.8,3.6-3.9,4.8-6.4
				c1.3-2.4,2.4-5.1,3-8h7.2c-0.8,3.5-2,6.8-3.5,10c-1.5,3.1-3.6,5.8-6.2,8.2c-2.5,2.4-5.6,4.2-9.2,5.7c-3.6,1.3-7.8,2-12.6,2
				c-5.6,0-10.4-1-14.3-3c-4-2.1-7.2-4.9-9.8-8.4c-2.5-3.5-4.3-7.5-5.5-12.1c-1.1-4.6-1.7-9.6-1.7-14.7c0-6.9,0.8-12.8,2.5-17.7
				c1.8-4.8,4.1-8.8,7.2-11.8c3-3.1,6.6-5.3,10.7-6.7c4.1-1.4,8.6-2.1,13.4-2.1c3.7,0,7.1,0.5,10.3,1.5c3.2,0.9,6.1,2.4,8.5,4.3
				c2.5,2,4.5,4.4,6.1,7.3c1.6,2.8,2.7,6.1,3.3,9.9H102.8z M144,277.4c-3.4-0.1-6.5-0.7-9.5-1.8c-2.9-1.1-5.5-2.9-7.7-5.2
				c-2.2-2.3-3.9-5.2-5.2-8.6c-1.3-3.4-1.9-7.4-1.9-12c0-3.8,0.5-7.4,1.5-10.7c1-3.4,2.5-6.3,4.5-8.8c2-2.5,4.5-4.4,7.6-5.9
				c3-1.5,6.6-2.2,10.6-2.2c4.1,0,7.7,0.7,10.7,2.2c3,1.4,5.6,3.4,7.6,5.9c2,2.4,3.5,5.3,4.4,8.7c1,3.4,1.5,7,1.5,10.8
				c0,4.2-0.6,7.9-1.7,11.3c-1.1,3.4-2.8,6.3-4.9,8.7c-2.1,2.4-4.6,4.3-7.7,5.7C150.9,276.8,147.6,277.4,144,277.4z M161.7,249.8
				c0-3.1-0.3-6-1-8.7c-0.7-2.7-1.7-5-3.1-7c-1.4-2-3.2-3.6-5.5-4.7c-2.2-1.1-4.9-1.7-8.2-1.7c-3.2,0-5.9,0.6-8.2,1.9
				c-2.2,1.2-4,2.9-5.5,4.9c-1.4,2-2.5,4.4-3.1,7.1c-0.7,2.6-1,5.4-1,8.2c0,3.2,0.4,6.2,1.1,9c0.8,2.7,2,5,3.4,7
				c1.5,2,3.3,3.5,5.6,4.5s4.8,1.6,7.7,1.6c3.2,0,5.9-0.6,8.1-1.8c2.3-1.3,4.1-3,5.6-5c1.4-2.1,2.5-4.4,3.1-7.1
				C161.4,255.4,161.7,252.7,161.7,249.8z M185.3,276h-6.1v-52.3h6.1v7.3c2.4-2.6,4.9-4.6,7.5-6.3c2.6-1.6,5.8-2.4,9.4-2.4
				c3.2,0,6.2,0.6,9,1.7c2.8,1.1,5.1,3,7,5.8c1.3,1.9,2,3.8,2.2,5.9c0.3,2,0.4,4,0.4,6.2V276h-6.1v-34.1c0-4.7-1-8.2-3.1-10.6
				c-2.1-2.4-5.6-3.5-10.4-3.5c-1.9,0-3.6,0.3-5.2,0.9c-1.5,0.5-3,1.3-4.2,2.2c-1.2,0.9-2.3,2-3.1,3.2c-0.9,1.2-1.5,2.5-2,3.8
				c-0.6,1.7-1,3.3-1.1,4.8c-0.1,1.5-0.2,3.2-0.2,5.1V276z M230.2,228.7v-5h7.8v-8.3c0-4.2,0.8-7.5,2.5-9.9c1.7-2.4,4.5-3.6,8.6-3.6
				c0.9,0,1.8,0,2.6,0.1c0.8,0.1,1.6,0.2,2.4,0.3v5.6c-1.3-0.3-2.6-0.5-3.6-0.5c-1.5,0-2.8,0.3-3.6,0.9c-0.9,0.5-1.5,1.3-1.9,2.2
				c-0.4,0.9-0.7,2-0.8,3.2c-0.1,1.1-0.1,2.3-0.1,3.5v6.5h10.1v5H244V276h-6.1v-47.3H230.2z"/>
		</g>
	</g>
</g>
</svg>
