<svg width="264" height="44" viewBox="0 0 264 44" fill="none" xmlns="http://www.w3.org/2000/svg">
<g clip-path="url(#clip0_1348_1832)">
<path d="M4.94434 1H38.3223C40.5007 1.00004 42.2664 2.76592 42.2666 4.94434V38.3223C42.2666 40.5009 40.5009 42.2666 38.3223 42.2666H4.94434C2.76592 42.2664 1.00004 40.5007 1 38.3223V4.94434C1.00025 2.76605 2.76605 1.00025 4.94434 1Z" fill="url(#paint0_linear_1348_1832)"/>
<path d="M4.94434 1H38.3223C40.5007 1.00004 42.2664 2.76592 42.2666 4.94434V38.3223C42.2666 40.5009 40.5009 42.2666 38.3223 42.2666H4.94434C2.76592 42.2664 1.00004 40.5007 1 38.3223V4.94434C1.00025 2.76605 2.76605 1.00025 4.94434 1Z" fill="black"/>
<path d="M4.94434 1H38.3223C40.5007 1.00004 42.2664 2.76592 42.2666 4.94434V38.3223C42.2666 40.5009 40.5009 42.2666 38.3223 42.2666H4.94434C2.76592 42.2664 1.00004 40.5007 1 38.3223V4.94434C1.00025 2.76605 2.76605 1.00025 4.94434 1Z" stroke="url(#paint1_linear_1348_1832)" stroke-width="2"/>
<path d="M43.267 5.82405V12.8163L28.9163 27.167C27.4699 28.6134 25.118 28.6134 23.6717 27.167L16.973 20.4699L0 37.4429V30.4491L14.3507 16.0984C15.7971 14.6536 18.1505 14.6536 19.5953 16.0984L26.294 22.7971L43.267 5.82405Z" fill="url(#paint2_linear_1348_1832)"/>
<path d="M50.8301 11.9484V9.2998H69.8629V11.9484H61.8523V33.9589H58.8731V11.9484H50.8301Z" fill="white"/>
<path d="M75.3399 34.356C73.6293 34.356 72.1706 33.9635 70.9623 33.1816C69.7539 32.3982 68.8298 31.3196 68.1901 29.9459C67.5503 28.5721 67.2305 27.0083 67.2305 25.2545C67.2305 23.5006 67.5673 21.9013 68.2395 20.5214C68.9117 19.143 69.845 18.0582 71.0364 17.2686C72.2278 16.4805 73.5954 16.085 75.1406 16.085C76.7631 16.085 78.1693 16.4713 79.3607 17.2439C80.5521 18.0165 81.4699 19.092 82.1159 20.4704C82.7618 21.8503 83.0847 23.4434 83.0847 25.2529V26.0302H70.0104C70.0768 27.7408 70.5667 29.13 71.483 30.2008C72.3993 31.2717 73.6834 31.8063 75.3384 31.8063C76.5854 31.8063 77.6037 31.5189 78.3918 30.9456C79.1799 30.3723 79.7068 29.6322 79.9726 28.7282H82.7865C82.5655 29.8423 82.1081 30.822 81.4128 31.6657C80.7174 32.5094 79.849 33.1692 78.8059 33.6436C77.7629 34.118 76.607 34.356 75.3384 34.356H75.3399ZM70.0444 23.615H80.2724C80.1178 22.0821 79.5832 20.8629 78.6669 19.9574C77.7505 19.0534 76.5761 18.6006 75.1421 18.6006C73.7082 18.6006 72.5384 19.0534 71.6329 19.9574C70.7274 20.8629 70.1989 22.0821 70.0444 23.615Z" fill="white"/>
<path d="M92.8341 34.3554C91.2239 34.3554 89.8085 33.966 88.5893 33.1888C87.3701 32.4115 86.4213 31.3376 85.7429 29.97C85.0646 28.6025 84.7246 27.0294 84.7246 25.2539C84.7246 23.4784 85.0646 21.8837 85.7429 20.5038C86.4213 19.1254 87.3701 18.0438 88.5893 17.2603C89.8085 16.4769 91.2239 16.0859 92.8341 16.0859C94.1584 16.0859 95.3436 16.3486 96.3928 16.8725C97.4405 17.3963 98.2981 18.1164 98.9656 19.0327C99.6332 19.9491 100.044 20.9967 100.199 22.1773H97.3524C97.1422 21.1513 96.6601 20.3045 95.9045 19.6369C95.1489 18.9694 94.1259 18.6356 92.8341 18.6356C91.1899 18.6356 89.9012 19.2367 88.9694 20.4389C88.0376 21.6411 87.571 23.2466 87.571 25.2554C87.571 27.2643 88.0345 28.8296 88.9617 30.021C89.8888 31.2124 91.1791 31.8089 92.8341 31.8089C94.1475 31.8089 95.1504 31.4859 95.8458 30.84C96.5411 30.1941 97.0263 29.3365 97.3014 28.2671H100.197C100.043 29.4153 99.6316 30.449 98.9641 31.37C98.2965 32.291 97.4358 33.0188 96.382 33.555C95.3281 34.0896 94.1445 34.357 92.8325 34.357L92.8341 34.3554Z" fill="white"/>
<path d="M105.48 23.7309V33.9589H102.666V9.2998H105.48V18.9313C106.087 17.9826 106.823 17.2826 107.69 16.8298C108.555 16.377 109.53 16.1514 110.61 16.1514C111.791 16.1514 112.866 16.408 113.837 16.921C114.807 17.434 115.583 18.2035 116.162 19.2296C116.742 20.2556 117.031 21.5459 117.031 23.102V33.9589H114.217V23.3013C114.217 21.7901 113.855 20.6512 113.132 19.8832C112.409 19.1168 111.392 18.7336 110.079 18.7336C108.765 18.7336 107.725 19.126 106.826 19.9079C105.926 20.6914 105.477 21.9662 105.477 23.7309H105.48Z" fill="white"/>
<path d="M120.893 33.9589V9.2998H125.99V29.5889H137.195V33.9574H120.894L120.893 33.9589Z" fill="white"/>
<path d="M146.943 34.3554C145.178 34.3554 143.641 33.9629 142.334 33.181C141.026 32.3976 140.011 31.319 139.288 29.9453C138.565 28.5716 138.203 27.0016 138.203 25.2369C138.203 23.4722 138.569 21.8837 139.303 20.5038C140.037 19.1254 141.049 18.0438 142.34 17.2603C143.63 16.4769 145.109 16.0859 146.775 16.0859C148.44 16.0859 150 16.4692 151.285 17.2356C152.571 18.002 153.574 19.0667 154.297 20.4296C155.02 21.7925 155.382 23.3625 155.382 25.138V26.4453H142.953C142.998 27.7356 143.378 28.7678 144.095 29.5404C144.812 30.3131 145.81 30.6994 147.09 30.6994C148.039 30.6994 148.83 30.4954 149.465 30.0874C150.1 29.6795 150.526 29.1387 150.747 28.4649H155.199C154.989 29.6239 154.499 30.6437 153.727 31.5261C152.954 32.4084 151.984 33.1007 150.814 33.6029C149.644 34.1051 148.354 34.3554 146.942 34.3554H146.943ZM142.987 23.3332H150.781C150.659 22.2407 150.255 21.3784 149.565 20.7433C148.876 20.1098 147.98 19.7914 146.877 19.7914C145.773 19.7914 144.896 20.1082 144.213 20.7433C143.528 21.3784 143.12 22.2407 142.987 23.3332Z" fill="white"/>
<path d="M162.914 34.2571C161.171 34.2571 159.734 33.8214 158.603 32.9498C157.472 32.0783 156.906 30.771 156.906 29.028C156.906 27.7145 157.22 26.6869 157.849 25.9421C158.478 25.1973 159.311 24.6549 160.348 24.3119C161.384 23.9704 162.509 23.7432 163.724 23.6335C165.323 23.4682 166.444 23.3028 167.083 23.1375C167.723 22.9722 168.043 22.6075 168.043 22.045V21.9291C168.043 21.2894 167.789 20.7655 167.281 20.3576C166.774 19.9497 166.073 19.7457 165.18 19.7457C164.286 19.7457 163.542 19.9558 162.979 20.3746C162.417 20.7934 162.108 21.3404 162.052 22.0126H157.467C157.577 20.2139 158.317 18.783 159.685 17.7183C161.052 16.6536 162.934 16.1221 165.328 16.1221C167.721 16.1221 169.576 16.6552 170.888 17.7183C172.201 18.783 172.858 20.2479 172.858 22.1115V33.9604H168.091V31.4942H168.024C167.561 32.3441 166.926 33.0163 166.121 33.5139C165.316 34.0099 164.245 34.2587 162.91 34.2587L162.914 34.2571ZM164.271 30.8637C165.441 30.8637 166.368 30.5516 167.051 29.9289C167.735 29.3061 168.077 28.5196 168.077 27.5708V25.817C167.8 25.9715 167.343 26.1121 166.703 26.2388C166.063 26.3655 165.351 26.4907 164.568 26.6112C163.729 26.7441 163.021 26.9836 162.441 27.3313C161.862 27.679 161.573 28.1997 161.573 28.8951C161.573 29.5132 161.819 29.9953 162.31 30.343C162.801 30.6907 163.455 30.8637 164.271 30.8637Z" fill="white"/>
<path d="M182.426 34.322C180.904 34.322 179.573 33.9419 178.437 33.1801C177.3 32.4183 176.421 31.3536 175.798 29.9861C175.175 28.6185 174.863 27.0238 174.863 25.2035C174.863 23.3832 175.18 21.838 175.815 20.4704C176.45 19.1029 177.333 18.0351 178.464 17.2687C179.595 16.5022 180.905 16.119 182.395 16.119C183.52 16.119 184.518 16.3477 185.391 16.8051C186.263 17.2625 186.98 17.9609 187.542 18.8989H187.559V9.2998H192.425V33.9589H187.625V31.2779H187.608C187.102 32.2931 186.397 33.0549 185.499 33.5618C184.6 34.0686 183.577 34.3236 182.429 34.3236L182.426 34.322ZM183.684 30.3507C184.92 30.3507 185.912 29.8841 186.663 28.9523C187.412 28.0205 187.788 26.7704 187.788 25.2035C187.788 23.6366 187.412 22.4004 186.663 21.464C185.912 20.526 184.92 20.0578 183.684 20.0578C182.447 20.0578 181.557 20.5075 180.845 21.4068C180.133 22.3062 179.777 23.5717 179.777 25.2051C179.777 26.8384 180.133 28.1039 180.845 29.0033C181.557 29.9026 182.503 30.3523 183.684 30.3523V30.3507Z" fill="white"/>
<path d="M207.147 34.3557C204.874 34.3557 202.882 33.8118 201.173 32.7255C199.462 31.6391 198.13 30.1387 197.177 28.2241C196.222 26.3096 195.746 24.1169 195.746 21.646C195.746 19.1752 196.22 16.9485 197.169 15.0339C198.118 13.1193 199.45 11.6189 201.165 10.5326C202.881 9.44627 204.875 8.90234 207.148 8.90234C208.87 8.90234 210.441 9.2423 211.865 9.92066C213.288 10.599 214.476 11.5648 215.431 12.8165C216.384 14.0681 217.012 15.5546 217.31 17.2761H214.264C213.867 15.4774 213.031 14.0959 211.756 13.1301C210.482 12.1644 208.946 11.6822 207.147 11.6822C205.348 11.6822 203.92 12.1041 202.663 12.9478C201.405 13.7915 200.434 14.9613 199.75 16.4571C199.065 17.9529 198.724 19.682 198.724 21.646C198.724 23.61 199.065 25.3206 199.75 26.8087C200.434 28.2983 201.405 29.465 202.663 30.3087C203.92 31.1524 205.415 31.5742 207.147 31.5742C208.879 31.5742 210.451 31.0937 211.732 30.1341C213.011 29.1745 213.861 27.8007 214.28 26.0129H217.309C217.01 27.7235 216.388 29.2007 215.439 30.4478C214.49 31.6948 213.302 32.6575 211.872 33.3358C210.443 34.0142 208.868 34.3542 207.147 34.3542V34.3557Z" fill="white"/>
<path d="M227.356 34.3554C225.745 34.3554 224.33 33.966 223.111 33.1888C221.892 32.4115 220.943 31.3376 220.264 29.97C219.586 28.6025 219.246 27.0294 219.246 25.2539C219.246 23.4784 219.586 21.8837 220.264 20.5038C220.943 19.1254 221.892 18.0438 223.111 17.2603C224.33 16.4769 225.745 16.0859 227.356 16.0859C228.966 16.0859 230.395 16.4784 231.61 17.2603C232.823 18.0438 233.77 19.1254 234.448 20.5038C235.127 21.8837 235.467 23.466 235.467 25.2539C235.467 27.0418 235.127 28.6025 234.448 29.97C233.77 31.3376 232.824 32.4115 231.61 33.1888C230.395 33.966 228.978 34.3554 227.356 34.3554ZM227.356 31.8073C229.011 31.8073 230.301 31.2093 231.228 30.0117C232.155 28.8142 232.619 27.2287 232.619 25.2539C232.619 23.2791 232.152 21.655 231.22 20.4466C230.288 19.2382 229 18.6341 227.356 18.6341C225.711 18.6341 224.423 19.2352 223.491 20.4374C222.559 21.6396 222.092 23.2451 222.092 25.2539C222.092 27.2627 222.556 28.8281 223.483 30.0195C224.41 31.2108 225.701 31.8073 227.356 31.8073Z" fill="white"/>
<path d="M240.876 23.7308V33.9588H238.062V16.4821H240.81V19.0472C241.417 18.0536 242.159 17.3242 243.037 16.8545C243.914 16.3862 244.903 16.1514 246.008 16.1514C247.189 16.1514 248.264 16.4079 249.235 16.9209C250.205 17.4339 250.981 18.2035 251.56 19.2295C252.14 20.2556 252.429 21.5458 252.429 23.1019V33.9588H249.615V23.3012C249.615 21.79 249.253 20.6511 248.53 19.8831C247.807 19.1167 246.79 18.7335 245.477 18.7335C244.163 18.7335 243.123 19.126 242.224 19.9079C241.325 20.6913 240.875 21.9661 240.875 23.7308H240.876Z" fill="white"/>
<path d="M263.55 16.4816V18.8983H260.008V33.9583H257.195V18.8983H254.084V16.4816H257.195V13.371C257.195 12.124 257.609 11.1334 258.435 10.401C259.262 9.66701 260.382 9.30078 261.795 9.30078H263.549V11.7176H262.059C261.32 11.7176 260.793 11.8783 260.478 12.1981C260.165 12.518 260.007 13.0526 260.007 13.8036V16.4846H263.549L263.55 16.4816Z" fill="white"/>
</g>
<defs>
<linearGradient id="paint0_linear_1348_1832" x1="-1.36827e-06" y1="44.2579" x2="43.0829" y2="2.51895e-06" gradientUnits="userSpaceOnUse">
<stop/>
<stop offset="1" stop-color="#262424"/>
</linearGradient>
<linearGradient id="paint1_linear_1348_1832" x1="43.0829" y1="-5.79802e-07" x2="0.0212783" y2="43.1042" gradientUnits="userSpaceOnUse">
<stop stop-color="#E19D65"/>
<stop offset="0.331783" stop-color="#B06AB3"/>
<stop offset="1" stop-color="#4568DC"/>
</linearGradient>
<linearGradient id="paint2_linear_1348_1832" x1="43.0829" y1="7.44157" x2="0.0196093" y2="36.4537" gradientUnits="userSpaceOnUse">
<stop stop-color="#E19D65"/>
<stop offset="0.331783" stop-color="#B06AB3"/>
<stop offset="1" stop-color="#4568DC"/>
</linearGradient>
<clipPath id="clip0_1348_1832">
<rect width="263.55" height="43.267" fill="white"/>
</clipPath>
</defs>
</svg>
