<?xml version="1.0" encoding="utf-8"?>
<!-- Generator: Adobe Illustrator 23.0.5, SVG Export Plug-In . SVG Version: 6.00 Build 0)  -->
<svg version="1.1" id="Layer_1" xmlns="http://www.w3.org/2000/svg" xmlns:xlink="http://www.w3.org/1999/xlink" x="0px" y="0px"
	 viewBox="0 0 666.5 537.1" style="enable-background:new 0 0 666.5 537.1;" xml:space="preserve">
<style type="text/css">
	.st0{opacity:0.15;}
	.st1{fill:#FFFFFF;}
</style>
<g class="st0">
	<path class="st1" d="M206.5,537.1c-73.4,0-144.8-21.1-206.5-60.9l0.3-0.9c10.6,1.1,21.4,1.6,32.1,1.5c0,0,0.1,0,0.1,0
		c59.9,0,118.8-20.3,166-57.2c-46.9-6.7-90.9-30-127.4-67.3C41.5,322,18.2,283.8,7.1,247.5l-0.3-1l1,0.4
		C45,261.8,84,270.4,124,272.4c-41.6-29.8-73.5-70.7-92.3-118.3c-16.4-49.9,5.6-118,15.4-137.2l0.3-0.6l0.5,0.5
		c90.3,97.4,175.2,143.3,275.1,148.5c-6.4-28.6-3.3-59,8.8-85.7C344,52.7,365,30.2,391,16.2c26-14,56.4-19.1,85.6-14.5
		c29.1,4.6,56.3,18.9,76.7,40.2c37.4,1.1,75.2,4.5,112.3,10.1l0.9,0.1l-76,81.6v17.4c0,44.9-8.7,91.9-25.1,135.9
		c-17.2,46.2-42,88-73.8,124.3c-34,38.8-74.5,69.3-120.3,90.6c-50,23.3-105.4,35.1-164.6,35.1C206.7,537.1,206.6,537.1,206.5,537.1z
		 M2.3,476.5c61.1,39,131.7,59.6,204.2,59.6c0.1,0,0.2,0,0.3,0c239.6,0,382.7-195.7,382.7-384.9v-17.8l0.1-0.1l74.9-80.4
		c-36.8-5.5-74.2-8.9-111.4-10l-0.2,0l-0.1-0.1c-20.2-21.2-47.3-35.5-76.3-40.1c-29-4.6-59.1,0.5-85,14.4
		c-25.8,13.9-46.7,36.3-58.8,63c-12.1,26.7-15.2,57.2-8.6,85.7l0.1,0.6l-0.7,0C223.3,161.3,138.2,115.5,47.7,18
		c-9.9,19.9-31.1,86.8-15,135.8c18.9,48,51.2,89,93.4,118.8l1.4,1l-1.7-0.1c-40.3-1.8-79.8-10.4-117.3-25.3
		c19,60.9,85.2,155.9,191.4,170.5l1.2,0.2l-0.9,0.7c-47.5,37.5-107,58.2-167.5,58.2c0,0-0.1,0-0.1,0
		C22.4,477.9,12.3,477.5,2.3,476.5z"/>
</g>
</svg>
