<?xml version="1.0" encoding="utf-8"?>
<!-- Generator: Adobe Illustrator 23.0.5, SVG Export Plug-In . SVG Version: 6.00 Build 0)  -->
<svg version="1.1" id="Capa_1" xmlns="http://www.w3.org/2000/svg" xmlns:xlink="http://www.w3.org/1999/xlink" x="0px" y="0px"
	 width="30px" height="30px" viewBox="0 0 30 30" style="enable-background:new 0 0 30 30;" xml:space="preserve">
<g>
	<path d="M26.3,8.5c-1.2-2-2.7-3.6-4.7-4.7C19.5,2.6,17.4,2,15,2c-2.4,0-4.5,0.6-6.5,1.7c-2,1.2-3.6,2.7-4.7,4.7
		C2.6,10.5,2,12.6,2,15c0,2.4,0.6,4.5,1.7,6.5c1.2,2,2.7,3.6,4.7,4.7c2,1.2,4.2,1.7,6.5,1.7s4.5-0.6,6.5-1.7c2-1.2,3.6-2.7,4.7-4.7
		c1.2-2,1.7-4.2,1.7-6.5C28,12.6,27.4,10.5,26.3,8.5z M17.2,23.1c0,0.2-0.1,0.3-0.2,0.4c-0.1,0.1-0.2,0.2-0.4,0.2h-3.3
		c-0.2,0-0.3-0.1-0.4-0.2c-0.1-0.1-0.2-0.2-0.2-0.4v-3.3c0-0.2,0.1-0.3,0.2-0.4c0.1-0.1,0.2-0.2,0.4-0.2h3.3c0.2,0,0.3,0.1,0.4,0.2
		c0.1,0.1,0.2,0.2,0.2,0.4V23.1z M21.3,13.1c-0.1,0.4-0.3,0.8-0.5,1c-0.2,0.3-0.4,0.5-0.8,0.8c-0.3,0.3-0.6,0.5-0.8,0.6
		c-0.2,0.1-0.5,0.3-0.8,0.5c-0.4,0.2-0.7,0.5-0.9,0.8c-0.2,0.3-0.4,0.6-0.4,0.8c0,0.2-0.1,0.3-0.2,0.4c-0.1,0.1-0.2,0.2-0.4,0.2
		h-3.2c-0.2,0-0.3-0.1-0.4-0.2c-0.1-0.1-0.2-0.2-0.2-0.4v-0.6c0-0.8,0.3-1.5,0.9-2.1c0.6-0.7,1.2-1.1,2-1.5c0.5-0.2,0.9-0.5,1.2-0.8
		c0.2-0.3,0.3-0.6,0.3-1c0-0.4-0.2-0.7-0.6-1c-0.4-0.3-0.9-0.4-1.4-0.4c-0.6,0-1.1,0.1-1.5,0.4c-0.4,0.3-0.9,0.8-1.5,1.6
		c-0.1,0.1-0.2,0.2-0.4,0.2c-0.1,0-0.2,0-0.3-0.1l-2.2-1.7c-0.3-0.2-0.3-0.4-0.1-0.7c1.4-2.4,3.5-3.6,6.3-3.6c1,0,1.9,0.2,2.9,0.7
		c0.9,0.5,1.7,1.1,2.3,2c0.6,0.8,0.9,1.8,0.9,2.8C21.5,12.2,21.4,12.7,21.3,13.1z"/>
</g>
</svg>
