<?xml version="1.0" encoding="utf-8"?>
<!-- Generator: Adobe Illustrator 22.1.0, SVG Export Plug-In . SVG Version: 6.00 Build 0)  -->
<svg version="1.1" id="Layer_1" xmlns="http://www.w3.org/2000/svg" xmlns:xlink="http://www.w3.org/1999/xlink" x="0px" y="0px"
	 width="50px" height="55px" viewBox="0 0 50 55" style="enable-background:new 0 0 50 55;" xml:space="preserve">
<g>
	<path style="fill:#C21325;" d="M46.2,35.5L46.2,35.5c0-0.2,0-0.2,0-0.3v-0.1c0-0.1,0-0.1,0-0.2v-0.1c0-0.1,0-0.1,0-0.2v-0.1
		c0-0.1,0-0.1,0-0.2v-0.1c0-0.1,0-0.1,0-0.2v-0.1c0-0.1,0-0.1,0-0.2v-0.1c0-0.1,0-0.1,0-0.2c0,0,0-0.1-0.1-0.1c0-0.1,0-0.1-0.1-0.2
		c0,0,0-0.1-0.1-0.1c0,0,0-0.1-0.1-0.1c0,0,0-0.1-0.1-0.1c0,0,0-0.1-0.1-0.1c0,0,0-0.1-0.1-0.1c-1,0.7-2.3,1.1-3.6,1.1
		c-3.2,0-5.9-2.4-6.3-5.5c-1.3,0-2.7,0-4.1,0c-0.4,3.1-3.1,5.5-6.3,5.5c-0.3,0-0.6,0-1-0.1c0,0,0,0,0,0.1c-0.1,0.1-0.1,0.2-0.2,0.3
		s-0.2,0.2-0.2,0.3c-0.1,0.1-0.1,0.2-0.2,0.3s-0.2,0.2-0.2,0.3c-0.4-0.1-0.4,0-0.5,0.1s-0.2,0.2-0.3,0.3c-0.1,0.1-0.1,0.2-0.2,0.3
		s-0.2,0.2-0.3,0.3C22,36,22,36.1,21.9,36.2c-0.1,0.1-0.2,0.2-0.3,0.3c-0.1,0.1-0.1,0.2-0.2,0.2c-0.1,0.1-0.2,0.3-0.4,0.4
		c-0.1,0.1-0.1,0.1-0.2,0.2c-0.2,0.2-0.4,0.4-0.6,0.6c-0.1,0.1-0.2,0.2-0.3,0.3c-0.2,0.2-0.5,0.4-0.7,0.6c-0.2,0.2-0.5,0.4-0.7,0.6
		c-0.4,0.3-0.7,0.5-1.1,0.8c-1.1,0.7-2.2,1.4-3.4,1.9c-0.5,0.2-0.9,0.4-1.4,0.6l-0.5,0.2l0,0l0,0l-0.5-0.2c-3.5-1.8-5.2-5.6-4.1-9.1
		c-0.6-0.1-1.1-0.2-1.7-0.4c-0.2,0.4-0.4,0.7-0.5,1.1c-1.1,2.1-2.1,4.4-2.5,6.8c-0.4,2.6-0.6,7.4,3.1,9.9c1.7,1.2,3.5,1.7,5.4,1.7
		c3.5,0,7.2-1.9,11.3-3.9c3.1-1.5,6.3-3.1,9.7-4c1.3-0.3,2.5-0.5,3.8-0.7c2.3-0.3,4.5-0.6,6.4-1.7c0.6-0.4,1.2-0.8,1.7-1.3
		c0.1-0.1,0.3-0.3,0.4-0.4c0.1-0.1,0.1-0.1,0.2-0.2c0.8-1,1.3-2.1,1.5-3.3l0,0c0-0.1,0-0.2,0-0.3v-0.1c0-0.1,0-0.1,0-0.2v-0.1
		c0-0.1,0-0.1,0-0.2v-0.1c0-0.1,0-0.1,0-0.2v-0.1C46.2,35.6,46.2,35.5,46.2,35.5z"/>
	<path style="fill:#FFFFFF;" d="M44.6,40.4c0.8-1,1.3-2.1,1.5-3.3l0,0l0,0C45.9,38.3,45.3,39.4,44.6,40.4z"/>
	<path style="fill:#FFFFFF;" d="M24,33.4L24,33.4L24,33.4L24,33.4z"/>
	<path style="fill:#FFFFFF;" d="M2.7,40.9c0.4-2.4,1.5-4.6,2.5-6.8c0.2-0.4,0.4-0.7,0.5-1.1l0,0c-0.2,0.4-0.4,0.7-0.5,1.1
		C4.2,36.3,3.1,38.5,2.7,40.9c-0.4,2.6-0.6,7.4,3.1,9.9c1.7,1.2,3.5,1.7,5.4,1.7c-1.8,0-3.6-0.5-5.4-1.7C2.1,48.3,2.3,43.5,2.7,40.9
		z"/>
	<path style="fill:#FFFFFF;" d="M19.2,38.9c0.2-0.2,0.5-0.4,0.7-0.6C19.7,38.5,19.4,38.7,19.2,38.9z"/>
	<path style="fill:#FFFFFF;" d="M18.5,39.4c0.2-0.2,0.5-0.4,0.7-0.6C19,39.1,18.7,39.2,18.5,39.4z"/>
	<path style="fill:#FFFFFF;" d="M12.6,42.7c0.5-0.2,0.9-0.4,1.4-0.6C13.5,42.3,13.1,42.5,12.6,42.7l-0.5,0.2l0,0L12.6,42.7z"/>
	<path style="fill:#FFFFFF;" d="M45.4,32.3L45.4,32.3C45.4,32.3,45.4,32.4,45.4,32.3C45.4,32.4,45.4,32.3,45.4,32.3z"/>
	<path style="fill:#C21325;" d="M27.1,21.1l6.2-12.5l6.2,12.6c0.3-0.1,0.5-0.2,0.8-0.2l6.3-18.4H20l6.2,18.3
		C26.5,20.9,26.8,21,27.1,21.1z"/>
	<path style="fill:#C21325;" d="M25,30.9c2.1,0,3.9-1.7,3.9-3.9c0-2.1-1.7-3.9-3.9-3.9s-3.9,1.7-3.9,3.9S22.8,30.9,25,30.9z"/>
	<path style="fill:#C21325;" d="M37.8,27.1c0,2.1,1.7,3.9,3.9,3.9c2.1,0,3.9-1.7,3.9-3.9c0-2.1-1.7-3.9-3.9-3.9
		C39.6,23.2,37.8,24.9,37.8,27.1z"/>
	<path style="fill:#C21325;" d="M8.2,31c2.1,0,3.9-1.7,3.9-3.9c0-2.1-1.7-3.9-3.9-3.9c-2.1,0-3.9,1.7-3.9,3.9C4.3,29.3,6,31,8.2,31z
		"/>
</g>
</svg>
