<?xml version="1.0" encoding="utf-8"?>
<!-- Generator: Adobe Illustrator 22.1.0, SVG Export Plug-In . SVG Version: 6.00 Build 0)  -->
<svg version="1.1" id="Layer_1" xmlns="http://www.w3.org/2000/svg" xmlns:xlink="http://www.w3.org/1999/xlink" x="0px" y="0px"
	 width="48px" height="48px" viewBox="0 0 48 48" style="enable-background:new 0 0 48 48;" xml:space="preserve">
<g>
	<path style="fill:#DD4B39;" d="M0,0v48h48V0H0z M23,43.6l-2.7-5.1h-3.6v5.1H12V25.3h8.2c4.9,0,7.6,2.4,7.6,6.4
		c0,2.8-1.1,4.8-3.3,5.9l3.9,6H23z M45.6,43.5H30.9V25.3h14.5v3.8h-9.7v3.4h8.7v3.8h-8.7v3.4h9.9V43.5z"/>
	<path style="fill:#DD4B39;" d="M20.2,29.1h-3.5v5.6h3.5c1.9,0,3.1-1,3.1-2.8C23.3,30.1,22.2,29.1,20.2,29.1z"/>
</g>
</svg>
