<?xml version="1.0" encoding="utf-8"?>
<!-- Generator: Adobe Illustrator 23.0.5, SVG Export Plug-In . SVG Version: 6.00 Build 0)  -->
<svg version="1.1" id="Layer_1" xmlns="http://www.w3.org/2000/svg" xmlns:xlink="http://www.w3.org/1999/xlink" x="0px" y="0px"
	 width="30px" height="29.8px" viewBox="0 0 30 29.8" style="enable-background:new 0 0 30 29.8;" xml:space="preserve">
<g>
	<path d="M6.4,12.5h4.3v4.3H6.4V12.5z"/>
	<path d="M12.9,12.5h4.3v4.3h-4.3V12.5z"/>
	<path d="M19.4,12.5h4.3v4.3h-4.3V12.5z"/>
	<path d="M6.4,19h4.3v4.3H6.4V19z"/>
	<path d="M12.9,19h4.3v4.3h-4.3V19z"/>
	<path d="M19.4,19h4.3v4.3h-4.3V19z"/>
	<path d="M26.2,5h-3V2.5c0-0.3-0.2-0.5-0.5-0.5h-2.3c-0.3,0-0.5,0.2-0.5,0.5V5h-9.7V2.5C10.2,2.2,10,2,9.7,2H7.4
		C7.2,2,6.9,2.2,6.9,2.5V5H3.8C2.8,5,2,5.8,2,6.9V26c0,1,0.8,1.8,1.8,1.8h22.3c1,0,1.8-0.8,1.8-1.8V6.9C28,5.8,27.2,5,26.2,5z
		 M25.8,25.3c0,0.1-0.1,0.2-0.2,0.2h-21c-0.1,0-0.2-0.1-0.2-0.2V10.5c0-0.1,0.1-0.2,0.2-0.2h21c0.1,0,0.2,0.1,0.2,0.2V25.3z"/>
</g>
</svg>
