<?xml version="1.0" encoding="utf-8"?>
<!-- Generator: Adobe Illustrator 23.0.5, SVG Export Plug-In . SVG Version: 6.00 Build 0)  -->
<svg version="1.1" id="Layer_1" xmlns="http://www.w3.org/2000/svg" xmlns:xlink="http://www.w3.org/1999/xlink" x="0px" y="0px"
	 viewBox="0 0 87.59 116.38" style="enable-background:new 0 0 87.59 116.38;" xml:space="preserve">
<style type="text/css">
	.st0{fill-rule:evenodd;clip-rule:evenodd;fill:#fd7100;}
	.st1{fill:#fd7100;}
</style>
<path class="st0" d="M29.01,31.16c-6.29,0-11.35,5.05-11.35,11.33c0,6.25,5.06,11.33,11.35,11.33c0.49,0,1-0.06,1.49-0.11
	c5.55-0.71,9.86-5.48,9.86-11.22c0-5.94-4.55-10.79-10.35-11.3C29.66,31.16,29.32,31.16,29.01,31.16L29.01,31.16z M29.01,38.9
	c1.97,0,3.57,1.6,3.57,3.6c0,1.97-1.6,3.57-3.57,3.57c-2,0-3.6-1.6-3.6-3.57C25.4,40.5,27.01,38.9,29.01,38.9L29.01,38.9z"/>
<path class="st0" d="M0.02,17.24c-0.03,1.74-0.54,30.19,6.49,55.51c0.17-0.03,0.31-0.06,0.49-0.09c0.29-0.09,0.57-0.17,0.86-0.23
	c0.37-0.14,0.74-0.23,1.11-0.31c0.31-0.09,0.63-0.17,0.94-0.23c0.43-0.14,0.83-0.29,1.26-0.37c0.46-0.17,0.94-0.29,1.4-0.37
	c0.4-0.11,0.8-0.23,1.23-0.29c0.43-0.17,0.89-0.26,1.32-0.4c-1.63-6.02-2.74-12.27-3.52-18.15c-0.6-4.71-1-9.19-1.26-13.13
	c-0.51-8.19-0.43-14.04-0.43-14.7c21.84-6.91,30.13-11.22,33.88-13.33c3.74,2.11,12.04,6.42,33.88,13.33c0,1.34,0.37,24.4-5,45.04
	c1.97-0.03,3.77,0.51,5.37,1.68c0.57,0.31,1.11,0.57,1.66,0.94l0.26,0.17c0.34,0.17,0.69,0.34,1.03,0.51
	c7.09-25.31,6.6-53.83,6.6-55.59C59.34,8.28,48.62,2.74,43.79,0C38.95,2.74,28.23,8.28,0.02,17.24L0.02,17.24z"/>
<rect x="47.73" y="38.39" class="st0" width="21.96" height="7.65"/>
<path class="st1" d="M12.77,74.12c2.6,8.82,6.12,17.01,10.89,23.15c11.01,14.1,29.25,14.1,40.25,0c4.77-6.14,8.29-14.33,10.89-23.15
	C55.34,67.3,32.24,67.3,12.77,74.12L12.77,74.12z M85.07,68.95l-0.94,3.62c-2.94,11.22-7.23,21.92-13.49,29.94
	c-14.44,18.49-39.25,18.49-53.69,0C10.68,94.49,6.39,83.79,3.45,72.58l-0.94-3.62C31.01,57.48,56.68,57.54,85.07,68.95L85.07,68.95z
	"/>
<path class="st1" d="M43.93,72c2.06,0,3.63,0.94,5.23,1.91c1,0.6,2.03,1.2,2.89,1.28c1,0.06,2.17-0.37,3.34-0.8
	c1.77-0.68,3.57-1.34,5.66-1c2,0.34,3.29,1.54,4.57,2.74v0.03c0.8,0.71,1.57,1.46,2.29,1.63c0.97,0.26,2.23,0,3.49-0.26
	c1.92-0.37,3.83-0.74,5.89-0.03c1.03,0.37,1.77,0.97,2.37,1.66c-1.14,1.26-1.86,2.83-2.12,4.42c-0.34-0.54-1.09-1.86-1.69-2.05
	c-0.94-0.31-2.29-0.06-3.63,0.2c-1.72,0.34-3.46,0.68-5.35,0.23c-1.77-0.46-2.97-1.57-4.17-2.71l0,0c-0.83-0.74-1.63-1.51-2.34-1.63
	c-1-0.17-2.23,0.29-3.49,0.77c-1.63,0.6-3.26,1.2-5.15,1.06c-1.89-0.14-3.34-1.03-4.77-1.88c-2.83-1.68-3.26-1.68-6.06,0
	c-1.46,0.86-2.92,1.74-4.77,1.88c-1.89,0.14-3.54-0.46-5.17-1.06c-1.23-0.49-2.49-0.94-3.46-0.77c-0.71,0.11-1.54,0.88-2.37,1.63
	l0,0c-1.2,1.14-2.4,2.25-4.17,2.71c-1.89,0.46-3.6,0.11-5.35-0.23c-1.34-0.26-2.69-0.51-3.63-0.2c-0.66,0.23-1.54,1.86-2,2.54
	c-0.54-1.48-1.49-2.77-2.69-3.71c0.8-1.2,1.69-2.31,3.29-2.85c2.06-0.71,3.95-0.34,5.86,0.03c1.26,0.26,2.54,0.51,3.49,0.26
	c0.71-0.17,1.52-0.91,2.29-1.63v-0.03c1.29-1.2,2.57-2.4,4.6-2.74c2.09-0.34,3.86,0.31,5.63,1c1.2,0.43,2.37,0.86,3.34,0.8
	c0.89-0.09,1.89-0.68,2.92-1.28C40.27,72.95,41.84,72,43.93,72L43.93,72z"/>
<path class="st1" d="M43.93,83.42c2.06,0,3.63,0.94,5.23,1.91c1,0.6,2.03,1.2,2.89,1.28c1,0.06,2.17-0.37,3.34-0.8
	c1.77-0.68,3.57-1.34,5.66-1c2,0.34,3.29,1.54,4.57,2.74v0.03c0.8,0.71,1.57,1.46,2.29,1.63c0.97,0.26,2.23,0,3.49-0.26
	c1.26-0.26,2.49-0.49,3.77-0.43c-1,1.23-1.69,2.77-1.89,4.42c-2.2,0.37-4.15,1-6.4,0.43c-1.77-0.46-2.97-1.57-4.17-2.71l0,0
	c-0.83-0.74-1.63-1.51-2.34-1.63c-1-0.17-2.23,0.29-3.49,0.77c-1.63,0.6-3.26,1.2-5.15,1.06s-3.34-1.03-4.77-1.88
	c-2.83-1.68-3.26-1.68-6.06,0c-1.46,0.86-2.92,1.74-4.77,1.88c-1.89,0.14-3.54-0.46-5.17-1.06c-1.23-0.49-2.49-0.94-3.46-0.77
	c-0.71,0.11-1.54,0.88-2.37,1.63l0,0c-1.2,1.14-2.4,2.25-4.17,2.71c-1.92,0.46-3.66,0.11-5.55-0.26c-0.49-1.88-1.54-3.45-2.94-4.59
	c1.37-0.09,2.66,0.17,3.97,0.43c1.26,0.26,2.54,0.51,3.49,0.26c0.71-0.17,1.52-0.91,2.29-1.63v-0.03c1.29-1.2,2.57-2.4,4.6-2.74
	c2.09-0.34,3.86,0.31,5.63,1c1.2,0.43,2.37,0.86,3.34,0.8c0.89-0.09,1.89-0.68,2.92-1.28C40.27,84.36,41.84,83.42,43.93,83.42
	L43.93,83.42z"/>
<path class="st1" d="M43.93,94.84c2.06,0,3.63,0.94,5.23,1.91c1,0.6,2.03,1.2,2.89,1.28c1,0.06,2.17-0.37,3.34-0.8
	c1.77-0.68,3.57-1.34,5.66-1c2,0.34,3.29,1.54,4.57,2.74V99c0.74,0.68,1.49,1.37,2.14,1.6c-0.83,1.17-1.32,2.57-1.46,4
	c-1.49-0.51-2.54-1.51-3.6-2.51l0,0c-0.83-0.74-1.63-1.51-2.34-1.63c-1-0.17-2.23,0.29-3.49,0.77c-1.63,0.6-3.26,1.2-5.15,1.06
	s-3.34-1.03-4.77-1.88c-2.83-1.68-3.26-1.68-6.06,0c-1.46,0.86-2.92,1.74-4.77,1.88c-1.89,0.14-3.54-0.46-5.17-1.06
	c-1.23-0.49-2.49-0.94-3.46-0.77c-0.71,0.11-1.54,0.88-2.37,1.63l0,0c-1.03,1-2.09,1.97-3.52,2.48c0.23-1.48,0.06-3.05-0.57-4.54
	c0.37-0.31,0.77-0.66,1.17-1.03v-0.03c1.29-1.2,2.57-2.4,4.6-2.74c2.09-0.34,3.86,0.31,5.63,1c1.2,0.43,2.37,0.86,3.34,0.8
	c0.89-0.09,1.89-0.68,2.92-1.28C40.27,95.78,41.84,94.84,43.93,94.84L43.93,94.84z"/>
</svg>
