<svg xmlns="http://www.w3.org/2000/svg" version="1.1" xmlns:xlink="http://www.w3.org/1999/xlink" xmlns:svgjs="http://svgjs.com/svgjs" width="512" height="512" x="0" y="0" viewBox="0 0 25 25" style="enable-background:new 0 0 512 512" xml:space="preserve" class=""><g transform="matrix(-1,-1.2246467991473532e-16,1.2246467991473532e-16,-1,24.996214866638184,25.02847957611084)"><path d="M18 12.51a.49.49 0 0 1-.15.36l-10 10a.5.5 0 0 1-.35.15.51.51 0 0 1-.36-.15.51.51 0 0 1 0-.71l9.62-9.62-9.61-9.67a.5.5 0 0 1 0-.71.48.48 0 0 1 .7 0l10 10a.47.47 0 0 1 .15.35z" data-name="Layer 2" fill="#000000" data-original="#000000"></path></g></svg>
