<?xml version="1.0" encoding="utf-8"?>
<!-- Generator: Adobe Illustrator 23.0.5, SVG Export Plug-In . SVG Version: 6.00 Build 0)  -->
<svg version="1.1" id="Layer_1" xmlns="http://www.w3.org/2000/svg" xmlns:xlink="http://www.w3.org/1999/xlink" x="0px" y="0px"
	 width="154.1px" height="204.8px" viewBox="0 0 154.1 204.8" style="enable-background:new 0 0 154.1 204.8;" xml:space="preserve"
	>
<style type="text/css">
	.st0{fill-rule:evenodd;clip-rule:evenodd;fill:#2C302D;}
	.st1{fill:#2C302D;}
</style>
<g>
	<path class="st0" d="M0,30.3c0,3.1-1,53.1,11.4,97.7c0.3-0.1,0.6-0.1,0.9-0.1c0.5-0.1,1-0.3,1.5-0.4c0.7-0.3,1.3-0.4,2-0.6
		c0.6-0.1,1.1-0.3,1.7-0.4c0.7-0.3,1.5-0.5,2.2-0.6c0.8-0.3,1.7-0.5,2.5-0.6c0.7-0.2,1.4-0.4,2.1-0.5c0.8-0.3,1.6-0.4,2.3-0.7
		c-2.8-10.6-4.8-21.6-6.1-31.9c-1.1-8.3-1.8-16.2-2.2-23.1c-1-14.4-0.8-24.7-0.8-25.9c38.4-12.2,53-19.7,59.6-23.5
		c6.6,3.7,21.2,11.3,59.6,23.4c0,2.4,0.7,42.9-8.8,79.2c3.5-0.1,6.6,0.9,9.5,3c1.1,0.6,2,1,2.9,1.7l0.4,0.3c0.6,0.3,1.2,0.6,1.8,0.9
		c12.5-44.5,11.6-94.7,11.6-97.8C104.4,14.6,85.6,4.8,77,0C68.5,4.8,49.7,14.5,0,30.3L0,30.3z"/>
	<path class="st1" d="M22.5,130.4c4.6,15.5,10.8,29.9,19.2,40.7c19.4,24.8,51.4,24.8,70.8,0c8.4-10.8,14.6-25.2,19.2-40.7
		C97.3,118.4,56.7,118.4,22.5,130.4L22.5,130.4z M149.7,121.3l-1.7,6.4c-5.2,19.7-12.7,38.6-23.7,52.7c-25.4,32.5-69.1,32.5-94.5,0
		c-11-14.1-18.6-32.9-23.7-52.7l-1.7-6.4C54.6,101.1,99.7,101.2,149.7,121.3L149.7,121.3z"/>
	<path class="st1" d="M131.3,140L131.3,140l0.2,0.1h0.1l0.1,0.1h0.1l0,0l0.1,0.1h0.1l0.1,0.1h0.1l0.1,0.1h0.1h0.1l0.1,0.1h0.1
		l0.1,0.1h0.1l0.1,0.1h0.1h0.1l0.1,0.1h0.1l0.1,0.1h0.1l0.1,0.1h0.1l0.1,0.1h0.1l0.1,0.1h0.1l0.1,0.1h0.1h0.1l0.1,0.1h0.1l0.1,0.1
		h0.1l0.1,0.1h0.1l0,0l0.1,0.1h0.1l0.1,0.1h0.1l0.1,0.1h0.1c-1,2.4-1.4,5.1-1,7.6l-0.1-0.1l-0.2-0.1H133l-0.1-0.1h-0.1l-0.1-0.1
		l-0.1-0.1l-0.2-0.1h-0.1l-0.1-0.1h-0.1l-0.2-0.1l-0.1-0.1H132l-0.1-0.1l-0.2-0.1l-0.1-0.1h-0.1l-0.1-0.1h-0.1l-0.1-0.1
		c-8.7-3-17.7-5.3-26.8-6.8l0.8-7.5C114.2,135.2,122.9,137.3,131.3,140L131.3,140z M94.6,139.8c-11.7-1.3-23.5-1.3-35.2-0.3
		l-0.8-7.5c12.2-1.1,24.6-1,36.7,0.3L94.6,139.8z M49.5,140.7c-8.3,1.3-16.4,3.1-24.3,5.5l0,0h-0.1l0,0h-0.1l-0.1,0.1l0,0H25l0,0
		h-0.1l0,0l-0.1,0.1h-0.1l0,0h-0.1h-0.1v0.1h-0.1h-0.1l0,0h-0.1l0,0l-0.1,0.1l0,0h-0.1h-0.1l0,0l-0.1,0.1h-0.1l0,0h-0.1l0,0
		l-0.1,0.1l0,0h-0.1l0,0h-0.1l-0.1,0.1l0,0H24H24l0,0l-0.1,0.1h-0.1l0,0l0,0h-0.1h-0.1v0.1h-0.1h-0.1l0,0h-0.1v0h-0.1h-0.1l0,0h-0.1
		l0,0l-0.1,0.1l0,0h-0.1h-0.1v0.1h-0.1h-0.1l0,0h-0.1l-0.1,0.1l0,0c-0.6-2.5-1.7-4.9-3.4-6.8l0,0h0.1l0,0h0.1V140h0.1l0,0H20l0,0H20
		V140h0.1l0,0h0.1l0,0l0,0h0.1v-0.1h0.1l0,0h0.1l0,0h0.1v-0.1h0.1l0,0h0.1l0,0h0.1v-0.1h0.1l0,0l0,0h0.1l0,0h0.1v-0.1h0.1l0,0h0.1
		l0,0h0.1v-0.1h0.1l0,0h0.1l0,0h0.1l0,0v-0.1H21l0,0H21l0,0h0.1l0,0l0.1-0.1l0,0h0.1l0,0h0.1l0,0l0.1-0.1h0.1l0,0l0,0h0.1
		c8.8-2.9,18-5,27.4-6.3L49.5,140.7z"/>
	<path class="st1" d="M114.1,182.7c-3.2-0.7-6.3-1.4-9.5-1.9l0.8-7.5c5.2,0.9,10.5,2,15.6,3.3c-0.2,0.4-0.4,0.9-0.7,1.1
		c-0.6,0.4-1.2,0.9-1.7,1.5l-0.3,0.2C116.8,180.3,115.3,181.4,114.1,182.7L114.1,182.7z M94.6,179.4c-11.7-1.3-23.5-1.3-35.2-0.3
		l-0.8-7.5c12.2-1.1,24.6-1,36.7,0.3L94.6,179.4z M49.5,180.4c-3.7,0.6-7.3,1.2-10.9,2c-0.3-1-0.9-2.3-1.4-3.2
		c-0.5-1.1-1.1-2.1-1.8-3c-0.2-0.2-0.3-0.4-0.4-0.6c4.5-1.1,9.1-1.9,13.8-2.6L49.5,180.4z"/>
	<path class="st1" d="M82.1,151.3c15.7,0.4,31.6,2.8,46.7,7.3c-1.7,1.9-2.9,4.3-3.5,6.8c-14-4.1-28.6-6.2-43.2-6.6V151.3z M31,157.2
		c13.4-3.6,27.5-5.5,41-5.8v7.5c-13.2,0.4-26.5,2.2-39.3,5.6C32.7,161.8,32.1,159.6,31,157.2L31,157.2z"/>
	<polygon class="st0" points="35.9,91.8 26.3,82.2 50.2,58.4 74.1,82.2 64.5,91.8 50.2,77.5 	"/>
	<polygon class="st0" points="90.1,91.8 80.5,82.2 104.4,58.4 128.3,82.2 118.7,91.8 104.4,77.5 	"/>
</g>
</svg>
