<svg xmlns="http://www.w3.org/2000/svg" width="32" height="32" viewBox="0 0 32 32" fill="none">
  <path d="M16 3.2002C8.93001 3.2002 3.20001 8.96499 3.20001 16.0779C3.20001 22.5037 7.87451 27.8293 13.994 28.7992V19.8034H10.7465V16.0779H13.994V13.2413C13.994 10.0163 15.9015 8.23156 18.8265 8.23156C18.8285 8.23156 18.83 8.23156 18.832 8.23156C18.8325 8.23156 18.833 8.23156 18.8335 8.23156C20.236 8.23156 21.702 8.48559 21.702 8.48559V11.6537H20.089C18.497 11.6537 18.006 12.6487 18.006 13.6649V16.0779H21.555L20.987 19.8034H18.006V28.8002C24.122 27.8334 28.8 22.5062 28.8 16.0779C28.8 8.96499 23.07 3.2002 16 3.2002Z" fill="#83F35D"/>
</svg>
