<?xml version="1.0" encoding="utf-8"?>
<!-- Generator: Adobe Illustrator 23.0.5, SVG Export Plug-In . SVG Version: 6.00 Build 0)  -->
<svg version="1.1" id="Capa_1" xmlns="http://www.w3.org/2000/svg" xmlns:xlink="http://www.w3.org/1999/xlink" x="0px" y="0px"
	 width="406.2px" height="406.2px" viewBox="0 0 406.2 406.2" style="enable-background:new 0 0 406.2 406.2;" xml:space="preserve"
	>
<g>
	<g>
		<g>
			<path d="M225.1,240.4V392h124.7c16.2,0,29.4-13.1,29.4-29.4V240.4H225.1z"/>
			<path d="M181,240.4H27v122.3c0,16.2,13.2,29.4,29.4,29.4H181V240.4z M67,361.2c-6.1,0-11-4.9-11-11V289c0-6.1,4.9-11,11-11
				s11,4.9,11,11v61.2C78.1,356.3,73.1,361.2,67,361.2z"/>
		</g>
		<path d="M359.4,125.4h-55.1c7.6-3.7,14-7.4,17.9-11.3c22.7-22.7,22.7-59.5,0-82.3c-11.4-11.4-26.3-17-41.1-17
			c-14.9,0-29.8,5.7-41.1,17c-9.4,9.4-18.5,32.7-25.9,56.7c-3.5-0.9-7-1.6-10.8-1.6c-3.7,0-7.3,0.7-10.7,1.6
			c-7.4-24.2-16.6-47.8-26.1-57.3c-11.4-11.4-26.2-17-41.1-17c-14.9,0-29.8,5.7-41.1,17c-22.7,22.7-22.7,59.6,0,82.3
			c4.1,4.1,10.9,8.1,19.1,11.9H46.8c-16.2,0-29.3,13.1-29.3,29.3v25c0,16.2,13.1,29.3,29.3,29.3H181v-82.5h44.1v82.5h134.3
			c16.2,0,29.3-13.1,29.3-29.3v-25C388.8,138.5,375.6,125.4,359.4,125.4z M260.6,52.7c5.4-5.4,12.7-8.4,20.3-8.4
			c7.7,0,14.9,3,20.4,8.4c5.4,5.4,8.4,12.7,8.4,20.3s-3,14.9-8.4,20.3c-6.1,5.7-29.9,14.7-59.3,23c-0.8-2.9-2-5.5-3.4-8.1
			C246.7,80.5,255.2,58.5,260.6,52.7z M104.8,52c5.4-5.4,12.7-8.4,20.3-8.4c7.7,0,14.9,3,20.3,8.4c5.5,5.9,14,28.2,22.1,56.1
			c-1.3,2.4-2.4,4.9-3.2,7.6c-29.5-8.3-53.5-17.3-59.6-23C93.6,81.5,93.6,63.3,104.8,52z"/>
	</g>
</g>
</svg>
