<svg width="48" height="43" viewBox="0 0 48 43" fill="none" xmlns="http://www.w3.org/2000/svg">
<path d="M47.7041 39.7415L25.8837 1.9436C25.4891 1.26256 24.7864 0.857178 24.0027 0.857178C23.219 0.857178 22.5109 1.26256 22.1217 1.9436L0.295929 39.7415C-0.0986431 40.4225 -0.0986431 41.2333 0.295929 41.9143C0.690502 42.5954 1.39316 43.0008 2.1769 43.0008H45.8231C46.6068 43.0008 47.3149 42.5954 47.7041 41.9143C48.0986 41.2333 48.0986 40.4225 47.7041 39.7415ZM2.16609 40.8225L23.9865 3.02462L23.0514 2.48411L24.0081 3.02462L45.8231 40.8441L2.16609 40.8279V40.8225Z" fill="#FAFF05"/>
<path d="M25.0783 14.1753H22.9163V31.9852H25.0783V14.1753Z" fill="#FAFF05"/>
<path d="M25.0783 34.1472H22.9163V36.3092H25.0783V34.1472Z" fill="#FAFF05"/>
</svg>
