<svg xmlns="http://www.w3.org/2000/svg" xmlns:xlink="http://www.w3.org/1999/xlink" width="286" height="82" viewBox="0 0 286 82"><defs><path id="10iba" d="M1017.003 580.949h11.925v-11.96h68.142v11.96h11.924v58.082h-11.924v11.96h-68.142v-11.96h-11.925zm34.07 58.082h23.85V580.95h-23.85z"/><path id="10ibb" d="M914.994 568.988h80.083v11.96h-46.005v23.917h46.005v11.958h11.927v22.208h-11.927v11.96h-68.156v-11.96h-11.927v-11.955h34.078v11.955h23.854v-22.208h-57.932z"/><path id="10ibc" d="M823 592v-11h11v-12h60v12h11v23h-12v12h12v23h-11v12h-60v-11h-11v-24h11v23h36v-23h-23v-12h23v-23h-35v11z"/></defs><g><g transform="translate(-823 -569)"><use fill="#ff3586" xlink:href="#10iba"/><use fill="#fef502" xlink:href="#10iba"/></g><g transform="translate(-823 -569)"><use fill="#ff3586" xlink:href="#10ibb"/><use fill="#fef502" xlink:href="#10ibb"/></g><g transform="translate(-823 -569)"><use fill="#fef502" xlink:href="#10ibc"/></g></g></svg>