<?xml version="1.0" encoding="utf-8"?>

<svg version="1.1"  xmlns="http://www.w3.org/2000/svg" xmlns:xlink="http://www.w3.org/1999/xlink" x="0px" y="0px"
	 width="28px" height="28px" viewBox="0 0 28 28" style="enable-background:new 0 0 28 28;" xml:space="preserve">
<path d="M13.4,4C8.8,4.5,5,8.3,4.5,13c-0.5,4.8,2.2,9.2,6.3,10.8c0.3,0.1,0.6-0.1,0.6-0.5v-1.7c0,0-0.4,0.1-0.9,0.1
	c-1.4,0-2-1.2-2.1-2c-0.1-0.4-0.3-0.7-0.6-1c-0.3-0.1-0.4-0.1-0.4-0.2c0-0.2,0.3-0.2,0.4-0.2c0.6,0,1.1,0.7,1.3,1
	c0.5,0.8,1.1,1,1.4,1c0.4,0,0.7-0.1,0.9-0.2c0.1-0.7,0.4-1.4,1-1.9c-2.3-0.5-4-1.9-4-4.1c0-1.1,0.5-2.3,1.2-3.1
	c-0.1-0.2-0.2-0.7-0.2-1.4c0-0.4,0-1,0.3-1.7c0,0,1.4,0,2.8,1.3C13.1,9.1,13.8,9,14.5,9c0.7,0,1.4,0.1,2,0.3C17.8,8,19.3,8,19.3,8
	c0.2,0.6,0.2,1.2,0.2,1.7c0,0.8-0.1,1.2-0.2,1.4c0.7,0.8,1.2,1.9,1.2,3.1c0,2.3-1.7,3.6-4,4.1c0.6,0.5,1,1.4,1,2.4v2.7
	c0,0.3,0.3,0.6,0.7,0.5c3.7-1.5,6.3-5.3,6.3-9.6C24.5,8.1,19.4,3.3,13.4,4z"/>
</svg>
