<?xml version="1.0" encoding="utf-8"?>

<svg version="1.1"  xmlns="http://www.w3.org/2000/svg" xmlns:xlink="http://www.w3.org/1999/xlink" x="0px" y="0px"
	 width="28px" height="28px" viewBox="0 0 28 28" style="enable-background:new 0 0 28 28;" xml:space="preserve">

<path class="st0" d="M20.4,7.6c-1.1-1.1-2.8-1.1-3.8,0l-1,1c-0.4,0.4-0.9,0.4-1.3,0c-0.4-0.4-0.4-0.9,0-1.3l1-1
	c1.8-1.8,4.6-1.8,6.4,0c1.8,1.8,1.8,4.6,0,6.4l-3.6,3.6c-1.8,1.8-4.6,1.8-6.4,0c-0.4-0.4-0.4-0.9,0-1.3c0.4-0.4,0.9-0.4,1.3,0
	c1.1,1.1,2.8,1.1,3.8,0l3.6-3.6C21.5,10.4,21.5,8.6,20.4,7.6z M15,13c-1.1-1.1-2.8-1.1-3.8,0l-3.6,3.6c-1.1,1.1-1.1,2.8,0,3.8
	c1.1,1.1,2.8,1.1,3.8,0l1-1c0.4-0.4,0.9-0.4,1.3,0c0.4,0.4,0.4,0.9,0,1.3l-1,1c-1.8,1.8-4.6,1.8-6.4,0c-1.8-1.8-1.8-4.6,0-6.4
	l3.6-3.6c1.8-1.8,4.6-1.8,6.4,0c0.4,0.4,0.4,0.9,0,1.3C15.9,13.3,15.4,13.3,15,13z"/>
</svg>
