<?xml version="1.0" encoding="utf-8"?>
<!-- Generator: Adobe Illustrator 23.0.5, SVG Export Plug-In . SVG Version: 6.00 Build 0)  -->
<svg version="1.1" id="Layer_1" xmlns="http://www.w3.org/2000/svg" xmlns:xlink="http://www.w3.org/1999/xlink" x="0px" y="0px"
	 viewBox="0 0 24 24" style="enable-background:new 0 0 24 24;" xml:space="preserve">
<style type="text/css">
	.st0{fill:#FFFFFF;}
</style>
<g>
	<path class="st0" d="M21.4,16.2C21,10.1,18.9,7,18.8,6.9l-0.1-0.1c-0.1-0.1-2.1-1.6-4.4-1.7H14l-0.6,1.2c-0.4,0-0.9-0.1-1.4-0.1
		s-1,0-1.5,0.1L9.8,5H9.5C8,5.1,6.5,5.7,5.2,6.7L5.1,6.8C5,6.9,2.9,10,2.5,16.1v0.2l0.1,0.2c2.2,2.5,5.5,2.7,5.7,2.7h0.3l1.2-1.7
		c0.7,0.1,1.5,0.2,2.3,0.2s1.5-0.1,2.2-0.2l1.2,1.7h0.3c0.1,0,3.5,0,5.7-2.6l0.1-0.2L21.4,16.2z M14.6,6.1c1.7,0.2,3.1,1.2,3.4,1.4
		c0,0.1,0.1,0.2,0.2,0.3c-1.1-0.6-2.2-1.1-3.8-1.4L14.6,6.1z M15.8,18.1l-0.6-0.9c1.3-0.3,2.5-0.9,3.6-1.7l-0.6-0.8
		c-1.7,1.3-3.7,1.9-6.2,1.9S7.5,16,5.8,14.7l-0.6,0.8c1,0.8,2.2,1.4,3.5,1.7l-0.6,0.9c-0.7-0.1-3-0.5-4.5-2.2C4,10.7,5.7,7.9,6,7.4
		C6.9,6.7,8.1,6.2,9.2,6l0.2,0.4C8,6.8,6.9,7.3,5.8,7.9l0.4,0.9C7.8,8,9.3,7.2,12,7.2s4.2,0.8,5.8,1.5l0.4-0.9
		c0.5,0.9,1.8,3.7,2.2,8.2C18.8,17.7,16.6,18,15.8,18.1z"/>
	<path class="st0" d="M9.3,10.8c-1.1,0-1.9,0.9-1.9,2.1C7.4,14,8.3,15,9.3,15c1.1,0,1.9-0.9,1.9-2.1S10.4,10.8,9.3,10.8z M9.3,14
		c-0.4,0-0.9-0.5-0.9-1.1s0.4-1.1,0.9-1.1s0.9,0.5,0.9,1.1S9.8,14,9.3,14z"/>
	<path class="st0" d="M14.7,10.8c-1.1,0-1.9,0.9-1.9,2.1s0.8,2.1,1.9,2.1s1.9-0.9,1.9-2.1S15.8,10.8,14.7,10.8z M14.7,14
		c-0.5,0-0.9-0.5-0.9-1.1s0.4-1.1,0.9-1.1s0.9,0.5,0.9,1.1C15.6,13.5,15.2,14,14.7,14z"/>
</g>
</svg>
