<?xml version="1.0" encoding="utf-8"?>
<!-- Generator: Adobe Illustrator 23.0.5, SVG Export Plug-In . SVG Version: 6.00 Build 0)  -->
<svg version="1.1" id="Layer_1" xmlns="http://www.w3.org/2000/svg" xmlns:xlink="http://www.w3.org/1999/xlink" x="0px" y="0px"
	 width="152.5px" height="202.7px" viewBox="0 0 152.5 202.7" style="enable-background:new 0 0 152.5 202.7;" xml:space="preserve"
	>
<style type="text/css">
	.st0{fill-rule:evenodd;clip-rule:evenodd;fill:#2C302D;}
	.st1{fill:#2C302D;}
</style>
<g>
	<path class="st0" d="M0,30c0,3-0.9,52.6,11.3,96.6c0.3,0,0.6-0.1,0.9-0.2c0.5-0.2,1-0.3,1.5-0.4c0.6-0.3,1.3-0.4,1.9-0.5
		c0.6-0.2,1.1-0.3,1.6-0.4c0.8-0.3,1.4-0.5,2.2-0.7c0.8-0.3,1.6-0.5,2.4-0.7c0.7-0.2,1.4-0.4,2.1-0.5c0.8-0.3,1.5-0.5,2.3-0.7
		c-2.8-10.5-4.8-21.4-6.1-31.6c-1.1-8.2-1.7-16-2.2-22.8c-0.9-14.3-0.8-24.4-0.7-25.6c38-12,52.4-19.5,58.9-23.2
		c6.5,3.7,21,11.2,59,23.2c0,2.3,0.6,42.5-8.7,78.4c3.4,0,6.6,0.9,9.4,2.9c1,0.5,1.9,1,2.9,1.6l0.5,0.3c0.6,0.3,1.2,0.6,1.8,0.9
		c12.3-44.1,11.5-93.7,11.5-96.8C103.3,14.4,84.6,4.8,76.2,0C67.8,4.8,49.1,14.4,0,30L0,30z"/>
	<path class="st1" d="M22.2,129.1c4.5,15.3,10.6,29.6,19,40.3c19.2,24.5,50.9,24.5,70.1,0c8.3-10.7,14.5-24.9,19-40.3
		C96.3,117.2,56.1,117.2,22.2,129.1L22.2,129.1z M148.1,120.1l-1.6,6.3c-5.1,19.5-12.6,38.2-23.5,52.1c-25.1,32.2-68.3,32.2-93.5,0
		c-10.9-14-18.4-32.6-23.5-52.1l-1.6-6.3C54,100.1,98.7,100.2,148.1,120.1L148.1,120.1z"/>
	<path class="st0" d="M76.2,137.5c2.1,0,3.9-1.7,3.9-3.9s-1.7-3.9-3.9-3.9s-3.9,1.7-3.9,3.9S74.1,137.5,76.2,137.5L76.2,137.5z"/>
	<path class="st0" d="M76.2,157.3c2.1,0,3.9-1.7,3.9-3.9s-1.7-3.9-3.9-3.9s-3.9,1.7-3.9,3.9S74.1,157.3,76.2,157.3L76.2,157.3z"/>
	<path class="st0" d="M76.2,177.2c2.1,0,3.9-1.7,3.9-3.9s-1.7-3.9-3.9-3.9s-3.9,1.7-3.9,3.9S74.1,177.2,76.2,177.2L76.2,177.2z"/>
	<path class="st0" d="M93.1,138.3c2.1,0,3.9-1.7,3.9-3.9s-1.7-3.9-3.9-3.9s-3.9,1.7-3.9,3.9S90.9,138.3,93.1,138.3L93.1,138.3z"/>
	<path class="st0" d="M93.1,158.1c2.1,0,3.9-1.7,3.9-3.9s-1.7-3.9-3.9-3.9s-3.9,1.7-3.9,3.9C89.2,156.4,90.9,158.1,93.1,158.1
		L93.1,158.1z"/>
	<path class="st0" d="M93.1,178c2.1,0,3.9-1.7,3.9-3.9s-1.7-3.9-3.9-3.9s-3.9,1.7-3.9,3.9C89.2,176.3,90.9,178,93.1,178L93.1,178z"
		/>
	<path class="st0" d="M124.7,144.3c2.1,0,3.9-1.7,3.9-3.9s-1.7-3.9-3.9-3.9s-3.9,1.8-3.9,3.9S122.6,144.3,124.7,144.3L124.7,144.3z"
		/>
	<path class="st0" d="M109.3,140.5c2.1,0,3.9-1.7,3.9-3.9s-1.7-3.9-3.9-3.9s-3.9,1.7-3.9,3.9C105.4,138.8,107.2,140.5,109.3,140.5
		L109.3,140.5z"/>
	<path class="st0" d="M109.3,160.4c2.1,0,3.9-1.7,3.9-3.9s-1.7-3.9-3.9-3.9s-3.9,1.7-3.9,3.9S107.2,160.4,109.3,160.4L109.3,160.4z"
		/>
	<path class="st0" d="M109.3,180.3c2.1,0,3.9-1.7,3.9-3.9s-1.7-3.9-3.9-3.9s-3.9,1.7-3.9,3.9S107.2,180.3,109.3,180.3L109.3,180.3z"
		/>
	<path class="st0" d="M59.3,138.3c2.1,0,3.9-1.7,3.9-3.9s-1.7-3.9-3.9-3.9c-2.1,0-3.9,1.7-3.9,3.9S57.2,138.3,59.3,138.3L59.3,138.3
		z"/>
	<path class="st0" d="M59.3,158.1c2.1,0,3.9-1.7,3.9-3.9s-1.7-3.9-3.9-3.9c-2.1,0-3.9,1.7-3.9,3.9C55.5,156.4,57.2,158.1,59.3,158.1
		L59.3,158.1z"/>
	<path class="st0" d="M59.3,178c2.1,0,3.9-1.7,3.9-3.9s-1.7-3.9-3.9-3.9c-2.1,0-3.9,1.7-3.9,3.9C55.5,176.3,57.2,178,59.3,178
		L59.3,178z"/>
	<path class="st0" d="M43.1,140.5c2.1,0,3.9-1.7,3.9-3.9s-1.7-3.9-3.9-3.9s-3.9,1.7-3.9,3.9C39.2,138.8,41,140.5,43.1,140.5
		L43.1,140.5z"/>
	<path class="st0" d="M43.1,160.4c2.1,0,3.9-1.7,3.9-3.9s-1.7-3.9-3.9-3.9s-3.9,1.7-3.9,3.9S41,160.4,43.1,160.4L43.1,160.4z"/>
	<path class="st0" d="M43.1,180.3c2.1,0,3.9-1.7,3.9-3.9s-1.7-3.9-3.9-3.9s-3.9,1.7-3.9,3.9C39.2,178.5,41,180.3,43.1,180.3
		L43.1,180.3z"/>
	<path class="st0" d="M27.7,144.3c2.1,0,3.9-1.8,3.9-3.9s-1.8-3.9-3.9-3.9c-2.1,0-3.9,1.7-3.9,3.9S25.6,144.3,27.7,144.3L27.7,144.3
		z"/>
	<path class="st0" d="M50.4,55.2C39.5,55.2,30.6,64,30.6,75c0,10.9,8.9,19.7,19.8,19.7c0.9,0,1.7,0,2.6-0.2
		c9.7-1.3,17.2-9.5,17.2-19.5c0-10.3-7.9-18.8-18-19.7C51.5,55.2,51,55.2,50.4,55.2L50.4,55.2z M50.4,68.7c3.4,0,6.3,2.8,6.3,6.3
		c0,3.4-2.8,6.2-6.3,6.2c-3.4,0-6.3-2.8-6.3-6.2C44.1,71.5,46.9,68.7,50.4,68.7L50.4,68.7z"/>
	<polygon class="st0" points="82.7,83.9 92.2,93.4 101.1,84.5 110,93.4 119.5,83.9 110.6,75 119.5,66.2 110,56.7 101.1,65.6 
		92.2,56.7 82.7,66.2 91.6,75 	"/>
</g>
</svg>
