<svg xmlns="http://www.w3.org/2000/svg" width="71" height="35.969" viewBox="0 0 71 35.969">
  <defs>
    <style>
      .cls-1 {
        fill: #F00;
        fill-rule: evenodd;
      }
    </style>
  </defs>
  <path class="cls-1" d="M1100.27,539.018a16.42,16.42,0,0,1,6.35,1.254,16.09,16.09,0,0,1,5.33,3.586,17.377,17.377,0,0,1,3.67,5.656,19.487,19.487,0,0,1,1.37,7.464,19.707,19.707,0,0,1-1.37,7.493,17.29,17.29,0,0,1-3.67,5.685,16.059,16.059,0,0,1-5.33,3.586,16.42,16.42,0,0,1-6.35,1.254,14.364,14.364,0,0,1-5.85-1.167,19.5,19.5,0,0,1-4.92-3.119,29.732,29.732,0,0,1-4.22-4.49c-1.3-1.691-2.56-3.45-3.76-5.277-1.2,1.827-2.47,3.586-3.79,5.277a30.943,30.943,0,0,1-4.25,4.49,19.5,19.5,0,0,1-4.92,3.119,14.364,14.364,0,0,1-5.85,1.167,16.456,16.456,0,0,1-6.35-1.254,16.059,16.059,0,0,1-5.33-3.586,17.29,17.29,0,0,1-3.67-5.685,19.707,19.707,0,0,1-1.37-7.493,19.487,19.487,0,0,1,1.37-7.464,17.377,17.377,0,0,1,3.67-5.656,16.09,16.09,0,0,1,5.33-3.586,16.456,16.456,0,0,1,6.35-1.254,14.4,14.4,0,0,1,5.85,1.166,19.555,19.555,0,0,1,4.92,3.12,30.994,30.994,0,0,1,4.25,4.49c1.32,1.691,2.59,3.45,3.79,5.277,1.2-1.827,2.46-3.586,3.76-5.277a29.779,29.779,0,0,1,4.22-4.49,19.555,19.555,0,0,1,4.92-3.12A14.4,14.4,0,0,1,1100.27,539.018Zm-37.39,31.43a10.37,10.37,0,0,0,4.75-1.108,16.9,16.9,0,0,0,4.11-2.974,31.2,31.2,0,0,0,3.66-4.315c1.17-1.633,2.33-3.324,3.5-5.073-1.17-1.75-2.33-3.431-3.5-5.044a32.1,32.1,0,0,0-3.66-4.286,16.975,16.975,0,0,0-4.11-2.974,10.37,10.37,0,0,0-4.75-1.108,12.465,12.465,0,0,0-4.77.9,11.641,11.641,0,0,0-3.9,2.6,11.8,11.8,0,0,0-2.65,4.2,15.9,15.9,0,0,0-.96,5.715,16.08,16.08,0,0,0,.96,5.773,11.77,11.77,0,0,0,2.65,4.2,11.6,11.6,0,0,0,3.9,2.6A12.446,12.446,0,0,0,1062.88,570.448Zm37.22,0a12.514,12.514,0,0,0,4.74-.9,11.348,11.348,0,0,0,3.91-2.6,12.139,12.139,0,0,0,2.62-4.2,16.08,16.08,0,0,0,.96-5.773,15.9,15.9,0,0,0-.96-5.715,12.168,12.168,0,0,0-2.62-4.2,11.391,11.391,0,0,0-3.91-2.6,12.533,12.533,0,0,0-4.74-.9,10.37,10.37,0,0,0-4.75,1.108,16.927,16.927,0,0,0-4.1,2.974,31.432,31.432,0,0,0-3.67,4.286c-1.17,1.613-2.33,3.294-3.5,5.044,1.17,1.749,2.33,3.44,3.5,5.073a30.567,30.567,0,0,0,3.67,4.315,16.847,16.847,0,0,0,4.1,2.974A10.37,10.37,0,0,0,1100.1,570.448Z" transform="translate(-1046 -539.031)"/>
</svg>
