<?xml version="1.0" encoding="utf-8"?>
<!-- Generator: Adobe Illustrator 23.0.5, SVG Export Plug-In . SVG Version: 6.00 Build 0)  -->
<svg version="1.1" id="Layer_1" xmlns="http://www.w3.org/2000/svg" xmlns:xlink="http://www.w3.org/1999/xlink" x="0px" y="0px"
	 viewBox="0 0 24 24" style="enable-background:new 0 0 24 24;" xml:space="preserve">
<style type="text/css">
	.st0{fill:#FFFFFF;}
	.st1{fill-rule:evenodd;clip-rule:evenodd;fill:#FFFFFF;}
	.st2{fill-rule:evenodd;clip-rule:evenodd;fill:#FFFDFD;}
</style>
<path class="st0" d="M11.5,20.5c-1.5,0-2.9-0.6-3.9-1.9c-2.5-2.9-3-8.3-3.1-11.3C4.5,6.6,5,6,5.6,5.8C7.2,5.4,8.9,5,10.7,3.9l0,0
	c0.5-0.3,1.1-0.3,1.6,0c1.6,1,3.3,1.5,5,1.9C18,6,18.5,6.6,18.5,7.3c-0.1,2.9-0.5,8.3-2.9,11.2C14.5,19.8,13.1,20.5,11.5,20.5z
	 M11.5,4.7c-0.1,0-0.2,0-0.3,0.1l0,0c-1.9,1.1-3.7,1.6-5.3,2C5.7,6.9,5.5,7.1,5.5,7.3C5.6,9.6,5.9,15.2,8.3,18
	c0.9,1,1.9,1.5,3.2,1.5c1.3,0,2.4-0.5,3.3-1.6c2.3-2.8,2.7-8.3,2.7-10.6c0-0.2-0.1-0.4-0.4-0.5c-1.8-0.4-3.6-0.9-5.3-2
	C11.7,4.7,11.6,4.7,11.5,4.7z"/>
<path class="st0" d="M11.5,17.5c-0.5,0-1.3-0.2-1.9-1.2c-0.2-0.2-0.1-0.5,0.1-0.7c0.2-0.2,0.5-0.1,0.7,0.1c0.6,1,1.5,1,2.2-0.1
	c0.1-0.2,0.5-0.3,0.7-0.2c0.2,0.1,0.3,0.5,0.2,0.7C12.8,17.3,12,17.5,11.5,17.5z"/>
<path class="st1" d="M9.5,11c0.3,0,0.5-0.2,0.5-0.5S9.8,10,9.5,10S9,10.2,9,10.5S9.2,11,9.5,11z M9.5,12c0.8,0,1.5-0.7,1.5-1.5
	S10.3,9,9.5,9S8,9.7,8,10.5S8.7,12,9.5,12z"/>
<path class="st2" d="M12.5,10.5c0-0.3,0.2-0.5,0.5-0.5h2c0.3,0,0.5,0.2,0.5,0.5S15.3,11,15,11h-2C12.7,11,12.5,10.8,12.5,10.5z"/>
</svg>
