<?xml version="1.0" encoding="utf-8"?>
<!-- Generator: Adobe Illustrator 23.0.5, SVG Export Plug-In . SVG Version: 6.00 Build 0)  -->
<svg version="1.1" id="Layer_1" xmlns="http://www.w3.org/2000/svg" xmlns:xlink="http://www.w3.org/1999/xlink" x="0px" y="0px"
	 viewBox="0 0 24 24" style="enable-background:new 0 0 24 24;" xml:space="preserve">
<style type="text/css">
	.st0{fill:#FFFFFF;}
</style>
<path class="st0" d="M10.5,17h-3C6.2,17,5,16.5,4,15.6C3,14.7,2.5,13.5,2.5,12c0-1.3,0.5-2.5,1.4-3.5C4.8,7.5,6,7,7.5,7h3v1h-3
	C6.3,8,5.3,8.4,4.7,9.1C3.9,10,3.5,11,3.5,12c0,1.2,0.4,2.2,1.1,2.8C5.5,15.6,6.5,16,7.5,16h3V17z"/>
<path class="st0" d="M16.5,17h-3v-1h3c1,0,2.1-0.4,2.8-1.2c0.7-0.8,1.2-1.8,1.2-2.8c0-1-0.4-2.1-1.2-2.8C18.5,8.4,17.5,8,16.5,8h-3
	V7h3C17.8,7,19,7.5,20,8.4c0.9,0.9,1.5,2.3,1.5,3.6c0,1.3-0.5,2.5-1.4,3.5C19.1,16.5,17.8,17,16.5,17z"/>
<rect x="7.5" y="11.5" class="st0" width="9" height="1"/>
</svg>
