<?xml version="1.0" encoding="utf-8"?>
<!-- Generator: Adobe Illustrator 23.0.5, SVG Export Plug-In . SVG Version: 6.00 Build 0)  -->
<svg version="1.1" id="Layer_1" xmlns="http://www.w3.org/2000/svg" xmlns:xlink="http://www.w3.org/1999/xlink" x="0px" y="0px"
	 viewBox="0 0 15 13" style="enable-background:new 0 0 15 13;" xml:space="preserve">
<style type="text/css">
	.st0{fill:#FFFFFF;}
</style>
<path class="st0" d="M5,12.5c0,0.4-0.3,0.6-0.7,0.4l-3.9-2c-0.1-0.1-0.2-0.2-0.3-0.3C0,10.5,0,10.4,0,10.2V0.5
	c0-0.4,0.2-0.5,0.7-0.3L5,2.4C5,2.4,5,2,5,12.5z M5.5,3.3l4.5,7.4L5.5,8.4V3.3z M15,3.4v9c0,0.1,0,0.3-0.1,0.3
	c-0.1,0.1-0.2,0.1-0.3,0.1c-0.1,0-0.3,0-0.4-0.1L10.5,11L15,3.4z M15,2.4c0,0-0.7,1.2-2.1,3.6c-1.4,2.4-2.3,3.8-2.5,4.2L7,4.8
	l2.7-4.5c0.1-0.2,0.4-0.3,0.7-0.2L15,2.4C15,2.4,15,2.4,15,2.4z"/>
</svg>
