<?xml version="1.0" encoding="utf-8"?>
<!-- Generator: Adobe Illustrator 23.0.5, SVG Export Plug-In . SVG Version: 6.00 Build 0)  -->
<svg version="1.1" id="Layer_1" xmlns="http://www.w3.org/2000/svg" xmlns:xlink="http://www.w3.org/1999/xlink" x="0px" y="0px"
	 viewBox="0 0 15 13" style="enable-background:new 0 0 15 13;" xml:space="preserve">
<style type="text/css">
	.st0{fill:#FFFFFF;}
</style>
<path class="st0" d="M14.5,0.8C14.5,0.8,14.5,0.7,14.5,0.8c-0.5,0.4-1.7,0.7-1.9,0.7c0,0,0,0,0,0s0,0,0,0c-0.9-1.3-2.9-0.9-2.9-0.9
	C6.8,1.1,7.1,3.9,7.2,4.2c0,0,0,0,0,0c-3.3,0.2-6.1-2.7-6.4-3c0,0,0,0,0,0c0,0,0,0,0,0c0,0,0,0,0,0c0,0,0,0,0,0
	C0.3,1.8,0.2,2.6,0.3,3.3s0.6,1.3,1.2,1.8c0,0,0,0,0,0c0,0,0,0,0,0c0,0,0,0,0,0c0,0,0,0,0,0C1.1,5.1,0.7,5,0.3,4.9c0,0,0,0,0,0
	c0,1.8,1.9,2.6,2.4,2.8c0,0,0,0,0,0s0,0,0,0c0,0,0,0,0,0c0,0,0,0,0,0C2.2,7.8,1.8,7.9,1.4,7.8c0,0,0,0,0,0c0,0,0,0,0,0c0,0,0,0,0,0
	s0,0,0,0c0.4,1.4,2.3,2,2.7,2.1c0,0,0,0,0,0c0,0,0,0,0,0c0,0,0,0,0,0c0,0,0,0,0,0c-1.2,1-3.6,1.3-4,1.3c0,0,0,0,0,0c0,0,0,0,0,0
	c0,0,0,0,0,0c0,0,0,0,0,0c1.8,1.2,6.6,2.1,10.2-0.8c1.1-0.9,1.9-2,2.5-3.2s0.8-2.5,0.7-3.9c0,0,0,0,0,0c0,0,0,0,0,0
	c0.7-0.4,1.2-0.9,1.6-1.5c0,0,0,0,0,0c-0.3,0.1-0.7,0.1-1,0C14,2.1,14.5,1.2,14.5,0.8z"/>
</svg>
