<svg id="Layer_1" data-name="Layer 1" xmlns="http://www.w3.org/2000/svg" viewBox="0 0 134.7 86.4">
  <title>
    DOJS_logo_wht
  </title>
  <path d="M1751.1 2539c-4.6 0-7.2-4-7.2-8.2s2.6-8.2 7.2-8.2a6.2 6.2 0 014.9 2.4v-7.8h4.5v21.5h-4.5v-2.3a5.8 5.8 0 01-5 2.6zm100.2-4.6a2.3 2.3 0 11-2.2 2.3 2.3 2.3 0 012.3-2.3zm21.2 4.6a10.7 10.7 0 01-6.8-2.4l2-3a8.6 8.6 0 005 2c1.2 0 1.9-.5 1.9-1.3 0-1.3-4-2-5-2.4-2-.9-3-2-3-4.2 0-3.3 2.7-5 5.8-5a10.5 10.5 0 015.9 1.8l-1.7 3.1a8.8 8.8 0 00-4.3-1.5c-1.1 0-1.7.4-1.7 1.2 0 1 3.5 2 4.6 2.4 2 .8 3.4 2 3.4 4.2 0 3.6-2.7 5.1-6 5.1zm-13.8-17.8v-4h4.8v4zm-.4 22.3a8.5 8.5 0 01-2-.2v-3.5a5.8 5.8 0 001 .1c1 0 1.6-.6 1.6-1.8v-15.2h4.4v15.5c0 3.4-1.6 5.1-5 5.1zm-16.7-4.5a10.7 10.7 0 01-6.8-2.4l2-3a8.6 8.6 0 005 2c1.2 0 1.8-.5 1.8-1.3 0-1.3-3.7-1.9-5-2.4-1.9-.9-3-2-3-4.2 0-3.3 2.7-5 5.8-5a10.5 10.5 0 015.9 1.8l-1.7 3.1a8.7 8.7 0 00-4.3-1.5c-1.1 0-1.7.4-1.7 1.2 0 1 3.5 2 4.6 2.4 2 .8 3.4 2 3.4 4.2 0 3.6-2.7 5.1-6 5.1zm-25.2 4.4v-20.5h4.5v2.3a5.8 5.8 0 015-2.6c4.6 0 7.1 4 7.1 8.2s-2.5 8.2-7.2 8.2a6.2 6.2 0 01-4.9-2.4v6.8zm8.3-8.2c2.4 0 3.8-2.1 3.8-4.4s-1.4-4.4-3.8-4.4-3.8 2.2-3.8 4.4 1.4 4.4 3.8 4.4zm-19.8 3.9c-4.8 0-8.6-3.4-8.6-8.3a8.3 8.3 0 018.6-8.2 8.2 8.2 0 110 16.5zm0-3.9a4 4 0 004.1-4.4 4.2 4.2 0 00-4.1-4.3 4 4 0 00-4.1 4.3 4.2 4.2 0 004.1 4.4zm-19.2 3.6l-6.3-15.9h4.8l3.5 10.6 3.6-10.6h4.7l-6.2 16zm-14.3.3a7.9 7.9 0 01-8.2-8.3c0-4.5 3.1-8.2 7.8-8.2 5 0 7.7 3.8 7.7 8.6v1.2h-11a3.7 3.7 0 003.8 3 5.5 5.5 0 003.8-1.6l2.6 2.3a8 8 0 01-6.5 3zm-3.8-9.5h6.7c-.2-1.9-1.3-3.4-3.3-3.4s-3.1 1.5-3.4 3.4zm-15.3 5.6c2.4 0 3.8-2.1 3.8-4.4s-1.4-4.4-3.8-4.4-4 2.1-4 4.4 1.5 4.4 4 4.4z" transform="translate(-1744 -2457.1)" fill="#fff"/>
  <path d="M1832.7 2457.1H1790a1 1 0 00-1 1v42.6a1 1 0 001 1h42.7a1 1 0 001-1v-42.6a1 1 0 00-1-1z" transform="translate(-1744 -2457.1)" fill-rule="evenodd" fill="#f8ec25"/>
  <path d="M1815 2485c-2-2-4.6-4.5-7.5-4.5-9.5 0-9.5 14.5 0 14.5 3 0 5.5-2.2 7.4-4.3 2 2 4.5 4.3 7.5 4.3 9.5 0 9.5-14.5 0-14.5-3 0-5.6 2.4-7.5 4.4zm9.6 5a3.1 3.1 0 00-2.2-5.4c-1.3 0-3.4 2-4.5 3.1a17.7 17.7 0 002.6 2.4c1.3 1 2.8 1.1 4-.2zm-19.3 0a3.1 3.1 0 012.2-5.4c1.3 0 3.3 2 4.5 3.1a17.7 17.7 0 01-2.6 2.4c-1.4 1-2.8 1.1-4.1-.2z" transform="translate(-1744 -2457.1)" fill="#191919" fill-rule="evenodd"/>
</svg>
