<svg xmlns="http://www.w3.org/2000/svg" version="1.1" xmlns:xlink="http://www.w3.org/1999/xlink" xmlns:svgjs="http://svgjs.com/svgjs" width="512" height="512" x="0" y="0" viewBox="0 0 512 512" style="enable-background:new 0 0 512 512" xml:space="preserve" class=""><g><path d="M196 512.1c-44.3 0-86-17.3-117.4-48.6C33.1 418 17.3 350.7 40.8 285.2c.7-2 1.5-3.9 2.4-5.9 31.5-66.7 95.6-103.6 164.4-98.9 4.6.3 8.4 4.4 8.4 9v86.8c0 11.1-9.1 20-20.1 20-27.7 0-50.2 22.3-50.2 49.7s22.5 49.7 50.2 49.7c5.4 0 10.7-.9 15.8-2.5 20.5-6.7 34.3-25.6 34.4-47V20c0-11.1 9-20 20.2-20H342c11.1 0 20 8.9 20 20 .1 54.4 44.4 98.6 98.9 98.6 11.1 0 20.1 8.9 20.1 20v76.1c0 11.1-9 20-20.1 20-29 0-57.2-5.7-83.8-16.9-5.1-2.2-10.2-4.5-15.1-7.1v135.9c-.2 44.2-17.5 85.6-48.6 116.8-25.3 25.3-57.3 41.5-92.5 46.8-8.2 1.2-16.6 1.9-24.9 1.9zm-20-290.5c-27.6 4.4-53 17.9-72.5 38.9-21.1 22.8-33.1 52.8-33.5 83.9-.4 34.3 12.7 66.5 36.9 90.7 23.8 23.8 55.4 36.9 89.1 36.9 6.4 0 12.7-.5 19-1.4 26.6-4 50.9-16.3 70.1-35.5 23.7-23.6 36.8-55.1 36.9-88.6V174.4c0-9.4 6.5-17.7 16.3-19.6 5.7-1.1 11.6.4 16.2 4 11.7 9 24.6 16.5 38.3 22.2 15.5 6.5 31.6 10.8 48.2 12.6v-36.5c-60.6-8.8-108.7-56.7-117.5-117.2H286v306.2c-.1 38.7-24.9 72.8-61.6 84.9-9.1 3-18.7 4.6-28.3 4.6-49.6 0-89.9-40.2-89.9-89.7 0-42.6 29.9-78.4 69.9-87.5v-36.8z" fill="#000000" opacity="1" data-original="#000000" class=""></path></g></svg>
