<?xml version="1.0" encoding="utf-8"?>
<!-- Generator: Adobe Illustrator 23.0.5, SVG Export Plug-In . SVG Version: 6.00 Build 0)  -->
<svg version="1.1" id="Layer_1" xmlns="http://www.w3.org/2000/svg" xmlns:xlink="http://www.w3.org/1999/xlink" x="0px" y="0px"
	 viewBox="0 0 24 24" style="enable-background:new 0 0 24 24;" xml:space="preserve">
<style type="text/css">
	.st0{fill:#FFFFFF;}
</style>
<path class="st0" d="M8.6,19.7c-2.2,0-4.1-0.6-5.9-1.7l-1.4-0.9h2.6c1.1,0,2.2-0.3,3.2-0.9c-2.4-0.8-3.9-3.1-4.4-4.7l-0.3-1l1,0.4
	c0.4,0.2,0.9,0.3,1.5,0.4c-0.6-0.7-1.1-1.5-1.4-2.3C2.9,7.6,3.5,5.6,3.9,5l0.3-0.6l0.5,0.5c2.2,2.3,4.2,3.5,6.5,3.8
	c0-0.6,0.1-1.3,0.3-1.9c0.3-0.8,1-1.5,1.8-1.9C14.1,4.3,15,4.2,16,4.3c0.8,0.1,1.6,0.5,2.3,1.1c0.3,0,0.5,0,0.8,0.1
	c0.7,0,1.4,0.1,2.1,0.2L22,5.9l-2.5,2.7v0.2C19.5,14.2,15.4,19.7,8.6,19.7z M4.9,18c1.1,0.4,2.4,0.7,3.7,0.7c6.2,0,9.9-5,9.9-9.9
	V8.2L20,6.6c-0.3,0-0.7-0.1-1-0.1c-0.3,0-0.7,0-1-0.1l-0.2,0l-0.1-0.1c-0.6-0.6-1.2-0.9-1.8-1c-0.8-0.1-1.4,0-2,0.3
	c-0.6,0.4-1.1,0.9-1.4,1.5c-0.3,0.6-0.3,1.3-0.2,2l0.2,0.7l-0.7,0C9.1,9.5,6.9,8.4,4.5,6.1C4.2,6.9,4.1,7.9,4.4,8.7
	c0.4,1.2,1.3,2.2,2.3,3l1.5,1.1l-1.8-0.2c-0.8-0.1-1.6-0.2-2.3-0.4c0.7,1.4,2.2,3.1,4.4,3.3l1.2,0.1l-1,0.8
	C7.6,17.3,6.3,17.8,4.9,18z"/>
</svg>
