<svg xmlns="http://www.w3.org/2000/svg" width="18" height="18" viewBox="0 0 18 18" fill="none">
<path d="M9 6.00429C7.34143 6.00429 6.00429 7.35429 6.00429 9C6.00429 10.6457 7.35429 11.9957 9 11.9957C10.6457 11.9957 11.9957 10.6457 11.9957 9C11.9957 7.35429 10.6457 6.00429 9 6.00429ZM18 9C18 7.75286 18 6.53143 17.9357 5.28429C17.8714 3.84429 17.5371 2.55857 16.4829 1.51714C15.4286 0.462857 14.1557 0.128571 12.7157 0.0642857C11.4686 -6.13076e-08 10.2471 0 9 0C7.75286 0 6.53143 -6.13076e-08 5.28429 0.0642857C3.84429 0.128571 2.55857 0.462857 1.51714 1.51714C0.462857 2.57143 0.128571 3.84429 0.0642857 5.28429C-6.13076e-08 6.53143 0 7.75286 0 9C0 10.2471 -6.13076e-08 11.4686 0.0642857 12.7157C0.128571 14.1557 0.462857 15.4414 1.51714 16.4829C2.57143 17.5371 3.84429 17.8714 5.28429 17.9357C6.53143 18 7.75286 18 9 18C10.2471 18 11.4686 18 12.7157 17.9357C14.1557 17.8714 15.4414 17.5371 16.4829 16.4829C17.5371 15.4286 17.8714 14.1557 17.9357 12.7157C18.0129 11.4814 18 10.2471 18 9ZM9 13.6157C6.44143 13.6157 4.38429 11.5586 4.38429 9C4.38429 6.44143 6.44143 4.38429 9 4.38429C11.5586 4.38429 13.6157 6.44143 13.6157 9C13.6157 11.5586 11.5586 13.6157 9 13.6157ZM13.8086 5.27143C13.2171 5.27143 12.7286 4.79571 12.7286 4.19143C12.7286 3.58714 13.2043 3.11143 13.8086 3.11143C14.4129 3.11143 14.8886 3.58714 14.8886 4.19143C14.8918 4.33226 14.8661 4.47226 14.813 4.60275C14.76 4.73324 14.6806 4.85143 14.58 4.95C14.4814 5.05064 14.3632 5.12996 14.2327 5.18304C14.1023 5.23611 13.9623 5.26183 13.8214 5.25857L13.8086 5.27143Z" fill="white"/>
</svg>
