<?xml version="1.0" encoding="utf-8"?>
<!-- Generator: Adobe Illustrator 23.0.5, SVG Export Plug-In . SVG Version: 6.00 Build 0)  -->
<svg version="1.1" id="Layer_1" xmlns="http://www.w3.org/2000/svg" xmlns:xlink="http://www.w3.org/1999/xlink" x="0px" y="0px"
	 viewBox="0 0 24 24" style="enable-background:new 0 0 24 24;" xml:space="preserve">
<path id="Фигура_25" d="M12.6,16.8c-0.7,0-1.3-0.6-1.3-1.3l0,0v0H9.8v0c0,1.5,1.3,2.7,2.8,2.7c1.5,0,2.6-1.2,2.7-2.7v0h-1.4v0
	C13.9,16.2,13.3,16.8,12.6,16.8L12.6,16.8L12.6,16.8L12.6,16.8z M13.1,9.3h3.8v1.3h-3.8V9.3L13.1,9.3z M6.6,6.6
	c3.8-1.2,5.2-1.9,5.8-2.3c0.7,0.3,2.1,1.1,5.8,2.3c0,0.4,0.2,13.3-5.8,13.3C6.4,19.9,6.6,7,6.6,6.6L6.6,6.6z M12.5,21.6
	c7.9,0,7.6-15.7,7.6-16.2c-4.9-1.5-6.7-2.5-7.6-3c-0.8,0.5-2.7,1.4-7.6,3C4.9,5.9,4.6,21.6,12.5,21.6L12.5,21.6z M9.9,8.1
	C8.8,8.1,8,9,8,10s0.9,1.9,2,1.9s1.9-0.9,1.9-1.9C11.9,8.9,11,8.1,9.9,8.1L9.9,8.1L9.9,8.1z M9.3,10c0-0.3,0.3-0.6,0.6-0.6
	s0.6,0.3,0.6,0.6s-0.3,0.6-0.6,0.6S9.3,10.3,9.3,10L9.3,10z"/>
</svg>
