<?xml version="1.0" encoding="utf-8"?>
<!-- Generator: Adobe Illustrator 23.0.5, SVG Export Plug-In . SVG Version: 6.00 Build 0)  -->
<svg version="1.1" id="Layer_1" xmlns="http://www.w3.org/2000/svg" xmlns:xlink="http://www.w3.org/1999/xlink" x="0px" y="0px"
	 width="279.6px" height="68.3px" viewBox="0 0 279.6 68.3" style="enable-background:new 0 0 279.6 68.3;" xml:space="preserve">
<style type="text/css">
	.st0{fill:#FEFEFE;}
	.st1{fill:#CCFF00;}
	.st2{fill-rule:evenodd;clip-rule:evenodd;fill:#CCFF00;}
</style>
<g>
	<path class="st0" d="M108.2,26.6V11.9h6.6c1.8,0,3.2,0.5,4.2,1.5c0.8,0.9,1.2,2,1.2,3.4c0,2.3-1,3.8-3.1,4.6l3.5,5.3h-3.7l-3.1-4.7
		h-2.4v4.7H108.2z M111.3,19h3.2c0.8,0,1.4-0.2,1.8-0.6c0.4-0.4,0.6-0.9,0.6-1.5c0-0.7-0.2-1.2-0.7-1.6c-0.4-0.4-1.1-0.5-1.8-0.5
		h-3.1V19z"/>
	<polygon class="st0" points="122.9,26.6 122.9,11.9 133.8,11.9 133.8,14.7 126.1,14.7 126.1,17.7 132.8,17.7 132.8,20.6
		126.1,20.6 126.1,23.7 133.9,23.7 133.9,26.6 	"/>
	<path class="st0" d="M135.6,26.6l6.2-14.8h2.9l6.2,14.8h-3.3l-1.3-3.3h-6.1l-1.3,3.3H135.6z M141.3,20.4h3.8l-1.9-4.8L141.3,20.4z"
		/>
	<path class="st0" d="M158.7,26.8c-2.1,0-3.9-0.7-5.3-2.2c-1.4-1.5-2.1-3.3-2.1-5.4s0.7-3.9,2.1-5.4c1.4-1.5,3.2-2.2,5.4-2.2
		c1.3,0,2.3,0.2,3.2,0.6c0.8,0.4,1.7,1,2.4,1.8l-1.9,2.2c-0.6-0.6-1.2-1-1.7-1.3c-0.5-0.3-1.2-0.4-2-0.4c-1.2,0-2.2,0.4-3,1.3
		c-0.8,0.9-1.2,2-1.2,3.3c0,1.3,0.4,2.4,1.2,3.3c0.8,0.9,1.8,1.3,3,1.3c0.8,0,1.4-0.1,2-0.4c0.6-0.3,1.2-0.7,1.8-1.3l2,2.2
		c-0.8,0.9-1.6,1.5-2.5,1.9C161.1,26.6,160,26.8,158.7,26.8L158.7,26.8z"/>
	<polygon class="st0" points="170.6,26.6 170.6,14.8 166.2,14.8 166.2,11.9 178.1,11.9 178.1,14.8 173.8,14.8 173.8,26.6 	"/>
	<path class="st0" d="M191.9,26.8c-2.4,0-4.4-0.8-6.1-2.4l1.9-2.3c1.4,1.2,2.9,1.8,4.3,1.8c0.6,0,1.2-0.1,1.5-0.4
		c0.4-0.3,0.6-0.6,0.6-1c0-0.4-0.2-0.8-0.6-1c-0.4-0.3-1.2-0.6-2.3-0.9c-0.8-0.2-1.5-0.4-2-0.6c-0.5-0.2-1-0.5-1.4-0.8
		c-0.5-0.3-0.8-0.8-1-1.3c-0.2-0.5-0.3-1.1-0.3-1.8c0-1.3,0.5-2.4,1.4-3.2c0.9-0.8,2.2-1.2,3.6-1.2c2,0,3.8,0.6,5.4,1.9l-1.7,2.4
		c-1.4-1-2.6-1.5-3.7-1.5c-0.6,0-1,0.1-1.4,0.4c-0.3,0.3-0.5,0.6-0.5,1c0,0.5,0.2,0.8,0.6,1.1c0.4,0.2,1.2,0.5,2.5,0.9
		c1.6,0.4,2.7,1,3.5,1.6c0.7,0.7,1.1,1.6,1.1,2.8c0,1.4-0.5,2.5-1.4,3.3C194.7,26.4,193.4,26.8,191.9,26.8L191.9,26.8z"/>
	<path class="st0" d="M205.9,26.8c-2,0-3.5-0.6-4.6-1.7c-1.1-1.1-1.7-2.7-1.7-4.9v-8.4h3.2v8.3c0,1.2,0.3,2.1,0.8,2.7
		c0.5,0.6,1.3,0.9,2.3,0.9c1,0,1.8-0.3,2.3-0.9c0.5-0.6,0.8-1.5,0.8-2.6v-8.4h3.2v8.3c0,2.2-0.6,3.8-1.7,5
		C209.4,26.2,207.9,26.8,205.9,26.8L205.9,26.8z"/>
	<polygon class="st0" points="215.4,26.6 215.4,11.9 218.9,11.9 222.6,18.1 226.4,11.9 229.8,11.9 229.8,26.6 226.7,26.6 226.7,17
		222.6,23.2 222.6,23.2 218.6,17 218.6,26.6 	"/>
	<polygon class="st0" points="233.3,26.6 233.3,11.9 236.7,11.9 240.5,18.1 244.3,11.9 247.7,11.9 247.7,26.6 244.5,26.6 244.5,17
		240.5,23.2 240.4,23.2 236.4,17 236.4,26.6 	"/>
	<rect x="251" y="11.9" class="st0" width="3.2" height="14.7"/>
	<polygon class="st0" points="261.1,26.6 261.1,14.8 256.7,14.8 256.7,11.9 268.7,11.9 268.7,14.8 264.3,14.8 264.3,26.6 	"/>
	<g>
		<path class="st0" d="M108.1,57.1V43.6h6.1c1.7,0,3,0.5,3.9,1.4c0.8,0.8,1.1,1.8,1.1,3.1c0,2.1-0.9,3.5-2.8,4.2l3.2,4.8h-3.4
			l-2.9-4.3H111v4.3H108.1z M111,50.2h3c0.7,0,1.3-0.2,1.6-0.5c0.4-0.4,0.6-0.8,0.6-1.4c0-0.6-0.2-1.1-0.6-1.4
			c-0.4-0.3-1-0.5-1.7-0.5H111V50.2z"/>
	</g>
	<g>
		<path class="st0" d="M122,57.1V43.6h10v2.7h-7.1V49h6.3v2.7h-6.3v2.8h7.2v2.7H122z"/>
	</g>
	<g>
		<path class="st0" d="M134.8,57.1V43.6h3.1l3.5,5.7l3.5-5.7h3.1v13.6h-2.9v-8.8l-3.7,5.8h-0.1l-3.7-5.7v8.8H134.8z"/>
	</g>
	<g>
		<path class="st0" d="M162.6,55.3c-1.3,1.4-3,2-5,2c-2,0-3.7-0.7-5-2c-1.3-1.4-2-3-2-5c0-1.9,0.7-3.6,2-5c1.3-1.4,3-2,5-2
			c2,0,3.7,0.7,5,2c1.3,1.4,2,3,2,5C164.7,52.3,164,54,162.6,55.3z M154.8,53.4c0.8,0.8,1.7,1.2,2.9,1.2c1.2,0,2.1-0.4,2.9-1.2
			c0.7-0.8,1.1-1.8,1.1-3c0-1.2-0.4-2.2-1.1-3c-0.8-0.8-1.7-1.2-2.9-1.2c-1.2,0-2.1,0.4-2.9,1.2c-0.7,0.8-1.1,1.8-1.1,3
			C153.6,51.6,154,52.6,154.8,53.4z"/>
	</g>
	<g>
		<path class="st0" d="M170.1,57.1V46.3h-4v-2.7h11v2.7h-4v10.8H170.1z"/>
	</g>
	<g>
		<path class="st0" d="M179.3,57.1V43.6h10v2.7h-7.1V49h6.3v2.7h-6.3v2.8h7.2v2.7H179.3z"/>
	</g>
	<g>
		<path class="st0" d="M198.8,57.1V43.6h10v2.7h-7.1V49h6.3v2.7h-6.3v2.8h7.2v2.7H198.8z"/>
	</g>
	<g>
		<path class="st0" d="M211.6,57.1V43.6h5.2c2.1,0,3.8,0.6,5.1,1.9c1.3,1.3,2,2.9,2,4.9c0,1.9-0.7,3.6-2,4.8c-1.3,1.3-3,1.9-5.1,1.9
			H211.6z M214.5,54.5h2.3c1.2,0,2.2-0.4,2.9-1.1c0.7-0.8,1.1-1.7,1.1-3c0-1.2-0.4-2.2-1.1-2.9c-0.7-0.8-1.7-1.1-2.9-1.1h-2.3V54.5z
			"/>
	</g>
	<g>
		<path class="st0" d="M226.1,57.1V43.6h2.9v13.6H226.1z"/>
	</g>
	<g>
		<path class="st0" d="M235.7,57.1V46.3h-4v-2.7h11v2.7h-4v10.8H235.7z"/>
	</g>
	<g>
		<path class="st0" d="M245,57.1V43.6h2.9v13.6H245z"/>
	</g>
	<g>
		<path class="st0" d="M263,55.3c-1.3,1.4-3,2-5,2c-2,0-3.7-0.7-5-2c-1.3-1.4-2-3-2-5c0-1.9,0.7-3.6,2-5c1.3-1.4,3-2,5-2
			c2,0,3.7,0.7,5,2c1.3,1.4,2,3,2,5C265,52.3,264.4,54,263,55.3z M255.1,53.4c0.8,0.8,1.7,1.2,2.9,1.2c1.2,0,2.1-0.4,2.9-1.2
			s1.1-1.8,1.1-3c0-1.2-0.4-2.2-1.1-3c-0.8-0.8-1.7-1.2-2.9-1.2c-1.2,0-2.1,0.4-2.9,1.2c-0.7,0.8-1.1,1.8-1.1,3
			C254,51.6,254.4,52.6,255.1,53.4z"/>
	</g>
	<g>
		<path class="st0" d="M267.4,57.1V43.6h2.7l6.2,8.3v-8.3h2.9v13.6h-2.5l-6.4-8.6v8.6H267.4z"/>
	</g>
	<path class="st1" d="M273.1,16.5V15l2.9-2.4c0.6-0.5,1-0.9,1.2-1.2c0.2-0.3,0.3-0.6,0.3-1c0-0.4-0.1-0.6-0.3-0.9
		c-0.2-0.2-0.5-0.3-0.8-0.3s-0.6,0.1-0.9,0.3c-0.3,0.2-0.6,0.5-0.9,0.9l-1.3-1.1c0.5-0.6,0.9-1.1,1.4-1.4c0.5-0.3,1.1-0.4,1.8-0.4
		c0.9,0,1.6,0.3,2.2,0.8c0.6,0.5,0.8,1.2,0.8,2c0,0.5-0.1,0.9-0.3,1.3c-0.2,0.4-0.4,0.7-0.7,1c-0.3,0.3-0.7,0.7-1.3,1.1l-1.4,1.1
		h3.8v1.7H273.1z"/>
	<path class="st2" d="M279.6,33.6H99l-2.7,19.5l-2.7-19.5h-3.4l3.5,25.9c1.7,0,3.4,0,5.1,0l3.2-22.7h177.6V33.6z"/>
</g>
<g>
	<path class="st2" d="M19.3,20.3c-1-4.3-2.6-13.7,1.7-16.2l0,0c4.3-2.5,11.7,3.6,14.9,6.7c-2.2,2.3-4.4,5-6.5,7.9
		C25.8,19,22.4,19.6,19.3,20.3L19.3,20.3z M34,18.4c1.4-1.8,2.8-3.5,4.3-5.1c1.4,1.6,2.9,3.3,4.3,5.1C39.7,18.2,36.9,18.2,34,18.4
		L34,18.4z M31.3,22.1c4.6-0.3,9.3-0.3,14,0c2.4,3.4,4.5,7.1,6.4,10.8c0.2,0.4,0.4,0.8,0.6,1.2c-0.2,0.4-0.4,0.8-0.6,1.2
		c-1.9,3.7-4,7.4-6.4,10.8c-4.6,0.3-9.3,0.3-14,0c-2.6-3.8-5-7.9-7-12.1C26.4,30,28.7,25.9,31.3,22.1L31.3,22.1z M51.7,42.8
		c0.9-1.5,1.7-3,2.5-4.5c0.9,2.1,1.7,4.2,2.3,6.2c-1.5,0.3-3.1,0.7-4.8,0.9c-0.6,0.1-1.2,0.2-1.8,0.3C50.5,44.8,51.1,43.8,51.7,42.8
		L51.7,42.8z M20.2,23.7c2-0.5,4.2-0.9,6.5-1.2c-1.5,2.4-3,4.9-4.3,7.4C21.6,27.8,20.8,25.7,20.2,23.7L20.2,23.7z M40.8,57.6
		c2.2-2.3,4.4-5,6.5-7.9c1.5-0.1,3-0.3,4.4-0.5c2-0.3,3.9-0.7,5.7-1.1c1,4.3,2.6,13.7-1.7,16.2l0,0c-1.1,0.6-2.4,0.7-4,0.3
		c-2.3-0.6-5-2.1-8-4.5C42.7,59.3,41.8,58.5,40.8,57.6L40.8,57.6z M22.5,38.3c1.3,2.5,2.7,5,4.3,7.4c-2.3-0.3-4.5-0.7-6.5-1.2
		C20.8,42.6,21.6,40.5,22.5,38.3L22.5,38.3z M19.3,48c3.1,0.7,6.5,1.3,10.1,1.6c2.1,3,4.3,5.6,6.4,7.9c-3.2,3-10.6,9.1-14.9,6.6l0,0
		C16.6,61.7,18.2,52.3,19.3,48L19.3,48z M3.6,34.2c0-4.9,9-8.3,13.2-9.5c0.9,3,2.2,6.3,3.7,9.5c-1.5,3.3-2.7,6.5-3.7,9.5
		C12.6,42.5,3.6,39.1,3.6,34.2L3.6,34.2z M15.8,47.1c-1.5,6-2.8,16.6,3.3,20.2l0,0c6.2,3.6,14.7-2.9,19.1-7.2c1.1,1,2.1,2,3.2,2.8
		c3.6,2.9,7.1,4.7,10.2,5.3c2.2,0.4,4.1,0.1,5.8-0.8l0,0c6.2-3.6,4.8-14.2,3.3-20.2c5.9-1.7,15.8-5.8,15.8-13
		c0-7.1-9.9-11.2-15.8-13c1.5-6,2.8-16.6-3.3-20.2l0,0c-1.8-1-3.8-1.2-5.8-0.9c-5,0.9-10.2,5-13.3,8.1C33.9,4,25.4-2.5,19.2,1l0,0
		c-6.2,3.6-4.8,14.2-3.3,20.2C9.9,22.9,0,27,0,34.2C0,41.3,9.9,45.4,15.8,47.1L15.8,47.1z M51.7,25.5c-0.6-1-1.2-2-1.8-2.9
		c0.6,0.1,1.2,0.2,1.8,0.3c1.7,0.3,3.2,0.6,4.8,0.9c-0.6,2-1.4,4.1-2.3,6.2C53.4,28.5,52.5,27,51.7,25.5L51.7,25.5z M40.8,10.8
		c2.3-2.2,6.9-6.1,10.8-7c1.5-0.3,2.9-0.3,4,0.4l0,0C60,6.6,58.4,16,57.4,20.3c-1.8-0.4-3.7-0.8-5.7-1.1c-1.4-0.2-2.9-0.4-4.4-0.5
		C45.2,15.8,43,13.1,40.8,10.8L40.8,10.8z M59.9,43.7c-0.9-3-2.2-6.3-3.7-9.5c1.5-3.3,2.7-6.5,3.7-9.5c4.2,1.2,13.2,4.6,13.2,9.5
		S64.1,42.5,59.9,43.7L59.9,43.7z M34.1,49.9c2.8,0.1,5.7,0.1,8.5,0c-1.4,1.8-2.8,3.5-4.3,5.1C36.9,53.5,35.5,51.8,34.1,49.9
		L34.1,49.9z"/>
	<path class="st2" d="M38.3,39.6c3,0,5.4-2.4,5.4-5.4s-2.4-5.4-5.4-5.4c-3,0-5.4,2.4-5.4,5.4S35.3,39.6,38.3,39.6L38.3,39.6z"/>
</g>
</svg>
