<?xml version="1.0" encoding="utf-8"?>
<!-- Generator: Adobe Illustrator 23.0.5, SVG Export Plug-In . SVG Version: 6.00 Build 0)  -->
<svg version="1.1" id="Layer_1" xmlns="http://www.w3.org/2000/svg" xmlns:xlink="http://www.w3.org/1999/xlink" x="0px" y="0px"
	 viewBox="0 0 373.84 276.21" style="enable-background:new 0 0 373.84 276.21;" xml:space="preserve">
<style type="text/css">
	.st0{fill-rule:evenodd;clip-rule:evenodd;fill:url(#SVGID_1_);}
	.st1{fill-rule:evenodd;clip-rule:evenodd;fill:#E3FE4B;}
	.st2{fill:#FDFDFD;}
	.st3{fill:#DAFF3C;}
	.st4{fill-rule:evenodd;clip-rule:evenodd;fill:#DAFF3C;}
</style>
<linearGradient id="SVGID_1_" gradientUnits="userSpaceOnUse" x1="568.7784" y1="-2573.04" x2="649.9319" y2="-2713.5974" gradientTransform="matrix(1 0 0 -1 -424.03 -2570.8799)">
	<stop  offset="0" style="stop-color:#E3FE4B"/>
	<stop  offset="1" style="stop-color:#CCFF00"/>
</linearGradient>
<path class="st0" d="M144.95,43.07c-2.23-9.02-5.6-29.07,3.54-34.32l0,0c9.1-5.21,24.76,7.71,31.58,14.15
	c-4.92,5.31-9.49,10.92-13.69,16.82c-7.21,0.67-14.37,1.81-21.43,3.4L144.95,43.07L144.95,43.07z M176.26,39
	c2.99-3.9,6.04-7.5,9.07-10.76c3.21,3.43,6.23,7.02,9.07,10.76C188.36,38.73,182.33,38.73,176.26,39z M170.53,46.91
	c9.85-0.74,19.74-0.74,29.59,0c5.04,7.32,9.57,14.99,13.54,22.94c0.44,0.87,0.87,1.75,1.29,2.59c-0.4,0.87-0.84,1.75-1.29,2.63
	c-3.98,7.95-8.5,15.62-13.52,22.95c-9.85,0.74-19.74,0.74-29.59,0c-5.57-8.14-10.51-16.68-14.79-25.57
	c4.27-8.88,9.21-17.43,14.76-25.57L170.53,46.91z M213.67,90.81c1.85-3.1,3.61-6.26,5.26-9.43c1.89,4.54,3.54,8.95,4.82,13.23
	c-3.21,0.74-6.57,1.38-10.08,1.92c-1.25,0.2-2.52,0.36-3.81,0.54c1.31-2.05,2.59-4.14,3.81-6.22V90.81z M147,50.34
	c4.35-0.98,8.99-1.81,13.89-2.42c-3.26,5.08-6.31,10.33-9.07,15.68c-1.89-4.54-3.54-8.98-4.82-13.25L147,50.34L147,50.34z
	 M190.62,122.07c4.9-5.31,9.45-10.93,13.62-16.83c3.21-0.31,6.31-0.67,9.34-1.18c4.21-0.6,8.25-1.38,12.1-2.25
	c2.23,9.05,5.6,29.11-3.54,34.35l0,0c-2.63,1.31-5.65,1.58-8.46,0.77c-4.86-1.18-10.61-4.48-16.88-9.43
	c-2.03-1.65-4.04-3.43-6.13-5.41L190.62,122.07z M151.8,81.37c2.76,5.35,5.8,10.61,9.07,15.68c-4.89-0.64-9.54-1.49-13.89-2.45
	C148.29,90.33,149.91,85.88,151.8,81.37z M144.96,101.86c7.07,1.59,14.22,2.72,21.43,3.39c4.19,5.89,8.75,11.51,13.65,16.82
	c-6.74,6.43-22.4,19.38-31.55,14.15l0,0c-9.14-5.25-5.73-25.3-3.54-34.35L144.96,101.86L144.96,101.86z M111.67,72.49
	c0-10.53,19.07-17.68,28.01-20.25c2.15,6.91,4.74,13.68,7.78,20.25c-3.04,6.56-5.64,13.31-7.78,20.22
	C130.75,90.08,111.67,82.98,111.67,72.49z M137.61,99.98c-3.1,12.68-6.04,35.15,7.07,42.76l0,0c13.11,7.57,31.17-6.26,40.61-15.32
	c2.26,2.16,4.51,4.1,6.71,5.89c7.62,6.12,15.03,10.02,21.6,11.18c4.19,0.9,8.57,0.27,12.33-1.78l0,0
	c13.11-7.57,10.17-30.07,7.07-42.76c12.57-3.67,33.6-12.38,33.6-27.49s-21.02-23.84-33.56-27.48c3.1-12.68,6.04-35.19-7.07-42.76
	l0,0c-3.75-2.06-8.11-2.71-12.29-1.85c-10.51,1.89-21.57,10.7-28.29,17.13c-9.43-9.05-27.5-22.85-40.65-15.32l0,0
	c-13.11,7.53-10.17,30.07-7.07,42.76c-12.57,3.63-33.6,12.34-33.6,27.49s21.03,23.82,33.56,27.49L137.61,99.98z M213.67,54.1
	c-1.18-2.09-2.5-4.17-3.81-6.19c1.31,0.17,2.56,0.34,3.81,0.54c3.54,0.54,6.87,1.18,10.08,1.89c-1.31,4.27-2.93,8.71-4.82,13.25
	c-1.65-3.2-3.4-6.34-5.26-9.43V54.1z M190.68,22.85c4.89-4.72,14.59-12.81,22.99-14.86c2.85-0.87,5.92-0.59,8.56,0.78l0,0
	c9.14,5.25,5.73,25.3,3.54,34.32c-3.84-0.87-7.89-1.62-12.1-2.25c-3.03-0.44-6.13-0.84-9.34-1.18c-4.19-5.89-8.75-11.51-13.65-16.82
	V22.85z M231.05,92.7c-2.15-6.9-4.75-13.66-7.78-20.22c3.04-6.57,5.64-13.34,7.78-20.25c8.94,2.63,28.01,9.72,28.01,20.25
	S239.99,90.08,231.05,92.7z M176.32,105.92c6.04,0.27,12.06,0.27,18.13,0c-2.99,3.9-6.04,7.5-9.07,10.8
	C182.32,113.42,179.29,109.82,176.32,105.92z"/>
<path class="st1" d="M185.38,83.88c6.33-0.02,11.44-5.17,11.42-11.49c-0.02-6.33-5.17-11.44-11.49-11.42
	c-6.32,0.02-11.44,5.16-11.42,11.48C173.91,78.77,179.05,83.89,185.38,83.88z"/>
<g>
	<path class="st2" d="M38.88,213.56v-28.08h12.86c3.57,0,6.29,0.94,8.2,2.83c1.6,1.63,2.4,3.8,2.4,6.51c0,4.31-2,7.22-6,8.7
		l6.86,10.05h-7.23l-6.12-8.99h-4.77v8.99H38.88z M45.08,199.12h6.26c1.52,0,2.66-0.37,3.49-1.11c0.86-0.74,1.26-1.71,1.26-2.94
		c0-1.31-0.43-2.31-1.29-3c-0.86-0.68-2.06-1.03-3.57-1.03h-6.15V199.12z"/>
	<polygon class="st2" points="67.66,213.56 67.66,185.48 88.88,185.48 88.88,190.96 73.81,190.96 73.81,196.67 87.07,196.67
		87.07,202.15 73.81,202.15 73.81,208.05 89.08,208.05 89.08,213.56 	"/>
	<path class="st2" d="M92.45,213.56l12.06-28.28h5.69l12.06,28.28h-6.46l-2.57-6.31h-11.89l-2.57,6.31H92.45z M103.54,201.8h7.49
		l-3.74-9.1L103.54,201.8z"/>
	<path class="st2" d="M137.5,214.02c-4.12,0-7.55-1.4-10.29-4.17c-2.77-2.8-4.15-6.25-4.15-10.33s1.4-7.51,4.15-10.33
		c2.77-2.8,6.26-4.2,10.52-4.2c2.46,0,4.49,0.4,6.17,1.17c1.66,0.8,3.23,1.91,4.72,3.4l-3.69,4.25c-1.2-1.08-2.34-1.88-3.4-2.4
		c-1.06-0.49-2.32-0.74-3.83-0.74c-2.34,0-4.32,0.86-5.83,2.57c-1.54,1.68-2.32,3.77-2.32,6.28c0,2.45,0.77,4.54,2.32,6.25
		c1.52,1.71,3.49,2.57,5.83,2.57c1.52,0,2.8-0.29,3.89-0.8c1.11-0.54,2.29-1.37,3.52-2.48l3.92,4.2c-1.52,1.63-3.17,2.83-4.95,3.62
		C142.31,213.65,140.1,214.02,137.5,214.02L137.5,214.02z"/>
	<polygon class="st2" points="160.83,213.56 160.83,191.16 152.25,191.16 152.25,185.48 175.55,185.48 175.55,191.16 167.01,191.16
		167.01,213.56 	"/>
	<path class="st2" d="M202.37,213.96c-4.6,0-8.58-1.51-11.95-4.51l3.66-4.37c2.77,2.28,5.57,3.4,8.4,3.4c1.26,0,2.26-0.23,2.97-0.71
		c0.71-0.49,1.09-1.14,1.09-2c0-0.8-0.37-1.46-1.11-1.94c-0.74-0.51-2.26-1.06-4.55-1.63c-1.6-0.4-2.92-0.8-3.89-1.2
		c-1-0.37-1.94-0.88-2.83-1.54c-0.91-0.63-1.57-1.46-1.97-2.43c-0.43-0.97-0.63-2.14-0.63-3.51c0-2.54,0.91-4.59,2.74-6.14
		c1.83-1.54,4.2-2.31,7.09-2.31c4,0,7.49,1.17,10.46,3.57l-3.23,4.65c-2.66-1.86-5.09-2.77-7.32-2.77c-1.14,0-2.03,0.23-2.66,0.68
		c-0.63,0.49-0.94,1.08-0.94,1.83c0,0.91,0.37,1.6,1.17,2.05c0.77,0.46,2.4,1,4.89,1.66c3.06,0.8,5.32,1.83,6.75,3.08
		c1.46,1.26,2.17,3.05,2.17,5.42c0,2.71-0.94,4.85-2.83,6.39C207.97,213.19,205.48,213.96,202.37,213.96L202.37,213.96z"/>
	<path class="st2" d="M229.81,213.99c-3.83,0-6.8-1.06-8.95-3.2c-2.14-2.11-3.23-5.22-3.23-9.28v-16.04h6.2v15.87
		c0,2.25,0.51,3.97,1.57,5.17c1.06,1.2,2.54,1.77,4.49,1.77c1.92,0,3.43-0.57,4.49-1.71s1.57-2.83,1.57-5.02v-16.07h6.2v15.84
		c0,4.17-1.11,7.33-3.29,9.48S233.67,213.99,229.81,213.99L229.81,213.99z"/>
	<polygon class="st2" points="248.45,213.56 248.45,185.48 255.14,185.48 262.52,197.35 269.92,185.48 276.58,185.48 276.58,213.56
		270.43,213.56 270.43,195.21 262.52,207.2 262.37,207.2 254.54,195.33 254.54,213.56 	"/>
	<polygon class="st2" points="283.33,213.56 283.33,185.48 290.02,185.48 297.39,197.35 304.8,185.48 311.46,185.48 311.46,213.56
		305.31,213.56 305.31,195.21 297.39,207.2 297.25,207.2 289.42,195.33 289.42,213.56 	"/>
	<rect x="317.92" y="185.48" class="st2" width="6.2" height="28.08"/>
	<polygon class="st2" points="337.7,213.56 337.7,191.16 329.12,191.16 329.12,185.48 352.45,185.48 352.45,191.16 343.88,191.16
		343.88,213.56 	"/>
	<g>
		<path class="st2" d="M38.79,271.93v-25.87h11.85c3.28,0,5.8,0.88,7.55,2.62c1.48,1.48,2.22,3.47,2.22,5.99
			c0,3.97-1.85,6.64-5.55,8.02l6.33,9.24h-6.66l-5.63-8.28h-4.41v8.28H38.79z M44.49,258.63h5.78c1.38,0,2.46-0.34,3.22-1.02
			c0.76-0.68,1.15-1.58,1.15-2.72c0-1.21-0.4-2.13-1.18-2.75c-0.79-0.63-1.89-0.94-3.29-0.94h-5.66V258.63z"/>
	</g>
	<g>
		<path class="st2" d="M65.82,271.93v-25.87h19.55v5.06H71.48v5.25H83.7v5.06H71.48v5.43h14.07v5.06H65.82z"/>
	</g>
	<g>
		<path class="st2" d="M90.82,271.93v-25.87h6.15l6.81,10.94l6.81-10.94h6.15v25.87h-5.66v-16.89l-7.29,11.05h-0.15l-7.22-10.94
			v16.78H90.82z"/>
	</g>
	<g>
		<path class="st2" d="M145.3,268.48c-2.63,2.6-5.92,3.9-9.87,3.9c-3.95,0-7.23-1.29-9.83-3.88c-2.6-2.59-3.91-5.75-3.91-9.5
			c0-3.72,1.31-6.88,3.94-9.48s5.92-3.9,9.87-3.9c3.95,0,7.22,1.29,9.83,3.88c2.6,2.59,3.91,5.75,3.91,9.5
			C149.25,262.72,147.93,265.88,145.3,268.48z M129.88,264.76c1.48,1.58,3.36,2.37,5.63,2.37c2.27,0,4.13-0.78,5.59-2.35
			c1.46-1.56,2.18-3.49,2.18-5.78c0-2.27-0.74-4.19-2.22-5.77c-1.48-1.58-3.36-2.37-5.63-2.37c-2.27,0-4.13,0.78-5.59,2.35
			c-1.46,1.57-2.18,3.49-2.18,5.78C127.66,261.26,128.4,263.19,129.88,264.76z"/>
	</g>
	<g>
		<path class="st2" d="M159.9,271.93v-20.62h-7.89v-5.25h21.47v5.25h-7.89v20.62H159.9z"/>
	</g>
	<g>
		<path class="st2" d="M177.87,271.93v-25.87h19.55v5.06h-13.88v5.25h12.22v5.06h-12.22v5.43h14.07v5.06H177.87z"/>
	</g>
	<g>
		<path class="st2" d="M215.9,271.93v-25.87h19.55v5.06h-13.88v5.25h12.22v5.06h-12.22v5.43h14.07v5.06H215.9z"/>
	</g>
	<g>
		<path class="st2" d="M240.91,271.93v-25.87h10.11c4.05,0,7.35,1.23,9.92,3.68c2.57,2.45,3.85,5.54,3.85,9.26
			c0,3.7-1.29,6.78-3.87,9.24c-2.58,2.46-5.88,3.7-9.9,3.7H240.91z M246.61,266.79h4.41c2.34,0,4.23-0.72,5.66-2.16
			c1.43-1.44,2.15-3.32,2.15-5.64c0-2.29-0.72-4.16-2.17-5.62s-3.33-2.18-5.65-2.18h-4.41V266.79z"/>
	</g>
	<g>
		<path class="st2" d="M269.19,271.93v-25.87h5.7v25.87H269.19z"/>
	</g>
	<g>
		<path class="st2" d="M287.96,271.93v-20.62h-7.89v-5.25h21.47v5.25h-7.89v20.62H287.96z"/>
	</g>
	<g>
		<path class="st2" d="M306.22,271.93v-25.87h5.7v25.87H306.22z"/>
	</g>
	<g>
		<path class="st2" d="M341.41,268.48c-2.63,2.6-5.92,3.9-9.87,3.9c-3.95,0-7.23-1.29-9.83-3.88c-2.6-2.59-3.91-5.75-3.91-9.5
			c0-3.72,1.31-6.88,3.94-9.48s5.92-3.9,9.87-3.9c3.95,0,7.22,1.29,9.83,3.88c2.6,2.59,3.91,5.75,3.91,9.5
			C345.35,262.72,344.04,265.88,341.41,268.48z M325.99,264.76c1.48,1.58,3.36,2.37,5.63,2.37c2.27,0,4.13-0.78,5.59-2.35
			c1.46-1.56,2.18-3.49,2.18-5.78c0-2.27-0.74-4.19-2.22-5.77c-1.48-1.58-3.36-2.37-5.63-2.37c-2.27,0-4.13,0.78-5.59,2.35
			c-1.46,1.57-2.18,3.49-2.18,5.78C323.77,261.26,324.51,263.19,325.99,264.76z"/>
	</g>
	<g>
		<path class="st2" d="M349.97,271.93v-25.87h5.26l12.14,15.93v-15.93H373v25.87h-4.85l-12.55-16.45v16.45H349.97z"/>
	</g>
	<path class="st3" d="M361.14,194.38v-2.97l5.69-4.65c1.11-0.91,1.89-1.66,2.29-2.23c0.43-0.54,0.66-1.17,0.66-1.86
		s-0.23-1.23-0.66-1.63c-0.4-0.4-0.97-0.57-1.63-0.57s-1.23,0.17-1.72,0.51c-0.51,0.34-1.11,0.94-1.77,1.77l-2.63-2.11
		c0.89-1.23,1.8-2.11,2.74-2.68c0.97-0.57,2.17-0.86,3.6-0.86c1.77,0,3.2,0.49,4.26,1.46c1.09,0.97,1.6,2.25,1.6,3.85
		c0,0.91-0.17,1.74-0.51,2.48c-0.37,0.74-0.83,1.4-1.4,1.94c-0.57,0.57-1.43,1.28-2.54,2.17l-2.77,2.14h7.4v3.22H361.14z"/>
	<path class="st4" d="M373.75,226.95H20.87l-5.23,37.27l-5.23-37.27H3.74l6.92,49.43c3.32,0,6.63,0,9.95,0l6.17-43.41h346.97V226.95
		z"/>
</g>
</svg>
