<svg id="Layer_1" data-name="Layer 1" xmlns="http://www.w3.org/2000/svg" viewBox="0 0 1944.62 380.37">
  <defs>
    <style>
      .cls-1{fill:#282826;fill-rule:evenodd}
    </style>
  </defs>
  <path class="cls-1" d="M1728.65 3293.73a100.23 100.23 0 00-60 0c-2.89-13.21-3.86-26.94-3.86-40.47 21.84-6.91 30.13-11.22 33.88-13.33 3.74 2.11 12 6.42 33.85 13.33 0 1.26.34 21.15-3.89 40.47zM842.44 3246c0 1.66-.49 26.68 5.23 50.63-.91.34-1.83.71-2.74 1.08 3.12 11.87 6.75 23.72 14.44 33.56 14.44 18.49 39.28 18.49 53.72 0 7.66-9.85 11.32-21.69 14.41-33.56a77.4 77.4 0 00-2.8-1.08c5.75-23.94 5.32-49 5.32-50.63-28.22-9-38.94-14.5-43.8-17.24-4.83 2.74-15.55 8.28-43.77 17.24zm48.31 17.15l8.12 8.13-8.12 8.11 5.43 5.45 13.58-13.56-13.58-13.56zm-18.41 8.13l-8.12 8.11 5.43 5.45 13.58-13.56-13.58-13.56-5.43 5.42zm-17.15 31.59a96.68 96.68 0 0162.06 0c-.26.88-.54 1.74-.8 2.6l-.4-.66-9.12 2.4-5.46-5.54-8.18 3.6-6.95-4.65-6.95 4.65-8.18-3.6-5.46 5.54-9.12-2.4-.57.94c-.31-.94-.6-1.91-.89-2.88zm61-9.16a100.14 100.14 0 00-59.95 0 188.4 188.4 0 01-3.86-40.47c21.81-6.91 30.1-11.22 33.85-13.33 3.74 2.11 12 6.42 33.88 13.33 0 1.26.31 21.15-3.92 40.47zM867.05 3312l5.15-5.19 7.63 3.37 6.52-4.4 6.52 4.4 7.63-3.37 5.15 5.19 8.4-2.23.54.94a71.25 71.25 0 01-2.92 6.68l-4.75 1.26-5.46-5.54-8.18 3.6-6.95-4.65-6.95 4.65-8.18-3.6-5.46 5.54-5.06-1.34c-1-2-1.92-4.11-2.77-6.31l.71-1.23zm12.78 9.59l6.52-4.4 6.52 4.4 7.63-3.37 5.15 5.19 3.12-.83a37.53 37.53 0 01-4 5.28l-3.32-3.34-8.18 3.6-6.95-4.65-6.95 4.65-8.18-3.6-3.46 3.48a39.12 39.12 0 01-4.15-5.51l3.43.91 5.15-5.19zm13 11.42l7.63-3.37 1.2 1.2c-9.32 7.68-21.5 7.71-30.82.11l1.32-1.31 7.63 3.37 6.52-4.4zm139.45-39.27a100.14 100.14 0 00-59.95 0c-2.89-13.21-3.86-26.94-3.86-40.47 21.81-6.91 30.1-11.22 33.85-13.33 3.74 2.11 12 6.42 33.88 13.33 0 1.26.34 21.15-3.92 40.47zm-21.76-22l-5.09 5.08 5.46 5.45 5.09-5.08 5.09 5.08 5.46-5.45-5.12-5.08 5.12-5.08-5.46-5.42-5.09 5.08-5.09-5.08-5.46 5.42zm-33-5.08l5.09 5.08-5.09 5.08 5.46 5.45 5.09-5.08 5.09 5.08 5.43-5.45-5.09-5.08 5.09-5.08-5.43-5.42-5.09 5.08-5.09-5.08zM958.59 3246c0 1.66-.46 26.68 5.23 50.63l-2.74 1.08c3.12 11.87 6.75 23.72 14.44 33.56 14.44 18.49 39.28 18.49 53.72 0 7.66-9.85 11.32-21.69 14.41-33.56a77.4 77.4 0 00-2.8-1.08c5.75-23.94 5.32-49 5.32-50.63-28.22-9-38.94-14.5-43.8-17.24-4.83 2.74-15.55 8.28-43.77 17.24zm17 68.72l16.44-16.41c2.92-.31 5.83-.49 8.75-.54l-22.44 22.4c-1-1.74-1.89-3.57-2.74-5.45zm5.09 9.19l21.64-21.63 21.67 21.63a37.67 37.67 0 01-3.37 4.28l-18.3-18.27-18.27 18.24a35 35 0 01-3.37-4.25zm45.63-3.74l-22.44-22.4c2.94.06 5.86.23 8.78.54l16.44 16.41a66.22 66.22 0 01-2.77 5.45zm-55-17.29a87.33 87.33 0 0113.66-3.57l-11.15 11.1c-.91-2.43-1.74-5-2.52-7.53zm15.89 28.23l15.12-15.13 15.15 15.13a29.3 29.3 0 01-4.66 3l-10.49-10.47-10.46 10.47a29.3 29.3 0 01-4.66-3zm15.12-1.43l6.12 6.11a23.31 23.31 0 01-12.21 0zm28.5-19.26l-11.12-11.1a87.33 87.33 0 0113.66 3.57c-.77 2.6-1.6 5.11-2.54 7.53zm117.52-16.7a100.23 100.23 0 00-60 0c-2.89-13.21-3.86-26.94-3.86-40.47 21.84-6.91 30.13-11.22 33.88-13.33 3.74 2.11 12 6.42 33.88 13.33 0 1.26.31 21.15-3.92 40.47zm-20.27 32.82a2.23 2.23 0 102.23 2.23 2.23 2.23 0 00-2.23-2.23zm-9.69-.46a2.23 2.23 0 102.23 2.23 2.23 2.23 0 00-2.23-2.23zm-9.69.46a2.23 2.23 0 102.23 2.23 2.23 2.23 0 00-2.23-2.23zm-9.32-10.1a2.23 2.23 0 102.23 2.23 2.23 2.23 0 00-2.23-2.23zm9.32-1.31a2.23 2.23 0 102.23 2.23 2.23 2.23 0 00-2.23-2.23zm9.69-.46a2.23 2.23 0 102.23 2.23 2.23 2.23 0 00-2.23-2.23zm9.69.46a2.23 2.23 0 102.23 2.23 2.23 2.23 0 00-2.23-2.23zm9.32 1.31a2.23 2.23 0 102.23 2.23 2.23 2.23 0 00-2.23-2.23zm0-11.42a2.23 2.23 0 102.23 2.23 2.23 2.23 0 00-2.23-2.23zm-9.32-1.31a2.23 2.23 0 102.23 2.23 2.23 2.23 0 00-2.23-2.23zm-9.69-.46a2.23 2.23 0 102.23 2.23 2.23 2.23 0 00-2.23-2.23zm-9.69.46a2.23 2.23 0 102.23 2.23 2.23 2.23 0 00-2.23-2.23zm-9.32 1.31a2.23 2.23 0 102.23 2.23 2.23 2.23 0 00-2.23-2.23zm27.84-33.16l-5.09 5.08 5.46 5.45 5.09-5.08 5.09 5.08 5.46-5.45-5.12-5.08 5.12-5.08-5.46-5.45-5.09 5.11-5.09-5.11-5.46 5.45zm-35-.06a11.32 11.32 0 0011.35 11.3 13 13 0 001.49-.09 11.33 11.33 0 00-.49-22.52h-1a11.33 11.33 0 00-11.35 11.33zm15 0a3.6 3.6 0 11-3.6-3.6 3.6 3.6 0 013.6 3.6zm-32.56-25.8c0 1.66-.46 26.68 5.26 50.63-.91.34-1.83.71-2.74 1.08 3.12 11.87 6.75 23.72 14.44 33.56 14.44 18.49 39.25 18.49 53.69 0 7.69-9.85 11.32-21.69 14.44-33.56-.94-.37-1.86-.74-2.8-1.08 5.75-23.94 5.32-49 5.29-50.63-28.22-9-38.94-14.5-43.77-17.24-4.83 2.74-15.55 8.28-43.8 17.24zm12.78 56.88a96.59 96.59 0 0162 0c-.49 1.68-1 3.31-1.57 4.94a2.16 2.16 0 00-1.57-.68 2.24 2.24 0 000 4.48h.17c-2.26 5.71-5.35 11.76-9.52 16.32a2.2 2.2 0 00-1.72 1.74c-9.92 9.28-23.7 9.28-33.62 0a2.2 2.2 0 00-1.72-1.74c-4.17-4.57-7.26-10.62-9.52-16.32h.17a2.24 2.24 0 000-4.48 2.12 2.12 0 00-1.57.68 86.18 86.18 0 01-1.57-4.94zm132.27-43a11.33 11.33 0 100 22.66 12.55 12.55 0 001.49-.11 11.33 11.33 0 00-.49-22.52h-1zm20.15 65.58a8 8 0 002.92 1.28 9.17 9.17 0 003.32-.8c3-1.14 5.6-1.83 8.4.17l.11-.14a40.54 40.54 0 002.74-4 9.79 9.79 0 01-3.92-2.63 5.83 5.83 0 00-2.34-1.63 7.39 7.39 0 00-3.49.77c-4.32 1.6-5.95 1.54-9.92-.83-2.8-1.68-3.23-1.68-6.06 0-4 2.37-5.6 2.43-9.92.83a7.33 7.33 0 00-3.49-.77 5.83 5.83 0 00-2.34 1.63 9.19 9.19 0 01-4.17 2.68 39.46 39.46 0 002.72 3.91l.2.26c2.86-2.11 5.46-1.46 8.58-.29a9.17 9.17 0 003.32.8 8 8 0 002.92-1.28c4.23-2.54 6.23-2.54 10.46 0zm11.72 3.88a1.82 1.82 0 00-.51-.17 7.39 7.39 0 00-3.49.77c-4.32 1.6-5.95 1.54-9.92-.83-2.8-1.68-3.23-1.68-6.06 0-4 2.37-5.6 2.43-9.92.83a7.33 7.33 0 00-3.49-.77 1.86 1.86 0 00-.69.26c10 9.53 24.07 9.5 34.08-.09zm-11.72-15.3a8 8 0 002.92 1.28 9.17 9.17 0 003.32-.8c4.6-1.74 6.6-1.66 10.26 1.74a6.2 6.2 0 002.29 1.63 3.49 3.49 0 001 .11 73.37 73.37 0 003.34-7.59c-4.46.88-6.17.66-9.52-2.48a5.83 5.83 0 00-2.34-1.63 7.39 7.39 0 00-3.49.77c-4.32 1.6-5.95 1.54-9.92-.83-2.8-1.68-3.23-1.68-6.06 0-4 2.37-5.6 2.43-9.92.83a7.33 7.33 0 00-3.49-.77 5.83 5.83 0 00-2.34 1.63c-3.37 3.14-5.06 3.37-9.52 2.48l-.31-.06a68.29 68.29 0 003.37 7.62 3.7 3.7 0 001.26-.09 6.37 6.37 0 002.26-1.63c3.66-3.4 5.66-3.48 10.26-1.74a9.17 9.17 0 003.32.8 8 8 0 002.92-1.28c4.23-2.54 6.23-2.54 10.46 0zm0-11.42a8 8 0 002.92 1.28 9.17 9.17 0 003.32-.8c4.6-1.74 6.6-1.66 10.26 1.74a6.2 6.2 0 002.29 1.63 8.38 8.38 0 003.49-.26 23.24 23.24 0 012.46-.4l.94-3a96.68 96.68 0 00-62.06 0q.43 1.54.94 3c.91.09 1.83.26 2.72.43a8.51 8.51 0 003.52.26 6.37 6.37 0 002.26-1.63c3.66-3.4 5.66-3.48 10.26-1.74a9.17 9.17 0 003.32.8 8 8 0 002.92-1.28c4.23-2.54 6.23-2.54 10.46 0zm35.91-5c-3.09 11.87-6.75 23.72-14.41 33.56-14.44 18.49-39.28 18.49-53.72 0-7.66-9.85-11.32-21.69-14.44-33.56.94-.37 1.86-.74 2.77-1.08-5.72-23.94-5.26-49-5.26-50.63 28.22-9 38.94-14.5 43.77-17.24 4.86 2.74 15.58 8.28 43.8 17.24 0 1.66.46 26.68-5.29 50.63.91.34 1.86.71 2.77 1.08zm-71.27-4a100.14 100.14 0 0159.95 0c4.26-19.32 3.92-39.21 3.92-40.47-21.81-6.91-30.13-11.22-33.88-13.33-3.74 2.11-12 6.42-33.85 13.33 0 13.53 1 27.26 3.86 40.47zm55.89-26.57h-21.93v7.65h21.93zm-40.68.51a3.58 3.58 0 11-3.6 3.6 3.58 3.58 0 013.6-3.6zm116-7.25a11.42 11.42 0 1011.43 11.42 11.42 11.42 0 00-11.43-11.42zm14.89-31.65c-4.83 2.74-15.55 8.28-43.8 17.24 0 1.66-.46 26.68 5.26 50.63-.91.34-1.83.71-2.74 1.08 3.12 11.87 6.75 23.72 14.44 33.56 14.44 18.49 39.25 18.49 53.69 0 7.69-9.85 11.32-21.69 14.44-33.56-.94-.37-1.86-.74-2.8-1.08 5.75-23.94 5.32-49 5.32-50.63-28.24-9-39-14.5-43.8-17.24zm-33.88 24.49c21.84-6.91 30.13-11.22 33.88-13.33 3.74 2.11 12 6.42 33.88 13.33 0 1.26.31 21.15-3.92 40.47a100.23 100.23 0 00-60 0c-2.89-13.21-3.86-26.94-3.86-40.47zm2.86 49.63a96.59 96.59 0 0162 0c-.46 1.6-.94 3.17-1.49 4.68a104.15 104.15 0 00-59 .09 88.48 88.48 0 01-1.52-4.77zm3 8.79a99.89 99.89 0 0156.06-.09 73.88 73.88 0 01-2.77 6.22 104.91 104.91 0 00-50.49.06 68 68 0 01-2.8-6.19zm4.95 10.07a100.53 100.53 0 0146.17-.06 44.51 44.51 0 01-3 4.34c-.43.54-.86 1-1.29 1.51a105.63 105.63 0 00-37.65.06c-.46-.51-.89-1-1.32-1.57a47.07 47.07 0 01-2.94-4.28zm8.18 9.53a101.56 101.56 0 0129.85 0 23.52 23.52 0 01-29.85 0zm29.76-70.86a11.42 11.42 0 1011.43 11.42 11.42 11.42 0 00-11.43-11.42zm-3.63 11.42a3.63 3.63 0 113.63 3.62 3.63 3.63 0 01-3.63-3.62zm-29.76 0a3.63 3.63 0 113.63 3.62 3.63 3.63 0 01-3.63-3.62zm93.31 25.89c3.09 11.87 6.75 23.72 14.41 33.56 14.44 18.49 39.28 18.49 53.72 0 7.66-9.85 11.32-21.69 14.41-33.56-.91-.37-1.86-.74-2.77-1.08 5.75-23.94 5.29-49 5.29-50.63-28.22-9-38.94-14.5-43.77-17.24-4.86 2.74-15.58 8.28-43.8 17.24 0 1.66-.46 26.68 5.26 50.63-.91.34-1.83.71-2.74 1.08zm54.37 9.16a4.23 4.23 0 104.23-4.22 4.26 4.26 0 00-4.23 4.22zm4.23 1.4a1.38 1.38 0 010-2.77 1.38 1.38 0 010 2.77zm0 5.79a4.24 4.24 0 104.23 4.22 4.25 4.25 0 00-4.23-4.22zm-1.37 4.22a1.39 1.39 0 011.37-1.37 1.38 1.38 0 010 2.77 1.4 1.4 0 01-1.37-1.4zm-16 5.79a4.22 4.22 0 104.23 4.22 4.24 4.24 0 00-4.23-4.22zm-1.4 4.22a1.39 1.39 0 111.4 1.37 1.38 1.38 0 01-1.4-1.37zm-2.86-22.83a4.25 4.25 0 104.26-4.22 4.24 4.24 0 00-4.26 4.22zm2.86 0a1.39 1.39 0 111.4 1.37 1.38 1.38 0 01-1.4-1.37zm1.4 7.19a4.22 4.22 0 104.23 4.22 4.24 4.24 0 00-4.23-4.22zm-1.4 4.22a1.39 1.39 0 111.4 1.37 1.38 1.38 0 01-1.4-1.37zm-16-2.83a4.24 4.24 0 104.23 4.22 4.24 4.24 0 00-4.23-4.22zm0 2.85a1.38 1.38 0 11-1.37 1.37 1.37 1.37 0 011.37-1.37zm1.37-10a1.4 1.4 0 01-1.37 1.4 1.38 1.38 0 111.37-1.4zm-5.6 0a4.23 4.23 0 104.23-4.22 4.24 4.24 0 00-4.23 4.22zm37.39-48.77l-13.58 13.56 13.58 13.56 5.43-5.45-8.12-8.11 8.12-8.11zm-26.53 0l-13.58 13.56 13.58 13.56 5.43-5.45-8.12-8.11 8.12-8.11zm40.65 35.62a100.14 100.14 0 00-59.95 0c-2.89-13.21-3.86-26.94-3.86-40.47 21.81-6.91 30.13-11.22 33.88-13.33 3.72 2.11 12 6.42 33.85 13.33 0 1.26.34 21.15-3.92 40.47zm-49.83 32.62c-5.29-6.62-8.78-15.38-11.15-23.46a96.68 96.68 0 0162.06 0c-2.37 8.08-5.86 16.84-11.15 23.46-3.77-2.8-8.69 1.8-6.06 5.74a23.41 23.41 0 01-27.64 0 4.24 4.24 0 00-6.06-5.74zm1.92 2.17a1.37 1.37 0 011.86 1.8 34.92 34.92 0 01-1.86-1.8zm34.08 1.77a1.36 1.36 0 011.86-1.77 25.6 25.6 0 01-1.86 1.77zm129.9-36.56a100.23 100.23 0 00-60 0 192.11 192.11 0 01-3.86-40.47c21.84-6.91 30.13-11.22 33.88-13.33 3.74 2.11 12 6.42 33.88 13.33 0 1.26.31 21.15-3.92 40.47zm-40.39 32.65l.43 4.25a101.66 101.66 0 0120 .14l.43-4.22a105.93 105.93 0 00-20.84-.17zm0-22.55l.43 4.25a101.66 101.66 0 0120 .14l.43-4.22a105.93 105.93 0 00-20.84-.17zm26-41.87l-13.55 13.56 5.43 5.42 8.12-8.11 8.15 8.11 5.43-5.42zm-30.82 0l-13.58 13.56 5.46 5.42 8.12-8.11 8.12 8.11 5.46-5.42zm-28.5-16c0 1.66-.49 26.68 5.23 50.63-.91.34-1.83.71-2.74 1.08 3.12 11.87 6.75 23.72 14.44 33.56 14.44 18.49 39.25 18.49 53.69 0 7.69-9.85 11.32-21.69 14.44-33.56-.94-.37-1.86-.74-2.8-1.08 5.75-23.94 5.32-49 5.32-50.63-28.24-9-39-14.5-43.8-17.24-4.83 2.74-15.55 8.28-43.77 17.24zm12.75 56.88a96.59 96.59 0 0162 0c-.49 1.71-1 3.37-1.6 5a93.69 93.69 0 00-13.35-3.14l-.43 4.25a93.81 93.81 0 0112.29 2.88q-1.24 3.08-2.66 5.91a102.58 102.58 0 00-22.41-3v4.28a98.82 98.82 0 0120.24 2.63 40.35 40.35 0 01-4.43 6.08c-.86-.17-1.72-.31-2.6-.46l-.31 3.28c-9.49 8-22 8-31.5 0l-.37-3.54c-.91.14-1.86.29-2.77.46a43.52 43.52 0 01-4.17-5.76 98.58 98.58 0 0120.21-2.65v-4.28a103 103 0 00-22.36 3.05 68.78 68.78 0 01-2.89-6.39 95 95 0 0112.41-2.71l-.43-4.25a100.9 100.9 0 00-13.46 2.94c-.49-1.48-1-3-1.43-4.57zm150.86-35.25v7.68h22.1v-7.68zm-29.42 0v7.68h22.1v-7.68zM1654.9 3246c0 1.66-.46 26.68 5.26 50.63-.91.34-1.83.71-2.74 1.08 3.09 11.87 6.75 23.72 14.41 33.56 14.44 18.49 39.28 18.49 53.72 0 7.66-9.85 11.32-21.69 14.44-33.56-.94-.37-1.89-.74-2.8-1.08 5.75-23.94 5.29-49 5.29-50.63-28.22-9-38.94-14.5-43.77-17.24-4.86 2.74-15.58 8.28-43.8 17.24zm54.17 52.31a95.36 95.36 0 019.43 1.48c-2.06 9.53-6.72 29-14.67 35.1 3.52-10 4.4-25.94 5.23-36.59zm-30.22 1.46c3.12-.63 6.26-1.11 9.46-1.46.8 10.67 1.69 26.57 5.2 36.59-7.95-6.11-12.61-25.57-14.67-35.13zm13.72-1.83a108.86 108.86 0 0112.21 0c-.43 5.76-3 35.56-5.75 38.64a3 3 0 01-.71 0c-2.74-3.08-5.32-32.88-5.75-38.64zm-17.9 2.83c2.2 10.13 5.49 23.4 11.41 32.14-9.92-6.22-15.29-19.32-18.44-30 2.32-.8 4.66-1.51 7-2.11zm36.62 32.14c5.89-8.73 9.21-22 11.38-32.14 2.37.6 4.75 1.31 7 2.11-3.14 10.7-8.52 23.83-18.41 30zM1728.65 3557.72a100.23 100.23 0 00-60 0c-2.89-13.21-3.86-26.94-3.86-40.47 21.84-6.91 30.13-11.22 33.88-13.33 3.74 2.11 12 6.42 33.85 13.33 0 1.26.34 21.15-3.89 40.47zM842.44 3510c0 1.66-.49 26.68 5.23 50.63-.91.34-1.83.71-2.74 1.08 3.12 11.87 6.75 23.72 14.44 33.56 14.44 18.49 39.28 18.49 53.72 0 7.66-9.85 11.32-21.69 14.41-33.56a77.4 77.4 0 00-2.8-1.08c5.75-23.94 5.32-49 5.32-50.63-28.22-9-38.94-14.5-43.8-17.24-4.83 2.74-15.55 8.28-43.77 17.24zm48.31 17.15l8.12 8.13-8.12 8.11 5.43 5.45 13.58-13.56-13.58-13.56zm-18.41 8.13l-8.12 8.11 5.43 5.45 13.58-13.56-13.58-13.56-5.43 5.42zm-17.15 31.59a96.68 96.68 0 0162.06 0c-.26.88-.54 1.74-.8 2.6l-.4-.66-9.12 2.4-5.46-5.54-8.18 3.6-6.95-4.65-6.95 4.65-8.18-3.6-5.46 5.54-9.12-2.4-.57.94c-.31-.94-.6-1.91-.89-2.88zm61-9.16a100.14 100.14 0 00-59.95 0 188.4 188.4 0 01-3.86-40.47c21.81-6.91 30.1-11.22 33.85-13.33 3.74 2.11 12 6.42 33.88 13.33 0 1.26.31 21.15-3.92 40.47zM867.05 3576l5.15-5.19 7.63 3.37 6.52-4.4 6.52 4.4 7.63-3.37 5.15 5.19 8.4-2.23.54.94a71.24 71.24 0 01-2.92 6.68l-4.75 1.26-5.46-5.54-8.18 3.6-6.95-4.65-6.95 4.65-8.18-3.6-5.46 5.54-5.06-1.34c-1-2-1.92-4.11-2.77-6.31l.71-1.23zm12.78 9.59l6.52-4.4 6.52 4.4 7.63-3.37 5.15 5.19 3.12-.83a37.53 37.53 0 01-4 5.28l-3.32-3.34-8.18 3.6-6.95-4.65-6.95 4.65-8.18-3.6-3.46 3.48a39.12 39.12 0 01-4.15-5.51l3.43.91 5.15-5.19zm13 11.42l7.63-3.37 1.2 1.2c-9.32 7.68-21.5 7.71-30.82.11l1.32-1.31 7.63 3.37 6.52-4.4zm139.45-39.27a100.14 100.14 0 00-59.95 0c-2.89-13.21-3.86-26.94-3.86-40.47 21.81-6.91 30.1-11.22 33.85-13.33 3.74 2.11 12 6.42 33.88 13.33 0 1.26.34 21.15-3.92 40.47zm-21.76-22l-5.09 5.08 5.46 5.45 5.09-5.08 5.09 5.08 5.46-5.45-5.12-5.08 5.12-5.08-5.46-5.42-5.09 5.08-5.09-5.08-5.46 5.42zm-33-5.08l5.09 5.08-5.09 5.08 5.46 5.45 5.09-5.08 5.09 5.08 5.43-5.45-5.09-5.08 5.09-5.08-5.43-5.42-5.09 5.08-5.09-5.08zM958.59 3510c0 1.66-.46 26.68 5.23 50.63l-2.74 1.08c3.12 11.87 6.75 23.72 14.44 33.56 14.44 18.49 39.28 18.49 53.72 0 7.66-9.85 11.32-21.69 14.41-33.56a77.4 77.4 0 00-2.8-1.08c5.75-23.94 5.32-49 5.32-50.63-28.22-9-38.94-14.5-43.8-17.24-4.83 2.74-15.55 8.28-43.77 17.24zm17 68.72l16.44-16.41c2.92-.31 5.83-.49 8.75-.54l-22.44 22.4c-1-1.74-1.89-3.57-2.74-5.45zm5.09 9.19l21.64-21.63 21.67 21.63a37.68 37.68 0 01-3.37 4.28l-18.3-18.27-18.27 18.24a35 35 0 01-3.37-4.25zm45.63-3.74l-22.44-22.4c2.94.06 5.86.23 8.78.54l16.44 16.41a66.22 66.22 0 01-2.77 5.45zm-55-17.29a87.33 87.33 0 0113.66-3.57l-11.15 11.1c-.91-2.43-1.74-5-2.52-7.53zm15.89 28.23l15.12-15.13 15.15 15.13a29.3 29.3 0 01-4.66 3l-10.49-10.47-10.42 10.46a29.3 29.3 0 01-4.66-3zm15.12-1.43l6.12 6.11a23.31 23.31 0 01-12.21 0zm28.5-19.26l-11.12-11.1a87.33 87.33 0 0113.66 3.57c-.77 2.6-1.6 5.11-2.54 7.53zm117.52-16.7a100.23 100.23 0 00-60 0c-2.89-13.21-3.86-26.94-3.86-40.47 21.84-6.91 30.13-11.22 33.88-13.33 3.74 2.11 12 6.42 33.88 13.33 0 1.26.31 21.15-3.92 40.47zm-20.27 32.82a2.23 2.23 0 102.23 2.23 2.23 2.23 0 00-2.23-2.23zm-9.69-.46a2.23 2.23 0 102.23 2.23 2.23 2.23 0 00-2.23-2.23zm-9.69.46a2.23 2.23 0 102.23 2.23 2.23 2.23 0 00-2.23-2.23zm-9.32-10.1a2.23 2.23 0 102.23 2.23 2.23 2.23 0 00-2.23-2.23zm9.32-1.31a2.23 2.23 0 102.23 2.23 2.23 2.23 0 00-2.23-2.23zm9.69-.46a2.23 2.23 0 102.23 2.23 2.23 2.23 0 00-2.23-2.23zm9.69.46a2.23 2.23 0 102.23 2.23 2.23 2.23 0 00-2.23-2.23zm9.32 1.31a2.23 2.23 0 102.23 2.23 2.23 2.23 0 00-2.23-2.23zm0-11.42a2.23 2.23 0 102.23 2.23 2.23 2.23 0 00-2.23-2.23zm-9.32-1.31a2.23 2.23 0 102.23 2.23 2.23 2.23 0 00-2.23-2.23zm-9.69-.46a2.23 2.23 0 102.23 2.23 2.23 2.23 0 00-2.23-2.23zm-9.69.46a2.23 2.23 0 102.23 2.23 2.23 2.23 0 00-2.23-2.23zm-9.32 1.31a2.23 2.23 0 102.23 2.23 2.23 2.23 0 00-2.23-2.23zm27.84-33.16l-5.09 5.08 5.46 5.45 5.09-5.08 5.09 5.08 5.46-5.45-5.12-5.08 5.12-5.08-5.46-5.45-5.09 5.11-5.09-5.11-5.46 5.45zm-35-.06a11.32 11.32 0 0011.35 11.3 13 13 0 001.49-.09 11.33 11.33 0 00-.49-22.52h-1a11.33 11.33 0 00-11.35 11.33zm15 0a3.6 3.6 0 11-3.6-3.6 3.6 3.6 0 013.6 3.6zm-32.56-25.8c0 1.66-.46 26.68 5.26 50.63-.91.34-1.83.71-2.74 1.08 3.12 11.87 6.75 23.72 14.44 33.56 14.44 18.49 39.25 18.49 53.69 0 7.69-9.85 11.32-21.69 14.44-33.56-.94-.37-1.86-.74-2.8-1.08 5.75-23.94 5.32-49 5.29-50.63-28.22-9-38.94-14.5-43.77-17.24-4.83 2.74-15.55 8.28-43.8 17.24zm12.78 56.88a96.59 96.59 0 0162 0c-.49 1.68-1 3.31-1.57 4.94a2.16 2.16 0 00-1.57-.68 2.24 2.24 0 000 4.48h.17c-2.26 5.71-5.35 11.76-9.52 16.32a2.2 2.2 0 00-1.72 1.74c-9.92 9.28-23.7 9.28-33.62 0a2.2 2.2 0 00-1.72-1.74c-4.17-4.57-7.26-10.62-9.52-16.32h.17a2.24 2.24 0 000-4.48 2.12 2.12 0 00-1.57.68 86.18 86.18 0 01-1.57-4.94zm132.27-43a11.33 11.33 0 100 22.66 12.55 12.55 0 001.49-.11 11.33 11.33 0 00-.49-22.52h-1zm20.15 65.58a8 8 0 002.92 1.28 9.17 9.17 0 003.32-.8c3-1.14 5.6-1.83 8.4.17l.11-.14a40.54 40.54 0 002.74-4 9.79 9.79 0 01-3.92-2.63 5.83 5.83 0 00-2.34-1.63 7.39 7.39 0 00-3.49.77c-4.32 1.6-5.95 1.54-9.92-.83-2.8-1.68-3.23-1.68-6.06 0-4 2.37-5.6 2.43-9.92.83a7.33 7.33 0 00-3.49-.77 5.83 5.83 0 00-2.34 1.63 9.19 9.19 0 01-4.17 2.68 39.46 39.46 0 002.72 3.91l.2.26c2.86-2.11 5.46-1.46 8.58-.29a9.17 9.17 0 003.32.8 8 8 0 002.92-1.28c4.23-2.54 6.23-2.54 10.46 0zm11.72 3.88a1.82 1.82 0 00-.51-.17 7.39 7.39 0 00-3.49.77c-4.32 1.6-5.95 1.54-9.92-.83-2.8-1.68-3.23-1.68-6.06 0-4 2.37-5.6 2.43-9.92.83a7.33 7.33 0 00-3.49-.77 1.86 1.86 0 00-.69.26c10 9.53 24.07 9.5 34.08-.09zm-11.72-15.3a8 8 0 002.92 1.28 9.17 9.17 0 003.32-.8c4.6-1.74 6.6-1.66 10.26 1.74a6.2 6.2 0 002.29 1.63 3.49 3.49 0 001 .11 73.37 73.37 0 003.34-7.59c-4.46.88-6.17.66-9.52-2.48a5.83 5.83 0 00-2.34-1.63 7.39 7.39 0 00-3.49.77c-4.32 1.6-5.95 1.54-9.92-.83-2.8-1.68-3.23-1.68-6.06 0-4 2.37-5.6 2.43-9.92.83a7.33 7.33 0 00-3.49-.77 5.83 5.83 0 00-2.34 1.63c-3.37 3.14-5.06 3.37-9.52 2.48l-.31-.06a68.29 68.29 0 003.37 7.62 3.7 3.7 0 001.26-.09 6.37 6.37 0 002.26-1.63c3.66-3.4 5.66-3.48 10.26-1.74a9.17 9.17 0 003.32.8 8 8 0 002.92-1.28c4.23-2.54 6.23-2.54 10.46 0zm0-11.42a8 8 0 002.92 1.28 9.17 9.17 0 003.32-.8c4.6-1.74 6.6-1.66 10.26 1.74a6.2 6.2 0 002.29 1.63 8.38 8.38 0 003.49-.26 23.22 23.22 0 012.46-.4l.94-3a96.68 96.68 0 00-62.06 0q.43 1.54.94 3c.91.09 1.83.26 2.72.43a8.51 8.51 0 003.52.26 6.37 6.37 0 002.26-1.63c3.66-3.4 5.66-3.48 10.26-1.74a9.17 9.17 0 003.32.8 8 8 0 002.92-1.28c4.23-2.54 6.23-2.54 10.46 0zm35.91-5c-3.09 11.87-6.75 23.72-14.41 33.56-14.44 18.49-39.28 18.49-53.72 0-7.66-9.85-11.32-21.69-14.44-33.56.94-.37 1.86-.74 2.77-1.08-5.72-23.94-5.26-49-5.26-50.63 28.22-9 38.94-14.5 43.77-17.24 4.86 2.74 15.58 8.28 43.8 17.24 0 1.66.46 26.68-5.29 50.63.91.34 1.86.71 2.77 1.08zm-71.27-4a100.14 100.14 0 0159.95 0c4.26-19.32 3.92-39.21 3.92-40.47-21.81-6.91-30.13-11.22-33.88-13.33-3.74 2.11-12 6.42-33.85 13.33 0 13.53 1 27.26 3.86 40.47zm55.89-26.57h-21.93v7.65h21.93zm-40.68.51a3.58 3.58 0 11-3.6 3.6 3.58 3.58 0 013.6-3.6zm116-7.25a11.42 11.42 0 1011.43 11.42 11.42 11.42 0 00-11.43-11.42zm14.89-31.65c-4.83 2.74-15.55 8.28-43.8 17.24 0 1.66-.46 26.68 5.26 50.63-.91.34-1.83.71-2.74 1.08 3.12 11.87 6.75 23.72 14.44 33.56 14.44 18.49 39.25 18.49 53.69 0 7.69-9.85 11.32-21.69 14.44-33.56-.94-.37-1.86-.74-2.8-1.08 5.75-23.94 5.32-49 5.32-50.63-28.24-9-39-14.5-43.8-17.24zm-33.88 24.49c21.84-6.91 30.13-11.22 33.88-13.33 3.74 2.11 12 6.42 33.88 13.33 0 1.26.31 21.15-3.92 40.47a100.23 100.23 0 00-60 0c-2.89-13.21-3.86-26.94-3.86-40.47zm2.86 49.63a96.59 96.59 0 0162 0c-.46 1.6-.94 3.17-1.49 4.68a104.15 104.15 0 00-59 .09 88.48 88.48 0 01-1.52-4.77zm3 8.79a99.89 99.89 0 0156.06-.09 73.88 73.88 0 01-2.77 6.22 104.91 104.91 0 00-50.49.06 68 68 0 01-2.8-6.19zm4.95 10.07a100.53 100.53 0 0146.17-.06 44.52 44.52 0 01-3 4.34c-.43.54-.86 1-1.29 1.51a105.63 105.63 0 00-37.65.06c-.46-.51-.89-1-1.32-1.57a47.08 47.08 0 01-2.94-4.28zm8.18 9.53a101.56 101.56 0 0129.85 0 23.52 23.52 0 01-29.85 0zm29.76-70.86a11.42 11.42 0 1011.43 11.42 11.42 11.42 0 00-11.43-11.42zm-3.63 11.42a3.63 3.63 0 113.63 3.62 3.63 3.63 0 01-3.63-3.62zm-29.76 0a3.63 3.63 0 113.63 3.62 3.63 3.63 0 01-3.63-3.62zm93.31 25.89c3.09 11.87 6.75 23.72 14.41 33.56 14.44 18.49 39.28 18.49 53.72 0 7.66-9.85 11.32-21.69 14.41-33.56-.91-.37-1.86-.74-2.77-1.08 5.75-23.94 5.29-49 5.29-50.63-28.22-9-38.94-14.5-43.77-17.24-4.86 2.74-15.58 8.28-43.8 17.24 0 1.66-.46 26.68 5.26 50.63-.91.34-1.83.71-2.74 1.08zm54.37 9.16a4.23 4.23 0 104.23-4.22 4.26 4.26 0 00-4.23 4.22zm4.23 1.4a1.38 1.38 0 010-2.77 1.38 1.38 0 010 2.77zm0 5.79a4.24 4.24 0 104.23 4.22 4.25 4.25 0 00-4.23-4.22zm-1.37 4.22a1.39 1.39 0 011.37-1.37 1.38 1.38 0 010 2.77 1.4 1.4 0 01-1.37-1.4zm-16 5.79a4.22 4.22 0 104.23 4.22 4.24 4.24 0 00-4.23-4.22zm-1.4 4.22a1.39 1.39 0 111.4 1.37 1.38 1.38 0 01-1.4-1.37zm-2.86-22.83a4.25 4.25 0 104.26-4.22 4.24 4.24 0 00-4.26 4.22zm2.86 0a1.39 1.39 0 111.4 1.37 1.38 1.38 0 01-1.4-1.37zm1.4 7.19a4.22 4.22 0 104.23 4.22 4.24 4.24 0 00-4.23-4.22zm-1.4 4.22a1.39 1.39 0 111.4 1.37 1.38 1.38 0 01-1.4-1.37zm-16-2.83a4.24 4.24 0 104.23 4.22 4.24 4.24 0 00-4.23-4.22zm0 2.85a1.38 1.38 0 11-1.37 1.37 1.37 1.37 0 011.37-1.37zm1.37-10a1.4 1.4 0 01-1.37 1.4 1.38 1.38 0 111.37-1.4zm-5.6 0a4.23 4.23 0 104.23-4.22 4.24 4.24 0 00-4.23 4.22zm37.39-48.77l-13.58 13.56 13.58 13.56 5.43-5.45-8.12-8.11 8.12-8.11zm-26.53 0l-13.58 13.56 13.58 13.56 5.43-5.45-8.12-8.11 8.12-8.11zm40.65 35.62a100.14 100.14 0 00-59.95 0c-2.89-13.21-3.86-26.94-3.86-40.47 21.81-6.91 30.13-11.22 33.88-13.33 3.72 2.11 12 6.42 33.85 13.33 0 1.26.34 21.15-3.92 40.47zm-49.83 32.62c-5.29-6.62-8.78-15.38-11.15-23.46a96.68 96.68 0 0162.06 0c-2.37 8.08-5.86 16.84-11.15 23.46-3.77-2.8-8.69 1.8-6.06 5.74a23.41 23.41 0 01-27.64 0 4.24 4.24 0 00-6.06-5.74zm1.92 2.17a1.37 1.37 0 011.86 1.8 34.92 34.92 0 01-1.86-1.8zm34.08 1.77a1.36 1.36 0 011.86-1.77 25.6 25.6 0 01-1.86 1.77zm129.9-36.56a100.23 100.23 0 00-60 0 192.11 192.11 0 01-3.86-40.47c21.84-6.91 30.13-11.22 33.88-13.33 3.74 2.11 12 6.42 33.88 13.33 0 1.26.31 21.15-3.92 40.47zm-40.39 32.65l.43 4.25a101.65 101.65 0 0120 .14l.43-4.22a105.93 105.93 0 00-20.84-.17zm0-22.55l.43 4.25a101.66 101.66 0 0120 .14l.43-4.22a105.93 105.93 0 00-20.84-.17zm26-41.87l-13.55 13.56 5.43 5.42 8.12-8.11 8.15 8.11 5.43-5.42zm-30.82 0l-13.58 13.56 5.46 5.42 8.12-8.11 8.12 8.11 5.46-5.42zm-28.5-16c0 1.66-.49 26.68 5.23 50.63-.91.34-1.83.71-2.74 1.08 3.12 11.87 6.75 23.72 14.44 33.56 14.44 18.49 39.25 18.49 53.69 0 7.69-9.85 11.32-21.69 14.44-33.56-.94-.37-1.86-.74-2.8-1.08 5.75-23.94 5.32-49 5.32-50.63-28.24-9-39-14.5-43.8-17.24-4.83 2.74-15.55 8.28-43.77 17.24zm12.75 56.88a96.59 96.59 0 0162 0c-.49 1.71-1 3.37-1.6 5a93.68 93.68 0 00-13.35-3.14l-.43 4.25a93.81 93.81 0 0112.29 2.88q-1.24 3.08-2.66 5.91a102.58 102.58 0 00-22.41-3v4.28a98.82 98.82 0 0120.24 2.63 40.35 40.35 0 01-4.43 6.08c-.86-.17-1.72-.31-2.6-.46l-.31 3.28c-9.49 8-22 8-31.5 0l-.37-3.54c-.91.14-1.86.29-2.77.46a43.52 43.52 0 01-4.17-5.76 98.58 98.58 0 0120.21-2.65v-4.28a103.05 103.05 0 00-22.36 3.05 68.77 68.77 0 01-2.89-6.39 95 95 0 0112.41-2.71l-.43-4.25a100.9 100.9 0 00-13.46 2.94c-.49-1.48-1-3-1.43-4.57zm150.86-35.25v7.68h22.1v-7.68zm-29.42 0v7.68h22.1v-7.68zM1654.9 3510c0 1.66-.46 26.68 5.26 50.63-.91.34-1.83.71-2.74 1.08 3.09 11.87 6.75 23.72 14.41 33.56 14.44 18.49 39.28 18.49 53.72 0 7.66-9.85 11.32-21.69 14.44-33.56-.94-.37-1.89-.74-2.8-1.08 5.75-23.94 5.29-49 5.29-50.63-28.22-9-38.94-14.5-43.77-17.24-4.86 2.74-15.58 8.28-43.8 17.24zm54.17 52.31a95.35 95.35 0 019.43 1.48c-2.06 9.53-6.72 29-14.67 35.1 3.52-10 4.4-25.94 5.23-36.59zm-30.22 1.46c3.12-.63 6.26-1.11 9.46-1.46.8 10.67 1.69 26.57 5.2 36.59-7.95-6.11-12.61-25.57-14.67-35.13zm13.72-1.83a108.85 108.85 0 0112.21 0c-.43 5.76-3 35.56-5.75 38.64a3 3 0 01-.71 0c-2.74-3.08-5.32-32.88-5.75-38.64zm-17.9 2.83c2.2 10.13 5.49 23.4 11.41 32.14-9.92-6.22-15.29-19.32-18.44-30 2.32-.8 4.66-1.51 7-2.11zm36.62 32.14c5.89-8.73 9.21-22 11.38-32.14 2.37.6 4.75 1.31 7 2.11-3.14 10.7-8.52 23.83-18.41 30zM2657.15 3293.73a100.14 100.14 0 00-59.95 0c-2.89-13.21-3.86-26.94-3.86-40.47 21.81-6.91 30.1-11.22 33.85-13.33 3.74 2.11 12.06 6.42 33.88 13.33 0 1.26.34 21.15-3.92 40.47zM1771 3246c0 1.66-.49 26.68 5.23 50.63-.91.34-1.83.71-2.74 1.08 3.12 11.87 6.75 23.72 14.44 33.56 14.44 18.49 39.25 18.49 53.69 0 7.69-9.85 11.32-21.69 14.44-33.56-.94-.37-1.86-.74-2.8-1.08 5.75-23.94 5.32-49 5.32-50.63-28.22-9-39-14.5-43.8-17.24-4.83 2.74-15.55 8.28-43.77 17.24zm48.31 17.15l8.12 8.13-8.12 8.11 5.43 5.45 13.58-13.56-13.58-13.56zm-18.41 8.13l-8.12 8.11 5.43 5.45 13.58-13.56-13.58-13.56-5.43 5.42zm-17.15 31.59a96.68 96.68 0 0162.06 0c-.26.88-.54 1.74-.8 2.6l-.4-.66-9.12 2.4-5.46-5.54-8.18 3.6-6.95-4.65-6.95 4.65-8.2-3.6-5.43 5.54-9.12-2.4-.57.94c-.31-.94-.6-1.91-.89-2.88zm61-9.16a100.23 100.23 0 00-60 0 190.21 190.21 0 01-3.83-40.47c21.81-6.91 30.1-11.22 33.85-13.33 3.74 2.11 12 6.42 33.88 13.33 0 1.26.31 21.15-3.92 40.47zm-49.17 18.29l5.12-5.19 7.63 3.37 6.55-4.4 6.52 4.4 7.63-3.37 5.12 5.19 8.4-2.23.57.94a71.25 71.25 0 01-2.92 6.68l-4.75 1.26-5.46-5.54-8.18 3.6-6.95-4.65-6.95 4.65-8.2-3.6-5.43 5.54-5.06-1.34a66.67 66.67 0 01-2.77-6.31l.71-1.23zm12.75 9.59l6.55-4.4 6.52 4.4 7.63-3.37 5.12 5.19 3.14-.83a39.87 39.87 0 01-4 5.28l-3.32-3.34-8.18 3.6-6.95-4.65-6.95 4.65-8.2-3.6-3.43 3.48a39.12 39.12 0 01-4.15-5.51l3.43.91 5.12-5.19zm13.06 11.42l7.63-3.37 1.2 1.2c-9.32 7.68-21.5 7.71-30.82.11l1.29-1.31 7.63 3.37 6.55-4.4zm139.45-39.27a100.23 100.23 0 00-60 0 190.21 190.21 0 01-3.83-40.47c21.81-6.91 30.1-11.22 33.85-13.33 3.74 2.11 12 6.42 33.88 13.33 0 1.26.31 21.15-3.92 40.47zm-21.76-22l-5.09 5.08 5.46 5.45 5.09-5.08 5.09 5.08 5.43-5.45-5.09-5.08 5.09-5.08-5.43-5.42-5.09 5.08-5.09-5.08-5.46 5.42zm-33-5.08l5.09 5.08-5.09 5.08 5.43 5.45 5.09-5.08 5.12 5.08 5.43-5.45-5.09-5.08 5.09-5.08-5.43-5.42-5.12 5.08-5.09-5.08zm-18.97-20.66c0 1.66-.49 26.68 5.23 50.63-.91.34-1.83.71-2.74 1.08 3.12 11.87 6.75 23.72 14.44 33.56 14.44 18.49 39.28 18.49 53.69 0 7.69-9.85 11.32-21.69 14.44-33.56-.94-.37-1.86-.74-2.8-1.08 5.75-23.94 5.32-49 5.32-50.63-28.22-9-38.94-14.5-43.8-17.24-4.83 2.74-15.55 8.28-43.77 17.24zm17 68.72l16.44-16.41c2.89-.31 5.83-.49 8.75-.54l-22.44 22.4c-1-1.74-1.89-3.57-2.74-5.45zm5.09 9.19l21.64-21.63 21.67 21.63a35 35 0 01-3.4 4.28l-18.27-18.27-18.27 18.24a32.43 32.43 0 01-3.37-4.25zm45.63-3.74l-22.44-22.4c2.94.06 5.86.23 8.78.54l16.41 16.41a57.19 57.19 0 01-2.74 5.45zm-55-17.29a87.33 87.33 0 0113.66-3.57l-11.15 11.1c-.91-2.43-1.77-5-2.52-7.53zm15.89 28.23l15.12-15.13 15.15 15.13a30.65 30.65 0 01-4.66 3l-10.49-10.47-10.46 10.47a29.31 29.31 0 01-4.66-3zm15.12-1.43l6.09 6.11a23.2 23.2 0 01-12.18 0zm28.5-19.26l-11.12-11.1a87.33 87.33 0 0113.66 3.57c-.77 2.6-1.6 5.11-2.54 7.53zm117.52-16.7a100.23 100.23 0 00-60 0c-2.89-13.21-3.86-26.94-3.86-40.47 21.84-6.91 30.13-11.22 33.88-13.33 3.74 2.11 12 6.42 33.85 13.33 0 1.26.34 21.15-3.89 40.47zm-20.27 32.82a2.23 2.23 0 102.23 2.23 2.23 2.23 0 00-2.23-2.23zm-9.69-.46a2.23 2.23 0 102.23 2.23 2.23 2.23 0 00-2.23-2.23zm-9.69.46a2.23 2.23 0 102.23 2.23 2.23 2.23 0 00-2.23-2.23zm-9.32-10.1a2.23 2.23 0 102.23 2.23 2.23 2.23 0 00-2.23-2.23zm9.32-1.31a2.23 2.23 0 102.23 2.23 2.23 2.23 0 00-2.23-2.23zm9.69-.46a2.23 2.23 0 102.23 2.23 2.23 2.23 0 00-2.23-2.23zm9.69.46a2.23 2.23 0 102.23 2.23 2.23 2.23 0 00-2.23-2.23zm9.32 1.31a2.23 2.23 0 102.23 2.23 2.24 2.24 0 00-2.23-2.23zm0-11.42a2.23 2.23 0 102.23 2.23 2.24 2.24 0 00-2.14-2.25zm-9.32-1.31a2.23 2.23 0 102.23 2.23 2.23 2.23 0 00-2.23-2.23zm-9.69-.46a2.23 2.23 0 102.23 2.23 2.23 2.23 0 00-2.23-2.23zm-9.69.46a2.23 2.23 0 102.23 2.23 2.23 2.23 0 00-2.23-2.23zm-9.32 1.31a2.23 2.23 0 102.23 2.23 2.23 2.23 0 00-2.23-2.23zm27.84-33.16l-5.09 5.08 5.46 5.45 5.09-5.08 5.09 5.08 5.43-5.45-5.09-5.08 5.09-5.08-5.43-5.45-5.09 5.11-5.09-5.11-5.46 5.45zm-35-.06a11.31 11.31 0 0011.35 11.3 13 13 0 001.49-.09 11.33 11.33 0 00-.49-22.52h-1a11.31 11.31 0 00-11.35 11.33zm14.92 0a3.59 3.59 0 11-3.57-3.6 3.57 3.57 0 013.57 3.6zm-32.53-25.8c0 1.66-.46 26.68 5.26 50.63-.91.34-1.83.71-2.74 1.08 3.12 11.87 6.75 23.72 14.41 33.56 14.44 18.49 39.28 18.49 53.72 0 7.69-9.85 11.32-21.69 14.44-33.56-.94-.37-1.89-.74-2.8-1.08 5.75-23.94 5.29-49 5.29-50.63-28.22-9-38.94-14.5-43.77-17.24-4.86 2.74-15.58 8.28-43.8 17.24zm12.75 56.88a96.68 96.68 0 0162.06 0c-.49 1.68-1 3.31-1.57 4.94a2.18 2.18 0 00-1.6-.68 2.24 2.24 0 000 4.48h.2c-2.26 5.71-5.37 11.76-9.52 16.32a2.2 2.2 0 00-1.72 1.74c-9.92 9.28-23.7 9.28-33.65 0a2.16 2.16 0 00-1.72-1.74c-4.15-4.57-7.23-10.62-9.49-16.32h.17a2.24 2.24 0 10-1.6-3.8c-.54-1.63-1.06-3.25-1.57-4.94zm132.3-43a11.33 11.33 0 100 22.66 12.55 12.55 0 001.49-.11 11.33 11.33 0 00-.49-22.52h-1zm20.15 65.58a8 8 0 002.92 1.28 9.17 9.17 0 003.32-.8c3-1.14 5.6-1.83 8.4.17l.11-.14a40.56 40.56 0 002.74-4 9.69 9.69 0 01-3.95-2.63 5.83 5.83 0 00-2.34-1.63 7.33 7.33 0 00-3.49.77c-4.32 1.6-5.95 1.54-9.92-.83-2.83-1.68-3.26-1.68-6.06 0-4 2.37-5.6 2.43-9.92.83a7.39 7.39 0 00-3.49-.77 5.83 5.83 0 00-2.34 1.63 9 9 0 01-4.15 2.68 39.47 39.47 0 002.72 3.91l.2.26c2.86-2.11 5.46-1.46 8.58-.29a9.17 9.17 0 003.32.8 8 8 0 002.92-1.28c4.23-2.54 6.23-2.54 10.46 0zm11.72 3.88a1.82 1.82 0 00-.51-.17 7.33 7.33 0 00-3.49.77c-4.32 1.6-5.95 1.54-9.92-.83-2.83-1.68-3.26-1.68-6.06 0-4 2.37-5.6 2.43-9.92.83a7.39 7.39 0 00-3.49-.77 1.69 1.69 0 00-.69.26c10 9.53 24.07 9.5 34.08-.09zm-11.72-15.3a8 8 0 002.92 1.28 9.17 9.17 0 003.32-.8c4.6-1.74 6.6-1.66 10.26 1.74a6.21 6.21 0 002.29 1.63 3.5 3.5 0 001 .11 73.38 73.38 0 003.34-7.59c-4.46.88-6.15.66-9.52-2.48a5.83 5.83 0 00-2.34-1.63 7.33 7.33 0 00-3.49.77c-4.32 1.6-5.95 1.54-9.92-.83-2.83-1.68-3.26-1.68-6.06 0-4 2.37-5.6 2.43-9.92.83a7.39 7.39 0 00-3.49-.77 5.83 5.83 0 00-2.34 1.63c-3.34 3.14-5.06 3.37-9.52 2.48l-.29-.06a73.89 73.89 0 003.34 7.62 3.6 3.6 0 001.26-.09 6.2 6.2 0 002.29-1.63c3.66-3.4 5.66-3.48 10.26-1.74a9.17 9.17 0 003.32.8 8 8 0 002.92-1.28c4.23-2.54 6.23-2.54 10.46 0zm0-11.42a8 8 0 002.92 1.28 9.17 9.17 0 003.32-.8c4.6-1.74 6.6-1.66 10.26 1.74a6.2 6.2 0 002.29 1.63 8.41 8.41 0 003.49-.26 23.24 23.24 0 012.46-.4l.94-3a96.68 96.68 0 00-62.06 0c.29 1 .6 2 .91 3 .94.09 1.83.26 2.74.43a8.38 8.38 0 003.49.26 6.2 6.2 0 002.29-1.63c3.66-3.4 5.66-3.48 10.26-1.74a9.17 9.17 0 003.32.8 8 8 0 002.92-1.28c4.23-2.54 6.23-2.54 10.46 0zm35.91-5c-3.12 11.87-6.75 23.72-14.41 33.56-14.44 18.49-39.28 18.49-53.72 0-7.69-9.85-11.32-21.69-14.44-33.56.91-.37 1.83-.74 2.74-1.08-5.72-23.94-5.23-49-5.23-50.63 28.22-9 38.94-14.5 43.77-17.24 4.86 2.74 15.58 8.28 43.8 17.24 0 1.66.43 26.68-5.32 50.63.94.34 1.89.71 2.8 1.08zm-71.27-4a100.14 100.14 0 0159.95 0c4.23-19.32 3.92-39.21 3.92-40.47-21.84-6.91-30.13-11.22-33.88-13.33-3.74 2.11-12 6.42-33.85 13.33a188.4 188.4 0 003.86 40.47zm55.89-26.57H2167v7.65h21.93zm-40.68.51a3.58 3.58 0 11-3.6 3.6 3.6 3.6 0 013.6-3.6zm116-7.25a11.42 11.42 0 1011.44 11.42 11.42 11.42 0 00-11.44-11.42zm14.89-31.65c-4.83 2.74-15.58 8.28-43.8 17.24 0 1.66-.46 26.68 5.26 50.63-.91.34-1.83.71-2.74 1.08 3.12 11.87 6.75 23.72 14.44 33.56 14.41 18.49 39.25 18.49 53.69 0 7.69-9.85 11.32-21.69 14.44-33.56-.94-.37-1.89-.74-2.8-1.08 5.75-23.94 5.29-49 5.29-50.63-28.22-9-38.94-14.5-43.77-17.24zm-33.88 24.49c21.84-6.91 30.13-11.22 33.88-13.33 3.74 2.11 12 6.42 33.85 13.33 0 1.26.34 21.15-3.89 40.47a100.23 100.23 0 00-60 0c-2.89-13.21-3.86-26.94-3.86-40.47zm2.83 49.63a96.68 96.68 0 0162.06 0c-.46 1.6-1 3.17-1.49 4.68a104.15 104.15 0 00-59 .09c-.54-1.57-1.06-3.14-1.54-4.77zm3 8.79a99.89 99.89 0 0156.06-.09 65.13 65.13 0 01-2.8 6.22 104.91 104.91 0 00-50.49.06c-1-2-1.92-4.05-2.77-6.19zm4.95 10.07a100.53 100.53 0 0146.17-.06 50.2 50.2 0 01-3 4.34c-.43.54-.86 1-1.29 1.51a105.63 105.63 0 00-37.65.06c-.46-.51-.89-1-1.32-1.57a47.1 47.1 0 01-2.94-4.28zm8.15 9.53a101.75 101.75 0 0129.87 0 23.56 23.56 0 01-29.87 0zm29.79-70.86a11.42 11.42 0 1011.43 11.42 11.45 11.45 0 00-11.43-11.42zm-3.63 11.42a3.62 3.62 0 113.63 3.62 3.63 3.63 0 01-3.63-3.62zm-29.76 0a3.62 3.62 0 113.63 3.62 3.63 3.63 0 01-3.63-3.62zm93.28 25.89c3.12 11.87 6.75 23.72 14.44 33.56 14.44 18.49 39.28 18.49 53.72 0 7.66-9.85 11.32-21.69 14.41-33.56a77.4 77.4 0 00-2.8-1.08c5.75-23.94 5.32-49 5.32-50.63-28.22-9-38.94-14.5-43.8-17.24-4.83 2.74-15.55 8.28-43.77 17.24 0 1.66-.46 26.68 5.23 50.63l-2.74 1.08zm54.4 9.16a4.23 4.23 0 104.23-4.22 4.24 4.24 0 00-4.23 4.22zm4.23 1.4a1.4 1.4 0 01-1.37-1.4 1.37 1.37 0 111.37 1.4zm0 5.79a4.24 4.24 0 104.23 4.22 4.25 4.25 0 00-4.23-4.22zm-1.37 4.22a1.37 1.37 0 111.37 1.4 1.4 1.4 0 01-1.37-1.4zm-16 5.79a4.22 4.22 0 104.23 4.22 4.24 4.24 0 00-4.23-4.22zm-1.37 4.22a1.37 1.37 0 011.37-1.37 1.37 1.37 0 110 2.74 1.37 1.37 0 01-1.37-1.37zm-2.86-22.83a4.23 4.23 0 104.23-4.22 4.24 4.24 0 00-4.23 4.22zm2.86 0a1.37 1.37 0 011.37-1.37 1.37 1.37 0 110 2.74 1.37 1.37 0 01-1.37-1.37zm1.37 7.19a4.22 4.22 0 104.23 4.22 4.24 4.24 0 00-4.23-4.22zm-1.37 4.22a1.37 1.37 0 011.37-1.37 1.37 1.37 0 110 2.74 1.37 1.37 0 01-1.37-1.37zm-16-2.83a4.24 4.24 0 104.23 4.22 4.26 4.26 0 00-4.23-4.22zm0 2.85a1.38 1.38 0 11-1.4 1.37 1.39 1.39 0 011.4-1.37zm1.37-10a1.39 1.39 0 11-1.37-1.37 1.4 1.4 0 011.37 1.37zm-5.63 0a4.25 4.25 0 104.26-4.22 4.27 4.27 0 00-4.26 4.22zm37.42-48.77l-13.58 13.56 13.58 13.56 5.43-5.45-8.12-8.11 8.12-8.11zm-26.53 0l-13.58 13.56 13.58 13.56 5.43-5.45-8.12-8.11 8.12-8.11zm40.65 35.62a100.14 100.14 0 00-59.95 0c-2.89-13.21-3.86-26.94-3.86-40.47 21.81-6.91 30.1-11.22 33.85-13.33 3.74 2.11 12 6.42 33.88 13.33 0 1.26.34 21.15-3.92 40.47zm-49.83 32.62c-5.29-6.62-8.78-15.38-11.15-23.46a96.68 96.68 0 0162.06 0c-2.37 8.08-5.86 16.84-11.18 23.46a4.23 4.23 0 00-6 5.74 23.41 23.41 0 01-27.64 0 4.24 4.24 0 00-6.06-5.74zm1.92 2.17a1.37 1.37 0 011.86 1.8 34.92 34.92 0 01-1.86-1.8zm34 1.77a1.37 1.37 0 011.89-1.77 22 22 0 01-1.89 1.77zm129.93-36.56a100.23 100.23 0 00-60 0c-2.89-13.21-3.86-26.94-3.86-40.47 21.84-6.91 30.13-11.22 33.88-13.33 3.74 2.11 12 6.42 33.88 13.33 0 1.26.31 21.15-3.92 40.47zm-40.39 32.65l.43 4.25a101.66 101.66 0 0120 .14l.43-4.22a106 106 0 00-20.84-.17zm0-22.55l.43 4.25a101.66 101.66 0 0120 .14l.43-4.22a106 106 0 00-20.84-.17zm26-41.87l-13.58 13.56 5.46 5.42 8.12-8.11 8.15 8.11 5.43-5.42zm-30.82 0l-13.58 13.56 5.43 5.42 8.15-8.11 8.12 8.11 5.43-5.42zm-28.53-16c0 1.66-.46 26.68 5.26 50.63-.91.34-1.83.71-2.74 1.08 3.12 11.87 6.75 23.72 14.44 33.56 14.44 18.49 39.25 18.49 53.69 0 7.69-9.85 11.32-21.69 14.44-33.56-.94-.37-1.86-.74-2.8-1.08 5.75-23.94 5.32-49 5.29-50.63-28.22-9-38.94-14.5-43.77-17.24-4.83 2.74-15.55 8.28-43.8 17.24zm12.75 56.88a96.68 96.68 0 0162.06 0c-.49 1.71-1 3.37-1.6 5a94.61 94.61 0 00-13.35-3.14l-.43 4.25a93.81 93.81 0 0112.29 2.88c-.83 2.05-1.72 4-2.69 5.91a102.32 102.32 0 00-22.38-3v4.28a98.82 98.82 0 0120.24 2.63 40.36 40.36 0 01-4.43 6.08c-.86-.17-1.74-.31-2.6-.46l-.34 3.28c-9.46 8-22 8-31.47 0l-.37-3.54c-.91.14-1.86.29-2.77.46a41.09 41.09 0 01-4.17-5.76 98.32 98.32 0 0120.21-2.65v-4.28a103.07 103.07 0 00-22.38 3.05c-1-2-2-4.17-2.86-6.39a94 94 0 0112.41-2.71l-.43-4.25a100.9 100.9 0 00-13.46 2.94c-.51-1.48-1-3-1.46-4.57zm151.01-35.12v7.68h22.13v-7.68zm-29.39 0v7.68h22.1v-7.68zm-18.19-21.64c0 1.66-.46 26.68 5.26 50.63-.91.34-1.83.71-2.77 1.08 3.12 11.87 6.78 23.72 14.44 33.56 14.44 18.49 39.28 18.49 53.72 0 7.66-9.85 11.32-21.69 14.41-33.56-.91-.37-1.86-.74-2.77-1.08 5.72-23.94 5.29-49 5.29-50.63-28.22-9-38.94-14.5-43.8-17.24-4.83 2.74-15.55 8.28-43.77 17.24zm54.14 52.31a94.61 94.61 0 019.46 1.48c-2.06 9.53-6.72 29-14.67 35.1 3.52-10 4.4-25.94 5.2-36.59zm-30.19 1.46q4.67-.94 9.43-1.46c.83 10.67 1.72 26.57 5.23 36.59-7.95-6.11-12.61-25.57-14.67-35.13zm13.72-1.83a108.87 108.87 0 0112.21 0c-.43 5.76-3 35.56-5.75 38.64a3 3 0 01-.71 0c-2.74-3.08-5.32-32.88-5.75-38.64zm-17.9 2.83c2.17 10.13 5.49 23.4 11.38 32.14-9.89-6.22-15.27-19.32-18.41-30 2.29-.8 4.66-1.51 7-2.11zm36.59 32.14c5.92-8.73 9.21-22 11.41-32.14 2.37.6 4.72 1.31 7 2.11-3.14 10.7-8.52 23.83-18.44 30zM2657.15 3557.72a100.14 100.14 0 00-59.95 0c-2.89-13.21-3.86-26.94-3.86-40.47 21.81-6.91 30.1-11.22 33.85-13.33 3.74 2.11 12.06 6.42 33.88 13.33 0 1.26.34 21.15-3.92 40.47zM1771 3510c0 1.66-.49 26.68 5.23 50.63-.91.34-1.83.71-2.74 1.08 3.12 11.87 6.75 23.72 14.44 33.56 14.44 18.49 39.25 18.49 53.69 0 7.69-9.85 11.32-21.69 14.44-33.56-.94-.37-1.86-.74-2.8-1.08 5.75-23.94 5.32-49 5.32-50.63-28.22-9-39-14.5-43.8-17.24-4.83 2.74-15.55 8.28-43.77 17.24zm48.31 17.15l8.12 8.13-8.12 8.11 5.43 5.45 13.58-13.56-13.58-13.56zm-18.41 8.13l-8.12 8.11 5.43 5.45 13.58-13.56-13.58-13.56-5.43 5.42zm-17.15 31.59a96.68 96.68 0 0162.06 0c-.26.88-.54 1.74-.8 2.6l-.4-.66-9.12 2.4-5.46-5.54-8.18 3.6-6.95-4.65-6.95 4.65-8.2-3.6-5.43 5.54-9.12-2.4-.57.94c-.31-.94-.6-1.91-.89-2.88zm61-9.16a100.23 100.23 0 00-60 0 190.21 190.21 0 01-3.83-40.47c21.81-6.91 30.1-11.22 33.85-13.33 3.74 2.11 12 6.42 33.88 13.33 0 1.26.31 21.15-3.92 40.47zm-49.17 18.29l5.12-5.19 7.63 3.37 6.55-4.4 6.52 4.4 7.63-3.37 5.12 5.19 8.4-2.23.57.94a71.25 71.25 0 01-2.92 6.68l-4.75 1.26-5.46-5.54-8.18 3.6-6.95-4.65-6.95 4.65-8.2-3.6-5.43 5.54-5.06-1.34a66.67 66.67 0 01-2.77-6.31l.71-1.23zm12.75 9.59l6.55-4.4 6.52 4.4 7.63-3.37 5.12 5.19 3.14-.83a39.87 39.87 0 01-4 5.28l-3.32-3.34-8.18 3.6-6.95-4.65-6.95 4.65-8.2-3.6-3.43 3.48a39.12 39.12 0 01-4.15-5.51l3.43.91 5.12-5.19zm13.06 11.42l7.63-3.37 1.2 1.2c-9.32 7.68-21.5 7.71-30.82.11l1.29-1.31 7.63 3.37 6.55-4.4zm139.45-39.27a100.23 100.23 0 00-60 0 190.21 190.21 0 01-3.83-40.47c21.81-6.91 30.1-11.22 33.85-13.33 3.74 2.11 12 6.42 33.88 13.33 0 1.26.31 21.15-3.92 40.47zm-21.76-22l-5.09 5.08 5.46 5.45 5.09-5.08 5.09 5.08 5.43-5.45-5.09-5.08 5.09-5.08-5.43-5.42-5.09 5.08-5.09-5.08-5.46 5.42zm-33-5.08l5.09 5.08-5.09 5.08 5.43 5.45 5.09-5.08 5.12 5.08 5.43-5.45-5.09-5.08 5.09-5.08-5.43-5.42-5.12 5.08-5.09-5.08zm-18.97-20.66c0 1.66-.49 26.68 5.23 50.63-.91.34-1.83.71-2.74 1.08 3.12 11.87 6.75 23.72 14.44 33.56 14.44 18.49 39.28 18.49 53.69 0 7.69-9.85 11.32-21.69 14.44-33.56-.94-.37-1.86-.74-2.8-1.08 5.75-23.94 5.32-49 5.32-50.63-28.22-9-38.94-14.5-43.8-17.24-4.83 2.74-15.55 8.28-43.77 17.24zm17 68.72l16.44-16.41c2.89-.31 5.83-.49 8.75-.54l-22.44 22.4c-1-1.74-1.89-3.57-2.74-5.45zm5.09 9.19l21.64-21.63 21.67 21.63a35 35 0 01-3.4 4.28l-18.27-18.27-18.27 18.24a32.43 32.43 0 01-3.37-4.25zm45.63-3.74l-22.44-22.4c2.94.06 5.86.23 8.78.54l16.41 16.41a57.18 57.18 0 01-2.74 5.45zm-55-17.29a87.33 87.33 0 0113.66-3.57l-11.15 11.1c-.91-2.43-1.77-5-2.52-7.53zm15.89 28.23l15.12-15.13 15.16 15.12a30.65 30.65 0 01-4.66 3l-10.49-10.47-10.46 10.47a29.31 29.31 0 01-4.66-3zm15.12-1.43l6.09 6.11a23.2 23.2 0 01-12.18 0zm28.5-19.26l-11.12-11.1a87.33 87.33 0 0113.66 3.57c-.77 2.6-1.6 5.11-2.54 7.53zm117.52-16.7a100.23 100.23 0 00-60 0c-2.89-13.21-3.86-26.94-3.86-40.47 21.84-6.91 30.13-11.22 33.88-13.33 3.74 2.11 12 6.42 33.85 13.33 0 1.26.34 21.15-3.89 40.47zm-20.27 32.82a2.23 2.23 0 102.23 2.23 2.23 2.23 0 00-2.23-2.23zm-9.69-.46a2.23 2.23 0 102.23 2.23 2.23 2.23 0 00-2.23-2.23zm-9.69.46a2.23 2.23 0 102.23 2.23 2.23 2.23 0 00-2.23-2.23zm-9.32-10.1a2.23 2.23 0 102.23 2.23 2.23 2.23 0 00-2.23-2.23zm9.32-1.31a2.23 2.23 0 102.23 2.23 2.23 2.23 0 00-2.23-2.23zm9.69-.46a2.23 2.23 0 102.23 2.23 2.23 2.23 0 00-2.23-2.23zm9.69.46a2.23 2.23 0 102.23 2.23 2.23 2.23 0 00-2.23-2.23zm9.32 1.31a2.23 2.23 0 102.23 2.23 2.24 2.24 0 00-2.23-2.23zm0-11.42a2.23 2.23 0 102.23 2.23 2.24 2.24 0 00-2.14-2.25zm-9.32-1.31a2.23 2.23 0 102.23 2.23 2.23 2.23 0 00-2.23-2.23zm-9.69-.46a2.23 2.23 0 102.23 2.23 2.23 2.23 0 00-2.23-2.23zm-9.69.46a2.23 2.23 0 102.23 2.23 2.23 2.23 0 00-2.23-2.23zm-9.32 1.31a2.23 2.23 0 102.23 2.23 2.23 2.23 0 00-2.23-2.23zm27.84-33.16l-5.09 5.08 5.46 5.45 5.09-5.08 5.09 5.08 5.43-5.45-5.09-5.08 5.09-5.08-5.43-5.45-5.09 5.11-5.09-5.11-5.46 5.45zm-35-.06a11.31 11.31 0 0011.35 11.3 13 13 0 001.49-.09 11.33 11.33 0 00-.49-22.52h-1a11.31 11.31 0 00-11.35 11.33zm14.92 0a3.59 3.59 0 11-3.57-3.6 3.57 3.57 0 013.57 3.6zm-32.53-25.8c0 1.66-.46 26.68 5.26 50.63-.91.34-1.83.71-2.74 1.08 3.12 11.87 6.75 23.72 14.41 33.56 14.44 18.49 39.28 18.49 53.72 0 7.69-9.85 11.32-21.69 14.44-33.56-.94-.37-1.89-.74-2.8-1.08 5.75-23.94 5.29-49 5.29-50.63-28.22-9-38.94-14.5-43.77-17.24-4.86 2.74-15.58 8.28-43.8 17.24zm12.75 56.88a96.68 96.68 0 0162.06 0c-.49 1.68-1 3.31-1.57 4.94a2.18 2.18 0 00-1.6-.68 2.24 2.24 0 000 4.48h.2c-2.26 5.71-5.37 11.76-9.52 16.32a2.2 2.2 0 00-1.72 1.74c-9.92 9.28-23.7 9.28-33.65 0a2.16 2.16 0 00-1.72-1.74c-4.15-4.57-7.23-10.62-9.49-16.32h.17a2.24 2.24 0 10-1.6-3.8c-.54-1.63-1.06-3.25-1.57-4.94zm132.3-43a11.33 11.33 0 100 22.66 12.55 12.55 0 001.49-.11 11.33 11.33 0 00-.49-22.52h-1zm20.15 65.58a8 8 0 002.92 1.28 9.17 9.17 0 003.32-.8c3-1.14 5.6-1.83 8.4.17l.11-.14a40.56 40.56 0 002.74-4 9.69 9.69 0 01-3.95-2.63 5.83 5.83 0 00-2.34-1.63 7.33 7.33 0 00-3.49.77c-4.32 1.6-5.95 1.54-9.92-.83-2.83-1.68-3.26-1.68-6.06 0-4 2.37-5.6 2.43-9.92.83a7.39 7.39 0 00-3.49-.77 5.83 5.83 0 00-2.34 1.63 9 9 0 01-4.15 2.68 39.48 39.48 0 002.72 3.91l.2.26c2.86-2.11 5.46-1.46 8.58-.29a9.17 9.17 0 003.32.8 8 8 0 002.92-1.28c4.23-2.54 6.23-2.54 10.46 0zm11.72 3.88a1.82 1.82 0 00-.51-.17 7.33 7.33 0 00-3.49.77c-4.32 1.6-5.95 1.54-9.92-.83-2.83-1.68-3.26-1.68-6.06 0-4 2.37-5.6 2.43-9.92.83a7.39 7.39 0 00-3.49-.77 1.69 1.69 0 00-.69.26c10 9.53 24.07 9.5 34.08-.09zm-11.72-15.3a8 8 0 002.92 1.28 9.17 9.17 0 003.32-.8c4.6-1.74 6.6-1.66 10.26 1.74a6.2 6.2 0 002.29 1.63 3.49 3.49 0 001 .11 73.39 73.39 0 003.34-7.59c-4.46.88-6.15.66-9.52-2.48a5.83 5.83 0 00-2.34-1.63 7.33 7.33 0 00-3.49.77c-4.32 1.6-5.95 1.54-9.92-.83-2.83-1.68-3.26-1.68-6.06 0-4 2.37-5.6 2.43-9.92.83a7.39 7.39 0 00-3.49-.77 5.83 5.83 0 00-2.34 1.63c-3.34 3.14-5.06 3.37-9.52 2.48l-.29-.06a73.89 73.89 0 003.34 7.62 3.6 3.6 0 001.26-.09 6.2 6.2 0 002.29-1.63c3.66-3.4 5.66-3.48 10.26-1.74a9.17 9.17 0 003.32.8 8 8 0 002.92-1.28c4.23-2.54 6.23-2.54 10.46 0zm0-11.42a8 8 0 002.92 1.28 9.17 9.17 0 003.32-.8c4.6-1.74 6.6-1.66 10.26 1.74a6.21 6.21 0 002.29 1.63 8.41 8.41 0 003.49-.26 23.23 23.23 0 012.46-.4l.94-3a96.68 96.68 0 00-62.06 0c.29 1 .6 2 .91 3 .94.09 1.83.26 2.74.43a8.38 8.38 0 003.49.26 6.2 6.2 0 002.29-1.63c3.66-3.4 5.66-3.48 10.26-1.74a9.17 9.17 0 003.32.8 8 8 0 002.92-1.28c4.23-2.54 6.23-2.54 10.46 0zm35.91-5c-3.12 11.87-6.75 23.72-14.41 33.56-14.44 18.49-39.28 18.49-53.72 0-7.69-9.85-11.32-21.69-14.44-33.56.91-.37 1.83-.74 2.74-1.08-5.72-23.94-5.23-49-5.23-50.63 28.22-9 38.94-14.5 43.77-17.24 4.86 2.74 15.58 8.28 43.8 17.24 0 1.66.43 26.68-5.32 50.63.94.34 1.89.71 2.8 1.08zm-71.27-4a100.14 100.14 0 0159.95 0c4.23-19.32 3.92-39.21 3.92-40.47-21.84-6.91-30.13-11.22-33.88-13.33-3.74 2.11-12 6.42-33.85 13.33a188.4 188.4 0 003.86 40.47zm55.89-26.57H2167v7.65h21.93zm-40.68.51a3.58 3.58 0 11-3.6 3.6 3.6 3.6 0 013.6-3.6zm116-7.25a11.42 11.42 0 1011.44 11.42 11.42 11.42 0 00-11.44-11.42zm14.89-31.65c-4.83 2.74-15.58 8.28-43.8 17.24 0 1.66-.46 26.68 5.26 50.63-.91.34-1.83.71-2.74 1.08 3.12 11.87 6.75 23.72 14.44 33.56 14.41 18.49 39.25 18.49 53.69 0 7.69-9.85 11.32-21.69 14.44-33.56-.94-.37-1.89-.74-2.8-1.08 5.75-23.94 5.29-49 5.29-50.63-28.22-9-38.94-14.5-43.77-17.24zm-33.88 24.49c21.84-6.91 30.13-11.22 33.88-13.33 3.74 2.11 12 6.42 33.85 13.33 0 1.26.34 21.15-3.89 40.47a100.23 100.23 0 00-60 0c-2.89-13.21-3.86-26.94-3.86-40.47zm2.83 49.63a96.68 96.68 0 0162.06 0c-.46 1.6-1 3.17-1.49 4.68a104.15 104.15 0 00-59 .09c-.54-1.57-1.06-3.14-1.54-4.77zm3 8.79a99.89 99.89 0 0156.06-.09 65.13 65.13 0 01-2.8 6.22 104.91 104.91 0 00-50.49.06c-1-2-1.92-4.05-2.77-6.19zm4.95 10.07a100.53 100.53 0 0146.17-.06 50.21 50.21 0 01-3 4.34c-.43.54-.86 1-1.29 1.51a105.63 105.63 0 00-37.65.06c-.46-.51-.89-1-1.32-1.57a47.1 47.1 0 01-2.94-4.28zm8.15 9.53a101.75 101.75 0 0129.87 0 23.56 23.56 0 01-29.87 0zm29.79-70.86a11.42 11.42 0 1011.43 11.42 11.45 11.45 0 00-11.43-11.42zm-3.63 11.42a3.62 3.62 0 113.63 3.62 3.63 3.63 0 01-3.63-3.62zm-29.76 0a3.62 3.62 0 113.63 3.62 3.63 3.63 0 01-3.63-3.62zm93.28 25.89c3.12 11.87 6.75 23.72 14.44 33.56 14.44 18.49 39.28 18.49 53.72 0 7.66-9.85 11.32-21.69 14.41-33.56a77.4 77.4 0 00-2.8-1.08c5.75-23.94 5.32-49 5.32-50.63-28.22-9-38.94-14.5-43.8-17.24-4.83 2.74-15.55 8.28-43.77 17.24 0 1.66-.46 26.68 5.23 50.63l-2.74 1.08zm54.4 9.16a4.23 4.23 0 104.23-4.22 4.24 4.24 0 00-4.23 4.22zm4.23 1.4a1.4 1.4 0 01-1.37-1.4 1.37 1.37 0 111.37 1.4zm0 5.79a4.24 4.24 0 104.23 4.22 4.25 4.25 0 00-4.23-4.22zm-1.37 4.22a1.37 1.37 0 111.37 1.4 1.4 1.4 0 01-1.37-1.4zm-16 5.79a4.22 4.22 0 104.23 4.22 4.24 4.24 0 00-4.23-4.22zm-1.37 4.22a1.37 1.37 0 011.37-1.37 1.37 1.37 0 110 2.74 1.37 1.37 0 01-1.37-1.37zm-2.86-22.83a4.23 4.23 0 104.23-4.22 4.24 4.24 0 00-4.23 4.22zm2.86 0a1.37 1.37 0 011.37-1.37 1.37 1.37 0 110 2.74 1.37 1.37 0 01-1.37-1.37zm1.37 7.19a4.22 4.22 0 104.23 4.22 4.24 4.24 0 00-4.23-4.22zm-1.37 4.22a1.37 1.37 0 011.37-1.37 1.37 1.37 0 110 2.74 1.37 1.37 0 01-1.37-1.37zm-16-2.83a4.24 4.24 0 104.23 4.22 4.26 4.26 0 00-4.23-4.22zm0 2.85a1.38 1.38 0 11-1.4 1.37 1.39 1.39 0 011.4-1.37zm1.37-10a1.39 1.39 0 11-1.37-1.37 1.4 1.4 0 011.37 1.37zm-5.63 0a4.25 4.25 0 104.26-4.22 4.27 4.27 0 00-4.26 4.22zm37.42-48.77l-13.58 13.56 13.58 13.56 5.43-5.45-8.12-8.11 8.12-8.11zm-26.53 0l-13.58 13.56 13.58 13.56 5.43-5.45-8.12-8.11 8.12-8.11zm40.65 35.62a100.14 100.14 0 00-59.95 0c-2.89-13.21-3.86-26.94-3.86-40.47 21.81-6.91 30.1-11.22 33.85-13.33 3.74 2.11 12 6.42 33.88 13.33 0 1.26.34 21.15-3.92 40.47zm-49.83 32.62c-5.29-6.62-8.78-15.38-11.15-23.46a96.68 96.68 0 0162.06 0c-2.37 8.08-5.86 16.84-11.18 23.46a4.23 4.23 0 00-6 5.74 23.41 23.41 0 01-27.64 0 4.24 4.24 0 00-6.06-5.74zm1.92 2.17a1.37 1.37 0 011.86 1.8 34.92 34.92 0 01-1.86-1.8zm34 1.77a1.37 1.37 0 011.89-1.77 22 22 0 01-1.89 1.77zm129.93-36.56a100.23 100.23 0 00-60 0c-2.89-13.21-3.86-26.94-3.86-40.47 21.84-6.91 30.13-11.22 33.88-13.33 3.74 2.11 12 6.42 33.88 13.33 0 1.26.31 21.15-3.92 40.47zm-40.39 32.65l.43 4.25a101.65 101.65 0 0120 .14l.43-4.22a106 106 0 00-20.84-.17zm0-22.55l.43 4.25a101.66 101.66 0 0120 .14l.43-4.22a106 106 0 00-20.84-.17zm26-41.87l-13.58 13.56 5.46 5.42 8.12-8.11 8.15 8.11 5.43-5.42zm-30.82 0l-13.58 13.56 5.43 5.42 8.15-8.11 8.12 8.11 5.43-5.42zm-28.53-16c0 1.66-.46 26.68 5.26 50.63-.91.34-1.83.71-2.74 1.08 3.12 11.87 6.75 23.72 14.44 33.56 14.44 18.49 39.25 18.49 53.69 0 7.69-9.85 11.32-21.69 14.44-33.56-.94-.37-1.86-.74-2.8-1.08 5.75-23.94 5.32-49 5.29-50.63-28.22-9-38.94-14.5-43.77-17.24-4.83 2.74-15.55 8.28-43.8 17.24zm12.75 56.88a96.68 96.68 0 0162.06 0c-.49 1.71-1 3.37-1.6 5a94.61 94.61 0 00-13.35-3.14l-.43 4.25a93.81 93.81 0 0112.29 2.88c-.83 2.05-1.72 4-2.69 5.91a102.32 102.32 0 00-22.38-3v4.28a98.82 98.82 0 0120.24 2.63 40.36 40.36 0 01-4.43 6.08c-.86-.17-1.74-.31-2.6-.46l-.34 3.28c-9.46 8-22 8-31.47 0l-.37-3.54c-.91.14-1.86.29-2.77.46a41.08 41.08 0 01-4.17-5.76 98.32 98.32 0 0120.21-2.65v-4.28a103.07 103.07 0 00-22.38 3.05c-1-2-2-4.17-2.86-6.39a94 94 0 0112.41-2.71l-.43-4.25a100.89 100.89 0 00-13.46 2.94c-.51-1.48-1-3-1.46-4.57zm151.01-35.13v7.68h22.13v-7.68zm-29.39 0v7.68h22.1v-7.68zm-18.19-21.63c0 1.66-.46 26.68 5.26 50.63-.91.34-1.83.71-2.77 1.08 3.12 11.87 6.78 23.72 14.44 33.56 14.44 18.49 39.28 18.49 53.72 0 7.66-9.85 11.32-21.69 14.41-33.56-.91-.37-1.86-.74-2.77-1.08 5.72-23.94 5.29-49 5.29-50.63-28.22-9-38.94-14.5-43.8-17.24-4.83 2.74-15.55 8.28-43.77 17.24zm54.14 52.31a94.61 94.61 0 019.46 1.48c-2.06 9.53-6.72 29-14.67 35.1 3.52-10 4.4-25.94 5.2-36.59zm-30.19 1.46q4.67-.94 9.43-1.46c.83 10.67 1.72 26.57 5.23 36.59-7.95-6.11-12.61-25.57-14.67-35.13zm13.72-1.83a108.85 108.85 0 0112.21 0c-.43 5.76-3 35.56-5.75 38.64a3 3 0 01-.71 0c-2.74-3.08-5.32-32.88-5.75-38.64zm-17.9 2.83c2.17 10.13 5.49 23.4 11.38 32.14-9.89-6.22-15.27-19.32-18.41-30 2.29-.8 4.66-1.51 7-2.11zm36.59 32.14c5.92-8.73 9.21-22 11.41-32.14 2.37.6 4.72 1.31 7 2.11-3.14 10.7-8.52 23.83-18.44 30zM1206.16 3425.67a100 100 0 00-60 0 190.41 190.41 0 01-3.86-40.47c21.84-6.94 30.13-11.22 33.88-13.33 3.74 2.11 12 6.39 33.85 13.33 0 1.26.34 21.12-3.89 40.47zm-393-33.31a11.42 11.42 0 1011.43 11.42 11.42 11.42 0 00-11.43-11.42zm14.84-31.65c-4.83 2.71-15.55 8.28-43.8 17.24 0 1.63-.46 26.66 5.26 50.63-.91.34-1.83.68-2.74 1.06 3.12 11.87 6.75 23.74 14.44 33.59 14.44 18.49 39.25 18.49 53.69 0 7.69-9.85 11.32-21.69 14.44-33.56-.94-.4-1.86-.74-2.8-1.11 5.75-23.94 5.32-49 5.29-50.6-28.22-9-38.94-14.53-43.77-17.24zm-33.88 24.49c21.84-6.94 30.13-11.22 33.88-13.33 3.74 2.11 12 6.39 33.88 13.33 0 1.26.31 21.12-3.92 40.47a100 100 0 00-60 0 190.41 190.41 0 01-3.86-40.47zm2.86 49.63a96.59 96.59 0 0162 0 84.78 84.78 0 01-1.49 4.68 103.9 103.9 0 00-59 .09 97.92 97.92 0 01-1.52-4.77zm3 8.76a99.89 99.89 0 0156.06-.06 83.63 83.63 0 01-2.77 6.22 104.67 104.67 0 00-50.51.06c-1-2-1.92-4.05-2.77-6.22zm4.95 10.07a101.32 101.32 0 0146.17-.06 48.76 48.76 0 01-3 4.37l-1.29 1.51a105.63 105.63 0 00-37.65.06c-.46-.51-.89-1-1.32-1.57a43.87 43.87 0 01-2.94-4.31zm8.18 9.56a101.56 101.56 0 0129.85 0 23.56 23.56 0 01-29.85 0zm29.76-70.86a11.42 11.42 0 1011.43 11.42 11.42 11.42 0 00-11.43-11.42zm-3.63 11.42a3.63 3.63 0 113.63 3.62 3.63 3.63 0 01-3.63-3.62zm-29.76 0a3.63 3.63 0 113.63 3.62 3.63 3.63 0 01-3.63-3.62zm93.31 25.86c3.09 11.87 6.75 23.74 14.41 33.59 14.44 18.49 39.28 18.49 53.72 0 7.66-9.85 11.32-21.69 14.41-33.56-.91-.4-1.86-.74-2.77-1.11 5.75-23.94 5.29-49 5.29-50.6-28.22-9-38.94-14.53-43.77-17.24-4.86 2.71-15.58 8.28-43.8 17.24 0 1.63-.46 26.66 5.26 50.63-.91.34-1.83.68-2.74 1.06zm54.37 9.19a4.23 4.23 0 104.23-4.22 4.24 4.24 0 00-4.23 4.22zm4.23 1.37a1.37 1.37 0 01-1.37-1.37 1.39 1.39 0 011.37-1.37 1.37 1.37 0 011.37 1.37 1.35 1.35 0 01-1.37 1.37zm0 5.82a4.22 4.22 0 104.23 4.22 4.25 4.25 0 00-4.23-4.22zm-1.37 4.22a1.39 1.39 0 011.37-1.37 1.37 1.37 0 011.37 1.37 1.35 1.35 0 01-1.37 1.37 1.37 1.37 0 01-1.37-1.37zm-16 5.79a4.22 4.22 0 104.26 4.22 4.24 4.24 0 00-4.26-4.22zm-1.37 4.22a1.39 1.39 0 012.77 0 1.39 1.39 0 01-2.77 0zm-2.86-22.83a4.25 4.25 0 104.23-4.22 4.24 4.24 0 00-4.23 4.22zm2.86 0a1.39 1.39 0 012.77 0 1.39 1.39 0 01-2.77 0zm1.37 7.19a4.22 4.22 0 104.26 4.22 4.24 4.24 0 00-4.26-4.22zm-1.37 4.22a1.39 1.39 0 012.77 0 1.39 1.39 0 01-2.77 0zm-16-2.83a4.22 4.22 0 104.23 4.22 4.22 4.22 0 00-4.23-4.22zm0 2.85a1.39 1.39 0 011.37 1.37 1.37 1.37 0 01-1.37 1.37 1.35 1.35 0 01-1.37-1.37 1.37 1.37 0 011.37-1.37zm1.37-10a1.37 1.37 0 01-1.37 1.37 1.35 1.35 0 01-1.37-1.37 1.37 1.37 0 011.37-1.37 1.39 1.39 0 011.37 1.37zm-5.6 0a4.23 4.23 0 104.23-4.22 4.22 4.22 0 00-4.23 4.22zm37.49-48.85l-13.58 13.56 13.58 13.56 5.43-5.45-8.12-8.11 8.12-8.11zm-26.53 0l-13.58 13.6 13.58 13.56 5.43-5.45-8.12-8.11 8.12-8.11zm40.62 35.67a99.92 99.92 0 00-59.95 0 190.41 190.41 0 01-3.86-40.47c21.81-6.94 30.13-11.22 33.88-13.33 3.72 2.11 12 6.39 33.85 13.33 0 1.26.34 21.12-3.92 40.47zm-49.83 32.59c-5.29-6.59-8.78-15.38-11.15-23.43a96.68 96.68 0 0162.06 0c-2.37 8-5.86 16.84-11.15 23.43a4.25 4.25 0 00-6.06 5.76 23.41 23.41 0 01-27.64 0c2.63-3.91-2.26-8.56-6.06-5.76zm1.92 2.17a1.37 1.37 0 011.86 1.8 21.88 21.88 0 01-1.86-1.8zm34.08 1.8a1.37 1.37 0 011.86-1.8 21.88 21.88 0 01-1.86 1.8zm129.9-36.56a100 100 0 00-60 0 190.41 190.41 0 01-3.86-40.47c21.84-6.94 30.13-11.22 33.88-13.33 3.74 2.11 12 6.39 33.88 13.33 0 1.26.31 21.12-3.92 40.47zm-40.39 32.65l.43 4.25a101.66 101.66 0 0120 .14l.43-4.22a106 106 0 00-20.84-.17zm0-22.55l.43 4.25a101.66 101.66 0 0120 .14l.43-4.22a106 106 0 00-20.84-.17zm26-41.87l-13.55 13.56 5.43 5.42 8.12-8.11 8.15 8.11 5.43-5.42zm-30.82 0l-13.58 13.56 5.46 5.42 8.12-8.11 8.12 8.11 5.46-5.42zm-28.5-16c0 1.63-.49 26.66 5.23 50.63-.91.34-1.83.68-2.74 1.06 3.12 11.87 6.75 23.74 14.44 33.59 14.44 18.49 39.25 18.49 53.69 0 7.69-9.85 11.32-21.69 14.44-33.56-.94-.4-1.86-.74-2.8-1.11 5.75-23.94 5.32-49 5.32-50.6-28.24-9-39-14.53-43.8-17.24-4.83 2.71-15.55 8.28-43.77 17.24zm12.75 56.88a96.59 96.59 0 0162 0c-.49 1.68-1 3.37-1.6 5a97.67 97.67 0 00-13.35-3.11l-.43 4.22a93.89 93.89 0 0112.29 2.91q-1.24 3.08-2.66 5.91a102.58 102.58 0 00-22.41-3v4.29a98.78 98.78 0 0120.24 2.6 42.11 42.11 0 01-4.43 6.11c-.86-.17-1.72-.31-2.6-.46l-.31 3.28c-9.49 8-22 8-31.5 0l-.35-3.53-2.77.43a39.49 39.49 0 01-4.17-5.76 100.32 100.32 0 0120.21-2.65v-4.28a104.88 104.88 0 00-22.36 3.08 68.79 68.79 0 01-2.89-6.39 95 95 0 0112.41-2.71l-.43-4.25a96.62 96.62 0 00-13.46 2.94c-.51-1.51-1-3-1.43-4.57zm150.83-35.25v7.68h22.13v-7.68zm-29.39 0v7.68h22.1v-7.68zm-18.15-21.63c0 1.63-.46 26.66 5.26 50.63-.91.34-1.83.68-2.74 1.06 3.09 11.87 6.75 23.74 14.41 33.59 14.44 18.49 39.28 18.49 53.72 0 7.66-9.85 11.32-21.69 14.44-33.56-.94-.4-1.89-.74-2.8-1.11 5.75-23.94 5.29-49 5.29-50.6-28.22-9-38.94-14.53-43.77-17.24-4.86 2.71-15.58 8.28-43.8 17.24zm54.17 52.31a95.28 95.28 0 019.43 1.46c-2.06 9.56-6.72 29-14.67 35.13 3.52-10 4.4-25.94 5.23-36.59zm-30.22 1.46a94.55 94.55 0 019.46-1.46c.8 10.65 1.69 26.54 5.2 36.59-7.95-6.11-12.61-25.57-14.67-35.13zm13.72-1.83a96.78 96.78 0 0112.21 0c-.43 5.76-3 35.56-5.75 38.64h-.71c-2.74-3.08-5.32-32.88-5.75-38.64zm-17.9 2.8c2.2 10.16 5.49 23.43 11.41 32.14-9.92-6.19-15.29-19.32-18.44-30q3.47-1.2 7-2.14zm36.62 32.14c5.89-8.7 9.21-22 11.38-32.14a90.4 90.4 0 017 2.14c-3.14 10.67-8.52 23.8-18.41 30zM2134.65 3425.67a99.92 99.92 0 00-59.95 0 190.41 190.41 0 01-3.86-40.47c21.81-6.94 30.1-11.22 33.85-13.33 3.74 2.11 12 6.39 33.88 13.33 0 1.26.34 21.12-3.92 40.47zm-886.18-47.72c0 1.63-.49 26.66 5.23 50.63-.91.34-1.83.68-2.74 1.06 3.12 11.87 6.75 23.74 14.44 33.59 14.44 18.49 39.25 18.49 53.69 0 7.69-9.85 11.32-21.69 14.44-33.56-.94-.4-1.86-.74-2.8-1.11 5.75-23.94 5.32-49 5.32-50.6-28.22-9-39-14.53-43.8-17.24-4.83 2.71-15.55 8.28-43.77 17.24zm48.31 17.15l8.12 8.11-8.12 8.13 5.43 5.42 13.58-13.56-13.58-13.53zm-18.41 8.11l-8.12 8.13 5.43 5.42 13.58-13.56-13.58-13.53-5.43 5.42zm-17.15 31.62a96.68 96.68 0 0162.06 0l-.8 2.6-.4-.66-9.12 2.4-5.46-5.54-8.18 3.6-6.95-4.65-6.95 4.65-8.2-3.6-5.43 5.54-9.12-2.4-.57.94-.89-2.88zm61-9.16a100 100 0 00-60 0 192.28 192.28 0 01-3.86-40.47c21.84-6.94 30.13-11.22 33.88-13.33 3.74 2.11 12 6.39 33.88 13.33 0 1.26.31 21.12-3.92 40.47zm-49.11 18.27l5.12-5.19 7.63 3.34 6.55-4.37 6.52 4.37 7.63-3.34 5.12 5.19 8.4-2.23.57.94a75.14 75.14 0 01-2.92 6.68l-4.75 1.26-5.46-5.54-8.18 3.6-6.95-4.65-6.95 4.65-8.2-3.6-5.43 5.54-5.06-1.34c-1-2-1.94-4.14-2.77-6.31l.71-1.23zm12.75 9.56l6.55-4.37 6.52 4.37 7.63-3.34 5.12 5.19 3.14-.83a42.52 42.52 0 01-4 5.28l-3.32-3.34-8.18 3.6-6.95-4.65-6.95 4.65-8.2-3.6-3.43 3.48a39.12 39.12 0 01-4.15-5.51l3.43.91 5.12-5.19zm13.06 11.42l7.63-3.34 1.2 1.2c-9.32 7.65-21.5 7.71-30.82.11l1.29-1.31 7.63 3.34 6.55-4.37zm139.45-39.24a100 100 0 00-60 0 190.38 190.38 0 01-3.83-40.47c21.81-6.94 30.1-11.22 33.85-13.33 3.74 2.11 12 6.39 33.88 13.33 0 1.26.31 21.12-3.92 40.47zm-21.76-22l-5.09 5.08 5.46 5.45 5.09-5.08 5.09 5.08 5.43-5.45-5.09-5.08 5.09-5.08-5.43-5.45-5.09 5.11-5.09-5.11-5.46 5.45zm-33-5.08l5.09 5.08-5.09 5.08 5.43 5.45 5.09-5.08 5.12 5.08 5.43-5.45-5.09-5.08 5.09-5.08-5.43-5.45-5.12 5.11-5.09-5.11zm-18.92-20.66c0 1.63-.49 26.66 5.23 50.63-.91.34-1.83.68-2.74 1.06 3.12 11.87 6.75 23.74 14.44 33.59 14.44 18.49 39.28 18.49 53.69 0 7.69-9.85 11.32-21.69 14.44-33.56-.94-.4-1.86-.74-2.8-1.11 5.75-23.94 5.32-49 5.32-50.6-28.22-9-39-14.53-43.8-17.24-4.83 2.71-15.55 8.28-43.77 17.24zm17 68.69l16.44-16.41c2.89-.29 5.83-.46 8.75-.51l-22.44 22.4q-1.46-2.61-2.74-5.48zm5.06 9.22l21.67-21.63 21.67 21.63a37 37 0 01-3.4 4.25l-18.27-18.24-18.27 18.24a40.33 40.33 0 01-3.4-4.25zm45.65-3.74l-22.44-22.4c2.94.06 5.86.23 8.78.51l16.41 16.41a54.45 54.45 0 01-2.74 5.48zm-55-17.29a87.33 87.33 0 0113.66-3.57l-11.15 11.1c-.91-2.43-1.77-5-2.52-7.53zm15.89 28.2l15.12-15.1 15.15 15.1a26 26 0 01-4.69 3l-10.46-10.45-10.49 10.43a25.78 25.78 0 01-4.66-3zm15.12-1.4l6.09 6.08a22.63 22.63 0 01-12.18 0zm28.5-19.26l-11.12-11.1a87.33 87.33 0 0113.66 3.57c-.77 2.57-1.6 5.11-2.54 7.53zm117.52-16.7a100 100 0 00-60 0 190.41 190.41 0 01-3.86-40.47c21.84-6.94 30.13-11.22 33.88-13.33 3.74 2.11 12 6.39 33.85 13.33 0 1.26.34 21.12-3.89 40.47zm-20.27 32.82a2.23 2.23 0 102.23 2.23 2.23 2.23 0 00-2.23-2.23zm-9.69-.46a2.23 2.23 0 102.23 2.23 2.23 2.23 0 00-2.23-2.23zm-9.69.46a2.23 2.23 0 102.23 2.23 2.23 2.23 0 00-2.23-2.23zm-9.32-10.1a2.23 2.23 0 102.23 2.23 2.23 2.23 0 00-2.23-2.23zm9.32-1.31a2.23 2.23 0 102.23 2.23 2.23 2.23 0 00-2.23-2.23zm9.69-.46a2.23 2.23 0 102.23 2.23 2.23 2.23 0 00-2.23-2.23zm9.69.46a2.23 2.23 0 102.23 2.23 2.23 2.23 0 00-2.23-2.23zm9.32 1.31a2.23 2.23 0 102.23 2.23 2.24 2.24 0 00-2.23-2.23zm0-11.42a2.23 2.23 0 102.23 2.23 2.24 2.24 0 00-2.23-2.23zm-9.32-1.31a2.23 2.23 0 102.23 2.23 2.23 2.23 0 00-2.23-2.23zm-9.69-.46a2.23 2.23 0 102.23 2.23 2.23 2.23 0 00-2.23-2.23zm-9.69.46a2.23 2.23 0 102.23 2.23 2.23 2.23 0 00-2.23-2.23zm-9.32 1.31a2.23 2.23 0 102.23 2.23 2.23 2.23 0 00-2.23-2.23zm27.84-33.16l-5.09 5.08 5.43 5.42 5.12-5.08 5.09 5.08 5.43-5.42-5.09-5.08 5.09-5.08-5.43-5.45-5.09 5.08-5.09-5.08-5.46 5.45zm-35-.09a11.33 11.33 0 0011.35 11.33 13 13 0 001.49-.09 11.33 11.33 0 00-.49-22.52c-.34 0-.69-.06-1-.06a11.33 11.33 0 00-11.35 11.33zm14.92 0a3.59 3.59 0 11-3.57-3.6 3.58 3.58 0 013.57 3.6zm-32.53-25.77c0 1.63-.46 26.66 5.26 50.63-.91.34-1.83.68-2.74 1.06 3.12 11.87 6.75 23.74 14.41 33.59 14.44 18.49 39.28 18.49 53.72 0 7.69-9.85 11.32-21.69 14.44-33.56-.94-.4-1.89-.74-2.8-1.11 5.75-23.94 5.29-49 5.29-50.6-28.22-9-38.94-14.53-43.77-17.24-4.86 2.71-15.58 8.28-43.8 17.24zm12.75 56.88a96.68 96.68 0 0162.06 0c-.49 1.66-1 3.31-1.57 4.94a2.18 2.18 0 00-1.6-.68 2.23 2.23 0 100 4.45h.2c-2.26 5.68-5.37 11.76-9.52 16.32a2.2 2.2 0 00-1.72 1.74c-9.92 9.28-23.7 9.28-33.65 0a2.16 2.16 0 00-1.72-1.71c-4.15-4.57-7.23-10.65-9.49-16.32h.17a2.23 2.23 0 100-4.45 2.32 2.32 0 00-1.6.66c-.54-1.6-1.09-3.25-1.57-4.91zm132.3-43a11.32 11.32 0 100 22.63 12.61 12.61 0 001.49-.09 11.33 11.33 0 00-.49-22.52h-1zm20.15 65.55a7.15 7.15 0 002.92 1.28 8.13 8.13 0 003.32-.8c3-1.11 5.6-1.8 8.4.2l.11-.14a44.29 44.29 0 002.74-4 9.69 9.69 0 01-3.95-2.63 6.14 6.14 0 00-2.34-1.66 8.08 8.08 0 00-3.49.77c-4.32 1.63-5.95 1.57-9.92-.8-2.83-1.71-3.26-1.71-6.06 0-4 2.37-5.6 2.43-9.92.8a8.16 8.16 0 00-3.49-.77 5.94 5.94 0 00-2.34 1.66 9.18 9.18 0 01-4.15 2.68 43.11 43.11 0 002.72 3.91l.2.26c2.86-2.14 5.46-1.46 8.58-.31a8.13 8.13 0 003.32.8 7.15 7.15 0 002.92-1.28c4.23-2.51 6.23-2.51 10.46 0zm11.72 3.91a1.92 1.92 0 00-.51-.2 8.08 8.08 0 00-3.49.77c-4.32 1.63-5.95 1.57-9.92-.8-2.83-1.71-3.26-1.71-6.06 0-4 2.37-5.6 2.43-9.92.8a8.16 8.16 0 00-3.49-.77 2.34 2.34 0 00-.69.29c10 9.5 24.07 9.48 34.08-.09zm-11.75-15.28a7.15 7.15 0 002.92 1.28 8.13 8.13 0 003.32-.8c4.6-1.71 6.6-1.63 10.26 1.77a6.14 6.14 0 002.26 1.66 2.91 2.91 0 001 .09 70.27 70.27 0 003.34-7.56c-4.46.88-6.15.66-9.52-2.48a6.14 6.14 0 00-2.34-1.66 8.08 8.08 0 00-3.49.77c-4.32 1.63-5.95 1.57-9.92-.8-2.83-1.71-3.26-1.71-6.06 0-4 2.37-5.6 2.43-9.92.8a8.16 8.16 0 00-3.49-.77 5.94 5.94 0 00-2.34 1.66c-3.34 3.14-5.06 3.37-9.52 2.48l-.29-.06a73.88 73.88 0 003.34 7.62 4.44 4.44 0 001.26-.09 6 6 0 002.29-1.66c3.66-3.4 5.66-3.48 10.26-1.77a8.13 8.13 0 003.32.8 7.15 7.15 0 002.92-1.28c4.23-2.51 6.23-2.51 10.46 0zm0-11.42a7.15 7.15 0 002.92 1.28 8.13 8.13 0 003.32-.8c4.6-1.71 6.6-1.63 10.26 1.77a6.14 6.14 0 002.26 1.66 9 9 0 003.52-.26 23.23 23.23 0 012.46-.4l.94-3a96.68 96.68 0 00-62.06 0c.29 1 .6 2 .91 3a22 22 0 012.74.43 8.89 8.89 0 003.49.26 6 6 0 002.29-1.66c3.66-3.4 5.66-3.48 10.26-1.77a8.13 8.13 0 003.32.8 7.15 7.15 0 002.92-1.28c4.23-2.51 6.23-2.51 10.46 0zm35.91-4.94c-3.12 11.87-6.75 23.72-14.41 33.56-14.44 18.49-39.28 18.49-53.72 0-7.69-9.85-11.32-21.72-14.44-33.59.91-.37 1.83-.71 2.74-1.06-5.72-24-5.23-49-5.23-50.63 28.22-9 38.94-14.53 43.77-17.24 4.86 2.71 15.58 8.28 43.8 17.24 0 1.63.43 26.66-5.32 50.6.94.37 1.86.71 2.8 1.11zm-71.27-4a99.92 99.92 0 0159.95 0c4.23-19.35 3.92-39.21 3.92-40.47-21.84-6.94-30.13-11.22-33.88-13.33-3.74 2.11-12 6.39-33.85 13.33a188.57 188.57 0 003.86 40.47zm55.89-26.57h-21.93v7.62h21.93zm-40.68.51a3.58 3.58 0 11-3.6 3.57 3.6 3.6 0 013.6-3.57zm116-7.25a11.42 11.42 0 1011.43 11.42 11.42 11.42 0 00-11.43-11.42zm14.89-31.65c-4.86 2.71-15.58 8.28-43.8 17.24 0 1.63-.46 26.66 5.26 50.63-.91.34-1.83.68-2.74 1.06 3.12 11.87 6.75 23.74 14.44 33.59 14.41 18.49 39.25 18.49 53.69 0 7.69-9.85 11.32-21.69 14.44-33.56-.94-.4-1.89-.74-2.8-1.11 5.75-23.94 5.29-49 5.29-50.6-28.22-9-38.94-14.53-43.77-17.24zm-33.88 24.49c21.84-6.94 30.13-11.22 33.88-13.33 3.74 2.11 12 6.39 33.85 13.33 0 1.26.34 21.12-3.89 40.47a100 100 0 00-60 0 190.4 190.4 0 01-3.86-40.47zm2.83 49.63a96.68 96.68 0 0162.06 0c-.46 1.57-1 3.14-1.49 4.68a103.9 103.9 0 00-59 .09 126.3 126.3 0 01-1.54-4.77zm3 8.76a99.89 99.89 0 0156.06-.06 73.03 73.03 0 01-2.8 6.22 104.55 104.55 0 00-50.49.06c-1-2-1.92-4.05-2.77-6.22zm4.95 10.07a101.32 101.32 0 0146.17-.06 49 49 0 01-3 4.37c-.4.51-.83 1-1.26 1.51a105.63 105.63 0 00-37.65.06c-.46-.51-.89-1-1.32-1.57a43.88 43.88 0 01-2.94-4.31zm8.15 9.56a101.75 101.75 0 0129.87 0 23.6 23.6 0 01-29.87 0zm29.79-70.86a11.42 11.42 0 1011.43 11.42 11.45 11.45 0 00-11.43-11.42zm-3.63 11.42a3.62 3.62 0 113.63 3.62 3.63 3.63 0 01-3.63-3.62zm-29.76 0a3.62 3.62 0 113.63 3.62 3.63 3.63 0 01-3.63-3.62zm93.28 25.86c3.12 11.87 6.75 23.74 14.44 33.59 14.44 18.49 39.28 18.49 53.72 0 7.66-9.85 11.32-21.69 14.41-33.56-.91-.4-1.86-.74-2.8-1.11 5.75-23.94 5.32-49 5.32-50.6-28.22-9-38.94-14.53-43.8-17.24-4.83 2.71-15.55 8.28-43.77 17.24 0 1.63-.49 26.66 5.23 50.63-.89.34-1.83.68-2.74 1.06zm54.4 9.19a4.23 4.23 0 104.23-4.22 4.22 4.22 0 00-4.23 4.22zm4.23 1.37a1.37 1.37 0 111.37-1.37 1.35 1.35 0 01-1.37 1.37zm0 5.82a4.22 4.22 0 104.23 4.22 4.25 4.25 0 00-4.23-4.22zm-1.37 4.22a1.37 1.37 0 012.74 0 1.35 1.35 0 01-1.37 1.37 1.37 1.37 0 01-1.37-1.37zm-16 5.79a4.22 4.22 0 104.23 4.22 4.24 4.24 0 00-4.23-4.22zm-1.37 4.22a1.37 1.37 0 011.37-1.37 1.35 1.35 0 011.37 1.37 1.37 1.37 0 01-1.37 1.37 1.39 1.39 0 01-1.37-1.37zm-2.86-22.83a4.23 4.23 0 104.23-4.22 4.24 4.24 0 00-4.23 4.22zm2.86 0a1.37 1.37 0 011.37-1.37 1.35 1.35 0 011.37 1.37 1.37 1.37 0 01-1.37 1.37 1.39 1.39 0 01-1.37-1.37zm1.37 7.19a4.22 4.22 0 104.23 4.22 4.24 4.24 0 00-4.23-4.22zm-1.37 4.22a1.37 1.37 0 011.37-1.37 1.35 1.35 0 011.37 1.37 1.37 1.37 0 01-1.37 1.37 1.39 1.39 0 01-1.37-1.37zm-16-2.83a4.22 4.22 0 104.23 4.22 4.24 4.24 0 00-4.23-4.22zm0 2.85a1.39 1.39 0 011.37 1.37 1.39 1.39 0 01-2.77 0 1.4 1.4 0 011.4-1.37zm1.37-10a1.39 1.39 0 01-2.77 0 1.39 1.39 0 012.77 0zm-5.63 0a4.25 4.25 0 104.26-4.22 4.24 4.24 0 00-4.26 4.22zm37.42-48.77l-13.58 13.56 13.58 13.56 5.43-5.45-8.12-8.11 8.12-8.11zm-26.53 0l-13.58 13.56 13.58 13.56 5.43-5.45-8.12-8.11 8.12-8.11zm40.65 35.62a99.92 99.92 0 00-59.95 0 188.57 188.57 0 01-3.86-40.47c21.81-6.94 30.1-11.22 33.85-13.33 3.74 2.11 12 6.39 33.88 13.33 0 1.26.31 21.12-3.92 40.47zm-49.83 32.59c-5.29-6.59-8.78-15.38-11.15-23.43a96.68 96.68 0 0162.06 0c-2.37 8-5.86 16.84-11.18 23.43-3.74-2.8-8.69 1.83-6 5.76a23.45 23.45 0 01-27.67 0c2.66-3.91-2.23-8.56-6-5.76zm1.92 2.17a1.37 1.37 0 011.86 1.8 21.88 21.88 0 01-1.86-1.8zm34 1.8a1.38 1.38 0 011.89-1.8 18.57 18.57 0 01-1.89 1.8zm129.93-36.56a100 100 0 00-60 0 190.4 190.4 0 01-3.86-40.47c21.84-6.94 30.13-11.22 33.88-13.33 3.74 2.11 12 6.39 33.85 13.33 0 1.26.34 21.12-3.89 40.47zm-40.39 32.65l.43 4.25a101.66 101.66 0 0120 .14l.43-4.22a106 106 0 00-20.84-.17zm0-22.55l.43 4.25a101.66 101.66 0 0120 .14l.43-4.22a106 106 0 00-20.84-.17zm26-41.87l-13.58 13.56 5.46 5.42 8.12-8.11 8.12 8.11 5.46-5.42zm-30.82 0l-13.58 13.56 5.43 5.42 8.15-8.11 8.12 8.11 5.43-5.42zm-28.53-16c0 1.63-.46 26.66 5.26 50.63-.91.34-1.83.68-2.74 1.06 3.12 11.87 6.75 23.74 14.44 33.59 14.44 18.49 39.25 18.49 53.69 0 7.69-9.85 11.32-21.69 14.44-33.56-.94-.4-1.86-.74-2.8-1.11 5.75-23.94 5.29-49 5.29-50.6-28.22-9-38.94-14.53-43.77-17.24-4.83 2.71-15.58 8.28-43.8 17.24zm12.75 56.88a96.68 96.68 0 0162.06 0c-.49 1.68-1 3.37-1.6 5a98.67 98.67 0 00-13.35-3.11l-.43 4.22a93.89 93.89 0 0112.29 2.91c-.83 2.05-1.72 4-2.69 5.91a102.32 102.32 0 00-22.38-3v4.29a99 99 0 0120.24 2.6 42.1 42.1 0 01-4.43 6.11c-.86-.17-1.74-.31-2.6-.46l-.34 3.28c-9.46 8-22 8-31.47 0l-.37-3.51-2.77.43a39.5 39.5 0 01-4.17-5.76 100.32 100.32 0 0120.21-2.65v-4.28a104.89 104.89 0 00-22.38 3.08c-1-2-2-4.17-2.86-6.39a94 94 0 0112.41-2.71l-.43-4.25a96.62 96.62 0 00-13.46 2.94c-.51-1.51-1-3-1.46-4.57zm150.86-35.25v7.68h22.13v-7.68zm-29.39 0v7.68h22.1v-7.68zm-18.15-21.63c0 1.63-.46 26.66 5.26 50.63-.91.34-1.83.68-2.77 1.06 3.12 11.87 6.78 23.74 14.44 33.59 14.44 18.49 39.28 18.49 53.72 0 7.66-9.85 11.32-21.69 14.41-33.56-.91-.4-1.86-.74-2.77-1.11 5.72-23.94 5.29-49 5.29-50.6-28.22-9-38.94-14.53-43.8-17.24-4.83 2.71-15.55 8.28-43.77 17.24zm54.14 52.31a94.56 94.56 0 019.46 1.46c-2.06 9.56-6.72 29-14.67 35.13 3.52-10 4.4-25.94 5.2-36.59zm-30.19 1.46a95.28 95.28 0 019.43-1.46c.83 10.65 1.72 26.54 5.23 36.59-7.95-6.11-12.61-25.57-14.67-35.13zm13.72-1.83a96.78 96.78 0 0112.21 0c-.43 5.76-3 35.56-5.75 38.64h-.71c-2.77-3.08-5.32-32.88-5.75-38.64zm-17.9 2.8c2.17 10.16 5.49 23.43 11.38 32.14-9.89-6.19-15.27-19.32-18.41-30 2.29-.8 4.66-1.51 7-2.14zm36.59 32.14c5.92-8.7 9.21-22 11.41-32.14q3.56.94 7 2.14c-3.14 10.67-8.52 23.8-18.44 30zM2177 3377.95c0 1.63-.46 26.66 5.26 50.63-.91.34-1.83.68-2.74 1.06 3.12 11.87 6.75 23.74 14.44 33.59 14.44 18.49 39.25 18.49 53.69 0 7.69-9.85 11.32-21.69 14.44-33.56-.94-.4-1.86-.74-2.8-1.11 5.75-23.94 5.32-49 5.29-50.6-28.22-9-38.94-14.53-43.77-17.24-4.83 2.71-15.55 8.28-43.8 17.24zm48.31 17.15l8.15 8.11-8.15 8.13 5.46 5.42 13.58-13.56-13.58-13.53zm-18.38 8.11l-8.15 8.13 5.46 5.42 13.58-13.56-13.58-13.53-5.46 5.42zm-17.15 31.62a96.59 96.59 0 0162 0c-.26.86-.51 1.74-.8 2.6l-.37-.66-9.12 2.4-5.46-5.54-8.18 3.6-6.95-4.65-6.95 4.65-8.2-3.6-5.46 5.54-9.09-2.4-.57.94-.89-2.88zm61-9.16a100 100 0 00-60 0 190.41 190.41 0 01-3.86-40.47c21.84-6.94 30.13-11.22 33.88-13.33 3.74 2.11 12 6.39 33.88 13.33 0 1.26.31 21.12-3.92 40.47zm-49.11 18.27l5.12-5.19 7.63 3.34 6.55-4.37 6.52 4.37 7.63-3.34 5.12 5.19 8.4-2.23.57.94a75.14 75.14 0 01-2.92 6.68l-4.75 1.26-5.54-5.59-8.18 3.6-6.95-4.65-6.95 4.65-8.2-3.6-5.46 5.54-5-1.34c-1-2-1.94-4.14-2.8-6.31l.74-1.23zm12.75 9.56l6.55-4.37 6.52 4.37 7.63-3.34 5.12 5.19 3.14-.83a40.07 40.07 0 01-4 5.28l-3.29-3.34-8.18 3.6-6.95-4.65-6.95 4.65-8.2-3.6-3.43 3.48a37.22 37.22 0 01-4.17-5.51l3.46.91 5.12-5.19zm13.06 11.42l7.63-3.34 1.17 1.2c-9.29 7.65-21.47 7.71-30.79.11l1.29-1.31 7.63 3.34 6.55-4.37zm139.45-39.24a100 100 0 00-60 0 190.41 190.41 0 01-3.86-40.47c21.84-6.94 30.13-11.22 33.88-13.33 3.74 2.11 12 6.39 33.88 13.33 0 1.26.31 21.12-3.92 40.47zm-21.76-22l-5.09 5.08 5.43 5.45 5.09-5.08 5.12 5.08 5.43-5.45-5.09-5.08 5.09-5.08-5.43-5.45-5.12 5.11-5.09-5.11-5.43 5.45zm-33-5.08l5.09 5.08-5.09 5.08 5.43 5.45 5.09-5.08 5.09 5.08 5.46-5.45-5.09-5.08 5.09-5.08-5.46-5.45-5.09 5.11-5.09-5.11zm-19-20.66c0 1.63-.46 26.66 5.26 50.63-.91.34-1.83.68-2.74 1.06 3.12 11.87 6.75 23.74 14.44 33.59 14.44 18.49 39.25 18.49 53.69 0 7.69-9.85 11.32-21.69 14.44-33.56-.94-.4-1.86-.74-2.8-1.11 5.75-23.94 5.32-49 5.32-50.6-28.24-9-39-14.53-43.8-17.24-4.83 2.71-15.55 8.28-43.8 17.24zm17.07 68.69l16.44-16.41q4.33-.43 8.75-.51l-22.44 22.4q-1.46-2.61-2.74-5.48zm5.06 9.22l21.67-21.63 21.67 21.63a37 37 0 01-3.4 4.25l-18.27-18.24-18.27 18.24a37 37 0 01-3.4-4.25zm45.65-3.74l-22.44-22.4q4.42.09 8.75.51l16.44 16.41q-1.29 2.87-2.74 5.48zm-55-17.29a87 87 0 0113.64-3.57l-11.12 11.1c-.91-2.43-1.77-5-2.52-7.53zm15.89 28.2l15.12-15.1L2352 3463a24.82 24.82 0 01-4.66 3l-10.46-10.45-10.43 10.45a24.82 24.82 0 01-4.66-3zm15.12-1.4l6.09 6.08a22.63 22.63 0 01-12.18 0zm28.5-19.26l-11.12-11.1a87 87 0 0113.64 3.57 96.31 96.31 0 01-2.52 7.53zm117.49-16.7a99.92 99.92 0 00-59.95 0 190.41 190.41 0 01-3.86-40.47c21.81-6.94 30.13-11.22 33.88-13.33 3.74 2.11 12 6.39 33.85 13.33 0 1.26.34 21.12-3.92 40.47zm-20.24 32.82a2.23 2.23 0 102.23 2.23 2.21 2.21 0 00-2.23-2.23zm-9.71-.48a2.23 2.23 0 102.23 2.23 2.24 2.24 0 00-2.23-2.23zm-9.69.46a2.23 2.23 0 102.23 2.23 2.24 2.24 0 00-2.23-2.23zm-9.32-10.1a2.23 2.23 0 102.23 2.23 2.23 2.23 0 00-2.23-2.23zm9.32-1.31a2.23 2.23 0 102.23 2.23 2.24 2.24 0 00-2.23-2.23zm9.69-.46a2.23 2.23 0 102.23 2.23 2.24 2.24 0 00-2.23-2.23zm9.69.46a2.23 2.23 0 102.23 2.23 2.21 2.21 0 00-2.23-2.23zm9.29 1.31a2.23 2.23 0 102.23 2.23 2.23 2.23 0 00-2.23-2.23zm0-11.42a2.23 2.23 0 102.23 2.23 2.23 2.23 0 00-2.21-2.17zm-9.29-1.31a2.23 2.23 0 102.23 2.23 2.21 2.21 0 00-2.23-2.23zm-9.69-.46a2.23 2.23 0 102.23 2.23 2.24 2.24 0 00-2.23-2.23zm-9.69.46a2.23 2.23 0 102.23 2.23 2.24 2.24 0 00-2.23-2.23zM2434 3437a2.23 2.23 0 102.23 2.23 2.23 2.23 0 00-2.23-2.23zm27.84-33.16l-5.09 5.08 5.43 5.42 5.09-5.08 5.12 5.08 5.43-5.42-5.09-5.08 5.09-5.08-5.43-5.45-5.12 5.08-5.09-5.08-5.43 5.45zm-35-.09a11.35 11.35 0 0011.35 11.33 13.11 13.11 0 001.52-.09 11.33 11.33 0 00-.51-22.52c-.31 0-.66-.06-1-.06a11.35 11.35 0 00-11.35 11.33zm15 0a3.59 3.59 0 11-3.6-3.6 3.58 3.58 0 013.6 3.6zm-32.53-25.77c0 1.63-.46 26.66 5.26 50.63-.91.34-1.83.68-2.74 1.06 3.09 11.87 6.75 23.74 14.41 33.59 14.44 18.49 39.28 18.49 53.72 0 7.66-9.85 11.32-21.69 14.44-33.56-.94-.4-1.89-.74-2.8-1.11 5.75-23.94 5.29-49 5.29-50.6-28.22-9-38.94-14.53-43.77-17.24-4.86 2.71-15.58 8.28-43.8 17.24zm12.75 56.88a96.68 96.68 0 0162.06 0c-.49 1.66-1 3.31-1.57 4.94a2.18 2.18 0 00-1.6-.68 2.23 2.23 0 100 4.45h.2c-2.26 5.68-5.37 11.76-9.52 16.32a2.2 2.2 0 00-1.72 1.74c-9.95 9.28-23.7 9.28-33.65 0a2.16 2.16 0 00-1.72-1.71c-4.15-4.57-7.26-10.65-9.52-16.32h.2a2.23 2.23 0 100-4.45 2.27 2.27 0 00-1.6.66c-.54-1.6-1.09-3.25-1.57-4.91zm132.3-43a11.32 11.32 0 100 22.63 13 13 0 001.49-.09 11.33 11.33 0 00-.49-22.52h-1zm20.15 65.55a7.22 7.22 0 002.89 1.28 8.14 8.14 0 003.34-.8c3-1.11 5.57-1.8 8.4.2l.11-.14a44.26 44.26 0 002.74-4 9.69 9.69 0 01-3.95-2.63 6.14 6.14 0 00-2.34-1.66 8.08 8.08 0 00-3.49.77c-4.32 1.63-5.95 1.57-9.92-.8-2.83-1.71-3.26-1.71-6.06 0-4 2.37-5.63 2.43-9.95.8a8 8 0 00-3.46-.77 6.21 6.21 0 00-2.37 1.66 9.34 9.34 0 01-4.15 2.68 42.88 42.88 0 002.69 3.91l.23.26c2.86-2.14 5.46-1.46 8.58-.31a8.13 8.13 0 003.32.8 7.32 7.32 0 002.92-1.28c4.2-2.51 6.23-2.51 10.46 0zm11.72 3.91a3.1 3.1 0 00-.51-.2 8.08 8.08 0 00-3.49.77c-4.32 1.63-5.95 1.57-9.92-.8-2.83-1.71-3.26-1.71-6.06 0-4 2.37-5.63 2.43-9.95.8a8 8 0 00-3.46-.77 2.34 2.34 0 00-.69.29c10 9.5 24.07 9.48 34.08-.09zm-11.84-15.32a7.22 7.22 0 002.89 1.28 8.14 8.14 0 003.34-.8c4.6-1.71 6.6-1.63 10.26 1.77a6.45 6.45 0 002.29 1.66 2.85 2.85 0 001 .09 70.26 70.26 0 003.34-7.56c-4.46.88-6.15.66-9.52-2.48a6.14 6.14 0 00-2.34-1.66 8.08 8.08 0 00-3.49.77c-4.32 1.63-5.95 1.57-9.92-.8-2.83-1.71-3.26-1.71-6.06 0-4 2.37-5.63 2.43-9.95.8a8 8 0 00-3.46-.77 6.21 6.21 0 00-2.37 1.66c-3.34 3.14-5.06 3.37-9.52 2.48l-.31-.06a80.72 80.72 0 003.37 7.62 4.44 4.44 0 001.26-.09 6.21 6.21 0 002.29-1.66c3.66-3.4 5.63-3.48 10.26-1.77a8.13 8.13 0 003.32.8 7.32 7.32 0 002.92-1.28c4.2-2.51 6.23-2.51 10.46 0zm0-11.42a7.22 7.22 0 002.89 1.28 8.14 8.14 0 003.34-.8c4.6-1.71 6.6-1.63 10.26 1.77a6.45 6.45 0 002.29 1.66 8.85 8.85 0 003.49-.26 25 25 0 012.49-.4c.31-1 .63-2 .91-3a96.59 96.59 0 00-62 0c.29 1 .6 2 .91 3a22 22 0 012.74.43 8.89 8.89 0 003.49.26 6.21 6.21 0 002.29-1.66c3.66-3.4 5.63-3.48 10.26-1.77a8.13 8.13 0 003.32.8 7.32 7.32 0 002.92-1.28c4.2-2.51 6.23-2.51 10.46 0zm35.91-4.94c-3.12 11.87-6.75 23.72-14.44 33.56-14.44 18.49-39.25 18.49-53.69 0-7.69-9.85-11.32-21.72-14.44-33.59.91-.37 1.83-.71 2.74-1.06-5.72-24-5.23-49-5.23-50.63 28.22-9 38.94-14.53 43.77-17.24 4.83 2.71 15.55 8.28 43.8 17.24 0 1.63.43 26.66-5.32 50.6.94.37 1.86.71 2.8 1.11zm-71.3-4a100 100 0 0160 0c4.23-19.35 3.92-39.21 3.92-40.47-21.84-6.94-30.13-11.22-33.88-13.33-3.74 2.11-12 6.39-33.88 13.33a192.28 192.28 0 003.86 40.47zm55.92-26.57H2573v7.62h21.93zm-40.68.51a3.58 3.58 0 11-3.6 3.57 3.6 3.6 0 013.6-3.57zm116-7.25a11.42 11.42 0 1011.44 11.42 11.45 11.45 0 00-11.44-11.42zm14.89-31.65c-4.86 2.71-15.58 8.28-43.8 17.24 0 1.63-.46 26.66 5.26 50.63-.91.34-1.83.68-2.74 1.06 3.09 11.87 6.75 23.74 14.41 33.59 14.44 18.49 39.28 18.49 53.72 0 7.66-9.85 11.32-21.69 14.44-33.56-.94-.4-1.89-.74-2.8-1.11 5.75-23.94 5.29-49 5.29-50.6-28.22-9-38.94-14.53-43.77-17.24zm-33.88 24.49c21.84-6.94 30.13-11.22 33.88-13.33 3.74 2.11 12 6.39 33.85 13.33 0 1.26.34 21.12-3.89 40.47a100 100 0 00-60 0 190.41 190.41 0 01-3.86-40.47zm2.83 49.63a96.68 96.68 0 0162.06 0c-.46 1.57-1 3.14-1.49 4.68a104 104 0 00-59.06.09l-1.52-4.77zm3 8.76a100 100 0 0156.09-.06 83.8 83.8 0 01-2.8 6.22 104.55 104.55 0 00-50.49.06c-1-2-1.94-4.05-2.8-6.22zm5 10.07a101.32 101.32 0 0146.17-.06 49 49 0 01-3 4.37c-.4.51-.83 1-1.26 1.51a105.63 105.63 0 00-37.65.06c-.46-.51-.89-1-1.31-1.57a39.39 39.39 0 01-2.94-4.31zm8.15 9.56a101.75 101.75 0 0129.87 0 23.6 23.6 0 01-29.87 0zm29.76-70.86a11.42 11.42 0 1011.46 11.42 11.42 11.42 0 00-11.46-11.42zm-3.6 11.42a3.62 3.62 0 113.6 3.62 3.61 3.61 0 01-3.6-3.62zm-29.76 0a3.62 3.62 0 113.63 3.62 3.63 3.63 0 01-3.63-3.62z" transform="translate(-784.23 -3228.77)"/>
</svg>