<svg data-name="Layer 1" xmlns="http://www.w3.org/2000/svg" viewBox="0 0 234.5 40.35">
  <path fill="#ffffff"
        d="M34.39 36.16a22.68 22.68 0 0 1-13.58 4.2 23.57 23.57 0 0 1-8.6-1.48 19.64 19.64 0 0 1-6.55-4.11 18.36 18.36 0 0 1-4.2-6.31 21.67 21.67 0 0 1-1.46-8 22.34 22.34 0 0 1 1.43-8.11 17.81 17.81 0 0 1 4-6.34 18.81 18.81 0 0 1 6.35-4.08A22.92 22.92 0 0 1 20.16.47a23.67 23.67 0 0 1 4.4.37 23.07 23.07 0 0 1 3.74 1 17.66 17.66 0 0 1 5.89 3.62l-1.8 2.91a1.77 1.77 0 0 1-1.11.83 2 2 0 0 1-1.49-.31c-.51-.31-1.06-.63-1.66-1a12.24 12.24 0 0 0-2-1 13.84 13.84 0 0 0-2.63-.74 18.35 18.35 0 0 0-3.54-.29 14.48 14.48 0 0 0-5.57 1 11.51 11.51 0 0 0-4.23 2.88 12.5 12.5 0 0 0-2.72 4.59 17.12 17.12 0 0 0-1 6 18.33 18.33 0 0 0 1 6.22 13.31 13.31 0 0 0 2.86 4.68 12 12 0 0 0 4.49 2.91 15.83 15.83 0 0 0 5.83 1 16.42 16.42 0 0 0 4.32-.51 19.14 19.14 0 0 0 3.72-1.43v-7.76h-5.42a1.42 1.42 0 0 1-1-.34 1.18 1.18 0 0 1-.34-.88v-3.6h12.52zM47.46 12.27v27.65h-5.83V12.27zm1-8.36a3.73 3.73 0 0 1-.31 1.48 4.29 4.29 0 0 1-.86 1.23 4.67 4.67 0 0 1-1.26.86 4 4 0 0 1-1.54.31A3.65 3.65 0 0 1 43 7.48a4 4 0 0 1-1.2-.86 3.91 3.91 0 0 1-1.14-2.71 3.77 3.77 0 0 1 .31-1.51 4.18 4.18 0 0 1 .83-1.26A3.92 3.92 0 0 1 43 .31 3.65 3.65 0 0 1 44.49 0a4 4 0 0 1 1.54.31 4.57 4.57 0 0 1 1.26.83 4.88 4.88 0 0 1 .86 1.26 3.77 3.77 0 0 1 .31 1.51zM63.98 40.35a7.07 7.07 0 0 1-5.32-1.94 7.59 7.59 0 0 1-1.86-5.45V16.83h-3a1.27 1.27 0 0 1-.86-.31 1.19 1.19 0 0 1-.34-.94v-2.34l4.49-.66 1.26-8a1.74 1.74 0 0 1 .46-.77 1.42 1.42 0 0 1 .89-.26h3v9.08h7.69v4.2h-7.75v15.7a3.23 3.23 0 0 0 .74 2.28 2.58 2.58 0 0 0 1.94.8 3.46 3.46 0 0 0 1.17-.2 4.83 4.83 0 0 0 .86-.37l.6-.37a.92.92 0 0 1 .51-.17.87.87 0 0 1 .77.54l1.74 2.83a9.1 9.1 0 0 1-3.2 1.83 11.58 11.58 0 0 1-3.8.66zM82.02.88a5.3 5.3 0 0 1 .71 0 3.46 3.46 0 0 1 .51.14 1.28 1.28 0 0 1 .46.34 3 3 0 0 1 .46.54l21.53 27.57c-.06-.57-.09-1.11-.11-1.66s-.06-1.06-.06-1.51V.88h5.57v39h-3.23a2.82 2.82 0 0 1-1.26-.26 3 3 0 0 1-1-.86L84.1 11.19c.06.54.11 1.06.14 1.57s0 1 0 1.43v25.69h-5.6v-39zM136.42 39.92a2.51 2.51 0 0 1-1.26-.26 2 2 0 0 1-.74-1.06l-.57-2.25a21.25 21.25 0 0 1-2.09 1.71 13.56 13.56 0 0 1-2.14 1.26 10.27 10.27 0 0 1-2.34.77 14.18 14.18 0 0 1-2.8.26 10 10 0 0 1-3.12-.46 6.76 6.76 0 0 1-2.52-1.4 6.91 6.91 0 0 1-1.69-2.31 8.26 8.26 0 0 1-.6-3.25 6.33 6.33 0 0 1 .86-3.14 7.86 7.86 0 0 1 2.83-2.71 18.11 18.11 0 0 1 5.17-2 37.57 37.57 0 0 1 7.95-.88v-1.86a6.57 6.57 0 0 0-1.29-4.45 4.67 4.67 0 0 0-3.74-1.46 9 9 0 0 0-2.83.4 16.06 16.06 0 0 0-2 .91c-.57.34-1.06.63-1.49.91a2.52 2.52 0 0 1-1.4.43 1.67 1.67 0 0 1-1-.31 2.65 2.65 0 0 1-.71-.77l-1.06-1.88a15.91 15.91 0 0 1 11.21-4.37 11.12 11.12 0 0 1 4.26.74 8.8 8.8 0 0 1 3.12 2.2 9.64 9.64 0 0 1 1.92 3.34 13 13 0 0 1 .69 4.31v17.58zm-10.18-3.65a8.35 8.35 0 0 0 3.92-.86 12.33 12.33 0 0 0 3.2-2.43v-5.17a39.45 39.45 0 0 0-5.26.51 15.2 15.2 0 0 0-3.49 1 5 5 0 0 0-1.92 1.46 3.21 3.21 0 0 0-.57 1.83 3.64 3.64 0 0 0 .31 1.66 2.69 2.69 0 0 0 .86 1.14 3.36 3.36 0 0 0 1.32.66 5.79 5.79 0 0 0 1.63.2zM154.34 40.35a7 7 0 0 1-5.29-1.94 7.47 7.47 0 0 1-1.86-5.45V16.83h-3.05a1.25 1.25 0 0 1-.83-.31 1.11 1.11 0 0 1-.37-.94v-2.34l4.49-.66 1.29-8a1.51 1.51 0 0 1 .46-.77 1.39 1.39 0 0 1 .86-.26h3v9.08h7.69v4.2h-7.69v15.7a3.1 3.1 0 0 0 .74 2.28 2.54 2.54 0 0 0 1.94.8 3.59 3.59 0 0 0 1.17-.2 4.5 4.5 0 0 0 .83-.37c.26-.14.46-.26.63-.37a.91.91 0 0 1 .49-.17.87.87 0 0 1 .8.54l1.74 2.83a9 9 0 0 1-3.23 1.83 11.45 11.45 0 0 1-3.8.66zM172.67 12.27v27.65h-5.83V12.27zm1-8.36a3.3 3.3 0 0 1-.31 1.48 3.4 3.4 0 0 1-.86 1.23 4.27 4.27 0 0 1-1.26.86 4 4 0 0 1-1.54.31 3.61 3.61 0 0 1-1.46-.31 3.8 3.8 0 0 1-1.23-.86 4.22 4.22 0 0 1-.83-1.23 3.73 3.73 0 0 1 0-3 4.8 4.8 0 0 1 .83-1.26 3.73 3.73 0 0 1 1.23-.83 3.61 3.61 0 0 1 1.46-.31 4 4 0 0 1 1.54.31 4.18 4.18 0 0 1 1.26.83 3.78 3.78 0 0 1 .86 1.26 3.34 3.34 0 0 1 .31 1.51zM191.99 11.81a14.48 14.48 0 0 1 5.57 1 11.73 11.73 0 0 1 4.23 2.83 12.59 12.59 0 0 1 2.69 4.48 16.85 16.85 0 0 1 1 5.91 16.63 16.63 0 0 1-1 5.91 12.35 12.35 0 0 1-2.69 4.48 11.86 11.86 0 0 1-4.23 2.88 16.05 16.05 0 0 1-11.15 0 12.23 12.23 0 0 1-4.26-2.88 12.81 12.81 0 0 1-2.72-4.48 17.31 17.31 0 0 1-.94-5.91 17.54 17.54 0 0 1 .94-5.91 13.08 13.08 0 0 1 2.72-4.48 12.09 12.09 0 0 1 4.26-2.83 14.48 14.48 0 0 1 5.57-1zm0 23.94a6.46 6.46 0 0 0 5.6-2.51c1.2-1.66 1.83-4.05 1.83-7.16a12.26 12.26 0 0 0-1.83-7.19 7.48 7.48 0 0 0-11.23 0c-1.23 1.68-1.86 4.08-1.86 7.19s.63 5.51 1.86 7.16a6.51 6.51 0 0 0 5.63 2.51zM210.86 39.92V12.27h3.54a1.43 1.43 0 0 1 1.52 1.11l.4 2.57a16.82 16.82 0 0 1 1.83-1.68 13.18 13.18 0 0 1 2.06-1.31 12.38 12.38 0 0 1 2.32-.83 11.38 11.38 0 0 1 2.69-.31 9.72 9.72 0 0 1 4 .77 8.4 8.4 0 0 1 2.92 2.14 9.44 9.44 0 0 1 1.77 3.31 14.62 14.62 0 0 1 .6 4.28v17.61h-5.83V22.31a6.45 6.45 0 0 0-1.29-4.34 4.82 4.82 0 0 0-3.92-1.54 7.51 7.51 0 0 0-3.63.88 13.07 13.07 0 0 0-3.14 2.45v20.15z"/>
</svg>
