<svg xmlns="http://www.w3.org/2000/svg" width="30" height="30" viewBox="0 0 30 30" fill="none">
  <path d="M9.3752 15C9.3752 13.1458 9.92504 11.3332 10.9552 9.79153C11.9853 8.24982 13.4495 7.04821 15.1625 6.33863C16.8756 5.62906 18.7606 5.44341 20.5792 5.80514C22.3977 6.16688 24.0682 7.05976 25.3793 8.37088C26.6904 9.682 27.5833 11.3525 27.9451 13.171C28.3068 14.9896 28.1211 16.8746 27.4116 18.5877C26.702 20.3007 25.5004 21.7649 23.9587 22.795C22.417 23.8252 20.6044 24.375 18.7502 24.375H8.4377C7.50719 24.3739 6.58756 24.1748 5.73983 23.7911C4.8921 23.4075 4.13566 22.8479 3.5207 22.1495C2.90574 21.4512 2.44632 20.63 2.17293 19.7406C1.89954 18.8511 1.81843 17.9137 1.93498 16.9905C2.05153 16.0673 2.36308 15.1795 2.84895 14.3859C3.33481 13.5923 3.9839 12.9111 4.75312 12.3875C5.52235 11.8639 6.39413 11.5099 7.31062 11.3489C8.22711 11.188 9.16735 11.2238 10.069 11.4539" stroke="#fef502" stroke-width="1.4" stroke-linecap="round" stroke-linejoin="round"/>
  <path d="M14.0625 15.9375L16.875 18.75L22.5 13.125" stroke="#fef502" stroke-width="1.4" stroke-linecap="round" stroke-linejoin="round"/>
</svg>