<svg xmlns="http://www.w3.org/2000/svg" width="30" height="30" viewBox="0 0 30 30" fill="none">
  <path d="M9.76172 25.3125C7.96743 24.4892 6.44716 23.1681 5.38151 21.5063C4.31585 19.8445 3.74959 17.9117 3.75 15.9375V10.3125H24.375V15.9375C24.3754 17.9117 23.8091 19.8445 22.7435 21.5063C21.6778 23.1681 20.1576 24.4892 18.3633 25.3125" stroke="#fef502" stroke-width="1.4" stroke-linecap="round" stroke-linejoin="round"/>
  <path d="M10.3125 2.8125V6.5625" stroke="#fef502" stroke-width="1.4" stroke-linecap="round" stroke-linejoin="round"/>
  <path d="M14.0625 2.8125V6.5625" stroke="#fef502" stroke-width="1.4" stroke-linecap="round" stroke-linejoin="round"/>
  <path d="M17.8125 2.8125V6.5625" stroke="#fef502" stroke-width="1.4" stroke-linecap="round" stroke-linejoin="round"/>
  <path d="M3.75 25.3125H24.375" stroke="#fef502" stroke-width="1.4" stroke-linecap="round" stroke-linejoin="round"/>
  <path d="M24.3751 10.3125C25.3697 10.3125 26.3235 10.7076 27.0267 11.4108C27.73 12.1141 28.1251 13.0679 28.1251 14.0625V15C28.1251 15.9946 27.73 16.9484 27.0267 17.6516C26.3235 18.3549 25.3697 18.75 24.3751 18.75H23.979" stroke="#fef502" stroke-width="1.4" stroke-linecap="round" stroke-linejoin="round"/>
</svg>