<svg xmlns="http://www.w3.org/2000/svg" width="30" height="30" viewBox="0 0 30 30" fill="none">
  <path d="M6.09375 19.2188V8.65625C6.09375 8.22527 6.26436 7.81195 6.56804 7.5072C6.87172 7.20245 7.2836 7.03125 7.71307 7.03125H22.2869C22.7164 7.03125 23.1283 7.20245 23.432 7.5072C23.7356 7.81195 23.9062 8.22527 23.9062 8.65625V19.2188" stroke="#fef502" stroke-width="1.4" stroke-linecap="round" stroke-linejoin="round"/>
  <path d="M4.21875 19.2188H25.7813V20.8594C25.7813 21.2945 25.6065 21.7118 25.2954 22.0195C24.9844 22.3271 24.5625 22.5 24.1226 22.5H5.8774C5.4375 22.5 5.01562 22.3271 4.70456 22.0195C4.3935 21.7118 4.21875 21.2945 4.21875 20.8594V19.2188Z" stroke="#fef502" stroke-width="1.4" stroke-linecap="round" stroke-linejoin="round"/>
  <path d="M15.9375 10.3125H14.0625" stroke="#fef502" stroke-width="1.4" stroke-linecap="round" stroke-linejoin="round"/>
</svg>