<?xml version="1.0" encoding="utf-8"?>
<!-- Generator: Adobe Illustrator 23.0.5, SVG Export Plug-In . SVG Version: 6.00 Build 0)  -->
<svg version="1.1" id="Layer_1" xmlns="http://www.w3.org/2000/svg" xmlns:xlink="http://www.w3.org/1999/xlink" x="0px" y="0px"
	 viewBox="0 0 783.2 783.2" style="enable-background:new 0 0 783.2 783.2;" xml:space="preserve">
<style type="text/css">
	.st0{fill:none;}
	.st1{fill:none;stroke:#FF7B00;stroke-width:20;}
</style>
<rect x="348.8" y="361.6" class="st0" width="85.5" height="60"/>
<ellipse transform="matrix(0.7071 -0.7071 0.7071 0.7071 -162.2033 391.5935)" class="st1" cx="391.6" cy="391.6" rx="381.6" ry="381.6"/>
<path class="st1" d="M662,661c-30.8,32.1-88.8,36.4-162.1,11.6C427.5,648,343.8,596,266.6,521.9c-77.2-74.1-132.7-155.5-160.3-226.8
	c-27.9-72.2-25.9-130.3,4.8-162.4s88.8-36.4,162.1-11.6c72.4,24.5,156.1,76.6,233.3,150.7c77.2,74.1,132.7,155.4,160.3,226.8
	C694.6,570.8,692.7,628.9,662,661z"/>
<path class="st1" d="M666.8,655.9c-117.6,122.6-337.1,107.5-490.6-39.7C22.7,469-1.7,250.3,116,127.7S453,20.2,606.6,167.4
	C760.1,314.7,784.4,533.3,666.8,655.9z"/>
<path class="st1" d="M674.5,663.3c-5.3,5.6-136.2-111.3-292.3-261c-156.1-149.7-278.3-275.6-273-281.1"/>
<path class="st1" d="M122.7,662.4c-32.1-30.8-36.4-88.8-11.6-162.1c24.5-72.4,76.6-156.1,150.7-233.3
	c74.1-77.2,155.4-132.7,226.8-160.3c72.2-27.9,130.3-25.9,162.4,4.8c32.1,30.8,36.4,88.8,11.6,162.1
	c-24.5,72.4-76.6,156.1-150.7,233.3c-74.1,77.2-155.4,132.7-226.8,160.3C212.9,695.1,154.7,693.2,122.7,662.4z"/>
<path class="st1" d="M127.7,667.2C5.1,549.6,20.2,330.1,167.4,176.6S533.3-1.2,655.9,116.4S763.4,453.5,616.2,607
	C469,760.5,250.3,784.8,127.7,667.2z"/>
<path class="st1" d="M129.6,665.3c-5.6-5.3,109.2-134,256.4-287.5c147.1-153.4,270.9-273.5,276.5-268.2"/>
</svg>
