<svg xmlns="http://www.w3.org/2000/svg" xmlns:xlink="http://www.w3.org/1999/xlink" width="246" height="625">
  <defs>
    <path id="a"
          d="M207.088 7109.385v-5.076h5.075v-5.075h10.15v5.075h5.075v15.225h-5.075v5.074h-10.15v-5.074h5.075v-10.15z"/>
    <path id="b"
          d="M279.088 7110.385v-5.075h5.075v-5.076h10.15v5.076h5.075v15.223h-5.075v5.075h-10.15v-5.075h5.075v-10.148z"/>
    <path id="c"
          d="M294.537 7110.385v-5.075h5.075v-5.076h10.15v5.076h5.075v15.223h-5.075v5.075h-10.15v-5.075h5.075v-10.148z"/>
    <path id="d" d="M204 7088.993h12v-6h12v-6h6v6h12v6h12v36h-6v12h-6v6.002h-6v6h-18v-6h-6v-6.001h-6v-12.001h-6z"/>
    <path id="e"
          d="M228 7138v-6h6v6zm-6-6v-6h6v6zm12 0v-6h6v6zm-19.985-25.503l4.326-4.243 4.326-4.242 4.325 4.242-4.325 4.243 4.325 4.243-4.325 4.243-4.326-4.243zm19 0l8.652-8.486 4.325 4.243-4.325 4.243 4.325 4.243-4.325 4.243-4.326-4.243z"/>
    <path id="f" d="M259 7234v-10h10v10z"/>
    <path id="g" d="M197 7234v-10h10v10z"/>
    <path id="h" d="M135 7234v-10h10v10z"/>
    <path id="i" d="M259 7002v-10h10v10z"/>
    <path id="j" d="M197 7002v-10h10v10z"/>
    <path id="k" d="M135 7002v-10h10v10z"/>
    <path id="l" d="M317 7002v-10h10v10z"/>
    <path id="m" d="M259 6886v-10h10v10z"/>
    <path id="n" d="M197 6886v-10h10v10z"/>
    <path id="o" d="M135 6886v-10h10v10z"/>
    <path id="p" d="M317 6886v-10h10v10z"/>
    <path id="q" d="M259 7350v-10h10v10z"/>
    <path id="r" d="M197 7350v-10h10v10z"/>
    <path id="s" d="M135 7350v-10h10v10z"/>
    <path id="t" d="M135 7292v-10h10v10z"/>
    <path id="u" d="M135 7060v-10h10v10z"/>
    <path id="v" d="M135 7118v-10h10v10z"/>
    <path id="w"
          d="M114 6837.999v-28.001h4v4h4v-4h8v4h4v-12h-4v-4.001h-8v4h-4v-4h4v-3.999h4v-4h4v-4h20v4h4v4h4v3.999h4v12h4V6838h-4v-4.001h-4v-4h-4v4h-4v4h-4v-4h-4v-4h-4v4h-4v4h-4v-4h-4v-4h-4v4h-4v4zm28-24h4s.031-3.917 0-4.001c-.015-.04 8 0 8 0v4h4v-12h-4v-4.001h-8v4h-4z"/>
    <path id="x"
          d="M296 7377.999v-28.002h4V7354h4v4h8v-4h4v-12.001h-4v4h-8v-4h-4v-4h4v-4h4v-4h4v-4h20v4h4v4h4v4h4v12h4v28h-4v-4h-4v-4h-4v4h-4v4h-4v-4h-4v-4h-4v4h-4v4h-4v-4h-4v-4h-4v4h-4v4zm28-24h4s.03 3.887.002 3.999c.15-.038 7.998 0 7.998 0v-4h4v-12h-4v4h-8v-4h-4zm4 4c0 .002.001.001.002-.001H328z"/>
    <path id="y" d="M317 6943v-10h10v10z"/>
    <path id="z"
          d="M296 7223.996v-28h4v-3.999h8v7.999h-4v4.001h8v-4.001h4v-12h-4v-4h-8v4h-4v-4h4v-3.999h4v-4.001h4v-4h20v4h4v4.001h4v4h4v11.999h4v28h-4v-4h-4v-3.999h-4v3.999h-4v4h-4v-4h-4v-3.999h-4v3.999h-4v4h-4v-4h-4v-3.999h-4v3.999h-4v4zm28-31.999h8v7.999h-4s.03 3.888.002 4c.15-.038 7.998.001 7.998.001v-4.001h4v-12h-4v-4h-8v4h-4zm4 12c0 .002.001.002.002-.001l-.002.001z"/>
    <path id="A"
          d="M296 7141.997v-28h4v-4h8v7.999h-4v4h8v-4h4v-12h-4v-3.999h-8v3.999h-4v-3.999h4v-4.002h4v-3.998h4v-4h20v4h4v3.998h4v4.002h4v12h4v28h-4v-4h-4v-4.001h-4v4.001h-4v4h-4v-4h-4v-4.001h-4v4.001h-4v4h-4v-4h-4v-4.001h-4v4.001h-4v4zm28-32h8v7.999h-4s.03 3.887.002 3.999c.15-.036 7.998.001 7.998.001v-4h4v-12h-4v-3.999h-8v3.999h-4zm4 11.999c0 .002.001.002.002-.001l-.002.001z"/>
    <path id="B" d="M190 7051h4v8h-4zm4 12v-4h161v4zm0-12v-4h161v4z"/>
    <path id="C" d="M269 7167h4v8h-4zm-160 12v-4h160v4zm0-12v-4h160v4z"/>
    <path id="D" d="M190 6819h4v8h-4zm4 12v-4h161v4zm0-12v-4h161v4z"/>
    <path id="E" d="M269 6935h4v8h-4zm-160 12v-4h160v4zm0-12v-4h160v4z"/>
    <path id="F" d="M190 7283h4v8h-4zm4 12v-4h161v4zm0-12v-4h161v4z"/>
    <path id="G" d="M269 7399h4v8h-4zm-160 12v-4h160v4zm0-12v-4h160v4z"/>
  </defs>

  <g fill="#fef502" transform="translate(-109 -6786)">
    <use xlink:href="/2022/#d"/>
    <use xlink:href="/2022/#d"/>
  </g>
  <g transform="translate(-109 -6786)">
    <use xlink:href="/2022/#e"/>
    <use fill="#dd0002" xlink:href="/2022/#e"/>
  </g>
  <use fill="#fef502" xlink:href="/2022/#f" transform="translate(-109 -6786)"/>
  <use fill="#fef502" xlink:href="/2022/#g" transform="translate(-109 -6786)"/>
  <use fill="#fef502" xlink:href="/2022/#h" transform="translate(-109 -6786)"/>
  <use fill="#fef502" xlink:href="/2022/#i" transform="translate(-109 -6786)"/>
  <use fill="#fef502" xlink:href="/2022/#j" transform="translate(-109 -6786)"/>
  <use fill="#fef502" xlink:href="/2022/#k" transform="translate(-109 -6786)"/>
  <use fill="#fef502" xlink:href="/2022/#l" transform="translate(-109 -6786)"/>
  <use fill="#fef502" xlink:href="/2022/#m" transform="translate(-109 -6786)"/>
  <use fill="#fef502" xlink:href="/2022/#n" transform="translate(-109 -6786)"/>
  <use fill="#fef502" xlink:href="/2022/#o" transform="translate(-109 -6786)"/>
  <use fill="#fef502" xlink:href="/2022/#p" transform="translate(-109 -6786)"/>
  <use fill="#fef502" xlink:href="/2022/#q" transform="translate(-109 -6786)"/>
  <use fill="#fef502" xlink:href="/2022/#r" transform="translate(-109 -6786)"/>
  <use fill="#fef502" xlink:href="/2022/#s" transform="translate(-109 -6786)"/>
  <use fill="#fef502" xlink:href="/2022/#t" transform="translate(-109 -6786)"/>
  <use fill="#fef502" xlink:href="/2022/#u" transform="translate(-109 -6786)"/>
  <use fill="#fef502" xlink:href="/2022/#v" transform="translate(-109 -6786)"/>
  <g transform="translate(-109 -6786)">
    <use fill="#fef502" xlink:href="/2022/#w"/>
    <use fill="#fff" xlink:href="/2022/#w"/>
  </g>
  <g transform="translate(-109 -6786)">
    <use fill="#fef502" xlink:href="/2022/#x"/>
    <use fill="#fff" xlink:href="/2022/#x"/>
  </g>
  <use fill="#fef502" xlink:href="/2022/#y" transform="translate(-109 -6786)"/>
  <g transform="translate(-109 -6786)">
    <use fill="#fef502" xlink:href="/2022/#z"/>
    <use fill="#fff" xlink:href="/2022/#z"/>
  </g>
  <g transform="translate(-109 -6786)">
    <use fill="#fef502" xlink:href="/2022/#A"/>
    <use fill="#fff" xlink:href="/2022/#A"/>
  </g>
  <g transform="translate(-109 -6786)">
    <use fill="#fef502" xlink:href="/2022/#B"/>
    <use fill="#fff" xlink:href="/2022/#B"/>
  </g>
  <g transform="translate(-109 -6786)">
    <use fill="#fef502" xlink:href="/2022/#C"/>
    <use fill="#fff" xlink:href="/2022/#C"/>
  </g>
  <g transform="translate(-109 -6786)">
    <use fill="#fef502" xlink:href="/2022/#D"/>
    <use fill="#fff" xlink:href="/2022/#D"/>
  </g>
  <g transform="translate(-109 -6786)">
    <use fill="#fef502" xlink:href="/2022/#E"/>
    <use fill="#fff" xlink:href="/2022/#E"/>
  </g>
  <g transform="translate(-109 -6786)">
    <use fill="#fef502" xlink:href="/2022/#F"/>
    <use fill="#fff" xlink:href="/2022/#F"/>
  </g>
  <g transform="translate(-109 -6786)">
    <use fill="#fef502" xlink:href="/2022/#G"/>
    <use fill="#fff" xlink:href="/2022/#G"/>
  </g>
</svg>
