<svg xmlns="http://www.w3.org/2000/svg" xmlns:xlink="http://www.w3.org/1999/xlink" width="481" height="721">
  <defs>
    <path id="a"
          d="M441.088 9356.385v-5.074h5.075v-5.076h10.15v5.076h5.075v15.224h-5.075v5.074h-10.15v-5.074h5.075v-10.15z"/>
    <path id="b"
          d="M537.088 9356.385v-5.074h5.075v-5.076h10.15v5.076h5.075v15.224h-5.075v5.074h-10.15v-5.074h5.075v-10.15z"/>
    <path id="c"
          d="M552.537 9356.385v-5.074h5.075v-5.076h10.15v5.076h5.075v15.224h-5.075v5.074h-10.15v-5.074h5.075v-10.15z"/>
    <path id="d"
          d="M607.088 9596.384v-5.074h5.075v-5.074h10.15v5.074h5.075v15.225h-5.075v5.075h-10.15v-5.075h5.075v-10.15z"/>
    <path id="e"
          d="M637.537 9596.384v-5.074h5.075v-5.074h10.15v5.074h5.075v15.225h-5.075v5.075h-10.15v-5.075h5.075v-10.15z"/>
    <path id="f" d="M383 9337.996h12v-6h12v-6h6v6h12v6h12v35.998h-6v12.002h-6v6h-6v6h-18v-6h-6v-6h-6v-12.002h-6z"/>
    <path id="g"
          d="M407 9387v-6h6v6zm-6-6v-6h6v6zm12 0v-6h6v6zm-19.985-25.502l4.326-4.242 4.326-4.243 4.325 4.243-4.325 4.242 4.325 4.242-4.325 4.243-4.326-4.243zm19 0l8.652-8.485 4.325 4.243-4.325 4.242 4.325 4.242-4.325 4.243z"/>
    <path id="h" d="M557 9596v-10h10v10z"/>
    <path id="i" d="M619 9596v-10h10v10z"/>
    <path id="j" d="M495 9596v-10h10v10z"/>
    <path id="k" d="M433 9596v-10h10v10z"/>
    <path id="l" d="M371 9596v-10h10v10z"/>
    <path id="m" d="M309 9596v-10h10v10z"/>
    <path id="n" d="M619 9197v-10h10v10z"/>
    <path id="o" d="M557 9482v-10h10v10z"/>
    <path id="p" d="M495 9482v-10h10v10z"/>
    <path id="q" d="M433 9482v-10h10v10z"/>
    <path id="r" d="M371 9482v-10h10v10z"/>
    <path id="s" d="M309 9482v-10h10v10z"/>
    <path id="t" d="M309 9368v-10h10v10z"/>
    <path id="u" d="M619 9254v-10h10v10z"/>
    <path id="v" d="M557 9254v-10h10v10z"/>
    <path id="w" d="M495 9254v-10h10v10z"/>
    <path id="x" d="M433 9254v-10h10v10z"/>
    <path id="y" d="M371 9140v-10h10v10z"/>
    <path id="z" d="M371 9254v-10h10v10z"/>
    <path id="A" d="M309 9140v-10h10v10z"/>
    <path id="B" d="M247 9140v-10h10v10z"/>
    <path id="C" d="M309 9254v-10h10v10z"/>
    <path id="D" d="M619 9140v-10h10v10z"/>
    <path id="E" d="M557 9140v-10h10v10z"/>
    <path id="F" d="M495 9140v-10h10v10z"/>
    <path id="G" d="M433 9140v-10h10v10z"/>
    <path id="H" d="M247 9596v-10h10v10z"/>
    <path id="I" d="M247 9539v-10h10v10z"/>
    <path id="J" d="M247 9482v-10h10v10z"/>
    <path id="K" d="M247 9368v-10h10v10z"/>
    <path id="L" d="M247 9311v-10h10v10z"/>
    <path id="M" d="M247 9254v-10h10v10z"/>
    <path id="N" d="M315 9072v-6h364v6zm0 18v-6h364v6zm-6-18h6v12h-6z"/>
    <path id="O" d="M198 9186v-6h364v6zm0 18v-6h364v6zm364-18h6v12h-6z"/>
    <path id="P" d="M315 9300v-6h364v6zm0 18v-6h364v6zm-6-18h6v12h-6z"/>
    <path id="Q" d="M198 9414v-6h364v6zm0 18v-6h364v6zm364-18h6v12h-6z"/>
    <path id="R" d="M315 9528v-6h364v6zm0 18v-6h364v6zm-6-18h6v12h-6z"/>
    <path id="S" d="M557 9710v-10h10v10z"/>
    <path id="T" d="M495 9710v-10h10v10z"/>
    <path id="U" d="M433 9710v-10h10v10z"/>
    <path id="V" d="M371 9710v-10h10v10z"/>
    <path id="W" d="M309 9710v-10h10v10z"/>
    <path id="X" d="M247 9767v-10h10v10z"/>
    <path id="Y" d="M247 9710v-10h10v10z"/>
    <path id="Z" d="M315 9756v-6h364v6zm0 18v-6h364v6zm-6-18h6v12h-6z"/>
    <path id="aa" d="M198 9642v-6h364v6zm0 18v-6h364v6zm364-18h6v12h-6z"/>
    <path id="ab"
          d="M598 9690v-28.002h4V9666h4v4h8v-4h4v-12h-4v4h-8v-4h-4v-4.002h4V9646h4v-4h4v-4.001h20V9642h4v4h4v3.998h4v12.001h4V9690h-4v-4h-4v-4h-4v4h-4v4h-4v-4h-4v-4h-4v4h-4v4h-4v-4h-4v-4h-4v4h-4v4zm28-24h4s.03 3.887.002 3.998c.15-.037 7.998 0 7.998 0V9666h4v-12h-4v4h-8v-4h-4zm4 3.999c0 .002.001.001.002-.001H630z"/>
    <path id="ac"
          d="M598 9388.998v-28h4v-4h8v8h-4v3.999h8v-4h4v-12h-4v-4h-8v4h-4v-4h4v-4h4v-4h4V9337h20v3.998h4v4h4v4h4V9361h4v28h-4v-4h-4v-4.001h-4v4h-4v4h-4v-4h-4v-4h-4v4h-4v4h-4v-4h-4v-4h-4v4h-4v4zm28-32h8v8h-4s.03 3.886.002 3.998c.151-.036 7.998.001 7.998.001v-4h4v-12h-4v-4h-8v4h-4zm4 11.999c0 .002.001.002.002-.001l-.002.001z"/>
    <path id="ad"
          d="M598 9480.998v-28h4v-4h8v8h-4v4h8v-4h4v-12.001h-4v-4h-8v4h-4v-4h4v-3.999h4v-4h4v-4h20v4h4v4h4v4h4v12h4v28h-4v-4h-4v-4h-4v4h-4v4h-4v-4h-4v-4h-4v4h-4v4h-4v-4h-4v-4h-4v4h-4v4zm28-32h8v8h-4s.03 3.888.002 4c.15-.038 7.998 0 7.998 0v-4h4v-12.001h-4v-4h-8v4h-4zm4 12c0 .003.001.002.002 0H630z"/>
    <path id="ae"
          d="M506 9388.998v-28h4v-4h8v8h-4v3.999h8v-4h4v-12h-4v-4h-8v4h-4v-4h4v-4h4v-4h4V9337h20v3.998h4v4h4v4h4V9361h4v28h-4v-4h-4v-4.001h-4v4h-4v4h-4v-4h-4v-4h-4v4h-4v4h-4v-4h-4v-4h-4v4h-4v4zm28-32h8v8h-4s.03 3.886.002 3.998c.151-.036 7.998.001 7.998.001v-4h4v-12h-4v-4h-8v4h-4zm4 11.999c0 .002.001.002.002-.001l-.002.001z"/>
    <path id="af"
          d="M227 9104.999v-28.001h4v4h4v-4h8v4h4v-12h-4v-4h-8v4h-4v-4h4v-4h4v-4h4v-4h20v4h4v4h4v4h4v12h4v28.001h-4v-4.001h-4v-4h-4v4h-4v4.001h-4v-4.001h-4v-4h-4v4h-4v4.001h-4v-4.001h-4v-4h-4v4h-4v4.001zm28-24h4s.031-3.917 0-4.001c-.015-.04 8 0 8 0v4h4v-12h-4v-4h-8v4h-4z"/>
  </defs>

  <g fill="#fef502" transform="translate(-198 -9053)">
    <use xlink:href="/2022/#f"/>
    <use xlink:href="/2022/#f"/>
  </g>
  <g transform="translate(-198 -9053)">
    <use xlink:href="/2022/#g"/>
    <use fill="#dd0002" xlink:href="/2022/#g"/>
  </g>
  <use fill="#fef502" xlink:href="/2022/#h" transform="translate(-198 -9053)"/>
  <use fill="#fef502" xlink:href="/2022/#i" transform="translate(-198 -9053)"/>
  <use fill="#fef502" xlink:href="/2022/#j" transform="translate(-198 -9053)"/>
  <use fill="#fef502" xlink:href="/2022/#k" transform="translate(-198 -9053)"/>
  <use fill="#fef502" xlink:href="/2022/#l" transform="translate(-198 -9053)"/>
  <use fill="#fef502" xlink:href="/2022/#m" transform="translate(-198 -9053)"/>
  <use fill="#fef502" xlink:href="/2022/#n" transform="translate(-198 -9053)"/>
  <use fill="#fef502" xlink:href="/2022/#o" transform="translate(-198 -9053)"/>
  <use fill="#fef502" xlink:href="/2022/#p" transform="translate(-198 -9053)"/>
  <use fill="#fef502" xlink:href="/2022/#q" transform="translate(-198 -9053)"/>
  <use fill="#fef502" xlink:href="/2022/#r" transform="translate(-198 -9053)"/>
  <use fill="#fef502" xlink:href="/2022/#s" transform="translate(-198 -9053)"/>
  <use fill="#fef502" xlink:href="/2022/#t" transform="translate(-198 -9053)"/>
  <use fill="#fef502" xlink:href="/2022/#u" transform="translate(-198 -9053)"/>
  <use fill="#fef502" xlink:href="/2022/#v" transform="translate(-198 -9053)"/>
  <use fill="#fef502" xlink:href="/2022/#w" transform="translate(-198 -9053)"/>
  <use fill="#fef502" xlink:href="/2022/#x" transform="translate(-198 -9053)"/>
  <use fill="#fef502" xlink:href="/2022/#y" transform="translate(-198 -9053)"/>
  <use fill="#fef502" xlink:href="/2022/#z" transform="translate(-198 -9053)"/>
  <use fill="#fef502" xlink:href="/2022/#A" transform="translate(-198 -9053)"/>
  <use fill="#fef502" xlink:href="/2022/#B" transform="translate(-198 -9053)"/>
  <use fill="#fef502" xlink:href="/2022/#C" transform="translate(-198 -9053)"/>
  <use fill="#fef502" xlink:href="/2022/#D" transform="translate(-198 -9053)"/>
  <use fill="#fef502" xlink:href="/2022/#E" transform="translate(-198 -9053)"/>
  <use fill="#fef502" xlink:href="/2022/#F" transform="translate(-198 -9053)"/>
  <use fill="#fef502" xlink:href="/2022/#G" transform="translate(-198 -9053)"/>
  <use fill="#fef502" xlink:href="/2022/#H" transform="translate(-198 -9053)"/>
  <use fill="#fef502" xlink:href="/2022/#I" transform="translate(-198 -9053)"/>
  <use fill="#fef502" xlink:href="/2022/#J" transform="translate(-198 -9053)"/>
  <use fill="#fef502" xlink:href="/2022/#K" transform="translate(-198 -9053)"/>
  <use fill="#fef502" xlink:href="/2022/#L" transform="translate(-198 -9053)"/>
  <use fill="#fef502" xlink:href="/2022/#M" transform="translate(-198 -9053)"/>
  <g transform="translate(-198 -9053)">
    <use fill="#fef502" xlink:href="/2022/#N"/>
    <use fill="#fff" xlink:href="/2022/#N"/>
  </g>
  <g transform="translate(-198 -9053)">
    <use fill="#fef502" xlink:href="/2022/#O"/>
    <use fill="#fff" xlink:href="/2022/#O"/>
  </g>
  <g transform="translate(-198 -9053)">
    <use fill="#fef502" xlink:href="/2022/#P"/>
    <use fill="#fff" xlink:href="/2022/#P"/>
  </g>
  <g transform="translate(-198 -9053)">
    <use fill="#fef502" xlink:href="/2022/#Q"/>
    <use fill="#fff" xlink:href="/2022/#Q"/>
  </g>
  <g transform="translate(-198 -9053)">
    <use fill="#fef502" xlink:href="/2022/#R"/>
    <use fill="#fff" xlink:href="/2022/#R"/>
  </g>
  <use fill="#fef502" xlink:href="/2022/#S" transform="translate(-198 -9053)"/>
  <use fill="#fef502" xlink:href="/2022/#T" transform="translate(-198 -9053)"/>
  <use fill="#fef502" xlink:href="/2022/#U" transform="translate(-198 -9053)"/>
  <use fill="#fef502" xlink:href="/2022/#V" transform="translate(-198 -9053)"/>
  <use fill="#fef502" xlink:href="/2022/#W" transform="translate(-198 -9053)"/>
  <use fill="#fef502" xlink:href="/2022/#X" transform="translate(-198 -9053)"/>
  <use fill="#fef502" xlink:href="/2022/#Y" transform="translate(-198 -9053)"/>
  <g transform="translate(-198 -9053)">
    <use fill="#fef502" xlink:href="/2022/#Z"/>
    <use fill="#fff" xlink:href="/2022/#Z"/>
  </g>
  <g transform="translate(-198 -9053)">
    <use fill="#fef502" xlink:href="/2022/#aa"/>
    <use fill="#fff" xlink:href="/2022/#aa"/>
  </g>
  <g transform="translate(-198 -9053)">
    <use fill="#fef502" xlink:href="/2022/#ab"/>
    <use fill="#fff" xlink:href="/2022/#ab"/>
  </g>
  <g transform="translate(-198 -9053)">
    <use fill="#fef502" xlink:href="/2022/#ac"/>
    <use fill="#fff" xlink:href="/2022/#ac"/>
  </g>
  <g transform="translate(-198 -9053)">
    <use fill="#fef502" xlink:href="/2022/#ad"/>
    <use fill="#fff" xlink:href="/2022/#ad"/>
  </g>
  <g transform="translate(-198 -9053)">
    <use fill="#fef502" xlink:href="/2022/#ae"/>
    <use fill="#fff" xlink:href="/2022/#ae"/>
  </g>
  <g transform="translate(-198 -9053)">
    <use fill="#fef502" xlink:href="/2022/#af"/>
    <use fill="#fff" xlink:href="/2022/#af"/>
  </g>
</svg>
