<svg xmlns="http://www.w3.org/2000/svg" xmlns:xlink="http://www.w3.org/1999/xlink" width="663" height="53" viewBox="0 0 663 53"><defs><path id="jaiia" d="M507 544v-53h19v22h10v-22h19v53h-19v-23h-10v23z"/><path id="jaiib" d="M628 544v-23h-7v-7h-8v-23h16v22h14v-22h16v23h-8v7h-7v23z"/><path id="jaiic" d="M565 544v-53h38v8h-19v15h12v8h-12v14h19v8z"/><path id="jaiid" d="M669 528v-37h19v37zm0 16v-8h19v8z"/><path id="jaiie" d="M748 544v-53h19v22h10v-22h19v53h-19v-23h-10v23z"/><path id="jaiif" d="M869 544v-23h-7v-7h-8v-23h16v22h14v-22h16v23h-8v7h-7v23z"/><path id="jaiig" d="M806 544v-53h38v8h-19v15h12v8h-12v14h19v8z"/><path id="jaiih" d="M910 528v-37h19v37zm0 16v-8h19v8z"/><path id="jaiii" d="M989 544v-53h19v22h10v-22h19v53h-19v-23h-10v23z"/><path id="jaiij" d="M1110 544v-23h-7v-7h-8v-23h16v22h14v-22h16v23h-8v7h-7v23z"/><path id="jaiik" d="M1047 544v-53h38v8h-19v15h12v8h-12v14h19v8z"/><path id="jaiil" d="M1151 528v-37h19v37zm0 16v-8h19v8z"/></defs><g><g transform="translate(-507 -491)"><g><use fill="#fef502" xlink:href="/2022/#jaiia"/></g><g><use fill="#fef502" xlink:href="/2022/#jaiib"/></g><g><use fill="#fef502" xlink:href="/2022/#jaiic"/></g><g><use fill="#fef502" xlink:href="/2022/#jaiid"/></g><g><use fill="#fef502" xlink:href="/2022/#jaiie"/></g><g><use fill="#fef502" xlink:href="/2022/#jaiif"/></g><g><use fill="#fef502" xlink:href="/2022/#jaiig"/></g><g><use fill="#fef502" xlink:href="/2022/#jaiih"/></g><g><use fill="#fef502" xlink:href="/2022/#jaiii"/></g><g><use fill="#fef502" xlink:href="/2022/#jaiij"/></g><g><use fill="#fef502" xlink:href="/2022/#jaiik"/></g><g><use fill="#fef502" xlink:href="/2022/#jaiil"/></g></g></g></svg>