<?xml version="1.0" encoding="utf-8"?>
<!-- Generator: Adobe Illustrator 23.0.5, SVG Export Plug-In . SVG Version: 6.00 Build 0)  -->
<svg version="1.1" id="Layer_1" xmlns="http://www.w3.org/2000/svg" xmlns:xlink="http://www.w3.org/1999/xlink" x="0px" y="0px"
	 width="571px" height="270px" viewBox="0 0 571 270" style="enable-background:new 0 0 571 270;" xml:space="preserve">
<style type="text/css">
	.st0{fill-rule:evenodd;clip-rule:evenodd;fill:#FFFFFF;fill-opacity:5.000000e-02;}
</style>
<path class="st0" d="M82.3,233.9c-1.8,0-3.6,0.5-5,1.5c-1.5,1-2.7,2.4-3.3,4.1c-0.7,1.7-0.9,3.5-0.5,5.3c0.4,1.8,1.2,3.4,2.5,4.7
	c1.3,1.3,2.9,2.1,4.7,2.5c1.8,0.3,3.6,0.2,5.3-0.5c1.7-0.7,3.1-1.9,4.1-3.4s1.5-3.3,1.5-5.1c0-2.4-1-4.7-2.7-6.4
	C87.1,234.8,84.7,233.9,82.3,233.9z M79.4,243c0-0.6,0.2-1.1,0.5-1.6c0.3-0.5,0.8-0.8,1.3-1.1c0.5-0.2,1.1-0.3,1.7-0.2
	c0.6,0.1,1.1,0.4,1.5,0.8c0.4,0.4,0.7,0.9,0.8,1.5c0.1,0.6,0.1,1.1-0.2,1.7c-0.2,0.5-0.6,1-1.1,1.3c-0.5,0.3-1,0.5-1.6,0.5
	c-0.8,0-1.5-0.3-2-0.8C79.7,244.4,79.4,243.7,79.4,243z M501.7,206.1c-1.8,0-3.6,0.5-5.1,1.5c-1.5,1-2.7,2.4-3.3,4.1
	c-0.7,1.7-0.9,3.5-0.5,5.3c0.4,1.8,1.2,3.4,2.5,4.7c1.3,1.3,2.9,2.1,4.7,2.5c1.8,0.3,3.6,0.2,5.3-0.5c1.7-0.7,3.1-1.9,4.1-3.4
	c1-1.5,1.5-3.3,1.5-5.1c0-2.4-1-4.7-2.7-6.4C506.5,207.1,504.1,206.1,501.7,206.1z M498.8,215.2c0-0.6,0.2-1.1,0.5-1.6
	c0.3-0.5,0.8-0.8,1.3-1.1c0.5-0.2,1.1-0.3,1.7-0.2c0.6,0.1,1.1,0.4,1.5,0.8c0.4,0.4,0.7,0.9,0.8,1.5c0.1,0.6,0.1,1.1-0.2,1.7
	c-0.2,0.5-0.6,1-1.1,1.3c-0.5,0.3-1,0.5-1.6,0.5c-0.4,0-0.8-0.1-1.1-0.2c-0.4-0.1-0.7-0.4-0.9-0.6c-0.3-0.3-0.5-0.6-0.6-0.9
	C498.9,216,498.8,215.6,498.8,215.2z M420,206.1c-1.8,0-3.6,0.5-5,1.5c-1.5,1-2.7,2.4-3.3,4.1c-0.7,1.7-0.9,3.5-0.5,5.3
	c0.4,1.8,1.2,3.4,2.5,4.7c1.3,1.3,2.9,2.1,4.7,2.5c1.8,0.3,3.6,0.2,5.3-0.5c1.7-0.7,3.1-1.9,4.1-3.4c1-1.5,1.5-3.3,1.5-5.1
	c0-2.4-1-4.7-2.7-6.4C424.7,207.1,422.4,206.1,420,206.1z M417.1,215.2c0-0.6,0.2-1.1,0.5-1.6c0.3-0.5,0.8-0.8,1.3-1.1
	c0.5-0.2,1.1-0.3,1.7-0.2c0.6,0.1,1.1,0.4,1.5,0.8c0.4,0.4,0.7,0.9,0.8,1.5c0.1,0.6,0.1,1.1-0.2,1.7c-0.2,0.5-0.6,1-1.1,1.3
	c-0.5,0.3-1,0.5-1.6,0.5c-0.4,0-0.8-0.1-1.1-0.2c-0.4-0.1-0.7-0.4-0.9-0.6c-0.3-0.3-0.5-0.6-0.6-0.9
	C417.1,216,417.1,215.6,417.1,215.2z M478,206.1c-1.8,0-3.6,0.5-5.1,1.5c-1.5,1-2.7,2.4-3.3,4.1c-0.7,1.7-0.9,3.5-0.5,5.3
	c0.4,1.8,1.2,3.4,2.5,4.7c1.3,1.3,2.9,2.1,4.7,2.5c1.8,0.3,3.6,0.2,5.3-0.5c1.7-0.7,3.1-1.9,4.1-3.4c1-1.5,1.5-3.3,1.5-5.1
	c0-2.4-1-4.7-2.7-6.4C482.7,207.1,480.4,206.1,478,206.1z M475.1,215.2c0-0.6,0.2-1.1,0.5-1.6c0.3-0.5,0.8-0.8,1.3-1.1
	c0.5-0.2,1.1-0.3,1.7-0.2c0.6,0.1,1.1,0.4,1.5,0.8c0.4,0.4,0.7,0.9,0.8,1.5c0.1,0.6,0.1,1.1-0.2,1.7c-0.2,0.5-0.6,1-1.1,1.3
	c-0.5,0.3-1,0.5-1.6,0.5c-0.4,0-0.8-0.1-1.1-0.2c-0.4-0.1-0.7-0.4-0.9-0.6c-0.3-0.3-0.5-0.6-0.6-0.9
	C475.2,216,475.1,215.6,475.1,215.2z M396.2,206.1c-1.8,0-3.6,0.5-5,1.5c-1.5,1-2.7,2.4-3.3,4.1c-0.7,1.7-0.9,3.5-0.5,5.3
	c0.4,1.8,1.2,3.4,2.5,4.7c1.3,1.3,2.9,2.1,4.7,2.5c1.8,0.3,3.6,0.2,5.3-0.5c1.7-0.7,3.1-1.9,4.1-3.4c1-1.5,1.5-3.3,1.5-5.1
	c0-2.4-1-4.7-2.7-6.4C400.9,207.1,398.6,206.1,396.2,206.1z M393.3,215.2c0-0.6,0.2-1.1,0.5-1.6c0.3-0.5,0.8-0.8,1.3-1.1
	c0.5-0.2,1.1-0.3,1.7-0.2c0.6,0.1,1.1,0.4,1.5,0.8c0.4,0.4,0.7,0.9,0.8,1.5c0.1,0.6,0.1,1.1-0.2,1.7c-0.2,0.5-0.6,1-1.1,1.3
	c-0.5,0.3-1,0.5-1.6,0.5c-0.4,0-0.8-0.1-1.1-0.2c-0.4-0.1-0.7-0.4-0.9-0.6c-0.3-0.3-0.5-0.6-0.6-0.9
	C393.4,216,393.3,215.6,393.3,215.2z M233.8,206.1c-1.8,0-3.6,0.5-5,1.5c-1.5,1-2.7,2.4-3.3,4.1c-0.7,1.7-0.9,3.5-0.5,5.3
	c0.4,1.8,1.2,3.4,2.5,4.7c1.3,1.3,2.9,2.1,4.7,2.5c1.8,0.3,3.6,0.2,5.3-0.5c1.7-0.7,3.1-1.9,4.1-3.4s1.5-3.3,1.5-5.1
	c0-2.4-1-4.7-2.7-6.4C238.6,207.1,236.2,206.1,233.8,206.1z M230.9,215.2c0-0.6,0.2-1.1,0.5-1.6c0.3-0.5,0.8-0.8,1.3-1.1
	c0.5-0.2,1.1-0.3,1.7-0.2c0.6,0.1,1.1,0.4,1.5,0.8c0.4,0.4,0.7,0.9,0.8,1.5c0.1,0.6,0.1,1.1-0.2,1.7c-0.2,0.5-0.6,1-1.1,1.3
	c-0.5,0.3-1,0.5-1.6,0.5c-0.4,0-0.8-0.1-1.1-0.2c-0.4-0.1-0.7-0.4-0.9-0.6c-0.3-0.3-0.5-0.6-0.6-0.9
	C231,216,230.9,215.6,230.9,215.2z M0.8,188.7c3.2,1.8,10,5.2,26.8,10.5c0,2,1.1,61.9-26.8,62.5c-27.9-0.6-26.8-60.5-26.8-62.5
	C-9.3,193.9-2.4,190.5,0.8,188.7z M0.4,269.7h0.9c36.6,0.1,35.2-73.8,35.2-76.3c-22.7-7.2-31.3-11.7-35.2-13.9l-0.4,0.3l-0.4-0.3
	c-3.9,2.2-12.5,6.7-35.2,13.9C-34.8,195.9-36.3,269.8,0.4,269.7z M136.8,199.2c17.5-5.6,24.2-9,27.2-10.7c3,1.7,9.7,5.2,27.2,10.7
	c0,2,1.1,62.5-27.2,62.5C135.7,261.6,136.8,201.2,136.8,199.2z M164,269.7c36.6,0.1,35.2-73.8,35.2-76.3
	c-22.7-7.2-31.3-11.7-35.2-13.9c-3.9,2.2-12.5,6.6-35.2,13.9C128.9,195.9,127.4,269.8,164,269.7z M55.1,199.2
	c17.5-5.6,24.2-9,27.2-10.7c3,1.7,9.7,5.2,27.2,10.7c0,2,1.1,62.5-27.2,62.5S55.1,201.2,55.1,199.2z M82.3,269.7
	c36.6,0.1,35.2-73.8,35.2-76.3c-22.7-7.2-31.3-11.7-35.2-13.9c-3.9,2.2-12.5,6.7-35.2,13.9C47.1,195.9,45.7,269.8,82.3,269.7z
	 M300.4,199.2c17.5-5.6,24.2-9,27.2-10.7c3,1.7,9.7,5.2,27.2,10.7c0,2,1.1,62.5-27.2,62.5C299.3,261.6,300.4,201.2,300.4,199.2z
	 M327.6,269.7c36.6,0.1,35.2-73.8,35.2-76.3c-22.7-7.2-31.3-11.7-35.2-13.9c-3.9,2.2-12.5,6.7-35.2,13.9
	C292.4,195.9,291,269.8,327.6,269.7z M462.7,199.2c17.5-5.6,24.2-9,27.2-10.7c3,1.7,9.7,5.2,27.2,10.7c0,2,1.1,62.5-27.2,62.5
	S462.7,201.2,462.7,199.2z M489.9,269.7c36.6,0.1,35.2-73.8,35.2-76.3c-22.7-7.2-31.3-11.7-35.2-13.9c-3.9,2.2-12.5,6.6-35.2,13.9
	C454.8,195.9,453.3,269.8,489.9,269.7z M381,199.2c17.5-5.6,24.2-9,27.2-10.7c3,1.7,9.7,5.2,27.2,10.7c0,2,1.1,62.5-27.2,62.5
	S381,201.2,381,199.2z M408.2,269.7c36.6,0.1,35.2-73.8,35.2-76.3c-22.7-7.2-31.3-11.7-35.2-13.9c-3.9,2.2-12.5,6.6-35.2,13.9
	C373,195.9,371.6,269.8,408.2,269.7z M218.6,199.2c17.5-5.6,24.2-9,27.2-10.7c3,1.7,9.7,5.2,27.2,10.7c0,2,1.1,62.5-27.2,62.5
	C217.4,261.6,218.6,201.2,218.6,199.2z M245.8,269.7c36.6,0.1,35.2-73.8,35.2-76.3c-22.7-7.2-31.3-11.7-35.2-13.9
	c-3.9,2.2-12.5,6.6-35.2,13.9C210.6,195.9,209.2,269.8,245.8,269.7z M399.9,247l4.4,4.3l4.1-4.1l4.1,4.1l4.3-4.3l-4.1-4l4.1-4.1
	l-4.3-4.3l-4.1,4l-4.1-4l-4.4,4.3l4.1,4.1L399.9,247z M-7.8,225.6l-0.4,0.4L-19,215.2l10.8-10.8l0.4,0.4l0.4-0.4l4.3,4.3l-6.5,6.5
	l6.5,6.5l-4.3,4.3L-7.8,225.6z M159.7,221.7l-4.3,4.3l-10.8-10.8l10.8-10.8l4.3,4.3l-6.5,6.5L159.7,221.7z M78,221.7l-4.4,4.3
	l-10.8-10.8l10.8-10.8l4.4,4.3l-6.5,6.5L78,221.7z M13.4,225.6l-0.4,0.4L2.1,215.2l10.8-10.8l0.4,0.4l0.4-0.4l4.3,4.3l-6.5,6.5
	l6.5,6.5l-4.3,4.3L13.4,225.6z M180.9,221.7l-4.4,4.3l-10.8-10.8l10.8-10.8l4.4,4.3l-6.5,6.5L180.9,221.7z M99.1,221.7l-4.4,4.3
	L84,215.2l10.8-10.8l4.4,4.3l-6.5,6.5L99.1,221.7z M307.1,212v6.1h17.6V212H307.1z M-4.3,235.7l-4.4,4.3l14.2,14.2l0.4-0.4l0.4,0.4
	l4.4-4.3l-14.2-14.2l-0.4,0.4L-4.3,235.7z M159.3,235.7l-4.3,4.3l14.2,14.2l4.4-4.3L159.3,235.7z M330.5,212v6.1h17.6V212H330.5z
	 M481.1,240.6v6.1h17.6v-6.1H481.1z M248.8,212v6.1h17.6V212H248.8z M328,245.8c-0.8,0-1.6-0.2-2.4-0.5c-0.8-0.3-1.4-0.8-2-1.4
	c-0.6-0.6-1-1.3-1.4-2c-0.3-0.8-0.5-1.6-0.5-2.4v-0.2h-6.4v0.2c0.1,3.3,1.5,6.4,3.8,8.7c2.4,2.3,5.5,3.6,8.8,3.6s6.5-1.3,8.8-3.6
	c2.4-2.3,3.7-5.4,3.8-8.7v-0.2h-6.4c0,0.1,0,0.1,0,0.2c0,0.8-0.2,1.6-0.5,2.4c-0.3,0.8-0.8,1.4-1.4,2c-0.6,0.6-1.3,1-2,1.4
	C329.6,245.6,328.8,245.8,328,245.8L328,245.8z M246.2,245.8c-0.8,0-1.6-0.2-2.4-0.5c-0.8-0.3-1.5-0.8-2-1.4c-0.6-0.6-1-1.3-1.4-2
	c-0.3-0.8-0.5-1.6-0.5-2.4v-0.2h-6.4v0.2c0.1,3.3,1.5,6.4,3.8,8.7c2.4,2.3,5.5,3.6,8.8,3.6c3.3,0,6.5-1.3,8.8-3.6
	c2.4-2.3,3.7-5.4,3.8-8.7v-0.2h-6.4c0,0.1,0,0.1,0,0.2c0,0.8-0.2,1.6-0.5,2.4c-0.3,0.8-0.8,1.4-1.4,2c-0.6,0.6-1.3,1-2,1.4
	C247.9,245.6,247,245.8,246.2,245.8L246.2,245.8z M490.3,54.3c-1.8,0-3.6,0.5-5,1.5c-1.5,1-2.7,2.4-3.3,4.1
	c-0.7,1.7-0.9,3.5-0.5,5.3c0.4,1.8,1.2,3.4,2.5,4.7c1.3,1.3,2.9,2.1,4.7,2.5s3.6,0.2,5.3-0.5c1.7-0.7,3.1-1.9,4.1-3.4
	c1-1.5,1.5-3.3,1.5-5.1c0-2.4-1-4.7-2.7-6.4C495,55.3,492.7,54.3,490.3,54.3z M487.4,63.4c0-0.6,0.2-1.1,0.5-1.6
	c0.3-0.5,0.8-0.8,1.3-1.1c0.5-0.2,1.1-0.3,1.7-0.2c0.6,0.1,1.1,0.4,1.5,0.8c0.4,0.4,0.7,0.9,0.8,1.5c0.1,0.6,0.1,1.1-0.2,1.7
	c-0.2,0.5-0.6,1-1.1,1.3c-0.5,0.3-1,0.5-1.6,0.5c-0.8,0-1.5-0.3-2-0.8C487.7,64.9,487.4,64.2,487.4,63.4z M449.1,144.2
	c-1.8,0-3.6,0.5-5.1,1.5c-1.5,1-2.7,2.4-3.3,4.1c-0.7,1.7-0.9,3.5-0.5,5.3c0.4,1.8,1.2,3.4,2.5,4.7c1.3,1.3,2.9,2.1,4.7,2.5
	c1.8,0.3,3.6,0.2,5.3-0.5c1.7-0.7,3.1-1.9,4.1-3.4c1-1.5,1.5-3.3,1.5-5.1c0-2.4-1-4.7-2.7-6.4C453.8,145.2,451.5,144.2,449.1,144.2z
	 M446.2,153.3c0-0.6,0.2-1.1,0.5-1.6c0.3-0.5,0.8-0.8,1.3-1.1c0.5-0.2,1.1-0.3,1.7-0.2c0.6,0.1,1.1,0.4,1.5,0.8
	c0.4,0.4,0.7,0.9,0.8,1.5c0.1,0.6,0.1,1.1-0.2,1.7c-0.2,0.5-0.6,1-1.1,1.3c-0.5,0.3-1,0.5-1.6,0.5c-0.8,0-1.5-0.3-2-0.8
	C446.5,154.8,446.2,154.1,446.2,153.3z M338.2,26.6c-1.8,0-3.6,0.5-5,1.5c-1.5,1-2.7,2.4-3.3,4.1c-0.7,1.7-0.9,3.5-0.5,5.3
	c0.4,1.8,1.2,3.4,2.5,4.7c1.3,1.3,2.9,2.1,4.7,2.5c1.8,0.3,3.6,0.2,5.3-0.5c1.7-0.7,3.1-1.9,4.1-3.4c1-1.5,1.5-3.3,1.5-5.1
	c0-2.4-1-4.7-2.7-6.4C343,27.6,340.6,26.6,338.2,26.6z M335.3,35.7c0-0.6,0.2-1.1,0.5-1.6c0.3-0.5,0.8-0.8,1.3-1.1
	c0.5-0.2,1.1-0.3,1.7-0.2c0.6,0.1,1.1,0.4,1.5,0.8c0.4,0.4,0.7,0.9,0.8,1.5c0.1,0.6,0.1,1.1-0.2,1.7c-0.2,0.5-0.6,1-1.1,1.3
	c-0.5,0.3-1,0.5-1.6,0.5c-0.4,0-0.8-0.1-1.1-0.2c-0.4-0.1-0.7-0.4-0.9-0.6c-0.3-0.3-0.5-0.6-0.6-0.9
	C335.4,36.5,335.3,36.1,335.3,35.7z M378.8,116.5c-1.8,0-3.6,0.5-5.1,1.5c-1.5,1-2.7,2.4-3.3,4.1c-0.7,1.7-0.9,3.5-0.5,5.3
	c0.4,1.8,1.2,3.4,2.5,4.7c1.3,1.3,2.9,2.1,4.7,2.5c1.8,0.3,3.6,0.2,5.3-0.5c1.7-0.7,3.1-1.9,4.1-3.4c1-1.5,1.5-3.3,1.5-5.1
	c0-2.4-1-4.7-2.7-6.4C383.5,117.5,381.2,116.5,378.8,116.5z M375.9,125.6c0-0.6,0.2-1.1,0.5-1.6c0.3-0.5,0.8-0.8,1.3-1.1
	s1.1-0.3,1.7-0.2c0.6,0.1,1.1,0.4,1.5,0.8c0.4,0.4,0.7,0.9,0.8,1.5c0.1,0.6,0.1,1.1-0.2,1.7c-0.2,0.5-0.6,1-1.1,1.3
	c-0.5,0.3-1,0.5-1.6,0.5c-0.4,0-0.8-0.1-1.1-0.2c-0.4-0.1-0.7-0.4-0.9-0.6c-0.3-0.3-0.5-0.6-0.6-0.9
	C376,126.4,375.9,126,375.9,125.6z M297,116.5c-1.8,0-3.6,0.5-5,1.5c-1.5,1-2.7,2.4-3.3,4.1c-0.7,1.7-0.9,3.5-0.5,5.3
	c0.4,1.8,1.2,3.4,2.5,4.7c1.3,1.3,2.9,2.1,4.7,2.5c1.8,0.3,3.6,0.2,5.3-0.5c1.7-0.7,3.1-1.9,4.1-3.4c1-1.5,1.5-3.3,1.5-5.1
	c0-2.4-1-4.7-2.7-6.4C301.8,117.5,299.4,116.5,297,116.5z M294.1,125.6c0-0.6,0.2-1.1,0.5-1.6c0.3-0.5,0.8-0.8,1.3-1.1
	c0.5-0.2,1.1-0.3,1.7-0.2c0.6,0.1,1.1,0.4,1.5,0.8c0.4,0.4,0.7,0.9,0.8,1.5c0.1,0.6,0.1,1.1-0.2,1.7c-0.2,0.5-0.6,1-1.1,1.3
	c-0.5,0.3-1,0.5-1.6,0.5c-0.4,0-0.8-0.1-1.1-0.2c-0.4-0.1-0.7-0.4-0.9-0.6c-0.3-0.3-0.5-0.6-0.6-0.9
	C294.2,126.4,294.1,126,294.1,125.6z M314.6,26.6c-1.8,0-3.6,0.5-5,1.5c-1.5,1-2.7,2.4-3.3,4.1c-0.7,1.7-0.9,3.5-0.5,5.3
	c0.4,1.8,1.2,3.4,2.5,4.7c1.3,1.3,2.9,2.1,4.7,2.5c1.8,0.3,3.6,0.2,5.3-0.5c1.7-0.7,3.1-1.9,4.1-3.4c1-1.5,1.5-3.3,1.5-5.1
	c0-2.4-1-4.7-2.7-6.4C319.3,27.6,317,26.6,314.6,26.6z M311.7,35.7c0-0.6,0.2-1.1,0.5-1.6c0.3-0.5,0.8-0.8,1.3-1.1s1.1-0.3,1.7-0.2
	c0.6,0.1,1.1,0.4,1.5,0.8c0.4,0.4,0.7,0.9,0.8,1.5c0.1,0.6,0.1,1.1-0.2,1.7c-0.2,0.5-0.6,1-1.1,1.3c-0.5,0.3-1,0.5-1.6,0.5
	c-0.4,0-0.8-0.1-1.1-0.2c-0.4-0.1-0.7-0.4-0.9-0.6c-0.3-0.3-0.5-0.6-0.6-0.9C311.7,36.5,311.7,36.1,311.7,35.7z M355.1,116.5
	c-1.8,0-3.6,0.5-5.1,1.5c-1.5,1-2.7,2.4-3.3,4.1c-0.7,1.7-0.9,3.5-0.5,5.3c0.4,1.8,1.2,3.4,2.5,4.7c1.3,1.3,2.9,2.1,4.7,2.5
	c1.8,0.3,3.6,0.2,5.3-0.5c1.7-0.7,3.1-1.9,4.1-3.4c1-1.5,1.5-3.3,1.5-5.1c0-2.4-1-4.7-2.7-6.4C359.8,117.5,357.5,116.5,355.1,116.5z
	 M352.2,125.6c0-0.6,0.2-1.1,0.5-1.6c0.3-0.5,0.8-0.8,1.3-1.1s1.1-0.3,1.7-0.2c0.6,0.1,1.1,0.4,1.5,0.8c0.4,0.4,0.7,0.9,0.8,1.5
	c0.1,0.6,0.1,1.1-0.2,1.7c-0.2,0.5-0.6,1-1.1,1.3c-0.5,0.3-1,0.5-1.6,0.5c-0.4,0-0.8-0.1-1.1-0.2c-0.4-0.1-0.7-0.4-0.9-0.6
	c-0.3-0.3-0.5-0.6-0.6-0.9C352.3,126.4,352.2,126,352.2,125.6z M175,26.6c-1.8,0-3.6,0.5-5,1.5c-1.5,1-2.7,2.4-3.3,4.1
	c-0.7,1.7-0.9,3.5-0.5,5.3c0.4,1.8,1.2,3.4,2.5,4.7c1.3,1.3,2.9,2.1,4.7,2.5c1.8,0.3,3.6,0.2,5.3-0.5c1.7-0.7,3.1-1.9,4.1-3.4
	c1-1.5,1.5-3.3,1.5-5.1c0-2.4-1-4.7-2.7-6.4C179.8,27.6,177.4,26.6,175,26.6z M172.1,35.7c0-0.6,0.2-1.1,0.5-1.6
	c0.3-0.5,0.8-0.8,1.3-1.1c0.5-0.2,1.1-0.3,1.7-0.2c0.6,0.1,1.1,0.4,1.5,0.8c0.4,0.4,0.7,0.9,0.8,1.5c0.1,0.6,0.1,1.1-0.2,1.7
	c-0.2,0.5-0.6,1-1.1,1.3c-0.5,0.3-1,0.5-1.6,0.5c-0.4,0-0.8-0.1-1.1-0.2c-0.4-0.1-0.7-0.4-0.9-0.6c-0.3-0.3-0.5-0.6-0.6-0.9
	C172.2,36.5,172.1,36.1,172.1,35.7z M273.3,116.5c-1.8,0-3.6,0.5-5.1,1.5c-1.5,1-2.7,2.4-3.3,4.1c-0.7,1.7-0.9,3.5-0.5,5.3
	c0.4,1.8,1.2,3.4,2.5,4.7c1.3,1.3,2.9,2.1,4.7,2.5c1.8,0.3,3.6,0.2,5.3-0.5c1.7-0.7,3.1-1.9,4.1-3.4s1.5-3.3,1.5-5.1
	c0-2.4-1-4.7-2.7-6.4C278.1,117.5,275.8,116.5,273.3,116.5z M270.5,125.6c0-0.6,0.2-1.1,0.5-1.6c0.3-0.5,0.8-0.8,1.3-1.1
	c0.5-0.2,1.1-0.3,1.7-0.2c0.6,0.1,1.1,0.4,1.5,0.8s0.7,0.9,0.8,1.5c0.1,0.6,0.1,1.1-0.2,1.7c-0.2,0.5-0.6,1-1.1,1.3
	c-0.5,0.3-1,0.5-1.6,0.5c-0.4,0-0.8-0.1-1.1-0.2c-0.4-0.1-0.7-0.4-0.9-0.6c-0.3-0.3-0.5-0.6-0.6-0.9
	C270.5,126.4,270.5,126,270.5,125.6z M11.8,26.6c-1.8,0-3.6,0.5-5.1,1.5c-1.5,1-2.7,2.4-3.3,4.1c-0.7,1.7-0.9,3.5-0.5,5.3
	c0.4,1.8,1.2,3.4,2.5,4.7c1.3,1.3,2.9,2.1,4.7,2.5s3.6,0.2,5.3-0.5c1.7-0.7,3.1-1.9,4.1-3.4c1-1.5,1.5-3.3,1.5-5.1
	c0-2.4-1-4.7-2.7-6.4C16.5,27.6,14.2,26.6,11.8,26.6z M8.9,35.7c0-0.6,0.2-1.1,0.5-1.6c0.3-0.5,0.8-0.8,1.3-1.1
	c0.5-0.2,1.1-0.3,1.7-0.2c0.6,0.1,1.1,0.4,1.5,0.8s0.7,0.9,0.8,1.5c0.1,0.6,0.1,1.1-0.2,1.7c-0.2,0.5-0.6,1-1.1,1.3
	c-0.5,0.3-1,0.5-1.6,0.5c-0.4,0-0.8-0.1-1.1-0.2c-0.4-0.1-0.7-0.4-0.9-0.6c-0.3-0.3-0.5-0.6-0.6-0.9C8.9,36.5,8.9,36.1,8.9,35.7z
	 M-12,26.6c-1.8,0-3.6,0.5-5.1,1.5c-1.5,1-2.7,2.4-3.3,4.1c-0.7,1.7-0.9,3.5-0.5,5.3c0.4,1.8,1.2,3.4,2.5,4.7
	c1.3,1.3,2.9,2.1,4.7,2.5s3.6,0.2,5.3-0.5c1.7-0.7,3.1-1.9,4.1-3.4c1-1.5,1.5-3.3,1.5-5.1c0-2.4-1-4.7-2.7-6.4
	C-7.2,27.6-9.6,26.6-12,26.6z M-14.9,35.7c0-0.6,0.2-1.1,0.5-1.6c0.3-0.5,0.8-0.8,1.3-1.1c0.5-0.2,1.1-0.3,1.7-0.2
	c0.6,0.1,1.1,0.4,1.5,0.8s0.7,0.9,0.8,1.5c0.1,0.6,0.1,1.1-0.2,1.7c-0.2,0.5-0.6,1-1.1,1.3c-0.5,0.3-1,0.5-1.6,0.5
	c-0.4,0-0.8-0.1-1.1-0.2c-0.4-0.1-0.7-0.4-0.9-0.6c-0.3-0.3-0.5-0.6-0.6-0.9C-14.8,36.5-14.9,36.1-14.9,35.7z M28.6,116.5
	c-1.8,0-3.6,0.5-5.1,1.5c-1.5,1-2.7,2.4-3.3,4.1c-0.7,1.7-0.9,3.5-0.5,5.3c0.4,1.8,1.2,3.4,2.5,4.7c1.3,1.3,2.9,2.1,4.7,2.5
	c1.8,0.3,3.6,0.2,5.3-0.5c1.7-0.7,3.1-1.9,4.1-3.4s1.5-3.3,1.5-5.1c0-2.4-1-4.7-2.7-6.4S31,116.5,28.6,116.5z M25.7,125.6
	c0-0.6,0.2-1.1,0.5-1.6c0.3-0.5,0.8-0.8,1.3-1.1s1.1-0.3,1.7-0.2c0.6,0.1,1.1,0.4,1.5,0.8s0.7,0.9,0.8,1.5c0.1,0.6,0.1,1.1-0.2,1.7
	c-0.2,0.5-0.6,1-1.1,1.3c-0.5,0.3-1,0.5-1.6,0.5c-0.4,0-0.8-0.1-1.1-0.2c-0.4-0.1-0.7-0.4-0.9-0.6c-0.3-0.3-0.5-0.6-0.6-0.9
	C25.8,126.4,25.7,126,25.7,125.6z M502.8,109.5c17.5-5.6,24.2-9,27.2-10.7c3,1.7,9.7,5.2,27.2,10.7c0,2,1.1,62.5-27.2,62.5
	C501.7,172,502.8,111.5,502.8,109.5z M530,180.1c36.7,0.1,35.2-73.8,35.2-76.3c-22.7-7.2-31.3-11.7-35.2-13.9
	c-3.9,2.2-12.5,6.6-35.2,13.9C494.8,106.3,493.4,180.2,530,180.1z M462.8,19.7c17.5-5.6,24.2-9,27.2-10.7c3,1.7,9.7,5.2,27.2,10.7
	c0,2,1.1,62.5-27.2,62.5C461.7,82.1,462.8,21.6,462.8,19.7z M490,90.2c36.6,0.1,35.2-73.8,35.2-76.3C502.5,6.6,493.9,2.2,490,0
	c-3.9,2.2-12.5,6.7-35.2,13.9C454.8,16.4,453.4,90.3,490,90.2z M381,19.7c17.5-5.6,24.2-9,27.2-10.7c3,1.7,9.7,5.2,27.2,10.7
	c0,2,1.1,62.5-27.2,62.5C379.9,82.1,381,21.6,381,19.7z M408.2,90.2c36.6,0.1,35.2-73.8,35.2-76.3C420.8,6.6,412.1,2.2,408.2,0
	c-3.9,2.2-12.5,6.7-35.2,13.9C373,16.4,371.6,90.3,408.2,90.2z M421.5,109.6c17.5-5.6,24.2-9,27.2-10.7c3,1.7,9.7,5.2,27.2,10.7
	c0,2,1.1,62.5-27.2,62.5C420.4,172,421.5,111.5,421.5,109.6z M448.7,180.1c36.6,0.1,35.2-73.8,35.2-76.3
	c-22.7-7.2-31.3-11.7-35.2-13.9c-3.9,2.2-12.5,6.6-35.2,13.9C413.6,106.3,412.1,180.2,448.7,180.1z M53.9,19.7
	c17.5-5.6,24.2-9,27.2-10.7c3,1.7,9.7,5.2,27.2,10.7c0,2,1.1,62.5-27.2,62.5C52.8,82.1,53.9,21.6,53.9,19.7z M81.1,90.2
	c36.6,0.1,35.2-73.8,35.2-76.3C93.6,6.6,85,2.2,81.1,0c-3.9,2.2-12.5,6.7-35.2,13.9C45.9,16.4,44.5,90.3,81.1,90.2z M94.5,109.6
	c17.5-5.6,24.2-9,27.2-10.7c3,1.7,9.7,5.2,27.2,10.7c0,2,1.1,62.5-27.2,62.5C93.4,172,94.5,111.5,94.5,109.6z M121.7,180.1
	c36.6,0.1,35.2-73.8,35.2-76.3c-22.7-7.2-31.3-11.7-35.2-13.9c-3.9,2.2-12.5,6.6-35.2,13.9C86.6,106.3,85.1,180.2,121.7,180.1z
	 M135.7,19.7c17.5-5.6,24.2-9,27.2-10.7c3,1.7,9.7,5.2,27.2,10.7c0,2,1.1,62.5-27.2,62.5C134.6,82.1,135.7,21.6,135.7,19.7z
	 M162.9,90.2c36.6,0.1,35.2-73.8,35.2-76.3C175.4,6.6,166.8,2.2,162.9,0c-3.9,2.2-12.5,6.7-35.2,13.9
	C127.7,16.4,126.3,90.3,162.9,90.2z M176.3,109.6c17.5-5.6,24.2-9,27.2-10.7c3,1.7,9.7,5.2,27.2,10.7c0,2,1.1,62.5-27.2,62.5
	C175.2,172,176.3,111.5,176.3,109.6z M203.5,180.1c36.6,0.1,35.2-73.8,35.2-76.3c-22.7-7.2-31.3-11.7-35.2-13.9
	c-3.9,2.2-12.5,6.6-35.2,13.9C168.3,106.3,166.9,180.2,203.5,180.1z M299.2,19.7c17.5-5.6,24.2-9,27.2-10.7c3,1.7,9.7,5.2,27.2,10.7
	c0,2,1.1,62.5-27.2,62.5C298.1,82.1,299.2,21.6,299.2,19.7z M326.5,90.2c36.6,0.1,35.2-73.8,35.2-76.3C339,6.6,330.3,2.2,326.5,0
	c-3.9,2.2-12.5,6.7-35.2,13.9C291.3,16.4,289.8,90.3,326.5,90.2z M339.8,109.6c17.5-5.6,24.2-9,27.2-10.7c3,1.7,9.7,5.2,27.2,10.7
	c0,2,1.1,62.5-27.2,62.5C338.7,172,339.8,111.5,339.8,109.6z M367.1,180.1c36.6,0.1,35.2-73.8,35.2-76.3
	c-22.7-7.2-31.3-11.7-35.2-13.9c-3.9,2.2-12.5,6.6-35.2,13.9C331.9,106.3,330.4,180.2,367.1,180.1z M217.5,19.7
	c17.5-5.6,24.2-9,27.2-10.7c3,1.7,9.7,5.2,27.2,10.7c0,2,1.1,62.5-27.2,62.5C216.4,82.1,217.5,21.6,217.5,19.7z M244.7,90.2
	c36.6,0.1,35.2-73.8,35.2-76.3C257.2,6.6,248.6,2.2,244.7,0c-3.9,2.2-12.5,6.7-35.2,13.9C209.5,16.4,208.1,90.3,244.7,90.2z
	 M258.1,109.6c17.5-5.6,24.2-9,27.2-10.7c3,1.7,9.7,5.2,27.2,10.7c0,2,1.1,62.5-27.2,62.5C257,172,258.1,111.5,258.1,109.6z
	 M285.3,180.1c36.6,0.1,35.2-73.8,35.2-76.3c-22.7-7.2-31.3-11.7-35.2-13.9c-3.9,2.2-12.5,6.6-35.2,13.9
	C250.1,106.3,248.7,180.2,285.3,180.1z M-27.2,19.7C-9.7,14.1-3,10.7,0,8.9c3,1.7,9.7,5.2,27.2,10.7c0,2,1.1,62.5-27.2,62.5
	C-28.3,82.1-27.2,21.6-27.2,19.7z M0,90.2c36.6,0.1,35.2-73.8,35.2-76.3C12.5,6.6,3.9,2.2,0,0c-3.9,2.2-12.5,6.7-35.2,13.9
	C-35.2,16.4-36.6,90.3,0,90.2z M13.4,109.6c17.5-5.6,24.2-9,27.2-10.7c3,1.7,9.7,5.2,27.2,10.7c0,2,1.1,62.5-27.2,62.5
	C12.3,172,13.4,111.5,13.4,109.6z M40.6,180.1c36.6,0.1,35.2-73.8,35.2-76.3c-22.7-7.2-31.3-11.7-35.2-13.9
	c-3.9,2.2-12.5,6.6-35.2,13.9C5.4,106.3,4,180.2,40.6,180.1z M400.1,67.5l4.3,4.3l4.1-4.1l4.1,4.1l4.3-4.3l-4.1-4.1l4.1-4l-4.3-4.3
	l-4.1,4l-4.1-4l-4.3,4.3l4.1,4L400.1,67.5z M276.9,157.4l4.3,4.3l4.1-4.1l4.1,4.1l4.3-4.3l-4.1-4l4.1-4.1l-4.3-4.3l-4.1,4l-4.1-4
	l-4.3,4.3l4.1,4.1L276.9,157.4z M532.6,129.7l4.4,4.3l4.1-4.1l4.1,4.1l4.3-4.3l-4.1-4.1l4.1-4l-4.3-4.3l-4.1,4.1l-4.1-4.1l-4.4,4.3
	l4.1,4L532.6,129.7z M510.3,129.7l4.3,4.3l4.1-4.1l4.1,4.1l4.3-4.3l-4.1-4.1l4.1-4l-4.3-4.3l-4.1,4.1l-4.1-4.1l-4.3,4.3l4.1,4
	L510.3,129.7z M496.4,28.2l-4.3,4.3l10.8,10.8l10.8-10.8l-4.3-4.3l-6.5,6.4L496.4,28.2z M87.1,43.3L82.7,39l10.8-10.8L104.4,39
	l-4.4,4.3l-6.5-6.5L87.1,43.3z M414.7,28.2l-4.3,4.3l10.7,10.8l10.8-10.8l-4.3-4.3l-6.5,6.4L414.7,28.2z M455.3,118.1l-4.3,4.3
	l10.8,10.8l10.8-10.8l-4.3-4.3l-6.5,6.4L455.3,118.1z M125.5,132.1l4.4,4.3l10.8-10.8l-10.8-10.8l-4.4,4.3l6.5,6.5L125.5,132.1z
	 M471.9,28.1l-4.3,4.3l10.8,10.8l10.8-10.8l-4.3-4.3l-6.5,6.4L471.9,28.1z M62.5,43.3L58.1,39L69,28.2L79.8,39l-4.3,4.3l-6.5-6.5
	L62.5,43.3z M390.1,28.2l-4.3,4.3l10.8,10.8l10.8-10.8l-4.3-4.3l-6.5,6.4L390.1,28.2z M430.7,118.1l-4.3,4.3l10.8,10.8l10.8-10.8
	l-4.4-4.3l-6.5,6.5L430.7,118.1z M104.3,132.1l4.4,4.3l10.8-10.8l-10.8-10.8l-4.4,4.3l6.5,6.5L104.3,132.1z M258.3,26.3l5.3,3.1
	l-8.8,15.2l-5.3-3.1L258.3,26.3z M231.4,26.3l-5.3,3.1l8.8,15.2l5.3-3.1L231.4,26.3z M154.5,26.7h-6.4v17.6h6.1L154.5,26.7z
	 M183,122.3v6.1h17.6v-6.1H183z M76.6,55.8l-4.4,4.3l14.2,14.2l4.3-4.3L76.6,55.8z M154.3,61v6.1h17.6V61H154.3z M206.4,122.3v6.1
	h17.7v-6.1H206.4z M317.6,61v6.1h17.6V61H317.6z M358.2,150.9v6.1h17.6v-6.1H358.2z M43.5,122.3v6.1h17.6v-6.1H43.5z M530,151.6
	c0.8,0,1.6,0.2,2.4,0.5c0.8,0.3,1.4,0.8,2,1.4c0.6,0.6,1,1.3,1.4,2c0.3,0.8,0.5,1.6,0.5,2.4v0.2h6.4v-0.2c-0.1-3.3-1.5-6.4-3.8-8.7
	c-2.4-2.3-5.5-3.6-8.8-3.6s-6.5,1.3-8.8,3.6c-2.4,2.3-3.7,5.4-3.8,8.7c0,0.1,0,0.1,0,0.2h6.4v-0.2c0-1.7,0.7-3.2,1.8-4.4
	C526.8,152.3,528.4,151.6,530,151.6L530,151.6z M244.7,66.3c-0.8,0-1.6-0.2-2.4-0.5c-0.8-0.3-1.4-0.8-2-1.4c-0.6-0.6-1-1.3-1.4-2
	c-0.3-0.8-0.5-1.6-0.5-2.4v-0.2h-6.4v0.2c0.1,3.3,1.5,6.4,3.8,8.7c2.4,2.3,5.5,3.6,8.8,3.6c3.3,0,6.5-1.3,8.8-3.6
	c2.4-2.3,3.7-5.4,3.8-8.7v-0.2H251c0,0.1,0,0.1,0,0.2c0,0.8-0.2,1.6-0.5,2.4c-0.3,0.8-0.8,1.4-1.4,2c-0.6,0.6-1.3,1-2,1.4
	C246.4,66.2,245.5,66.3,244.7,66.3L244.7,66.3z M122.1,156.2c-0.8,0-1.6-0.2-2.4-0.5c-0.8-0.3-1.5-0.8-2-1.4c-0.6-0.6-1-1.3-1.4-2
	c-0.3-0.8-0.5-1.6-0.5-2.4v-0.2h-6.4v0.2c0.1,3.3,1.5,6.4,3.8,8.7c2.4,2.3,5.5,3.6,8.8,3.6c3.3,0,6.5-1.3,8.8-3.6
	c2.4-2.3,3.7-5.4,3.8-8.7v-0.2h-6.4c0,0.1,0,0.1,0,0.2c0,0.8-0.2,1.6-0.5,2.4c-0.3,0.8-0.8,1.4-1.4,2c-0.6,0.6-1.3,1-2,1.4
	C123.7,156,122.9,156.2,122.1,156.2L122.1,156.2z M203.9,156.2c-0.8,0-1.6-0.2-2.4-0.5c-0.8-0.3-1.4-0.8-2-1.4c-0.6-0.6-1-1.3-1.4-2
	c-0.3-0.8-0.5-1.6-0.5-2.4v-0.2h-6.4v0.2c0.1,3.3,1.5,6.4,3.8,8.7c2.4,2.3,5.5,3.6,8.8,3.6c3.3,0,6.5-1.3,8.8-3.6
	c2.4-2.3,3.7-5.4,3.8-8.7v-0.2h-6.4c0,0.1,0,0.1,0,0.2c0,0.8-0.2,1.6-0.5,2.4c-0.3,0.8-0.8,1.4-1.4,2c-0.6,0.6-1.3,1-2,1.4
	C205.5,156,204.7,156.2,203.9,156.2L203.9,156.2z M0.3,66.3c-0.8,0-1.6-0.2-2.4-0.5c-0.8-0.3-1.4-0.8-2-1.4c-0.6-0.6-1-1.3-1.4-2
	c-0.3-0.8-0.5-1.6-0.5-2.4v-0.2h-6.4v0.2c0.1,3.3,1.5,6.4,3.8,8.7c2.4,2.3,5.5,3.6,8.8,3.6s6.5-1.3,8.8-3.6c2.4-2.3,3.7-5.4,3.8-8.7
	v-0.2H6.6c0,0.1,0,0.1,0,0.2c0,0.8-0.2,1.6-0.5,2.4c-0.3,0.8-0.8,1.4-1.4,2c-0.6,0.6-1.3,1-2,1.4C1.9,66.2,1.1,66.3,0.3,66.3
	L0.3,66.3z M41,156.2c-0.8,0-1.6-0.2-2.4-0.5c-0.8-0.3-1.5-0.8-2-1.4c-0.6-0.6-1-1.3-1.4-2c-0.3-0.8-0.5-1.6-0.5-2.4v-0.2h-6.4v0.2
	c0.1,3.3,1.5,6.4,3.8,8.7c2.4,2.3,5.5,3.6,8.8,3.6c3.3,0,6.5-1.3,8.8-3.6c2.4-2.3,3.7-5.4,3.8-8.7v-0.2h-6.5c0,0.1,0,0.1,0,0.2
	c0,0.8-0.2,1.6-0.5,2.4c-0.3,0.8-0.8,1.4-1.4,2c-0.6,0.6-1.3,1-2,1.4c-0.8,0.3-1.6,0.5-2.4,0.5H41z M544.4,199.2
	c17.5-5.6,24.2-9,27.2-10.7c3,1.7,9.7,5.2,27.2,10.7c0,2,1.1,62.5-27.2,62.5C543.3,261.6,544.4,201.2,544.4,199.2z M571.7,269.7
	c36.6,0.1,35.2-73.8,35.2-76.3c-22.7-7.2-31.3-11.7-35.2-13.9c-3.9,2.2-12.5,6.6-35.2,13.9C536.5,195.9,535,269.8,571.7,269.7z
	 M567.4,221.7l-4.3,4.3l-10.8-10.8l10.8-10.8l4.3,4.3l-6.5,6.5L567.4,221.7z M588.6,221.7l-4.3,4.3l-10.8-10.8l10.8-10.8l4.3,4.3
	l-6.5,6.5L588.6,221.7z M566.9,235.6l-4.3,4.3l14.2,14.2l4.4-4.3L566.9,235.6z M583,26.6c-1.8,0-3.6,0.5-5,1.5
	c-1.5,1-2.7,2.4-3.3,4.1c-0.7,1.7-0.9,3.5-0.5,5.3c0.4,1.8,1.2,3.4,2.5,4.7c1.3,1.3,2.9,2.1,4.7,2.5c1.8,0.3,3.6,0.2,5.3-0.5
	c1.7-0.7,3.1-1.9,4.1-3.4c1-1.5,1.5-3.3,1.5-5.1c0-2.4-1-4.7-2.7-6.4C587.7,27.6,585.4,26.6,583,26.6z M580.1,35.7
	c0-0.6,0.2-1.1,0.5-1.6c0.3-0.5,0.8-0.8,1.3-1.1s1.1-0.3,1.7-0.2c0.6,0.1,1.1,0.4,1.5,0.8c0.4,0.4,0.7,0.9,0.8,1.5
	c0.1,0.6,0.1,1.1-0.2,1.7c-0.2,0.5-0.6,1-1.1,1.3c-0.5,0.3-1,0.5-1.6,0.5c-0.4,0-0.8-0.1-1.1-0.2c-0.4-0.1-0.7-0.4-0.9-0.6
	c-0.3-0.3-0.5-0.6-0.6-0.9C580.2,36.5,580.1,36.1,580.1,35.7z M559.3,26.6c-1.8,0-3.6,0.5-5,1.5c-1.5,1-2.7,2.4-3.3,4.1
	c-0.7,1.7-0.9,3.5-0.5,5.3c0.4,1.8,1.2,3.4,2.5,4.7c1.3,1.3,2.9,2.1,4.7,2.5c1.8,0.3,3.6,0.2,5.3-0.5c1.7-0.7,3.1-1.9,4.1-3.4
	c1-1.5,1.5-3.3,1.5-5.1c0-2.4-1-4.7-2.7-6.4C564,27.6,561.7,26.6,559.3,26.6z M556.4,35.7c0-0.6,0.2-1.1,0.5-1.6
	c0.3-0.5,0.8-0.8,1.3-1.1s1.1-0.3,1.7-0.2c0.6,0.1,1.1,0.4,1.5,0.8c0.4,0.4,0.7,0.9,0.8,1.5c0.1,0.6,0.1,1.1-0.2,1.7
	c-0.2,0.5-0.6,1-1.1,1.3c-0.5,0.3-1,0.5-1.6,0.5c-0.4,0-0.8-0.1-1.1-0.2c-0.4-0.1-0.7-0.4-0.9-0.6c-0.3-0.3-0.5-0.6-0.6-0.9
	C556.4,36.5,556.4,36.1,556.4,35.7z M544,19.7c17.5-5.6,24.2-9,27.2-10.7c3,1.7,9.7,5.2,27.2,10.7c0,2,1.1,62.5-27.2,62.5
	C542.9,82.1,544,21.6,544,19.7z M571.2,90.2c36.6,0.1,35.2-73.8,35.2-76.3C583.7,6.6,575.1,2.2,571.2,0c-3.9,2.2-12.5,6.7-35.2,13.9
	C536,16.4,534.6,90.3,571.2,90.2z M571.6,66.3c-0.8,0-1.6-0.2-2.4-0.5c-0.8-0.3-1.4-0.8-2-1.4c-0.6-0.6-1-1.3-1.4-2
	c-0.3-0.8-0.5-1.6-0.5-2.4v-0.2H559v0.2c0.1,3.3,1.5,6.4,3.8,8.7c2.4,2.3,5.5,3.6,8.8,3.6c3.3,0,6.5-1.3,8.8-3.6
	c2.4-2.3,3.7-5.4,3.8-8.7v-0.2h-6.4v0.2c0,0.8-0.2,1.6-0.5,2.4c-0.3,0.8-0.8,1.4-1.4,2c-0.6,0.6-1.3,1-2,1.4
	C573.3,66.2,572.4,66.3,571.6,66.3L571.6,66.3z"/>
</svg>
