<?xml version="1.0" encoding="utf-8"?>
<!-- Generator: Adobe Illustrator 23.0.5, SVG Export Plug-In . SVG Version: 6.00 Build 0)  -->
<svg version="1.1" id="Layer_1" xmlns="http://www.w3.org/2000/svg" xmlns:xlink="http://www.w3.org/1999/xlink" x="0px" y="0px"
	 viewBox="0 0 529.2 505.1" style="enable-background:new 0 0 529.2 505.1;" xml:space="preserve">
<style type="text/css">
	.st0{fill-opacity:0.1;}
	.st1{fill-opacity:0.2;}
	.st2{fill:none;stroke:#00CA6E;stroke-width:2;}
	.st3{fill:#FFFFFF;fill-opacity:5.000000e-02;}
	.st4{fill:#FFFFFF;fill-opacity:2.000000e-02;}
</style>
<path class="st0" d="M334.2,84.6H237l48.6-84.2L334.2,84.6z"/>
<path class="st0" d="M288.2,505.1H191l48.6-84.2L288.2,505.1z"/>
<path class="st0" d="M383.2,337.6H286l48.6-84.2L383.2,337.6z"/>
<path class="st0" d="M529.2,253.6H432l48.6-84.2L529.2,253.6z"/>
<path class="st1" d="M237.2,252.1H140l48.6-84.2L237.2,252.1z"/>
<path class="st0" d="M479.2,169.1H382l48.6-84.2L479.2,169.1z"/>
<path class="st2" d="M383.6,338.9l46.9,81.2h-93.8L383.6,338.9z"/>
<path class="st3" d="M236.5,84.6h97.2l-48.6,84.2L236.5,84.6z"/>
<path class="st3" d="M384,337.6h97.2l-48.6,84.2L384,337.6z"/>
<path class="st3" d="M382,0h97.2l-48.6,84.2L382,0z"/>
<path class="st3" d="M335,254h97.2l-48.6,84.2L335,254z"/>
<path class="st4" d="M0,336h97.2l-48.6,84.2L0,336z"/>
<path class="st4" d="M333.5,84.6h97.2l-48.6,84.2L333.5,84.6z"/>
<path class="st4" d="M285,169.6h97.2l-48.6,84.2L285,169.6z"/>
<path class="st3" d="M431,84.6h97.2l-48.6,84.2L431,84.6z"/>
</svg>
