<?xml version="1.0" encoding="utf-8"?>
<!-- Generator: Adobe Illustrator 23.0.5, SVG Export Plug-In . SVG Version: 6.00 Build 0)  -->
<svg version="1.1" id="Layer_1" xmlns="http://www.w3.org/2000/svg" xmlns:xlink="http://www.w3.org/1999/xlink" x="0px" y="0px"
	 viewBox="0 0 646.2 502.3" style="enable-background:new 0 0 646.2 502.3;" xml:space="preserve">
<style type="text/css">
	.st0{fill-opacity:0.1;}
	.st1{fill-opacity:0.2;}
	.st2{fill:none;stroke:#00CA6E;stroke-width:2;}
	.st3{fill:#FFFFFF;fill-opacity:5.000000e-02;}
	.st4{fill:#FFFFFF;fill-opacity:3.000000e-02;}
	.st5{fill:#FFFFFF;fill-opacity:2.000000e-02;}
</style>
<path class="st0" d="M290.2,84.2H193L241.6,0L290.2,84.2z"/>
<path class="st0" d="M194.2,418.2H97l48.6-84.2L194.2,418.2z"/>
<path class="st0" d="M339.2,334.2H242l48.6-84.2L339.2,334.2z"/>
<path class="st0" d="M551.2,502.2H454l48.6-84.2L551.2,502.2z"/>
<path class="st0" d="M193.2,252.2H96l48.6-84.2L193.2,252.2z"/>
<path class="st1" d="M339.2,169.2H242L290.6,85L339.2,169.2z"/>
<path class="st1" d="M146.2,333.2H49L97.6,249L146.2,333.2z"/>
<path class="st2" d="M242.6,336l46.9,81.2h-93.8L242.6,336z"/>
<path class="st3" d="M193.5,84.1h97.2l-48.6,84.2L193.5,84.1z"/>
<path class="st3" d="M194,418.1h97.2l-48.6,84.2L194,418.1z"/>
<path class="st3" d="M291,250.2h97.2l-48.6,84.2L291,250.2z"/>
<path class="st2" d="M48.6,166.3L1.7,85.1h93.8L48.6,166.3z"/>
<path class="st4" d="M47,0.1h97.2L95.6,84.3L47,0.1z"/>
<path class="st5" d="M290.5,84.1h97.2l-48.6,84.2L290.5,84.1z"/>
<path class="st5" d="M549,84.1h97.2l-48.6,84.2L549,84.1z"/>
<path class="st5" d="M97,84.1h97.2l-48.6,84.2L97,84.1z"/>
<path class="st5" d="M48,334.1h97.2l-48.6,84.2L48,334.1z"/>
<path class="st5" d="M146,169.1h97.2l-48.6,84.2L146,169.1z"/>
</svg>
