<?xml version="1.0" encoding="utf-8"?>
<!-- Generator: Adobe Illustrator 23.0.5, SVG Export Plug-In . SVG Version: 6.00 Build 0)  -->
<svg version="1.1" id="Layer_1" xmlns="http://www.w3.org/2000/svg" xmlns:xlink="http://www.w3.org/1999/xlink" x="0px" y="0px"
	 viewBox="0 0 599.2 755.2" style="enable-background:new 0 0 599.2 755.2;" xml:space="preserve">
<path style="fill-opacity:5.000000e-02;" d="M146.7,85.2H49.5L98.1,0.9L146.7,85.2z"/>
<path style="fill-opacity:5.000000e-02;" d="M243.2,253.1H146l48.6-84.2L243.2,253.1z"/>
<path style="fill-opacity:5.000000e-02;" d="M147.2,587.1H50l48.6-84.2L147.2,587.1z"/>
<path style="fill-opacity:5.000000e-02;" d="M292.2,503.1H195l48.6-84.2L292.2,503.1z"/>
<path style="fill-opacity:5.000000e-02;" d="M194.2,169.1H97l48.6-84.2L194.2,169.1z"/>
<path style="fill-opacity:5.000000e-02;" d="M391.2,671.1H294l48.6-84.2L391.2,671.1z"/>
<path style="fill-opacity:5.000000e-02;" d="M438.2,85.1H341l48.6-84.2L438.2,85.1z"/>
<path style="fill-opacity:5.000000e-02;" d="M146.2,421.1H49l48.6-84.2L146.2,421.1z"/>
<path style="fill-opacity:0.1;" d="M99.2,502.1H2l48.6-84.2L99.2,502.1z"/>
<path style="fill-opacity:0.1;" d="M98.7,169.1H1.5l48.6-84.2L98.7,169.1z"/>
<path style="fill:#FFFFFF;" d="M146.5,253h97.2l-48.6,84.2L146.5,253z"/>
<path style="fill:#FFFFFF;fill-opacity:0.7;" d="M245,420h97.2l-48.6,84.2L245,420z"/>
<path style="fill:#FFFFFF;fill-opacity:0.7;" d="M99,671h97.2l-48.6,84.2L99,671z"/>
<path style="fill:#FFFFFF;fill-opacity:0.7;" d="M193.5,0l97.2,0l-48.6,84.2L193.5,0z"/>
<path style="fill:#FFFFFF;" d="M0,169h97.2l-48.6,84.2L0,169z"/>
<path style="fill:#FFFFFF;fill-opacity:0.7;" d="M502,253h97.2l-48.6,84.2L502,253z"/>
<path style="fill:#FFFFFF;fill-opacity:0.7;" d="M50,253h97.2l-48.6,84.2L50,253z"/>
<path style="fill:#FFFFFF;fill-opacity:2.000000e-02;" d="M99,338h97.2l-48.6,84.2L99,338z"/>
</svg>
