<?xml version="1.0" encoding="utf-8"?>
<!-- Generator: Adobe Illustrator 23.0.5, SVG Export Plug-In . SVG Version: 6.00 Build 0)  -->
<svg version="1.1" id="Layer_1" xmlns="http://www.w3.org/2000/svg" xmlns:xlink="http://www.w3.org/1999/xlink" x="0px" y="0px"
	 viewBox="0 0 475.8 250.5" style="enable-background:new 0 0 475.8 250.5;" xml:space="preserve">
<style type="text/css">
	.st0{fill:none;stroke:#384A6F;stroke-width:2;stroke-opacity:0.5;}
</style>
<path class="st0" d="M380.1,83.7l-47.2,81.8l-47.2-81.8H380.1z"/>
<path class="st0" d="M143.1,166.7l-47.2,81.8l-47.2-81.8H143.1z"/>
<path class="st0" d="M95.4,82.2L48.6,1l93.8,0L95.4,82.2z"/>
<path class="st0" d="M474.1,83.7l-46.8,81.7l-46.8-81.7H474.1z"/>
<path class="st0" d="M285.7,83.5l47.2-81l47.2,81H285.7z"/>
<path class="st0" d="M48.6,166.4l46.9,81.2H1.7L48.6,166.4z"/>
<path class="st0" d="M237,168l46.9,81.2h-93.8L237,168z"/>
<path class="st0" d="M189.7,84.3l46.9,81.2h-93.8L189.7,84.3z"/>
<path class="st0" d="M380.6,83.5l46.8-81l46.8,81H380.6z"/>
</svg>
