<?xml version="1.0" encoding="UTF-8"?><!DOCTYPE svg PUBLIC "-//W3C//DTD SVG 1.1//EN" "http://www.w3.org/Graphics/SVG/1.1/DTD/svg11.dtd"><svg xmlns="http://www.w3.org/2000/svg"><defs>
        <style>
            .cls-1{fill:#fff}
        </style>
    
        <style>
            .cls-1{fill:#888;fill-rule:evenodd}
        </style>
    
        <style>
            .cls-1{fill:#fff}
        </style>
    </defs><symbol id="icon-arrow-right" viewBox="0 0 32 32">
    <path clip-rule="evenodd" d="M32 16.009c0-.267-.11-.522-.293-.714l-9.899-9.999a.993.993 0 0 0-1.414 0 1.016 1.016 0 0 0 0 1.428l8.193 8.275H1c-.552 0-1 .452-1 1.01s.448 1.01 1 1.01h27.586l-8.192 8.275a1.017 1.017 0 0 0 0 1.428.994.994 0 0 0 1.414 0l9.899-9.999c.187-.189.29-.449.293-.714z" fill-rule="evenodd"/>
</symbol><symbol id="icon-arrow_l" viewBox="0 0 68 37">
    <path d="M-.033 18.493l2.121-2.12 18.456 18.454-2.122 2.122z"/>
    <path d="M-.02 18.493L18.436.038l2.12 2.121L2.102 20.615z"/>
    <path d="M3 17h65v3H3z"/>
</symbol><symbol id="icon-arrow_r" viewBox="0 0 68 37">
    <path d="M47.385 2.102L49.507-.02l18.455 18.455-2.121 2.121z"/>
    <path d="M47.372 34.912l18.455-18.456 2.122 2.122-18.456 18.455z"/>
    <path d="M0 17h65v3H0z"/>
</symbol><symbol id="icon-day-plus" viewBox="0 0 69 69">
    <style>
        .st0{fill:#fff}
    </style>
    <path class="st0" d="M0 29.5h69v10H0z"/>
    <path class="st0" d="M29.5 0h10v69h-10z"/>
</symbol><symbol id="icon-discord" viewBox="0 0 30 20.5">
    <style>
        .st0{fill:#5c6bc0}.st1{fill:#7785f2}
    </style>
    <path class="st0" d="M19.2 0h.1z"/>
    <path class="st1" d="M6 16.2c6.8 2.7 12.4 3.4 18.9-.7 0 0-1.2 1.9-4.6 2.9.7.9 1.6 2 1.6 2 5.7-.1 7.9-3.7 8-3.5C30 9 26.2 2.6 26.2 2.6 22.9.1 19.8 0 19.2 0l-.4.4c4.3 1.2 6.4 3.1 6.4 3.1C14-2 4.8 3.4 4.6 3.4c0 0 2.1-2 6.6-3.1l-.3-.3S7.4-.1 3.7 2.6C3.7 2.6 0 9 0 16.9c0 0 2.1 3.5 7.7 3.7 0 0 .8-1.1 1.7-2-3.2-1-4.4-2.9-4.4-2.9l1 .5zm4.2-1.8c-1.4 0-2.6-1.2-2.6-2.7 0-1.5 1.2-2.7 2.6-2.7 1.4 0 2.6 1.2 2.6 2.7 0 1.5-1.1 2.7-2.6 2.7zm9.4 0c-1.4 0-2.6-1.2-2.6-2.7 0-1.5 1.2-2.7 2.6-2.7 1.5 0 2.6 1.2 2.6 2.7 0 1.5-1.1 2.7-2.6 2.7z"/>
</symbol><symbol id="icon-equal" viewBox="0 0 24 24">
    
    <path class="cls-1" d="M0 3h24v6H0z"/>
    <path class="cls-1" d="M0 15h24v6H0z"/>
</symbol><symbol id="icon-face" viewBox="0 0 70.4 90.2">
    <style>
        .st0{fill-rule:evenodd;clip-rule:evenodd}
    </style>
    <path class="st0" d="M35.6 66.3c-3.5 0-6.3-2.8-6.3-6.3v-.2h-6.4v.2c0 7 5.7 12.6 12.6 12.6S48.2 67 48.2 60v-.2h-6.4v.2c0 3.5-2.8 6.3-6.2 6.3z"/>
    <path class="st0" d="M38.2 32.5h17.6v6.1H38.2z"/>
    <path class="st0" d="M8 19.7c17.6-5.6 24.2-9 27.2-10.7 3 1.7 9.7 5.2 27.2 10.7 0 2 1.1 62.5-27.2 62.5S8 21.7 8 19.7zm27.2 70.5c36.6.1 35.2-73.8 35.2-76.3C47.7 6.6 39.1 2.2 35.2 0 31.3 2.2 22.7 6.6 0 13.9c0 2.5-1.4 76.4 35.2 76.3z"/>
    <path class="st0" d="M23.3 26.7c-5.1 0-9.1 4.1-9.1 9.1s4.1 9.1 9.1 9.1 9.1-4.1 9.1-9.1-4-9.1-9.1-9.1zm-2.9 9.1c0-1.6 1.3-2.9 2.9-2.9 1.6 0 2.9 1.3 2.9 2.9s-1.3 2.9-2.9 2.9c-1.6-.1-2.9-1.3-2.9-2.9z"/>
</symbol><symbol id="icon-fb" viewBox="0 0 5 13">
    <style>
        .st0{fill:#fff}
    </style>
    <path class="st0" d="M1.1 13h2.2V6.5h1.5L5 4.3H3.3V3.2c0-.6 0-.9.7-.9h1V0H3.5C1.7 0 1.1 1.1 1.1 2.9v1.3H0v2.2h1.1V13z"/>
</symbol><symbol id="icon-gh" viewBox="0 0 19 18.6">
    <path d="M9.5 0c5.1.1 9.2 4.4 9.1 9.5-.1 5.1-4.4 9.2-9.5 9.1C4 18.5 0 14.4 0 9.3.1 4.1 4.3-.1 9.5 0zm3.3 18.1s-.9.1-.9-.4v-3c0-.5-.3-1-.6-1.3 0 0 4.3-.1 4.4-4.2.1-1.1-.3-2.1-1-2.9.3-.8.3-1.7-.1-2.5 0 0-.7-.3-2.6.9-1.6-.4-3.2-.5-4.8 0-.9-.5-1.8-.8-2.7-.9-.4.8-.4 1.7-.1 2.5C3.7 7 3.3 8 3.4 9c.1 1.8.4 4 4.3 4.4-.4.3-.6.8-.6 1.2-.8.4-1.8.3-2.4-.4 0 0-1-1.8-2.2-1.2v.2c.2.2.3.3.5.4.2.2.5.5.6.8.2.1.4.7.4.7.4.6 1 .9 1.7.9.5.1 1 0 1.4-.1v1.8s0 .6-1.1.2 1.5 1 1.5 1h3.1l2.2-.8z"/>
</symbol><symbol id="icon-help" viewBox="0 0 30 30">
    <path d="M26.3 8.5c-1.2-2-2.7-3.6-4.7-4.7C19.5 2.6 17.4 2 15 2c-2.4 0-4.5.6-6.5 1.7-2 1.2-3.6 2.7-4.7 4.7C2.6 10.5 2 12.6 2 15c0 2.4.6 4.5 1.7 6.5 1.2 2 2.7 3.6 4.7 4.7 2 1.2 4.2 1.7 6.5 1.7s4.5-.6 6.5-1.7c2-1.2 3.6-2.7 4.7-4.7 1.2-2 1.7-4.2 1.7-6.5.2-2.4-.4-4.5-1.5-6.5zm-9.1 14.6c0 .2-.1.3-.2.4-.1.1-.2.2-.4.2h-3.3c-.2 0-.3-.1-.4-.2-.1-.1-.2-.2-.2-.4v-3.3c0-.2.1-.3.2-.4.1-.1.2-.2.4-.2h3.3c.2 0 .3.1.4.2.1.1.2.2.2.4v3.3zm4.1-10c-.1.4-.3.8-.5 1-.2.3-.4.5-.8.8-.3.3-.6.5-.8.6-.2.1-.5.3-.8.5-.4.2-.7.5-.9.8-.2.3-.4.6-.4.8 0 .2-.1.3-.2.4-.1.1-.2.2-.4.2h-3.2c-.2 0-.3-.1-.4-.2-.1-.1-.2-.2-.2-.4V17c0-.8.3-1.5.9-2.1.6-.7 1.2-1.1 2-1.5.5-.2.9-.5 1.2-.8.2-.3.3-.6.3-1s-.2-.7-.6-1c-.4-.3-.9-.4-1.4-.4-.6 0-1.1.1-1.5.4-.4.3-.9.8-1.5 1.6-.1.1-.2.2-.4.2-.1 0-.2 0-.3-.1l-2.2-1.7c-.3-.2-.3-.4-.1-.7 1.4-2.4 3.5-3.6 6.3-3.6 1 0 1.9.2 2.9.7.9.5 1.7 1.1 2.3 2 .6.8.9 1.8.9 2.8 0 .4-.1.9-.2 1.3z"/>
</symbol><symbol id="icon-lightning" viewBox="0 0 256 256">
    
    <path id="Polygon_1" data-name="Polygon 1" class="cls-1" d="M143 207l-31-59L0 256 114 58l31 51L256 0z"/>
</symbol><symbol id="icon-md" viewBox="0 0 15 13">
    <style>
        .st0{fill:#fff}
    </style>
    <path class="st0" d="M5 12.5c0 .4-.3.6-.7.4l-3.9-2-.3-.3c-.1-.1-.1-.2-.1-.4V.5C0 .1.2 0 .7.2L5 2.4v10.1zm.5-9.2l4.5 7.4-4.5-2.3V3.3zm9.5.1v9c0 .1 0 .3-.1.3-.1.1-.2.1-.3.1-.1 0-.3 0-.4-.1L10.5 11 15 3.4zm0-1L12.9 6c-1.4 2.4-2.3 3.8-2.5 4.2L7 4.8 9.7.3c.1-.2.4-.3.7-.2L15 2.4z"/>
</symbol><symbol id="icon-med" viewBox="0 0 72.4 72.3">
    <path d="M0 0h72.4v72.3H0V0zm17.2 46.8L11.4 54v.8H26V54l-5.9-7.1V27l12.8 27.8h1.6l10.9-28v22.9L41 54.1v.9h19.2l.1-.8L56 50V21l4.3-4.2V16H46.9l-9.7 24-10.9-24H12v.8l5.2 6.3v23.7z" fill-rule="evenodd" clip-rule="evenodd"/>
</symbol><symbol id="icon-perks" viewBox="0 0 406.2 406.2">
    <path d="M225.1 240.4V392h124.7c16.2 0 29.4-13.1 29.4-29.4V240.4H225.1z"/>
    <path d="M181 240.4H27v122.3c0 16.2 13.2 29.4 29.4 29.4H181V240.4zM67 361.2c-6.1 0-11-4.9-11-11V289c0-6.1 4.9-11 11-11s11 4.9 11 11v61.2c.1 6.1-4.9 11-11 11z"/>
    <path d="M359.4 125.4h-55.1c7.6-3.7 14-7.4 17.9-11.3 22.7-22.7 22.7-59.5 0-82.3-11.4-11.4-26.3-17-41.1-17-14.9 0-29.8 5.7-41.1 17-9.4 9.4-18.5 32.7-25.9 56.7-3.5-.9-7-1.6-10.8-1.6-3.7 0-7.3.7-10.7 1.6-7.4-24.2-16.6-47.8-26.1-57.3-11.4-11.4-26.2-17-41.1-17-14.9 0-29.8 5.7-41.1 17-22.7 22.7-22.7 59.6 0 82.3 4.1 4.1 10.9 8.1 19.1 11.9H46.8c-16.2 0-29.3 13.1-29.3 29.3v25c0 16.2 13.1 29.3 29.3 29.3H181v-82.5h44.1V209h134.3c16.2 0 29.3-13.1 29.3-29.3v-25c.1-16.2-13.1-29.3-29.3-29.3zm-98.8-72.7c5.4-5.4 12.7-8.4 20.3-8.4 7.7 0 14.9 3 20.4 8.4 5.4 5.4 8.4 12.7 8.4 20.3s-3 14.9-8.4 20.3c-6.1 5.7-29.9 14.7-59.3 23-.8-2.9-2-5.5-3.4-8.1 8.1-27.7 16.6-49.7 22-55.5zM104.8 52c5.4-5.4 12.7-8.4 20.3-8.4 7.7 0 14.9 3 20.3 8.4 5.5 5.9 14 28.2 22.1 56.1-1.3 2.4-2.4 4.9-3.2 7.6-29.5-8.3-53.5-17.3-59.6-23-11.1-11.2-11.1-29.4.1-40.7z"/>
</symbol><symbol id="icon-plus" viewBox="0 0 24 24">
    
    <path class="cls-1" d="M0 9h24v6H0z"/>
    <path class="cls-1" d="M9 0h6v24H9z"/>
</symbol><symbol id="icon-portal" viewBox="0 0 39.4 50">
    <path d="M19.9 37.5c-1.9 0-3.5-1.5-3.5-3.4V34h-3.6v.1c0 3.9 3.3 7 7.2 7 3.8 0 6.9-3.1 7-7V34h-3.6v.1c0 1.9-1.6 3.4-3.5 3.4zM21.3 18h9.9v3.4h-9.9V18zM4.5 10.9C14.3 7.8 18 5.9 19.7 5c1.7.9 5.4 2.8 15.2 5.9 0 1.1.6 34.7-15.2 34.6C3.8 45.6 4.5 12 4.5 10.9zM19.7 50C40.2 50 39.4 9.1 39.4 7.7 26.7 3.7 21.9 1.2 19.7 0c-2.2 1.2-7 3.7-19.7 7.7C0 9.1-.8 50 19.7 50zM13 14.8c-2.8 0-5 2.3-5 5.1s2.3 5 5.1 5 5-2.3 5-5c0-2.9-2.3-5.1-5.1-5.1zm-1.6 5c0-.9.7-1.6 1.6-1.6s1.6.7 1.6 1.6-.7 1.6-1.6 1.6c-.9 0-1.6-.7-1.6-1.6z"/>
</symbol><symbol id="icon-remo" viewBox="0 0 30 30">
    <style>
        .st0{fill:#fe94a0}
    </style>
    <path class="st0" d="M15 2C7.9 2 2 7.9 2 15c0 7.2 5.9 13 13 13s13-5.8 13-13c0-7.1-5.9-13-13-13zm10.2 17.1c.5.5.4 1.1.1 1.7-.8 2-3.6 3.3-5.7 2.8-1.4-.3-2.2-1.4-2.8-2.5-.5-1-1-2-1.6-3-.3-.5-.7-1-1.6-1-.2 1.3-.5 2.5-.7 3.7-.2 1.3-.5 2.6-2.2 2.9-1.7.3-3-.3-4-1.6-1.3-1.7-1.6-3.8-1.4-5.9.2-3.1 1.1-5.9 3.5-8 2.4-2.2 6.9-3 9.9-1.6 3.1 1.4 3.4 5.8.6 8.1-.8.7-1.7 1.1-2.8 1.5 1.5.6 2 1.8 2.6 3 1.3 2.7 2.8 2.8 4.8.6.4-.5.6-1 1.3-.7z"/>
    <path class="st0" d="M17.3 13.3c1.6-2 1-4.6-1.3-5.1-1.5-.3-3-.2-4.4.6-3.3 1.8-5.1 8.4-3.1 11.6.3.4.6.9 1.3.7.7-1.2.6-2.6.9-4-.7-.3-1.3-.5-1.2-1.4.1-.9.9-.8 1.5-1 .2-1.2.4-2.4.7-3.5.3-1.2 1.2-1.4 2.2-1.2 1 .2.8 1 .7 1.7-.2 1-.3 1.9-.5 3 1.4 0 2.5-.5 3.2-1.4z"/>
</symbol><symbol id="icon-schedule" viewBox="0 0 30 29.8">
    <path d="M6.4 12.5h4.3v4.3H6.4v-4.3z"/>
    <path d="M12.9 12.5h4.3v4.3h-4.3v-4.3z"/>
    <path d="M19.4 12.5h4.3v4.3h-4.3v-4.3z"/>
    <path d="M6.4 19h4.3v4.3H6.4V19z"/>
    <path d="M12.9 19h4.3v4.3h-4.3V19z"/>
    <path d="M19.4 19h4.3v4.3h-4.3V19z"/>
    <path d="M26.2 5h-3V2.5c0-.3-.2-.5-.5-.5h-2.3c-.3 0-.5.2-.5.5V5h-9.7V2.5c0-.3-.2-.5-.5-.5H7.4c-.2 0-.5.2-.5.5V5H3.8C2.8 5 2 5.8 2 6.9V26c0 1 .8 1.8 1.8 1.8h22.3c1 0 1.8-.8 1.8-1.8V6.9C28 5.8 27.2 5 26.2 5zm-.4 20.3c0 .1-.1.2-.2.2h-21c-.1 0-.2-.1-.2-.2V10.5c0-.1.1-.2.2-.2h21c.1 0 .2.1.2.2v14.8z"/>
</symbol><symbol id="icon-site" viewBox="0 0 34 34">
    <path data-name="Rounded Rectangle 1 copy" class="jcls-1" d="M30.2 12.1l.3.2h.281v-.5l.887-.1.843.6H33.9l.1-.1c-.139-.4-.295-.9-.47-1.3h-.9l-.454-.5-.087-.8-.465.3-.249.9-.671-.7-.027-.6-.647-.6-.239-.2h-.75l.236.6.9.5.157.2-.2.1.009.5-.44.2-.376-.1-.235-.3h.612l.165-.2-1.355-.9-.1-.4-.55.5-.557-.1-.849 1.1-.168.4h-1.346l-.481-.2-.142-.9.173-.5.818-.1.892.1.109-.4-.379-.1.129-.8.9-.1.628-.9.648-.1.585.1h.216l-.12-.8-.71.3-.251-.7h-.413l-.077-.4.336-.4.8-.3.206-.4A17.664 17.664 0 0 0 17.353 0a17.154 17.154 0 0 0-10.2 3.3l.876-.1.39.3.735.1.057.3h1.169l-.159-.3-1.038-.1.244-.2-.085-.2h-.938l1.023-.8h.981l.461.6.765.1.461-.5.347.2-.636.6h-.836a2.861 2.861 0 0 1 .073.6h1.066l.115-.3h.735l.087-.5h-.432l.144-.4.331-.1h1.154l-.636.6.1.4.663.1-.043-.7.635-.4 1.125-.1 1.629.7v.6l.519.1-.26.5h-.736l-.218.6-1.679-.4 1.321-.7-.5-.4-1.139.1-.1.1H14.9l-.328.4h-.543l.043.3.19.1h-.008l-.441.1-.033.3h-.421l-.077-.5-.756.2-1.547.9.174.6.432.3.865.1v1l.4-.1.369-.7.919-.3V5.2l.512-.4 1.236.3-.086.8h.332l.909-.4.044 1 .661.3-.028.6-.633.3.043.2.764.3-.016.4h-.223l-.964-.3-.041-.3.282-.2v-.3h-.3l-.076.2-.531.1h-.237l-.151-.3h-.552l-.172.1v.3l.324.1.32.1h-.072l-.292.3-.128-.1-.282-.1-.769.7.1.1-1.135.6-1.067 1.1-.073.5-1.07.7-.531.5.059 1-.735-.3v-.6H7.513l-1.06.5-.46.8-.183.7.3.6.835.1 1.327-.8.117.4-.406.7 1.011.2.1 1.5 1.384.3.88-1 1.068.2.375.5 1.023-.1.029-.3.563.3.635 1h1.1l.4.7.058.8 1.212.5h1.528l.448.7.677.2-.13.6-.742 1-.217 2-.67.5h-1l-.331.6.246 1-1.083 1.4-.345.6-1.032.5-.678.1-.028.3.476.1-.057.3-.427.4.259.3h.513l-.028.4-.137.4-.044.3.759.6-.1.4-1.033-.1-1.027-.8-.8-1.4.112-1.3-.606-.8.245-1.4-.36-.1V24s-1.009-.7-1.067-.7a5.3 5.3 0 0 1-.534-.2l-.1-.5L9.196 21l.13-.6.043-.9.909-.7-.13-1-1.327-.1-1.038-1.2-.735-.2-.476-.1.058-.4-.606-.1v.3l-1.515-.4-.61-.9.248-.5-.959-1.3-.164-1h-.389l.129.9.663 1-.073.4H2.8L2.108 13v-1.3l-.721-.4v-1A16.907 16.907 0 0 0 0 17a17.182 17.182 0 0 0 17.354 17 17.58 17.58 0 0 0 13.459-6.3h-.572v-1.1l-.663-.9v-1.3l-.5-.5-.045-.6.643-1.2-1.217-2.1.142-1.4-1.1-.2-.4-.3h-.736l-.374.3h-1.3l-.044.1h-.727l-1.657-1.8.014-1.5.274-.1.1-.5h-.39l-.159-.6 1.917-1.4v-.9l.939-.5h1.152l.605-.3 1.947-.2v1zM25.332 6l.158-.2.571-.1.142.6.3.5.2.3.367.1-.346.4-.671.1h-.5l.057-.6.419-.1-.035-.3-.391-.2-.273-.2V6zm-.937 1.1l.347-.6.467-.1.332.2-.03.3-.714.5h-.4v-.3zm-9.428 2.1h-.362l.02-.2.161-.2.217.1zm1.266-.5l-.246.1-.05.2-.19.1h-.3a.318.318 0 0 1-.017-.1h-.118v-.2h.5l.1-.3h.423z"/>
</symbol><symbol id="icon-sl" viewBox="0 0 79.4 79.2">
    <path d="M29.8 2.9c8.8-2.4 23.2-5 31.3-.4 8.1 4.6 13 18.4 15.3 27.2 2.4 8.8 5 23.2.4 31.2S58.4 73.8 49.5 76.2c-8.8 2.4-23.2 5-31.3.4-8.1-4.6-13-18.4-15.3-27.2-2.4-8.8-5-23.2-.4-31.2C7.2 10.2 21 5.3 29.8 2.9zm-5.6 17c2.1-.6 4.3.7 4.9 2.8l1.4 5.1 11.3-3-1.3-5.1c-.6-2.1.7-4.3 2.8-4.9 2.1-.6 4.3.7 4.9 2.8l1.3 5.1 5.1-1.4c2.1-.6 4.3.7 4.9 2.8.6 2.1-.7 4.3-2.8 4.9l-5.1 1.4 3 11.3 5.1-1.3c2.1-.6 4.3.7 4.9 2.8.6 2.1-.7 4.3-2.8 4.9l-5.1 1.3 1.4 5.1c.6 2.1-.7 4.3-2.8 4.9-2.1.6-4.3-.7-4.9-2.8L49 51.5l-11.3 3 1.3 5.1c.6 2.1-.7 4.3-2.8 4.9-2.1.6-4.3-.7-4.9-2.8L30 56.6 24.9 58c-2.1.6-4.3-.7-4.9-2.8-.6-2.1.7-4.3 2.8-4.9l5.1-1.4-3-11.3-5.1 1.3c-2.1.6-4.3-.7-4.9-2.8-.6-2.1.7-4.3 2.8-4.9l5.1-1.3-1.4-5.1c-.6-2.1.7-4.3 2.8-4.9zm22.7 23.9l-3-11.3-11.3 3 3 11.3 11.3-3z" fill-rule="evenodd" clip-rule="evenodd"/>
</symbol><symbol id="icon-tw" viewBox="0 0 15 13">
    <style>
        .st0{fill:#fff}
    </style>
    <path class="st0" d="M14.5.8s0-.1 0 0c-.5.4-1.7.7-1.9.7C11.7.2 9.7.6 9.7.6c-2.9.5-2.6 3.3-2.5 3.6-3.3.2-6.1-2.7-6.4-3-.5.6-.6 1.4-.5 2.1s.6 1.3 1.2 1.8c-.4 0-.8-.1-1.2-.2 0 1.8 1.9 2.6 2.4 2.8-.5.1-.9.2-1.3.1.4 1.4 2.3 2 2.7 2.1-1.2 1-3.6 1.3-4 1.3 1.8 1.2 6.6 2.1 10.2-.8 1.1-.9 1.9-2 2.5-3.2s.8-2.5.7-3.9c.7-.4 1.2-.9 1.6-1.5-.3.1-.7.1-1 0-.1.3.4-.6.4-1z"/>
</symbol><symbol id="icon-yb" viewBox="0 0 17 13">
    <style>
        .st0{fill-rule:evenodd;clip-rule:evenodd;fill:#fff}
    </style>
    <path class="st0" d="M16.1 1.7C15.3.9 8.5.9 8.5.9S1.7.9.9 1.7C.1 2.5.1 6.5.1 6.5s0 4 .8 4.8c.8.8 7.6.8 7.6.8s6.8 0 7.6-.8c.8-.8.8-4.8.8-4.8s0-4-.8-4.8zm-9 7.2V4.1l4.2 2.4-4.2 2.4z"/>
</symbol></svg>