<svg width="18" height="22" viewBox="0 0 18 22" fill="none" xmlns="http://www.w3.org/2000/svg">
<path d="M0 19V16.8326C0 16.8326 2.27235 16.724 2.27235 14.6471V7.73303C2.27235 7.73303 2.24882 2 8.68479 2C14.3586 2 15.7418 5.16742 15.7418 7.52489V15.0317C15.7418 15.0317 15.5724 16.8416 18 16.8416V19H0Z" fill="#9A9A9A"/>
<path d="M10 3V1.1087C10 0.814651 9.89464 0.53265 9.70711 0.324729C9.51957 0.116809 9.26522 0 9 0C8.73478 0 8.48043 0.116809 8.29289 0.324729C8.10536 0.53265 8 0.814651 8 1.1087C8 1.1087 8 2.82551 8 2.96443" fill="#9A9A9A"/>
<path d="M11 20C10.9759 20.5389 10.7547 21.0473 10.3823 21.4198C10.0098 21.7922 9.5148 22 9 22C8.4852 22 7.99017 21.7922 7.61774 21.4198C7.2453 21.0473 7.02407 20.5389 7 20" fill="#9A9A9A"/>
</svg>
