<?xml version="1.0" encoding="utf-8"?>
<!-- Generator: Adobe Illustrator 23.0.5, SVG Export Plug-In . SVG Version: 6.00 Build 0)  -->
<svg version="1.1" id="Layer_1" xmlns="http://www.w3.org/2000/svg" xmlns:xlink="http://www.w3.org/1999/xlink" x="0px" y="0px"
	 width="18.7px" height="30px" viewBox="0 0 18.7 30" style="enable-background:new 0 0 18.7 30;" xml:space="preserve">
<style type="text/css">
	.st0{fill:url(#SVGID_1_);}
	.st1{fill:url(#SVGID_2_);}
	.st2{fill:#48B2F3;}
	.st3{fill:#3D5BF2;}
	.st4{fill:#009999;}
</style>
<g>
	
		<linearGradient id="SVGID_1_" gradientUnits="userSpaceOnUse" x1="-239.3023" y1="262.3726" x2="-239.4586" y2="262.2601" gradientTransform="matrix(70.7064 -99.1267 -69.6801 -49.7024 35208.7305 -10675.46)">
		<stop  offset="0" style="stop-color:#2282FF;stop-opacity:0.99"/>
		<stop  offset="1" style="stop-color:#27E2E3"/>
	</linearGradient>
	<polygon class="st0" points="6.8,18.5 0.5,27.4 0.5,27.4 6.8,18.5 	"/>
	
		<linearGradient id="SVGID_2_" gradientUnits="userSpaceOnUse" x1="-239.2371" y1="262.282" x2="-239.3933" y2="262.1695" gradientTransform="matrix(70.7064 -99.1267 -69.6801 -49.7024 35208.7305 -10675.46)">
		<stop  offset="0" style="stop-color:#2282FF;stop-opacity:0.99"/>
		<stop  offset="1" style="stop-color:#27E2E3"/>
	</linearGradient>
	<polygon class="st1" points="18.2,2.6 18.2,2.6 16.2,5.4 	"/>
	<path class="st2" d="M11.2,11C8,8.7,6.6,5,7.1,1.4C5.8,2.1,4.7,3.1,3.8,4.3C0.7,8.7,1.7,14.9,6.1,18l0.7,0.5L7.5,19
		c3.2,2.3,4.6,6,4,9.6c1.3-0.7,2.4-1.7,3.3-2.9C18,21.3,17,15.1,12.6,12l-0.7-0.5l0,0L11.2,11z"/>
	<path class="st3" d="M18.7,2.3l-0.8-0.6c-3.1-2.2-7.1-2.3-10.2-0.6c-0.6,3.6,0.9,7.3,4,9.6l0.7,0.5l0,0l0,0l4.3-6L18.7,2.3z"/>
	<path class="st4" d="M7,19.3l-0.7-0.5L0,27.7l0.7,0.5c3.2,2.3,7.2,2.4,10.4,0.7C11.6,25.3,10.2,21.5,7,19.3z"/>
</g>
</svg>
