<svg xmlns="http://www.w3.org/2000/svg" version="1.1" xmlns:xlink="http://www.w3.org/1999/xlink" width="512" height="512" x="0" y="0" viewBox="0 0 359 359" style="enable-background:new 0 0 512 512" xml:space="preserve" class=""><g transform="matrix(0.99,0,0,0.99,1.795000000000016,1.795000000000016)"><path d="M96 0H13C7.5 0 3 4.5 3 10v83c0 5.5 4.5 10 10 10h83c5.5 0 10-4.5 10-10V10c0-5.5-4.5-10-10-10zm-9 84H23V20h64v64zM221 0h-83c-5.5 0-10 4.5-10 10v83c0 5.5 4.5 10 10 10h83c5.5 0 10-4.5 10-10V10c0-5.5-4.5-10-10-10zm-9 84h-64V20h64v64zM96 126H13c-5.5 0-10 4.5-10 10v83c0 5.5 4.5 10 10 10h83c5.5 0 10-4.5 10-10v-83c0-5.5-4.5-10-10-10zm-9 83H23v-63h64v63zM221 126h-83c-5.5 0-10 4.5-10 10v83c0 5.5 4.5 10 10 10h83c5.5 0 10-4.5 10-10v-83c0-5.5-4.5-10-10-10zm-9 83h-64v-63h64v63zM346 0h-83c-5.5 0-10 4.5-10 10v83c0 5.5 4.5 10 10 10h83c5.5 0 10-4.5 10-10V10c0-5.5-4.5-10-10-10zm-9 84h-64V20h64v64zM346 126h-83c-5.5 0-10 4.5-10 10v83c0 5.5 4.5 10 10 10h83c5.5 0 10-4.5 10-10v-83c0-5.5-4.5-10-10-10zm-9 83h-64v-63h64v63zM96 256H13c-5.5 0-10 4.5-10 10v83c0 5.5 4.5 10 10 10h83c5.5 0 10-4.5 10-10v-83c0-5.5-4.5-10-10-10zm-9 84H23v-64h64v64zM221 256h-83c-5.5 0-10 4.5-10 10v83c0 5.5 4.5 10 10 10h83c5.5 0 10-4.5 10-10v-83c0-5.5-4.5-10-10-10zm-9 84h-64v-64h64v64zM346 256h-83c-5.5 0-10 4.5-10 10v83c0 5.5 4.5 10 10 10h83c5.5 0 10-4.5 10-10v-83c0-5.5-4.5-10-10-10zm-9 84h-64v-64h64v64z" fill="#000000" opacity="1" data-original="#000000" class=""></path></g></svg>
