 <svg xmlns="http://www.w3.org/2000/svg" version="1.1" xmlns:xlink="http://www.w3.org/1999/xlink" width="512" height="512" x="0" y="0" viewBox="0 0 64 64" style="enable-background:new 0 0 512 512" xml:space="preserve" class=""><g transform="matrix(1.23,0,0,1.23,-7.359999999999999,-7.359999999999999)"><path d="M56 58H36a2 2 0 0 1-2-2V36a2 2 0 0 1 2-2h20a2 2 0 0 1 2 2v20a2 2 0 0 1-2 2zm-18-4h16V38H38zM28 30H8a2 2 0 0 1-2-2V8a2 2 0 0 1 2-2h20a2 2 0 0 1 2 2v20a2 2 0 0 1-2 2zm-18-4h16V10H10zm46 4H36a2 2 0 0 1-2-2V8a2 2 0 0 1 2-2h20a2 2 0 0 1 2 2v20a2 2 0 0 1-2 2zm-18-4h16V10H38zM28 58H8a2 2 0 0 1-2-2V36a2 2 0 0 1 2-2h20a2 2 0 0 1 2 2v20a2 2 0 0 1-2 2zm-18-4h16V38H10z" fill="#000000" opacity="1" data-original="#000000" class=""></path></g></svg>
