<?xml version="1.0" encoding="utf-8"?>
<!-- Generator: Adobe Illustrator 23.0.5, SVG Export Plug-In . SVG Version: 6.00 Build 0)  -->
<svg version="1.1" id="Layer_1" xmlns="http://www.w3.org/2000/svg" xmlns:xlink="http://www.w3.org/1999/xlink" x="0px" y="0px"
	 width="155.2px" height="198.8px" viewBox="0 0 155.2 198.8" style="enable-background:new 0 0 155.2 198.8;" xml:space="preserve"
	>
<style type="text/css">
	.st0{fill-rule:evenodd;clip-rule:evenodd;fill:#2C302D;}
</style>
<g>
	<path class="st0" d="M78.4,146.1c-7.6,0-13.8-6.2-13.8-13.8c0-0.2,0-0.3,0-0.4h-14c0,0.1,0,0.3,0,0.4c0,15.3,12.5,27.8,27.8,27.8
		c15.4,0,27.8-12.4,27.8-27.8c0-0.2,0-0.3,0-0.4h-14c0,0.1,0,0.3,0,0.4C92.2,139.9,86,146.1,78.4,146.1L78.4,146.1z"/>
	<rect x="84.1" y="71.6" class="st0" width="38.8" height="13.5"/>
	<path class="st0" d="M17.6,43.4c38.7-12.3,53.3-19.9,60-23.6c6.7,3.8,21.3,11.4,60,23.6c0,4.3,2.5,137.8-60,137.6
		C15.1,181.2,17.6,47.7,17.6,43.4L17.6,43.4z M77.6,198.8c80.8,0.2,77.6-162.6,77.6-168.2c-50-15.9-69-25.7-77.6-30.6
		C69,4.8,50,14.7,0,30.6C0,36.2-3.1,199,77.6,198.8L77.6,198.8z"/>
	<path class="st0" d="M51.4,58.7c-11.2,0-20.1,9-20.1,20.1s8.9,20.1,20.1,20.1c11.1,0,20.1-9,20.1-20.1S62.5,58.7,51.4,58.7
		L51.4,58.7z M45.1,78.8c0-3.5,2.8-6.3,6.4-6.3c3.5,0,6.4,2.8,6.4,6.3s-2.9,6.4-6.4,6.4C47.9,85.1,45.1,82.3,45.1,78.8L45.1,78.8z"
		/>
</g>
</svg>
