<?xml version="1.0" encoding="UTF-8"?>
<svg width="398px" height="124px" viewBox="0 0 398 124" version="1.1" xmlns="http://www.w3.org/2000/svg" xmlns:xlink="http://www.w3.org/1999/xlink">
    <title>React Summit vector logo</title>
    <defs>
        <linearGradient x1="25.0688905%" y1="11.5185806%" x2="74.9891226%" y2="88.536125%" id="linearGradient-1">
            <stop stop-color="#99FF00" offset="0%"></stop>
            <stop stop-color="#00DD3B" offset="100%"></stop>
        </linearGradient>
        <linearGradient x1="25.1029867%" y1="6.78990222%" x2="75.0515432%" y2="93.3641563%" id="linearGradient-2">
            <stop stop-color="#99FF00" offset="0%"></stop>
            <stop stop-color="#00DD3B" offset="100%"></stop>
        </linearGradient>
    </defs>
    <g id="Page-1" stroke="none" stroke-width="1" fill="none" fill-rule="evenodd">
        <g id="React-Summit-vector-logo">
            <path d="M35.67,37.51 C33.78,29.83 30.92,12.85 38.67,8.37 L38.67,8.37 C46.39,3.95 59.67,14.91 65.46,20.37 C61.2852878,24.8704256 57.4071332,29.6371152 53.85,34.64 C47.7349051,35.2122873 41.6625649,36.1742422 35.67,37.52 L35.67,37.51 Z M62.23,34.06 C64.77,30.75 67.35,27.7 69.92,24.93 C72.6402826,27.8376021 75.2071008,30.8850728 77.61,34.06 C72.49,33.83 67.38,33.83 62.23,34.06 L62.23,34.06 Z M57.37,40.77 C65.7248871,40.1421293 74.1151129,40.1421293 82.47,40.77 C86.737107,46.9827727 90.5663703,53.4851692 93.93,60.23 C94.3,60.97 94.67,61.71 95.02,62.43 C94.68,63.17 94.31,63.91 93.93,64.66 C90.5721551,71.4018577 86.7530838,77.9039686 82.5,84.12 C74.146208,84.7764087 65.753792,84.7764087 57.4,84.12 C52.6693485,77.2312886 48.4737239,69.9900752 44.85,62.46 C48.4678213,54.9232638 52.6532075,47.6723831 57.37,40.77 L57.37,40.77 Z M93.93,78.01 C95.5,75.38 96.99,72.7 98.39,70.01 C99.99,73.83 101.39,77.6 102.48,81.23 C99.76,81.86 96.91,82.4 93.93,82.86 C92.87,83 91.79,83.17 90.7,83.32 C91.81,81.58 92.9,79.81 93.93,78.04 L93.93,78.01 Z M37.38,43.68 C41.07,42.85 45.01,42.14 49.16,41.6 C46.39,45.94 43.81,50.36 41.47,54.93 C39.87,51.08 38.47,47.31 37.38,43.69 L37.38,43.68 Z M74.38,104.53 C78.5547122,100.029574 82.4328668,95.2628848 85.99,90.26 C88.71,90 91.34,89.69 93.91,89.26 C97.48,88.75 100.91,88.09 104.17,87.35 C106.06,95.03 108.92,112.04 101.17,116.49 L101.17,116.49 C99.23,117.6 96.77,117.77 93.91,117.09 C89.79,116.09 84.91,113.32 79.59,109.09 C77.87,107.72 76.16,106.21 74.39,104.52 L74.38,104.53 Z M41.45,69.97 C43.7966667,74.5366667 46.36,78.98 49.14,83.3 C44.99,82.76 41.05,82.04 37.36,81.22 C38.47,77.6 39.85,73.83 41.45,69.98 L41.45,69.97 Z M35.67,87.32 C41.6625649,88.6657578 47.7349051,89.6277127 53.85,90.2 C57.4060411,95.1954758 61.2737241,99.9616103 65.43,104.47 C59.71,109.92 46.43,120.91 38.67,116.47 L38.67,116.47 C30.92,112.02 33.81,94.98 35.67,87.33 L35.67,87.32 Z M7.43,62.41 C7.43,53.48 23.61,47.41 31.19,45.23 C33.0061521,51.0870829 35.2110484,56.8164726 37.79,62.38 C35.2154055,67.95564 33.0106388,73.6947146 31.19,79.56 C23.61,77.33 7.43,71.31 7.43,62.41 L7.43,62.41 Z M29.43,85.73 C26.8,96.49 24.31,115.55 35.43,121.97 L35.43,121.97 C46.55,128.39 61.87,116.66 69.88,108.97 C71.8,110.8 73.71,112.45 75.57,113.97 C82.03,119.16 88.32,122.47 93.89,123.45 C97.4455715,124.198014 101.151154,123.663078 104.35,121.94 L104.35,121.94 C115.47,115.52 112.98,96.43 110.35,85.67 C121.01,82.56 138.85,75.17 138.85,62.35 C138.85,49.53 121.07,42.22 110.4,39.13 C113.03,28.34 115.52,9.28 104.4,2.86 L104.4,2.86 C101.209163,1.10307262 97.4915935,0.556266848 93.93,1.32 C85.01,2.92 75.63,10.4 69.93,15.85 C61.93,8.17 46.6,-3.53 35.45,2.85 L35.45,2.85 C24.33,9.24 26.82,28.36 29.45,39.12 C18.79,42.2 0.95,49.59 0.95,62.44 C0.95,75.29 18.79,82.65 29.42,85.76 L29.43,85.73 Z M93.89,46.83 C92.89,45.06 91.77,43.29 90.66,41.55 C91.77,41.69 92.83,41.86 93.89,42.04 C96.89,42.5 99.72,43.04 102.44,43.64 C101.33,47.26 99.95,51.03 98.35,54.88 C96.95,52.1666667 95.4633333,49.5 93.89,46.88 L93.89,46.83 Z M74.44,20.32 C78.59,16.32 86.82,9.45 93.94,7.71 C96.351123,6.98002887 98.9506606,7.20560858 101.2,8.34 L101.2,8.34 C108.95,12.79 106.06,29.83 104.2,37.48 C100.94,36.74 97.51,36.11 93.94,35.57 C91.37,35.2 88.74,34.86 86.02,34.57 C82.4632781,29.5813824 78.595608,24.8219438 74.44,20.32 L74.44,20.32 Z M108.69,79.57 C106.869023,73.7145925 104.664248,67.9855187 102.09,62.42 C104.664594,56.84436 106.869361,51.1052854 108.69,45.24 C116.27,47.47 132.45,53.49 132.45,62.42 C132.45,71.35 116.27,77.35 108.69,79.57 L108.69,79.57 Z M62.26,90.82 C67.38,91.05 72.49,91.05 77.64,90.82 C75.1,94.13 72.52,97.18 69.95,99.95 C67.229731,97.0423859 64.6629134,93.9949159 62.26,90.82 Z" id="Shape" fill="url(#linearGradient-1)"></path>
            <path d="M69.95,72.1500053 C75.3168718,72.1334242 79.654666,67.7702587 79.6399803,62.4033815 C79.6252199,57.0365043 75.2635522,52.6972041 69.8966703,52.7100458 C64.5297883,52.7229445 60.1889826,57.0831139 60.1999791,62.45 C60.2220406,67.8175303 64.5824274,72.1555561 69.95,72.1500053 L69.95,72.1500053 Z" id="Path" fill="url(#linearGradient-2)"></path>
            <path d="M195.62,46.21 L195.62,10.88 L211.8,10.88 C216.26,10.88 219.72,12.08 222.09,14.48 C224.168072,16.6726562 225.252922,19.6234491 225.09,22.64 C225.09,28.06 222.563333,31.7266667 217.51,33.64 L226.14,46.25 L217.07,46.25 L209.38,34.95 L203.38,34.95 L203.38,46.25 L195.62,46.21 Z M203.4,28.03 L211.29,28.03 C212.874762,28.1260235 214.43987,27.6387058 215.69,26.66 C216.732073,25.7134094 217.306052,24.3570644 217.26,22.95 C217.353627,21.504489 216.747237,20.101981 215.63,19.18 C214.322156,18.2557466 212.738607,17.8043115 211.14,17.9 L203.39,17.9 L203.4,28.03 Z" id="Shape" fill="#FFFFFF" fill-rule="nonzero"></path>
            <polygon id="Path" fill="#FFFFFF" fill-rule="nonzero" points="232.16 46.22 232.16 10.88 258.86 10.88 258.86 17.82 239.91 17.82 239.91 24.98 256.57 24.98 256.57 31.89 239.91 31.89 239.91 39.31 259.12 39.31 259.12 46.22"></polygon>
            <path d="M263.29,46.21 L278.44,10.62 L285.62,10.62 L300.8,46.21 L292.65,46.21 L289.42,38.32 L274.42,38.32 L271.19,46.25 L263.29,46.21 Z M277.29,31.43 L286.7,31.43 L281.98,19.99 L277.29,31.43 Z" id="Shape" fill="#FFFFFF" fill-rule="nonzero"></path>
            <path d="M321.07,46.81 C316.18676,46.9576437 311.467337,45.0408318 308.07,41.53 C302.805005,36.2434657 301.276609,28.2899379 304.207176,21.428496 C307.137744,14.5670541 313.940399,10.1717744 321.4,10.32 C324.060996,10.2341107 326.707911,10.739586 329.15,11.8 C331.35706,12.8866674 333.367866,14.3330965 335.1,16.08 L330.47,21.42 C329.195019,20.2148319 327.749513,19.2039883 326.18,18.42 C324.659387,17.7531384 323.009721,17.4320853 321.35,17.48 C318.55057,17.4237521 315.866098,18.5925018 314,20.68 C310.152747,25.2365134 310.152747,31.9034866 314,36.46 C315.856693,38.5627602 318.5455,39.7407138 321.35,39.68 C323.044056,39.7177762 324.725106,39.3760994 326.27,38.68 C327.876774,37.8450372 329.35798,36.7879947 330.67,35.54 L335.62,40.85 C333.878637,42.7767675 331.757529,44.3224866 329.39,45.39 C326.763773,46.4303928 323.953747,46.9270802 321.13,46.85 L321.07,46.81 Z" id="Path" fill="#FFFFFF" fill-rule="nonzero"></path>
            <polygon id="Path" fill="#FFFFFF" fill-rule="nonzero" points="351.51 46.22 351.51 18.05 340.73 18.05 340.73 10.88 370.06 10.88 370.06 18.05 359.29 18.05 359.29 46.22"></polygon>
            <path d="M208.2,113.79 C202.6627,113.886942 197.29733,111.865986 193.2,108.14 L197.8,102.63 C201.26,105.483333 204.776667,106.91 208.35,106.91 C209.660005,106.99184 210.964037,106.674549 212.09,106 C212.966869,105.472549 213.490705,104.512821 213.46,103.49 C213.44847,102.478374 212.905169,101.547543 212.03,101.04 C210.23599,100.110997 208.320726,99.4377935 206.34,99.04 C204.668125,98.6470822 203.024446,98.1426197 201.42,97.53 C200.150371,97.0420439 198.950154,96.3898253 197.85,95.59 C196.760135,94.8242164 195.907667,93.7672943 195.39,92.54 C194.83235,91.1414241 194.560339,89.6453597 194.59,88.14 C194.502661,85.1702143 195.776972,82.3232696 198.05,80.41 C200.585119,78.3930432 203.763452,77.3596408 207,77.5 C211.740631,77.4137791 216.362844,78.9839877 220.07,81.94 L216.07,87.79 C212.73,85.48 209.67,84.31 206.86,84.31 C205.671066,84.231235 204.488634,84.5400006 203.49,85.19 C202.749421,85.7119016 202.312143,86.5640326 202.32,87.47 C202.268773,88.5447074 202.835707,89.5543155 203.78,90.07 C205.751279,90.987603 207.821546,91.6754553 209.95,92.12 C213.78,93.12 216.61,94.43 218.44,96 C220.32875,97.7468262 221.328202,100.252806 221.16,102.82 C221.298592,105.894017 219.988243,108.855257 217.62,110.82 C215.246667,112.76 212.103333,113.73 208.19,113.73 L208.2,113.79 Z M242.73,113.79 C237.9,113.79 234.15,112.48 231.44,109.79 C228.73,107.1 227.44,103.23 227.44,98.12 L227.44,77.95 L235.22,77.95 L235.22,97.95 C235.22,100.8 235.88,102.95 237.22,104.46 C240.387623,107.40261 245.281198,107.428686 248.48,104.52 C249.82,103.09 250.48,100.98 250.48,98.21 L250.48,77.95 L258.26,77.95 L258.26,97.9 C258.26,103.153333 256.886667,107.12 254.14,109.8 C251.4,112.48 247.59,113.8 242.76,113.8 L242.73,113.79 Z M266.17,113.32 L266.17,77.95 L274.57,77.95 L283.86,92.95 L293.15,77.95 L301.55,77.95 L301.55,113.32 L293.8,113.32 L293.8,90.22 L283.87,105.32 L283.67,105.32 L273.81,90.32 L273.81,113.32 L266.17,113.32 Z M310.07,113.32 L310.07,77.95 L318.45,77.95 L327.77,92.95 L337.06,77.95 L345.46,77.95 L345.46,113.32 L337.71,113.32 L337.71,90.22 L327.75,105.32 L327.55,105.32 L317.69,90.32 L317.69,113.32 L310.07,113.32 Z M354.29,113.32 L354.29,77.95 L362.07,77.95 L362.07,113.32 L354.29,113.32 Z M379.16,113.32 L379.16,85.11 L368.37,85.11 L368.37,77.95 L397.7,77.95 L397.7,85.11 L386.93,85.11 L386.93,113.32 L379.16,113.32 Z" id="Shape" fill="#FFFFFF" fill-rule="nonzero"></path>
            <path d="M380.18,24.01 L380.18,20.21 L387.41,14.3 C388.481948,13.4570995 389.466855,12.5090426 390.35,11.47 C390.879396,10.7829532 391.161289,9.93727507 391.15,9.07 C391.199911,8.30193868 390.906954,7.55123632 390.35,7.02 C389.765771,6.50819943 389.005816,6.24293213 388.23,6.28 C387.447914,6.28019551 386.683042,6.50965711 386.03,6.94 C385.189236,7.58672321 384.439191,8.34349518 383.8,9.19 L380.46,6.48 C381.384427,5.11446591 382.583236,3.95652564 383.98,3.08 C385.377749,2.31364251 386.95706,1.94041361 388.55,2 C390.530186,1.91032949 392.470685,2.575031 393.98,3.86 C395.344549,5.11719353 396.077737,6.91717075 395.98,8.77 C395.991525,9.86193203 395.766361,10.9434007 395.32,11.94 C394.873076,12.8599731 394.274746,13.6983108 393.55,14.42 C392.81,15.1333333 391.723333,16.0466667 390.29,17.16 L386.75,19.87 L396.21,19.87 L396.21,24.01 L380.18,24.01 Z" id="Path" fill="#43FF01" fill-rule="nonzero"></path>
            <polygon id="Path" fill="#43FF01" points="397.16 61.71 177.35 61.71 172.12 103.52 166.92 61.71 160.23 61.71 167.15 117.1 177.07 117.1 183.24 67.73 397.16 67.73"></polygon>
        </g>
    </g>
</svg>