<svg width="103" height="103" viewBox="0 0 103 103" fill="none" xmlns="http://www.w3.org/2000/svg">
<path d="M44.2457 3.96222C48.1383 -0.310247 54.8617 -0.310248 58.7543 3.96222C61.3366 6.79646 65.333 7.86729 68.9864 6.7039C74.4938 4.95015 80.3165 8.31187 81.5513 13.9582C82.3705 17.7039 85.2961 20.6295 89.0417 21.4487C94.6881 22.6835 98.0499 28.5062 96.2961 34.0136C95.1327 37.667 96.2035 41.6634 99.0378 44.2457C103.31 48.1383 103.31 54.8617 99.0378 58.7543C96.2035 61.3366 95.1327 65.333 96.2961 68.9864C98.0499 74.4938 94.6881 80.3165 89.0418 81.5513C85.2961 82.3705 82.3705 85.2961 81.5513 89.0417C80.3165 94.6881 74.4938 98.0499 68.9864 96.2961C65.333 95.1327 61.3366 96.2035 58.7543 99.0378C54.8617 103.31 48.1383 103.31 44.2457 99.0378C41.6634 96.2035 37.667 95.1327 34.0136 96.2961C28.5062 98.0499 22.6835 94.6881 21.4487 89.0417C20.6295 85.2961 17.7039 82.3705 13.9582 81.5513C8.31187 80.3165 4.95015 74.4938 6.7039 68.9864C7.86729 65.333 6.79646 61.3366 3.96222 58.7543C-0.310247 54.8617 -0.310248 48.1383 3.96222 44.2457C6.79646 41.6634 7.86729 37.667 6.7039 34.0136C4.95015 28.5062 8.31187 22.6835 13.9582 21.4487C17.7039 20.6295 20.6295 17.7039 21.4487 13.9582C22.6835 8.31187 28.5062 4.95015 34.0136 6.7039C37.667 7.86729 41.6634 6.79646 44.2457 3.96222Z" fill="url(#paint0_linear_2_15)"/>
<defs>
<linearGradient id="paint0_linear_2_15" x1="-4" y1="-4" x2="111.256" y2="0.610224" gradientUnits="userSpaceOnUse">
<stop stop-color="#FFD121"/>
<stop offset="1" stop-color="#ffe88b"/>
</linearGradient>
</defs>
</svg>
