
<svg width="258px" height="501px" viewBox="0 0 258 501" version="1.1" xmlns="http://www.w3.org/2000/svg" xmlns:xlink="http://www.w3.org/1999/xlink">
    <g id="RDB-Web-Design" stroke="none" stroke-width="1" fill="none" fill-rule="evenodd">
        <g id="React-day-Berlin-2018-web" transform="translate(-69.000000, -1089.000000)">
            <g id="2-screen" transform="translate(-177.000000, 790.000000)">
                <g id="React-Day-Berlin-+-Fully-Packed-Day-of-Mask" transform="translate(177.000000, 0.000000)">
                    <g id="illustration-on-blue-bg" transform="translate(-154.000000, 280.000000)">
                        <g id="Group-45" transform="translate(-66.869093, 19.694737)">
                            <g id="Page-1" transform="translate(291.000000, 0.000000)">
                                <g id="Group-3" transform="translate(0.000000, 0.073486)" stroke="#023753" stroke-width="0.579399142">
                                    <path d="M196.966474,542.282736 L198.782104,511.749121 C199.704897,493.399916 196.455314,441.589288 193.287865,407.799865 C192.543833,399.858849 191.803666,392.909003 191.124375,387.628734 C190.303041,381.246168 190.916626,376.597702 191.615242,372.109653 C192.328353,367.519439 193.130362,363.095914 192.573787,357.158747 C191.607512,346.852722 198.371438,319.519352 198.371438,319.519352 C221.562039,279.340193 209.483601,219.14763 209.483601,219.14763 C215.764389,211.978222 211.416151,194.0547 211.416151,194.0547 C213.348701,192.262348 213.348701,185.092939 213.348701,185.092939 C223.011452,174.338826 234.606752,142.524576 234.606752,142.524576 C242.336953,134.458991 246.68519,109.366061 246.68519,109.366061 C256.831078,86.9616585 261.662454,61.8687282 248.134603,56.0435837 C234.606752,50.2184392 221.078901,73.9671053 221.078901,84.7212183 C221.078901,95.4753313 203.202813,125.049142 200.787125,131.770463 C198.826553,137.22459 187.321116,149.466355 183.054045,153.886296 C182.857892,144.179813 179.421817,137.857291 178.079661,131.322375 C176.147111,121.912526 162.619261,118.775909 154.405923,117.431645 C148.742584,116.504103 140.094423,121.328219 135.268845,124.414649 C135.074624,123.798976 134.855279,123.252309 134.597284,122.808702 C124.640786,105.661269 120.586296,106.677532 109.95727,106.229444 C99.3282444,105.781356 91.1149064,113.846941 84.8341185,118.327821 C78.5533307,122.808702 69.3737176,151.934424 66.4748925,151.038248 C63.5760673,150.142072 57.2952794,115.191205 55.3627293,104.88518 C53.4301792,94.5791552 49.0819415,85.1693063 48.5988039,73.9671053 C48.1156664,62.7649043 43.2842911,49.3222631 43.2842911,49.3222631 C40.8686035,15.7156601 35.0709532,-0.415509404 17.1948646,0.0325786369 C-0.681223914,0.480666677 -1.16436144,26.9178611 0.768188669,35.8796219 C2.70073878,44.8413827 2.21760125,50.6665272 3.66701384,88.7540107 C5.11642642,126.841494 14.2960395,157.759569 16.7117271,167.617506 C19.1274147,177.475443 18.1611397,183.300587 18.1611397,194.0547 C18.1611397,204.808813 22.992515,222.732335 22.992515,222.732335 C25.8913401,298.011126 56.0874356,338.115005 58.2615545,341.251622 C60.4356734,344.388238 59.7109671,349.54125 59.2278295,353.574043 C58.9302168,356.060035 60.0095461,360.505068 60.8811262,363.549379 C60.3632027,366.90735 59.3756696,376.878205 60.1941046,401.519463 C60.9738886,425.02885 53.5693228,488.246007 50.6840255,511.749121 C50.6840255,511.749121 49.2867918,529.37332 49.1263901,542.282736" id="Fill-1"></path>
                                </g>
                                <path d="M128.060916,196.018312 C122.746403,227.832563 132.665217,238.342019 151.024443,239.686284 C167.033688,240.858482 171.316219,225.347466 171.799357,218.178058 C172.282494,211.008649 175.664457,188.156159 180.97897,168.888373 C182.599413,163.010354 183.141493,158.09214 183.057427,153.827238" id="Stroke-4" stroke="#023753" stroke-width="0.579399142" stroke-linecap="round" stroke-linejoin="round"></path>
                                <path d="M35.3127152,212.128421 C35.3127152,212.128421 43.7676219,227.289032 52.785867,217.729521 C52.785867,217.729521 66.8818875,198.913408 78.0703864,179.642038 C84.8343118,167.991749 94.9801999,152.756756 117.204526,150.964403 C139.428852,149.172051 157.329098,140.864499 162.619454,140.21029 C169.866517,139.314114 183.394367,142.898819 180.012405,162.614692 C177.242094,178.764682 163.585729,185.019094 152.956703,189.948063 C145.571463,193.372352 121.552764,197.117472 121.552764,197.117472 C121.552764,197.117472 122.519039,220.866138 114.788839,229.155766" id="Stroke-6" stroke="#023753" stroke-width="0.579399142" stroke-linecap="round" stroke-linejoin="round"></path>
                                <path d="M134.11434,324.822563 C154.498878,299.771753 154.590674,275.905688 150.124551,258.941971 C147.502081,248.979181 143.307481,241.398428 140.728492,237.355778" id="Stroke-8" stroke="#023753" stroke-width="0.579399142" stroke-linecap="round" stroke-linejoin="round"></path>
                                <path d="M135.275899,124.340804 C137.090563,130.105009 136.270196,142.603977 135.805418,147.976552" id="Stroke-10" stroke="#023753" stroke-width="0.579399142" stroke-linecap="round" stroke-linejoin="round"></path>
                                <path d="M39.1796513,240.303749 C39.1796513,240.303749 27.3012321,262.203604 39.4511746,286.567047" id="Stroke-12" stroke="#023753" stroke-width="0.579399142" stroke-linecap="round" stroke-linejoin="round"></path>
                                <path d="M141.119834,152.084624 C141.119834,152.084624 147.400622,158.805944 149.091603,166.423441 C149.091603,166.423441 150.782584,171.352409 156.580235,170.680277 C162.377885,170.008145 186.506739,164.299503 176.872011,148.051831 C168.900242,134.60919 154.889253,144.691171 146.675915,146.931611 C142.497742,148.070651 139.91199,149.396095 141.119834,152.084624 Z" id="Stroke-14" stroke="#023753" stroke-width="0.579399142" stroke-linecap="round" stroke-linejoin="round"></path>
                                <path d="M138.622979,210.112025 C138.622979,210.112025 136.409243,216.385257 137.617087,224.226798 C138.240334,228.274825 142.086109,233.636647 151.265722,234.084735 C160.445335,234.532823 163.763523,230.600402 165.518279,226.803304 C166.967692,223.666688 168.855793,214.692381 167.450829,210.261686 C165.035141,202.644189 142.488079,199.507573 138.622979,210.112025 Z" id="Stroke-16" stroke="#023753" stroke-width="0.579399142" stroke-linecap="round" stroke-linejoin="round"></path>
                                <path d="M79.8415686,134.982895 C79.8415686,134.982895 79.2453769,138.270965 83.433213,143.051169" id="Stroke-18" stroke="#023753" stroke-width="0.579399142" stroke-linecap="round" stroke-linejoin="round"></path>
                                <path d="M88.5380441,134.385146 C88.5380441,134.385146 78.8115194,139.015688 82.4592077,172.572105" id="Stroke-20" stroke="#023753" stroke-width="0.579399142" stroke-linecap="round" stroke-linejoin="round"></path>
                                <path d="M26.6964405,101.82438 C26.6964405,101.82438 34.1048714,102.421234 42.1568414,99.4342787" id="Stroke-22" stroke="#023753" stroke-width="0.579399142" stroke-linecap="round" stroke-linejoin="round"></path>
                                <path d="M22.5095707,49.2484182 C22.5095707,49.2484182 31.5278158,48.3522421 35.0711464,49.2484182" id="Stroke-24" stroke="#023753" stroke-width="0.579399142" stroke-linecap="round" stroke-linejoin="round"></path>
                                <path d="M233.479302,92.5632967 C233.479302,92.5632967 239.276953,93.4594728 240.564997,95.5511478" id="Stroke-26" stroke="#023753" stroke-width="0.579399142" stroke-linecap="round" stroke-linejoin="round"></path>
                                <path d="M215.764582,128.41034 C215.764582,128.41034 227.037147,131.696618 228.003422,135.879071" id="Stroke-28" stroke="#023753" stroke-width="0.579399142" stroke-linecap="round" stroke-linejoin="round"></path>
                                <path d="M213.324351,185.026085 C212.57742,183.401317 210.928955,181.067675 207.389489,179.79152" id="Stroke-30" stroke="#023753" stroke-width="0.579399142" stroke-linecap="round" stroke-linejoin="round"></path>
                                <path d="M209.459251,219.091261 C208.360596,217.723696 206.908284,216.270995 205.13517,215.264589" id="Stroke-32" stroke="#023753" stroke-width="0.579399142" stroke-linecap="round" stroke-linejoin="round"></path>
                                <path d="M117.204526,189.051887 C117.204526,189.051887 117.929232,193.756811 121.552764,197.117472" id="Stroke-34" stroke="#023753" stroke-width="0.579399142" stroke-linecap="round" stroke-linejoin="round"></path>
                                <path d="M121.552764,197.117472 C115.996682,198.237692 112.373151,195.997251 112.373151,195.997251" id="Stroke-36" stroke="#023753" stroke-width="0.579399142" stroke-linecap="round" stroke-linejoin="round"></path>
                                <path d="M118.727472,221.868242 C117.841398,222.523347 115.58418,223.899873 112.614816,223.554845" id="Stroke-38" stroke="#023753" stroke-width="0.579399142" stroke-linecap="round" stroke-linejoin="round"></path>
                                <path d="M106.695319,159.051855 C107.76112,159.906807 111.926732,165.129721 113.701779,171.330363" id="Stroke-40" stroke="#023753" stroke-width="0.579399142" stroke-linecap="round" stroke-linejoin="round"></path>
                                <path d="M88.8598137,331.84231 C93.3694194,331.84231 131.375916,325.270651 140.395127,298.385369" id="Stroke-42" stroke="#023753" stroke-width="0.579399142" stroke-linecap="round" stroke-linejoin="round"></path>
                                <path d="M59.3175965,343.546908 C62.7072894,344.641139 73.6184673,347.873646 82.7401039,347.376268" id="Stroke-44" stroke="#023753" stroke-width="0.579399142" stroke-linecap="round" stroke-linejoin="round"></path>
                                <path d="M198.398976,319.463878 C195.439276,323.342528 190.496779,328.609355 183.477757,332.19854" id="Stroke-46" stroke="#023753" stroke-width="0.579399142" stroke-linecap="round" stroke-linejoin="round"></path>
                                <path d="M111.406876,337.219367 C111.406876,337.219367 132.664927,332.44006 151.990428,335.427015" id="Stroke-48" stroke="#023753" stroke-width="0.579399142" stroke-linecap="round" stroke-linejoin="round"></path>
                                <path d="M29.5952657,163.958957 C29.5952657,163.958957 47.6327221,166.349058 55.3629226,159.17965" id="Stroke-50" stroke="#023753" stroke-width="0.579399142" stroke-linecap="round" stroke-linejoin="round"></path>
                                <path d="M71.8640983,196.03749 C71.9095133,196.34219 71.9385015,196.496332 72.0080733,196.804617 C72.0641173,197.053753 72.1617111,197.166672 72.2911919,197.140683 C72.4206728,197.117382 72.5810744,196.967721 72.7704643,196.690802 C72.9501915,196.427326 73.0738747,196.160266 73.1424802,195.890517 C73.212052,195.620768 73.2130183,195.364462 73.1560081,195.122494 C73.08547,194.815106 73.0545492,194.66186 73.0091343,194.358056 C72.5530525,195.025707 72.3250115,195.361773 71.8640983,196.03749 M69.6677551,201.110743 C70.2436551,199.625779 70.5422341,198.888226 71.1558187,197.428355 C71.1355269,197.314541 71.1268305,197.258082 71.1113701,197.145163 C70.4204834,198.161427 70.0726244,198.673144 69.3759401,199.70285 C69.3073345,199.207265 69.288009,198.961712 69.2851102,198.477777 C71.1268305,195.757883 72.0389941,194.413619 73.8101763,191.822774 C73.826603,192.631125 73.8884446,193.046054 74.0990925,193.891148 C74.1995851,194.297116 74.2469326,194.732657 74.2208432,195.197773 C74.1947538,195.663784 74.1087553,196.127107 73.9483536,196.58595 C73.7889182,197.046584 73.5705401,197.480333 73.2903203,197.889886 C72.9579217,198.374717 72.6293882,198.683898 72.3153488,198.813843 C72.0022757,198.943789 71.7297861,198.871199 71.5268683,198.596969 C70.9509684,200.155419 70.6736475,200.942261 70.1392974,202.524012 C69.9151216,201.954044 69.8204266,201.670853 69.6677551,201.110743" id="Fill-52"></path>
                                <path d="M74.797806,199.011361 C74.4122623,199.569678 74.2170747,199.850181 73.8295984,200.412084 C74.2296363,201.146948 74.4547784,201.517069 74.9446798,202.262687 C74.604551,202.753792 74.4335203,202.999344 74.091459,203.492241 C73.6034901,202.746622 73.3793143,202.376502 72.9821752,201.641637 C72.5686095,202.241179 72.3618266,202.542294 71.9472946,203.146317 C72.3898486,203.973487 72.6439789,204.391106 73.2015196,205.229926 C72.8362677,205.756878 72.6526754,206.020354 72.2864572,206.549098 C71.3791249,205.178844 70.9916486,204.496854 70.4031871,203.15976 C72.2700305,200.426423 73.1976545,199.073197 75.0171505,196.433958 C75.633634,197.760299 76.0375369,198.438704 76.9748237,199.811646 C76.617302,200.322466 76.4375748,200.578772 76.0790868,201.093178 C75.510917,200.253461 75.2519553,199.835842 74.797806,199.011361" id="Fill-54"></path>
                                <path d="M76.9719249,207.921502 C77.4357369,206.653412 77.6695755,206.020712 78.1353201,204.757104 C77.2028646,205.459706 76.7400189,205.812799 75.8191588,206.524363 C76.2617127,207.082681 76.4926525,207.362288 76.9719249,207.921502 M76.3911936,209.506837 C75.6645548,208.672497 75.3186283,208.254879 74.6731566,207.422331 C74.2190073,207.778113 73.9928989,207.957349 73.5406822,208.314923 C73.1145549,207.752124 72.9106709,207.469829 72.5270597,206.907926 C74.9572414,205.008929 76.1969723,204.079595 78.7266804,202.253188 C79.2272109,202.87603 79.4890714,203.188796 80.0330843,203.81343 C78.8600264,207.279839 78.27543,209.028279 77.1255626,212.507235 C76.58928,211.939059 76.3274194,211.654075 75.8220576,211.083211 C76.0491322,210.452303 76.1631527,210.137745 76.3911936,209.506837" id="Fill-56"></path>
                                <path d="M86.4082772,211.240131 C86.5744765,212.137203 86.4536922,213.023522 86.0401264,213.901774 C85.4294406,213.34973 85.1260302,213.071019 84.5250071,212.511805 C84.6399939,212.104045 84.6467578,211.707039 84.5472315,211.317202 C84.4486714,210.927366 84.2428548,210.585027 83.9336468,210.287496 C83.5278113,209.895867 83.0784934,209.74979 82.5827943,209.852851 C82.0870952,209.955911 81.6319796,210.296458 81.21165,210.873595 C80.7922866,211.449836 80.5777735,212.029662 80.5700433,212.609488 C80.5642457,213.191107 80.7594332,213.674145 81.1633362,214.059501 C81.4706117,214.352551 81.802044,214.516551 82.1585995,214.555087 C82.5132225,214.592726 82.8562501,214.512966 83.1876825,214.318496 C83.7858067,214.873229 84.0901834,215.148355 84.6989367,215.695023 C84.0012861,216.304422 83.2398613,216.608226 82.4204601,216.605537 C81.6010588,216.602849 80.8222411,216.262302 80.0965686,215.574039 C79.5438592,215.047983 79.1708771,214.440376 78.9737569,213.751217 C78.7766368,213.061161 78.7602102,212.345116 78.9186793,211.607563 C79.0771484,210.868218 79.3960191,210.166512 79.873359,209.505134 C80.3497326,208.844653 80.8802176,208.368783 81.471578,208.078422 C82.0600395,207.787165 82.6610626,207.706509 83.2794786,207.831974 C83.8978946,207.958334 84.4863561,208.293504 85.0467957,208.833002 C85.782131,209.540981 86.2411116,210.342163 86.4082772,211.240131" id="Fill-58"></path>
                                <path d="M92.9617479,216.05179 C92.5800693,216.545583 92.3897131,216.791135 92.0118995,217.28224 C91.363529,216.731988 91.036928,216.452381 90.3827598,215.886894 C88.7903385,217.968711 88.001858,218.999313 86.4306948,221.065895 C85.8441658,220.579272 85.549452,220.331927 84.962923,219.834549 C86.5360188,217.747355 87.323533,216.705999 88.914988,214.610739 C88.2656511,214.040771 87.9409827,213.753099 87.2964773,213.172376 C87.6733245,212.669622 87.8636807,212.417796 88.2414943,211.914145 C90.1257306,213.614191 91.092972,214.449427 92.9617479,216.05179" id="Fill-60"></path>
                                <path d="M63.1751598,211.167541 C63.4891992,211.095847 63.8670127,210.745442 64.29314,210.11543 C64.7202336,209.485418 65.0033522,208.858095 65.1579562,208.235253 C65.3125602,207.611514 65.3251218,207.051404 65.2342919,206.5603 C65.188877,206.322813 65.1695515,206.203622 65.139597,205.967031 C64.0689642,207.554159 63.5317153,208.349067 62.4610825,209.937091 C62.4900708,210.175474 62.5093963,210.293769 62.5519124,210.533048 C62.6408097,211.025945 62.8611204,211.239235 63.1751598,211.167541 M63.4118972,212.901642 C62.9645118,213.204549 62.5635077,213.294167 62.2301428,213.172287 C61.8987104,213.049511 61.6648719,212.707171 61.5576153,212.148854 C61.4078427,211.35753 61.3691917,210.965005 61.3730568,210.192501 C63.2399002,207.426006 64.1829847,206.027971 66.0498281,203.263268 C66.0498281,204.025018 66.0923442,204.413958 66.249847,205.200801 C66.3609686,205.759118 66.404451,206.392715 66.344542,207.095317 C66.2865655,207.797023 66.1358266,208.524718 65.8710672,209.273921 C65.6063078,210.021332 65.2458872,210.737376 64.7820752,211.419366 C64.3192294,212.103149 63.8592825,212.596046 63.4118972,212.901642" id="Fill-62"></path>
                                <path d="M66.2240475,216.11748 C66.7429372,214.82609 67.0047977,214.179947 67.5314176,212.889454 C66.6569387,213.634176 66.2230812,214.007881 65.3621301,214.757981 C65.6829334,215.301064 65.8558967,215.573501 66.2240475,216.11748 M65.5785757,217.732389 C65.0133048,216.920454 64.7543431,216.512694 64.2943962,215.70255 C63.8711677,216.07536 63.6605197,216.26266 63.2421226,216.636366 C62.9425774,216.08701 62.8072989,215.81278 62.5637976,215.266113 C64.789129,213.28646 65.9418951,212.290808 68.2967075,210.342521 C68.6561618,210.949232 68.8513493,211.253932 69.2687802,211.864228 C67.9275904,215.405916 67.2724559,217.181241 65.9950403,220.728306 C65.5544189,220.172677 65.3428046,219.894862 64.9456656,219.337441 C65.1978634,218.695779 65.3234791,218.374947 65.5785757,217.732389" id="Fill-64"></path>
                                <path d="M75.5545927,219.020373 C73.4993256,220.076965 72.481838,220.615567 70.4816486,221.708006 C69.8390757,222.619417 69.5173061,223.07557 68.8747332,223.991462 C68.3771015,223.477953 68.1355328,223.218958 67.6678557,222.699176 C68.3094623,221.780596 68.6292993,221.321754 69.2699397,220.407654 C69.889322,217.825771 70.2101253,216.530796 70.8807202,213.939055 C71.3667566,214.545766 71.6218532,214.84957 72.1513719,215.454489 C71.7358736,216.98695 71.5319896,217.754077 71.1300192,219.282953 C72.3001783,218.582143 72.8905723,218.234427 74.0810232,217.545268 C74.6549906,218.139432 74.9506707,218.434274 75.5545927,219.020373" id="Fill-66"></path>
                                <path d="M56.3215641,219.025661 C56.3573162,219.363519 56.3814731,219.532897 56.4433147,219.873443 C56.5254481,220.32422 56.7496239,220.308089 57.0810563,219.818777 C57.4115223,219.330361 57.5139475,218.853595 57.4298816,218.395649 C57.3690062,218.064064 57.3448493,217.898271 57.3081309,217.569375 C56.9119581,218.153682 56.714838,218.445835 56.3215641,219.025661 M55.3127729,222.596923 C55.4760734,222.357644 55.5881613,222.10313 55.6519355,221.838758 C55.7157096,221.57349 55.7224735,221.323456 55.6799574,221.089554 C55.6123182,220.719434 55.5852625,220.534821 55.5475777,220.166493 C55.1388434,220.76962 54.9359256,221.068942 54.5300901,221.665796 C54.5677748,222.039501 54.592898,222.227698 54.659571,222.604092 C54.7455694,223.093404 54.9765092,223.093404 55.3127729,222.596923 M56.1640612,222.845163 C56.0220188,223.339853 55.8200673,223.786148 55.5524091,224.182258 C55.1581689,224.764773 54.796782,225.059614 54.4837089,225.065888 C54.1696695,225.073953 53.935831,224.780008 53.823743,224.19122 C53.6275892,223.163306 53.5792755,222.652486 53.6063312,221.642495 C55.3784796,219.048962 56.2916095,217.703801 58.1342961,214.982114 C58.1246333,215.924892 58.179711,216.404346 58.3874601,217.370424 C58.5034131,217.911714 58.5256375,218.487059 58.4154821,219.091082 C58.3043605,219.696001 58.0656905,220.280307 57.6840119,220.844002 C57.4037921,221.258036 57.1409653,221.515238 56.8993965,221.61561 C56.6578278,221.715982 56.4665053,221.664899 56.3350919,221.468637 C56.3573162,221.890736 56.3041711,222.350474 56.1640612,222.845163" id="Fill-68"></path>
                                <path d="M58.8910827,222.528992 C58.4978087,223.108818 58.3026212,223.399179 57.9103135,223.976317 C58.277498,224.71387 58.4852472,225.08399 58.941329,225.819751 C58.5973351,226.325194 58.4253381,226.578812 58.0823105,227.083359 C57.6291275,226.34491 57.4223446,225.973893 57.0590252,225.232756 C56.6454595,225.843052 56.4386766,226.147751 56.0270434,226.756255 C56.4319127,227.595076 56.664785,228.016279 57.1807758,228.852411 C56.8174564,229.387428 56.6357967,229.655385 56.2724773,230.190402 C55.4366494,228.812979 55.083959,228.117547 54.5563728,226.732954 C56.3845652,224.033672 57.3150881,222.656249 59.1886954,219.889754 C59.7472024,221.233122 60.1172857,221.910631 60.9878996,223.257584 C60.6226476,223.793497 60.4409879,224.060557 60.0767022,224.595575 C59.5481497,223.770196 59.3085135,223.356163 58.8910827,222.528992" id="Fill-70"></path>
                                <path d="M60.256526,228.488922 C60.5019598,228.811545 60.6275756,228.972857 60.8865373,229.294584 C61.0942864,229.552683 61.3020356,229.667393 61.5059196,229.639612 C61.7088374,229.61183 61.9107889,229.454104 62.1108078,229.163742 C62.301164,228.886824 62.3987578,228.608113 62.4035891,228.326714 C62.4084205,228.047107 62.3050291,227.780047 62.1001788,227.527325 C61.8392845,227.206494 61.7127025,227.046078 61.4653361,226.723455 C60.9812323,227.428746 60.7396635,227.782735 60.256526,228.488922 M58.8148436,233.748579 C59.156905,232.223288 59.3318007,231.461538 59.6941539,229.940727 C59.6023578,229.821536 59.5569428,229.762388 59.4680455,229.6423 C58.7472043,230.696204 58.38775,231.222259 57.6707739,232.275266 C57.2842639,231.746522 57.0987391,231.480358 56.7499138,230.947133 C58.6312513,228.178845 59.582066,226.785291 61.4846616,223.999976 C62.1030776,224.892567 62.4432064,225.337071 63.1708115,226.2207 C63.5186706,226.644591 63.7612056,227.094472 63.8858551,227.575718 C64.0105046,228.056965 64.025965,228.534627 63.9283712,229.010496 C63.8307774,229.486366 63.6336573,229.938935 63.3370109,230.368203 C62.9852867,230.875439 62.589114,231.202543 62.1513914,231.347724 C61.714635,231.4938 61.2711148,231.428379 60.8353247,231.153253 C60.5087238,232.761889 60.3521872,233.565759 60.0439455,235.179772 C59.5337522,234.612493 59.2873521,234.325717 58.8148436,233.748579" id="Fill-72"></path>
                                <path d="M62.7524144,235.755476 C63.4268744,236.41775 63.7756997,236.744854 64.489777,237.388309 C64.1235587,237.913468 63.9399665,238.176944 63.5737482,238.705688 C62.3301522,237.576506 61.732028,236.994888 60.6208117,235.807454 C62.5659234,232.979123 63.5370298,231.577503 65.4753776,228.79398 C65.9633465,229.299424 66.214578,229.550353 66.7286363,230.047731 C65.1429789,232.311471 64.3467683,233.452303 62.7524144,235.755476" id="Fill-74"></path>
                                <path d="M70.5231984,233.423088 C68.5587613,236.177933 67.5702619,237.575968 65.5729713,240.435666 C65.0134981,239.973239 64.7381097,239.737545 64.1950631,239.260779 C66.1807583,236.405562 67.1634601,235.005735 69.1240322,232.241032 C69.6748089,232.71959 69.955995,232.95618 70.5231984,233.423088" id="Fill-76"></path>
                                <path d="M71.9348297,245.090046 C71.338638,244.70469 71.040059,244.507532 70.4457998,244.100668 C70.6979976,241.663069 70.8149169,240.44875 71.0545531,238.008463 C69.8360803,239.714782 69.2234619,240.579592 67.9866298,242.338785 C67.4058985,241.902348 67.1169822,241.6792 66.54688,241.226631 C68.5519007,238.363348 69.5413664,236.968002 71.5096686,234.221223 C72.0846023,234.679169 72.3764174,234.905005 72.9619801,235.348612 C72.7223438,237.783522 72.6063908,238.990672 72.3619232,241.407659 C73.6026204,239.672662 74.2152388,238.823087 75.4346779,237.146341 C76.0299034,237.563063 76.3284824,237.765599 76.9237078,238.163501 C74.9592706,240.850237 73.9669061,242.224971 71.9348297,245.090046" id="Fill-78"></path>
                                <path d="M119.907004,216.637352 C121.844386,217.874971 125.318145,220.227433 128.220835,222.912377" id="Stroke-80" stroke="#023753" stroke-width="0.579399142" stroke-linecap="round" stroke-linejoin="round"></path>
                                <path d="M101.546812,164.341445 C101.546812,164.341445 109.187149,167.767526 110.198839,173.368626 C110.198839,173.368626 106.378187,169.046369 104.445637,168.855483 C102.513087,168.663702 109.428718,171.800318 110.198839,177.625463" id="Stroke-82" stroke="#023753" stroke-width="0.579399142" stroke-linecap="round" stroke-linejoin="round"></path>
                                <path d="M138.748402,149.396095 C138.748402,149.396095 137.782126,150.740359 138.748402,152.532712 C139.714677,154.325064 145.029189,158.805944 146.237033,165.191199 C147.444877,171.576453 153.725665,172.572105 153.725665,172.572105" id="Stroke-84" stroke="#023753" stroke-width="0.579399142" stroke-linecap="round" stroke-linejoin="round"></path>
                                <path d="M140.821641,158.357856 C140.821641,158.357856 143.57939,159.478076 144.787234,165.191199" id="Stroke-86" stroke="#023753" stroke-width="0.579399142" stroke-linecap="round" stroke-linejoin="round"></path>
                                <path d="M146.02194,158.357856 L169.186452,149.396095" id="Stroke-88" stroke="#023753" stroke-width="0.579399142" stroke-linecap="round" stroke-linejoin="round"></path>
                                <path d="M157.604003,155.970443 L176.871528,148.051831" id="Stroke-90" stroke="#023753" stroke-width="0.579399142" stroke-linecap="round" stroke-linejoin="round"></path>
                                <path d="M141.119834,152.084624 C141.119834,152.084624 149.37762,149.396095 152.601114,156.172979" id="Stroke-92" stroke="#023753" stroke-width="0.579399142" stroke-linecap="round" stroke-linejoin="round"></path>
                                <path d="M154.84867,159.051855 C154.84867,159.051855 157.107821,163.442221 153.725858,170.534559" id="Stroke-94" stroke="#023753" stroke-width="0.579399142" stroke-linecap="round" stroke-linejoin="round"></path>
                                <path d="M46.7107025,99.4342787 C46.7107025,99.4342787 41.0647573,106.006834 26.6962472,105.931555 C26.6962472,105.931555 42.120896,105.931555 44.7781524,103.691115" id="Stroke-96" stroke="#023753" stroke-width="0.579399142" stroke-linecap="round" stroke-linejoin="round"></path>
                                <path d="M35.0711464,47.232022 C35.0711464,47.232022 28.1101009,45.6637139 20.863038,47.232022" id="Stroke-98" stroke="#023753" stroke-width="0.579399142" stroke-linecap="round" stroke-linejoin="round"></path>
                                <path d="M60.256526,153.876976 C60.256526,153.876976 69.2786362,147.255131 65.3623234,153.479073 C61.4460106,159.70212 57.4581934,160.984548 57.4581934,160.984548" id="Stroke-100" stroke="#023753" stroke-width="0.579399142" stroke-linecap="round" stroke-linejoin="round"></path>
                                <path d="M61.9031553,167.991749 C61.9031553,167.991749 68.3752656,153.183335 66.7287329,150.967988" id="Stroke-102" stroke="#023753" stroke-width="0.579399142" stroke-linecap="round" stroke-linejoin="round"></path>
                                <path d="M60.8812228,363.475444 C60.8812228,363.475444 61.9296312,367.390837 74.2496382,369.631278" id="Stroke-104" stroke="#023753" stroke-width="0.579399142" stroke-linecap="round" stroke-linejoin="round"></path>
                                <path d="M171.601753,341.401821 C171.601753,341.401821 169.427635,343.980119 169.427635,351.876327" id="Stroke-106" stroke="#023753" stroke-width="0.579399142" stroke-linecap="round" stroke-linejoin="round"></path>
                                <path d="M183.477371,350.81167 C183.477371,350.81167 182.230876,352.155934 180.298326,364.478355 C178.365775,376.800776 180.298326,369.631367 180.298326,369.631367" id="Stroke-108" stroke="#023753" stroke-width="0.579399142" stroke-linecap="round" stroke-linejoin="round"></path>
                                <path d="M116.282506,339.609468 C116.282506,339.609468 114.108388,340.20901 116.282506,369.631367" id="Stroke-110" stroke="#023753" stroke-width="0.579399142" stroke-linecap="round" stroke-linejoin="round"></path>
                                <path d="M135.849576,339.609468 C135.849576,339.609468 139.231539,343.535616 135.849576,366.553002" id="Stroke-112" stroke="#023753" stroke-width="0.579399142" stroke-linecap="round" stroke-linejoin="round"></path>
                                <path d="M190.93769,377.217408 C190.93769,377.217408 192.349418,380.161347 179.439017,380.609435 C179.439017,380.609435 175.46666,379.489214 175.949798,396.292516" id="Stroke-114" stroke="#023753" stroke-width="0.579399142" stroke-linecap="round" stroke-linejoin="round"></path>
                                <path d="M159.086462,215.118064 C162.248114,214.643987 165.231005,213.471789 167.945272,211.914235" id="Stroke-116" stroke="#023753" stroke-width="0.579399142" stroke-linecap="round" stroke-linejoin="round"></path>
                                <path d="M140.26584,207.380659 C142.967545,211.329211 147.051023,213.912887 151.952937,214.922877" id="Stroke-118" stroke="#023753" stroke-width="0.579399142" stroke-linecap="round" stroke-linejoin="round"></path>
                                <path d="M154.656091,203.445819 C154.656091,203.445819 156.301658,207.423048 153.725568,229.155318" id="Stroke-120" stroke="#023753" stroke-width="0.579399142" stroke-linecap="round" stroke-linejoin="round"></path>
                                <path d="M157.604003,203.919358 C157.604003,203.919358 158.763533,207.94767 156.727592,233.749475" id="Stroke-122" stroke="#023753" stroke-width="0.579399142" stroke-linecap="round" stroke-linejoin="round"></path>
                                <path d="M141.119834,204.815535 C141.119834,204.815535 145.670989,200.702086 151.952743,201.299836 C158.234498,201.896689 165.612008,203.136101 167.237282,206.549635" id="Stroke-124" stroke="#023753" stroke-width="0.579399142" stroke-linecap="round" stroke-linejoin="round"></path>
                                <path d="M43.2844844,49.2484182 C43.2844844,49.2484182 40.0677547,47.1827323 32.9946213,46.8834095" id="Stroke-126" stroke="#023753" stroke-width="0.579399142" stroke-linecap="round" stroke-linejoin="round"></path>
                                <path d="M205.135556,187.259534 C205.135556,187.259534 210.292566,187.246988 211.416344,193.980855" id="Stroke-128" stroke="#023753" stroke-width="0.579399142" stroke-linecap="round" stroke-linejoin="round"></path>
                                <path d="M221.884002,136.159126 C221.884002,136.159126 225.946222,136.824089 228.003422,140.08617" id="Stroke-130" stroke="#023753" stroke-width="0.579399142" stroke-linecap="round" stroke-linejoin="round"></path>
                                <path d="M233.479302,97.0441771 L237.022633,97.0441771 C237.022633,97.0441771 240.046108,96.4473239 241.978658,99.4342787" id="Stroke-132" stroke="#023753" stroke-width="0.579399142" stroke-linecap="round" stroke-linejoin="round"></path>
                                <path d="M112.61472,345.487129 C112.61472,345.487129 123.431203,345.798102 119.378645,346.354627 C115.325121,346.911153 107.577528,350.057627 112.61472,349.495725 C117.650945,348.933822 119.380578,349.607747 120.286944,349.495725" id="Stroke-134" stroke="#023753" stroke-width="0.579399142" stroke-linecap="round" stroke-linejoin="round"></path>
                                <path d="M141.119834,345.487129 C141.119834,345.487129 126.670157,345.582124 139.231732,347.524137 C139.231732,347.524137 144.59939,346.968508 136.600565,349.562938" id="Stroke-136" stroke="#023753" stroke-width="0.579399142" stroke-linecap="round" stroke-linejoin="round"></path>
                                <path d="M151.990428,375.754938 C151.990428,375.754938 160.489784,373.962586 161.133323,369.631367 C161.777828,365.300148 167.414111,357.768684 169.427828,363.475534 C169.427828,363.475534 169.588229,366.793178 170.514887,369.631367 C171.440579,372.469557 179.558256,374.261909 181.457952,375.754938 C183.357649,377.248864 187.810244,374.119417 185.810055,377.217498 C183.808899,380.316475 179.438437,380.609524 179.438437,380.609524" id="Stroke-138" stroke="#023753" stroke-width="0.579399142" stroke-linecap="round" stroke-linejoin="round"></path>
                                <path d="M151.990428,371.705567 L142.130557,371.705567 C142.130557,371.705567 139.005624,373.664608 143.305548,376.054709 C147.605472,378.443915 157.268223,381.29017 158.557233,385.542525 C159.845278,389.795777 161.777828,393.531039 160.489784,396.293054 C159.200773,399.055068 163.065873,406.225373 163.388609,408.317048 C163.710378,410.407827 166.543497,419.305959 169.153406,415.006106 C171.762348,410.706254 174.661174,413.394782 174.339404,417.875662 C174.017634,422.356543 173.935501,425.64282 175.908635,430.123701 C177.882735,434.604581 179.236486,438.787035 181.457952,430.123701 C181.457952,430.123701 181.342966,427.733599 183.477467,425.941247 C185.612935,424.148895 185.145258,423.552042 183.446546,416.68106 C181.747835,409.810078 175.842928,399.859835 179.438437,384.373016" id="Stroke-140" stroke="#023753" stroke-width="0.579399142" stroke-linecap="round" stroke-linejoin="round"></path>
                                <path d="M187.079161,181.760867 C187.079161,181.760867 182.019745,180.500844 177.773932,183.047776" id="Stroke-142" stroke="#023753" stroke-width="0.579399142" stroke-linecap="round" stroke-linejoin="round"></path>
                                <path d="M177.774029,208.243587 C177.774029,208.243587 174.445211,207.756067 172.781285,209.494649" id="Stroke-144" stroke="#023753" stroke-width="0.579399142" stroke-linecap="round" stroke-linejoin="round"></path>
                                <path d="M79.8122904,230.190223 C79.8122904,230.190223 85.7973981,245.511249 75.5548825,249.992129 C65.3114007,254.47301 69.2847237,276.429324 69.2847237,276.429324 C69.2847237,276.429324 86.0998422,328.855624 79.8122904,341.40209" id="Stroke-146" stroke="#023753" stroke-width="0.579399142" stroke-linecap="round" stroke-linejoin="round"></path>
                                <path d="M128.220352,243.718628 C128.220352,243.718628 118.998223,241.478188 118.727666,249.543772 C118.457109,257.609357 129.962546,283.262397 131.698942,286.567495 C133.434372,289.871696 138.546933,293.4564 140.821545,290.319784 C143.097122,287.183168 146.377626,274.2155 142.804341,267.480737 C139.232022,260.745973 136.439487,248.647596 131.554001,247.75142 C126.670446,246.855244 126.771905,244.166716 124.063436,246.855244 L121.355934,249.543772" id="Stroke-148" stroke="#023753" stroke-width="0.579399142" stroke-linecap="round" stroke-linejoin="round"></path>
                                <path d="M184.906008,324.822563 C184.906008,324.822563 182.749282,325.718739 184.906008,317.42911 C187.061768,309.139482 189.960593,304.658601 188.269612,292.560224 C186.57863,280.461847 182.344413,260.970017 190.983878,263.434502 C190.983878,263.434502 193.100987,264.128142 196.724518,263.222108 C200.34805,262.314281 202.039031,262.986414 202.522169,265.450898 C203.005306,267.915382 199.403999,318.997419 190.937497,309.139482 C190.937497,309.139482 189.235887,308.243306 188.994318,311.82801 C188.752749,315.412714 185.406539,320.565727 184.906008,327.287047" id="Stroke-150" stroke="#023753" stroke-width="0.579399142" stroke-linecap="round" stroke-linejoin="round"></path>
                                <path d="M192.376667,339.609468 C192.376667,339.609468 189.256565,349.679799 190.937884,357.084902 C192.620168,364.490005 189.477842,377.217498 189.477842,377.217498" id="Stroke-152" stroke="#023753" stroke-width="0.579399142" stroke-linecap="round" stroke-linejoin="round"></path>
                                <path d="M100.47299,329.642198 C100.47299,329.642198 98.6476968,336.92094 90.9174964,341.401821 C83.187296,345.882701 85.3614148,346.639074 85.3614148,346.639074" id="Stroke-154" stroke="#023753" stroke-width="0.579399142" stroke-linecap="round" stroke-linejoin="round"></path>
                                <path d="M92.7768029,341.401821 C92.7768029,341.401821 90.4345521,341.731613 89.9514146,345.487487 C89.4682771,349.243361 87.7772957,357.084902 96.2322025,365.374531 C104.687109,373.66416 105.411815,374.4985 101.305147,377.217498 C97.1984775,379.937392 89.9862005,386.434669 89.48567,400.99753 C88.9851395,415.560391 87.7772957,447.82273 83.9121955,460.817283" id="Stroke-156" stroke="#023753" stroke-width="0.579399142" stroke-linecap="round" stroke-linejoin="round"></path>
                                <path d="M116.282506,343.546908 C116.282506,343.546908 115.799369,350.514677 117.731919,374.784021" id="Stroke-158" stroke="#023753" stroke-width="0.579399142" stroke-linecap="round" stroke-linejoin="round"></path>
                                <path d="M138.357833,341.405316 C138.357833,341.405316 140.29135,342.368705 136.60501,378.786612" id="Stroke-160" stroke="#023753" stroke-width="0.579399142" stroke-linecap="round" stroke-linejoin="round"></path>
                                <path d="M119.378645,239.656082 C119.378645,239.656082 115.213033,242.822272 115.626599,247.303153 C116.041131,251.784033 109.721692,253.800429 107.928286,258.057266 C106.136812,262.314102 105.367657,266.122851 105.872052,268.811379" id="Stroke-162" stroke="#023753" stroke-width="0.579399142" stroke-linecap="round" stroke-linejoin="round"></path>
                                <path d="M33.9802219,167.991749 C33.9802219,167.991749 36.7669591,169.931074 42.478611,166.423441 C48.1912291,162.915808 57.5901866,162.166604 53.5994706,167.991749 C49.6097209,173.816893 38.9719988,186.587403 42.478611,198.461736 C45.9861894,210.336069 48.282059,212.926018 58.4868898,209.838691" id="Stroke-164" stroke="#023753" stroke-width="0.579399142" stroke-linecap="round" stroke-linejoin="round"></path>
                                <path d="M27.9665124,107.947952 C27.9665124,107.947952 31.2064327,104.363247 27.9665124,131.024486 C27.9665124,131.024486 27.8679524,138.193894 31.9746214,141.106467" id="Stroke-166" stroke="#023753" stroke-width="0.579399142" stroke-linecap="round" stroke-linejoin="round"></path>
                                <path d="M38.1388765,145.139259 C38.1388765,145.139259 53.3847643,146.787327 55.3627293,143.051169" id="Stroke-168" stroke="#023753" stroke-width="0.579399142" stroke-linecap="round" stroke-linejoin="round"></path>
                                <path d="M55.3629226,141.106467 C55.3629226,141.106467 63.0844266,136.254569 61.9036384,139.016584" id="Stroke-170" stroke="#023753" stroke-width="0.579399142" stroke-linecap="round" stroke-linejoin="round"></path>
                                <path d="M31.9750079,5.71299073 C31.9750079,5.71299073 29.9323024,3.04865924 22.5093774,8.92040492 C15.0854862,14.7921506 12.8640198,14.7455494 16.1377597,18.7783418 C19.4134321,22.8111342 -0.878344026,23.2592222 20.8628447,26.6198825 C20.8628447,26.6198825 22.0706886,26.6198825 17.9640196,28.8603227 C13.8573506,31.1007629 17.9640196,30.8767189 17.9640196,30.8767189 C17.9640196,30.8767189 20.410628,39.0417792 18.5834019,48.0662723 C16.7561757,57.0898693 18.5834019,51.4887688 18.5834019,51.4887688 C18.5834019,51.4887688 22.7953948,47.5312552 20.8628447,53.2067383 C18.9302946,58.8822214 19.1718634,63.5871459 20.8628447,69.4122904 C22.5538261,75.2374349 23.4302376,81.5106675 22.5093774,90.2483843 C21.587551,98.9861011 27.1436326,96.2993652 25.69422,105.932362" id="Stroke-172" stroke="#023753" stroke-width="0.579399142" stroke-linecap="round" stroke-linejoin="round"></path>
                                <path d="M86.4799748,138.122111 C86.4799748,138.122111 91.1403194,131.546867 92.9617479,134.982806 C94.7831764,138.417849 94.3000389,145.501224 94.3000389,145.501224 C94.3000389,145.501224 93.092195,149.764334 98.4067078,150.81286 C103.721221,151.86049 101.58382,155.070593 101.58382,155.070593" id="Stroke-174" stroke="#023753" stroke-width="0.579399142" stroke-linecap="round" stroke-linejoin="round"></path>
                                <path d="M21.319603,182.248297 C21.319603,182.248297 24.2445175,181.075203 23.76138,183.047686 C23.2782425,185.019274 21.2935135,186.014925 21.319603,184.620475" id="Stroke-176" stroke="#023753" stroke-width="0.579399142" stroke-linecap="round" stroke-linejoin="round"></path>
                                <path d="M22.567064,177.625642 C22.567064,177.625642 21.1311793,178.521818 22.567064,178.969906 C24.0029488,179.417994 23.8154914,177.625642 23.8154914,177.625642" id="Stroke-178" stroke="#023753" stroke-width="0.579399142" stroke-linecap="round" stroke-linejoin="round"></path>
                                <path d="M101.918635,110.442189 C101.918635,110.442189 100.305921,111.025599 101.601696,111.754191 C102.898437,112.480989 103.136141,110.694014 103.136141,110.694014" id="Stroke-180" stroke="#023753" stroke-width="0.579399142" stroke-linecap="round" stroke-linejoin="round"></path>
                                <path d="M97.3929887,115.267022 C97.3929887,115.267022 91.9509276,119.150153 97.3929887,119.448579 C102.83505,119.747902 102.007918,115.267022 102.007918,115.267022 C102.007918,115.267022 99.0791387,113.745315 97.3929887,115.267022 Z" id="Stroke-182" stroke="#023753" stroke-width="0.579399142" stroke-linecap="round" stroke-linejoin="round"></path>
                                <path d="M137.255603,130.800442 C137.255603,130.800442 146.067065,121.838681 147.480726,128.41034 C147.480726,128.41034 142.249313,132.89122 146.859411,134.982895 L151.470476,137.073674 C151.470476,137.073674 154.692037,137.079051 151.470476,143.051169" id="Stroke-184" stroke="#023753" stroke-width="0.579399142" stroke-linecap="round" stroke-linejoin="round"></path>
                                <path d="M151.952647,122.137107 C151.952647,122.137107 151.329399,124.752149 155.587774,124.340804 C159.845181,123.92946 157.359922,119.747902 154.656284,120.942505" id="Stroke-186" stroke="#023753" stroke-width="0.579399142" stroke-linecap="round" stroke-linejoin="round"></path>
                                <path d="M15.9664391,3.37719739 C15.9664391,3.37719739 14.3083111,1.18604687 11.7592775,4.37464137 C9.2121765,7.56502822 14.2155487,8.6897292 15.0909939,6.03346329" id="Stroke-188" stroke="#023753" stroke-width="0.579399142" stroke-linecap="round" stroke-linejoin="round"></path>
                                <path d="M188.522969,147.976552 C188.522969,147.976552 198.495894,140.354575 194.952563,150.81295 C191.410199,161.270428 193.255784,169.336013 193.255784,169.336013 C193.255784,169.336013 193.898357,171.831863 195.713988,171.330901 C197.529619,170.829939 192.119445,182.408534 192.119445,182.408534 L190.443924,182.408534" id="Stroke-190" stroke="#023753" stroke-width="0.579399142" stroke-linecap="round" stroke-linejoin="round"></path>
                                <path d="M240.564997,58.5086953 C240.564997,58.5086953 244.877483,53.7293882 243.911208,58.5086953 C242.944933,63.2888985 242.300427,63.6814236 239.401602,65.4271746 C236.502777,67.1720294 235.733622,72.5490859 237.728014,73.7436886 C239.724338,74.9391875 231.994138,84.8804688 231.994138,84.8804688 C231.994138,84.8804688 228.450807,94.2589515 230.061588,96.9958732 C231.671402,99.732795 221.884002,114.590498 221.884002,114.590498 C221.884002,114.590498 213.936389,122.997526 215.764582,126.002404 C217.591808,129.007283 218.537791,131.098958 215.764582,134.982985 C212.990406,138.866116 218.959087,141.560021 215.491126,143.051258 C212.024131,144.541599 201.14484,147.678215 205.135556,148.051921 C209.125306,148.425626 208.367746,150.518197 207.297114,152.011227 C206.226481,153.50336 207.297114,155.070772 207.297114,155.070772 C207.297114,155.070772 199.696394,167.947926 195.714374,171.330991" id="Stroke-192" stroke="#023753" stroke-width="0.579399142" stroke-linecap="round" stroke-linejoin="round"></path>
                                <path d="M221.884002,143.051079 C221.884002,143.051079 225.873751,143.174751 226.518257,145.501224" id="Stroke-194" stroke="#023753" stroke-width="0.579399142" stroke-linecap="round" stroke-linejoin="round"></path>
                                <path d="M58.9486727,351.876775 C58.9486727,351.876775 57.4441824,358.36509 62.5731704,363.475086 C67.7031247,368.586874 73.1055685,367.989125 73.1055685,367.989125" id="Stroke-196" stroke="#023753" stroke-width="0.579399142" stroke-linecap="round" stroke-linejoin="round"></path>
                                <path d="M164.765261,122.557235 C164.765261,122.557235 183.947753,130.501836 175.278333,128.410161 C166.608914,126.319382 159.969638,126.003032 159.969638,126.003032 C159.969638,126.003032 171.832597,127.720105 175.278333,130.800262" id="Stroke-198" stroke="#023753" stroke-width="0.579399142" stroke-linecap="round" stroke-linejoin="round"></path>
                                <path d="M247.454442,57.9117524 C247.454442,57.9117524 243.911111,57.6124296 247.454442,60.3009578 C250.996806,62.989486 255.747981,64.5255318 254.541103,62.3890481 C253.334226,60.2534605 247.7221,55.6919242 245.879414,56.3846683" id="Stroke-200" stroke="#023753" stroke-width="0.579399142" stroke-linecap="round" stroke-linejoin="round"></path>
                                <path d="M241.978561,109.292216 C241.978561,109.292216 246.125814,106.744387 244.052187,114.590409 C241.978561,122.43643 238.757966,130.800442 238.757966,130.800442 C238.757966,130.800442 237.147186,126.348239 238.757966,119.463814 C240.367781,112.578493 240.69728,107.90135 244.052187,107.78664" id="Stroke-202" stroke="#023753" stroke-width="0.579399142" stroke-linecap="round" stroke-linejoin="round"></path>
                                <path d="M122.097163,335.474333 C122.097163,335.474333 131.85171,333.867489 140.395514,334.445523" id="Stroke-204" stroke="#023753" stroke-width="0.745381717" stroke-linecap="round" stroke-linejoin="round"></path>
                                <path d="M141.505764,238.913959 C141.505764,238.913959 149.153831,251.99813 150.844812,262.304155" id="Stroke-206" stroke="#023753" stroke-width="0.745381717" stroke-linecap="round" stroke-linejoin="round"></path>
                                <path d="M126.747362,215.043592 C126.747362,215.043592 127.612178,232.679441 140.26555,238.117438 C140.26555,238.117438 158.00636,244.097621 166.541468,233.02178" id="Stroke-208" stroke="#023753" stroke-width="0.745381717" stroke-linecap="round" stroke-linejoin="round"></path>
                                <path d="M118.722738,193.084679 C118.722738,193.084679 119.110214,197.557494 123.585034,196.787679 C128.06082,196.017864 140.229121,194.316921 152.956896,189.948063" id="Stroke-210" stroke="#023753" stroke-width="0.745381717" stroke-linecap="round" stroke-linejoin="round"></path>
                                <path d="M121.126153,209.456562 C121.126153,209.456562 122.358154,201.675961 121.552281,197.431671" id="Stroke-212" stroke="#023753" stroke-width="0.745381717" stroke-linecap="round" stroke-linejoin="round"></path>
                                <path d="M115.799369,344.986525 L115.799369,350.737287" id="Stroke-214" stroke="#023753" stroke-width="1.49076343" stroke-linecap="round" stroke-linejoin="round"></path>
                                <path d="M137.609453,343.546908 C137.609453,343.546908 138.260723,350.960972 137.734103,352.454002" id="Stroke-216" stroke="#023753" stroke-width="0.745381717" stroke-linecap="round" stroke-linejoin="round"></path>
                                <path d="M59.0062627,342.60431 C59.0062627,342.60431 58.6574374,344.340203 67.5645608,345.776773" id="Stroke-218" stroke="#023753" stroke-width="0.745381717" stroke-linecap="round" stroke-linejoin="round"></path>
                                <path d="M172.406757,341.401821 C172.406757,341.401821 170.715776,344.25883 170.514791,346.639074" id="Stroke-220" stroke="#023753" stroke-width="0.745381717" stroke-linecap="round" stroke-linejoin="round"></path>
                                <path d="M110.531141,427.869728 C122.267518,426.379388 134.769184,422.298202 145.437827,417.620162 C146.173162,422.451448 146.576099,424.776128 147.410961,429.446102 C136.462098,433.971791 123.920814,437.917655 112.023069,439.543318 C111.435574,434.962066 111.135063,432.712664 110.531141,427.869728 Z" id="Stroke-222" stroke="#023753" stroke-width="0.917564893" stroke-linecap="round" stroke-linejoin="round"></path>
                                <path d="M110.531141,427.869728 C113.260868,424.734008 114.621383,423.068017 117.324054,419.492274 C109.304938,421.101807 105.150921,421.574091 96.0843624,421.355424 C99.8547676,424.218707 101.626916,425.480523 105.068788,427.832985 C102.281084,431.095962 100.883851,432.594369 98.1212702,435.463924 C103.583623,435.506045 106.22252,435.330394 111.396923,434.67977" id="Stroke-224" stroke="#023753" stroke-width="0.917564893" stroke-linecap="round" stroke-linejoin="round"></path>
                                <path d="M104.708947,446.911678 C121.609098,445.318277 136.885906,439.769154 152.449699,433.84095 C153.334807,439.15617 153.800551,441.812436 154.687592,447.284487 C139.095777,454.320365 122.681663,458.651584 106.704305,459.597946 C105.882971,453.617763 105.615313,452.166854 104.708947,446.911678 Z" id="Stroke-226" stroke="#023753" stroke-width="0.917564893" stroke-linecap="round" stroke-linejoin="round"></path>
                                <path d="M147.410961,429.445923 C143.928505,433.383721 142.188244,435.28451 138.676801,438.945389" id="Stroke-228" stroke="#023753" stroke-width="0.917564893" stroke-linecap="round" stroke-linejoin="round"></path>
                                <path d="M119.47392,438.423367 C113.631821,442.250935 110.654727,443.91603 104.709237,446.911947" id="Stroke-230" stroke="#023753" stroke-width="0.917564893" stroke-linecap="round" stroke-linejoin="round"></path>
                                <path d="M153.513374,440.178976 C158.316728,438.390208 161.912237,437.283431 166.933002,435.388914 C164.498955,439.444111 163.285314,441.451546 160.829043,445.458349 C164.041907,447.105521 165.682642,447.941653 169.01919,449.611229 C160.670574,452.345462 156.67406,453.689726 148.825008,456.077139 C151.194314,452.551583 152.36544,450.804039 154.687398,447.284756" id="Stroke-232" stroke="#023753" stroke-width="0.917564893" stroke-linecap="round" stroke-linejoin="round"></path>
                                <path d="M117.324344,419.492543 C117.665439,422.416766 117.83647,423.81032 118.183363,426.537383" id="Stroke-234" stroke="#023753" stroke-width="0.917564893" stroke-linecap="round" stroke-linejoin="round"></path>
                                <path d="M147.410961,450.68897 C148.052567,453.085345 148.190745,453.602439 148.825587,456.077677" id="Stroke-236" stroke="#023753" stroke-width="0.917564893" stroke-linecap="round" stroke-linejoin="round"></path>
                                <path d="M120.574217,435.002394 C119.097749,435.333083 118.356616,435.487225 116.86662,435.76952 C116.639545,433.500403 116.525525,432.362259 116.297484,430.030409" id="Stroke-238" stroke="#023753" stroke-width="0.917564893" stroke-linecap="round" stroke-linejoin="round"></path>
                                <path d="M141.220713,428.701111 C139.765503,429.241505 139.03983,429.504085 137.589451,430.015801 C137.333388,427.649 137.208739,426.460671 136.970069,424.042788" id="Stroke-240" stroke="#023753" stroke-width="0.917564893" stroke-linecap="round" stroke-linejoin="round"></path>
                                <path d="M122.792688,431.409803 C122.792688,431.409803 122.105666,428.854805 124.141608,428.213143 C126.176583,427.571481 127.291665,429.36921 127.368,430.749321 C127.445302,432.129432 127.26171,433.428888 125.906993,433.853675 C124.550342,434.277567 122.563681,433.740757 122.792688,431.409803 Z" id="Stroke-242" stroke="#023753" stroke-width="0.917564893" stroke-linecap="round" stroke-linejoin="round"></path>
                                <path d="M116.623215,451.89845 C116.623215,451.89845 115.924598,449.282512 117.985663,448.82815 C120.046728,448.373789 121.183067,450.236043 121.254571,451.640351 C121.327042,453.044659 121.129922,454.383546 119.756845,454.703481 C118.383768,455.022519 116.38841,454.245535 116.623215,451.89845 Z" id="Stroke-244" stroke="#023753" stroke-width="0.917564893" stroke-linecap="round" stroke-linejoin="round"></path>
                                <path d="M130.152902,426.089654 C130.919158,428.456455 131.306634,429.614314 132.094148,431.926449 C132.718362,429.241505 133.030469,427.884694 133.656615,425.104756" id="Stroke-246" stroke="#023753" stroke-width="0.917564893" stroke-linecap="round" stroke-linejoin="round"></path>
                                <path d="M140.156361,422.990587 C138.894406,423.418959 138.265361,423.627768 137.004372,424.034632" id="Stroke-248" stroke="#023753" stroke-width="0.917564893" stroke-linecap="round" stroke-linejoin="round"></path>
                                <path d="M140.665878,425.767568 C139.398125,426.189667 138.765215,426.394891 137.500361,426.795482" id="Stroke-250" stroke="#023753" stroke-width="0.917564893" stroke-linecap="round" stroke-linejoin="round"></path>
                                <path d="M113.85648,450.300388 C113.85648,450.300388 111.935525,449.244693 110.153714,450.836302 C108.373835,452.427014 109.976885,455.28492 109.976885,455.28492 C109.976885,455.28492 111.618587,456.816485 113.999488,455.280439" id="Stroke-252" stroke="#023753" stroke-width="0.917564893" stroke-linecap="round" stroke-linejoin="round"></path>
                                <path d="M124.321335,447.573324 C124.648902,449.944606 124.812203,451.145482 125.133006,453.612655 C125.133006,453.612655 129.377853,453.014009 129.018398,450.094268 C128.658944,447.174526 127.086814,446.488951 124.321335,447.573324 Z" id="Stroke-254" stroke="#023753" stroke-width="0.917564893" stroke-linecap="round" stroke-linejoin="round"></path>
                                <path d="M131.952396,445.344266 C132.303154,447.72899 132.479982,448.932555 132.826875,451.39435" id="Stroke-256" stroke="#023753" stroke-width="0.917564893" stroke-linecap="round" stroke-linejoin="round"></path>
                                <path d="M136.810247,450.041304 C136.444995,447.577716 136.261403,446.36967 135.894218,443.975088 C138.053843,445.836446 139.144768,446.774742 141.357537,448.685389 C140.971027,446.213736 140.774874,444.997625 140.386431,442.585119" id="Stroke-258" stroke="#023753" stroke-width="0.917564893" stroke-linecap="round" stroke-linejoin="round"></path>
                                <path d="M146.948598,444.111127 C147.764134,443.818078 148.172869,443.669313 148.990337,443.369094 C148.990337,443.369094 149.036719,445.08079 148.555514,445.450015 C146.041266,447.384859 144.622774,445.813862 144.622774,445.813862 C144.622774,445.813862 142.722111,443.698886 144.477833,441.642162 C146.233555,439.584542 148.222149,440.297898 148.222149,440.297898" id="Stroke-260" stroke="#023753" stroke-width="0.917564893" stroke-linecap="round" stroke-linejoin="round"></path>
                            </g>
                        </g>
                    </g>
                </g>
            </g>
        </g>
    </g>
</svg>
