<svg width="1453" height="547" viewBox="0 0 1453 547" fill="none" xmlns="http://www.w3.org/2000/svg">
<g clip-path="url(#clip0_653_8)">
<path d="M652.6 230L685.5 281.8H660.6L629.4 231.3H616.8V281.8H596.4V157.6H639.4C653.5 157.6 664.3 161.1 672.1 168.2C679.6 175.2 683.7 184 683.7 194.8C683.7 203.1 681.2 210.6 676.2 217.4C671 223.5 663.2 228 652.6 230ZM656.9 178.7C653.1 174.9 647.3 173.2 639.6 173.2H617V215.2H639.6C647.4 215.2 653.2 213.4 656.9 209.7C660.6 206 662.7 200.9 662.7 194.1C662.7 187.5 660.7 182.5 656.9 178.7ZM799.4 239.3H723.8C724.3 247.6 727.1 254.1 732.1 258.9C737.1 263.7 743.4 266.2 751.2 266.2C762.3 266.2 770 261.7 774.6 252.4H796.7C793.7 261.4 788.4 269 780.4 274.8C772.6 280.6 762.8 283.6 751.2 283.6C736.9 283.6 725.3 279.1 716.3 269.8C707.3 260.5 703 248.2 703 232.9C703 217.6 707.5 205.3 716.6 196C725.6 186.7 737.5 182.2 751.8 182.2C766.1 182.2 777.9 186.7 786.7 195.5C795.7 204.3 800 215.9 800 230.2C800.1 233 799.9 236.3 799.4 239.3ZM770.7 205.9C765.4 201.1 759.1 198.6 751.6 198.6C744.1 198.6 737.8 201.1 732.8 205.9C727.8 210.7 724.8 217.2 724 225.3H778.8C778.8 217.2 776 210.7 770.7 205.9ZM894.1 281.5V263.2C890.8 269.2 886.1 274.3 880.3 277.8C874.5 281.3 867.7 283.3 859.9 283.3C846.8 283.3 835.8 278.5 826.7 269C817.7 259.4 813.4 247.1 813.4 232.1C813.4 217.1 817.9 205 826.7 195.7C835.5 186.4 846.6 181.6 859.9 181.6C867.7 181.6 874.5 183.4 880.5 186.9C886.5 190.4 891.1 194.9 894.1 200.7V183H914.7V281.5H894.1ZM885.3 208.2C879.3 202.2 872.5 199.2 864.2 199.2C856.2 199.2 849.1 202.2 843.1 208C837.1 213.8 834.3 221.8 834.3 231.9C834.3 242 837.3 250.2 843.1 256.3C849.1 262.3 855.9 265.6 864.2 265.6C872.2 265.6 879.3 262.6 885.3 256.6C891.3 250.6 894.1 242.5 894.1 232.5C894.1 222.5 891.1 214.2 885.3 208.2ZM983.1 198.6C974.8 198.6 968 201.6 963.2 207.4C958.2 213.2 955.7 221.5 955.7 232.3C955.7 242.9 958.2 251.1 963.2 257.2C968.2 263.2 974.8 266.2 983.1 266.2C994.9 266.2 1002.7 260.9 1006.5 250.6H1028.6C1025.8 260.7 1020.3 268.7 1012.5 274.5C1004.7 280.3 994.9 283.3 983.1 283.3C968.8 283.3 957.2 278.8 948.2 269.5C939.2 260.2 934.9 247.9 934.9 232.6C934.9 217.3 939.4 205 948.5 195.7C957.6 186.4 969.1 181.9 983.4 181.9C995.2 181.9 1005.3 184.7 1013.1 190.4C1020.9 196.2 1026.2 204.2 1028.9 214.5H1006.8C1002.9 203.9 994.9 198.6 983.1 198.6ZM1075.3 262.2C1077.1 263.7 1080.1 264.7 1084.1 264.7H1096.7V281.8H1080.6C1061.5 281.8 1052.2 272.8 1052.2 254.4V199.9H1040.6V183.3H1052.2V158.9H1072.8V183.3H1096.7V199.9H1072.8V254.4C1072.8 257.9 1073.6 260.7 1075.3 262.2ZM1204.3 265.2C1192.2 276.3 1176.4 281.8 1156.3 281.8H1115.6V157.6H1156.3C1176.4 157.6 1192.5 163.1 1204.3 174.4C1216.4 185.7 1222.4 200.8 1222.4 219.9C1222.4 239 1216.3 254.1 1204.3 265.2ZM1189.7 186C1181.9 178 1170.9 173.7 1156.3 173.7H1135.9V266H1156.3C1170.6 266 1181.9 262 1189.7 253.7C1197.5 245.4 1201.5 234.1 1201.5 219.8C1201.2 205.4 1197.5 194.3 1189.7 186ZM1316.3 281.5V263.2C1313 269.2 1308.3 274.3 1302.5 277.8C1296.7 281.3 1289.9 283.3 1282.1 283.3C1269 283.3 1258 278.5 1248.9 269C1239.9 259.4 1235.6 247.1 1235.6 232.1C1235.6 217.1 1240.1 205 1248.9 195.7C1257.7 186.4 1268.8 181.6 1282.1 181.6C1289.9 181.6 1296.7 183.4 1302.7 186.9C1308.7 190.4 1313.3 194.9 1316.3 200.7V183H1336.9V281.5H1316.3ZM1307.5 208.2C1301.5 202.2 1294.7 199.2 1286.4 199.2C1278.4 199.2 1271.3 202.2 1265.3 208C1259.3 213.8 1256.5 221.8 1256.5 231.9C1256.5 242 1259.5 250.2 1265.3 256.3C1271.3 262.3 1278.1 265.6 1286.4 265.6C1294.4 265.6 1301.5 262.6 1307.5 256.6C1313.5 250.6 1316.3 242.5 1316.3 232.5C1316.3 222.5 1313.6 214.2 1307.5 208.2ZM1392.2 328H1371.1L1391.2 280L1352.2 183H1374.8L1402.4 258.1L1431.3 183H1452.4L1392.2 328ZM612.9 492.6C610.4 494.9 607.6 496.1 604.1 496.1C600.6 496.1 597.8 494.8 595.3 492.6C593 490.3 591.8 487.3 591.8 483.8C591.8 480.3 593.1 477.5 595.3 475C597.6 472.7 600.6 471.5 604.1 471.5C607.6 471.5 610.4 472.8 612.9 475C615.2 477.3 616.4 480.3 616.4 483.8C616.4 487.6 615.2 490.4 612.9 492.6ZM726.5 483.3C717.7 492.9 706.6 497.6 693.6 497.6C685.8 497.6 679 495.8 673.2 492.1C667.4 488.6 662.6 483.6 659.1 477.5V495.8H638.7V363.7H659.1V415C662.4 409.2 667.1 404.7 672.9 401.2C678.9 397.7 685.7 395.9 693.5 395.9C706.8 395.9 717.9 400.7 726.7 410C735.5 419.3 740 431.6 740 446.4C739.8 461.5 735.3 473.8 726.5 483.3ZM710.2 422.5C704.2 416.7 697.1 413.7 689.1 413.7C680.8 413.7 673.8 416.7 668 422.7C662 428.7 659.2 436.8 659.2 446.8C659.2 456.9 662.2 464.9 668 470.9C674 476.9 680.8 479.9 689.1 479.9C697.1 479.9 704.2 476.9 710.2 470.6C716.2 464.6 719.2 456.3 719.2 446.2C719 436.4 715.9 428.3 710.2 422.5ZM849.6 453.9H774C774.5 462.2 777.3 468.7 782.3 473.5C787.3 478.3 793.6 480.8 801.4 480.8C812.5 480.8 820.2 476.3 824.8 467H846.9C843.9 476 838.6 483.6 830.6 489.4C822.8 495.2 813 498.2 801.4 498.2C787.1 498.2 775.5 493.4 766.5 484.4C757.5 475.1 753.2 462.8 753.2 447.5C753.2 432.2 757.7 419.9 766.8 410.6C775.8 401.3 787.7 396.8 802 396.8C816.3 396.8 828.1 401.3 836.9 410.1C845.9 418.9 850.2 430.5 850.2 444.8C850.4 447.7 850.1 450.9 849.6 453.9ZM821 420.5C815.7 415.7 809.4 413.2 801.9 413.2C794.4 413.2 788.1 415.7 783.1 420.5C778.1 425.3 775.1 431.8 774.3 439.9H829.1C829 431.8 826.3 425.3 821 420.5ZM915.2 417.3C907.2 417.3 901.1 419.3 897.1 423.3C893.1 427.3 890.8 434.4 890.8 444.4V496.2H870.4V397.7H890.8V414.8C897.1 402.2 906.9 396 920.5 396V417H915.2V417.3ZM939.1 496.2V364H959.5V496.2H939.1ZM1006 380.8C1003.5 383.3 1000.5 384.6 996.7 384.6C993.2 384.6 989.9 383.3 987.4 380.8C984.9 378.3 983.6 375.3 983.6 371.5C983.6 367.7 984.9 364.7 987.4 362.2C989.9 359.7 992.9 358.4 996.7 358.4C1000.2 358.4 1003.5 359.7 1006 362.2C1008.5 364.7 1009.8 367.7 1009.8 371.5C1009.7 375.3 1008.5 378.3 1006 380.8ZM1007 496.2H986.6V397.7H1007V496.2ZM1103.7 496.2V441.2C1103.7 432.4 1101.4 425.6 1097.2 420.8C1092.7 416 1086.6 413.8 1079.1 413.8C1071.6 413.8 1065.5 416.1 1061 420.8C1056.5 425.6 1054.2 432.4 1054.2 441.2V496.2H1033.8V397.7H1054.2V413.3C1060.7 401.7 1071.3 396.2 1085.6 396.2C1096.7 396.2 1106 400 1113 407.3C1120.3 414.6 1123.8 424.9 1123.8 438.2V496.3H1103.7V496.2Z" fill="#ffffff"/>
<path d="M407.6 408C404.6 409 401.6 410 398.3 410.8C399.3 415.3 400.6 419.6 401.3 423.9C412.6 479.9 403.8 525.9 376.9 541C355 553.3 321.6 545 286.2 520.6L285.9 513.3L285.4 493.9C319.8 521.3 351 531.3 366.1 522.8C373.6 518.5 379.4 508.2 382.4 492.4C385.7 474.8 384.9 452.4 379.9 427.8C379.1 424 378.1 420 377.1 416C356.2 420.8 333.4 424 309.2 426.3C300.9 437.9 292.6 448.9 284.1 459.2L282.6 407.2C287.6 406.9 292.4 406.7 297.2 406.4C305.7 394.1 313.5 381.3 321.3 368.5C328.8 355.4 336.1 342.4 342.9 328.8C336.1 315.5 328.8 302.4 321.3 289.6C313.8 276.8 305.7 264.2 297.2 251.9C292.4 251.6 287.4 251.1 282.6 250.9V250.1C282.6 244.8 281.1 239.8 278.6 235.3C281.1 232 282.6 228 282.6 223.5C282.6 217.5 279.8 212.2 275.6 208.7L274.8 188.8C286.4 201.6 297.9 215.9 309 231.5C332.6 233.8 355.2 237.3 376.1 241.8C376.9 238.5 377.6 235.3 378.4 232C389 182 382.4 143.8 365.6 134.5C349.8 125.7 315.3 138 278.1 169.4C276.8 170.4 275.6 171.7 274.1 172.9L273.1 146.3C313.1 115.1 351.8 102.8 376.1 116.4C403.5 131.7 411.3 178.5 399.2 236.3C398.4 239.8 397.7 243.6 396.7 247.1C402.2 248.6 407.5 250.4 412.8 252.1C466.8 270.2 502 298.8 502 328.2C502.6 359.2 465.1 389.4 407.6 408ZM340.5 378.8C335.5 387.1 330.4 395.4 325.2 403.7C341.8 401.7 357.4 399.2 371.9 395.9C367.4 382.1 361.8 367.8 355.1 352.9C350.3 361.7 345.5 370.3 340.5 378.8ZM325.1 254.4C330.4 262.4 335.4 270.7 340.4 278.8C345.4 287.1 350.2 295.6 354.7 304.2C361 289.6 366.5 275.5 370.8 262C356.3 259.2 341 256.4 325.1 254.4ZM406.3 272C401.5 270.5 396.5 268.7 391.5 267.5C385.2 287.1 377.2 307.5 367.1 328.6C377.7 350.2 386.2 371.1 392.5 390.7C395.3 389.9 398.3 388.9 400.8 388.2C450.3 372.1 481 347.5 481 328.6C481.2 310.7 452.8 287.6 406.3 272ZM228.9 172.7C190.2 139.3 153.5 126 136.7 135.5C120.9 144.3 114.6 180 124.1 227C125.1 232 126.4 237.1 127.6 242.1C148.5 237.6 170.8 234.1 194.5 232C205.6 216.9 216.9 202.8 228.2 190L227.4 209.1C223.4 212.6 220.6 217.9 220.6 223.7C220.6 228 222.1 232.2 224.6 235.5C224.3 236 224.1 236.5 223.8 236.8C221.5 241.1 220.5 245.6 220.5 250.4V251.2C215.7 251.5 210.7 251.7 205.9 252.2C197.4 264.5 189.3 277.1 181.5 289.9C174 302.7 166.7 316 160.1 329.4C166.6 342.7 173.9 356 181.5 368.9C189.3 382 197.3 394.5 206.1 406.8C210.6 407.1 215.1 407.3 219.9 407.6L218.4 457.9C210.1 448.1 202.1 437.8 194.3 427C169.9 425 147.3 422 126.7 417.4C125.4 422.7 124.2 428.2 122.9 433.7C113.9 479.7 120.4 514.1 136.2 523.2C143.7 527.5 155.8 527.2 171.4 521.9C185.5 517.1 201.3 508.3 217.1 496L216.6 513.8L216.3 522.3C180.9 545.7 147.2 553.5 125.3 541.1C99.2 526.5 91.1 483.5 101.4 429.8C102.7 424 103.9 418 105.4 412.2C100.9 410.9 96.4 409.4 91.8 408.2C36.5 389.9 0.0999756 359.4 0.0999756 329C0.0999756 299.6 34 271.2 87.1 253.4C93.1 251.4 99.2 249.4 105.7 247.6C104.4 242.3 103.2 236.8 101.9 231.3C90.8 176.5 98.6 132.5 124.8 117.7C149.2 103.9 188.1 115.7 228.6 146.6V172.7H228.9ZM163.3 279C168.3 270.7 173.4 262.4 178.6 254.4C162.8 256.4 147.4 258.9 133.1 261.9C137.4 275.7 142.9 289.8 148.9 304.4C153.7 295.9 158.5 287.3 163.3 279ZM179.1 404.2C173.6 395.9 168.3 387.6 163.3 379.1C158.3 370.8 153.5 362.3 149 353.7C142.7 368.5 137.2 382.9 132.7 396.9C147.2 399.9 162.8 402.2 179.1 404.2ZM112.5 267.2C106.7 268.7 100.9 270.5 95.2 272.5C49.7 287.8 22.6 310.7 22.6 328.5C22.6 336.8 28.9 347.1 41.2 357.7C55 369.3 75.1 379.8 99.8 388.1C103.8 389.4 108.1 390.6 112.1 391.9C118.4 371.8 126.7 350.7 136.7 329.3C127.1 307.9 118.8 287.1 112.5 267.2ZM287.4 329C287.4 343.6 278.1 356.1 265 361.2L265.3 369H268.6C270.9 369 272.4 370.8 272.4 372.8V377.1C272.4 379.1 270.6 380.9 268.6 380.9H265.8L268.8 493.2L269.8 515.6C264.5 514.1 258.2 513.1 251.5 513.1C244.7 513.1 238.4 513.9 233.2 515.4L234.2 493L237.2 380.7H234.7C232.7 380.7 230.9 378.9 230.9 376.9V372.6C230.9 370.6 232.7 368.8 234.7 368.8H237.7L238 360.8C225.2 355.5 215.9 343.2 215.9 328.6C215.9 313.3 226.2 300.2 240.3 295.7L240.6 291.7H234.6C232.6 291.7 230.8 289.9 230.8 287.9V283.6C230.8 281.6 232.6 279.8 234.6 279.8H236.9V276.5V268.7V262.2V257.7V251.2C236.9 246.7 239.2 242.7 242.4 239.9L242.9 227.8H240.4C238.4 227.8 236.9 226.3 236.9 224.3C236.9 222.5 238.4 220.8 240.4 220.8H243.2L251.5 0.599976L259.8 220.8H262.8C264.8 220.8 266.3 222.3 266.3 224.3C266.3 226.3 264.8 227.8 262.8 227.8H260L260.5 239.6C260.8 239.9 261.3 240.1 261.5 240.4C264.5 242.9 266.3 246.9 266.3 251V262.1V276.4V276.7V279.7H268.6C270.9 279.7 272.4 281.5 272.4 283.5V287.8C272.4 289.8 270.6 291.6 268.6 291.6H262.6L262.9 295.6C277.1 300.4 287.4 313.5 287.4 329Z" fill="#ffffff"/>
</g>
<defs>
<clipPath id="clip0_653_8">
<rect width="1453" height="547" fill="white"/>
</clipPath>
</defs>
</svg>
