<?xml version="1.0" encoding="utf-8"?>
<!-- Generator: Adobe Illustrator 23.0.5, SVG Export Plug-In . SVG Version: 6.00 Build 0)  -->
<svg version="1.1" id="Layer_1" xmlns="http://www.w3.org/2000/svg" xmlns:xlink="http://www.w3.org/1999/xlink" x="0px" y="0px"
	 width="1920px" height="768px" viewBox="0 0 1920 768" style="enable-background:new 0 0 1920 768;" xml:space="preserve">
<style type="text/css">
	.st0{fill-rule:evenodd;clip-rule:evenodd;fill:#0e1bf7;enable-background:new    ;}
	.st1{fill:none;stroke:#5F76FF;stroke-width:0.7956;stroke-linecap:round;stroke-linejoin:round;}
	.st2{fill-rule:evenodd;clip-rule:evenodd;fill:#200CC7;}
</style>
<path class="st0" d="M1997.6,485.7c0,175.3-141.9,317.5-317,317.5c-175.1,0-317-142.2-317-317.5s141.9-317.5,317-317.5
	C1855.7,168.2,1997.6,310.3,1997.6,485.7z"/>
<path class="st1" d="M1396.4,344.2c-29.1,57.7-38.9,124.8-29.7,188.9"/>
<path class="st1" d="M1411.9,316.7c-3.6,5.7-7,11.4-10.2,17.3"/>
<path class="st1" d="M1538.4,202.6c-37.2,18.1-69,44.5-96.1,74.8"/>
<path class="st1" d="M1877.4,237.2c-84.5-70.3-199.6-84.6-299-51.1"/>
<path class="st1" d="M1396.6,627.2c-29.1-57.7-39-124.8-29.7-188.9"/>
<path class="st1" d="M1412.1,654.7c-3.6-5.7-7-11.4-10.2-17.3"/>
<path class="st1" d="M1538.5,768.8c-37.2-18.1-69-44.5-96.1-74.8"/>
<path class="st1" d="M1877.5,734.2c-84.5,70.3-199.6,84.6-299,51.1"/>
<path class="st2" d="M1164.5,24.2v111.3h-20.6v304.1H939.8v74.6H708.5v55.7H646V449.3h21.5V327.4H554.2v122.5h-91.5V327.4h-65.9
	l-45.2-123.9l-45.2,123.9h-76.1V282h-21.4v-13.1h-67.7v-52.6H61.7v37.3H0V768h1920V461.4h-92.6v48.1h-37v-48.1h-91v112.3h-13.9
	V386.1h-40.1V358h-47.8v-30.3h-23.1v-13.5h-26.2V222h-6.2v92.2h-26.2v13.5h-23.9v204.9h-30.1V494h-41.7v79.8h-15.4v-164h-61.7V283.8
	h-77.1v21.4h-24.7v-45h-30.9v-32.6h-30.9V24.2H1164.5z"/>
</svg>
