<?xml version="1.0" encoding="UTF-8"?>
<svg width="415px" height="97px" viewBox="0 0 415 97" version="1.1" xmlns="http://www.w3.org/2000/svg" xmlns:xlink="http://www.w3.org/1999/xlink">
    <!-- Generator: Sketch 49 (51002) - http://www.bohemiancoding.com/sketch -->
    <title>Progress_Brandmark_PMS_Primary</title>
    <desc>Created with Sketch.</desc>
    <defs></defs>
    <g id="Page-1" stroke="none" stroke-width="1" fill="none" fill-rule="evenodd">
        <g id="Progress_Brandmark_PMS_Primary" transform="translate(0.000000, -68.000000)">
            <path d="M401.733,134.473 C401.733,141.126 396.211,147.836 383.876,147.836 C372.964,147.836 366.473,143.114 365.598,134.536 L365.508,133.655 L374.013,133.655 L374.143,134.297 C375.184,139.452 380.097,140.534 384.036,140.534 C388.35,140.534 392.959,139.143 392.959,135.245 C392.959,133.268 391.674,131.866 389.139,131.075 C387.634,130.627 385.789,130.11 383.834,129.562 C380.469,128.62 376.989,127.643 374.849,126.905 C369.539,125.001 366.499,121.3 366.499,116.747 C366.499,108.314 374.707,104.54 382.841,104.54 C393.72,104.54 399.351,108.636 400.056,117.063 L400.129,117.931 L391.744,117.926 L391.629,117.264 C390.786,112.411 385.961,111.686 383.16,111.686 C380.741,111.686 375.116,112.118 375.116,116.127 C375.116,117.95 376.672,119.288 379.875,120.217 C380.833,120.485 382.254,120.852 383.901,121.278 C387.316,122.163 391.565,123.262 393.704,124.004 C399.033,125.877 401.733,129.4 401.733,134.473 Z M361.809,134.473 C361.809,141.126 356.288,147.836 343.953,147.836 C333.04,147.836 326.548,143.114 325.673,134.536 L325.583,133.655 L334.088,133.655 L334.218,134.297 C335.259,139.452 340.172,140.534 344.112,140.534 C348.425,140.534 353.035,139.143 353.035,135.245 C353.035,133.268 351.75,131.866 349.214,131.075 C347.71,130.627 345.865,130.11 343.911,129.562 C340.544,128.62 337.065,127.643 334.924,126.905 C329.614,125.001 326.574,121.3 326.574,116.747 C326.574,108.314 334.783,104.54 342.917,104.54 C353.795,104.54 359.426,108.636 360.132,117.063 L360.205,117.931 L351.82,117.926 L351.705,117.264 C350.862,112.411 346.037,111.686 343.235,111.686 C340.817,111.686 335.191,112.118 335.191,116.127 C335.191,117.95 336.749,119.288 339.952,120.217 C340.91,120.485 342.331,120.852 343.977,121.278 C347.391,122.163 351.641,123.262 353.78,124.004 C359.109,125.877 361.809,129.4 361.809,134.473 Z M232.745,139.575 C229.725,139.575 222.702,138.206 222.702,125.535 C222.702,117.207 226.637,112.034 232.974,112.034 C237.867,112.034 243.095,115.581 243.095,125.535 C243.095,134.325 239.226,139.575 232.745,139.575 Z M243.328,108.745 C240.539,105.853 236.81,104.391 232.207,104.391 C219.526,104.391 213.75,115.549 213.75,125.918 C213.75,136.559 219.458,147.293 232.207,147.293 C236.46,147.293 240.259,145.727 242.995,142.915 C242.967,144.756 242.918,146.514 242.869,147.264 C242.396,154.165 239.081,157.377 232.435,157.377 C228.82,157.377 224.67,156.094 223.87,152.491 L223.693,151.694 L215.172,151.698 L215.31,152.838 C216.202,160.211 222.676,164.793 232.207,164.793 C240.568,164.793 246.516,161.645 249.408,155.692 C250.802,152.821 251.509,148.639 251.509,143.264 L251.509,105.233 L243.328,105.233 L243.328,108.745 Z M292.395,121.44 C293.121,115.646 297.088,111.96 302.728,111.96 C307.037,111.96 312.138,114.466 312.853,121.44 L292.395,121.44 Z M312.847,133.655 L312.686,134.116 C310.883,139.258 306.569,140.338 303.266,140.338 C296.725,140.338 292.516,135.999 292.107,128.941 L321.685,128.941 L321.794,128.121 C321.924,127.155 321.904,125.792 321.888,124.795 C321.884,124.522 321.88,124.276 321.879,124.041 C321.446,112.331 313.811,104.463 302.883,104.463 C296.497,104.463 291.263,106.973 287.747,111.721 C284.901,115.564 283.269,120.879 283.269,126.303 C283.269,139.229 291.305,147.915 303.266,147.915 C312.518,147.915 318.892,143.213 321.214,134.676 L321.492,133.655 L312.847,133.655 Z M281.802,105.565 L282.51,105.903 L280.923,114.324 L279.833,113.987 C278.943,113.711 278.036,113.572 277.138,113.572 C268.418,113.572 267.709,120.52 267.709,128.916 L267.709,147.067 L259.065,147.067 L259.065,105.233 L267.172,105.233 L267.172,110.281 C269.375,106.887 272.045,105.135 275.556,104.706 C277.857,104.44 280.097,104.752 281.802,105.565 Z M189.174,140.266 C182.412,140.266 178.21,134.885 178.21,126.225 C178.21,117.471 182.412,112.034 189.174,112.034 C195.884,112.034 200.219,117.543 200.219,126.073 C200.219,134.827 195.988,140.266 189.174,140.266 Z M189.174,104.391 C182.374,104.391 176.923,106.982 173.415,111.883 C169.732,117.026 169.183,123.077 169.183,126.225 C169.183,139.446 177.03,147.987 189.174,147.987 C203.931,147.987 209.167,136.098 209.167,125.918 C209.167,120.061 207.433,114.747 204.286,110.952 C200.725,106.66 195.5,104.391 189.174,104.391 Z M167.926,105.565 L168.634,105.903 L167.049,114.324 L165.958,113.987 C165.068,113.711 164.16,113.572 163.261,113.572 C154.543,113.572 153.833,120.52 153.833,128.916 L153.833,147.067 L145.191,147.067 L145.191,105.233 L153.295,105.233 L153.295,110.282 C155.498,106.887 158.167,105.135 161.679,104.706 C163.979,104.439 166.221,104.752 167.926,105.565 Z M130.655,107.329 C130.655,113.754 127.323,116.375 119.149,116.375 L108.6,116.375 L108.6,98.513 L120.38,98.513 C127.294,98.513 130.655,101.397 130.655,107.329 Z M120.303,90.101 L99.264,90.101 L99.264,147.067 L108.6,147.067 L108.6,124.71 L120.38,124.71 C133.125,124.71 140.143,118.484 140.143,107.176 C140.143,102.042 138.209,90.101 120.303,90.101 Z" id="Fill-1" fill="#FFFFFF"></path>
            <path d="M0.596,134.676 L19.887,145.819 L19.887,123.528 L0.596,134.676 Z M0.596,102.481 L28.477,118.579 L28.477,150.774 L46.335,140.461 C47.126,140.004 47.773,138.885 47.773,137.971 L47.772,107.432 L21.335,92.167 C20.545,91.709 19.253,91.709 18.462,92.167 L0.596,102.481 Z M37.77,68.644 C38.559,68.188 39.855,68.188 40.645,68.644 L77.807,90.1 L77.806,133.016 C77.806,133.93 77.16,135.049 76.369,135.504 L56.358,147.059 L56.358,102.482 L17.756,80.195 L37.77,68.644 Z" id="Fill-2" fill="#8EC240"></path>
            <path d="M408.849,102.021 L407.873,102.021 L407.873,103.421 L408.849,103.421 C409.37,103.421 409.663,103.16 409.663,102.737 C409.663,102.314 409.37,102.021 408.849,102.021 Z M407.873,104.821 L407.873,106.807 L406.115,106.807 L406.115,100.556 L409.045,100.556 C410.445,100.556 411.356,101.37 411.356,102.737 C411.356,103.714 410.9,104.365 410.152,104.625 L411.584,106.807 L409.631,106.807 L408.426,104.821 L407.873,104.821 Z M408.556,98.765 C405.887,98.765 403.738,100.816 403.738,103.714 C403.738,106.611 405.887,108.662 408.556,108.662 C411.226,108.662 413.375,106.611 413.375,103.714 C413.375,100.816 411.226,98.765 408.556,98.765 Z M408.556,109.671 C405.333,109.671 402.664,107.164 402.664,103.714 C402.664,100.262 405.333,97.756 408.556,97.756 C411.779,97.756 414.449,100.262 414.449,103.714 C414.449,107.164 411.779,109.671 408.556,109.671 Z" id="Fill-3" fill="#FFFFFF"></path>
        </g>
    </g>
</svg>