<svg id="Layer_1" data-name="Layer 1" xmlns="http://www.w3.org/2000/svg" viewBox="0 0 306.43 103.82"><defs><style>.cls-1{fill:#8300ff;}.cls-1,.cls-2,.cls-4{fill-rule:evenodd;}.cls-2{fill:#ce00db;}.cls-3{fill:#5400ff;}.cls-4{fill:#ff0094;}.cls-5{fill:#fff;}</style></defs><path class="cls-1" d="M244.26,203c-11.69,12.26-2.8,32.5,15,32.5,13.89,0,39.21-20.08,39.35-32.5-.14-12.42-25.46-32.5-39.35-32.5-17.81,0-26.7,20.25-15,32.5Zm23.41-13.38c-2.48-2.33-7.66.73-3.68,4.93a12.27,12.27,0,0,1-.47,17.33,3,3,0,1,0,4.19,4.41,18.37,18.37,0,0,0,.69-25.93c-.23-.25-.48-.5-.73-.74Z" transform="translate(-77.37 -170.17)"/><path class="cls-2" d="M228.56,202.59a3.43,3.43,0,0,1,3.17,3.57,32.6,32.6,0,1,1-35.89-36,3.42,3.42,0,0,1,3.48,3v26a3.44,3.44,0,0,0,3.43,3.43Zm-48.77-3.65h0a2.51,2.51,0,0,0,3.55,0l1-1,1,1a2.5,2.5,0,0,0,3.54,0h0a2.51,2.51,0,0,0,0-3.55l-1-1,1-1a2.5,2.5,0,0,0,0-3.54h0a2.5,2.5,0,0,0-3.54,0l-1,1-1-1a2.51,2.51,0,0,0-3.55,0h0a2.52,2.52,0,0,0,0,3.54l1,1-1,1a2.53,2.53,0,0,0,0,3.55Z" transform="translate(-77.37 -170.17)"/><path class="cls-3" d="M344.76,233.7c25.8,0,25.89-39.11,0-39.11H323.93c-3.69,0-3.68-5.56,0-5.56h10.62a8.39,8.39,0,0,0,0-16.78H323.93c-25.78,0-25.79,39.12,0,39.12h20.83c3.67,0,3.64,5.55,0,5.55H313.18a8.41,8.41,0,0,0-8.39,8.39h0a8.41,8.41,0,0,0,8.39,8.39Zm10.15-60.36a7.3,7.3,0,1,1-7.3,7.3A7.3,7.3,0,0,1,354.91,173.34Z" transform="translate(-77.37 -170.17)"/><path class="cls-4" d="M118.52,186.37v-6a8.26,8.26,0,1,1,16.52,0v6a3,3,0,1,0,6.08.14V180.4a8.26,8.26,0,1,1,16.52,0v41.08a12.24,12.24,0,0,1-12.21,12.2H108.12a12.24,12.24,0,0,1-12.2-12.2V180.37a8.26,8.26,0,1,1,16.52,0v6a3,3,0,1,0,6.08,0Zm8.26,16.26h0a6.05,6.05,0,0,1,6,6v7.15a1.13,1.13,0,0,1-1.12,1.12h-9.84a1.12,1.12,0,0,1-1.12-1.12v-7.15a6.05,6.05,0,0,1,6-6Z" transform="translate(-77.37 -170.17)"/><path class="cls-5" d="M83,273.82,77.37,257.2h3.89l3.42,11.18,3.7-11.23h3.11l3.71,11.23,3.41-11.18h3.8l-5.63,16.62H93.62L89.89,263l-3.73,10.8Z" transform="translate(-77.37 -170.17)"/><path class="cls-5" d="M105.1,273.71V257.2h12.45v3.23h-8.84v3.35h7.78V267h-7.78v3.46h9v3.24Z" transform="translate(-77.37 -170.17)"/><path class="cls-5" d="M120.9,273.71V257.2h7.66a5.85,5.85,0,0,1,4.31,1.46,4.07,4.07,0,0,1-1,6.42,5.36,5.36,0,0,1,2.31,1.54,3.93,3.93,0,0,1,.78,2.56,3.86,3.86,0,0,1-1.66,3.37,7.75,7.75,0,0,1-4.52,1.16Zm3.53-9.84h3.35c1.75,0,2.62-.59,2.62-1.79a1.45,1.45,0,0,0-.62-1.26,3,3,0,0,0-1.76-.44h-3.59Zm0,6.65h4.32c1.71,0,2.57-.61,2.57-1.84s-.9-1.79-2.69-1.79h-4.2Z" transform="translate(-77.37 -170.17)"/><path class="cls-5" d="M159.81,274a8.47,8.47,0,0,1-6.26-2.41,8.79,8.79,0,0,1,.06-12.18,8.39,8.39,0,0,1,6.18-2.48,10.43,10.43,0,0,1,3.63.55,9.65,9.65,0,0,1,2.85,1.71L164,261.94a7.74,7.74,0,0,0-2-1.27,5.93,5.93,0,0,0-2.31-.4,4.35,4.35,0,0,0-3.36,1.52,5.63,5.63,0,0,0,0,7.41,4.75,4.75,0,0,0,3.6,1.49,5.76,5.76,0,0,0,3.42-1v-2.36h-3.66V264.2h7.17v7.17A10.58,10.58,0,0,1,159.81,274Z" transform="translate(-77.37 -170.17)"/><path class="cls-5" d="M168.94,273.71,176,257.08h3.35l7.07,16.63h-3.79L181.13,270h-7l-1.51,3.71Zm6.5-6.91h4.39l-2.19-5.36Z" transform="translate(-77.37 -170.17)"/><path class="cls-5" d="M189,273.71V257.2h3.91l4.34,7,4.34-7h3.91v16.51h-3.6V262.93L197.23,270h-.09l-4.6-7v10.71Z" transform="translate(-77.37 -170.17)"/><path class="cls-5" d="M209.44,273.71V257.2h12.45v3.23h-8.84v3.35h7.78V267h-7.78v3.46h9v3.24Z" transform="translate(-77.37 -170.17)"/><path class="cls-5" d="M225.24,273.71V257.2h6.44a8.75,8.75,0,0,1,6.32,2.35,8.32,8.32,0,0,1,0,11.8,8.78,8.78,0,0,1-6.31,2.36Zm3.63-3.28h2.81a5.08,5.08,0,0,0,3.59-8.56,4.8,4.8,0,0,0-3.59-1.39h-2.81Z" transform="translate(-77.37 -170.17)"/><path class="cls-5" d="M243.68,273.71V257.2h12.45v3.23h-8.84v3.35h7.78V267h-7.78v3.46h9v3.24Z" transform="translate(-77.37 -170.17)"/><path class="cls-5" d="M264.74,273.82l-6.68-16.62h4l4.32,11.62,4.31-11.62h3.92l-6.68,16.62Z" transform="translate(-77.37 -170.17)"/><path class="cls-5" d="M295.4,273.94a10.15,10.15,0,0,1-7-2.64l2.15-2.57a7.69,7.69,0,0,0,4.93,2,3.13,3.13,0,0,0,1.74-.42,1.36,1.36,0,0,0,.64-1.18,1.31,1.31,0,0,0-.66-1.14,10.3,10.3,0,0,0-2.67-1,18.69,18.69,0,0,1-2.29-.69,7.71,7.71,0,0,1-1.66-.91,3.33,3.33,0,0,1-1.15-1.43,5.13,5.13,0,0,1-.37-2.06,4.5,4.5,0,0,1,1.62-3.61,6.21,6.21,0,0,1,4.16-1.37,9.52,9.52,0,0,1,6.13,2.1l-1.89,2.74a7.62,7.62,0,0,0-4.29-1.63,2.64,2.64,0,0,0-1.57.41,1.29,1.29,0,0,0-.55,1.08,1.32,1.32,0,0,0,.68,1.2,13.52,13.52,0,0,0,2.88,1,9.89,9.89,0,0,1,4,1.81,4,4,0,0,1,1.27,3.18,4.6,4.6,0,0,1-1.66,3.77A6.76,6.76,0,0,1,295.4,273.94Z" transform="translate(-77.37 -170.17)"/><path class="cls-5" d="M311.51,274a7.14,7.14,0,0,1-5.26-1.87,7.36,7.36,0,0,1-1.89-5.46V257.2H308v9.34a4.43,4.43,0,0,0,.93,3,3.32,3.32,0,0,0,2.63,1.05,3.36,3.36,0,0,0,2.62-1,4.15,4.15,0,0,0,.94-2.94V257.2h3.63v9.31a7.47,7.47,0,0,1-1.92,5.57A7.28,7.28,0,0,1,311.51,274Z" transform="translate(-77.37 -170.17)"/><path class="cls-5" d="M322.45,273.71V257.2h3.91l4.34,7,4.34-7H339v16.51h-3.6V262.93L330.7,270h-.09l-4.6-7v10.71Z" transform="translate(-77.37 -170.17)"/><path class="cls-5" d="M342.91,273.71V257.2h3.92l4.34,7,4.34-7h3.91v16.51h-3.61V262.93L351.17,270h-.1l-4.59-7v10.71Z" transform="translate(-77.37 -170.17)"/><path class="cls-5" d="M363.55,273.71V257.2h3.63v16.51Z" transform="translate(-77.37 -170.17)"/><path class="cls-5" d="M375.15,273.71V260.55h-5V257.2H383.8v3.35h-5v13.16Z" transform="translate(-77.37 -170.17)"/></svg>