<?xml version="1.0" encoding="utf-8"?>
<!-- Generator: Adobe Illustrator 23.0.5, SVG Export Plug-In . SVG Version: 6.00 Build 0)  -->
<svg version="1.1" id="Layer_1" xmlns="http://www.w3.org/2000/svg" xmlns:xlink="http://www.w3.org/1999/xlink" x="0px" y="0px"
	 viewBox="0 0 578.5 285.8" style="enable-background:new 0 0 578.5 285.8;" xml:space="preserve">
<style type="text/css">
	.st0{fill:#FFFFFF;}
	.st1{fill-rule:evenodd;clip-rule:evenodd;fill:#FFFFFF;}
	.st2{fill:none;}
	.st3{fill:#FEFEFE;}
</style>
<path class="st0" d="M49,277c-1.3,0.1-2.3,1.5-2.3,3.1c0,0.1,0,0.1,0,0.1c-3.7,0.3-6.8-8.3-10.5-17.6c-3.7-9.4-8.1-19.6-14.3-22.1
	c5.2-1.5,9.9-5.1,13.4-10.5c3.4-5.2,5.6-12.2,5.6-20.6c0-10.1-3.1-18.1-8.1-23.6s-12-8.5-19.9-8.5c-4.3,0-8.6,0-12.8,0
	c0,0-0.2,1.9,1.4,1.9s1.6,9,1.6,9.8c0,12,0,24,0,36c0,12.1,0,24.1,0,36.1c0,0.8-0.1,9.8-1.6,10s-1.5,2-1.5,2
	c5.4-0.6,10.7-1.1,16.1-1.6c0,0,0.2-1.9-1.4-1.7c-1.6,0.2-1.7-8.8-1.7-9.5c0-6.4,0-12.8,0-19.2c2.9,0.8,6.9,8.7,11,17.4
	c4.1,8.6,8.2,18.1,11.1,22.4c4.6,6.8,11.9,5.1,14.3,3c1.5-1.3,2-2.9,2-4.2C51.3,278,50.3,276.9,49,277L49,277z M13.9,236.3
	c-0.3,0-0.6,0.1-0.9,0.1c0-9,0-18,0-26.9c0-9,0-18,0-27c8.5,0.2,18.4,8.4,18.4,26.8C31.4,224.8,22.5,235.7,13.9,236.3L13.9,236.3z
	 M578.5,206.1c0-20.5-11.2-28.9-25-28.9c-4.3,0-8.7,0-13,0c0,0-0.2,1.9,1.4,1.9c1.6,0,1.7,9.1,1.7,9.6c0,11.8,0,23.6,0,35.3
	c0,11.8,0,23.6,0,35.4c0,0.6-0.1,9.6-1.7,9.5c-1.5-0.1-1.4,1.8-1.4,1.8c6.9,0.5,13.8,1.1,20.7,1.6c10.4,0.8,17.3-11,17.3-26.3
	c0-5.2-0.1-13.5-0.1-21.3C578.5,216.9,578.5,209.6,578.5,206.1L578.5,206.1z M555.8,266.9c-0.8-0.1-1.5-0.2-2.3-0.4
	c0-13.8,0-27.6,0-41.4c0-13.9,0-27.7,0-41.5c12.3,0.5,15.1,6.6,15.1,22.3c0,2.9,0,10.3,0,18.3s0.1,16.6,0.1,21.9
	C568.7,256.5,563.8,267.6,555.8,266.9L555.8,266.9z M79.9,232.3c0,0-4.5-1.2-4.5,4c0,3.8-1.5,18.8-9.1,19.6
	c-1.7,0.2-3.5,0.3-5.3,0.4c0-6.8,0-13.6,0-20.4c1-0.1,7.6-0.2,7.6,1.7c0,1.8,1.5,1.5,1.5,1.5c0-4,0-7.9,0-11.9c0,0-1.5-0.1-1.5,1.6
	c0,1.9-6.6,2.5-7.6,2.5c0-7.2,0-14.4,0-21.6s0-14.4,0-21.6c1.9-0.1,3.7-0.1,5.6-0.1c9.5,0.1-0.8,18.6,5.2,25.2
	c1.5,1.7,3.5,1.5,4.9,0.9c1.7-0.8,2.8-2.6,2.8-4.2c0-1.5-1.1-2.8-2.3-2.8c-1.2,0.1-2.4,1.4-2.4,2.9c0,0.1,0,0.1,0,0.2
	c-0.4-0.2-0.6-1-0.6-1.9c0.3-5.4,4.9-19.2,4.9-25c-10.4,0.1-20.7,0.1-31.1,0.2c0,0-0.2,1.9,1.4,1.8c1.6,0,1.7,8.6,1.7,9.4
	c0,9.2,0,18.5,0,27.8c0,9.2,0,18.5,0,27.7c0,0.7-0.1,9.4-1.7,9.5c-1.5,0.1-1.4,1.9-1.4,1.9c10.6-0.8,21.2-1.6,31.8-2.5
	c-1.7-8.4-1.7-15.2-1.4-19.8C78.9,234.9,79.9,232.3,79.9,232.3L79.9,232.3z M126.7,254.8c-1.7,0.1-3-8.5-3.1-8.6
	c-0.2-1.9-0.6-3.8-0.8-5.7c6.5-2.4,5-12.7-1.2-12.5c0,0,2.4,3.2,0.1,5.2c-1-6.5-2.1-13-3-19.6c-1-6.5-2-13.1-3-19.7
	c0-0.2-1.1-8.8,0.5-8.8c1.5,0,1.1-1.7,1.1-1.7c-5.5,0-10.9,0.1-16.4,0.1c0,0-0.5,1.7,1,1.7c1.6-0.1,0.1,8.5,0,8.9
	c-1.7,8.9-3.5,17.8-5.2,26.8c-1.6,9-3.4,17.9-5.1,26.9c-0.1,0.5-1.9,9.1-3.5,9.2c-1.5,0.1-1.6,1.9-1.6,1.9c4.2-0.3,8.3-0.6,12.6-0.8
	c0,0,0.5-1.7-1.1-1.6c-1.4,0.1-0.3-6.9,0-8.6c0.7-3.9,3.9-12.2,14.9-8.3c0.3,2.4,0.7,4.7,1.1,7.1c0.1,0.5,1.2,8.7-0.5,8.8
	c-1.5,0.1-1,1.8-1,1.8c5.3-0.3,10.6-0.6,15.9-0.9C128.2,256.3,128.1,254.7,126.7,254.8L126.7,254.8z M99.9,236.4
	c1.1-6,2.3-11.9,3.4-17.8s2.3-11.8,3.4-17.7c0.8,5.6,1.6,11.1,2.4,16.6s1.7,11,2.6,16.5C108.5,233.5,104.8,233.3,99.9,236.4
	L99.9,236.4z M156,233.6c5.1-0.1,5.2,15.9-3.9,16.3c-3.9,0.1-6.6-6.5-6.6-11.8c0-6.3,0-12.5,0-18.7s0-12.4,0-18.7
	c0-5.4,2.8-13.3,7.3-13.3c8.6-0.1-0.8,17.5,5.2,23.7c1.6,1.7,3.5,1.5,5,0.9c1.5-0.7,2.7-2.3,2.7-3.9c0-1.5-1-2.6-2.3-2.6
	s-2.3,1.2-2.3,2.7c0,0.1,0,0.2,0,0.2c-0.5-0.2-0.8-0.9-0.7-1.8c0.3-5,5.1-18,5.1-23.4c-4.5,0-8.9-0.2-13.3,0
	c-8.9,0.4-16.5,7.7-16.5,17.6c0,6.3,0,12.5,0,18.8s0,12.5,0,18.8c0,9.7,7.3,17.1,16.3,16.7c9.3-0.4,14.7-7.4,14.7-17
	C166.6,226.6,156,228.7,156,233.6L156,233.6z M210.7,205c-1.4,0-2.4,1.2-2.4,2.6c0,0.1,0,0.1,0,0.2c-0.4-0.2-0.6-0.8-0.6-1.7
	c0.3-4.9,4.8-17.6,4.8-23c-13.1,0.1-26.3,0.1-39.4,0.1c0,5.5,4.6,18.3,5,23.2c0.1,0.9-0.2,1.5-0.7,1.8c0.1-0.1,0.1-0.1,0.1-0.2
	c0-1.5-1.1-2.6-2.4-2.6c-1.2,0-2.3,1.2-2.3,2.7c0,1.7,1.6,3.3,2.8,3.8c1.3,0.6,3.3,0.6,4.8-1.1c6-6.4-4.3-23.3,5.2-23.6
	c0.7-0.1,1.4-0.1,2.1-0.1c0,9.5,0,18.9,0,28.2c0,9.5,0,18.9,0,28.3c0,0.6-0.1,8.5-1.6,8.5c-1.6,0.1-1.4,1.7-1.4,1.7
	c5.3-0.2,10.7-0.3,16.1-0.4c0,0,0.2-1.6-1.4-1.6c-1.6,0.1-1.7-7.9-1.7-8.4c0-9.4,0-18.8,0-28.2s0-18.7,0-28.1c0.7,0,1.5,0,2.2,0
	c9.5,0.2-0.8,17.1,5.2,23.3c1.6,1.6,3.5,1.6,5,1c1.4-0.6,2.7-2.3,2.7-3.8C212.9,206.2,212,205,210.7,205L210.7,205z M278.4,251.1
	c-1.7,0-3-8.2-3.1-8.4c-0.2-1.8-0.6-3.6-0.8-5.4c6.5-2,5-11.9-1.2-11.9c0,0,2.4,3.2,0.1,5c-1-6.2-2.1-12.5-3-18.7
	c-1-6.2-2-12.5-2.9-18.7c-0.1-0.2-1.2-8.4,0.4-8.4c1.5,0.1,1.1-1.6,1.1-1.6c-5.5,0-10.9,0-16.3,0c0,0-0.6,1.6,1,1.6s0.1,7.9,0,8.3
	c-1.7,8.3-3.5,16.6-5.2,24.8c-1.7,8.3-3.4,16.6-5.1,24.9c-0.1,0.5-1.9,8.4-3.5,8.4c-1.5,0-1.7,1.6-1.7,1.6c4.2,0,8.3-0.1,12.6-0.1
	c0,0,0.5-1.6-1.1-1.6c-1.4,0.1-0.3-6.4,0-8c0.8-3.6,3.9-11.2,14.9-7.1c0.3,2.3,0.7,4.5,1.1,6.7c0.1,0.5,1.2,8.3-0.5,8.3
	c-1.5,0-1,1.6-1,1.6c5.3,0,10.6,0.1,15.9,0.1C279.9,252.7,279.8,251.1,278.4,251.1L278.4,251.1z M251.6,232.6
	c1.1-5.5,2.3-11,3.4-16.6c1.1-5.5,2.3-11,3.4-16.6c0.8,5.2,1.6,10.5,2.5,15.7c0.8,5.2,1.6,10.5,2.5,15.7
	C260.2,230.1,256.5,229.8,251.6,232.6L251.6,232.6z M307.5,183.1c-6.8,0-13.5,0-20.2,0c0,0-0.2,1.6,1.4,1.6c1.5,0,1.6,7.9,1.6,8.3
	c0,8.3,0,16.6,0,24.8c0,8.3,0,16.6,0,24.8c0,0.5-0.1,8.4-1.6,8.4c-1.6-0.1-1.4,1.6-1.4,1.6c6.7,0.1,13.5,0.2,20.2,0.3
	c9.2,0.1,16.5-7.3,16.5-16.7c0-6,0-12.1,0-18.1s0-12.1,0-18.1C324,190.6,316.7,183.1,307.5,183.1L307.5,183.1z M314.3,236.2
	c0,7.2-5.2,13-11.6,12.9c-0.9,0-1.7-0.1-2.5-0.4c0-10.3,0-20.5,0-30.8s0-20.5,0-30.8c0.8-0.2,1.6-0.3,2.5-0.3
	c6.4,0.1,11.6,6,11.6,13.1c0,6,0,12.1,0,18.1C314.3,224.1,314.3,230.2,314.3,236.2L314.3,236.2z M357.5,183.2c0,0-0.5,1.6,1,1.6
	c1.7,0,0.1,8.3,0,8.5c-1.6,7.3-3,14.7-4.5,22s-3,14.6-4.5,21.9c-1.2-7.4-2.4-14.7-3.5-22s-2.2-14.7-3.3-22c-0.1-0.5-1.4-8.5,0.3-8.5
	c1.5,0.1,1.1-1.6,1.1-1.6c-5.4,0-10.8,0-16.1,0c0,0,0.1,1.6,1.6,1.6c1.6,0,3,8.2,3.1,8.5c1.3,8.3,2.6,16.7,3.9,25.1
	c1.3,8.4,2.6,16.8,4,25.2c0.1,0.2,1.2,8.5-0.4,8.5c-1.5,0-1.1,1.6-1.1,1.6c5.5,0.2,10.9,0.3,16.4,0.5c0,0,0.5-1.6-1-1.7
	c-1.6,0-0.1-8.1,0-8.5c1.7-8.4,3.5-16.8,5.2-25.2s3.4-16.8,5.2-25.3c0.1-0.5,1.9-8.5,3.5-8.5s1.6-1.7,1.6-1.7
	C365.8,183.2,361.6,183.2,357.5,183.2L357.5,183.2z M408.5,254.4c-1.6-0.1-3-8.6-3-8.8c-0.2-1.9-0.6-3.8-0.8-5.7
	c6.5-1.9,5-12.3-1.2-12.5c0,0,2.5,3.4,0.1,5.2c-1-6.5-2-13-3-19.5s-2-13-2.9-19.4c-0.1-0.2-1.2-8.7,0.3-8.7c1.6,0,1.1-1.7,1.1-1.7
	c-5.5,0-10.9-0.1-16.3-0.1c0,0-0.5,1.7,1,1.7c1.7,0,0.1,8.2,0,8.6c-1.7,8.5-3.5,17-5.2,25.5s-3.4,16.9-5.1,25.4
	c-0.1,0.5-1.9,8.5-3.5,8.5c-1.5-0.1-1.7,1.6-1.7,1.6c4.2,0.2,8.3,0.3,12.6,0.5c0,0,0.5-1.7-1.1-1.7c-1.4,0-0.3-6.6,0-8.2
	c0.8-3.7,3.9-11.4,14.9-6.8c0.3,2.3,0.7,4.6,1.1,7c0.1,0.5,1.1,8.7-0.5,8.7c-1.5-0.1-1.1,1.6-1.1,1.6c5.3,0.2,10.6,0.5,16,0.7
	C410.1,256.2,409.9,254.5,408.5,254.4L408.5,254.4z M381.7,234.3c1.1-5.7,2.3-11.3,3.4-17c1.1-5.6,2.3-11.3,3.4-17
	c0.8,5.4,1.7,10.8,2.5,16.2c0.8,5.5,1.6,10.9,2.5,16.3C390.3,232,386.6,231.5,381.7,234.3L381.7,234.3z M453.3,256.7
	c-1.6-0.1-1.7-8.6-1.7-9.1c0-8.9,0-17.8,0-26.7s0-17.8,0-26.7c0-0.6,0.2-9,1.7-9s1.4-1.7,1.4-1.7c-5.4-0.1-10.8-0.1-16.1-0.1
	c0,0-0.2,1.7,1.4,1.7s1.6,8.2,1.6,9c0,4.8,0,9.7,0,14.5s0,9.6,0,14.5c-1.9-6.6-3.8-13.3-5.6-19.9c-1.9-6.6-3.8-13.2-5.6-19.8
	c-4.3,0-8.7-0.1-13-0.1c0,0-0.2,1.7,1.4,1.7c1.6,0.1,1.7,8.2,1.7,8.8c0,8.7,0,17.4,0,26.1s0,17.4,0,26.1c0,0.7-0.1,8.8-1.7,8.7
	c-1.5-0.1-1.4,1.6-1.4,1.6c4.2,0.2,8.3,0.4,12.6,0.6c0,0,0.1-1.7-1.4-1.7c-1.7-0.1-1.7-9.1-1.7-9.1c0-6.8,0-13.7,0-20.6
	c0-6.8,0-13.7,0-20.6c2.4,8.7,5,17.4,7.4,26.1c2.4,8.8,5,17.6,7.4,26.5c4.3,0.2,8.7,0.5,13.1,0.7
	C454.7,258.5,454.8,256.8,453.3,256.7L453.3,256.7z M482.9,237.4c5.1,0.2,5.2,17.5-3.9,17c-4-0.3-6.6-7.5-6.6-13.2
	c0-6.5,0-13.1,0-19.6s0-13.1,0-19.7c0-5.6,2.8-13.9,7.3-13.9c8.5,0.1-0.8,18.5,5.1,25.5c1.6,1.9,3.5,1.7,5,1.2
	c1.6-0.7,2.8-2.3,2.8-4.1c0-1.6-1-2.9-2.3-2.9s-2.3,1.3-2.3,2.8c0,0.1,0,0.2,0,0.2c-0.5-0.2-0.7-1-0.7-1.9c0.3-5.4,5-19.2,5-25.1
	c-4.5,0-8.8-0.2-13.2-0.1c-9,0.3-16.5,7.8-16.5,18.1c0,6.5,0,13,0,19.5s0,13,0,19.5c0,10.1,7.3,18.7,16.4,19.2
	c9.2,0.6,14.6-6.5,14.6-16.9C493.4,230.5,482.9,232.2,482.9,237.4L482.9,237.4z M532.6,235c0,0-4.5-1.7-4.5,3.8
	c0,3.9-1.5,19.4-9,19.2c-1.8-0.1-3.6-0.2-5.4-0.3c0-6.9,0-13.8,0-20.7c1,0.1,7.6,0.6,7.6,2.6c0,1.8,1.4,1.6,1.4,1.6
	c0-4.1,0-8.2,0-12.3c0,0-1.4-0.3-1.4,1.5c0,2-6.6,1.9-7.6,1.9c0-7.3,0-14.7,0-22s0-14.7,0-22c1.9,0,3.7,0,5.6,0.1
	c9.5,0.3-0.8,19,5.2,26.3c1.5,1.8,3.5,1.8,4.8,1.2c1.7-0.7,2.8-2.5,2.8-4.2c0-1.6-1.1-3-2.3-3c-1.3-0.1-2.4,1.3-2.4,2.9
	c0,0.1,0,0.1,0,0.2c-0.5-0.3-0.7-1-0.6-2c0.3-5.6,5-19.8,5-25.9c-10.4-0.1-20.7-0.1-31.1-0.1c0,0-0.2,1.8,1.4,1.8
	c1.5,0,1.6,8.6,1.6,9.4c0,9.2,0,18.5,0,27.7s0,18.4,0,27.7c0,0.7-0.1,9.3-1.6,9.2c-1.6-0.1-1.4,1.7-1.4,1.7
	c10.6,0.7,21.2,1.4,31.8,2.1c-1.7-9-1.7-16.1-1.4-21C531.7,237.7,532.6,235,532.6,235L532.6,235z"/>
<path class="st1" d="M228.8,48c-0.1,7.3-0.5,10.7-0.5,10.7c-0.3-0.1-0.8-0.3-1.3-0.6c-0.3-0.2,0.1-9.4,0.3-10.4
	C227.3,47.3,227.9,47.6,228.8,48L228.8,48z"/>
<g>
	<path class="st2" d="M209.9,95.2c19.5,21.7,47.8,35.3,79.3,35.3s59.8-13.7,79.3-35.3c-20.8,19.4-48.6,31.3-79.3,31.3
		C258.6,126.5,230.7,114.6,209.9,95.2z"/>
	<path class="st2" d="M283.3,6.9c-1.6-0.2-3.3-0.3-4.9-0.3c-17.3,0-32.3,9.9-39.8,24.3C248.4,16.7,264.7,7.2,283.3,6.9z"/>
	<path class="st0" d="M367.6,78.7c-4.6,0-9,2.6-12,6c-1.2,1.2-2.4,2.5-3.7,3.7c-0.3,0.3-0.7,0.7-1.1,1v-3.7
		c-6.6,0.3-17.9-0.5-25.7-2.1l0.3-0.9c4.9,1.2,18.8,2.3,24.1,2.1c0,0,0,0.1,0,0.1c0.5,0,1.1-0.1,1.4-0.1c0,0,0.1,0,0.1,0
		c0-0.1,0.1-3.7,0.4-10.8c0.1-0.7,0.1-1.1-0.5-1.2c0,0,0,0,0,0c0,0-0.5,0-1.5,0c0,0,0,0,0,0.1c-1.8,0-3.8,0-6.1-0.3
		c-3.5-0.3-11-1-14.7-2.1l0.1-0.8c6.1,1.4,16.2,2.5,22.1,2.2V47.4c0-34.4-32-47.4-61.5-47.4c-29.3,0-61,12.8-61.5,46.6
		c1.9,0.7,3.9,1.4,6,2.1c-0.1,0.3-0.2,0.5-0.3,0.8c0,0,0,0,0,0c-2-0.7-3.9-1.3-5.8-2v11c1,0.4,2.1,0.8,3.2,1.2
		c-0.1,0.3-0.1,0.5-0.2,0.8c-1-0.4-2-0.8-3-1.2v22.4v12.9c8.2,7.6,17.7,13.6,28.3,17.7c10.3,4.1,21.5,6.4,33.2,6.5
		c11.8-0.2,23-2.5,33.4-6.6c10.7-4.3,20.4-10.5,28.7-18.2c-6.9,9.7-23.9,18.2-28.1,19.8c-10.5,4.2-22,6.6-34,6.7
		c-11.9-0.1-23.4-2.5-33.9-6.6c-10.8-4.3-20.7-10.5-29.1-18.4l-0.3-0.2v-7.6c-1-1-2.1-2-3.1-3.1c-3-3.3-7.4-6-12-6
		c-6.1,0-11.1,5-11.1,11.1c0,11.8,30.6,31.9,40,36.6c14.9,7.4,31.7,11.5,49.5,11.5c17.7,0,34.5-4.1,49.5-11.5
		c9.4-4.6,40-24.7,40-36.6C378.7,83.7,373.7,78.7,367.6,78.7z M232.9,55c0.5-1.9,1-3.7,1.5-5.2v-0.1c0.1-0.7,0.5-1.5,0.8-1.7
		c0.8-0.7,2.3-0.1,3.3,0.2l6.7,1.6c0.7,0.2,1.2,0.4,1.5,0.7c0.3,0,0.3,0.4,0.2,0.8l-3.7,13c-0.2,0.6-0.6,1.1-1.1,1.4
		c-0.4,0.3-1,0.5-1.6,0.3c-0.1,0-2.4-0.5-7.2-1.7c-0.6-0.2-1.1-0.6-1.4-1.1c-0.4-0.6-0.5-1.3-0.5-2C231.9,59,232.4,56.9,232.9,55z
		 M325.7,94.6c0,0.9-0.3,1.8-1,2.5c-0.6,0.7-1.5,1.2-2.3,1.4c-0.7,0.1-1.3,0-1.9-0.2l4.8-5.5C325.6,93.4,325.7,94,325.7,94.6z
		 M276.7,107.5l1-4c1.9,0.6,3.9,1,5.9,1.3l-1,4.2L276.7,107.5z M274.8,102.5c0.5,0.2,1,0.4,1.5,0.6l-1.1,4.1l-1.5-0.4L274.8,102.5z
		 M282.5,110.5c-0.4,0.5-0.9,0.9-1.4,1.2c-0.9,0.4-1.8,0.5-2.8,0.3s-1.8-0.8-2.3-1.5c-0.4-0.5-0.6-1.1-0.7-1.7L282.5,110.5z
		 M284,109.3l1.1-4.3c0.3,0,0.6,0.1,0.8,0.1l-1.1,4.4L284,109.3z M284.2,103.4h-0.1c-10.3-1.4-19-6.9-24.9-14.6
		c-5.8-7.7-8.7-17.6-7.3-27.9c1.4-10.3,6.9-19.1,14.6-25c7.7-5.8,17.6-8.7,27.9-7.3c10.3,1.5,19.1,6.9,25,14.6
		c5.8,7.7,8.7,17.6,7.3,28c-1.4,10.3-6.9,19-14.6,24.9C304.4,101.9,294.5,104.8,284.2,103.4z M244,64.5l0.1-0.4c2,0.6,4,1.1,5.9,1.6
		c0,0.3,0,0.6,0,1c-2.1-0.5-4.2-1.1-6.2-1.7C243.9,64.8,244,64.6,244,64.5z M260.5,32l-5,5l-0.2,0.2c-0.2-0.6-0.4-1.3-0.3-1.9
		c0-0.9,0.4-1.8,1.1-2.5c0.7-0.6,1.6-1,2.5-1.1C259.3,31.6,259.9,31.7,260.5,32z M262.9,31.7l0.1-0.1l2.9,2.9
		c-0.1,0.1-0.2,0.1-0.3,0.2c-0.1,0.1-0.2,0.2-0.4,0.3l-2.8-2.8L262.9,31.7L262.9,31.7L262.9,31.7z M259.8,40.2l-2.7-2.7l4.3-4.2
		l2.7,2.6C262.5,37.2,261.1,38.6,259.8,40.2z M256,38.6l2.7,2.8c-0.3,0.4-0.6,0.8-0.9,1.2l-2.9-2.9L256,38.6z M250.7,73.1l-3.9,1.2
		l-0.2-0.8l4-1.2C250.6,72.7,250.7,72.9,250.7,73.1z M247.3,75.8l3.7-1.2c0.4,2,1,3.9,1.8,5.8l-3.8,1.2L247.3,75.8z M253.4,81.8
		c0.2,0.5,0.4,0.9,0.6,1.4l-4.1,1.3l-0.4-1.5L253.4,81.8z M244.6,77.5c0.2-0.6,0.6-1.1,1.1-1.4l2.1,7c-0.6-0.1-1.2-0.3-1.7-0.6
		c-0.8-0.5-1.3-1.2-1.6-2.2S244.3,78.3,244.6,77.5z M301.7,23.2c0.3-0.4,0.9-0.8,1.5-1c0.8-0.3,1.8-0.3,2.8,0c0.9,0.3,1.6,1,2.1,1.7
		c0.3,0.5,0.5,1.1,0.5,1.7L301.7,23.2z M300.1,28.3l1.3-3.4l5.7,2l-1.3,3.5C304,29.5,302.1,28.8,300.1,28.3z M308.5,31.8
		c-0.5-0.3-0.9-0.5-1.4-0.7l1.3-3.7l1.3,0.5l0-0.1l0.2,0.1L308.5,31.8z M299.3,24L299.3,24l0.6,0.3l-1.3,3.6
		c-0.3-0.1-0.5-0.1-0.8-0.2l1.3-3.7L299.3,24z M332.2,57.7l-4.3,1.5c-0.1-0.5-0.2-1.1-0.3-1.6l3.9-1.4L332.2,57.7L332.2,57.7
		L332.2,57.7z M331.1,54.8l-3.8,1.4c-0.5-2-1.2-3.9-2-5.7l3.7-1.3L331.1,54.8z M328.5,47.6l-3.8,1.4c-0.1-0.2-0.2-0.4-0.3-0.6
		l3.9-1.4l0.1,0.2l-0.1,0L328.5,47.6z M334.1,53.8c-0.3,0.5-0.6,1-1.1,1.5l-2.5-6.9c0.6,0,1.2,0.2,1.8,0.5c0.7,0.5,1.4,1.2,1.7,2.1
		S334.3,52.9,334.1,53.8z M320,96.4l-2.9-2.6c1.4-1.4,2.7-2.9,3.9-4.5l3,2.6L320,96.4z M314.7,95.9c0.4-0.3,0.8-0.7,1.2-1.1l3,2.7
		l-1,1.1L314.7,95.9z M325.3,90.3L325.3,90.3l-0.4,0.4l-3.1-2.7c0.2-0.2,0.3-0.5,0.5-0.7l3.2,2.8L325.3,90.3z M251.6,54.9
		c-1.5-0.4-3-0.8-4.6-1.2l0.2-0.8c1.5,0.4,3.1,0.8,4.6,1.2C251.8,54.3,251.7,54.6,251.6,54.9z M278.4,6.6c1.6,0,3.3,0.1,4.9,0.3
		c-18.6,0.3-34.9,9.8-44.7,24C246.1,16.5,261.1,6.6,278.4,6.6z M289.2,130.5c-31.5,0-59.8-13.6-79.3-35.3
		c20.8,19.4,48.7,31.3,79.3,31.3c30.7,0,58.5-11.9,79.3-31.3C349,116.8,320.7,130.5,289.2,130.5z"/>
	<path d="M247.1,53.7c1.5,0.4,3,0.8,4.6,1.2c0.1-0.3,0.2-0.6,0.3-0.9c-1.5-0.4-3.1-0.8-4.6-1.2L247.1,53.7z"/>
	<path d="M233.6,49.5c0.1-0.3,0.2-0.6,0.3-0.8c-2.1-0.7-4.2-1.5-6-2.1c-0.2-0.1-0.5-0.2-0.7-0.3l-0.2,0.9c0.3,0.1,0.6,0.2,0.9,0.3
		C229.7,48.2,231.6,48.9,233.6,49.5C233.6,49.5,233.6,49.5,233.6,49.5z"/>
	<path d="M231,59.7c-1.1-0.4-2.1-0.8-3.2-1.2c-0.2-0.1-0.4-0.2-0.6-0.2v0.8c0.2,0.1,0.4,0.2,0.6,0.2c1,0.4,2,0.8,3,1.2
		C230.9,60.3,230.9,60,231,59.7z"/>
	<path d="M250.1,65.6c-2-0.5-4-1-5.9-1.6l-0.1,0.4c0,0.1-0.1,0.3-0.2,0.4c2.1,0.6,4.1,1.2,6.2,1.7C250.1,66.3,250.1,66,250.1,65.6z"
		/>
	<path d="M233.3,64.3c4.8,1.2,7.1,1.7,7.2,1.7c0.6,0.2,1.2,0,1.6-0.3c0.5-0.3,0.9-0.8,1.1-1.4l3.7-13c0.1-0.4,0.1-0.8-0.2-0.8
		c-0.3-0.3-0.8-0.5-1.5-0.7l-6.7-1.6c-1-0.3-2.5-0.9-3.3-0.2c-0.3,0.2-0.7,1-0.8,1.7v0.1c-0.5,1.5-1,3.3-1.5,5.2
		c-0.5,1.9-1,4-1.5,6.2c0,0.7,0.1,1.4,0.5,2C232.2,63.7,232.7,64.1,233.3,64.3z M233,60.1c0.4-2.3,1.5-5.5,2.1-7.9
		c0.2-0.8,0.5-1.5,0.7-2.1c0.2-0.4,0.3-0.6,0.5-0.8c0.3-0.3,0.8-0.3,1.5,0c0.9,0.4,1.7,0.7,2.6,0.9c1.3,0.4,2.6,0.5,3.8,0.6l0.1,0.1
		c0.3,0.1,0.5,0.2,0.6,0.5c0.1,0.2,0.1,0.4,0,0.7c-0.1,0.4-0.2,0.8-0.3,1.2c-1.9,6.4-2.6,9.7-2.6,9.7c-0.3,0.5-0.6,0.8-1.1,0.8
		c-0.3,0.2-0.7,0.3-1.2,0.2c0,0,0,0-0.1,0c0,0-0.1,0-0.2-0.1c-0.1,0-0.1,0-0.2,0c-1.4-0.2-3.3-0.7-4.3-1h-0.1
		c-0.6-0.2-1.1-0.4-1.5-0.9C233,61.6,232.9,61,233,60.1z"/>
	<path class="st0" d="M234.8,62.9h0.1c1,0.3,2.9,0.8,4.3,1c0.1,0,0.2,0,0.2,0c0.1,0,0.2,0.1,0.2,0.1c0,0,0,0,0.1,0
		c0.5,0.1,0.9,0,1.2-0.2c0.5,0,0.8-0.3,1.1-0.8c0,0,0.7-3.3,2.6-9.7c0.1-0.4,0.2-0.8,0.3-1.2c0.1-0.3,0.1-0.5,0-0.7
		c-0.1-0.3-0.3-0.4-0.6-0.5l-0.1-0.1c-1.2-0.1-2.5-0.2-3.8-0.6c-0.9-0.2-1.7-0.5-2.6-0.9c-0.7-0.3-1.2-0.3-1.5,0
		c-0.2,0.2-0.3,0.4-0.5,0.8c-0.2,0.6-0.5,1.3-0.7,2.1c-0.6,2.4-1.7,5.6-2.1,7.9c-0.1,0.9,0,1.5,0.3,1.9
		C233.7,62.5,234.2,62.7,234.8,62.9z M234.6,60.9c0.2-3.2,1-6.2,2.4-9.1C236.5,54.7,235.7,57.7,234.6,60.9z"/>
	<path d="M328.7,69.7l-0.1,0.8c3.7,1.1,11.2,1.8,14.7,2.1c2.2,0.2,4.3,0.3,6.1,0.3c0,0,0,0,0-0.1c1,0,1.5,0,1.5,0c0,0,0,0,0,0
		c0.1,0,0.1,0,0.2,0v-0.9c-0.1,0-0.2,0-0.3,0C344.9,72.2,334.8,71.1,328.7,69.7z"/>
	<path d="M349.5,84.9C349.5,84.9,349.5,84.8,349.5,84.9c-5.3,0.1-19.2-1-24.1-2.2l-0.3,0.9c7.8,1.6,19.1,2.4,25.7,2.1
		c0,0,0.1,0,0.1,0v-0.9C350.6,84.8,350,84.9,349.5,84.9z"/>
	<path class="st3" d="M237,51.8c-1.4,2.9-2.2,5.9-2.4,9.1C235.7,57.7,236.5,54.7,237,51.8z"/>
	<path d="M258.7,41.4l-2.7-2.8l-1.1,1.1l2.9,2.9C258.1,42.2,258.4,41.8,258.7,41.4z"/>
	<path d="M262.4,32.2l2.8,2.8c0.1-0.1,0.2-0.2,0.4-0.3c0.1-0.1,0.2-0.1,0.3-0.2l-2.9-2.9l-0.1,0.1h0l0,0L262.4,32.2z"/>
	<path d="M257.1,37.5l2.7,2.7c1.3-1.5,2.8-3,4.3-4.3l-2.7-2.6L257.1,37.5z"/>
	<path d="M258.6,31.7c-0.9,0.1-1.8,0.5-2.5,1.1c-0.7,0.7-1.1,1.6-1.1,2.5c-0.1,0.6,0.1,1.3,0.3,1.9l0.2-0.2l5-5
		C259.9,31.7,259.3,31.6,258.6,31.7z"/>
	<path d="M254,83.2c-0.2-0.5-0.4-0.9-0.6-1.4l-3.9,1.2l0.4,1.5L254,83.2z"/>
	<path d="M246.8,74.4l3.9-1.2c0-0.2-0.1-0.5-0.1-0.7l-4,1.2L246.8,74.4z"/>
	<path d="M252.8,80.4c-0.7-1.9-1.3-3.8-1.8-5.8l-3.7,1.2l1.7,5.8L252.8,80.4z"/>
	<path d="M246.1,82.5c0.5,0.3,1.1,0.5,1.7,0.6l-2.1-7c-0.5,0.3-0.9,0.8-1.1,1.4c-0.3,0.8-0.4,1.8-0.1,2.8S245.3,82,246.1,82.5z"/>
	<path d="M285.9,105.1c-0.3,0-0.6-0.1-0.8-0.1l-1.1,4.3l0.8,0.2L285.9,105.1z"/>
	<path d="M276.2,103c-0.5-0.2-1-0.4-1.5-0.6l-1.1,4.3l1.5,0.4L276.2,103z"/>
	<path d="M283.6,104.8c-2-0.3-4-0.8-5.9-1.3l-1,4l5.9,1.5L283.6,104.8z"/>
	<path d="M278.3,112c1,0.2,1.9,0.1,2.8-0.3c0.5-0.3,1-0.7,1.4-1.2l-7.2-1.7c0.1,0.6,0.3,1.2,0.7,1.7
		C276.5,111.2,277.3,111.8,278.3,112z"/>
	<path d="M328.3,47l-3.9,1.4c0.1,0.2,0.2,0.4,0.3,0.6l3.8-1.4l-0.2-0.4l0.1,0L328.3,47z"/>
	<path d="M331.6,56.2l-3.9,1.4c0.1,0.5,0.2,1.1,0.3,1.6l4.3-1.5l0-0.1l-0.1,0.1L331.6,56.2z"/>
	<path d="M327.3,56.2l3.8-1.4l-2.1-5.7l-3.7,1.3C326.1,52.3,326.8,54.2,327.3,56.2z"/>
	<path d="M332.3,48.9c-0.6-0.3-1.2-0.5-1.8-0.5l2.5,6.9c0.5-0.5,0.8-1,1.1-1.5c0.2-0.9,0.2-1.9-0.1-2.8S333,49.4,332.3,48.9z"/>
	<path d="M321.8,88l3.1,2.7l0.4-0.4l0,0l0.2-0.2l-3.2-2.8C322.1,87.5,321.9,87.8,321.8,88z"/>
	<path d="M315.9,94.9c-0.4,0.4-0.8,0.7-1.2,1.1l3.2,2.8l1-1.1L315.9,94.9z"/>
	<path d="M317.1,93.7l2.9,2.6l4-4.5l-3-2.6C319.8,90.8,318.5,92.3,317.1,93.7z"/>
	<path d="M322.4,98.5c0.8-0.2,1.7-0.7,2.3-1.4c0.7-0.7,1-1.6,1-2.5c0-0.6-0.1-1.2-0.4-1.8l-4.8,5.5
		C321.1,98.5,321.7,98.6,322.4,98.5z"/>
	<path d="M309.8,27.8l-1.3-0.5l-1.3,3.7c0.5,0.2,0.9,0.5,1.4,0.7l1.5-4H309.8L309.8,27.8z"/>
	<path d="M298.6,27.9l1.3-3.6l-0.6-0.2l0-0.1l-0.1,0l-1.3,3.7C298.1,27.8,298.4,27.8,298.6,27.9z"/>
	<path d="M301.4,24.8l-1.3,3.4c2,0.6,3.9,1.3,5.7,2.1l1.3-3.5L301.4,24.8z"/>
	<path d="M306,22.2c-1-0.3-2-0.3-2.8,0c-0.6,0.2-1.2,0.6-1.5,1l6.9,2.4c0-0.6-0.2-1.2-0.5-1.7C307.6,23.2,306.9,22.5,306,22.2z"/>
	<path d="M326.7,71.2c1.4-10.4-1.5-20.3-7.3-28c-5.9-7.7-14.7-13.1-25-14.6c-10.3-1.4-20.2,1.5-27.9,7.3c-7.7,5.9-13.2,14.7-14.6,25
		c-1.4,10.3,1.5,20.2,7.3,27.9c5.9,7.7,14.6,13.2,24.9,14.6h0.1c10.3,1.4,20.2-1.5,27.9-7.3C319.8,90.2,325.3,81.5,326.7,71.2z
		 M284.5,101c-9.6-1.3-17.9-6.4-23.3-13.6c-5.5-7.2-8.2-16.5-6.9-26.1c1.4-9.7,6.4-17.9,13.6-23.4c7.3-5.5,16.6-8.2,26.2-6.9
		c9.6,1.4,17.9,6.5,23.3,13.6c5.5,7.2,8.2,16.5,6.9,26.2c-1.4,9.6-6.5,17.9-13.6,23.3C303.5,99.6,294.2,102.3,284.5,101z"/>
	<path class="st0" d="M287.2,47.3c-0.8-0.7-1.6-1.5-2.4-2.1c-4-3.2-7.5-4.6-9.5-3.5c-1.9,1.1-2.5,4.8-1.8,9.9c0.1,1,0.4,2.1,0.6,3.2
		c2.4-0.6,5.1-1,7.9-1.3C283.4,51.7,285.7,48.8,287.2,47.3z"/>
	<path class="st0" d="M294.8,56.4C294.8,56.4,294.8,56.4,294.8,56.4c-0.5-0.7-0.9-1.4-1.4-2c-0.3-0.4-0.6-0.7-0.8-1.1c0,0,0,0,0,0
		c-0.9-1.2-1.8-2.3-2.8-3.3c0.5-0.6,1-1.2,1.6-1.7c0.2-0.1,0.3-0.3,0.5-0.4c1.6,1.7,3.2,3.6,4.6,5.7c2.3,0.3,5.7,0.9,7.8,1.4
		c0.3-1.2,0.5-2.4,0.8-3.5c0.6-5.1,0.1-8.8-1.9-9.9c-1.9-1.1-5.5,0.3-9.5,3.5c-0.8,0.6-1.6,1.4-2.4,2.1c0,0,0,0,0,0
		c-0.2,0.2-0.3,0.3-0.5,0.5c-0.7,0.7-1.4,1.5-2.1,2.3l0,0c-0.9,1-2,2.4-2.6,3.2c1.1,0,2.1-0.1,3.2-0.1c0.7,0,1.4,0,2,0
		c0.5,0.6,0.9,1.1,1.4,1.8c0.3,0.4,0.6,0.8,1,1.3c-1.5-0.1-3-0.1-4.5-0.2c-1.9,0-3.8,0-5.6,0.2c0,0,0,0.1-0.1,0.1
		c-0.5,0-1,0.1-1.5,0.1c-0.8,0.1-1.5,0.2-2.2,0.3c0,0,0,0,0,0c-1.8,0.2-3.4,0.5-4.9,0.9c0.5,1.5,1,3.1,1.7,4.8
		c0.4-0.9,0.9-1.9,1.5-2.8l0.1-0.2c0.3-0.6,0.6-1.1,1-1.7c0.9-0.1,1.9-0.2,2.9-0.4c0.3,0,0.6,0,0.8-0.1c-0.8,1.2-1.5,2.4-2.3,3.8
		v0.1c-1.2,2-2.1,4-3,6c-0.1,0.1-0.1,0.3-0.2,0.4c-0.2,0.6-0.5,1.2-0.7,1.7c0.1-0.2,0.2-0.4,0.2-0.6c-0.1,0.3-0.2,0.5-0.3,0.8
		c-0.1,0.3-0.3,0.6-0.4,1c0,0,0,0,0,0c-0.5,1.3-1,2.6-1.3,3.9c4.1,1,9,1.6,14.1,1.5c2,0,3.9,0,5.8-0.2c1-1.5,2-3.1,3-4.8
		c0.9-1.6,1.8-3.2,2.5-4.8c-0.8-1.7-1.6-3.3-2.6-5C296.8,59.5,295.8,57.9,294.8,56.4z M289.2,70.6c-1.2,0-2.3-0.5-3.2-1.3
		c-0.8-0.8-1.3-2-1.3-3.2c0-1.2,0.5-2.3,1.3-3.1c0.8-0.9,2-1.4,3.2-1.4s2.3,0.6,3.1,1.4c0.9,0.8,1.4,1.9,1.4,3.1
		c0,1.3-0.6,2.4-1.4,3.2C291.5,70.1,290.4,70.6,289.2,70.6z M279.3,75.2c-0.6-1-1.5-2.7-2.3-4.3c0.5-1.3,1-2.5,1.5-3.6
		c0.7,1.2,1.6,2.7,2.1,3.6c0.6,1.3,2.2,3.7,2.9,4.8C282.3,75.6,280.7,75.5,279.3,75.2z"/>
	<path class="st0" d="M303.5,58c-1.2-0.4-3.6-0.8-4.8-1c0.6,0.9,1.1,1.8,1.7,2.8c0.5,0.9,1,1.8,1.5,2.8
		C302.5,61.1,303,59.5,303.5,58z"/>
	<path class="st0" d="M324.3,70.8c1.3-9.7-1.4-19-6.9-26.2c-5.4-7.1-13.7-12.2-23.3-13.6c-9.6-1.3-18.9,1.4-26.2,6.9
		c-7.2,5.5-12.2,13.7-13.6,23.4c-1.3,9.6,1.4,18.9,6.9,26.1c5.4,7.2,13.7,12.3,23.3,13.6c9.7,1.3,19-1.4,26.2-6.9
		C317.8,88.7,322.9,80.4,324.3,70.8z M289.3,87c0,0-0.1,0.1-0.1,0.1c-0.3-0.3-0.6-0.6-0.9-0.9c-0.7-0.7-1.4-1.4-2.1-2.2l0,0
		c-1.2-1.4-2.4-2.8-3.6-4.5c0.5,0,0.9,0.1,1.4,0.1c0.9,0.1,1.8,0.1,2.8,0.1c2.3,2.8,4.6,5.2,6.7,7c4.2,3.4,7.8,4.9,9.8,3.8
		c1.9-1.2,2.4-4.9,1.7-10c-0.1-1-0.4-2.1-0.6-3.2c0,0-0.1,0-0.1,0c-0.1-0.4-0.2-0.9-0.3-1.3c-0.1-0.5-0.3-1.1-0.5-1.6
		c0.1,0,0.2,0,0.3-0.1c-0.3-0.9-0.9-2.6-1.3-3.8c-0.1,0.1-0.1,0.2-0.2,0.2c-0.1-0.3-0.2-0.5-0.3-0.8c-0.4,0.8-0.8,1.6-1.3,2.4
		c-0.5,1-1.1,1.9-1.7,2.9c1.2-0.2,2.5-0.4,3.7-0.6c0.2,0.6,0.4,1.2,0.5,1.7c0.2,0.4,0.3,0.8,0.3,1.2c-2.2,0.5-4.5,0.8-6.8,1.1
		c-1.4,1.9-3.5,4.8-5,6.4c-0.8-0.7-1.6-1.5-2.3-2.3c0.8-0.9,2.5-2.8,3.3-3.9c-1.2,0-2.3,0.1-3.5,0.1c-0.1,0-0.2,0-0.3,0
		c-0.7,0-1.4,0-2.1-0.1c-0.3,0-0.6,0-0.8,0c0,0,0,0,0,0c-0.7,0-1.4-0.1-2-0.1c-0.7,0-1.4-0.1-2.1-0.2c0,0,0,0,0,0
		c-0.4,0-0.9-0.1-1.3-0.2c-0.5-0.1-1.1-0.1-1.6-0.2l0,0c-1.7-0.2-3.3-0.5-4.8-0.8c-0.3,1.1-0.5,2.2-0.7,3.3c-0.7,5.2-0.2,8.9,1.8,10
		c1.9,1.1,5.6-0.4,9.7-3.8c0.5-0.4,1-0.8,1.4-1.3c0.7,0.7,1.4,1.4,2.1,2.1c-0.5,0.5-1,0.9-1.5,1.3c-5.1,4.3-10,5.9-13.2,4.1
		c-3.1-1.8-4.2-6.7-3.3-13c0.1-1.2,0.4-2.4,0.7-3.7c-1.2-0.3-2.3-0.7-3.3-1.1c-6.1-2.4-9.9-5.9-9.9-9.5c0.1-3.7,3.9-7.1,10.1-9.4
		c0.6-0.2,1.3-0.5,2.1-0.7c0.1,0.3,0.1,0.6,0.2,0.9c0.1,0.7,0.3,1.4,0.6,2.1c-0.6,0.2-1.2,0.4-1.8,0.6c-5,1.8-8.1,4.2-8.1,6.5
		s3,4.7,8,6.7c0.9,0.3,1.8,0.7,2.9,1c0.7-2.3,1.7-4.9,2.8-7.4c-0.9-1.9-1.6-3.7-2.2-5.6l0,0c-0.1-0.3-0.2-0.5-0.3-0.8
		c-0.1-0.4-0.3-0.9-0.4-1.3c0,0,0,0,0,0c-0.2-0.7-0.4-1.3-0.6-2c-0.1-0.3-0.1-0.7-0.2-1c0,0,0,0,0,0c0-0.1,0-0.1,0-0.2
		c-0.2-1.1-0.4-2.1-0.6-3.2l-0.1,0c0,0,0-0.1,0-0.1c-0.9-6.4,0.2-11.2,3.3-13l0.3-0.2h0.1c3.1-1.5,7.7,0.1,12.5,4
		c0.9,0.7,1.7,1.5,2.6,2.3c0.9-0.9,1.8-1.6,2.6-2.3c4.8-3.9,9.3-5.5,12.5-4l0.4,0.2c3.1,1.8,4.1,6.7,3.3,13
		c-0.1,1.2-0.4,2.5-0.7,3.8c0,0,0,0,0.1,0c-0.1,0.4-0.2,0.7-0.3,1.1c-0.3,1.2-0.7,2.5-1.1,3.7l0.1,0c-0.6,1.8-1.4,3.6-2.2,5.5
		c0.8,2.1,2.2,5.6,2.8,7.5c0.6,2.2,1.1,4.3,1.4,6.5c0.9,6.4-0.2,11.3-3.3,13c-3.2,1.8-8.1,0.1-13.2-4.1
		C290.8,88.4,290,87.7,289.3,87z M307.6,76.6c-0.3-0.9-0.5-1.9-0.8-2.9c0.6-0.2,2.4-0.8,3-1c4.8-1.9,7.8-4.2,7.8-6.5
		c0-2.2-2.9-4.5-7.7-6.5c-0.7-0.3-1.5-0.6-2.5-0.9c0.2-0.6,0.3-1.1,0.5-1.7c0.1-0.4,0.2-0.8,0.3-1.1c0.9,0.3,1.8,0.6,2.6,0.9
		c6,2.4,9.7,5.8,9.6,9.4c0,3.6-3.7,6.9-9.5,9.2C310.2,75.7,308.3,76.4,307.6,76.6z"/>
	<path d="M304.8,93.1c3.1-1.7,4.2-6.6,3.3-13c-0.3-2.2-0.8-4.3-1.4-6.5c-0.6-2-2-5.4-2.8-7.5c0.8-1.9,1.5-3.7,2.2-5.5l-0.1,0
		c0.4-1.2,0.8-2.5,1.1-3.7c0.1-0.4,0.2-0.7,0.3-1.1c0,0,0,0-0.1,0c0.3-1.3,0.6-2.6,0.7-3.8c0.8-6.3-0.2-11.2-3.3-13l-0.4-0.2
		c-3.2-1.5-7.7,0.1-12.5,4c-0.8,0.7-1.7,1.4-2.6,2.3c-0.9-0.8-1.7-1.6-2.6-2.3c-4.8-3.9-9.4-5.5-12.5-4H274l-0.3,0.2
		c-3.1,1.8-4.2,6.6-3.3,13c0,0,0,0.1,0,0.1l0.1,0c0.1,1.1,0.4,2.2,0.6,3.2c0,0.1,0,0.1,0,0.2c0,0,0,0,0,0c0.1,0.3,0.1,0.7,0.2,1
		c0.1,0.7,0.3,1.4,0.6,2c0,0,0,0,0,0c0.1,0.4,0.3,0.8,0.4,1.3c0.1,0.3,0.2,0.6,0.3,0.8l0,0c0.6,1.8,1.4,3.7,2.2,5.6
		c-1.1,2.5-2.1,5.1-2.8,7.4c-1.1-0.3-2-0.7-2.9-1c-5-2-8-4.4-8-6.7s3.1-4.7,8.1-6.5c0.5-0.2,1.1-0.4,1.8-0.6
		c-0.2-0.7-0.4-1.4-0.6-2.1c-0.1-0.3-0.2-0.6-0.2-0.9c-0.7,0.2-1.4,0.5-2.1,0.7c-6.2,2.3-10,5.7-10.1,9.4c0,3.6,3.8,7.1,9.9,9.5
		c1,0.4,2.1,0.8,3.3,1.1c-0.3,1.3-0.6,2.5-0.7,3.7c-0.9,6.3,0.2,11.2,3.3,13c3.2,1.8,8.1,0.2,13.2-4.1c0.5-0.4,1-0.8,1.5-1.3
		c-0.7-0.7-1.4-1.4-2.1-2.1c-0.5,0.4-1,0.9-1.4,1.3c-4.1,3.4-7.8,4.9-9.7,3.8c-2-1.1-2.5-4.8-1.8-10c0.2-1.1,0.4-2.2,0.7-3.3
		c1.5,0.3,3.1,0.6,4.8,0.8l0,0c0.5,0.1,1,0.2,1.6,0.2c0.4,0.1,0.9,0.1,1.3,0.2c0,0,0,0,0,0c0.7,0.1,1.4,0.1,2.1,0.2
		c0.7,0,1.3,0.1,2,0.1c0,0,0,0,0,0c0.3,0,0.6,0,0.8,0c0.7,0,1.4,0,2.1,0.1c0.1,0,0.2,0,0.3,0c1.2,0,2.3-0.1,3.5-0.1
		c-0.8,1.1-2.5,3-3.3,3.9c0.7,0.8,1.5,1.6,2.3,2.3c1.5-1.6,3.6-4.5,5-6.4c2.3-0.3,4.6-0.6,6.8-1.1c-0.1-0.4-0.2-0.8-0.3-1.2
		c-0.1-0.6-0.3-1.1-0.5-1.7c-1.2,0.3-2.5,0.5-3.7,0.6c0.6-1,1.2-1.9,1.7-2.9c0.4-0.8,0.9-1.6,1.3-2.4c0.1,0.2,0.2,0.5,0.3,0.8
		c0.1-0.1,0.1-0.2,0.2-0.2c0.4,1.2,1,2.9,1.3,3.8c-0.1,0-0.2,0-0.3,0.1c0.2,0.6,0.4,1.1,0.5,1.6c0.1,0.4,0.2,0.9,0.3,1.3
		c0,0,0.1,0,0.1,0c0.2,1.1,0.5,2.2,0.6,3.2c0.7,5.1,0.2,8.8-1.7,10c-2,1.1-5.6-0.4-9.8-3.8c-2.2-1.8-4.5-4.2-6.7-7
		c-0.9,0-1.9-0.1-2.8-0.1c-0.5-0.1-0.9-0.1-1.4-0.1c1.2,1.6,2.4,3.1,3.6,4.5l0,0c0.7,0.8,1.4,1.5,2.1,2.2c0.3,0.3,0.6,0.6,0.9,0.9
		c0,0,0.1-0.1,0.1-0.1c0.7,0.7,1.5,1.4,2.3,2C296.7,93.2,301.6,94.9,304.8,93.1z M274.1,54.8c-0.2-1.1-0.5-2.2-0.6-3.2
		c-0.7-5.1-0.1-8.8,1.8-9.9c2-1.1,5.5,0.3,9.5,3.5c0.8,0.6,1.6,1.4,2.4,2.1c-1.5,1.5-3.8,4.4-5.2,6.2
		C279.2,53.8,276.5,54.2,274.1,54.8z M297.8,70.9c-1,1.7-2,3.3-3,4.8c-1.9,0.2-3.8,0.2-5.8,0.2c-5.1,0.1-10-0.5-14.1-1.5
		c0.3-1.3,0.8-2.5,1.3-3.9c0,0,0,0,0,0c0.1-0.3,0.3-0.7,0.4-1c0.1-0.3,0.2-0.5,0.3-0.8c-0.1,0.2-0.2,0.4-0.2,0.6
		c0.2-0.6,0.5-1.1,0.7-1.7c0.1-0.1,0.1-0.3,0.2-0.4c0.9-2,1.8-4,3-6v-0.1c0.8-1.3,1.5-2.6,2.3-3.8c-0.3,0-0.6,0-0.8,0.1
		c-1.1,0.1-2,0.2-2.9,0.4c-0.3,0.6-0.7,1.1-1,1.7l-0.1,0.2c-0.6,0.9-1.1,1.9-1.5,2.8c-0.7-1.7-1.2-3.3-1.7-4.8
		c1.5-0.4,3.1-0.7,4.9-0.9c0,0,0,0,0,0c0.7-0.1,1.4-0.2,2.2-0.3c0.5,0,1-0.1,1.5-0.1c0,0,0-0.1,0.1-0.1c1.8-0.2,3.7-0.2,5.6-0.2
		c1.5,0.1,3,0.1,4.5,0.2c-0.3-0.5-0.6-0.9-1-1.3c-0.5-0.6-0.9-1.2-1.4-1.8c-0.6,0-1.3,0-2,0c-1.1,0-2.1,0-3.2,0.1
		c0.6-0.8,1.8-2.2,2.6-3.2l0,0c0.7-0.8,1.4-1.6,2.1-2.3c0.2-0.2,0.3-0.3,0.5-0.5c0,0,0,0,0,0c0.8-0.7,1.6-1.5,2.4-2.1
		c4-3.2,7.6-4.6,9.5-3.5c2,1.1,2.5,4.8,1.9,9.9c-0.3,1.1-0.5,2.3-0.8,3.5c-2.1-0.5-5.5-1.1-7.8-1.4c-1.4-2.1-3-4-4.6-5.7
		c-0.2,0.1-0.3,0.3-0.5,0.4c-0.5,0.5-1.1,1.1-1.6,1.7c0.9,1,1.8,2.1,2.8,3.3c0,0,0,0,0,0c0.3,0.4,0.6,0.7,0.8,1.1
		c0.5,0.6,0.9,1.3,1.4,2c0,0,0,0,0,0c1,1.5,2,3.1,2.9,4.7c1,1.7,1.8,3.3,2.6,5C299.6,67.7,298.7,69.3,297.8,70.9z M300.4,59.8
		c-0.6-1-1.1-1.9-1.7-2.8c1.2,0.2,3.6,0.6,4.8,1c-0.5,1.5-1,3.1-1.6,4.6C301.4,61.6,300.9,60.7,300.4,59.8z"/>
	<path class="st3" d="M278.5,67.3c-0.5,1.2-1,2.4-1.5,3.6c0.7,1.5,1.7,3.3,2.3,4.3c1.4,0.3,3,0.4,4.2,0.5c-0.7-1.1-2.3-3.5-2.9-4.8
		C280.1,70,279.2,68.5,278.5,67.3z"/>
	<path d="M320.4,66.3c0.1-3.6-3.6-7-9.6-9.4c-0.8-0.4-1.7-0.7-2.6-0.9c-0.1,0.4-0.2,0.8-0.3,1.1c-0.1,0.6-0.3,1.1-0.5,1.7
		c0.9,0.3,1.7,0.6,2.5,0.9c4.8,2,7.7,4.3,7.7,6.5c0,2.3-3,4.6-7.8,6.5c-0.6,0.2-2.4,0.8-3,1c0.3,1,0.5,2,0.8,2.9
		c0.7-0.2,2.6-0.9,3.3-1.1C316.7,73.2,320.4,69.9,320.4,66.3z"/>
	<path class="st3" d="M292.3,63c-0.8-0.8-1.9-1.4-3.1-1.4s-2.4,0.5-3.2,1.4c-0.8,0.8-1.3,1.9-1.3,3.1c0,1.2,0.5,2.4,1.3,3.2
		c0.9,0.8,2,1.3,3.2,1.3s2.3-0.5,3.1-1.3c0.8-0.8,1.4-1.9,1.4-3.2C293.7,64.9,293.2,63.8,292.3,63z"/>
</g>
</svg>
