<?xml version="1.0" encoding="UTF-8"?><!DOCTYPE svg PUBLIC "-//W3C//DTD SVG 1.1//EN" "http://www.w3.org/Graphics/SVG/1.1/DTD/svg11.dtd"><svg xmlns="http://www.w3.org/2000/svg"><defs>
        <style>
            .cls-1{fill:#fff}
        </style>
    
        <style>
            .cls-1{fill-rule:evenodd}
        </style>
    
        <style>
            .cls-1{fill-rule:evenodd}
        </style>
    
        <style>
            .cls-1{fill-rule:evenodd}
        </style>
    
        <style>
            .cls-1{fill:#fff}
        </style>
    
        <style>
            .cls-1{fill-rule:evenodd}
        </style>
    
        <style>
            .cls-1{fill-rule:evenodd}
        </style>
    </defs><symbol id="icon-arrow-l" viewBox="0 0 7.9 13.4">
    <style>
        .st0{fill:#171717}
    </style>
    <path d="M6.5 13.4L0 6.7 6.5 0l1.4 1.4-5.1 5.3L7.9 12z"/>
</symbol><symbol id="icon-arrow-r" viewBox="0 0 7.9 13.4">
    <style>
        .st0{fill:#171717}
    </style>
    <path d="M1.4 0l6.5 6.7-6.5 6.7L0 12l5.1-5.3L0 1.4z"/>
</symbol><symbol id="icon-arrow-right" viewBox="0 0 32 32">
    <path clip-rule="evenodd" d="M32 16.009c0-.267-.11-.522-.293-.714l-9.899-9.999a.993.993 0 0 0-1.414 0 1.016 1.016 0 0 0 0 1.428l8.193 8.275H1c-.552 0-1 .452-1 1.01s.448 1.01 1 1.01h27.586l-8.192 8.275a1.017 1.017 0 0 0 0 1.428.994.994 0 0 0 1.414 0l9.899-9.999c.187-.189.29-.449.293-.714z" fill-rule="evenodd"/>
</symbol><symbol id="icon-arrow_r" viewBox="0 0 25.4 11.4">
    <style>
        .st0{fill:#fff}
    </style>
    <path d="M19.7 0l-1.4 1.4 3.3 3.3H0v2h21.6L18.3 10l1.4 1.4 5.7-5.7z"/>
</symbol><symbol id="icon-check" viewBox="0 0 37 37">
    <style>
        .st0{fill:#182e22}.st1{fill:#171717}.st2{fill:#71bb72}
    </style>
    <circle cx="18.5" cy="18.5" r="17.5"/>
    <path d="M18.5 37C8.3 37 0 28.7 0 18.5S8.3 0 18.5 0 37 8.3 37 18.5 28.7 37 18.5 37zm0-35C9.4 2 2 9.4 2 18.5S9.4 35 18.5 35 35 27.6 35 18.5 27.6 2 18.5 2z"/>
    <path d="M15.4 25.4l-6.1-5.8 1.4-1.4 4.7 4.4 10.9-10.3 1.4 1.4z"/>
</symbol><symbol id="icon-dis" viewBox="0 0 256 198.2">
    <path d="M216.9 16.6C200.3 8.8 182.6 3.2 164 0c-2.3 4.1-4.9 9.6-6.8 14-19.7-3-39.2-3-58.5 0-1.8-4.4-4.6-9.9-6.8-14C73.4 3.2 55.6 8.9 39 16.6 5.6 67.1-3.4 116.4 1.1 165c22.2 16.6 43.7 26.6 64.8 33.2 5.2-7.2 9.9-14.8 13.9-22.8-7.6-2.9-14.9-6.5-21.8-10.6l5.4-4.2c42.1 19.7 87.9 19.7 129.5 0 1.8 1.5 3.5 2.9 5.4 4.2-6.9 4.2-14.3 7.8-21.9 10.7 4 8 8.6 15.7 13.9 22.8 21.1-6.6 42.6-16.6 64.8-33.2 5.1-56.4-9.3-105.2-38.2-148.5zM85.5 135.1c-12.6 0-23-11.8-23-26.2s10.1-26.2 23-26.2 23.2 11.8 23 26.2c0 14.4-10.2 26.2-23 26.2zm85 0c-12.6 0-23-11.8-23-26.2s10.1-26.2 23-26.2 23.2 11.8 23 26.2c0 14.4-10.1 26.2-23 26.2z"/>
</symbol><symbol id="icon-discord" viewBox="0 0 30 20.5">
    <style>
        .st0{fill:#5c6bc0}.st1{fill:#7785f2}
    </style>
    <path d="M19.2 0h.1z"/>
    <path d="M6 16.2c6.8 2.7 12.4 3.4 18.9-.7 0 0-1.2 1.9-4.6 2.9.7.9 1.6 2 1.6 2 5.7-.1 7.9-3.7 8-3.5C30 9 26.2 2.6 26.2 2.6 22.9.1 19.8 0 19.2 0l-.4.4c4.3 1.2 6.4 3.1 6.4 3.1C14-2 4.8 3.4 4.6 3.4c0 0 2.1-2 6.6-3.1l-.3-.3S7.4-.1 3.7 2.6C3.7 2.6 0 9 0 16.9c0 0 2.1 3.5 7.7 3.7 0 0 .8-1.1 1.7-2-3.2-1-4.4-2.9-4.4-2.9l1 .5zm4.2-1.8c-1.4 0-2.6-1.2-2.6-2.7 0-1.5 1.2-2.7 2.6-2.7 1.4 0 2.6 1.2 2.6 2.7 0 1.5-1.1 2.7-2.6 2.7zm9.4 0c-1.4 0-2.6-1.2-2.6-2.7 0-1.5 1.2-2.7 2.6-2.7 1.5 0 2.6 1.2 2.6 2.7 0 1.5-1.1 2.7-2.6 2.7z"/>
</symbol><symbol id="icon-equal" viewBox="0 0 24 24">
    
    <path d="M0 3h24v6H0z"/>
    <path d="M0 15h24v6H0z"/>
</symbol><symbol id="icon-face" viewBox="0 0 70.4 90.2">
    <style>
        .st0{fill-rule:evenodd;clip-rule:evenodd}
    </style>
    <path d="M35.6 66.3c-3.5 0-6.3-2.8-6.3-6.3v-.2h-6.4v.2c0 7 5.7 12.6 12.6 12.6S48.2 67 48.2 60v-.2h-6.4v.2c0 3.5-2.8 6.3-6.2 6.3z"/>
    <path d="M38.2 32.5h17.6v6.1H38.2z"/>
    <path d="M8 19.7c17.6-5.6 24.2-9 27.2-10.7 3 1.7 9.7 5.2 27.2 10.7 0 2 1.1 62.5-27.2 62.5S8 21.7 8 19.7zm27.2 70.5c36.6.1 35.2-73.8 35.2-76.3C47.7 6.6 39.1 2.2 35.2 0 31.3 2.2 22.7 6.6 0 13.9c0 2.5-1.4 76.4 35.2 76.3z"/>
    <path d="M23.3 26.7c-5.1 0-9.1 4.1-9.1 9.1s4.1 9.1 9.1 9.1 9.1-4.1 9.1-9.1-4-9.1-9.1-9.1zm-2.9 9.1c0-1.6 1.3-2.9 2.9-2.9 1.6 0 2.9 1.3 2.9 2.9s-1.3 2.9-2.9 2.9c-1.6-.1-2.9-1.3-2.9-2.9z"/>
</symbol><symbol id="icon-face_1" viewBox="0 0 151.3 201">
    <style>
        .st0{fill-rule:evenodd;clip-rule:evenodd}.st0,.st1{fill:#2c302d}
    </style>
    <path d="M0 29.8c0 3-.9 52.2 11.3 95.9.3-.1.5-.1.8-.1.5-.1 1-.3 1.5-.4.6-.3 1.2-.4 1.9-.5.6-.1 1.1-.3 1.7-.4.7-.3 1.4-.5 2.2-.6.8-.3 1.6-.5 2.4-.6.7-.3 1.4-.4 2.1-.5.7-.3 1.5-.4 2.3-.6-2.8-10.4-4.7-21.2-6.1-31.4-1-8.1-1.7-15.9-2.2-22.7-.9-14.2-.7-24.3-.7-25.4 37.7-11.9 52-19.4 58.5-23 6.5 3.7 20.8 11.1 58.5 23 0 2.3.7 42.1-8.6 77.8 3.4-.1 6.5.9 9.3 2.9 1 .5 1.9 1 2.9 1.6l.4.3 1.8.9c12.2-43.7 11.4-93 11.4-96C102.5 14.3 84 4.7 75.7 0 67.3 4.7 48.7 14.3 0 29.8z"/>
    <path d="M22 128c4.5 15.2 10.6 29.4 18.9 40 19 24.4 50.5 24.4 69.5 0 8.3-10.6 14.3-24.7 18.8-40-33.6-11.8-73.5-11.8-107.2 0zm124.9-8.9l-1.6 6.3c-5.1 19.4-12.5 37.9-23.3 51.7C97.1 209 54.2 209 29.3 177 18.5 163.2 11.1 144.7 6 125.3L4.4 119c49.2-19.7 93.5-19.7 142.5.1z"/>
    <path d="M77.9 125.5l9.9 6.6 14.2-6.2 9.4 9.6 15.7-4.1 6.5 10.7.5-.1c-.5 2.4-.5 5 .2 7.4l-4.6.5-6.1-10.1-14.5 3.8-8.8-9-13.2 5.8-11.3-7.4-11.3 7.6-13.2-5.8-8.8 9-14.5-3.9-6 10-6.3-.7c.3-2.6-.1-5.2-1.2-7.5l3.6.4 6.5-10.7 15.7 4.1 9.4-9.6 14.1 6.2 12-8 2.1 1.4z"/>
    <path d="M77.9 145.2l9.9 6.6 14.2-6.2 9.4 9.6 15.7-4.1 3.4 5.6c-2.1 1.6-3.8 3.8-4.8 6.3l-2-3.4-14.5 3.8-8.8-9-13.2 5.8-11.3-7.6-11.3 7.6-13.2-5.8-8.8 9-14.6-3.8-2.7 4.5c-.4-3-1.8-5.8-3.8-8l3-5.1 15.7 4.1 9.4-9.6 14.1 6.2 12-8 2.2 1.5z"/>
    <path d="M77.9 164.9l9.9 6.6 14.2-6.2 9.4 9.6 2.6-.7c-.8 2.6-.8 5.2-.2 7.7l-4.6 1.2-8.8-9-13.2 5.9-11.3-7.6-11.3 7.6-13.2-5.8-8.8 9-7.2-1.9c-.1-1.2-.3-2.4-.6-3.6-.3-1.6-.7-3.2-1.4-4.6l7 1.9 9.4-9.6 14.1 6.2 12-8 2 1.3z"/>
    <path d="M37.6 87.4l9.5 9.4 23.4-23.4L47.1 50l-9.5 9.4 14.1 14z"/>
    <path d="M83.5 87.4l9.4 9.4 23.4-23.4L92.9 50l-9.4 9.4 14 14z"/>
</symbol><symbol id="icon-face_10" viewBox="0 0 157.4 201.7">
    <style>
        .st0{fill-rule:evenodd;clip-rule:evenodd;fill:#2c302d}
    </style>
    <path d="M116.4 94.4l-9.7 9.7-24.2-24.2 24.2-24.1 9.7 9.7-14.5 14.4z"/>
    <path d="M69.1 94.4l-9.7 9.7-24.2-24.2 24.2-24.1 9.7 9.7-14.5 14.4z"/>
    <path d="M17.8 44C57.1 31.6 72 23.9 78.7 20c6.8 3.8 21.7 11.5 60.9 24 0 4.4 2.5 139.8-60.9 139.7-63.3.1-60.9-135.3-60.9-139.7zm60.9 157.7c81.9.2 78.7-165 78.7-170.7-50.7-16.1-70-26.1-78.7-31C70 4.9 50.8 14.9 0 31c0 5.7-3.2 170.9 78.7 170.7z"/>
    <path d="M78.9 121.5c-11.3 0-20.4 9.1-20.4 20.3 0 11.3 9.1 20.3 20.4 20.3 11.3 0 20.5-9.1 20.5-20.3-.1-11.1-9.2-20.3-20.5-20.3zm-6.5 20.4c0-3.5 2.9-6.4 6.5-6.4s6.5 2.9 6.5 6.4c0 3.6-2.9 6.4-6.5 6.4-3.5 0-6.5-2.8-6.5-6.4z"/>
</symbol><symbol id="icon-face_11" viewBox="0 0 152.3 202.4">
    <style>
        .st0{fill-rule:evenodd;clip-rule:evenodd}.st0,.st1{fill:#2c302d}
    </style>
    <path d="M0 30c0 3-.9 52.5 11.3 96.5.3 0 .6-.1.8-.2.5-.2 1-.3 1.5-.4.7-.3 1.2-.4 1.9-.5.6-.2 1.1-.3 1.7-.4.7-.3 1.4-.5 2.2-.7.8-.3 1.6-.5 2.4-.7.7-.3 1.4-.4 2.1-.5.8-.3 1.5-.4 2.3-.7-2.8-10.5-4.8-21.3-6.1-31.6-1-8.2-1.7-16-2.2-22.8-.9-14.3-.8-24.4-.8-25.5 38-12 52.4-19.5 58.9-23.2 6.5 3.7 20.9 11.2 58.8 23.2 0 2.3.7 42.4-8.7 78.3 3.4 0 6.6.9 9.3 2.9 1 .5 1.9 1 2.9 1.6l.4.3c.7.3 1.2.6 1.8.9 12.3-44 11.4-93.6 11.4-96.7C103.2 14.4 84.6 4.8 76.2 0 67.7 4.8 49.1 14.4 0 30z"/>
    <path d="M22.2 128.9c4.5 15.3 10.7 29.6 19 40.2 19.1 24.5 50.8 24.5 70 0 8.3-10.7 14.4-24.9 18.9-40.2-33.9-11.9-74-11.9-107.9 0zm125.7-9l-1.6 6.3c-5.1 19.5-12.6 38.1-23.5 52-25.1 32.2-68.3 32.2-93.3 0-10.9-13.9-18.3-32.5-23.5-52l-1.6-6.3c49.5-19.9 94.2-19.9 143.5 0z"/>
    <path d="M78.4 126.4l10 6.7 14.3-6.3 9.5 9.6 15.8-4.2 6.5 10.8h.6c-.6 2.4-.5 5 .2 7.4l-4.6.5-6.1-10.1-14.6 3.9-8.9-9-13.3 5.9-11.4-7.6-11.4 7.6-13.3-5.9-8.9 9-14.6-3.9-6 10.2-6.3-.7c.2-2.6-.2-5.2-1.2-7.6l3.6.4 6.5-10.8 15.9 4.2 9.5-9.6 14.2 6.3 12.1-8.1 1.9 1.3z"/>
    <path d="M78.4 146.2l10 6.7 14.3-6.3 9.5 9.6L128 152l3.4 5.7c-2.1 1.6-3.8 3.8-4.9 6.3l-2-3.4-14.6 3.9-8.9-9-13.3 5.9-11.4-7.6-11.3 7.6-13.3-5.9-8.9 9-14.6-3.9-2.7 4.6c-.4-3-1.8-5.9-3.8-8l3-5.1 15.9 4.2 9.5-9.6 14.2 6.3 12.1-8.1 2 1.3z"/>
    <path d="M78.4 166.1l10 6.7 14.3-6.3 9.5 9.6 2.6-.7c-.8 2.6-.8 5.3-.2 7.7l-4.7 1.2-8.9-9-13.3 5.9-11.4-7.6-11.3 7.7-13.3-5.9-8.9 9-7.3-1.9c-.1-1.2-.3-2.4-.7-3.6-.3-1.6-.8-3.2-1.4-4.7l7.1 1.9 9.5-9.6 14.2 6.3 12.1-8.1 2.1 1.4z"/>
    <path d="M37.9 88.1l9.5 9.4L71 74 47.4 50.4l-9.5 9.4L52.1 74z"/>
    <path d="M84 88.1l9.5 9.4L117.1 74 93.5 50.4 84 59.8 98.2 74z"/>
</symbol><symbol id="icon-face_12" viewBox="0 0 152 201.9">
    <style>
        .st0{fill-rule:evenodd;clip-rule:evenodd}.st0,.st1{fill:#2c302d}
    </style>
    <path d="M0 29.9c0 3-.9 52.4 11.3 96.3.3 0 .6-.1.8-.2.5-.2 1-.3 1.5-.4.6-.3 1.3-.4 1.9-.5.6-.2 1.1-.3 1.6-.4.7-.3 1.4-.5 2.2-.6.8-.3 1.6-.5 2.4-.6.7-.3 1.4-.4 2.1-.5.7-.3 1.5-.4 2.3-.6-2.8-10.5-4.8-21.3-6.1-31.5-1-8.2-1.7-16-2.2-22.8-.9-14.3-.7-24.4-.7-25.5C55.1 30.5 69.5 23 76 19.4c6.5 3.7 20.9 11.1 58.8 23.1 0 2.3.6 42.3-8.7 78.2 3.4 0 6.6.9 9.3 2.9 1 .5 1.9 1 2.9 1.6l.4.3 1.8.9C152.9 82.5 152 32.9 152 29.9 103 14.4 84.4 4.8 76 0 67.6 4.7 49 14.4 0 29.9z"/>
    <path d="M22.2 128.6c4.5 15.3 10.6 29.5 18.9 40.2 19.1 24.5 50.8 24.5 69.8 0 8.3-10.7 14.4-24.9 18.9-40.2-33.7-11.8-73.8-11.8-107.6 0zm125.4-9l-1.6 6.3c-5.1 19.5-12.6 38-23.4 52-25.1 32.1-68.1 32.1-93.2 0-10.8-13.9-18.3-32.5-23.4-52l-1.6-6.3c49.4-19.9 94-19.8 143.2 0z"/>
    <path d="M97.1 113.4l34.9 34.8c-1.7 2-2.9 4.5-3.3 7.2l-42.4-42.3H94h-.2c1.2.2 2.2.3 3.3.3zm-31.4-.3l-42.5 42.4c-.8-2.4-2.3-4.6-4.2-6.3l36.6-36.5c2.6.9 5.5 1.1 8.3.5l1.8-.1z"/>
    <path d="M78.6 119.7l45.9 45.9c-2.1 1.3-3.9 3.1-5.1 5.3L76 127.6l-44.2 44.1c-1.2-2.2-2.9-4.1-5.1-5.5L76 117.1l2.6 2.6z"/>
    <path d="M78.6 143.5l35.6 35.6c-2.6.6-5 1.8-6.9 3.6L76 151.3l-31.9 31.8c-1.3-2.1-3.1-3.9-5.3-5.2L76 140.8l2.6 2.7z"/>
    <path d="M78.6 167.2l20.6 20.6c-2.9.2-5.6 1.1-7.8 2.7L76 175.1l-16.6 16.6c-1.8-1.9-4-3.3-6.4-4.1l23.1-23 2.5 2.6z"/>
    <path d="M32.9 83.4l9.4 9.4 8.9-8.8 8.8 8.8 9.5-9.4-8.9-8.8 8.9-8.8-9.5-9.5-8.8 8.9-8.9-8.9-9.4 9.5 8.8 8.8z"/>
    <path d="M81.4 83.4l9.4 9.4 8.9-8.8 8.9 8.8 9.4-9.4-8.8-8.8 8.8-8.8-9.4-9.5-8.9 8.9-8.9-8.9-9.4 9.5 8.9 8.8z"/>
</symbol><symbol id="icon-face_2" viewBox="0 0 155.2 198.8">
    <style>
        .st0{fill-rule:evenodd;clip-rule:evenodd;fill:#2c302d}
    </style>
    <path d="M78.4 146.1c-7.6 0-13.8-6.2-13.8-13.8v-.4h-14v.4c0 15.3 12.5 27.8 27.8 27.8 15.4 0 27.8-12.4 27.8-27.8v-.4h-14v.4c0 7.6-6.2 13.8-13.8 13.8z"/>
    <path d="M84.1 71.6h38.8v13.5H84.1z"/>
    <path d="M17.6 43.4c38.7-12.3 53.3-19.9 60-23.6 6.7 3.8 21.3 11.4 60 23.6 0 4.3 2.5 137.8-60 137.6-62.5.2-60-133.3-60-137.6zm60 155.4c80.8.2 77.6-162.6 77.6-168.2-50-15.9-69-25.7-77.6-30.6C69 4.8 50 14.7 0 30.6 0 36.2-3.1 199 77.6 198.8z"/>
    <path d="M51.4 58.7c-11.2 0-20.1 9-20.1 20.1s8.9 20.1 20.1 20.1c11.1 0 20.1-9 20.1-20.1s-9-20.1-20.1-20.1zm-6.3 20.1c0-3.5 2.8-6.3 6.4-6.3 3.5 0 6.4 2.8 6.4 6.3s-2.9 6.4-6.4 6.4c-3.6-.1-6.4-2.9-6.4-6.4z"/>
</symbol><symbol id="icon-face_3" viewBox="0 0 154.1 204.8">
    <style>
        .st0{fill-rule:evenodd;clip-rule:evenodd}.st0,.st1{fill:#2c302d}
    </style>
    <path d="M0 30.3c0 3.1-1 53.1 11.4 97.7.3-.1.6-.1.9-.1.5-.1 1-.3 1.5-.4.7-.3 1.3-.4 2-.6.6-.1 1.1-.3 1.7-.4.7-.3 1.5-.5 2.2-.6.8-.3 1.7-.5 2.5-.6.7-.2 1.4-.4 2.1-.5.8-.3 1.6-.4 2.3-.7-2.8-10.6-4.8-21.6-6.1-31.9-1.1-8.3-1.8-16.2-2.2-23.1-1-14.4-.8-24.7-.8-25.9 38.4-12.2 53-19.7 59.6-23.5 6.6 3.7 21.2 11.3 59.6 23.4 0 2.4.7 42.9-8.8 79.2 3.5-.1 6.6.9 9.5 3 1.1.6 2 1 2.9 1.7l.4.3 1.8.9c12.5-44.5 11.6-94.7 11.6-97.8C104.4 14.6 85.6 4.8 77 0 68.5 4.8 49.7 14.5 0 30.3z"/>
    <path d="M22.5 130.4c4.6 15.5 10.8 29.9 19.2 40.7 19.4 24.8 51.4 24.8 70.8 0 8.4-10.8 14.6-25.2 19.2-40.7-34.4-12-75-12-109.2 0zm127.2-9.1l-1.7 6.4c-5.2 19.7-12.7 38.6-23.7 52.7-25.4 32.5-69.1 32.5-94.5 0-11-14.1-18.6-32.9-23.7-52.7l-1.7-6.4c50.2-20.2 95.3-20.1 145.3 0z"/>
    <path d="M131.3 140l.2.1h.1l.1.1h.1l.1.1h.1l.1.1h.1l.1.1h.2l.1.1h.1l.1.1h.1l.1.1h.2l.1.1h.1l.1.1h.1l.1.1h.1l.1.1h.1l.1.1h.1l.1.1h.2l.1.1h.1l.1.1h.1l.1.1h.1l.1.1h.1l.1.1h.1l.1.1h.1c-1 2.4-1.4 5.1-1 7.6l-.1-.1-.2-.1H133l-.1-.1h-.1l-.1-.1-.1-.1-.2-.1h-.1l-.1-.1h-.1l-.2-.1-.1-.1h.2l-.1-.1-.2-.1-.1-.1h-.1l-.1-.1h-.1l-.1-.1c-8.7-3-17.7-5.3-26.8-6.8l.8-7.5c9 1.3 17.7 3.4 26.1 6.1zm-36.7-.2c-11.7-1.3-23.5-1.3-35.2-.3l-.8-7.5c12.2-1.1 24.6-1 36.7.3l-.7 7.5zm-45.1.9c-8.3 1.3-16.4 3.1-24.3 5.5H25l-.1.1h.1-.1l-.1.1H24.5v.1H24.2l-.1.1h-.2l-.1.1h-.2l-.1.1h-.2l-.1.1h.8l-.1.1H23.6v.1H23l-.1.1h-.2v.1H22.4l-.1.1c-.6-2.5-1.7-4.9-3.4-6.8h.2v-.6H20.3v-.1H20.6v-.1H20.9v-.1H21.2v-.1H21.5v-.1H21.8v-.1H21h.1l.1-.1h.2l.1-.1h.2c8.8-2.9 18-5 27.4-6.3l.4 7.8z"/>
    <path d="M114.1 182.7c-3.2-.7-6.3-1.4-9.5-1.9l.8-7.5c5.2.9 10.5 2 15.6 3.3-.2.4-.4.9-.7 1.1-.6.4-1.2.9-1.7 1.5l-.3.2c-1.5.9-3 2-4.2 3.3zm-19.5-3.3c-11.7-1.3-23.5-1.3-35.2-.3l-.8-7.5c12.2-1.1 24.6-1 36.7.3l-.7 7.5zm-45.1 1c-3.7.6-7.3 1.2-10.9 2-.3-1-.9-2.3-1.4-3.2-.5-1.1-1.1-2.1-1.8-3-.2-.2-.3-.4-.4-.6 4.5-1.1 9.1-1.9 13.8-2.6l.7 7.4z"/>
    <path d="M82.1 151.3c15.7.4 31.6 2.8 46.7 7.3-1.7 1.9-2.9 4.3-3.5 6.8-14-4.1-28.6-6.2-43.2-6.6v-7.5zM31 157.2c13.4-3.6 27.5-5.5 41-5.8v7.5c-13.2.4-26.5 2.2-39.3 5.6 0-2.7-.6-4.9-1.7-7.3z"/>
    <path d="M35.9 91.8l-9.6-9.6 23.9-23.8 23.9 23.8-9.6 9.6-14.3-14.3z"/>
    <path d="M90.1 91.8l-9.6-9.6 23.9-23.8 23.9 23.8-9.6 9.6-14.3-14.3z"/>
</symbol><symbol id="icon-face_4" viewBox="0 0 231.1 198.4">
    <style>
        .st0{fill-rule:evenodd;clip-rule:evenodd;fill:#2c302d}
    </style>
    <path d="M38.2 30.5c0 .8-.1 4.3 0 9.8C28 43.5 20.3 51.8 18 62.3L0 65.6l1.2 6.2C2.8 80.9 7.6 89 14.8 94.9L3.6 106.6l4.6 4.3c7.8 7.5 17.9 11.1 28 10.9 3.8-.1 7.6-.8 11.2-1.9 9.6 40.2 29 78.7 68.2 78.6 39.3.1 58.6-38.4 68.2-78.6 3.6 1.2 7.4 1.8 11.2 1.9 10.1.2 20.2-3.4 28.1-10.9l4.6-4.3L216.5 95c7.2-5.9 11.9-14 13.7-23.2l1.1-6.2-18-3.3c-2.3-10.5-10.1-18.8-20.2-21.9.1-5.6.1-9.1.1-9.8-50.1-16-69.1-25.8-77.7-30.6C107 4.8 88 14.6 38.2 30.5zm.4 23.3c.7 14.3 2.3 33.8 6.1 53.6-7.4 2.8-15.8 2.2-22.8-1.8l12.8-13.5-7.4-3.8c-5.3-2.8-9.6-7.3-12-12.8l9.3-1.7 4.9-.9.3-5c.4-6 3.8-11.3 8.8-14.1zm147.7 53.6c3.8-19.9 5.5-39.3 6.1-53.6 5.1 2.8 8.5 8.2 8.7 14.1l.3 5 14.3 2.6c-2.4 5.5-6.7 9.9-12 12.8l-7.4 3.8 12.8 13.5c-7.1 4.1-15.5 4.6-22.8 1.8zm-84.4 28.4c0 3.8 1.5 7.2 4 9.6 2.5 2.4 5.9 4 9.6 4 3.8 0 7.2-1.6 9.7-4 2.4-2.5 3.9-5.9 3.9-9.6h12.6c0 7.3-2.9 13.8-7.7 18.5-4.8 4.7-11.3 7.7-18.6 7.7-7.2 0-13.8-3-18.6-7.7-4.8-4.7-7.7-11.3-7.7-18.5h12.8zm13.6-62.5c2.3 0 4.5.3 6.6.9 1-1.7 2.2-3.2 3.6-4.6 4.3-4.4 10.4-7.1 17.1-7.1s12.7 2.7 17.1 7.1C164.3 74 167 80 167 86.7c0 6.7-2.7 12.7-7.1 17.1-4.4 4.4-10.5 7.1-17.1 7.1s-12.7-2.7-17.1-7.1c-4.3-4.2-6.9-10-7.1-16.4-2-.6-4.1-.6-6.2 0-.2 6.4-2.8 12.2-7.1 16.4-4.4 4.4-10.5 7.1-17.1 7.1s-12.7-2.7-17.1-7.1C66.7 99.4 64 93.3 64 86.7c0-6.7 2.7-12.7 7.1-17.1 4.3-4.4 10.4-7.1 17.1-7.1s12.7 2.7 17.1 7.1c1.4 1.4 2.6 2.9 3.6 4.6 2.2-.6 4.4-.9 6.6-.9zm-19.8 5.9c-1.9-1.9-4.6-3.1-7.5-3.1-2.9 0-5.6 1.2-7.5 3.1-1.9 1.9-3.1 4.5-3.1 7.5 0 2.9 1.2 5.6 3.1 7.4 1.9 1.9 4.6 3.1 7.5 3.1 2.9 0 5.6-1.2 7.5-3.1 1.9-1.9 3.1-4.5 3.1-7.4 0-3-1.2-5.6-3.1-7.5zm54.6 0c-1.9-1.9-4.6-3.1-7.5-3.1s-5.6 1.2-7.5 3.1c-1.9 1.9-3.1 4.5-3.1 7.5 0 2.9 1.2 5.6 3.1 7.4 1.9 1.9 4.6 3.1 7.5 3.1s5.6-1.2 7.5-3.1c1.9-1.9 3.1-4.5 3.1-7.4 0-3-1.2-5.6-3.1-7.5zM55.7 43.3c38.6-12.2 53.2-19.8 59.8-23.6 6.6 3.7 21.3 11.3 59.9 23.6 0 4.4 2.4 137.5-59.9 137.4-37.8.1-51.7-48.7-56.9-88.2-1.1-8.3-1.8-16.3-2.3-23.2-.8-14.5-.6-24.9-.6-26z"/>
</symbol><symbol id="icon-face_5" viewBox="0 0 203 227.8">
    <style>
        .st0{fill-rule:evenodd;clip-rule:evenodd}.st0,.st1{fill:#2c302d}
    </style>
    <path d="M155.5 89.3c.1 14.2-.6 122.6-54 122.5-53.4.1-54.1-108.3-54-122.5H31.8c1.1 36.8 9.1 138.6 69.7 138.5 60.5.1 68.6-101.6 69.7-138.5h-15.7z"/>
    <path d="M102.2 182.5c-6.8 0-12.4-5.6-12.4-12.4v-.4H77.2v.4c0 13.8 11.2 25 25 25s25-11.2 25-25v-.4h-12.6v.4c0 6.8-5.5 12.4-12.4 12.4z"/>
    <path d="M107.9 119.5h35v12.1h-35z"/>
    <path d="M40.5 153.6l8.6 8.6 25.6-25.6c-1.1-.6-2.2-1.3-3.1-2.2l-1.6-1.6c-1.5-1.6-2.6-3.5-3.1-5.4l-26.4 26.2zm50.6-33.3l29.1-29.1-8.6-8.6-29.9 29.8c2 .6 3.8 1.6 5.4 3.1l1.6 1.7c1 .9 1.8 1.9 2.4 3.1z"/>
    <path d="M168.1 81c.1 0 18.1 1 20-18.2-8.9 4.2-20.9 4-29.2-18.9-3.8-10.6-14.9-19.5-24.5-24.7-.3 17.9-14.9 32.2-32.8 32.2s-32.5-14.2-32.8-32C58.5 24.8 48.3 32.8 44.2 44 35.9 66.8 23.9 67 15 62.9c1.9 19.2 19.9 18.2 20 18.2l133.1-.1zm33.6-33.2c9.3 50.2-34 47.8-34.3 47.8l-131.8.1S-8.1 98.3 1.3 47.9l12.6-3.5c.1.1 10.3 11.8 16.5-5.1C37.5 19.4 57.3 7 76.3.3l8.9 10.2c-6 11.8 2.4 26.4 16.3 26.4s22.3-14.8 16.1-26.6L126.4 0c18.4 6.2 39.3 20 46.2 39 6.1 17 16.4 5.2 16.5 5.1l12.6 3.7z"/>
    <path d="M78.5 105.5c-10.7 0-19.4 8.6-19.4 19.4 0 10.6 8.7 19.4 19.4 19.4s19.4-8.7 19.4-19.4c0-10.8-8.6-19.4-19.4-19.4zm-6.1 19.3c0-3.4 2.8-6.1 6.1-6.1 3.4 0 6.1 2.7 6.1 6.1 0 3.4-2.7 6.1-6.1 6.1-3.3 0-6.1-2.7-6.1-6.1z"/>
    <path d="M101.5 59.3c-3.4 0-6.2 2.7-6.2 6.1 0 3.4 2.8 6.1 6.2 6.1 3.4 0 6.1-2.7 6.1-6.1.1-3.4-2.7-6.1-6.1-6.1z"/>
</symbol><symbol id="icon-face_6" viewBox="0 0 154.7 205.6">
    <style>
        .st0{fill-rule:evenodd;clip-rule:evenodd}.st0,.st1{fill:#2c302d}
    </style>
    <path d="M0 30.4c0 3.1-1 53.3 11.5 98 .3 0 .6-.1.9-.1.5-.1 1-.3 1.5-.4.7-.3 1.3-.4 2-.5.6-.1 1.1-.3 1.7-.4.8-.3 1.5-.5 2.2-.7.8-.3 1.7-.5 2.5-.7.7-.2 1.5-.4 2.2-.5.8-.3 1.6-.5 2.3-.7-2.8-10.6-4.8-21.7-6.2-32.1-1.1-8.3-1.8-16.2-2.3-23.2-.9-14.5-.7-24.8-.7-26 38.5-12.2 53.2-19.8 59.8-23.5 6.6 3.7 21.3 11.3 59.8 23.5 0 2.4.7 43.1-8.8 79.6 3.5 0 6.7.9 9.5 3 1.1.5 2 1 2.9 1.7l.5.3 1.8.9c12.6-44.7 11.7-95.1 11.7-98.2C104.8 14.6 85.9 4.8 77.3 0 68.8 4.8 49.8 14.6 0 30.4z"/>
    <path d="M22.5 130.9c4.6 15.6 10.8 30 19.3 40.9 19.4 24.9 51.6 24.9 71 0 8.4-10.8 14.7-25.3 19.3-40.9-34.4-12-75.2-12-109.6 0zm127.7-9.1l-1.7 6.4c-5.2 19.8-12.8 38.7-23.8 52.9-25.5 32.7-69.3 32.7-94.8 0-11.1-14.2-18.6-33.1-23.8-52.9l-1.7-6.4c50.4-20.3 95.7-20.2 145.8 0z"/>
    <path d="M77.6 131.7c21.2 0 41.3 3.5 59 9.8-1 2.4-1.4 5-1.1 7.7-17.3-6.3-37-9.9-57.9-9.9-18.9 0-36.8 2.9-52.8 8.1-.5-2.5-1.7-4.9-3.4-6.8 17-5.7 36.1-8.9 56.2-8.9z"/>
    <path d="M77.6 151.9c18.2 0 35.6 2.6 51.3 7.3-1.8 1.9-3.1 4.2-3.8 6.8-14.6-4.2-30.7-6.5-47.6-6.5-17.3 0-33.7 2.4-48.7 6.8-1-2.5-2.7-4.7-4.8-6.4 16.4-5.1 34.5-8 53.6-8z"/>
    <path d="M77.6 171.5c14.3 0 28.1 1.6 41 4.6-1.7 2-2.8 4.4-3.2 7-11.9-2.6-24.5-4-37.7-4-11.2 0-22.1 1-32.4 3-1.3-2.7-3.3-5-5.8-6.5 12-2.6 24.8-4.1 38.1-4.1z"/>
    <path d="M51 55.9c-11.2 0-20.2 9-20.2 20.2s9 20.2 20.2 20.2 20.2-9 20.2-20.2-9-20.2-20.2-20.2zm-6.4 20.2c0-3.5 2.9-6.4 6.4-6.4 3.5 0 6.4 2.9 6.4 6.4s-2.9 6.4-6.4 6.4-6.4-2.9-6.4-6.4z"/>
    <path d="M103.6 55.9c-11.2 0-20.2 9-20.2 20.2s9 20.2 20.2 20.2 20.2-9 20.2-20.2-9.1-20.2-20.2-20.2zm-6.4 20.2c0-3.5 2.9-6.4 6.4-6.4 3.5 0 6.4 2.9 6.4 6.4s-2.9 6.4-6.4 6.4c-3.6 0-6.4-2.9-6.4-6.4z"/>
</symbol><symbol id="icon-face_7" viewBox="0 0 161.2 197.3">
    <style>
        .st0{fill-rule:evenodd;clip-rule:evenodd;fill:#2c302d}
    </style>
    <path d="M81.3 145c-7.6 0-13.7-6.1-13.7-13.7v-.4h-14v.4c0 15.2 12.4 27.6 27.6 27.6s27.6-12.4 27.6-27.6v-.4h-14c.1.1.1.3.1.4 0 7.5-6.1 13.7-13.6 13.7z"/>
    <path d="M40.9 61.7l-9.5 9.4 23.7 23.6 23.7-23.6-9.5-9.4-14.2 14.1z"/>
    <path d="M94.6 61.7l-9.5 9.4 23.7 23.6 23.7-23.6-9.5-9.4-14.2 14.1z"/>
    <path d="M20.9 43.1c38.3-12.2 52.9-19.7 59.5-23.5 6.6 3.7 21.1 11.3 59.5 23.5 0 4.3 2.4 136.7-59.5 136.6-61.9.1-59.5-132.3-59.5-136.6zm59.5 154.2c80.1.2 76.9-161.4 76.9-166.9C107.8 14.5 88.9 4.8 80.4 0 71.9 4.8 53.1 14.5 3.5 30.3c0 5.6-3.1 167.1 76.9 167z"/>
    <path d="M20.9 43.1c38.3-12.2 52.9-19.7 59.5-23.5 6.6 3.7 21.1 11.3 59.5 23.5 0 4.3 2.4 136.7-59.5 136.6-61.9.1-59.5-132.3-59.5-136.6zm59.5 154.2c80.1.2 76.9-161.4 76.9-166.9C107.8 14.5 88.9 4.8 80.4 0 71.9 4.8 53.1 14.5 3.5 30.3c0 5.6-3.1 167.1 76.9 167z"/>
    <path d="M81.3 145c-7.6 0-13.7-6.1-13.7-13.7v-.4h-14v.4c0 15.2 12.4 27.6 27.6 27.6s27.6-12.4 27.6-27.6v-.4h-14c.1.1.1.3.1.4 0 7.5-6.1 13.7-13.6 13.7z"/>
    <path d="M28.1 151h-14v12.8c0 7.5-6.1 13.7-13.7 13.7H0v13.9h.4c15.3 0 27.6-12.4 27.6-27.6l.1-12.8z"/>
    <path d="M28.1 119.8h-14v20.3c0 7.6-6.1 13.7-13.7 13.7H0v13.9h.4c15.3 0 27.6-12.4 27.6-27.6l.1-20.3z"/>
    <path d="M133.1 151H147v12.8c0 7.5 6.1 13.7 13.7 13.7h.4v13.9h-.4c-15.3 0-27.6-12.4-27.6-27.6V151z"/>
    <path d="M133.1 117.9H147v22.2c0 7.6 6.1 13.7 13.7 13.7h.4v13.9h-.4c-15.3 0-27.6-12.4-27.6-27.6v-22.2z"/>
</symbol><symbol id="icon-face_8" viewBox="0 0 157.4 201.7">
    <style>
        .st0{fill-rule:evenodd;clip-rule:evenodd;fill:#2c302d}
    </style>
    <path d="M116.4 94.4l-9.7 9.7-24.2-24.2 24.2-24.1 9.7 9.7-14.5 14.4z"/>
    <path d="M69.1 94.4l-9.7 9.7-24.2-24.2 24.2-24.1 9.7 9.7-14.5 14.4z"/>
    <path d="M17.8 44C57.1 31.6 72 23.9 78.7 20c6.8 3.8 21.7 11.5 60.9 24 0 4.4 2.5 139.8-60.9 139.7-63.3.1-60.9-135.3-60.9-139.7zm60.9 157.7c81.9.2 78.7-165 78.7-170.7-50.7-16.1-70-26.1-78.7-31C70 4.9 50.8 14.9 0 31c0 5.7-3.2 170.9 78.7 170.7z"/>
    <path d="M78.9 121.5c-11.3 0-20.4 9.1-20.4 20.4 0 11.3 9.1 20.3 20.4 20.3 11.3 0 20.4-9.1 20.4-20.4 0-11.1-9.1-20.3-20.4-20.3zm-6.5 20.4c0-3.5 2.9-6.4 6.5-6.4s6.5 2.9 6.5 6.4c0 3.6-2.9 6.4-6.5 6.4-3.5 0-6.5-2.8-6.5-6.4z"/>
</symbol><symbol id="icon-face_9" viewBox="0 0 152.5 202.7">
    <style>
        .st0{fill-rule:evenodd;clip-rule:evenodd}.st0,.st1{fill:#2c302d}
    </style>
    <path d="M0 30c0 3-.9 52.6 11.3 96.6.3 0 .6-.1.9-.2.5-.2 1-.3 1.5-.4.6-.3 1.3-.4 1.9-.5.6-.2 1.1-.3 1.6-.4.8-.3 1.4-.5 2.2-.7.8-.3 1.6-.5 2.4-.7.7-.2 1.4-.4 2.1-.5.8-.3 1.5-.5 2.3-.7-2.8-10.5-4.8-21.4-6.1-31.6-1.1-8.2-1.7-16-2.2-22.8-.9-14.3-.8-24.4-.7-25.6 38-12 52.4-19.5 58.9-23.2 6.5 3.7 21 11.2 59 23.2 0 2.3.6 42.5-8.7 78.4 3.4 0 6.6.9 9.4 2.9 1 .5 1.9 1 2.9 1.6l.5.3 1.8.9c12.3-44.1 11.5-93.7 11.5-96.8C103.3 14.4 84.6 4.8 76.2 0 67.8 4.8 49.1 14.4 0 30z"/>
    <path d="M22.2 129.1c4.5 15.3 10.6 29.6 19 40.3 19.2 24.5 50.9 24.5 70.1 0 8.3-10.7 14.5-24.9 19-40.3-34-11.9-74.2-11.9-108.1 0zm125.9-9l-1.6 6.3c-5.1 19.5-12.6 38.2-23.5 52.1-25.1 32.2-68.3 32.2-93.5 0-10.9-14-18.4-32.6-23.5-52.1l-1.6-6.3c49.6-20 94.3-19.9 143.7 0z"/>
    <path d="M76.2 137.5c2.1 0 3.9-1.7 3.9-3.9s-1.7-3.9-3.9-3.9-3.9 1.7-3.9 3.9 1.8 3.9 3.9 3.9z"/>
    <path d="M76.2 157.3c2.1 0 3.9-1.7 3.9-3.9s-1.7-3.9-3.9-3.9-3.9 1.7-3.9 3.9 1.8 3.9 3.9 3.9z"/>
    <path d="M76.2 177.2c2.1 0 3.9-1.7 3.9-3.9s-1.7-3.9-3.9-3.9-3.9 1.7-3.9 3.9 1.8 3.9 3.9 3.9z"/>
    <path d="M93.1 138.3c2.1 0 3.9-1.7 3.9-3.9s-1.7-3.9-3.9-3.9-3.9 1.7-3.9 3.9 1.7 3.9 3.9 3.9z"/>
    <path d="M93.1 158.1c2.1 0 3.9-1.7 3.9-3.9s-1.7-3.9-3.9-3.9-3.9 1.7-3.9 3.9 1.7 3.9 3.9 3.9z"/>
    <path d="M93.1 178c2.1 0 3.9-1.7 3.9-3.9s-1.7-3.9-3.9-3.9-3.9 1.7-3.9 3.9 1.7 3.9 3.9 3.9z"/>
    <path d="M124.7 144.3c2.1 0 3.9-1.7 3.9-3.9s-1.7-3.9-3.9-3.9-3.9 1.8-3.9 3.9 1.8 3.9 3.9 3.9z"/>
    <path d="M109.3 140.5c2.1 0 3.9-1.7 3.9-3.9s-1.7-3.9-3.9-3.9-3.9 1.7-3.9 3.9 1.8 3.9 3.9 3.9z"/>
    <path d="M109.3 160.4c2.1 0 3.9-1.7 3.9-3.9s-1.7-3.9-3.9-3.9-3.9 1.7-3.9 3.9 1.8 3.9 3.9 3.9z"/>
    <path d="M109.3 180.3c2.1 0 3.9-1.7 3.9-3.9s-1.7-3.9-3.9-3.9-3.9 1.7-3.9 3.9 1.8 3.9 3.9 3.9z"/>
    <path d="M59.3 138.3c2.1 0 3.9-1.7 3.9-3.9s-1.7-3.9-3.9-3.9c-2.1 0-3.9 1.7-3.9 3.9s1.8 3.9 3.9 3.9z"/>
    <path d="M59.3 158.1c2.1 0 3.9-1.7 3.9-3.9s-1.7-3.9-3.9-3.9c-2.1 0-3.9 1.7-3.9 3.9.1 2.2 1.8 3.9 3.9 3.9z"/>
    <path d="M59.3 178c2.1 0 3.9-1.7 3.9-3.9s-1.7-3.9-3.9-3.9c-2.1 0-3.9 1.7-3.9 3.9.1 2.2 1.8 3.9 3.9 3.9z"/>
    <path d="M43.1 140.5c2.1 0 3.9-1.7 3.9-3.9s-1.7-3.9-3.9-3.9-3.9 1.7-3.9 3.9 1.8 3.9 3.9 3.9z"/>
    <path d="M43.1 160.4c2.1 0 3.9-1.7 3.9-3.9s-1.7-3.9-3.9-3.9-3.9 1.7-3.9 3.9 1.8 3.9 3.9 3.9z"/>
    <path d="M43.1 180.3c2.1 0 3.9-1.7 3.9-3.9s-1.7-3.9-3.9-3.9-3.9 1.7-3.9 3.9c0 2.1 1.8 3.9 3.9 3.9z"/>
    <path d="M27.7 144.3c2.1 0 3.9-1.8 3.9-3.9s-1.8-3.9-3.9-3.9c-2.1 0-3.9 1.7-3.9 3.9s1.8 3.9 3.9 3.9z"/>
    <path d="M50.4 55.2C39.5 55.2 30.6 64 30.6 75c0 10.9 8.9 19.7 19.8 19.7.9 0 1.7 0 2.6-.2C62.7 93.2 70.2 85 70.2 75c0-10.3-7.9-18.8-18-19.7-.7-.1-1.2-.1-1.8-.1zm0 13.5c3.4 0 6.3 2.8 6.3 6.3 0 3.4-2.8 6.2-6.3 6.2-3.4 0-6.3-2.8-6.3-6.2 0-3.5 2.8-6.3 6.3-6.3z"/>
    <path d="M82.7 83.9l9.5 9.5 8.9-8.9 8.9 8.9 9.5-9.5-8.9-8.9 8.9-8.8-9.5-9.5-8.9 8.9-8.9-8.9-9.5 9.5 8.9 8.8z"/>
</symbol><symbol id="icon-fb copy" viewBox="0 0 32 32">
    <path d="M16 3.2C8.93 3.2 3.2 8.965 3.2 16.078c0 6.426 4.675 11.751 10.794 12.721v-8.996h-3.248v-3.725h3.248V13.24c0-3.225 1.908-5.01 4.832-5.01h.008c1.402 0 2.868.255 2.868.255v3.168h-1.613c-1.592 0-2.083.995-2.083 2.01v2.414h3.549l-.568 3.725h-2.981V28.8c6.116-.967 10.794-6.294 10.794-12.722C28.8 8.965 23.07 3.2 16 3.2z"/>
</symbol><symbol id="icon-fb" viewBox="0 0 6 12">
    
    <path id="fb" d="M1219.3 43.323v1.651h-1.3V47h1.3v6h2.66v-6h1.79s.17-.969.25-2.028h-2.03v-1.385a.614.614 0 0 1 .58-.484h1.45V41h-1.97c-2.8 0-2.73 2.021-2.73 2.323z" transform="translate(-1218 -41)"/>
</symbol><symbol id="icon-feature_1" viewBox="0 0 53 51">
    <style>
        .st0{fill:#00fc82}
    </style>
    <path d="M25.107 7.13C23.379 1.265 18.223-.596 14.159.159c-3.705.689-7.237 3.71-7.068 8.92-2.611 1.535-4.743 5.016-3.633 8.609.019.061.054.112.083.166-.695.479-1.313 1.038-1.806 1.697-1.913 2.556-2.273 6.256-.94 9.656a10.939 10.939 0 0 0 2.441 3.755C.838 35.88 1.194 38.372 1.65 39.64c.804 2.237 3.039 3.972 5.562 4.316a6.5 6.5 0 0 0 .893.062c.019 0 .036-.003.055-.003C9.35 47.459 10.597 51 15.657 51l.141-.001c3.048-.039 7.203-.702 8.079-5.991.005-.03-.005-.057-.003-.086a.995.995 0 0 0 .079-.337l.034-1.008c.421-12.18.538-19.755-2.249-21.918l-.029-.02c3.319-3.344 4.558-10.575 3.398-14.509zM7.412 11.309a8.748 8.748 0 0 0 2.758 4.407c-1.631.133-3.328.497-4.841 1.152-.583-2.287.68-4.394 2.083-5.559zm14.561 32.199l-.035 1.009c0 .008.004.014.004.021-.016.049-.045.09-.054.142-.505 3.052-2.22 4.26-6.116 4.309-3.487.041-4.405-1.903-5.611-5.356a5.09 5.09 0 0 0 2.308-1.808 1 1 0 0 0-.24-1.4 1.01 1.01 0 0 0-1.405.239c-.991 1.394-2.517 1.415-3.338 1.302-1.77-.242-3.389-1.477-3.938-3.003-.528-1.47-.086-3.095 1.256-4.727a8.413 8.413 0 0 0 3.003 1.216 1.008 1.008 0 0 0 1.177-.802 1.005 1.005 0 0 0-.805-1.172c-2.394-.447-4.452-2.317-5.505-5.002-1.082-2.76-.822-5.72.679-7.725 2.014-2.691 7.597-3.697 11.055-2.766.053.014.105.004.157.01.078.008.156.024.231.014.043-.005.08-.026.121-.037.084-.022.169-.041.245-.083.042-.023.072-.06.11-.089.064-.049.131-.093.182-.156.038-.047.058-.108.088-.163.031-.058.073-.108.093-.173.002-.005 0-.01.001-.016.001-.005.005-.009.007-.014.016-.061.007-.12.012-.18.006-.068.021-.137.013-.203-.008-.064-.036-.12-.056-.18-.02-.062-.031-.127-.063-.184-.031-.055-.078-.097-.118-.145-.042-.051-.077-.107-.129-.149-.05-.04-.114-.062-.173-.093-.056-.029-.103-.07-.166-.089-2.027-.612-5.481-2.279-5.839-6.56-.387-4.62 2.67-6.853 5.405-7.361 3.2-.596 7.268.892 8.644 5.562 1.128 3.827-.621 12.115-4.328 13.53-.051.02-.087.058-.134.084-.059.034-.119.063-.169.107-.049.043-.084.095-.123.147-.039.051-.081.098-.11.156-.029.057-.041.119-.058.181s-.038.121-.043.187c-.005.066.008.131.016.198.006.053-.002.105.013.157.004.014.015.024.02.038.005.014.002.028.007.042.039.101.092.191.156.271l.016.015c.072.085.158.153.251.21.031.019.064.031.097.046a.979.979 0 0 0 .237.076c.037.007.071.014.109.016.025.002.049.011.074.011.055 0 .11-.021.165-.031.039-.006.076.002.115-.009.558-.16.834-.023 1.013.115 2.119 1.644 1.792 11.11 1.476 20.265z"/>
    <path d="M9.782 22.605a1.006 1.006 0 0 0-.98 1.031c.015.555.478 1.015 1.035.976 1.16-.033 2.127.373 2.865 1.203 1.188 1.334 1.604 3.571 1.392 4.998a1.006 1.006 0 0 0 .998 1.152c.491 0 .921-.358.996-.857.277-1.864-.193-4.733-1.879-6.626-1.135-1.276-2.671-1.931-4.427-1.877z"/>
    <path d="M51.264 19.552c-.493-.659-1.111-1.219-1.806-1.698.029-.055.064-.105.083-.166 1.11-3.593-1.022-7.074-3.633-8.609.17-5.211-3.362-8.232-7.068-8.92-4.064-.753-9.219 1.105-10.948 6.971-1.159 3.934.079 11.165 3.398 14.509l-.029.02c-2.787 2.163-2.67 9.737-2.25 21.915l.035 1.012c.004.12.036.231.079.337.002.029-.008.056-.003.086.877 5.288 5.031 5.952 8.08 5.991h.141c5.059 0 6.307-3.542 7.497-6.984.018 0 .036.003.055.003.291 0 .59-.02.893-.062 2.523-.345 4.758-2.079 5.562-4.316.455-1.267.812-3.76-1.586-6.678a10.953 10.953 0 0 0 2.441-3.755c1.332-3.4.972-7.1-.941-9.656zm-3.592-2.685c-1.513-.655-3.21-1.019-4.841-1.152a8.755 8.755 0 0 0 2.757-4.406c1.403 1.164 2.666 3.272 2.084 5.558zm2.654 11.611c-1.053 2.685-3.11 4.555-5.505 5.002a1.004 1.004 0 1 0 .372 1.974 8.446 8.446 0 0 0 3.003-1.216c1.343 1.632 1.785 3.257 1.256 4.727-.548 1.527-2.167 2.761-3.938 3.003-.821.113-2.347.093-3.338-1.302a1.01 1.01 0 0 0-1.405-.239c-.454.32-.562.947-.24 1.4a5.093 5.093 0 0 0 2.307 1.808c-1.206 3.454-2.139 5.424-5.61 5.356-3.895-.05-5.611-1.258-6.116-4.309-.009-.052-.038-.093-.054-.142 0-.008.004-.014.004-.022l-.035-1.012c-.316-9.153-.643-18.618 1.474-20.261.179-.138.456-.275 1.013-.115.039.011.076.003.115.009.055.009.11.031.165.031.025 0 .049-.009.074-.011.037-.003.071-.01.108-.016.084-.016.163-.041.24-.077.032-.015.064-.027.095-.045.095-.057.181-.125.254-.211l.015-.014c.064-.08.118-.17.157-.271.005-.014.002-.028.007-.042.005-.014.016-.024.02-.038.015-.053.007-.105.013-.157.008-.067.022-.132.016-.198-.005-.066-.026-.125-.043-.187-.017-.062-.03-.123-.058-.18-.029-.058-.071-.105-.11-.156-.039-.051-.074-.103-.123-.147-.05-.044-.11-.073-.169-.107-.046-.027-.082-.065-.133-.084-3.707-1.415-5.456-9.703-4.328-13.53 1.376-4.67 5.443-6.156 8.644-5.562 2.735.508 5.792 2.741 5.405 7.361-.358 4.281-3.812 5.948-5.839 6.56-.063.019-.11.06-.166.089-.058.031-.123.052-.173.093-.052.042-.087.098-.129.149-.04.048-.088.09-.118.145-.032.057-.043.122-.063.184-.02.06-.048.117-.056.18-.008.067.008.135.013.203.005.06-.005.119.012.18.001.005.005.009.007.014l.001.016c.018.06.058.105.086.158.032.061.055.127.097.18.038.046.088.076.133.115.054.046.101.098.163.132.049.027.106.035.159.054.069.024.134.055.207.064.063.008.127-.008.191-.012s.127.005.192-.012c3.457-.929 9.041.075 11.055 2.766 1.498 2.002 1.759 4.962.676 7.722z"/>
    <path d="M43.218 22.605c-1.775-.053-3.292.601-4.428 1.877-1.686 1.893-2.155 4.762-1.879 6.626a1.006 1.006 0 0 0 1.145.846c.551-.081.931-.592.849-1.141-.212-1.427.204-3.664 1.392-4.998.739-.83 1.7-1.238 2.865-1.203a1.021 1.021 0 0 0 1.035-.976 1.005 1.005 0 0 0-.979-1.031z"/>
</symbol><symbol id="icon-feature_2" viewBox="0 0 67 51">
    <style>
        .st0{fill:#00fc82}
    </style>
    <path d="M57.282 7.654c-.892 0-1.615.728-1.615 1.626s.723 1.626 1.615 1.626 1.614-.728 1.614-1.626-.722-1.626-1.614-1.626z"/>
    <path d="M52.523 7.654c-.892 0-1.615.728-1.615 1.626s.723 1.626 1.615 1.626 1.614-.728 1.614-1.626-.722-1.626-1.614-1.626z"/>
    <path d="M47.765 7.654c-.892 0-1.615.728-1.615 1.626s.723 1.626 1.615 1.626 1.614-.728 1.614-1.626-.723-1.626-1.614-1.626z"/>
    <path d="M58.109 0h-12.21c-4.902 0-8.891 4.017-8.891 8.953 0 1.354.308 2.696.893 3.91l-2.596 7.95c-.134.411.007.862.35 1.122a1 1 0 0 0 1.167.027l6.482-4.452c.85.264 1.721.397 2.596.397h12.21c4.902 0 8.891-4.017 8.891-8.953S63.011 0 58.109 0zm0 15.889h-12.21a6.822 6.822 0 0 1-2.398-.442 1.004 1.004 0 0 0-.914.112L38.13 18.62l1.806-5.529c.087-.266.06-.556-.074-.801a6.978 6.978 0 0 1-.85-3.337c0-3.824 3.09-6.936 6.888-6.936h12.21c3.798 0 6.888 3.111 6.888 6.936s-3.091 6.936-6.889 6.936z"/>
    <path d="M20.534 24.024c.024.003.043.015.067.016.282.011.559.016.832.016 6.425 0 10.426-2.945 11.571-5.973.555-1.467.335-2.848-.575-3.602-.913-.758-1.928-.726-2.783-.43v-3.074c.05-4.959-3.195-7.981-8.679-8.085-.022 0-.038.01-.059.011-.022-.001-.039-.012-.061-.011-5.484.104-8.729 3.126-8.678 8.15v2.779a3.032 3.032 0 0 0-.915-.224 2.613 2.613 0 0 0-1.92.673c-.907.801-1.126 2.222-.569 3.708 1.018 2.72 4.712 5.87 11.769 6.046zm.352-19.113c.008 0 .014-.005.022-.005.008 0 .014.005.022.005 5.598.106 6.741 3.347 6.713 6.133v4.059c0 .04.018.074.023.112-6.71 4.047-12.109.97-13.516.007.005-.041.024-.077.024-.119v-4.145c-.029-2.7 1.114-5.942 6.712-6.047zM10.655 15.788c.674-.594 1.741.605 1.76.626.02.023.048.033.069.054.021.021.032.048.056.068.05.041 3.405 2.704 8.349 2.704 2.491 0 5.385-.676 8.463-2.704.025-.016.038-.042.06-.06.023-.018.05-.024.072-.044.01-.009 1.028-.927 1.672-.393.181.15.231.654-.023 1.328-.635 1.678-3.532 4.729-9.924 4.662-.008 0-.014-.004-.022-.004h-.037c-6.889 0-9.847-2.988-10.509-4.756-.285-.759-.192-1.299.014-1.481z"/>
    <path d="M30.805 23.486a1.005 1.005 0 0 0-1.203-.754 1.01 1.01 0 0 0-.748 1.212c.191.826.288 1.682.288 2.546 0 5.435-3.829 9.857-8.537 9.857s-8.537-4.422-8.537-9.857c0-.921.11-1.832.327-2.708a1.001 1.001 0 1 0-1.944-.488 13.321 13.321 0 0 0-.386 3.196c0 6.548 4.728 11.875 10.54 11.875s10.54-5.327 10.54-11.875a13.38 13.38 0 0 0-.34-3.004z"/>
    <path d="M6.646 37.646C.357 39.821.013 44.562 0 44.821v5.17C0 50.548.449 51 1.002 51s1.002-.452 1.002-1.009l-.002-5.103c.011-.147.332-3.618 5.298-5.335 1.689-.59 4.937-1.769 4.937-1.769l-.68-1.898c-.001 0-3.233 1.174-4.911 1.76z"/>
    <path d="M35.119 37.647c-1.681-.587-4.913-1.761-4.914-1.761l-.68 1.898s3.248 1.179 4.977 1.782c5.461 1.653 5.271 5.022 5.262 5.153a1.16 1.16 0 0 0-.005.102v5.17c0 .557.449 1.009 1.002 1.009.553 0 1.002-.452 1.002-1.009v-5.134c.038-.63.074-5.177-6.644-7.21z"/>
    <path d="M16.068 43.161l3.804-2.128-3.804-2.002z"/>
    <path d="M25.7 43.161v-4.13l-3.804 2.002z"/>
</symbol><symbol id="icon-feature_3" viewBox="0 0 51 52">
    <style>
        .st0{fill:#00fc82}
    </style>
    <path d="M33.75 34.48v-2.188a1.01 1.01 0 0 0-1.009-1.008H11.683c-.557 0-1.009.451-1.009 1.008v11.061c0 4.082 3.146 8.647 7.357 8.647h8.362c3.193 0 5.618-2.357 6.713-5.244 3.822-.153 6.367-2.673 6.367-6.379 0-3.362-2.169-5.552-5.723-5.897zm-7.357 15.505h-8.362c-3.007 0-5.339-3.565-5.339-6.632V33.299h19.04v10.054c0 3.137-2.193 6.632-5.339 6.632zm7.251-5.296c.065-.445.105-.892.105-1.336v-6.851c1.693.207 3.705 1.047 3.705 3.875.001 2.407-1.44 3.993-3.81 4.312z"/>
    <path d="M41.927 0h-6.926c-5.003 0-9.073 4.065-9.073 9.061 0 .404.015 1.657.036 3.24.054 3.926.148 9.886.148 9.886a1.009 1.009 0 0 0 1.755.662l4.667-5.124c3.905.875 9.241.414 9.393.397 5.003 0 9.073-4.065 9.073-9.061S46.93 0 41.927 0zm-.09 16.111c-.057.005-5.796.501-9.378-.48a1.01 1.01 0 0 0-1.013.294l-3.357 3.685a4618.28 4618.28 0 0 1-.108-7.337 402.03 402.03 0 0 1-.036-3.212c0-3.885 3.165-7.046 7.056-7.046h6.926c3.89 0 7.056 3.161 7.056 7.046-.001 3.885-3.166 7.046-7.146 7.05z"/>
    <path d="M18.762 28.788a1.01 1.01 0 0 0 1.755-.662c.006-.387.149-9.488.149-10.62 0-4.147-3.379-7.521-7.532-7.521H7.532C3.379 9.985 0 13.359 0 17.506c0 4.145 3.375 7.518 7.435 7.518h.007c.191.017 4.44.385 7.619-.298l3.701 4.062zm-11.23-5.775c-3.041 0-5.514-2.47-5.514-5.506S4.491 12 7.532 12h5.602c3.041 0 5.514 2.47 5.514 5.506 0 .743-.066 5.153-.11 8.042l-2.387-2.621a1.01 1.01 0 0 0-1.013-.294c-2.86.784-7.471.387-7.606.38z"/>
    <path d="M43.835 4.772H32.568a1.008 1.008 0 1 0 0 2.016h11.266a1.008 1.008 0 1 0 .001-2.016z"/>
    <path d="M43.835 7.984H32.568a1.008 1.008 0 1 0 0 2.016h11.266a1.008 1.008 0 1 0 .001-2.016z"/>
    <path d="M15.69 15.75a1.01 1.01 0 0 0-1.009-1.008H5.6a1.008 1.008 0 1 0 0 2.016h9.08c.558 0 1.01-.451 1.01-1.008z"/>
    <path d="M15.69 18.962a1.01 1.01 0 0 0-1.009-1.008H9.762a1.008 1.008 0 1 0 0 2.016h4.919a1.01 1.01 0 0 0 1.009-1.008z"/>
    <path d="M37.81 11.195h-5.242a1.008 1.008 0 1 0 0 2.016h5.242a1.008 1.008 0 1 0 0-2.016z"/>
</symbol><symbol id="icon-gh" viewBox="0 0 21 20">
    
    <path id="&#x424;&#x438;&#x433;&#x443;&#x440;&#x430;_18_&#x43A;&#x43E;&#x43F;&#x438;&#x44F;_3" data-name="&#x424;&#x438;&#x433;&#x443;&#x440;&#x430; 18 &#x43A;&#x43E;&#x43F;&#x438;&#x44F; 3" d="M948.608 3359.02l-.211.02.1.17.191-.02-.085-.17m.49.01l.043.2.211.05-.042-.21-.212-.04m.813 1.3l-.127.02-.042.13.085.16a.252.252 0 0 0 .179.1.157.157 0 0 0 .117-.06l.021-.12-.084-.15-.149-.08m2.733.66c-.141.03-.205.08-.19.17l.084.14.148.02a.21.21 0 0 0 .191-.21.2.2 0 0 0-.233-.12m-.658 0a.173.173 0 0 0-.212.17c0 .1.061.14.184.14h.049a.2.2 0 0 0 .233-.19l-.064-.08-.19-.04m-1.4 0a.144.144 0 0 0-.152.12l.021.11.149.1h.169l.106-.15c.014-.07-.049-.12-.191-.16a.435.435 0 0 0-.1-.02m4.785-15.98a10.689 10.689 0 0 0-5.292 1.32 9.668 9.668 0 0 0-3.726 3.64 9.919 9.919 0 0 0-1.355 5.12 10.081 10.081 0 0 0 1.99 6.13 10.194 10.194 0 0 0 5.208 3.74.816.816 0 0 0 .209.03.488.488 0 0 0 .32-.11.545.545 0 0 0 .19-.42l-.042-2.52-.466.04a4.411 4.411 0 0 1-.714.06c-.117 0-.231-.01-.344-.01a3.164 3.164 0 0 1-1.228-.38 1.659 1.659 0 0 1-.8-.95l-.17-.33a2.993 2.993 0 0 0-.423-.66 2.024 2.024 0 0 0-.593-.53l-.212-.17a.361.361 0 0 1-.19-.31c.014-.1.176-.14.487-.14l.3.04a4.136 4.136 0 0 1 .635.29 2.16 2.16 0 0 1 .678.74c.009.02.018.03.027.05l-.07.01c-.056.02-.056.11 0 .25l.149.08h.105a.207.207 0 0 0 .034-.03 1.957 1.957 0 0 0 1.448.75 1.251 1.251 0 0 0 .273.02 2.776 2.776 0 0 0 1.124-.26 2.235 2.235 0 0 1 .678-1.41 11.844 11.844 0 0 1-2.287-.41 3.455 3.455 0 0 1-1.778-1.28 5.248 5.248 0 0 1-.677-2.89 3.167 3.167 0 0 1 .233-1.3 5.288 5.288 0 0 1 .741-1.14 2.291 2.291 0 0 1-.17-.95 3.779 3.779 0 0 1 .3-1.82 1.034 1.034 0 0 1 .263-.03 2.716 2.716 0 0 1 .88.2 9.7 9.7 0 0 1 1.228.58l.55.37a9.3 9.3 0 0 1 2.646-.37 9.745 9.745 0 0 1 2.689.37l.55-.37a11.84 11.84 0 0 1 1.185-.58 2.746 2.746 0 0 1 .9-.2 1.24 1.24 0 0 1 .285.03 4.6 4.6 0 0 1 .3 1.82 3.161 3.161 0 0 1-.211.99 4.9 4.9 0 0 1 .8 1.04 2.927 2.927 0 0 1 .3 1.36 5.183 5.183 0 0 1-.72 2.93 3.841 3.841 0 0 1-1.821 1.24 11.949 11.949 0 0 1-2.328.41 2.308 2.308 0 0 1 .719 1.9v3.47a.546.546 0 0 0 .191.42.487.487 0 0 0 .32.11.816.816 0 0 0 .209-.03 10.306 10.306 0 0 0 7.113-9.87 9.714 9.714 0 0 0-1.44-5.17 9.984 9.984 0 0 0-3.852-3.59 11.092 11.092 0 0 0-5.335-1.32" transform="translate(-945 -3345)"/>
</symbol><symbol id="icon-help" viewBox="0 0 30 30">
    <path d="M26.3 8.5c-1.2-2-2.7-3.6-4.7-4.7C19.5 2.6 17.4 2 15 2c-2.4 0-4.5.6-6.5 1.7-2 1.2-3.6 2.7-4.7 4.7C2.6 10.5 2 12.6 2 15c0 2.4.6 4.5 1.7 6.5 1.2 2 2.7 3.6 4.7 4.7 2 1.2 4.2 1.7 6.5 1.7s4.5-.6 6.5-1.7c2-1.2 3.6-2.7 4.7-4.7 1.2-2 1.7-4.2 1.7-6.5.2-2.4-.4-4.5-1.5-6.5zm-9.1 14.6c0 .2-.1.3-.2.4-.1.1-.2.2-.4.2h-3.3c-.2 0-.3-.1-.4-.2-.1-.1-.2-.2-.2-.4v-3.3c0-.2.1-.3.2-.4.1-.1.2-.2.4-.2h3.3c.2 0 .3.1.4.2.1.1.2.2.2.4v3.3zm4.1-10c-.1.4-.3.8-.5 1-.2.3-.4.5-.8.8-.3.3-.6.5-.8.6-.2.1-.5.3-.8.5-.4.2-.7.5-.9.8-.2.3-.4.6-.4.8 0 .2-.1.3-.2.4-.1.1-.2.2-.4.2h-3.2c-.2 0-.3-.1-.4-.2-.1-.1-.2-.2-.2-.4V17c0-.8.3-1.5.9-2.1.6-.7 1.2-1.1 2-1.5.5-.2.9-.5 1.2-.8.2-.3.3-.6.3-1s-.2-.7-.6-1c-.4-.3-.9-.4-1.4-.4-.6 0-1.1.1-1.5.4-.4.3-.9.8-1.5 1.6-.1.1-.2.2-.4.2-.1 0-.2 0-.3-.1l-2.2-1.7c-.3-.2-.3-.4-.1-.7 1.4-2.4 3.5-3.6 6.3-3.6 1 0 1.9.2 2.9.7.9.5 1.7 1.1 2.3 2 .6.8.9 1.8.9 2.8 0 .4-.1.9-.2 1.3z"/>
</symbol><symbol id="icon-in" viewBox="0 0 510 510">
    <path d="M459 0H51C22.95 0 0 22.95 0 51v408c0 28.05 22.95 51 51 51h408c28.05 0 51-22.95 51-51V51c0-28.05-22.95-51-51-51zM153 433.5H76.5V204H153v229.5zm-38.25-272.85c-25.5 0-45.9-20.4-45.9-45.9s20.4-45.9 45.9-45.9 45.9 20.4 45.9 45.9-20.4 45.9-45.9 45.9zM433.5 433.5H357V298.35c0-20.399-17.85-38.25-38.25-38.25s-38.25 17.851-38.25 38.25V433.5H204V204h76.5v30.6c12.75-20.4 40.8-35.7 63.75-35.7 48.45 0 89.25 40.8 89.25 89.25V433.5z" data-original="#000000"/>
</symbol><symbol id="icon-instagram" viewBox="0 0 14 15">
    <path d="M6.998 4.888a2.34 2.34 0 0 0-2.334 2.338 2.34 2.34 0 0 0 2.334 2.337 2.34 2.34 0 0 0 2.335-2.337 2.34 2.34 0 0 0-2.335-2.338zM14 7.226c0-.968.01-1.927-.045-2.893-.054-1.123-.31-2.119-1.13-2.94C12.004.572 11.01.318 9.89.264 8.923.208 7.965.217 7 .217c-.967 0-1.925-.009-2.89.046-1.12.054-2.115.31-2.934 1.13C.354 2.217.1 3.21.046 4.334-.008 5.3.001 6.26.001 7.226c0 .966-.01 1.927.045 2.893.054 1.122.31 2.118 1.13 2.939.82.822 1.814 1.077 2.935 1.131.966.054 1.924.046 2.889.046.967 0 1.925.008 2.89-.046 1.12-.054 2.115-.31 2.934-1.131.822-.822 1.076-1.817 1.13-2.939.056-.966.045-1.925.045-2.893zm-7 3.596a3.589 3.589 0 0 1-3.592-3.596 3.589 3.589 0 0 1 3.591-3.597 3.589 3.589 0 0 1 3.592 3.597 3.589 3.589 0 0 1-3.592 3.596zm3.738-6.5a.838.838 0 0 1-.839-.84.838.838 0 1 1 1.614.322.84.84 0 0 1-.775.518z"/>
</symbol><symbol id="icon-logo-graphql" viewBox="0 0 48 53">
    <path d="M45.6 33.3c-.4-.2-.8-.4-1.3-.5V20.2c.5-.1.9-.3 1.3-.5 2.3-1.3 3.1-4.1 1.8-6.4v-.1c-1.4-2.3-4.3-3-6.6-1.7-.4.2-.8.5-1.1.8L28.6 6.1c.1-.4.2-.9.2-1.3 0-2.7-2.2-4.8-4.9-4.8-2.6.1-4.7 2.1-4.7 4.7 0 .5.1.9.2 1.3L8.3 12.4c-.3-.4-.7-.7-1.1-.9C4.9 10.2 2 11 .6 13.3c-1.3 2.2-.6 5.1 1.7 6.4h.1c.4.2.8.4 1.3.5v12.6c-.4.1-.9.3-1.3.5C.1 34.6-.7 37.4.6 39.7v.1c1.4 2.3 4.3 3 6.6 1.7.4-.2.8-.5 1.1-.8L19.4 47c-.1.4-.2.9-.2 1.3.1 2.7 2.3 4.8 4.9 4.7 2.6-.1 4.7-2.1 4.7-4.7 0-.5-.1-1-.3-1.5l11-6.3c.3.4.7.7 1.2.9 2.3 1.3 5.2.5 6.6-1.7 1.3-2.2.6-5.1-1.6-6.4h-.1zm-39.4-.4c-.1 0-.1 0-.2-.1V20.2c1.3-.3 2.3-1.1 3-2.2.7-1.1.8-2.4.5-3.7l11-6.3c.1 0 .1.1.1.1L6.2 32.9zm21.3 12.2c-1.8-2-4.9-2.1-6.9-.2l-.1.1-11.1-6.3c0-.1 0-.1.1-.2h29c0 .1.1.2.1.3l-11.1 6.3zM39 35c-.2.4-.4.8-.5 1.2h-29c-.1-.4-.3-.8-.5-1.2-.2-.4-.5-.7-.8-1.1L22.7 9.3c.4.1.9.2 1.3.2.5 0 .9-.1 1.3-.2L39.9 34c-.4.3-.7.6-.9 1zm3-2.2c-.1 0-.1 0-.2.1L27.3 8.1l.1-.1 11.1 6.3c-.4 1.2-.2 2.5.5 3.7.7 1.1 1.7 1.9 3 2.2v12.6z"/>
</symbol><symbol id="icon-logo-jest" viewBox="0 0 50 55">
    <path d="M46.2 35.5v-.4V34.8 34.5 34.2 33.9 33.6v-.2s0-.1-.1-.1c0-.1 0-.1-.1-.2 0 0 0-.1-.1-.1 0 0 0-.1-.1-.1 0 0 0-.1-.1-.1 0 0 0-.1-.1-.1 0 0 0-.1-.1-.1-1 .7-2.3 1.1-3.6 1.1-3.2 0-5.9-2.4-6.3-5.5h-4.1c-.4 3.1-3.1 5.5-6.3 5.5-.3 0-.6 0-1-.1v.1c-.1.1-.1.2-.2.3s-.2.2-.2.3c-.1.1-.1.2-.2.3s-.2.2-.2.3c-.4-.1-.4 0-.5.1l-.3.3c-.1.1-.1.2-.2.3l-.3.3c-.1.1-.1.2-.2.3l-.3.3c-.1.1-.1.2-.2.2-.1.1-.2.3-.4.4l-.2.2-.6.6-.3.3c-.2.2-.5.4-.7.6-.2.2-.5.4-.7.6-.4.3-.7.5-1.1.8-1.1.7-2.2 1.4-3.4 1.9-.5.2-.9.4-1.4.6l-.5.2-.5-.2c-3.5-1.8-5.2-5.6-4.1-9.1-.6-.1-1.1-.2-1.7-.4-.2.4-.4.7-.5 1.1-1.1 2.1-2.1 4.4-2.5 6.8-.4 2.6-.6 7.4 3.1 9.9 1.7 1.2 3.5 1.7 5.4 1.7 3.5 0 7.2-1.9 11.3-3.9 3.1-1.5 6.3-3.1 9.7-4 1.3-.3 2.5-.5 3.8-.7 2.3-.3 4.5-.6 6.4-1.7.6-.4 1.2-.8 1.7-1.3l.4-.4.2-.2c.8-1 1.3-2.1 1.5-3.3v-.4V36.5 36.2 35.9c-.1-.3-.1-.4-.1-.4z"/>
    <path d="M44.6 40.4c.8-1 1.3-2.1 1.5-3.3-.2 1.2-.8 2.3-1.5 3.3z"/>
    <path d="M24 33.4z"/>
    <path d="M2.7 40.9c.4-2.4 1.5-4.6 2.5-6.8.2-.4.4-.7.5-1.1-.2.4-.4.7-.5 1.1-1 2.2-2.1 4.4-2.5 6.8-.4 2.6-.6 7.4 3.1 9.9 1.7 1.2 3.5 1.7 5.4 1.7-1.8 0-3.6-.5-5.4-1.7-3.7-2.5-3.5-7.3-3.1-9.9z"/>
    <path d="M19.2 38.9c.2-.2.5-.4.7-.6-.2.2-.5.4-.7.6z"/>
    <path d="M18.5 39.4c.2-.2.5-.4.7-.6-.2.3-.5.4-.7.6z"/>
    <path d="M12.6 42.7c.5-.2.9-.4 1.4-.6-.5.2-.9.4-1.4.6l-.5.2.5-.2z"/>
    <path d="M45.4 32.3s0 .1 0 0c0 .1 0 0 0 0z"/>
    <path d="M27.1 21.1l6.2-12.5 6.2 12.6c.3-.1.5-.2.8-.2l6.3-18.4H20l6.2 18.3c.3 0 .6.1.9.2z"/>
    <path d="M25 30.9c2.1 0 3.9-1.7 3.9-3.9 0-2.1-1.7-3.9-3.9-3.9s-3.9 1.7-3.9 3.9 1.7 3.9 3.9 3.9z"/>
    <path d="M37.8 27.1c0 2.1 1.7 3.9 3.9 3.9 2.1 0 3.9-1.7 3.9-3.9 0-2.1-1.7-3.9-3.9-3.9-2.1 0-3.9 1.7-3.9 3.9z"/>
    <path d="M8.2 31c2.1 0 3.9-1.7 3.9-3.9 0-2.1-1.7-3.9-3.9-3.9-2.1 0-3.9 1.7-3.9 3.9S6 31 8.2 31z"/>
</symbol><symbol id="icon-logo-react-native" viewBox="0 0 54 48">
    <path d="M54 24c0-3.6-4.5-7-11.3-9.1 1.6-7 .9-12.5-2.2-14.3C39.7.2 38.8 0 38 0c-3 0-7 2.2-11 5.9C23 2.2 19 0 16 0c-.9 0-1.7.2-2.5.6C10.4 2.5 9.7 8 11.3 15 4.5 17.1 0 20.5 0 24s4.5 6.9 11.3 9.1c-1.6 7-.9 12.5 2.2 14.3.8.4 1.6.6 2.5.6 3 0 7-2.2 11-5.9 4 3.7 8 5.8 11 5.8.9 0 1.7-.2 2.5-.6 3.1-1.8 3.8-7.3 2.2-14.3 6.8-2.1 11.3-5.4 11.3-9zM38 2.4c.4 0 .9.1 1.3.3 1.5.8 2.1 4.1 1.6 8.3-.1 1-.3 2.1-.6 3.2-2.3-.5-4.6-.9-7-1.2-1.4-1.9-2.9-3.8-4.6-5.5 3.6-3.2 7-5 9.3-5.1zM17.2 29.6c.5.9 1 1.7 1.6 2.6-1.6-.2-3.1-.5-4.5-.9.4-1.4.9-2.9 1.5-4.3.5.9.9 1.8 1.4 2.6zm-2.9-12.9c1.4-.3 3-.6 4.5-.9-.5.8-1.1 1.7-1.6 2.6s-1 1.8-1.4 2.6c-.6-1.4-1.1-2.9-1.5-4.3zm2.8 7.3c.7-1.5 1.5-2.9 2.3-4.4.9-1.5 1.7-2.9 2.7-4.2 1.6-.1 3.3-.2 5-.2s3.3.1 5 .2c.9 1.3 1.8 2.7 2.7 4.2.8 1.4 1.6 2.9 2.3 4.4-.7 1.5-1.5 2.9-2.3 4.4-.9 1.5-1.7 2.9-2.7 4.2-1.6.2-3.3.2-5 .2s-3.3-.1-5-.2c-.9-1.3-1.8-2.7-2.7-4.2-.9-1.4-1.6-2.9-2.3-4.4zm19.7 5.6c.5-.9 1-1.8 1.4-2.7.6 1.5 1.1 2.9 1.5 4.4-1.4.3-3 .7-4.5.9.5-.8 1-1.7 1.6-2.6zm-.1-11.2c-.5-.9-1-1.7-1.6-2.6 1.6.2 3.1.5 4.5.9-.4 1.4-.9 2.9-1.5 4.3-.4-.9-.8-1.7-1.4-2.6zM30 12.9c-1 0-2-.1-3-.1s-2.1 0-3.1.1c.9-1.2 2-2.4 3-3.5 1.1 1.1 2.2 2.2 3.1 3.5zM14.7 2.8c.4-.2.8-.3 1.3-.3 2.3 0 5.7 1.8 9.2 5.1-1.6 1.7-3.2 3.6-4.5 5.5-2.4.2-4.7.6-7 1.2-.3-1.1-.4-2.2-.6-3.2-.5-4.2.1-7.4 1.6-8.3zm-2.8 27.9c-1.1-.3-2.1-.7-3.1-1.1C5 27.9 2.4 25.7 2.4 24s2.5-3.9 6.4-5.6c.9-.4 2-.8 3-1.1.7 2.3 1.5 4.5 2.5 6.7-.9 2.2-1.7 4.4-2.4 6.7zM16 45.6c-.4 0-.9-.1-1.2-.3-1.5-.8-2.1-4.1-1.6-8.3.1-1 .3-2.1.6-3.2 2.3.5 4.6.9 7 1.2 1.4 1.9 2.9 3.8 4.6 5.5-3.7 3.2-7.1 5.1-9.4 5.1zm11-6.9c-1.1-1.1-2.1-2.3-3.1-3.5 1 0 2 .1 3 .1s2.1 0 3.1-.1c-.9 1.2-1.9 2.4-3 3.5zm12.3 6.5c-.4.2-.8.3-1.3.3-2.3 0-5.7-1.8-9.2-5.1 1.6-1.7 3.2-3.6 4.5-5.5 2.4-.2 4.7-.6 7-1.2.2 1.1.4 2.1.6 3.2.5 4.2-.1 7.4-1.6 8.3zm5.8-15.6c-.9.4-2 .8-3 1.1-.7-2.3-1.5-4.5-2.5-6.7 1-2.2 1.8-4.4 2.4-6.7 1.1.3 2.1.7 3.1 1.1 3.9 1.7 6.4 3.8 6.4 5.6s-2.5 3.9-6.4 5.6zM27 29c2.8 0 5-2.3 5-5 0-2.8-2.3-5-5-5-2.8 0-5 2.3-5 5 0 2.8 2.2 5 5 5z"/>
</symbol><symbol id="icon-logo-react" viewBox="0 0 54 48">
    <path d="M54 24c0-3.6-4.5-7-11.3-9.1 1.6-7 .9-12.5-2.2-14.3C39.7.2 38.8 0 38 0c-3 0-7 2.2-11 5.9C23 2.2 19 0 16 0c-.9 0-1.7.2-2.5.6C10.4 2.5 9.7 8 11.3 15 4.5 17.1 0 20.5 0 24s4.5 6.9 11.3 9.1c-1.6 7-.9 12.5 2.2 14.3.8.4 1.6.6 2.5.6 3 0 7-2.2 11-5.9 4 3.7 8 5.8 11 5.8.9 0 1.7-.2 2.5-.6 3.1-1.8 3.8-7.3 2.2-14.3 6.8-2.1 11.3-5.4 11.3-9zM38 2.4c.4 0 .9.1 1.3.3 1.5.8 2.1 4.1 1.6 8.3-.1 1-.3 2.1-.6 3.2-2.3-.5-4.6-.9-7-1.2-1.4-1.9-2.9-3.8-4.6-5.5 3.6-3.2 7-5 9.3-5.1zM17.2 29.6c.5.9 1 1.7 1.6 2.6-1.6-.2-3.1-.5-4.5-.9.4-1.4.9-2.9 1.5-4.3.5.9.9 1.8 1.4 2.6zm-2.9-12.9c1.4-.3 3-.6 4.5-.9-.5.8-1.1 1.7-1.6 2.6s-1 1.8-1.4 2.6c-.6-1.4-1.1-2.9-1.5-4.3zm2.8 7.3c.7-1.5 1.5-2.9 2.3-4.4.9-1.5 1.7-2.9 2.7-4.2 1.6-.1 3.3-.2 5-.2s3.3.1 5 .2c.9 1.3 1.8 2.7 2.7 4.2.8 1.4 1.6 2.9 2.3 4.4-.7 1.5-1.5 2.9-2.3 4.4-.9 1.5-1.7 2.9-2.7 4.2-1.6.2-3.3.2-5 .2s-3.3-.1-5-.2c-.9-1.3-1.8-2.7-2.7-4.2-.9-1.4-1.6-2.9-2.3-4.4zm19.7 5.6c.5-.9 1-1.8 1.4-2.7.6 1.5 1.1 2.9 1.5 4.4-1.4.3-3 .7-4.5.9.5-.8 1-1.7 1.6-2.6zm-.1-11.2c-.5-.9-1-1.7-1.6-2.6 1.6.2 3.1.5 4.5.9-.4 1.4-.9 2.9-1.5 4.3-.4-.9-.8-1.7-1.4-2.6zM30 12.9c-1 0-2-.1-3-.1s-2.1 0-3.1.1c.9-1.2 2-2.4 3-3.5 1.1 1.1 2.2 2.2 3.1 3.5zM14.7 2.8c.4-.2.8-.3 1.3-.3 2.3 0 5.7 1.8 9.2 5.1-1.6 1.7-3.2 3.6-4.5 5.5-2.4.2-4.7.6-7 1.2-.3-1.1-.4-2.2-.6-3.2-.5-4.2.1-7.4 1.6-8.3zm-2.8 27.9c-1.1-.3-2.1-.7-3.1-1.1C5 27.9 2.4 25.7 2.4 24s2.5-3.9 6.4-5.6c.9-.4 2-.8 3-1.1.7 2.3 1.5 4.5 2.5 6.7-.9 2.2-1.7 4.4-2.4 6.7zM16 45.6c-.4 0-.9-.1-1.2-.3-1.5-.8-2.1-4.1-1.6-8.3.1-1 .3-2.1.6-3.2 2.3.5 4.6.9 7 1.2 1.4 1.9 2.9 3.8 4.6 5.5-3.7 3.2-7.1 5.1-9.4 5.1zm11-6.9c-1.1-1.1-2.1-2.3-3.1-3.5 1 0 2 .1 3 .1s2.1 0 3.1-.1c-.9 1.2-1.9 2.4-3 3.5zm12.3 6.5c-.4.2-.8.3-1.3.3-2.3 0-5.7-1.8-9.2-5.1 1.6-1.7 3.2-3.6 4.5-5.5 2.4-.2 4.7-.6 7-1.2.2 1.1.4 2.1.6 3.2.5 4.2-.1 7.4-1.6 8.3zm5.8-15.6c-.9.4-2 .8-3 1.1-.7-2.3-1.5-4.5-2.5-6.7 1-2.2 1.8-4.4 2.4-6.7 1.1.3 2.1.7 3.1 1.1 3.9 1.7 6.4 3.8 6.4 5.6s-2.5 3.9-6.4 5.6zM27 29c2.8 0 5-2.3 5-5 0-2.8-2.3-5-5-5-2.8 0-5 2.3-5 5 0 2.8 2.2 5 5 5z"/>
</symbol><symbol id="icon-logo-reason" viewBox="0 0 48 48">
    <g>
        <path d="M0 0v48h48V0H0zm23 43.6l-2.7-5.1h-3.6v5.1H12V25.3h8.2c4.9 0 7.6 2.4 7.6 6.4 0 2.8-1.1 4.8-3.3 5.9l3.9 6H23zm22.6-.1H30.9V25.3h14.5v3.8h-9.7v3.4h8.7v3.8h-8.7v3.4h9.9v3.8z"/>
        <path d="M20.2 29.1h-3.5v5.6h3.5c1.9 0 3.1-1 3.1-2.8 0-1.8-1.1-2.8-3.1-2.8z"/>
    </g>
</symbol><symbol id="icon-logo-typescript" viewBox="0 0 48 48">
    <path d="M0 0v48h48V0H0zm29.4 23.1v2.2h-6.1V45h-5.1V25.3H12V21h17.4v2.1zm15 17.7c-.6 1.2-1.8 2.5-3 3.1-2.6 1.2-6.8 1.3-10.1.2l-1.2-.4v-5.2l.9.7c1.2.9 2.8 1.4 4.4 1.5 1.7.1 2.9-.2 3.6-.9.5-.4.6-.7.6-1.4 0-1.4-.8-2.1-4-3.7-2.8-1.4-3.8-2-4.6-3.3-1.9-2.7-1.3-6.9 1.2-8.8 2.3-1.4 5.8-2 9.4-1.4.8.1 1.6.4 1.9.5l.5.2v2.3c0 1.3 0 2.3-.1 2.3 0 0-.4-.2-.9-.4-1.7-1-4.4-1.3-6-.8-.4.1-1 .5-1.3.8-.4.4-.5.7-.5 1.4s.1 1 .7 1.5c.4.4 1.9 1.2 3.3 1.9 3 1.5 4.5 2.7 5.2 4.3.6 1.4.6 4.3 0 5.6z"/>
</symbol><symbol id="icon-mastodon" viewBox="0 0 24 24">
    <path d="M1.004 7.879c0 6.197-.347 13.894 5.559 15.486 2.132.574 3.964.696 5.438.61 2.674-.15 4.175-.969 4.175-.969l-.09-1.977s-1.911.61-4.059.54c-2.127-.075-4.37-.235-4.717-2.892a5.514 5.514 0 0 1-.047-.745c4.507 1.12 8.349.488 9.408.359 2.954-.359 5.528-2.212 5.855-3.905.515-2.667.474-6.508.474-6.508 0-5.206-3.353-6.733-3.353-6.733-3.291-1.537-12.029-1.521-15.288 0-.002.002-3.355 1.528-3.355 6.734zm4.923-2.667c1.363-1.548 4.201-1.65 5.465.327l.611 1.044.611-1.044c1.269-1.987 4.112-1.864 5.465-.327 1.248 1.463.969 2.838.969 9.373H16.593V8.469c0-2.662-3.369-2.764-3.369.369v3.348h-2.437V8.838c0-3.133-3.369-3.031-3.369-.369v6.117H4.959c0-6.54-.274-7.922.968-9.374z"/>
</symbol><symbol id="icon-md" viewBox="0 0 15.07 12">
    
    <path id="medium" d="M1301.64 43.74h-.59a.675.675 0 0 0-.53.526V51.7a.63.63 0 0 0 .53.486h.59v1.765h-5.39V52.19h1.13v-7.82h-.05l-2.64 9.585h-2.04l-2.6-9.585h-.07v7.82h1.13v1.765h-4.51V52.19h.58a.642.642 0 0 0 .55-.486v-7.439a.686.686 0 0 0-.55-.526h-.58v-1.765h5.64l1.86 6.937h.05l1.87-6.937h5.62v1.766z" transform="translate(-1286.59 -41.969)"/>
</symbol><symbol id="icon-med" viewBox="0 0 72.4 72.3">
    <path d="M0 0h72.4v72.3H0V0zm17.2 46.8L11.4 54v.8H26V54l-5.9-7.1V27l12.8 27.8h1.6l10.9-28v22.9L41 54.1v.9h19.2l.1-.8L56 50V21l4.3-4.2V16H46.9l-9.7 24-10.9-24H12v.8l5.2 6.3v23.7z" fill-rule="evenodd" clip-rule="evenodd"/>
</symbol><symbol id="icon-p-close" viewBox="0 0 14 14">
    <path d="M1 13L13 1M1 1l12 12" stroke-width="2" stroke-linecap="round" stroke-linejoin="round"/>
</symbol><symbol id="icon-p-marker" viewBox="0 0 28 35">
    <path fill-rule="evenodd" clip-rule="evenodd" d="M23.9 4.48c5.467 5.467 5.467 14.331 0 19.798l-9.9 9.9-9.9-9.9c-5.467-5.467-5.467-14.331 0-19.799 5.468-5.467 14.332-5.467 19.8 0zM14 18.378a4 4 0 1 0 0-8 4 4 0 0 0 0 8z"/>
</symbol><symbol id="icon-p-notification" viewBox="0 0 18 22">
    <path d="M0 19v-2.167s2.272-.109 2.272-2.186V7.733S2.25 2 8.685 2c5.674 0 7.057 3.167 7.057 5.525v7.507s-.17 1.81 2.258 1.81V19H0z"/>
    <path d="M10 3V1.109c0-.294-.105-.576-.293-.784A.953.953 0 0 0 9 0a.953.953 0 0 0-.707.325C8.105.533 8 .815 8 1.109v1.855"/>
    <path d="M11 20a2.144 2.144 0 0 1-.618 1.42c-.372.372-.867.58-1.382.58-.515 0-1.01-.208-1.382-.58A2.143 2.143 0 0 1 7 20"/>
</symbol><symbol id="icon-p-stars" viewBox="0 0 24 27">
    <path d="M13.375 5c-1 6.5-6.667 8.958-9.375 9.375V15c6.5 1 8.958 7.083 9.375 10H14c1.5-7.5 7.083-9.792 10-10v-.625c-7-.5-9.375-6.458-10-9.375h-.625z"/>
    <path d="M4.281 20c-.35 2.275-2.333 3.135-3.281 3.281v.219c2.275.35 3.135 2.48 3.281 3.5H4.5c.525-2.625 2.48-3.427 3.5-3.5v-.219c-2.45-.175-3.281-2.26-3.5-3.281h-.219z"/>
    <path d="M4.688 0C4.188 3.25 1.353 4.48 0 4.688V5c3.25.5 4.48 3.542 4.688 5H5c.75-3.75 3.542-4.896 5-5v-.313C6.5 4.438 5.312 1.458 5 0h-.313z"/>
</symbol><symbol id="icon-perks" viewBox="0 0 406.2 406.2">
    <path d="M225.1 240.4V392h124.7c16.2 0 29.4-13.1 29.4-29.4V240.4H225.1z"/>
    <path d="M181 240.4H27v122.3c0 16.2 13.2 29.4 29.4 29.4H181V240.4zM67 361.2c-6.1 0-11-4.9-11-11V289c0-6.1 4.9-11 11-11s11 4.9 11 11v61.2c.1 6.1-4.9 11-11 11z"/>
    <path d="M359.4 125.4h-55.1c7.6-3.7 14-7.4 17.9-11.3 22.7-22.7 22.7-59.5 0-82.3-11.4-11.4-26.3-17-41.1-17-14.9 0-29.8 5.7-41.1 17-9.4 9.4-18.5 32.7-25.9 56.7-3.5-.9-7-1.6-10.8-1.6-3.7 0-7.3.7-10.7 1.6-7.4-24.2-16.6-47.8-26.1-57.3-11.4-11.4-26.2-17-41.1-17-14.9 0-29.8 5.7-41.1 17-22.7 22.7-22.7 59.6 0 82.3 4.1 4.1 10.9 8.1 19.1 11.9H46.8c-16.2 0-29.3 13.1-29.3 29.3v25c0 16.2 13.1 29.3 29.3 29.3H181v-82.5h44.1V209h134.3c16.2 0 29.3-13.1 29.3-29.3v-25c.1-16.2-13.1-29.3-29.3-29.3zm-98.8-72.7c5.4-5.4 12.7-8.4 20.3-8.4 7.7 0 14.9 3 20.4 8.4 5.4 5.4 8.4 12.7 8.4 20.3s-3 14.9-8.4 20.3c-6.1 5.7-29.9 14.7-59.3 23-.8-2.9-2-5.5-3.4-8.1 8.1-27.7 16.6-49.7 22-55.5zM104.8 52c5.4-5.4 12.7-8.4 20.3-8.4 7.7 0 14.9 3 20.3 8.4 5.5 5.9 14 28.2 22.1 56.1-1.3 2.4-2.4 4.9-3.2 7.6-29.5-8.3-53.5-17.3-59.6-23-11.1-11.2-11.1-29.4.1-40.7z"/>
</symbol><symbol id="icon-plus" viewBox="0 0 24 24">
    
    <path d="M0 9h24v6H0z"/>
    <path d="M9 0h6v24H9z"/>
</symbol><symbol id="icon-portal" viewBox="0 0 39.4 50">
    <path d="M19.9 37.5c-1.9 0-3.5-1.5-3.5-3.4V34h-3.6v.1c0 3.9 3.3 7 7.2 7 3.8 0 6.9-3.1 7-7V34h-3.6v.1c0 1.9-1.6 3.4-3.5 3.4zM21.3 18h9.9v3.4h-9.9V18zM4.5 10.9C14.3 7.8 18 5.9 19.7 5c1.7.9 5.4 2.8 15.2 5.9 0 1.1.6 34.7-15.2 34.6C3.8 45.6 4.5 12 4.5 10.9zM19.7 50C40.2 50 39.4 9.1 39.4 7.7 26.7 3.7 21.9 1.2 19.7 0c-2.2 1.2-7 3.7-19.7 7.7C0 9.1-.8 50 19.7 50zM13 14.8c-2.8 0-5 2.3-5 5.1s2.3 5 5.1 5 5-2.3 5-5c0-2.9-2.3-5.1-5.1-5.1zm-1.6 5c0-.9.7-1.6 1.6-1.6s1.6.7 1.6 1.6-.7 1.6-1.6 1.6c-.9 0-1.6-.7-1.6-1.6z"/>
</symbol><symbol id="icon-schedule" viewBox="0 0 30 29.8">
    <path d="M6.4 12.5h4.3v4.3H6.4v-4.3z"/>
    <path d="M12.9 12.5h4.3v4.3h-4.3v-4.3z"/>
    <path d="M19.4 12.5h4.3v4.3h-4.3v-4.3z"/>
    <path d="M6.4 19h4.3v4.3H6.4V19z"/>
    <path d="M12.9 19h4.3v4.3h-4.3V19z"/>
    <path d="M19.4 19h4.3v4.3h-4.3V19z"/>
    <path d="M26.2 5h-3V2.5c0-.3-.2-.5-.5-.5h-2.3c-.3 0-.5.2-.5.5V5h-9.7V2.5c0-.3-.2-.5-.5-.5H7.4c-.2 0-.5.2-.5.5V5H3.8C2.8 5 2 5.8 2 6.9V26c0 1 .8 1.8 1.8 1.8h22.3c1 0 1.8-.8 1.8-1.8V6.9C28 5.8 27.2 5 26.2 5zm-.4 20.3c0 .1-.1.2-.2.2h-21c-.1 0-.2-.1-.2-.2V10.5c0-.1.1-.2.2-.2h21c.1 0 .2.1.2.2v14.8z"/>
</symbol><symbol id="icon-site" viewBox="0 0 16 16">
    <path d="M13.7 2.3C15.2 3.9 16 5.9 16 8s-.8 4.1-2.3 5.7C12.1 15.2 10.1 16 8 16s-4.1-.8-5.7-2.3C.8 12.1 0 10.1 0 8s.8-4.1 2.3-5.7S5.9 0 8 0s4.1.8 5.7 2.3zm-.8 10.6c1-1 1.6-2.2 1.9-3.5-.2.3-.4.4-.5-.3-.1-1.1-1.2-.4-1.8-.8-.7.5-2.2-.9-2 .6.4.7 2.2-.9 1.3.5-.6 1-2.1 3.3-1.9 4.5 0 1.7-1.8.4-2.4-.2-.4-1.1-.1-3.1-1.2-3.7-1.1 0-2.1-.1-2.6-1.4-.2-.9.3-2.3 1.3-2.5 1.5-.9 2 1.1 3.4 1.1.4-.4 1.6-.6 1.7-1.1-.9-.2 1.1-.8-.1-1.1-.7.1-1.1.7-.7 1.2-1.4.3-1.4-1.9-2.7-1.2 0 1.1-2.1.4-.7.1.5-.1-.7-.7-.1-.6.3 0 1.4-.4 1.1-.7.6-.4 1.1.9 1.7 0 .5-.7-.1-.9-.6-.5-.3-.4.5-1.1 1.2-1.4.2-.1.5-.2.7-.1.4.4 1.1.4 1.1-.1-.9-.5-1.9-.7-3-.7-1.5 0-3 .5-4.2 1.4.3.1.5.3.2.5-.2.8-1.2 1.7-2.1 1.6-.4.8-.7 1.6-.8 2.5.7.2.9.7.7.9-.4.3-.6.7-.7 1.2.2 1.4.9 2.8 2 3.8C4.4 14.3 6.1 15 8 15c1.9 0 3.6-.7 4.9-2.1z"/>
</symbol><symbol id="icon-socials_sl" viewBox="0 0 14.216 14.219">
    
    <path id="skack" d="M998.762 40.47c4.888-1.466 7.008-.326 8.468 4.562s.33 7.006-4.56 8.472-7 .326-8.47-4.562-.326-7.006 4.562-8.472zm5.078 8.043l.92-.307a.738.738 0 1 0-.47-1.4l-.92.309-.61-1.83.92-.308a.738.738 0 1 0-.47-1.4l-.92.309-.32-.954a.738.738 0 0 0-1.4.468l.32.954-1.9.637-.318-.954a.738.738 0 0 0-1.4.469l.319.953-.922.308a.738.738 0 0 0 .215 1.437.729.729 0 0 0 .254-.038l.922-.31.612 1.829-.918.315a.737.737 0 0 0 .215 1.436.706.706 0 0 0 .253-.037l.922-.308.319.953a.737.737 0 0 0 .677.5.786.786 0 0 0 .26-.038.74.74 0 0 0 .46-.934l-.32-.953 1.9-.637.32.954a.737.737 0 0 0 .68.5.768.768 0 0 0 .26-.038.738.738 0 0 0 .46-.932zm-1.89-.909l-1.85.617-.617-1.851 1.847-.617z" transform="translate(-993.594 -39.875)"/>
</symbol><symbol id="icon-socials_yt" viewBox="0 0 17 12">
    
    <path id="yt" d="M1145.74 48.212v-4.793l4.59 2.4zm10.08-5.625a3.786 3.786 0 0 0-.67-1.693 2.424 2.424 0 0 0-1.71-.722c-2.37-.172-5.94-.172-5.94-.172h-.01s-3.57 0-5.94.173a2.424 2.424 0 0 0-1.71.722 3.663 3.663 0 0 0-.67 1.693 25.915 25.915 0 0 0-.17 2.761v1.295a25.912 25.912 0 0 0 .17 2.762 3.664 3.664 0 0 0 .67 1.693 2.885 2.885 0 0 0 1.88.729c1.36.131 5.77.172 5.77.172s3.58-.006 5.95-.177a2.441 2.441 0 0 0 1.71-.723 3.787 3.787 0 0 0 .67-1.693 25.912 25.912 0 0 0 .17-2.762v-1.296a25.915 25.915 0 0 0-.17-2.762z" transform="translate(-1139 -40)"/>
</symbol><symbol id="icon-spatial" viewBox="0 0 18.7 30">
    <style>
        .st0{fill:url(#SVGID_1_)}.st1{fill:url(#SVGID_2_)}.st2{fill:#48b2f3}.st3{fill:#3d5bf2}.st4{fill:#099}
    </style>
    <linearGradient id="SVGID_1_" gradientUnits="userSpaceOnUse" x1="-239.302" y1="262.373" x2="-239.459" y2="262.26" gradientTransform="matrix(70.7064 -99.1267 -69.6801 -49.7024 35208.73 -10675.46)">
        <stop offset="0" stop-color="#2282ff" stop-opacity=".99"/>
        <stop offset="1" stop-color="#27e2e3"/>
    </linearGradient>
    <path d="M6.8 18.5L.5 27.4l6.3-8.9z"/>
    <linearGradient id="SVGID_2_" gradientUnits="userSpaceOnUse" x1="-239.237" y1="262.282" x2="-239.393" y2="262.17" gradientTransform="matrix(70.7064 -99.1267 -69.6801 -49.7024 35208.73 -10675.46)">
        <stop offset="0" stop-color="#2282ff" stop-opacity=".99"/>
        <stop offset="1" stop-color="#27e2e3"/>
    </linearGradient>
    <path d="M18.2 2.6l-2 2.8z"/>
    <path d="M11.2 11C8 8.7 6.6 5 7.1 1.4c-1.3.7-2.4 1.7-3.3 2.9C.7 8.7 1.7 14.9 6.1 18l.7.5.7.5c3.2 2.3 4.6 6 4 9.6 1.3-.7 2.4-1.7 3.3-2.9C18 21.3 17 15.1 12.6 12l-.7-.5-.7-.5z"/>
    <path d="M18.7 2.3l-.8-.6C14.8-.5 10.8-.6 7.7 1.1c-.6 3.6.9 7.3 4 9.6l.7.5 4.3-6 2-2.9z"/>
    <path d="M7 19.3l-.7-.5L0 27.7l.7.5c3.2 2.3 7.2 2.4 10.4.7.5-3.6-.9-7.4-4.1-9.6z"/>
</symbol><symbol id="icon-sv-grid" viewBox="0 0 359 359">
    <path d="M96.835 1.795h-82.17c-5.445 0-9.9 4.455-9.9 9.9v82.17c0 5.445 4.455 9.9 9.9 9.9h82.17c5.445 0 9.9-4.455 9.9-9.9v-82.17c0-5.445-4.455-9.9-9.9-9.9zm-8.91 83.16h-63.36v-63.36h63.36v63.36zm132.66-83.16h-82.17c-5.445 0-9.9 4.455-9.9 9.9v82.17c0 5.445 4.455 9.9 9.9 9.9h82.17c5.445 0 9.9-4.455 9.9-9.9v-82.17c0-5.445-4.455-9.9-9.9-9.9zm-8.91 83.16h-63.36v-63.36h63.36v63.36zm-114.84 41.58h-82.17c-5.445 0-9.9 4.455-9.9 9.9v82.17c0 5.445 4.455 9.9 9.9 9.9h82.17c5.445 0 9.9-4.455 9.9-9.9v-82.17c0-5.445-4.455-9.9-9.9-9.9zm-8.91 82.17h-63.36v-62.37h63.36v62.37zm132.66-82.17h-82.17c-5.445 0-9.9 4.455-9.9 9.9v82.17c0 5.445 4.455 9.9 9.9 9.9h82.17c5.445 0 9.9-4.455 9.9-9.9v-82.17c0-5.445-4.455-9.9-9.9-9.9zm-8.91 82.17h-63.36v-62.37h63.36v62.37zm132.66-206.91h-82.17c-5.445 0-9.9 4.455-9.9 9.9v82.17c0 5.445 4.455 9.9 9.9 9.9h82.17c5.445 0 9.9-4.455 9.9-9.9v-82.17c0-5.445-4.455-9.9-9.9-9.9zm-8.91 83.16h-63.36v-63.36h63.36v63.36zm8.91 41.58h-82.17c-5.445 0-9.9 4.455-9.9 9.9v82.17c0 5.445 4.455 9.9 9.9 9.9h82.17c5.445 0 9.9-4.455 9.9-9.9v-82.17c0-5.445-4.455-9.9-9.9-9.9zm-8.91 82.17h-63.36v-62.37h63.36v62.37zm-238.59 46.53h-82.17c-5.445 0-9.9 4.455-9.9 9.9v82.17c0 5.445 4.455 9.9 9.9 9.9h82.17c5.445 0 9.9-4.455 9.9-9.9v-82.17c0-5.445-4.455-9.9-9.9-9.9zm-8.91 83.16h-63.36v-63.36h63.36v63.36zm132.66-83.16h-82.17c-5.445 0-9.9 4.455-9.9 9.9v82.17c0 5.445 4.455 9.9 9.9 9.9h82.17c5.445 0 9.9-4.455 9.9-9.9v-82.17c0-5.445-4.455-9.9-9.9-9.9zm-8.91 83.16h-63.36v-63.36h63.36v63.36zm132.66-83.16h-82.17c-5.445 0-9.9 4.455-9.9 9.9v82.17c0 5.445 4.455 9.9 9.9 9.9h82.17c5.445 0 9.9-4.455 9.9-9.9v-82.17c0-5.445-4.455-9.9-9.9-9.9zm-8.91 83.16h-63.36v-63.36h63.36v63.36z" data-original="#000000"/>
</symbol><symbol id="icon-sv-list" viewBox="0 0 64 64">
    <path d="M61.52 63.98h-24.6a2.46 2.46 0 0 1-2.46-2.46v-24.6a2.46 2.46 0 0 1 2.46-2.46h24.6a2.46 2.46 0 0 1 2.46 2.46v24.6a2.46 2.46 0 0 1-2.46 2.46zm-22.14-4.92h19.68V39.38H39.38zm-12.3-29.52H2.48a2.46 2.46 0 0 1-2.46-2.46V2.48A2.46 2.46 0 0 1 2.48.02h24.6a2.46 2.46 0 0 1 2.46 2.46v24.6a2.46 2.46 0 0 1-2.46 2.46zM4.94 24.62h19.68V4.94H4.94zm56.58 4.92h-24.6a2.46 2.46 0 0 1-2.46-2.46V2.48A2.46 2.46 0 0 1 36.92.02h24.6a2.46 2.46 0 0 1 2.46 2.46v24.6a2.46 2.46 0 0 1-2.46 2.46zm-22.14-4.92h19.68V4.94H39.38zm-12.3 39.36H2.48a2.46 2.46 0 0 1-2.46-2.46v-24.6a2.46 2.46 0 0 1 2.46-2.46h24.6a2.46 2.46 0 0 1 2.46 2.46v24.6a2.46 2.46 0 0 1-2.46 2.46zM4.94 59.06h19.68V39.38H4.94z" data-original="#000000"/>
</symbol><symbol id="icon-tiktok" viewBox="0 0 13 15">
    <path d="M11.499 3.5A3.354 3.354 0 0 1 8.859.527v-.31H6.45v9.582a2.032 2.032 0 0 1-1.383 1.918 2.024 2.024 0 0 1-2.67-1.888 2.03 2.03 0 0 1 1.38-1.959c.409-.137.85-.14 1.26-.01V5.406A4.425 4.425 0 0 0 .475 7.802 4.44 4.44 0 0 0 1.26 12.9 4.429 4.429 0 0 0 8.86 9.8V4.902a5.721 5.721 0 0 0 3.34 1.07v-2.4c-.235 0-.47-.024-.701-.072z"/>
</symbol><symbol id="icon-tw" viewBox="0 0 32 32">
    <path d="M23.361 4h3.926L18.71 14.166 28.8 28h-7.9l-6.187-8.39L7.633 28H3.705l9.173-10.874L3.2 4h8.1l5.593 7.669L23.36 4zm-1.377 21.563h2.175L10.119 6.31H7.783l14.2 19.254z"/>
</symbol></svg>