<?xml version="1.0" encoding="UTF-8"?>
<svg width="6px" height="12px" viewBox="0 0 6 12" version="1.1" xmlns="http://www.w3.org/2000/svg" xmlns:xlink="http://www.w3.org/1999/xlink">
    <!-- Generator: Sketch 52.2 (67145) - http://www.bohemiancoding.com/sketch -->
    <title>Facebook</title>
    <desc>Created with Sketch.</desc>
    <g id="RDB-Web-Design" stroke="none" stroke-width="1" fill="none" fill-rule="evenodd">
        <g id="React-day-Berlin-2018-web" transform="translate(-1197.000000, -42.000000)" fill="#FFFFFF" fill-rule="nonzero">
            <g id="1-Screen" transform="translate(-12.000000, -4.000000)">
                <g id="header" transform="translate(147.000000, 20.000000)">
                    <g id="social" transform="translate(960.000000, 17.000000)">
                        <g id="fb" transform="translate(90.000000, 0.000000)">
                            <path d="M13.2968683,11.3240179 C13.2968683,11.6264229 13.2968683,12.9761829 13.2968683,12.9761829 L12,12.9761829 L12,14.9964567 L13.2968683,14.9964567 L13.2968683,21 L15.9609111,21 L15.9609111,14.9966241 L17.7486075,14.9966241 C17.7486075,14.9966241 17.9160331,14.0279183 17.9971901,12.9687337 C17.7645101,12.9687337 15.9709847,12.9687337 15.9709847,12.9687337 C15.9709847,12.9687337 15.9709847,11.7934026 15.9709847,11.5873912 C15.9709847,11.3809333 16.2614462,11.1032196 16.5485298,11.1032196 C16.8350754,11.1032196 17.4398521,11.1032196 18,11.1032196 C18,10.8281564 18,9.87775277 18,9 C17.2522195,9 16.4014906,9 16.0264944,9 C13.231016,8.9998605 13.2968683,11.0221431 13.2968683,11.3240179 Z" id="Facebook"></path>
                        </g>
                    </g>
                </g>
            </g>
        </g>
    </g>
</svg>