<?xml version="1.0" encoding="UTF-8"?>
<svg width="155px" height="40px" viewBox="0 0 155 40" version="1.1" xmlns="http://www.w3.org/2000/svg" xmlns:xlink="http://www.w3.org/1999/xlink">
    <!-- Generator: Sketch 52.2 (67145) - http://www.bohemiancoding.com/sketch -->
    <title>Git Nation logo</title>
    <desc>Created with Sketch.</desc>
    <g id="RDB-Web-Design" stroke="none" stroke-width="1" fill="none" fill-rule="evenodd">
        <g id="React-day-Berlin-2018-web" transform="translate(-147.000000, -15155.000000)" fill="#FFFFFF">
            <g id="footer" transform="translate(0.000000, 14869.000000)">
                <g id="Git-Nation-logo" transform="translate(147.000000, 286.000000)">
                    <g id="Smiles_for_anim-(1)" fill-rule="nonzero">
                        <path d="M3.54702355,8.7255267 C11.299286,6.24517393 14.267295,4.73924547 15.5962543,3.98628123 C16.9252136,4.73924547 19.8932226,6.28946595 27.6454851,8.7255267 C27.6454851,9.61136698 28.1327702,36.4080353 15.5962543,36.4080353 C3.05973848,36.4080353 3.54702355,9.61136698 3.54702355,8.7255267 Z M15.5962543,39.9513964 C31.8095575,39.9956884 31.1893765,7.26389025 31.1893765,6.15658991 C21.1335846,2.92327291 17.3239014,0.974424302 15.5962543,0 C13.8686073,0.974424302 10.058924,2.92327291 0.00313214654,6.15658991 C0.00313214654,7.26389025 -0.617048849,39.9956884 15.5962543,39.9513964 Z" id="Background"></path>
                        <g id="id_2" transform="translate(6.644796, 11.515924)">
                            <path d="M9.56850679,17.8496815 C8.10665158,17.8496815 6.91058824,16.6537972 6.91058824,15.1921607 C6.91058824,15.1478687 6.91058824,15.1035767 6.91058824,15.0592847 L6.91058824,14.8378246 L3.80968326,14.8378246 L3.80968326,14.9264086 C3.80968326,17.0081333 4.91714932,18.9569819 6.73339367,19.9314062 C10.8531674,22.1017148 15.3273303,19.0455659 15.3273303,15.0592847 L15.3273303,14.8378246 L12.2264253,14.8378246 L12.2264253,15.0592847 C12.270724,16.5209211 11.1632579,17.7610975 9.70140271,17.8053895 C9.65710407,17.8496815 9.61280543,17.8496815 9.56850679,17.8496815 Z" id="Shape"></path>
                            <polygon id="Shape" points="18.4282353 5.4922097 10.8974661 5.53650171 10.8974661 2.87898089 18.4282353 2.83468888"></polygon>
                            <path d="M7.88515837,2.74610485 C7.30927602,1.24017638 5.80312217,0.310044096 4.1640724,0.310044096 C1.90484163,0.310044096 0.0885972851,2.17030867 0.132895928,4.47349339 C0.17719457,6.55521803 1.94914027,8.28260657 4.03117647,8.37119059 C6.82199095,8.45977462 8.99262443,5.66937776 7.88515837,2.74610485 Z M4.11977376,5.58079373 C3.41099548,5.58079373 2.83511312,5.00499755 2.83511312,4.29632533 C2.83511312,3.49906908 3.5438914,2.87898089 4.34126697,3.01185693 C4.87285068,3.10044096 5.27153846,3.5433611 5.36013575,4.03057325 C5.53733032,4.87212151 4.91714932,5.58079373 4.11977376,5.58079373 Z" id="_x3C_Path_x3E_"></path>
                        </g>
                    </g>
                    <path d="M52.092,24.94 L58.308,24.94 L58.308,32.32 C57.4119955,32.9760033 56.4580051,33.4519985 55.446,33.748 C54.4339949,34.0440015 53.3760055,34.192 52.272,34.192 C50.8319928,34.192 49.5220059,33.9660023 48.342,33.514 C47.1619941,33.0619977 46.1520042,32.438004 45.312,31.642 C44.4719958,30.845996 43.8240023,29.9020055 43.368,28.81 C42.9119977,27.7179945 42.684,26.5320064 42.684,25.252 C42.684,23.9479935 42.8999978,22.7500055 43.332,21.658 C43.7640022,20.5659945 44.381996,19.624004 45.186,18.832 C45.990004,18.039996 46.9619943,17.4240022 48.102,16.984 C49.2420057,16.5439978 50.515993,16.324 51.924,16.324 C52.6520036,16.324 53.3359968,16.3839994 53.976,16.504 C54.6160032,16.6240006 55.2059973,16.787999 55.746,16.996 C56.2860027,17.204001 56.7799978,17.4519986 57.228,17.74 C57.6760022,18.0280014 58.0759982,18.3399983 58.428,18.676 L57.252,20.464 C57.0679991,20.7440014 56.8300015,20.9159997 56.538,20.98 C56.2459985,21.0440003 55.9320017,20.972001 55.596,20.764 C55.2759984,20.571999 54.9740014,20.4060007 54.69,20.266 C54.4059986,20.1259993 54.1160015,20.0120004 53.82,19.924 C53.5239985,19.8359996 53.2120016,19.7720002 52.884,19.732 C52.5559984,19.6919998 52.188002,19.672 51.78,19.672 C51.0199962,19.672 50.336003,19.8059987 49.728,20.074 C49.119997,20.3420013 48.6020021,20.7199976 48.174,21.208 C47.7459979,21.6960024 47.4160012,22.2819966 47.184,22.966 C46.9519988,23.6500034 46.836,24.4119958 46.836,25.252 C46.836,26.1800046 46.9639987,27.0039964 47.22,27.724 C47.4760013,28.4440036 47.8379977,29.0519975 48.306,29.548 C48.7740023,30.0440025 49.3339967,30.4219987 49.986,30.682 C50.6380033,30.9420013 51.359996,31.072 52.152,31.072 C52.6400024,31.072 53.081998,31.0240005 53.478,30.928 C53.874002,30.8319995 54.2599981,30.7040008 54.636,30.544 L54.636,27.892 L52.908,27.892 C52.6519987,27.892 52.4520007,27.8240007 52.308,27.688 C52.1639993,27.5519993 52.092,27.380001 52.092,27.172 L52.092,24.94 Z M64.404,21.556 L64.404,34 L60.684,34 L60.684,21.556 L64.404,21.556 Z M64.788,18.148 C64.788,18.4440015 64.7280006,18.7219987 64.608,18.982 C64.4879994,19.2420013 64.324001,19.469999 64.116,19.666 C63.907999,19.862001 63.6660014,20.0179994 63.39,20.134 C63.1139986,20.2500006 62.8200016,20.308 62.508,20.308 C62.2039985,20.308 61.9200013,20.2500006 61.656,20.134 C61.3919987,20.0179994 61.158001,19.862001 60.954,19.666 C60.749999,19.469999 60.5900006,19.2420013 60.474,18.982 C60.3579994,18.7219987 60.3,18.4440015 60.3,18.148 C60.3,17.8439985 60.3579994,17.5600013 60.474,17.296 C60.5900006,17.0319987 60.749999,16.800001 60.954,16.6 C61.158001,16.399999 61.3919987,16.2440006 61.656,16.132 C61.9200013,16.0199994 62.2039985,15.964 62.508,15.964 C62.8200016,15.964 63.1139986,16.0199994 63.39,16.132 C63.6660014,16.2440006 63.907999,16.399999 64.116,16.6 C64.324001,16.800001 64.4879994,17.0319987 64.608,17.296 C64.7280006,17.5600013 64.788,17.8439985 64.788,18.148 Z M71.46,34.192 C70.867997,34.192 70.3460023,34.1060009 69.894,33.934 C69.4419977,33.7619991 69.0620015,33.5180016 68.754,33.202 C68.4459985,32.8859984 68.2120008,32.5040022 68.052,32.056 C67.8919992,31.6079978 67.812,31.1080028 67.812,30.556 L67.812,24.124 L66.756,24.124 C66.563999,24.124 66.4000007,24.0620006 66.264,23.938 C66.1279993,23.8139994 66.06,23.6320012 66.06,23.392 L66.06,21.94 L68.04,21.556 L68.772,18.52 C68.8680005,18.1359981 69.1399978,17.944 69.588,17.944 L71.532,17.944 L71.532,21.58 L74.616,21.58 L74.616,24.124 L71.532,24.124 L71.532,30.304 C71.532,30.5920014 71.6019993,30.8299991 71.742,31.018 C71.8820007,31.2060009 72.0839987,31.3 72.348,31.3 C72.4840007,31.3 72.5979995,31.2860001 72.69,31.258 C72.7820005,31.2299999 72.8619997,31.1980002 72.93,31.162 C72.9980003,31.1259998 73.0619997,31.0940001 73.122,31.066 C73.1820003,31.0379999 73.2519996,31.024 73.332,31.024 C73.4440006,31.024 73.5339997,31.0499997 73.602,31.102 C73.6700003,31.1540003 73.7399996,31.2359994 73.812,31.348 L74.94,33.112 C74.4599976,33.4720018 73.920003,33.7419991 73.32,33.922 C72.719997,34.1020009 72.1000032,34.192 71.46,34.192 Z M97.464,16.516 L97.464,34 L95.352,34 C95.0399984,34 94.7780011,33.9500005 94.566,33.85 C94.3539989,33.7499995 94.144001,33.5760012 93.936,33.328 L85.692,22.9 C85.7240002,23.2120016 85.7459999,23.5139985 85.758,23.806 C85.7700001,24.0980015 85.776,24.3719987 85.776,24.628 L85.776,34 L82.2,34 L82.2,16.516 L84.336,16.516 C84.5120009,16.516 84.6599994,16.5239999 84.78,16.54 C84.9000006,16.5560001 85.0079995,16.5859998 85.104,16.63 C85.2000005,16.6740002 85.2919996,16.7359996 85.38,16.816 C85.4680004,16.8960004 85.5679994,17.0039993 85.68,17.14 L93.996,27.64 C93.9559998,27.3039983 93.9280001,26.9780016 93.912,26.662 C93.8959999,26.3459984 93.888,26.0480014 93.888,25.768 L93.888,16.516 L97.464,16.516 Z M106.836,28.936 C106.091996,28.9680002 105.480002,29.0319995 105,29.128 C104.519998,29.2240005 104.140001,29.3439993 103.86,29.488 C103.579999,29.6320007 103.386001,29.7959991 103.278,29.98 C103.169999,30.1640009 103.116,30.3639989 103.116,30.58 C103.116,31.0040021 103.231999,31.3019991 103.464,31.474 C103.696001,31.6460009 104.035998,31.732 104.484,31.732 C104.964002,31.732 105.383998,31.6480008 105.744,31.48 C106.104002,31.3119992 106.467998,31.0400019 106.836,30.664 L106.836,28.936 Z M100.14,23.284 C100.892004,22.6199967 101.725995,22.1260016 102.642,21.802 C103.558005,21.4779984 104.539995,21.316 105.588,21.316 C106.340004,21.316 107.017997,21.4379988 107.622,21.682 C108.226003,21.9260012 108.737998,22.2659978 109.158,22.702 C109.578002,23.1380022 109.899999,23.655997 110.124,24.256 C110.348001,24.856003 110.46,25.5119964 110.46,26.224 L110.46,34 L108.756,34 C108.403998,34 108.138001,33.9520005 107.958,33.856 C107.777999,33.7599995 107.628001,33.5600015 107.508,33.256 L107.244,32.572 C106.931998,32.8360013 106.632001,33.067999 106.344,33.268 C106.055999,33.468001 105.758002,33.6379993 105.45,33.778 C105.141998,33.9180007 104.814002,34.0219997 104.466,34.09 C104.117998,34.1580003 103.732002,34.192 103.308,34.192 C102.739997,34.192 102.224002,34.1180007 101.76,33.97 C101.295998,33.8219993 100.902002,33.6040014 100.578,33.316 C100.253998,33.0279986 100.004001,32.6700021 99.828,32.242 C99.6519991,31.8139979 99.564,31.3200028 99.564,30.76 C99.564,30.3119978 99.6759989,29.8580023 99.9,29.398 C100.124001,28.9379977 100.511997,28.5180019 101.064,28.138 C101.616003,27.7579981 102.359995,27.4400013 103.296,27.184 C104.232005,26.9279987 105.411993,26.7840002 106.836,26.752 L106.836,26.224 C106.836,25.4959964 106.686002,24.9700016 106.386,24.646 C106.085998,24.3219984 105.660003,24.16 105.108,24.16 C104.667998,24.16 104.308001,24.2079995 104.028,24.304 C103.747999,24.4000005 103.498001,24.5079994 103.278,24.628 C103.057999,24.7480006 102.844001,24.8559995 102.636,24.952 C102.427999,25.0480005 102.180001,25.096 101.892,25.096 C101.635999,25.096 101.420001,25.0320006 101.244,24.904 C101.067999,24.7759994 100.924001,24.6240009 100.812,24.448 L100.14,23.284 Z M126.288,34 L122.568,34 L122.568,24.124 L117.36,24.124 L117.36,30.304 C117.36,30.5920014 117.429999,30.8299991 117.57,31.018 C117.710001,31.2060009 117.911999,31.3 118.176,31.3 C118.312001,31.3 118.426,31.2860001 118.518,31.258 C118.61,31.2299999 118.69,31.1980002 118.758,31.162 C118.826,31.1259998 118.89,31.0940001 118.95,31.066 C119.01,31.0379999 119.08,31.024 119.16,31.024 C119.272001,31.024 119.362,31.0499997 119.43,31.102 C119.498,31.1540003 119.568,31.2359994 119.64,31.348 L120.768,33.112 C120.287998,33.4720018 119.748003,33.7419991 119.148,33.922 C118.547997,34.1020009 117.928003,34.192 117.288,34.192 C116.695997,34.192 116.174002,34.1060009 115.722,33.934 C115.269998,33.7619991 114.890002,33.5180016 114.582,33.202 C114.273998,32.8859984 114.040001,32.5040022 113.88,32.056 C113.719999,31.6079978 113.64,31.1080028 113.64,30.556 L113.64,24.124 L112.584,24.124 C112.391999,24.124 112.228001,24.0620006 112.092,23.938 C111.955999,23.8139994 111.888,23.6320012 111.888,23.392 L111.888,21.94 L113.868,21.544 L114.6,18.52 C114.696,18.1359981 114.967998,17.944 115.416,17.944 L117.36,17.944 L117.36,21.58 L126.288,21.58 L126.288,34 Z M126.804,18.136 C126.804,18.4320015 126.744001,18.7119987 126.624,18.976 C126.503999,19.2400013 126.340001,19.469999 126.132,19.666 C125.923999,19.862001 125.682001,20.0159994 125.406,20.128 C125.129999,20.2400006 124.836002,20.296 124.524,20.296 C124.219998,20.296 123.936001,20.2400006 123.672,20.128 C123.407999,20.0159994 123.174001,19.862001 122.97,19.666 C122.765999,19.469999 122.606001,19.2400013 122.49,18.976 C122.373999,18.7119987 122.316,18.4320015 122.316,18.136 C122.316,17.8399985 122.373999,17.5580013 122.49,17.29 C122.606001,17.0219987 122.765999,16.790001 122.97,16.594 C123.174001,16.397999 123.407999,16.2420006 123.672,16.126 C123.936001,16.0099994 124.219998,15.952 124.524,15.952 C124.836002,15.952 125.129999,16.0099994 125.406,16.126 C125.682001,16.2420006 125.923999,16.397999 126.132,16.594 C126.340001,16.790001 126.503999,17.0219987 126.624,17.29 C126.744001,17.5580013 126.804,17.8399985 126.804,18.136 Z M134.628,21.364 C135.572005,21.364 136.431996,21.5119985 137.208,21.808 C137.984004,22.1040015 138.649997,22.5279972 139.206,23.08 C139.762003,23.6320028 140.193998,24.3019961 140.502,25.09 C140.810002,25.8780039 140.964,26.7639951 140.964,27.748 C140.964,28.740005 140.810002,29.633996 140.502,30.43 C140.193998,31.226004 139.762003,31.9019972 139.206,32.458 C138.649997,33.0140028 137.984004,33.4419985 137.208,33.742 C136.431996,34.0420015 135.572005,34.192 134.628,34.192 C133.675995,34.192 132.810004,34.0420015 132.03,33.742 C131.249996,33.4419985 130.578003,33.0140028 130.014,32.458 C129.449997,31.9019972 129.014002,31.226004 128.706,30.43 C128.397998,29.633996 128.244,28.740005 128.244,27.748 C128.244,26.7639951 128.397998,25.8780039 128.706,25.09 C129.014002,24.3019961 129.449997,23.6320028 130.014,23.08 C130.578003,22.5279972 131.249996,22.1040015 132.03,21.808 C132.810004,21.5119985 133.675995,21.364 134.628,21.364 Z M134.628,31.432 C135.484004,31.432 136.113998,31.130003 136.518,30.526 C136.922002,29.921997 137.124,29.0040062 137.124,27.772 C137.124,26.5399938 136.922002,25.624003 136.518,25.024 C136.113998,24.423997 135.484004,24.124 134.628,24.124 C133.747996,24.124 133.104002,24.423997 132.696,25.024 C132.287998,25.624003 132.084,26.5399938 132.084,27.772 C132.084,29.0040062 132.287998,29.921997 132.696,30.526 C133.104002,31.130003 133.747996,31.432 134.628,31.432 Z M146.268,22.9 C146.508001,22.6759989 146.755999,22.468001 147.012,22.276 C147.268001,22.083999 147.541999,21.9220007 147.834,21.79 C148.126001,21.6579993 148.441998,21.5540004 148.782,21.478 C149.122002,21.4019996 149.491998,21.364 149.892,21.364 C150.572003,21.364 151.173997,21.4819988 151.698,21.718 C152.222003,21.9540012 152.663998,22.2819979 153.024,22.702 C153.384002,23.1220021 153.655999,23.6219971 153.84,24.202 C154.024001,24.7820029 154.116,25.4119966 154.116,26.092 L154.116,34 L150.396,34 L150.396,26.092 C150.396,25.483997 150.256001,25.0100017 149.976,24.67 C149.695999,24.3299983 149.284003,24.16 148.74,24.16 C148.331998,24.16 147.950002,24.2459991 147.594,24.418 C147.237998,24.5900009 146.892002,24.8239985 146.556,25.12 L146.556,34 L142.836,34 L142.836,21.556 L145.14,21.556 C145.604002,21.556 145.907999,21.7639979 146.052,22.18 L146.268,22.9 Z" id="Git-Nation"></path>
                </g>
            </g>
        </g>
    </g>
</svg>