<?xml version="1.0" encoding="UTF-8"?>
<svg width="14px" height="14px" viewBox="0 0 14 14" version="1.1" xmlns="http://www.w3.org/2000/svg" xmlns:xlink="http://www.w3.org/1999/xlink">
    <!-- Generator: Sketch 52.2 (67145) - http://www.bohemiancoding.com/sketch -->
    <title>instagram</title>
    <desc>Created with Sketch.</desc>
    <g id="RDB-Web-Design" stroke="none" stroke-width="1" fill="none" fill-rule="evenodd">
        <g id="React-day-Berlin-2018-tab" transform="translate(-717.000000, -11039.000000)" fill="#FFFFFF">
            <g id="footer" transform="translate(0.000000, 11000.000000)">
                <g id="Group-4" transform="translate(620.000000, 30.000000)">
                    <g id="Group-7" transform="translate(88.000000, 0.000000)">
                        <path d="M15.9999833,12.4062419 C16.6458153,12.4062419 17.2447719,12.5677 17.796854,12.8906157 C18.3489362,13.2135315 18.7864352,13.6510304 19.1093509,14.2031126 C19.4322666,14.7551948 19.5937247,15.3541514 19.5937247,15.9999833 C19.5937247,16.6458153 19.4322666,17.2447719 19.1093509,17.796854 C18.7864352,18.3489362 18.3489362,18.7864352 17.796854,19.1093509 C17.2447719,19.4322666 16.6458153,19.5937247 15.9999833,19.5937247 C15.3541514,19.5937247 14.7551948,19.4322666 14.2031126,19.1093509 C13.6510304,18.7864352 13.2135315,18.3489362 12.8906157,17.796854 C12.5677,17.2447719 12.4062419,16.6458153 12.4062419,15.9999833 C12.4062419,15.3541514 12.5677,14.7551948 12.8906157,14.2031126 C13.2135315,13.6510304 13.6510304,13.2135315 14.2031126,12.8906157 C14.7551948,12.5677 15.3541514,12.4062419 15.9999833,12.4062419 Z M15.9999833,18.3437277 C16.6458153,18.3437277 17.197897,18.1145618 17.6562294,17.6562294 C18.1145618,17.197897 18.3437277,16.6458153 18.3437277,15.9999833 C18.3437277,15.3541514 18.1145618,14.8020697 17.6562294,14.3437373 C17.197897,13.8854049 16.6458153,13.6562389 15.9999833,13.6562389 C15.3541514,13.6562389 14.8020697,13.8854049 14.3437373,14.3437373 C13.8854049,14.8020697 13.6562389,15.3541514 13.6562389,15.9999833 C13.6562389,16.6458153 13.8854049,17.197897 14.3437373,17.6562294 C14.8020697,18.1145618 15.3541514,18.3437277 15.9999833,18.3437277 Z M20.5937224,12.2499923 C20.5728889,12.4791582 20.4843476,12.6770747 20.328098,12.8437408 C20.1718484,13.0104069 19.9791403,13.0937402 19.7499744,13.0937402 C19.5208084,13.0937402 19.3228919,13.0104069 19.1562258,12.8437408 C18.9895597,12.6770747 18.9062264,12.4791582 18.9062264,12.2499923 C18.9062264,12.0208263 18.9895597,11.8229098 19.1562258,11.6562437 C19.3228919,11.4895776 19.5208084,11.4062443 19.7499744,11.4062443 C19.9791403,11.4062443 20.1770568,11.4895776 20.343723,11.6562437 C20.5103891,11.8229098 20.5937224,12.0208263 20.5937224,12.2499923 Z M22.96875,13.0937402 C22.9895835,13.6770723 23,14.64582 23,15.9999833 C23,17.3541466 22.984375,18.3281028 22.953125,18.9218513 C22.921875,19.5155999 22.8333335,20.0312237 22.6875,20.4687227 C22.5,20.9895549 22.2135415,21.4426788 21.828125,21.8280944 C21.4427085,22.21351 20.9895835,22.4999678 20.46875,22.6874674 C20.03125,22.8333005 19.515625,22.9218418 18.921875,22.9530917 C18.328125,22.9843417 17.3541665,22.9999666 16,22.9999666 C14.6458335,22.9999666 13.671875,22.9843417 13.078125,22.9530917 C12.484375,22.9218418 11.96875,22.8228836 11.53125,22.6562174 C11.0104165,22.4895513 10.5572915,22.21351 10.171875,21.8280944 C9.78645849,21.4426788 9.5,20.9895549 9.3125,20.4687227 C9.16666651,20.0312237 9.078125,19.5155999 9.046875,18.9218513 C9.015625,18.3281028 9,17.3541466 9,15.9999833 C9,14.64582 9.015625,13.6718639 9.046875,13.0781153 C9.078125,12.4843667 9.16666651,11.9687429 9.3125,11.531244 C9.5,11.0104117 9.78645849,10.5572878 10.171875,10.1718722 C10.5572915,9.78645662 11.0104165,9.49999881 11.53125,9.31249925 C11.96875,9.16666611 12.484375,9.07812481 13.078125,9.04687489 C13.671875,9.01562496 14.6458335,9 16,9 C17.3541665,9 18.328125,9.01562496 18.921875,9.04687489 C19.515625,9.07812481 20.03125,9.16666611 20.46875,9.31249925 C20.9895835,9.49999881 21.4427085,9.78645662 21.828125,10.1718722 C22.2135415,10.5572878 22.5,11.0104117 22.6875,11.531244 C22.8333335,11.9687429 22.9270835,12.4895752 22.96875,13.0937402 Z M21.4687203,20.1249735 C21.59372,19.7708078 21.6770533,19.2083092 21.7187197,18.4374775 C21.7395531,17.9791451 21.7499696,17.3333136 21.7499696,16.4999821 L21.7499696,15.4999845 C21.7499696,14.64582 21.7395531,13.9999881 21.7187197,13.5624891 C21.6770533,12.7708245 21.59372,12.2083258 21.4687203,11.8749931 C21.2187209,11.2291612 20.7708054,10.7812458 20.1249735,10.5312463 C19.7916408,10.4062466 19.2291421,10.3229134 18.4374775,10.2812469 C17.9791451,10.2604135 17.3333136,10.249997 16.4999821,10.249997 L15.4999845,10.249997 C14.666653,10.249997 14.0208215,10.2604135 13.5624891,10.2812469 C12.7916575,10.3229134 12.2291588,10.4062466 11.8749931,10.5312463 C11.2291612,10.7812458 10.7812458,11.2291612 10.5312463,11.8749931 C10.4062466,12.2083258 10.3229134,12.7708245 10.2812469,13.5624891 C10.2604135,14.0208215 10.249997,14.666653 10.249997,15.4999845 L10.249997,16.4999821 C10.249997,17.3333136 10.2604135,17.9791451 10.2812469,18.4374775 C10.3229134,19.2083092 10.4062466,19.7708078 10.5312463,20.1249735 C10.8020792,20.7708054 11.2499946,21.2187209 11.8749931,21.4687203 C12.2291588,21.59372 12.7916575,21.6770533 13.5624891,21.7187197 C14.0208215,21.7395531 14.666653,21.7499696 15.4999845,21.7499696 L16.4999821,21.7499696 C17.3541466,21.7499696 17.9999785,21.7395531 18.4374775,21.7187197 C19.2291421,21.6770533 19.7916408,21.59372 20.1249735,21.4687203 C20.7708054,21.1978874 21.2187209,20.749972 21.4687203,20.1249735 Z" id="instagram"></path>
                    </g>
                </g>
            </g>
        </g>
    </g>
</svg>