<?xml version="1.0" encoding="UTF-8"?>
<svg width="16px" height="12px" viewBox="0 0 16 12" version="1.1" xmlns="http://www.w3.org/2000/svg" xmlns:xlink="http://www.w3.org/1999/xlink">
    <!-- Generator: Sketch 52.2 (67145) - http://www.bohemiancoding.com/sketch -->
    <title>Medium</title>
    <desc>Created with Sketch.</desc>
    <g id="RDB-Web-Design" stroke="none" stroke-width="1" fill="none" fill-rule="evenodd">
        <g id="React-day-Berlin-2018-web" transform="translate(-1237.000000, -42.000000)" fill="#FFFFFF">
            <g id="1-Screen" transform="translate(-12.000000, -4.000000)">
                <g id="header" transform="translate(147.000000, 20.000000)">
                    <g id="social" transform="translate(960.000000, 17.000000)">
                        <g id="medium" transform="translate(135.000000, 0.000000)">
                            <path d="M22.4054054,19.125 L21.7961216,19.125 C21.5699189,19.125 21.25,18.807275 21.25,18.6038625 L21.25,11.23125 C21.25,11.0275875 21.5699189,10.75 21.7961216,10.75 L22.4054054,10.75 L22.4054054,9 L16.8851351,9 L16.8851351,10.75 L18.0405405,10.75 L18.0405405,18.5 L17.9839257,18.5 L15.285823,9 L13.1969142,9 L10.5336149,18.5 L10.4662162,18.5 L10.4662162,10.75 L11.6216216,10.75 L11.6216216,9 L7,9 L7,10.75 L7.5917948,10.75 C7.83551216,10.75 8.15540541,11.0275875 8.15540541,11.23125 L8.15540541,18.6038625 C8.15540541,18.807275 7.83551216,19.125 7.5917948,19.125 L7,19.125 L7,20.875 L12.7791324,20.875 L14.6765264,14 L14.728725,14 L16.6436682,20.875 L22.4054054,20.875 L22.4054054,19.125" id="Medium" transform="translate(14.702703, 14.937500) scale(1, -1) translate(-14.702703, -14.937500) "></path>
                        </g>
                    </g>
                </g>
            </g>
        </g>
    </g>
</svg>