<?xml version="1.0" encoding="UTF-8"?>
<svg width="15px" height="12px" viewBox="0 0 15 12" version="1.1" xmlns="http://www.w3.org/2000/svg" xmlns:xlink="http://www.w3.org/1999/xlink">
    <!-- Generator: Sketch 52.2 (67145) - http://www.bohemiancoding.com/sketch -->
    <title>twitter</title>
    <desc>Created with Sketch.</desc>
    <g id="RDB-Web-Design" stroke="none" stroke-width="1" fill="none" fill-rule="evenodd">
        <g id="React-day-Berlin-2018-web" transform="translate(-1148.000000, -42.000000)" fill="#FFFFFF">
            <g id="1-Screen" transform="translate(-12.000000, -4.000000)">
                <g id="header" transform="translate(147.000000, 20.000000)">
                    <g id="social" transform="translate(960.000000, 17.000000)">
                        <g id="tw" transform="translate(45.000000, 0.000000)">
                            <path d="M21.2404162,12 C21.2596471,12.0769232 21.2692624,12.2019231 21.2692624,12.375 C21.2692624,13.7596154 20.932723,15.0961537 20.2596446,16.3846154 C19.5673353,17.7499999 18.596179,18.8365385 17.3461761,19.6442308 C15.9807884,20.5480768 14.4134767,21 12.6442418,21 C10.95193,21 9.40384965,20.5480768 8,19.6442308 C8.21153882,19.6634617 8.4519243,19.6730769 8.72115557,19.6730769 C10.1250052,19.6730769 11.3846233,19.2403846 12.5000107,18.375 C11.8269323,18.375 11.2355848,18.1778848 10.725968,17.7836538 C10.2163513,17.3894229 9.86538921,16.8942309 9.67308091,16.2980769 C9.86538921,16.3173078 10.0480818,16.3269231 10.2211591,16.3269231 C10.4903904,16.3269231 10.7596221,16.2980769 11.0288534,16.2403846 C10.336544,16.0865386 9.75961958,15.7307691 9.29808002,15.1730769 C8.83654046,14.6153848 8.60577068,13.9807694 8.60577068,13.2692308 L8.60577068,13.2115385 C9.02884875,13.4615386 9.48077261,13.5961537 9.96154314,13.6153846 C9.55769602,13.3269231 9.23077231,12.9615383 8.98077157,12.5192308 C8.73077083,12.0769232 8.60577068,11.591346 8.60577068,11.0625 C8.60577068,10.533654 8.75000179,10.0288463 9.03846401,9.54807692 C9.7884658,10.4903848 10.7067371,11.2403848 11.7932783,11.7980769 C12.8798195,12.3557691 14.0384758,12.6634615 15.2692481,12.7211538 C15.2307866,12.4903846 15.2115557,12.2596154 15.2115557,12.0288462 C15.2115557,11.4903845 15.3461715,10.9855768 15.6154028,10.5144231 C15.884634,10.0432694 16.2500197,9.67307678 16.7115592,9.40384615 C17.1730988,9.13461553 17.6730998,9 18.2115628,9 C18.6538714,9 19.0625264,9.08653846 19.4375273,9.25961538 C19.8125282,9.43269231 20.1442597,9.66346154 20.4327219,9.95192308 C21.1250313,9.81730755 21.7692635,9.57692308 22.3654189,9.23076923 C22.1346491,9.94230784 21.6923405,10.5 21.0384926,10.9038462 C21.6154171,10.8269229 22.1923415,10.6634617 22.769266,10.4134615 C22.3461879,11.028846 21.8365716,11.5576925 21.2404162,12 Z" id="twitter"></path>
                        </g>
                    </g>
                </g>
            </g>
        </g>
    </g>
</svg>