<?xml version="1.0" encoding="UTF-8"?>
<svg width="17px" height="12px" viewBox="0 0 17 12" version="1.1" xmlns="http://www.w3.org/2000/svg" xmlns:xlink="http://www.w3.org/1999/xlink">
    <!-- Generator: Sketch 52.2 (67145) - http://www.bohemiancoding.com/sketch -->
    <title>Youtube</title>
    <desc>Created with Sketch.</desc>
    <g id="RDB-Web-Design" stroke="none" stroke-width="1" fill="none" fill-rule="evenodd">
        <g id="React-day-Berlin-2018-web" transform="translate(-1282.000000, -42.000000)" fill="#FFFFFF">
            <g id="1-Screen" transform="translate(-12.000000, -4.000000)">
                <g id="header" transform="translate(147.000000, 20.000000)">
                    <g id="social" transform="translate(960.000000, 17.000000)">
                        <g id="youtube" transform="translate(180.000000, 0.000000)">
                            <path d="M13.7214118,17.2129115 L13.7208824,12.4192029 L18.2981765,14.8243213 L13.7214118,17.2129115 Z M23.7717647,11.588528 C23.7717647,11.588528 23.6060588,10.4128938 23.0983529,9.89518816 C22.4540588,9.21539965 21.7319412,9.21220065 21.4010588,9.17274626 C19.0303529,9 15.4742941,9 15.4742941,9 L15.4668824,9 C15.4668824,9 11.9108235,9 9.54011765,9.17274626 C9.20870588,9.21220065 8.48711765,9.21539965 7.84229412,9.89518816 C7.33458824,10.4128938 7.16941176,11.588528 7.16941176,11.588528 C7.16941176,11.588528 7,12.9694317 7,14.3498023 L7,15.6443329 C7,17.0252366 7.16941176,18.4056071 7.16941176,18.4056071 C7.16941176,18.4056071 7.33458824,19.5812414 7.84229412,20.098947 C8.48711765,20.7787355 9.33364706,20.7574088 9.71058824,20.8283201 C11.0658824,20.9594793 15.4705882,21 15.4705882,21 C15.4705882,21 19.0303529,20.9946683 21.4010588,20.8219221 C21.7319412,20.7819345 22.4540588,20.7787355 23.0983529,20.098947 C23.6060588,19.5812414 23.7717647,18.4056071 23.7717647,18.4056071 C23.7717647,18.4056071 23.9411765,17.0252366 23.9411765,15.6443329 L23.9411765,14.3498023 C23.9411765,12.9694317 23.7717647,11.588528 23.7717647,11.588528 L23.7717647,11.588528 Z" id="Youtube"></path>
                        </g>
                    </g>
                </g>
            </g>
        </g>
    </g>
</svg>