<?xml version="1.0" encoding="utf-8"?>
<!-- Generator: Adobe Illustrator 23.0.5, SVG Export Plug-In . SVG Version: 6.00 Build 0)  -->
<svg version="1.1" id="Layer_1" xmlns="http://www.w3.org/2000/svg" xmlns:xlink="http://www.w3.org/1999/xlink" x="0px" y="0px"
	 viewBox="0 0 850.6 313.3" style="enable-background:new 0 0 850.6 313.3;" xml:space="preserve">
<style type="text/css">
	.st0{fill:none;}
	.st1{fill:#192135;}
</style>
<g>
	<path class="st0" d="M267.6,127.4c-20.3-6.5-28.1-10.5-31.5-12.4c-3.5,2-11.2,6-31.5,12.4c0,2.3-1.3,72.4,31.5,72.5
		C268.9,200,267.6,129.8,267.6,127.4z M220.1,156.4c-2-0.4-3.9-1.4-5.4-2.9c-1.5-1.5-2.5-3.4-2.9-5.4c-0.4-2-0.2-4.2,0.6-6.1
		c0.8-1.9,2.1-3.6,3.9-4.7c1.7-1.2,3.8-1.8,5.9-1.8c2.8,0,5.5,1.1,7.5,3.1c2,2,3.1,4.7,3.1,7.5c0,2.1-0.6,4.1-1.8,5.9
		c-1.2,1.7-2.8,3.1-4.7,3.9C224.3,156.6,222.2,156.8,220.1,156.4z M251.1,174.3c-0.1,3.8-1.7,7.4-4.4,10.1
		c-2.7,2.7-6.4,4.2-10.2,4.2c-3.8,0-7.5-1.5-10.2-4.2c-2.7-2.7-4.3-6.3-4.4-10.1v-0.2h7.4v0.2c0,1,0.2,1.9,0.6,2.8
		c0.4,0.9,0.9,1.7,1.6,2.4c0.7,0.7,1.5,1.2,2.4,1.6c0.9,0.4,1.8,0.6,2.8,0.5h0c1.9,0,3.8-0.8,5.1-2.1c1.4-1.4,2.1-3.2,2.1-5.1v-0.2
		h7.4C251.1,174.1,251.1,174.2,251.1,174.3z M259.8,149.3h-20.4v-7.1h20.4V149.3z"/>
	<path class="st0" d="M189.6,219c-3.5,2-11.2,6-31.6,12.4c0,2.3-1.3,72.4,31.6,72.5c32.8,0.1,31.5-70.2,31.5-72.5
		C200.8,225,193,220.9,189.6,219z M174.4,262.5l-5-5l7.5-7.5l-7.5-7.5l5-5l12.5,12.6L174.4,262.5z M204.6,278.2
		c-0.1,3.8-1.7,7.4-4.4,10.1c-2.7,2.7-6.4,4.2-10.2,4.2c-3.8,0-7.5-1.5-10.2-4.2c-2.7-2.7-4.3-6.3-4.4-10.1V278h7.4v0.2
		c0,1.9,0.8,3.8,2.1,5.1c1.4,1.4,3.2,2.1,5.1,2.1h0c1,0,1.9-0.2,2.8-0.5c0.9-0.4,1.7-0.9,2.4-1.6c0.7-0.7,1.2-1.5,1.6-2.4
		c0.4-0.9,0.6-1.8,0.6-2.8V278h7.4V278.2z M198.9,262.6l-5-5l7.5-7.5l-7.5-7.5l5-5l12.5,12.6L198.9,262.6z"/>
	<path class="st0" d="M172.7,127.4c-20.3-6.5-28.1-10.5-31.5-12.4c-3.5,2-11.2,6-31.5,12.4c0,2.3-1.3,72.4,31.5,72.5
		C174,200,172.7,129.7,172.7,127.4z M123.5,155.8l-5-5l4.7-4.7l-4.7-4.7l5-5l4.7,4.7l4.7-4.7l5,5l-4.7,4.7l4.7,4.7l-5,5l-4.7-4.7
		L123.5,155.8z M155.9,183.7h-7.4v-0.2c0-1-0.2-1.9-0.6-2.8c-0.4-0.9-0.9-1.7-1.6-2.4c-0.7-0.7-1.5-1.2-2.4-1.6
		c-0.9-0.4-1.8-0.5-2.8-0.5c-1,0-1.9,0.2-2.8,0.5c-0.9,0.4-1.7,0.9-2.4,1.6c-0.7,0.7-1.2,1.5-1.6,2.4c-0.4,0.9-0.6,1.8-0.6,2.8v0.2
		h-7.4v-0.2c0.1-3.8,1.7-7.4,4.4-10.1c2.7-2.7,6.4-4.2,10.2-4.2c3.8,0,7.5,1.5,10.2,4.2c2.7,2.7,4.3,6.3,4.4,10.1V183.7z
		 M163.7,150.8l-5,5l-4.7-4.7l-4.7,4.7l-5-5l4.7-4.7l-4.7-4.7l5-5l4.7,4.7l4.7-4.7l5,5l-4.7,4.7L163.7,150.8z"/>
	<polygon class="st0" points="141.2,176.2 141.2,176.2 141.2,176.2 	"/>
	<path class="st0" d="M225.2,147.3c0.3-0.6,0.3-1.3,0.2-1.9c-0.1-0.7-0.5-1.2-0.9-1.7c-0.5-0.5-1.1-0.8-1.7-0.9
		c-0.6-0.1-1.3-0.1-1.9,0.2c-0.6,0.3-1.1,0.7-1.5,1.2c-0.4,0.6-0.6,1.2-0.6,1.9c0,0.4,0.1,0.9,0.3,1.3c0.2,0.4,0.4,0.8,0.7,1.1
		c0.3,0.3,0.7,0.6,1.1,0.7s0.8,0.3,1.3,0.3c0.7,0,1.3-0.2,1.9-0.6C224.6,148.5,225,147.9,225.2,147.3z"/>
	<path class="st0" d="M78.6,127.4C58.2,121,50.5,117,47,115c-3.5,2-11.2,6-31.5,12.4c0,2.3-1.3,72.4,31.5,72.5
		C79.9,200,78.6,129.8,78.6,127.4z M21.1,142.3l5-5l7.4,7.5l7.5-7.5l5,5l-12.5,12.5L21.1,142.3z M56.3,184.1
		c-1.2,1.7-2.8,3.1-4.7,3.9c-1.9,0.8-4,1-6.1,0.6c-2-0.4-3.9-1.4-5.4-2.9c-1.5-1.5-2.5-3.3-2.9-5.4c-0.4-2-0.2-4.2,0.6-6.1
		c0.8-1.9,2.1-3.6,3.9-4.8s3.8-1.8,5.8-1.8c1.4,0,2.8,0.3,4,0.8c1.3,0.5,2.5,1.3,3.4,2.3c1,1,1.8,2.1,2.3,3.4c0.5,1.3,0.8,2.7,0.8,4
		C58.1,180.3,57.5,182.3,56.3,184.1z M62.2,154.9l-12.5-12.5l5-5l7.5,7.5l7.5-7.5l5,5L62.2,154.9z"/>
	<path class="st0" d="M94.7,219c-3.5,2-11.2,6-31.5,12.4c0,2.3-1.3,72.4,31.5,72.5c32.8,0.1,31.6-70.2,31.6-72.5
		C106,225,98.2,220.9,94.7,219z M78.9,260.4c-2-0.4-3.9-1.4-5.4-2.9c-1.5-1.5-2.5-3.4-2.9-5.4c-0.4-2-0.2-4.2,0.6-6.1
		c0.8-1.9,2.1-3.6,3.9-4.7c1.7-1.2,3.8-1.8,5.9-1.8c1.4,0,2.8,0.3,4,0.8c1.3,0.5,2.4,1.3,3.4,2.3c1,1,1.8,2.1,2.3,3.4
		c0.5,1.3,0.8,2.7,0.8,4c0,2.1-0.6,4.1-1.8,5.9c-1.2,1.7-2.8,3.1-4.7,3.9S80.9,260.8,78.9,260.4z M105,286.6H84.6v-7.1H105V286.6z
		 M117.2,255.9c-1.2,1.7-2.8,3.1-4.7,3.9c-1.9,0.8-4,1-6.1,0.6c-2-0.4-3.9-1.4-5.4-2.9c-1.5-1.5-2.5-3.4-2.9-5.4
		c-0.4-2-0.2-4.2,0.6-6.1c0.8-1.9,2.1-3.6,3.9-4.7c1.7-1.2,3.8-1.8,5.9-1.8c1.4,0,2.8,0.3,4,0.8c1.3,0.5,2.4,1.3,3.4,2.3
		c1,1,1.8,2.1,2.3,3.4c0.5,1.3,0.8,2.7,0.8,4C119,252.1,118.4,254.2,117.2,255.9z"/>
	<path class="st0" d="M49.9,175.8c-0.5-0.5-1.1-0.8-1.7-0.9c-0.7-0.1-1.3-0.1-1.9,0.2s-1.1,0.7-1.5,1.2c-0.4,0.6-0.6,1.2-0.6,1.9
		c0,0.9,0.4,1.7,1,2.4c0.6,0.6,1.5,1,2.4,1c0.7,0,1.3-0.2,1.9-0.6c0.6-0.4,1-0.9,1.2-1.5c0.3-0.6,0.3-1.3,0.2-1.9
		C50.7,176.9,50.3,176.3,49.9,175.8z"/>
	<path class="st0" d="M83.3,247.6c-0.5-0.5-1.1-0.8-1.7-0.9s-1.3-0.1-1.9,0.2c-0.6,0.3-1.1,0.7-1.5,1.2c-0.4,0.6-0.6,1.2-0.6,1.9
		c0,0.4,0.1,0.9,0.3,1.3c0.2,0.4,0.4,0.8,0.7,1.1c0.3,0.3,0.7,0.6,1.1,0.7c0.4,0.2,0.8,0.3,1.3,0.3c0.7,0,1.3-0.2,1.9-0.6
		c0.6-0.4,1-0.9,1.2-1.5c0.3-0.6,0.3-1.3,0.2-1.9S83.7,248.1,83.3,247.6z"/>
	<path class="st0" d="M0,95.3C0,95.3,0.1,95.3,0,95.3c32.9,0.1,31.6-70.2,31.6-72.5C11.3,16.4,3.6,12.4,0.1,10.4c0,0-0.1,0-0.1,0
		 M0,68.5L0,68.5l4.8-4.6l5,5l-4.7,4.7l4.7,4.7l-5,5l-4.7-4.7L0,78.7 M2.6,37.7l5-5l7.4,7.5l7.5-7.5l5,5L15,50.3L2.6,37.7z"/>
	<path class="st0" d="M110.8,247.6c-0.5-0.5-1.1-0.8-1.7-0.9c-0.7-0.1-1.3-0.1-1.9,0.2c-0.6,0.3-1.1,0.7-1.5,1.2
		c-0.4,0.6-0.6,1.2-0.6,1.9c0,0.4,0.1,0.9,0.3,1.3c0.2,0.4,0.4,0.8,0.7,1.1c0.3,0.3,0.7,0.6,1.1,0.7c0.4,0.2,0.8,0.3,1.3,0.3
		c0.7,0,1.3-0.2,1.9-0.6c0.6-0.4,1-0.9,1.2-1.5c0.3-0.6,0.3-1.3,0.2-1.9C111.6,248.7,111.3,248.1,110.8,247.6z"/>
	<path class="st0" d="M475.3,279.8c-0.5-0.5-1.1-0.8-1.7-0.9c-0.7-0.1-1.3-0.1-1.9,0.2c-0.6,0.3-1.1,0.7-1.5,1.2
		c-0.4,0.6-0.6,1.2-0.6,1.9c0,0.9,0.4,1.7,1,2.4c0.6,0.6,1.5,1,2.4,1c0.7,0,1.3-0.2,1.9-0.6c0.6-0.4,1-0.9,1.2-1.5
		c0.3-0.6,0.3-1.3,0.2-1.9C476.1,280.9,475.7,280.3,475.3,279.8z"/>
	<path class="st0" d="M286.8,279.8c-0.5-0.5-1.1-0.8-1.7-0.9c-0.7-0.1-1.3-0.1-1.9,0.2c-0.6,0.3-1.1,0.7-1.5,1.2
		c-0.4,0.6-0.6,1.2-0.6,1.9c0,0.9,0.4,1.7,1,2.4c0.6,0.6,1.5,1,2.4,1c0.7,0,1.3-0.2,1.9-0.6c0.6-0.4,1-0.9,1.2-1.5
		c0.3-0.6,0.3-1.3,0.2-1.9S287.2,280.3,286.8,279.8z"/>
	<path class="st0" d="M456.1,127.4c-20.3-6.5-28.1-10.5-31.5-12.4c-3.5,2-11.2,6-31.5,12.4c0,2.3-1.3,72.4,31.5,72.5
		C457.4,200,456.1,129.8,456.1,127.4z M408.6,156.4c-2-0.4-3.9-1.4-5.4-2.9c-1.5-1.5-2.5-3.4-2.9-5.4c-0.4-2-0.2-4.2,0.6-6.1
		c0.8-1.9,2.1-3.6,3.9-4.7c1.7-1.2,3.8-1.8,5.9-1.8c2.8,0,5.5,1.1,7.5,3.1c2,2,3.1,4.7,3.1,7.5c0,2.1-0.6,4.1-1.8,5.9
		c-1.2,1.7-2.8,3.1-4.7,3.9C412.8,156.6,410.7,156.8,408.6,156.4z M439.6,174.3c-0.1,3.8-1.7,7.4-4.4,10.1
		c-2.7,2.7-6.4,4.2-10.2,4.2c-3.8,0-7.5-1.5-10.2-4.2c-2.7-2.7-4.3-6.3-4.4-10.1v-0.2h7.4v0.2c0,1,0.2,1.9,0.6,2.8
		c0.4,0.9,0.9,1.7,1.6,2.4c0.7,0.7,1.5,1.2,2.4,1.6c0.9,0.4,1.8,0.5,2.7,0.5c0.9,0,1.9-0.2,2.7-0.5c0.9-0.4,1.7-0.9,2.4-1.6
		c0.7-0.7,1.2-1.5,1.6-2.4c0.4-0.9,0.6-1.8,0.6-2.8c0-0.1,0-0.2,0-0.2h7.5V174.3z M448.3,149.3h-20.4v-7.1h20.4V149.3z"/>
	<path class="st0" d="M472.9,219c-3.5,2-11.2,6-31.5,12.4c0,2.3-1.3,72.4,31.5,72.5c32.8,0.1,31.5-70.2,31.5-72.5
		C484.1,225,476.4,221,472.9,219z M450.3,250l12.5-12.6l5,5l-7.5,7.5l7.5,7.5l-5,5L450.3,250z M481.7,288.1
		c-1.2,1.7-2.8,3.1-4.7,3.9c-1.9,0.8-4,1-6.1,0.6c-2-0.4-3.9-1.4-5.4-2.9s-2.5-3.4-2.9-5.4c-0.4-2-0.2-4.2,0.6-6.1
		c0.8-1.9,2.1-3.6,3.9-4.7c1.7-1.2,3.8-1.8,5.9-1.8c2.8,0,5.5,1.1,7.5,3.1c2,2,3.1,4.7,3.1,7.5C483.5,284.3,482.8,286.3,481.7,288.1
		z M492.4,257.6l-5,5L474.8,250l12.5-12.6l5,5l-7.5,7.5L492.4,257.6z"/>
	<polygon class="st0" points="519,181.5 519,181.5 519,181.5 	"/>
	<path class="st0" d="M425,181.6C425,181.6,424.9,181.5,425,181.6c-0.1,0-0.1,0-0.1,0H425z"/>
	<path class="st0" d="M361.6,127.4c-20.3-6.5-28.1-10.5-31.5-12.4c-3.5,2-11.2,6-31.5,12.4c0,2.3-1.3,72.4,31.5,72.5
		C362.9,200,361.6,129.8,361.6,127.4z M314.9,158.6l-5-5l7.5-7.5l-7.5-7.5l5-5l12.5,12.6L314.9,158.6z M345.2,174.3
		c-0.1,3.8-1.7,7.4-4.4,10.1c-2.7,2.7-6.4,4.2-10.2,4.2c-3.8,0-7.5-1.5-10.2-4.2c-2.7-2.7-4.3-6.3-4.4-10.1v-0.2h7.4v0.2
		c0,1,0.2,1.9,0.6,2.8c0.4,0.9,0.9,1.7,1.6,2.4c0.7,0.7,1.5,1.2,2.4,1.6c0.9,0.4,1.8,0.6,2.8,0.5h0c1.9,0,3.8-0.8,5.1-2.1
		c1.4-1.4,2.1-3.2,2.1-5.1v-0.2h7.4C345.2,174.1,345.2,174.2,345.2,174.3z M339.4,158.6l-5-5l7.5-7.5l-7.5-7.5l5-5l12.5,12.6
		L339.4,158.6z"/>
	<path class="st0" d="M284.4,219c-3.5,2-11.2,6-31.5,12.4c0,2.3-1.3,72.4,31.5,72.5c32.8,0.1,31.5-70.2,31.5-72.5
		C295.6,225,287.9,221,284.4,219z M261.8,250l12.5-12.6l5,5l-7.5,7.5l7.5,7.5l-5,5L261.8,250z M293.2,288.1
		c-1.2,1.7-2.8,3.1-4.7,3.9c-1.9,0.8-4,1-6.1,0.6c-2-0.4-3.9-1.4-5.4-2.9c-1.5-1.5-2.5-3.4-2.9-5.4c-0.4-2-0.2-4.2,0.6-6.1
		c0.8-1.9,2.1-3.6,3.9-4.7c1.7-1.2,3.8-1.8,5.9-1.8c2.8,0,5.5,1.1,7.5,3.1c2,2,3.1,4.7,3.1,7.5C295,284.3,294.3,286.3,293.2,288.1z
		 M303.9,257.6l-5,5L286.3,250l12.5-12.6l5,5l-7.5,7.5L303.9,257.6z"/>
	<path class="st0" d="M413.8,147.3c0.3-0.6,0.3-1.3,0.2-1.9c-0.1-0.7-0.5-1.2-0.9-1.7c-0.5-0.5-1.1-0.8-1.7-0.9
		c-0.7-0.1-1.3-0.1-1.9,0.2c-0.6,0.3-1.1,0.7-1.5,1.2c-0.4,0.6-0.6,1.2-0.6,1.9c0,0.4,0.1,0.9,0.3,1.3c0.2,0.4,0.4,0.8,0.7,1.1
		c0.3,0.3,0.7,0.6,1.1,0.7s0.8,0.3,1.3,0.3c0.7,0,1.3-0.2,1.9-0.6C413.1,148.5,413.5,147.9,413.8,147.3z"/>
	<path class="st0" d="M378.4,219.2c-3.7,2.1-11.6,6-31,12.1c0,2.3-1.3,71.8,31,72.5c32.3-0.7,31-70.2,31-72.5
		C390,225.2,382.2,221.3,378.4,219.2z M355.5,250l12.5-12.6l0.5,0.5l0.5-0.5l5,5l-7.5,7.5l7.5,7.5l-5,5l-0.5-0.5l-0.5,0.5L355.5,250
		z M384.9,295.2l-0.5-0.5l-0.5,0.5l-16.5-16.5l5-5l0.5,0.5l0.5-0.5l16.5,16.5L384.9,295.2z M398.5,257.6l-5,5l-0.5-0.5l-0.5,0.5
		L380,250l12.5-12.6l0.5,0.5l0.5-0.5l5,5L391,250L398.5,257.6z"/>
	<path class="st0" d="M366.7,43c0.3-0.6,0.3-1.3,0.2-1.9c-0.1-0.7-0.5-1.2-0.9-1.7c-0.5-0.5-1.1-0.8-1.7-0.9
		c-0.7-0.1-1.3-0.1-1.9,0.2c-0.6,0.3-1.1,0.7-1.5,1.2c-0.4,0.6-0.6,1.2-0.6,1.9c0,0.4,0.1,0.9,0.3,1.3c0.2,0.4,0.4,0.8,0.7,1.1
		c0.3,0.3,0.7,0.6,1.1,0.7c0.4,0.2,0.8,0.3,1.3,0.3c0.7,0,1.3-0.2,1.9-0.6C366.1,44.2,366.5,43.6,366.7,43z"/>
	<path class="st0" d="M661,95.6c32.8,0.1,31.5-70.2,31.5-72.5c-20.3-6.5-28.1-10.5-31.5-12.4c-3.5,2-11.2,6-31.5,12.4
		C629.5,25.4,628.2,95.5,661,95.6z M676.8,30.8l6.2,3.6l-10.2,17.7l-6.2-3.6L676.8,30.8z M658.3,76.7c0.9,0.4,1.8,0.5,2.8,0.5
		c0.9,0,1.9-0.2,2.8-0.5c0.9-0.4,1.7-0.9,2.4-1.6c0.7-0.7,1.2-1.5,1.6-2.4c0.4-0.9,0.6-1.8,0.6-2.8c0-0.1,0-0.2,0-0.2h7.4V70
		c-0.1,3.8-1.7,7.4-4.4,10.1c-2.7,2.7-6.4,4.2-10.2,4.2c-3.8,0-7.5-1.5-10.2-4.2c-2.7-2.7-4.3-6.3-4.4-10.1v-0.2h7.4V70
		c0,1,0.2,1.9,0.6,2.8c0.4,0.9,0.9,1.7,1.6,2.4C656.6,75.8,657.4,76.3,658.3,76.7z M645.6,30.8l10.2,17.7l-6.2,3.6l-10.2-17.7
		L645.6,30.8z"/>
	<path class="st0" d="M577.9,44.1c0.3,0.3,0.7,0.6,1.1,0.7c0.4,0.2,0.8,0.3,1.3,0.3c0.7,0,1.3-0.2,1.9-0.6c0.6-0.4,1-0.9,1.2-1.5
		c0.3-0.6,0.3-1.3,0.2-1.9c-0.1-0.7-0.5-1.2-0.9-1.7c-0.5-0.5-1.1-0.8-1.7-0.9c-0.7-0.1-1.3-0.1-1.9,0.2c-0.6,0.3-1.1,0.7-1.5,1.2
		s-0.6,1.2-0.6,1.9c0,0.4,0.1,0.9,0.3,1.3C577.4,43.5,577.6,43.8,577.9,44.1z"/>
	<path class="st0" d="M471.5,95.6c32.8,0.1,31.5-70.2,31.5-72.5c-20.3-6.5-28.1-10.5-31.5-12.4c-3.5,2-11.2,6-31.5,12.4
		C440,25.4,438.7,95.5,471.5,95.6z M485.9,33l12.5,12.5l-5,5l-7.5-7.5l-7.5,7.5l-5-5L485.9,33z M482.7,81.5l-5,5l-16.5-16.5l5-5
		L482.7,81.5z M444.9,45.5L457.4,33L470,45.5l-5,5l-7.5-7.5l-7.5,7.5L444.9,45.5z"/>
	<path class="st0" d="M661.1,77.2C661.1,77.2,661.1,77.2,661.1,77.2C661.1,77.2,661.1,77.2,661.1,77.2L661.1,77.2z"/>
	<path class="st0" d="M566.3,95.6c32.8,0.1,31.5-70.2,31.5-72.5c-20.3-6.5-28.1-10.5-31.5-12.4c-3.5,2-11.2,6-31.5,12.4
		C534.8,25.4,533.5,95.5,566.3,95.6z M570.6,37.7c0.8-1.9,2.1-3.6,3.9-4.7c1.7-1.2,3.8-1.8,5.9-1.8c2.8,0,5.5,1.1,7.5,3.1
		c2,2,3.1,4.7,3.1,7.5c0,2.1-0.6,4.1-1.8,5.9c-1.2,1.7-2.8,3.1-4.7,3.9c-1.9,0.8-4,1-6.1,0.6c-2-0.4-3.9-1.4-5.4-2.9
		c-1.5-1.5-2.5-3.4-2.9-5.4C569.6,41.8,569.8,39.7,570.6,37.7z M576.6,71.1v7.1h-20.4v-7.1H576.6z M549.1,31.3h7.4l-0.3,20.5h-7.1
		V31.3z"/>
	<path class="st0" d="M767,44.1c0.3,0.3,0.7,0.6,1.1,0.7c0.4,0.2,0.8,0.3,1.3,0.3c0.7,0,1.3-0.2,1.9-0.6c0.6-0.4,1-0.9,1.2-1.5
		c0.3-0.6,0.3-1.3,0.2-1.9c-0.1-0.7-0.5-1.2-0.9-1.7c-0.5-0.5-1.1-0.8-1.7-0.9c-0.7-0.1-1.3-0.1-1.9,0.2c-0.6,0.3-1.1,0.7-1.5,1.2
		c-0.4,0.6-0.6,1.2-0.6,1.9c0,0.4,0.1,0.9,0.3,1.3C766.4,43.5,766.7,43.8,767,44.1z"/>
	<path class="st0" d="M388.8,44.1c0.3,0.3,0.7,0.6,1.1,0.7c0.4,0.2,0.8,0.3,1.3,0.3c0.7,0,1.3-0.2,1.9-0.6c0.6-0.4,1-0.9,1.2-1.5
		c0.3-0.6,0.3-1.3,0.2-1.9c-0.1-0.7-0.5-1.2-0.9-1.7s-1.1-0.8-1.7-0.9c-0.6-0.1-1.3-0.1-1.9,0.2c-0.6,0.3-1.1,0.7-1.5,1.2
		c-0.4,0.6-0.6,1.2-0.6,1.9c0,0.4,0.1,0.9,0.3,1.3C388.2,43.4,388.5,43.8,388.8,44.1z"/>
	<path class="st0" d="M755.7,95.6c32.8,0.1,31.5-70.2,31.5-72.5c-20.3-6.5-28.1-10.5-31.5-12.4c-3.5,2-11.2,6-31.5,12.4
		C724.2,25.4,722.9,95.5,755.7,95.6z M759.6,37.7c0.8-1.9,2.1-3.6,3.9-4.7c1.7-1.2,3.8-1.8,5.9-1.8c2.8,0,5.5,1.1,7.5,3.1
		c2,2,3.1,4.7,3.1,7.5c0,2.1-0.6,4.1-1.8,5.9c-1.2,1.7-2.8,3.1-4.7,3.9s-4,1-6.1,0.6c-2-0.4-3.9-1.4-5.4-2.9
		c-1.5-1.5-2.5-3.4-2.9-5.4C758.6,41.8,758.8,39.7,759.6,37.7z M765.9,71.1v7.1h-20.4v-7.1H765.9z M734.5,49.2
		c-1.5-1.5-2.5-3.4-2.9-5.4c-0.4-2-0.2-4.2,0.6-6.1c0.8-1.9,2.1-3.6,3.9-4.7c1.7-1.2,3.8-1.8,5.9-1.8c2.8,0,5.5,1.1,7.5,3.1
		c2,2,3.1,4.7,3.1,7.5c0,2.1-0.6,4.1-1.8,5.9c-1.2,1.7-2.8,3.1-4.7,3.9s-4,1-6.1,0.6C737.9,51.7,736,50.7,734.5,49.2z"/>
	<path class="st0" d="M745,43c0.3-0.6,0.3-1.3,0.2-1.9c-0.1-0.7-0.5-1.2-0.9-1.7c-0.5-0.5-1.1-0.8-1.7-0.9c-0.7-0.1-1.3-0.1-1.9,0.2
		c-0.6,0.3-1.1,0.7-1.5,1.2c-0.4,0.6-0.6,1.2-0.6,1.9c0,0.4,0.1,0.9,0.3,1.3c0.2,0.4,0.4,0.8,0.7,1.1c0.3,0.3,0.7,0.6,1.1,0.7
		c0.4,0.2,0.8,0.3,1.3,0.3c0.7,0,1.3-0.2,1.9-0.6C744.4,44.2,744.8,43.6,745,43z"/>
	<path class="st0" d="M283.1,95.6c32.8,0.1,31.5-70.2,31.5-72.5c-20.3-6.5-28.1-10.5-31.5-12.4c-3.5,2-11.2,6-31.5,12.4
		C251.6,25.5,250.3,95.6,283.1,95.6z M297.5,29.2l5,5l-7.5,7.5l7.5,7.5l-5,5L285,41.8L297.5,29.2z M293.9,81.9l-5,5l-16.5-16.5l5-5
		L293.9,81.9z M273,29.2l5,5l-7.5,7.5l7.5,7.5l-5,5l-12.5-12.6L273,29.2z"/>
	<path class="st0" d="M95.2,77.2c0.7,0,1.3-0.2,1.9-0.6c0.6-0.4,1-0.9,1.2-1.5c0.3-0.6,0.3-1.3,0.2-1.9c-0.1-0.7-0.5-1.3-0.9-1.7
		c-0.5-0.5-1.1-0.8-1.7-0.9c-0.7-0.1-1.3-0.1-1.9,0.2c-0.6,0.3-1.1,0.7-1.5,1.2c-0.4,0.6-0.6,1.2-0.6,1.9c0,0.9,0.4,1.7,1,2.4
		C93.4,76.9,94.3,77.2,95.2,77.2z"/>
	<path class="st0" d="M189,95.6c32.8,0.1,31.5-70.2,31.5-72.5c-20.3-6.5-28.1-10.5-31.5-12.4c-3.5,2-11.2,6-31.5,12.4
		C157.5,25.4,156.2,95.5,189,95.6z M192.9,37.7c0.8-1.9,2.1-3.6,3.9-4.7c1.7-1.2,3.8-1.8,5.9-1.8c2.8,0,5.5,1.1,7.5,3.1
		c2,2,3.1,4.7,3.1,7.5c0,2.1-0.6,4.1-1.8,5.9c-1.2,1.7-2.8,3.1-4.7,3.9s-4,1-6.1,0.6c-2-0.4-3.9-1.4-5.4-2.9
		c-1.5-1.5-2.5-3.4-2.9-5.4C191.9,41.8,192.1,39.7,192.9,37.7z M189.4,77.2L189.4,77.2c2,0,3.8-0.8,5.2-2.1c1.4-1.4,2.1-3.2,2.1-5.1
		v-0.2h7.4c0,0.1,0,0.2,0,0.2c-0.1,3.8-1.7,7.4-4.4,10.1c-2.7,2.7-6.4,4.2-10.2,4.2c-3.8,0-7.5-1.5-10.2-4.2
		c-2.7-2.7-4.3-6.3-4.4-10.1v-0.2h7.4V70c0,1,0.2,1.9,0.6,2.8c0.4,0.9,0.9,1.7,1.6,2.4c0.7,0.7,1.5,1.2,2.4,1.6
		C187.5,77.1,188.4,77.2,189.4,77.2z M167.7,49.2c-1.5-1.5-2.5-3.4-2.9-5.4c-0.4-2-0.2-4.2,0.6-6.1c0.8-1.9,2.1-3.6,3.9-4.7
		c1.7-1.2,3.8-1.8,5.9-1.8c2.8,0,5.5,1.1,7.5,3.1c2,2,3.1,4.7,3.1,7.5c0,2.1-0.6,4.1-1.8,5.9c-1.2,1.7-2.8,3.1-4.7,3.9
		c-1.9,0.8-4,1-6.1,0.6C171.1,51.7,169.2,50.7,167.7,49.2z"/>
	<polygon class="st0" points="377.9,77.2 377.9,77.2 377.9,77.2 	"/>
	<path class="st0" d="M94.8,95.6c32.8,0.1,31.6-70.2,31.6-72.5C106,16.7,98.3,12.7,94.8,10.7c-3.5,2-11.2,6-31.5,12.4
		C63.3,25.4,62,95.5,94.8,95.6z M102.3,33l7.5,7.5l7.5-7.5l5,5l-12.5,12.5L97.3,38L102.3,33z M95.2,63.3c1.4,0,2.8,0.3,4,0.8
		c1.3,0.5,2.5,1.3,3.4,2.3c1,1,1.8,2.1,2.3,3.4c0.5,1.3,0.8,2.7,0.8,4.1c0,2.1-0.6,4.1-1.8,5.9c-1.2,1.7-2.8,3.1-4.7,3.9
		c-1.9,0.8-4,1-6.1,0.6c-2-0.4-3.9-1.4-5.4-2.9c-1.5-1.5-2.5-3.3-2.9-5.4c-0.4-2-0.2-4.2,0.6-6.1c0.8-1.9,2.1-3.6,3.9-4.8
		S93.1,63.3,95.2,63.3z M73.9,33l7.4,7.5l7.5-7.5l5,5L81.3,50.6L68.9,38L73.9,33z"/>
	<path class="st0" d="M11.3,252.4c0.3,0.3,0.7,0.6,1.1,0.7c0.4,0.2,0.8,0.3,1.3,0.3c0.7,0,1.3-0.2,1.9-0.6c0.6-0.4,1-0.9,1.2-1.5
		c0.3-0.6,0.3-1.3,0.2-1.9c-0.1-0.7-0.5-1.2-0.9-1.7c-0.5-0.5-1.1-0.8-1.7-0.9c-0.7-0.1-1.3-0.1-1.9,0.2c-0.6,0.3-1.1,0.7-1.5,1.2
		c-0.4,0.6-0.6,1.2-0.6,1.9c0,0.4,0.1,0.9,0.3,1.3C10.8,251.7,11,252.1,11.3,252.4z"/>
	<path class="st0" d="M178.2,43c0.3-0.6,0.3-1.3,0.2-1.9c-0.1-0.7-0.5-1.2-0.9-1.7s-1.1-0.8-1.7-0.9c-0.7-0.1-1.3-0.1-1.9,0.2
		c-0.6,0.3-1.1,0.7-1.5,1.2c-0.4,0.6-0.6,1.2-0.6,1.9c0,0.4,0.1,0.9,0.3,1.3c0.2,0.4,0.4,0.8,0.7,1.1c0.3,0.3,0.7,0.6,1.1,0.7
		c0.4,0.2,0.8,0.3,1.3,0.3c0.7,0,1.3-0.2,1.9-0.6C177.6,44.2,178,43.6,178.2,43z"/>
	<path class="st0" d="M377.5,95.6c32.8,0.1,31.5-70.2,31.5-72.5c-20.3-6.5-28.1-10.5-31.5-12.4c-3.5,2-11.2,6-31.5,12.4
		C346,25.4,344.7,95.5,377.5,95.6z M381.4,37.7c0.8-1.9,2.1-3.6,3.9-4.7c1.7-1.2,3.8-1.8,5.9-1.8c2.8,0,5.5,1.1,7.5,3.1
		c2,2,3.1,4.7,3.1,7.5c0,2.1-0.6,4.1-1.8,5.9c-1.2,1.7-2.8,3.1-4.7,3.9c-1.9,0.8-4,1-6.1,0.6c-2-0.4-3.9-1.4-5.4-2.9
		c-1.5-1.5-2.5-3.4-2.9-5.4C380.4,41.8,380.6,39.7,381.4,37.7z M377.9,77.2c0.9,0,1.9-0.2,2.8-0.5c0.9-0.4,1.7-0.9,2.4-1.6
		c0.7-0.7,1.2-1.5,1.6-2.4c0.4-0.9,0.6-1.8,0.6-2.8c0-0.1,0-0.2,0-0.2h7.4V70c-0.1,3.8-1.7,7.4-4.4,10.1c-2.7,2.7-6.4,4.2-10.2,4.2
		c-3.8,0-7.5-1.5-10.2-4.2c-2.7-2.7-4.3-6.3-4.4-10.1v-0.2h7.4V70c0,1,0.2,1.9,0.6,2.8c0.4,0.9,0.9,1.7,1.6,2.4
		c0.7,0.7,1.5,1.2,2.4,1.6C376,77.1,376.9,77.2,377.9,77.2z M356.2,49.2c-1.5-1.5-2.5-3.4-2.9-5.4c-0.4-2-0.2-4.2,0.6-6.1
		c0.8-1.9,2.1-3.6,3.9-4.7c1.7-1.2,3.8-1.8,5.9-1.8c2.8,0,5.5,1.1,7.5,3.1c2,2,3.1,4.7,3.1,7.5c0,2.1-0.6,4.1-1.8,5.9
		c-1.2,1.7-2.8,3.1-4.7,3.9c-1.9,0.8-4,1-6.1,0.6C359.6,51.7,357.7,50.7,356.2,49.2z"/>
	<path class="st0" d="M550.1,127.4c-20.3-6.5-28.1-10.5-31.5-12.4c-3.5,2-11.2,6-31.5,12.4c0,2.3-1.3,72.4,31.5,72.5
		C551.4,200,550.1,129.8,550.1,127.4z M503.4,158.6l-5-5l7.5-7.5l-7.5-7.5l5-5L516,146L503.4,158.6z M533.6,174.3
		c-0.1,3.8-1.7,7.4-4.4,10.1c-2.7,2.7-6.4,4.1-10.2,4.1c-3.8,0-7.5-1.5-10.2-4.1c-2.7-2.7-4.3-6.3-4.4-10.1V174h7.4v0.2
		c0,1,0.2,1.9,0.6,2.8c0.4,0.9,0.9,1.7,1.6,2.4c0.7,0.7,1.5,1.2,2.4,1.6c0.9,0.4,1.8,0.5,2.8,0.5c0.9,0,1.9-0.2,2.8-0.5
		c0.9-0.4,1.7-0.9,2.4-1.6c0.7-0.7,1.2-1.5,1.6-2.4c0.4-0.9,0.6-1.8,0.6-2.8c0-0.1,0-0.2,0-0.2h7.4V174.3z M527.9,158.6l-5-5
		l7.5-7.5l-7.5-7.5l5-5l12.5,12.6L527.9,158.6z"/>
	<path class="st0" d="M200.3,44.1c0.3,0.3,0.7,0.6,1.1,0.7c0.4,0.2,0.8,0.3,1.3,0.3c0.7,0,1.3-0.2,1.9-0.6c0.6-0.4,1-0.9,1.2-1.5
		c0.3-0.6,0.3-1.3,0.2-1.9c-0.1-0.7-0.5-1.2-0.9-1.7s-1.1-0.8-1.7-0.9c-0.7-0.1-1.3-0.1-1.9,0.2c-0.6,0.3-1.1,0.7-1.5,1.2
		c-0.4,0.6-0.6,1.2-0.6,1.9c0,0.4,0.1,0.9,0.3,1.3C199.7,43.4,200,43.8,200.3,44.1z"/>
	<path class="st0" d="M0,303.9C0,303.9,0,303.9,0,303.9c32.9,0.1,31.6-70.2,31.6-72.5C11.3,225,3.5,220.9,0,219c0,0,0,0,0,0 M0,277
		l0.2,0.2l4.7-4.7l5,5l-4.7,4.7l4.7,4.7l-5,5l-4.7-4.7L0,287.4 M4,246c0.8-1.9,2.1-3.6,3.9-4.7c1.7-1.2,3.8-1.8,5.9-1.8
		c1.4,0,2.8,0.3,4,0.8c1.3,0.5,2.4,1.3,3.4,2.3c1,1,1.8,2.1,2.3,3.4c0.5,1.3,0.8,2.7,0.8,4c0,2.1-0.6,4.1-1.8,5.9
		c-1.2,1.7-2.8,3.1-4.7,3.9c-1.9,0.8-4,1-6.1,0.6c-2-0.4-3.9-1.4-5.4-2.9c-1.5-1.5-2.5-3.4-2.9-5.4C3,250.1,3.2,247.9,4,246z"/>
	<polygon class="st0" points="662.8,285.5 662.8,285.5 662.8,285.5 	"/>
	<path class="st0" d="M757.1,219c-3.5,2-11.2,6-31.5,12.4c0,2.3-1.3,72.4,31.5,72.5c32.8,0.1,31.5-70.2,31.5-72.5
		C768.3,225,760.5,221,757.1,219z M733.3,253.4v-7.1h20.4v7.1H733.3z M772.1,278.2c-0.1,3.8-1.7,7.4-4.4,10.1
		c-2.7,2.7-6.4,4.2-10.2,4.2c-3.8,0-7.5-1.5-10.2-4.2c-2.7-2.7-4.3-6.3-4.4-10.1V278h7.4v0.2c0,1,0.2,1.9,0.6,2.8
		c0.4,0.9,0.9,1.7,1.6,2.4c0.7,0.7,1.5,1.2,2.4,1.6c0.9,0.4,1.8,0.5,2.8,0.5c0.9,0,1.9-0.2,2.8-0.5c0.9-0.4,1.7-0.9,2.4-1.6
		c0.7-0.7,1.2-1.5,1.6-2.4c0.4-0.9,0.6-1.8,0.6-2.8c0-0.1,0-0.2,0-0.2h7.4V278.2z M780.8,253.4h-20.4v-7.1h20.4V253.4z"/>
	<path class="st0" d="M613.8,181.5C613.8,181.5,613.7,181.5,613.8,181.5C613.7,181.5,613.7,181.5,613.8,181.5L613.8,181.5z"/>
	<path class="st0" d="M651.5,251.3c0.3-0.6,0.3-1.3,0.2-1.9s-0.5-1.2-0.9-1.7c-0.5-0.5-1.1-0.8-1.7-0.9c-0.7-0.1-1.3-0.1-1.9,0.2
		c-0.6,0.3-1.1,0.7-1.5,1.2c-0.4,0.6-0.6,1.2-0.6,1.9c0,0.4,0.1,0.9,0.3,1.3c0.2,0.4,0.4,0.8,0.7,1.1c0.3,0.3,0.7,0.6,1.1,0.7
		c0.4,0.2,0.8,0.3,1.3,0.3c0.7,0,1.3-0.2,1.9-0.6C650.8,252.4,651.3,251.9,651.5,251.3z"/>
	<path class="st0" d="M791.3,143.7c-0.5-0.5-1.1-0.8-1.7-0.9c-0.7-0.1-1.3-0.1-1.9,0.2c-0.6,0.3-1.1,0.7-1.5,1.2
		c-0.4,0.6-0.6,1.2-0.6,1.9c0,0.4,0.1,0.9,0.3,1.3c0.2,0.4,0.4,0.8,0.7,1.1c0.3,0.3,0.7,0.6,1.1,0.7c0.4,0.2,0.8,0.3,1.3,0.3
		c0.7,0,1.3-0.2,1.9-0.6c0.6-0.4,1-0.9,1.2-1.5c0.3-0.6,0.3-1.3,0.2-1.9C792.1,144.8,791.8,144.2,791.3,143.7z"/>
	<path class="st0" d="M724,143.7c-0.5-0.5-1.1-0.8-1.7-0.9c-0.6-0.1-1.3-0.1-1.9,0.2c-0.6,0.3-1.1,0.7-1.5,1.2
		c-0.4,0.6-0.6,1.2-0.6,1.9c0,0.4,0.1,0.9,0.3,1.3c0.2,0.4,0.4,0.8,0.7,1.1c0.3,0.3,0.7,0.6,1.1,0.7c0.4,0.2,0.8,0.3,1.3,0.3
		c0.7,0,1.3-0.2,1.9-0.6c0.6-0.4,1-0.9,1.2-1.5c0.3-0.6,0.3-1.3,0.2-1.9S724.5,144.1,724,143.7z"/>
	<polygon class="st0" points="757.5,285.5 757.5,285.5 757.5,285.5 	"/>
	<path class="st0" d="M838.9,247.6c-0.5-0.5-1.1-0.8-1.7-0.9s-1.3-0.1-1.9,0.2c-0.6,0.3-1.1,0.7-1.5,1.2c-0.4,0.6-0.6,1.2-0.6,1.9
		c0,0.4,0.1,0.9,0.3,1.3c0.2,0.4,0.4,0.8,0.7,1.1c0.3,0.3,0.7,0.6,1.1,0.7c0.4,0.2,0.8,0.3,1.3,0.3c0.7,0,1.3-0.2,1.9-0.6
		c0.6-0.4,1-0.9,1.2-1.5c0.3-0.6,0.3-1.3,0.2-1.9C839.7,248.7,839.4,248.1,838.9,247.6z"/>
	<path class="st0" d="M644.9,127.4c-20.3-6.5-28.1-10.5-31.5-12.4c-3.5,2-11.2,6-31.5,12.4c0,2.3-1.3,72.4,31.5,72.5
		C646.1,200,644.9,129.8,644.9,127.4z M589.5,149.3v-7.1H610v7.1H589.5z M628.4,174.3c-0.1,3.8-1.7,7.4-4.4,10.1
		c-2.7,2.7-6.4,4.1-10.2,4.1c-3.8,0-7.5-1.5-10.2-4.1c-2.7-2.7-4.3-6.3-4.4-10.1V174h7.4v0.2c0,1,0.2,1.9,0.6,2.8
		c0.4,0.9,0.9,1.7,1.6,2.4c0.7,0.7,1.5,1.2,2.4,1.6c0.9,0.4,1.8,0.5,2.7,0.5c0.9,0,1.9-0.2,2.7-0.5c0.9-0.4,1.7-0.9,2.4-1.6
		c0.7-0.7,1.2-1.5,1.6-2.4c0.4-0.9,0.6-1.8,0.6-2.8c0-0.1,0-0.2,0-0.2h7.5V174.3z M637.2,149.3h-20.5v-7.1h20.5V149.3z"/>
	<path class="st0" d="M739.6,127.4c-20.3-6.5-28.1-10.5-31.5-12.4c-3.5,2-11.2,6-31.5,12.4c0,2.3-1.3,72.4,31.5,72.5
		C740.9,200,739.6,129.8,739.6,127.4z M692.2,156.4c-2-0.4-3.9-1.4-5.4-2.9c-1.5-1.5-2.5-3.4-2.9-5.4c-0.4-2-0.2-4.2,0.6-6.1
		c0.8-1.9,2.1-3.6,3.9-4.7c1.7-1.2,3.8-1.8,5.9-1.8c2.8,0,5.5,1.1,7.5,3.1c2,2,3.1,4.7,3.1,7.5c0,2.1-0.6,4.1-1.8,5.9
		c-1.2,1.7-2.8,3.1-4.7,3.9C696.4,156.6,694.2,156.8,692.2,156.4z M717.9,182.9l-5,5l-4.7-4.7l-4.7,4.7l-5-5l4.7-4.7l-4.7-4.7l5-5
		l4.7,4.7l4.7-4.7l5,5l-4.7,4.7L717.9,182.9z M730.4,151.9c-1.2,1.7-2.8,3.1-4.7,3.9c-1.9,0.8-4,1-6.1,0.6c-2-0.4-3.9-1.4-5.4-2.9
		s-2.5-3.4-2.9-5.4c-0.4-2-0.2-4.2,0.6-6.1c0.8-1.9,2.1-3.6,3.9-4.7c1.7-1.2,3.8-1.8,5.9-1.8c2.8,0,5.5,1.1,7.5,3.1
		c2,2,3.1,4.7,3.1,7.5C732.2,148.1,731.6,150.2,730.4,151.9z"/>
	<path class="st0" d="M567.6,219c-3.5,2-11.2,6-31.5,12.4c0,2.3-1.3,72.4,31.5,72.5c32.8,0.1,31.5-70.2,31.5-72.5
		C578.8,225,571.1,220.9,567.6,219z M545,250l12.5-12.6l5,5l-7.5,7.5l7.5,7.5l-5,5L545,250z M573.5,295.2L557,278.8l5-5l16.5,16.5
		L573.5,295.2z M587.1,257.6l-5,5L569.5,250l12.5-12.6l5,5l-7.5,7.5L587.1,257.6z"/>
	<path class="st0" d="M696.6,143.7c-0.5-0.5-1.1-0.8-1.7-0.9c-0.7-0.1-1.3-0.1-1.9,0.2c-0.6,0.3-1.1,0.7-1.5,1.2
		c-0.4,0.6-0.6,1.2-0.6,1.9c0,0.4,0.1,0.9,0.3,1.3c0.2,0.4,0.4,0.8,0.7,1.1c0.3,0.3,0.7,0.6,1.1,0.7c0.4,0.2,0.8,0.3,1.3,0.3
		c0.7,0,1.3-0.2,1.9-0.6c0.6-0.4,1-0.9,1.2-1.5c0.3-0.6,0.3-1.3,0.2-1.9S697,144.1,696.6,143.7z"/>
	<path class="st0" d="M818.7,143.7c-0.5-0.5-1.1-0.8-1.7-0.9c-0.7-0.1-1.3-0.1-1.9,0.2s-1.1,0.7-1.5,1.2c-0.4,0.6-0.6,1.2-0.6,1.9
		c0,0.4,0.1,0.9,0.3,1.3c0.2,0.4,0.4,0.8,0.7,1.1c0.3,0.3,0.7,0.6,1.1,0.7c0.4,0.2,0.8,0.3,1.3,0.3c0.7,0,1.3-0.2,1.9-0.6
		c0.6-0.4,1-0.9,1.2-1.5c0.3-0.6,0.3-1.3,0.2-1.9S819.2,144.1,818.7,143.7z"/>
	<path class="st0" d="M834.3,127.4C814,121,806.3,117,802.8,115c-3.5,2-11.2,6-31.5,12.4c0,2.3-1.3,72.4,31.5,72.5
		C835.6,200,834.3,129.8,834.3,127.4z M786.9,156.4c-2-0.4-3.9-1.4-5.4-2.9c-1.5-1.5-2.5-3.4-2.9-5.4c-0.4-2-0.2-4.2,0.6-6.1
		c0.8-1.9,2.1-3.6,3.9-4.7c1.7-1.2,3.8-1.8,5.9-1.8c2.8,0,5.5,1.1,7.5,3.1c2,2,3.1,4.7,3.1,7.5c0,2.1-0.6,4.1-1.8,5.9
		c-1.2,1.7-2.8,3.1-4.7,3.9S789,156.8,786.9,156.4z M813,182.6h-20.4v-7.1H813V182.6z M825.2,151.9c-1.2,1.7-2.8,3.1-4.7,3.9
		c-1.9,0.8-4,1-6.1,0.6c-2-0.4-3.9-1.4-5.4-2.9c-1.5-1.5-2.5-3.4-2.9-5.4c-0.4-2-0.2-4.2,0.6-6.1c0.8-1.9,2.1-3.6,3.9-4.7
		c1.7-1.2,3.8-1.8,5.9-1.8c2.8,0,5.5,1.1,7.5,3.1c2,2,3.1,4.7,3.1,7.5C826.9,148.1,826.3,150.2,825.2,151.9z"/>
	<path class="st0" d="M662.3,219c-3.5,2-11.2,6-31.5,12.4c0,2.3-1.3,72.4,31.5,72.5c32.8,0.1,31.5-70.2,31.5-72.5
		C673.5,225,665.7,220.9,662.3,219z M646.4,260.4c-2-0.4-3.9-1.4-5.4-2.9c-1.5-1.5-2.5-3.4-2.9-5.4c-0.4-2-0.2-4.2,0.6-6.1
		c0.8-1.9,2.1-3.6,3.9-4.7c1.7-1.2,3.8-1.8,5.8-1.8c2.8,0,5.5,1.1,7.5,3.1c2,2,3.1,4.7,3.1,7.5c0,2.1-0.6,4.1-1.8,5.9
		c-1.2,1.7-2.8,3.1-4.7,3.9S648.4,260.8,646.4,260.4z M677.4,278.2c-0.1,3.8-1.7,7.4-4.4,10.1c-2.7,2.7-6.4,4.2-10.2,4.2
		c-3.8,0-7.5-1.5-10.2-4.2c-2.7-2.7-4.3-6.3-4.4-10.1V278h7.4v0.2c0,1,0.2,1.9,0.6,2.8c0.4,0.9,0.9,1.7,1.6,2.4
		c0.7,0.7,1.5,1.2,2.4,1.6c0.9,0.4,1.8,0.5,2.8,0.5c0.9,0,1.9-0.2,2.8-0.5c0.9-0.4,1.7-0.9,2.4-1.6c0.7-0.7,1.2-1.5,1.6-2.4
		c0.4-0.9,0.6-1.8,0.6-2.8c0-0.1,0-0.2,0-0.2h7.4V278.2z M686.2,253.4h-20.4v-7.1h20.4V253.4z"/>
	<path class="st1" d="M746,51.5c1.9-0.8,3.6-2.2,4.7-3.9c1.2-1.7,1.8-3.8,1.8-5.9c0-2.8-1.1-5.5-3.1-7.5c-2-2-4.7-3.1-7.5-3.1
		c-2.1,0-4.1,0.6-5.9,1.8c-1.7,1.2-3.1,2.8-3.9,4.7c-0.8,1.9-1,4.1-0.6,6.1c0.4,2,1.4,3.9,2.9,5.4c1.5,1.5,3.4,2.5,5.4,2.9
		C742,52.5,744.1,52.3,746,51.5z M740.7,44.9c-0.4-0.2-0.8-0.4-1.1-0.7c-0.3-0.3-0.6-0.7-0.7-1.1c-0.2-0.4-0.3-0.8-0.3-1.3
		c0-0.7,0.2-1.3,0.6-1.9c0.4-0.6,0.9-1,1.5-1.2c0.6-0.3,1.3-0.3,1.9-0.2c0.7,0.1,1.2,0.4,1.7,0.9c0.5,0.5,0.8,1.1,0.9,1.7
		c0.1,0.7,0.1,1.3-0.2,1.9c-0.3,0.6-0.7,1.1-1.2,1.5c-0.6,0.4-1.2,0.6-1.9,0.6C741.5,45.1,741.1,45,740.7,44.9z"/>
	<path class="st1" d="M755.7,105c42.4,0.1,40.8-85.6,40.8-88.6C770.2,8,760.2,2.8,755.7,0.3C751.2,2.8,741.2,8,715,16.4
		C715,19.3,713.3,105.1,755.7,105z M724.2,23.1c20.3-6.5,28-10.4,31.5-12.4c3.5,2,11.2,6,31.5,12.4c0,2.3,1.3,72.6-31.5,72.5
		C722.9,95.5,724.2,25.4,724.2,23.1z"/>
	<polygon class="st1" points="845.8,272.5 840.8,277.5 845.5,282.2 840.8,286.9 845.8,291.9 850.5,287.2 850.6,287.3 850.6,277.1 
		850.5,277.2 	"/>
	<polygon class="st1" points="843.4,33 835.9,40.5 828.4,33 823.3,38 835.9,50.6 848.4,38 	"/>
	<path class="st1" d="M850.5,0.3C846,2.8,836,8,809.7,16.4c0,2.9-1.7,88.7,40.8,88.6c0,0,0,0,0.1,0v-9.3c0,0,0,0-0.1,0
		C817.7,95.5,819,25.4,819,23.1c20.3-6.5,28-10.4,31.5-12.4c0,0,0,0,0.1,0L850.5,0.3C850.5,0.3,850.5,0.3,850.5,0.3z"/>
	<polygon class="st1" points="845.8,64.2 840.7,69.2 845.4,73.9 840.7,78.6 845.8,83.7 850.5,79 850.6,79 850.6,68.8 850.5,68.9 	
		"/>
	<path class="st1" d="M845.3,255.9c1.2-1.7,1.8-3.8,1.8-5.9c0-2.8-1.1-5.5-3.1-7.5c-2-2-4.7-3.1-7.5-3.1c-2.1,0-4.1,0.6-5.9,1.8
		c-1.7,1.2-3.1,2.8-3.9,4.7c-0.8,1.9-1,4.1-0.6,6.1c0.4,2,1.4,3.9,2.9,5.4c1.5,1.5,3.4,2.5,5.4,2.9c2,0.4,4.2,0.2,6.1-0.6
		S844.2,257.6,845.3,255.9z M839.6,251.3c-0.3,0.6-0.7,1.1-1.2,1.5c-0.5,0.4-1.2,0.6-1.9,0.6c-0.4,0-0.9-0.1-1.3-0.3
		c-0.4-0.2-0.8-0.4-1.1-0.7c-0.3-0.3-0.6-0.7-0.7-1.1c-0.2-0.4-0.3-0.8-0.3-1.3c0-0.7,0.2-1.3,0.6-1.9c0.4-0.6,0.9-1,1.5-1.2
		c0.6-0.3,1.3-0.3,1.9-0.2s1.2,0.4,1.7,0.9c0.5,0.5,0.8,1.1,0.9,1.7C840,250,839.9,250.7,839.6,251.3z"/>
	<rect x="745.5" y="71.1" class="st1" width="20.4" height="7.1"/>
	<path class="st1" d="M761.9,49.2c1.5,1.5,3.4,2.5,5.4,2.9c2,0.4,4.2,0.2,6.1-0.6s3.6-2.2,4.7-3.9c1.2-1.7,1.8-3.8,1.8-5.9
		c0-2.8-1.1-5.5-3.1-7.5c-2-2-4.7-3.1-7.5-3.1c-2.1,0-4.1,0.6-5.9,1.8c-1.7,1.2-3.1,2.8-3.9,4.7c-0.8,1.9-1,4.1-0.6,6.1
		C759.5,45.9,760.5,47.8,761.9,49.2z M766.6,39.9c0.4-0.6,0.9-1,1.5-1.2c0.6-0.3,1.3-0.3,1.9-0.2c0.7,0.1,1.2,0.4,1.7,0.9
		c0.5,0.5,0.8,1.1,0.9,1.7c0.1,0.7,0.1,1.3-0.2,1.9c-0.3,0.6-0.7,1.1-1.2,1.5c-0.6,0.4-1.2,0.6-1.9,0.6c-0.4,0-0.9-0.1-1.3-0.3
		c-0.4-0.2-0.8-0.4-1.1-0.7s-0.6-0.7-0.7-1.1c-0.2-0.4-0.3-0.8-0.3-1.3C766,41.1,766.2,40.5,766.6,39.9z"/>
	<polygon class="st1" points="93.8,38 88.8,33 81.3,40.5 73.9,33 68.9,38 81.3,50.6 	"/>
	<polygon class="st1" points="464.9,50.6 470,45.5 457.4,33 444.9,45.5 449.9,50.6 457.4,43 	"/>
	<polygon class="st1" points="4.8,83.4 9.8,78.3 5.1,73.6 9.8,68.9 4.8,63.9 0.1,68.6 0,68.5 0,78.7 0.1,78.7 	"/>
	<path class="st1" d="M189,105c42.4,0.1,40.8-85.6,40.8-88.6C203.5,8,193.5,2.8,189,0.3c-4.5,2.6-14.5,7.7-40.8,16.1
		C148.3,19.3,146.6,105.1,189,105z M157.5,23.1c20.3-6.5,28-10.4,31.5-12.4c3.5,2,11.2,6,31.5,12.4c0,2.3,1.3,72.6-31.5,72.5
		C156.2,95.5,157.5,25.4,157.5,23.1z"/>
	
		<rect x="468.4" y="64.2" transform="matrix(0.7069 -0.7073 0.7073 0.7069 84.7193 356.0527)" class="st1" width="7.1" height="23.3"/>
	<path class="st1" d="M471.5,105c42.4,0.1,40.8-85.6,40.8-88.6C486,8,476,2.8,471.5,0.3C467,2.8,457,8,430.7,16.4
		C430.7,19.3,429.1,105.1,471.5,105z M440,23.1c20.3-6.5,28-10.4,31.5-12.4c3.5,2,11.2,6,31.5,12.4c0,2.3,1.3,72.6-31.5,72.5
		C438.7,95.5,440,25.4,440,23.1z"/>
	<path class="st1" d="M367.7,51.5c1.9-0.8,3.6-2.2,4.7-3.9c1.2-1.7,1.8-3.8,1.8-5.9c0-2.8-1.1-5.5-3.1-7.5c-2-2-4.7-3.1-7.5-3.1
		c-2.1,0-4.1,0.6-5.9,1.8c-1.7,1.2-3.1,2.8-3.9,4.7c-0.8,1.9-1,4.1-0.6,6.1c0.4,2,1.4,3.9,2.9,5.4c1.5,1.5,3.4,2.5,5.4,2.9
		C363.7,52.5,365.8,52.3,367.7,51.5z M362.4,44.8c-0.4-0.2-0.8-0.4-1.1-0.7c-0.3-0.3-0.6-0.7-0.7-1.1c-0.2-0.4-0.3-0.8-0.3-1.3
		c0-0.7,0.2-1.3,0.6-1.9c0.4-0.6,0.9-1,1.5-1.2c0.6-0.3,1.3-0.3,1.9-0.2c0.7,0.1,1.2,0.4,1.7,0.9c0.5,0.5,0.8,1.1,0.9,1.7
		c0.1,0.7,0.1,1.3-0.2,1.9c-0.3,0.6-0.7,1.1-1.2,1.5c-0.6,0.4-1.2,0.6-1.9,0.6C363.2,45.1,362.8,45,362.4,44.8z"/>
	<polygon class="st1" points="27.6,37.7 22.5,32.7 15,40.2 7.6,32.7 2.6,37.7 15,50.3 	"/>
	<path class="st1" d="M94.8,104.9c42.5,0.1,40.8-85.6,40.8-88.6C109.3,8,99.3,2.8,94.8,0.3C90.3,2.8,80.3,8,54,16.4
		C54,19.3,52.4,105,94.8,104.9z M63.3,23.1c20.3-6.5,28-10.4,31.5-12.4c3.5,2,11.2,6,31.6,12.4c0,2.3,1.3,72.6-31.6,72.5
		S63.3,25.4,63.3,23.1z"/>
	<path class="st1" d="M179.2,51.5c1.9-0.8,3.6-2.2,4.7-3.9c1.2-1.7,1.8-3.8,1.8-5.9c0-2.8-1.1-5.5-3.1-7.5c-2-2-4.7-3.1-7.5-3.1
		c-2.1,0-4.1,0.6-5.9,1.8c-1.7,1.2-3.1,2.8-3.9,4.7c-0.8,1.9-1,4.1-0.6,6.1c0.4,2,1.4,3.9,2.9,5.4c1.5,1.5,3.4,2.5,5.4,2.9
		C175.2,52.5,177.3,52.3,179.2,51.5z M173.9,44.8c-0.4-0.2-0.8-0.4-1.1-0.7c-0.3-0.3-0.6-0.7-0.7-1.1c-0.2-0.4-0.3-0.8-0.3-1.3
		c0-0.7,0.2-1.3,0.6-1.9c0.4-0.6,0.9-1,1.5-1.2c0.6-0.3,1.3-0.3,1.9-0.2c0.6,0.1,1.2,0.4,1.7,0.9s0.8,1.1,0.9,1.7
		c0.1,0.7,0.1,1.3-0.2,1.9c-0.3,0.6-0.7,1.1-1.2,1.5c-0.6,0.4-1.2,0.6-1.9,0.6C174.7,45.1,174.3,45,173.9,44.8z"/>
	<polygon class="st1" points="485.9,43 493.4,50.6 498.5,45.5 485.9,33 473.4,45.5 478.4,50.6 	"/>
	<path class="st1" d="M85.5,69.9c-0.8,1.9-1,4.1-0.6,6.1c0.4,2,1.4,3.9,2.9,5.4c1.5,1.5,3.4,2.5,5.4,2.9c2,0.4,4.2,0.2,6.1-0.6
		c1.9-0.8,3.6-2.2,4.7-3.9c1.2-1.7,1.8-3.8,1.8-5.9c0-1.4-0.3-2.8-0.8-4.1c-0.5-1.3-1.3-2.4-2.3-3.4c-1-1-2.2-1.8-3.4-2.3
		c-1.3-0.5-2.7-0.8-4-0.8c-2.1,0-4.1,0.6-5.8,1.8S86.3,67.9,85.5,69.9z M92.4,72c0.4-0.6,0.9-1,1.5-1.2c0.6-0.3,1.3-0.3,1.9-0.2
		c0.7,0.1,1.3,0.4,1.7,0.9c0.5,0.5,0.8,1.1,0.9,1.7c0.1,0.7,0.1,1.3-0.2,1.9c-0.3,0.6-0.7,1.1-1.2,1.5c-0.6,0.4-1.2,0.6-1.9,0.6
		c-0.9,0-1.7-0.4-2.4-1c-0.6-0.6-1-1.5-1-2.4C91.8,73.2,92,72.6,92.4,72z"/>
	
		<rect x="279.6" y="64.6" transform="matrix(0.7069 -0.7073 0.7073 0.7069 29.1115 222.6283)" class="st1" width="7.1" height="23.3"/>
	<polygon class="st1" points="278,49.3 270.5,41.8 278,34.2 273,29.2 260.5,41.8 273,54.3 	"/>
	<polygon class="st1" points="302.6,49.3 295.1,41.8 302.6,34.2 297.5,29.2 285,41.8 297.5,54.3 	"/>
	<path class="st1" d="M377.5,105c42.4,0.1,40.8-85.6,40.8-88.6C392,8,382.1,2.8,377.5,0.3C373,2.8,363,8,336.8,16.4
		C336.8,19.3,335.1,105.1,377.5,105z M346,23.1c20.3-6.5,28-10.4,31.5-12.4c3.5,2,11.2,6,31.5,12.4c0,2.3,1.3,72.6-31.5,72.5
		C344.7,95.5,346,25.4,346,23.1z"/>
	<path class="st1" d="M283.1,105c42.4,0.1,40.8-85.6,40.8-88.6C297.6,8,287.6,2.9,283.1,0.3c-4.5,2.6-14.5,7.7-40.8,16.1
		C242.3,19.4,240.7,105.1,283.1,105z M251.6,23.2c20.3-6.5,28-10.4,31.5-12.4c3.5,2,11.2,6,31.5,12.4c0,2.3,1.3,72.6-31.5,72.5
		C250.3,95.6,251.6,25.5,251.6,23.2z"/>
	<path class="st1" d="M195.2,49.2c1.5,1.5,3.4,2.5,5.4,2.9c2,0.4,4.2,0.2,6.1-0.6s3.6-2.2,4.7-3.9c1.2-1.7,1.8-3.8,1.8-5.9
		c0-2.8-1.1-5.5-3.1-7.5c-2-2-4.7-3.1-7.5-3.1c-2.1,0-4.1,0.6-5.9,1.8c-1.7,1.2-3.1,2.8-3.9,4.7c-0.8,1.9-1,4.1-0.6,6.1
		C192.7,45.9,193.7,47.8,195.2,49.2z M199.9,39.9c0.4-0.6,0.9-1,1.5-1.2c0.6-0.3,1.3-0.3,1.9-0.2c0.7,0.1,1.2,0.4,1.7,0.9
		s0.8,1.1,0.9,1.7c0.1,0.7,0.1,1.3-0.2,1.9c-0.3,0.6-0.7,1.1-1.2,1.5c-0.6,0.4-1.2,0.6-1.9,0.6c-0.4,0-0.9-0.1-1.3-0.3
		c-0.4-0.2-0.8-0.4-1.1-0.7s-0.6-0.7-0.7-1.1c-0.2-0.4-0.3-0.8-0.3-1.3C199.3,41.1,199.5,40.4,199.9,39.9z"/>
	<path class="st1" d="M371.2,72.8c-0.4-0.9-0.6-1.8-0.6-2.8v-0.2h-7.4V70c0.1,3.8,1.7,7.4,4.4,10.1c2.7,2.7,6.4,4.2,10.2,4.2
		c3.8,0,7.5-1.5,10.2-4.2c2.7-2.7,4.3-6.3,4.4-10.1v-0.2h-7.4c0,0.1,0,0.2,0,0.2c0,1-0.2,1.9-0.6,2.8c-0.4,0.9-0.9,1.7-1.6,2.4
		c-0.7,0.7-1.5,1.2-2.4,1.6c-0.9,0.4-1.8,0.5-2.8,0.5c0,0,0,0,0,0h0c0,0,0,0,0,0c-0.9,0-1.9-0.2-2.8-0.5c-0.9-0.4-1.7-0.9-2.4-1.6
		C372.1,74.5,371.6,73.7,371.2,72.8z"/>
	<path class="st1" d="M182.7,72.8c-0.4-0.9-0.6-1.8-0.6-2.8v-0.2h-7.4V70c0.1,3.8,1.7,7.4,4.4,10.1c2.7,2.7,6.4,4.2,10.2,4.2
		c3.8,0,7.5-1.5,10.2-4.2c2.7-2.7,4.3-6.3,4.4-10.1c0-0.1,0-0.2,0-0.2h-7.4V70c0,1.9-0.8,3.8-2.1,5.1c-1.4,1.4-3.2,2.1-5.1,2.1h0
		c-1,0-1.9-0.2-2.8-0.5c-0.9-0.4-1.7-0.9-2.4-1.6C183.6,74.5,183.1,73.7,182.7,72.8z"/>
	<path class="st1" d="M383.7,49.2c1.5,1.5,3.4,2.5,5.4,2.9c2,0.4,4.2,0.2,6.1-0.6c1.9-0.8,3.6-2.2,4.7-3.9c1.2-1.7,1.8-3.8,1.8-5.9
		c0-2.8-1.1-5.5-3.1-7.5c-2-2-4.7-3.1-7.5-3.1c-2.1,0-4.1,0.6-5.9,1.8c-1.7,1.2-3.1,2.8-3.9,4.7c-0.8,1.9-1,4.1-0.6,6.1
		C381.3,45.9,382.3,47.8,383.7,49.2z M388.4,39.9c0.4-0.6,0.9-1,1.5-1.2c0.6-0.3,1.3-0.3,1.9-0.2c0.7,0.1,1.2,0.4,1.7,0.9
		s0.8,1.1,0.9,1.7c0.1,0.7,0.1,1.3-0.2,1.9c-0.3,0.6-0.7,1.1-1.2,1.5c-0.6,0.4-1.2,0.6-1.9,0.6c-0.4,0-0.9-0.1-1.3-0.3
		c-0.4-0.2-0.8-0.4-1.1-0.7c-0.3-0.3-0.6-0.7-0.7-1.1c-0.2-0.4-0.3-0.8-0.3-1.3C387.8,41.1,388,40.4,388.4,39.9z"/>
	<rect x="556.2" y="71.1" class="st1" width="20.4" height="7.1"/>
	
		<rect x="644.1" y="31.2" transform="matrix(0.8656 -0.5008 0.5008 0.8656 66.3026 329.9041)" class="st1" width="7.1" height="20.4"/>
	
		<rect x="664.6" y="37.9" transform="matrix(0.5016 -0.8651 0.8651 0.5016 300.4724 604.4252)" class="st1" width="20.4" height="7.1"/>
	<path class="st1" d="M653.8,70v-0.2h-7.4V70c0.1,3.8,1.7,7.4,4.4,10.1c2.7,2.7,6.4,4.2,10.2,4.2c3.8,0,7.5-1.5,10.2-4.2
		c2.7-2.7,4.3-6.3,4.4-10.1v-0.2h-7.4c0,0.1,0,0.2,0,0.2c0,1-0.2,1.9-0.6,2.8c-0.4,0.9-0.9,1.7-1.6,2.4c-0.7,0.7-1.5,1.2-2.4,1.6
		c-0.9,0.4-1.8,0.5-2.8,0.5c0,0,0,0,0,0h0c0,0,0,0,0,0c-0.9,0-1.9-0.2-2.8-0.5c-0.9-0.4-1.7-0.9-2.4-1.6c-0.7-0.7-1.2-1.5-1.6-2.4
		C654,71.9,653.8,70.9,653.8,70z"/>
	<polygon class="st1" points="556.5,31.3 549.1,31.3 549.1,51.7 556.2,51.7 	"/>
	<path class="st1" d="M566.3,105c42.4,0.1,40.8-85.6,40.8-88.6C580.8,8,570.8,2.8,566.3,0.3c-4.5,2.6-14.5,7.7-40.8,16.1
		C525.5,19.3,523.9,105.1,566.3,105z M534.8,23.1c20.3-6.5,28-10.4,31.5-12.4c3.5,2,11.2,6,31.5,12.4c0,2.3,1.3,72.6-31.5,72.5
		C533.5,95.5,534.8,25.4,534.8,23.1z"/>
	<path class="st1" d="M661,105c42.4,0.1,40.8-85.6,40.8-88.6C675.5,8,665.5,2.8,661,0.3c-4.5,2.6-14.5,7.7-40.8,16.1
		C620.3,19.3,618.6,105.1,661,105z M629.5,23.1c20.3-6.5,28-10.4,31.5-12.4c3.5,2,11.2,6,31.5,12.4c0,2.3,1.3,72.6-31.5,72.5
		C628.2,95.5,629.5,25.4,629.5,23.1z"/>
	<path class="st1" d="M0.1,10.4c3.5,2,11.2,6,31.6,12.4c0,2.3,1.3,72.6-31.6,72.5c0,0-0.1,0-0.1,0v9.4c42.4,0.1,40.8-85.6,40.8-88.6
		C14.5,7.7,4.5,2.6,0,0L0.1,10.4C0,10.4,0.1,10.4,0.1,10.4z"/>
	<path class="st1" d="M572.9,49.2c1.5,1.5,3.4,2.5,5.4,2.9c2,0.4,4.2,0.2,6.1-0.6c1.9-0.8,3.6-2.2,4.7-3.9c1.2-1.7,1.8-3.8,1.8-5.9
		c0-2.8-1.1-5.5-3.1-7.5c-2-2-4.7-3.1-7.5-3.1c-2.1,0-4.1,0.6-5.9,1.8c-1.7,1.2-3.1,2.8-3.9,4.7c-0.8,1.9-1,4.1-0.6,6.1
		C570.4,45.9,571.4,47.8,572.9,49.2z M577.5,39.9c0.4-0.6,0.9-1,1.5-1.2c0.6-0.3,1.3-0.3,1.9-0.2c0.7,0.1,1.2,0.4,1.7,0.9
		c0.5,0.5,0.8,1.1,0.9,1.7c0.1,0.7,0.1,1.3-0.2,1.9c-0.3,0.6-0.7,1.1-1.2,1.5c-0.6,0.4-1.2,0.6-1.9,0.6c-0.4,0-0.9-0.1-1.3-0.3
		c-0.4-0.2-0.8-0.4-1.1-0.7c-0.3-0.3-0.6-0.7-0.7-1.1c-0.2-0.4-0.3-0.8-0.3-1.3C576.9,41.1,577.1,40.5,577.5,39.9z"/>
	<polygon class="st1" points="122.3,38 117.3,33 109.8,40.5 102.3,33 97.3,38 109.8,50.6 	"/>
	<rect x="427.9" y="142.2" class="st1" width="20.4" height="7.1"/>
	<path class="st1" d="M559.3,120.7c-26.3-8.4-36.3-13.5-40.8-16.1c-4.5,2.6-14.5,7.7-40.8,16.1c0,2.9-1.7,88.7,40.8,88.6
		C561,209.4,559.3,123.6,559.3,120.7z M518.6,199.9c-32.8-0.1-31.5-70.2-31.5-72.5c20.3-6.5,28-10.4,31.5-12.4
		c3.5,2,11.2,6,31.5,12.4C550.1,129.8,551.4,200,518.6,199.9z"/>
	<polygon class="st1" points="393.5,237.5 393,238 392.5,237.5 380,250 392.5,262.6 393,262.1 393.5,262.6 398.5,257.6 391,250 
		398.5,242.5 	"/>
	<path class="st1" d="M378.9,208.6l-0.5,0.3l-0.5-0.3c-4.5,2.6-14.5,7.7-40.8,16.1c0,2.9-1.7,88.7,40.8,88.6h1
		c42.4,0.1,40.8-85.6,40.8-88.6C393.4,216.3,383.5,211.1,378.9,208.6z M378.4,303.9c-32.3-0.7-31-70.2-31-72.5
		c19.4-6.2,27.3-10.1,31-12.1c3.7,2.1,11.6,6,31,12.1C409.5,233.7,410.7,303.2,378.4,303.9z"/>
	<path class="st1" d="M414.7,155.8c1.9-0.8,3.6-2.2,4.7-3.9c1.2-1.7,1.8-3.8,1.8-5.9c0-2.8-1.1-5.5-3.1-7.5c-2-2-4.7-3.1-7.5-3.1
		c-2.1,0-4.1,0.6-5.9,1.8c-1.7,1.2-3.1,2.8-3.9,4.7c-0.8,1.9-1,4.1-0.6,6.1c0.4,2,1.4,3.9,2.9,5.4c1.5,1.5,3.4,2.5,5.4,2.9
		C410.7,156.8,412.8,156.6,414.7,155.8z M409.4,149.1c-0.4-0.2-0.8-0.4-1.1-0.7c-0.3-0.3-0.6-0.7-0.7-1.1c-0.2-0.4-0.3-0.8-0.3-1.3
		c0-0.7,0.2-1.3,0.6-1.9c0.4-0.6,0.9-1,1.5-1.2c0.6-0.3,1.3-0.3,1.9-0.2c0.6,0.1,1.2,0.4,1.7,0.9c0.5,0.5,0.8,1.1,0.9,1.7
		c0.1,0.7,0.1,1.3-0.2,1.9c-0.3,0.6-0.7,1.1-1.2,1.5c-0.6,0.4-1.2,0.6-1.9,0.6C410.2,149.4,409.8,149.3,409.4,149.1z"/>
	<path class="st1" d="M243.7,174.3c0,1.9-0.8,3.8-2.1,5.1c-1.4,1.4-3.2,2.1-5.1,2.1h0c-1,0-1.9-0.2-2.8-0.5
		c-0.9-0.4-1.7-0.9-2.4-1.6c-0.7-0.7-1.2-1.5-1.6-2.4c-0.4-0.9-0.6-1.8-0.6-2.8v-0.2h-7.4v0.2c0.1,3.8,1.7,7.4,4.4,10.1
		c2.7,2.7,6.4,4.2,10.2,4.2c3.8,0,7.5-1.5,10.2-4.2c2.7-2.7,4.3-6.3,4.4-10.1c0-0.1,0-0.2,0-0.2h-7.4V174.3z"/>
	<path class="st1" d="M432.1,174.3c0,1-0.2,1.9-0.6,2.8c-0.4,0.9-0.9,1.7-1.6,2.4c-0.7,0.7-1.5,1.2-2.4,1.6
		c-0.9,0.4-1.8,0.5-2.7,0.5c0,0,0,0,0.1,0h-0.1c0,0,0,0,0.1,0c-0.9,0-1.9-0.2-2.7-0.5c-0.9-0.4-1.7-0.9-2.4-1.6
		c-0.7-0.7-1.2-1.5-1.6-2.4c-0.4-0.9-0.6-1.8-0.6-2.8v-0.2h-7.4v0.2c0.1,3.8,1.7,7.4,4.4,10.1c2.7,2.7,6.4,4.2,10.2,4.2
		c3.8,0,7.5-1.5,10.2-4.2c2.7-2.7,4.3-6.3,4.4-10.1v-0.2h-7.5C432.1,174.1,432.1,174.2,432.1,174.3z"/>
	<path class="st1" d="M526.2,174.3c0,1-0.2,1.9-0.6,2.8c-0.4,0.9-0.9,1.7-1.6,2.4c-0.7,0.7-1.5,1.2-2.4,1.6
		c-0.9,0.4-1.8,0.5-2.8,0.5c0,0,0,0,0,0h0c0,0,0,0,0,0c-0.9,0-1.9-0.2-2.8-0.5c-0.9-0.4-1.7-0.9-2.4-1.6c-0.7-0.7-1.2-1.5-1.6-2.4
		c-0.4-0.9-0.6-1.8-0.6-2.8V174h-7.4v0.2c0.1,3.8,1.7,7.4,4.4,10.1c2.7,2.7,6.4,4.1,10.2,4.1c3.8,0,7.5-1.5,10.2-4.1
		c2.7-2.7,4.3-6.3,4.4-10.1V174h-7.4C526.2,174.1,526.2,174.2,526.2,174.3z"/>
	<polygon class="st1" points="522.9,138.5 530.4,146 522.9,153.6 527.9,158.6 540.5,146 527.9,133.5 	"/>
	<polygon class="st1" points="503.4,133.5 498.4,138.5 505.9,146 498.4,153.5 503.4,158.6 516,146 	"/>
	<path class="st1" d="M472.9,208.6c-4.5,2.6-14.5,7.7-40.8,16.1c0,2.9-1.7,88.7,40.8,88.6c42.4,0.1,40.8-85.6,40.8-88.6
		C487.4,216.3,477.4,211.2,472.9,208.6z M472.9,303.9c-32.8-0.1-31.5-70.2-31.5-72.5c20.3-6.5,28-10.4,31.5-12.4
		c3.5,2,11.2,6,31.5,12.4C504.4,233.8,505.7,304,472.9,303.9z"/>
	<path class="st1" d="M472.9,271.6c-2.1,0-4.1,0.6-5.9,1.8c-1.7,1.2-3.1,2.8-3.9,4.7c-0.8,1.9-1,4.1-0.6,6.1c0.4,2,1.4,3.9,2.9,5.4
		s3.4,2.5,5.4,2.9c2,0.4,4.2,0.2,6.1-0.6c1.9-0.8,3.6-2.2,4.7-3.9c1.2-1.7,1.8-3.8,1.8-5.9c0-2.8-1.1-5.5-3.1-7.5
		C478.4,272.7,475.7,271.6,472.9,271.6z M476,283.5c-0.3,0.6-0.7,1.1-1.2,1.5c-0.6,0.4-1.2,0.6-1.9,0.6c-0.9,0-1.7-0.4-2.4-1
		c-0.6-0.6-1-1.5-1-2.4c0-0.7,0.2-1.3,0.6-1.9c0.4-0.6,0.9-1,1.5-1.2c0.6-0.3,1.3-0.3,1.9-0.2c0.7,0.1,1.2,0.4,1.7,0.9
		c0.5,0.5,0.8,1.1,0.9,1.7C476.3,282.2,476.2,282.8,476,283.5z"/>
	<polygon class="st1" points="487.3,237.5 474.8,250 487.3,262.6 492.4,257.6 484.9,250 492.4,242.5 	"/>
	<path class="st1" d="M465.3,120.7c-26.3-8.4-36.3-13.5-40.8-16.1c-4.5,2.6-14.5,7.7-40.8,16.1c0,2.9-1.7,88.7,40.8,88.6
		C467,209.4,465.3,123.6,465.3,120.7z M424.6,199.9c-32.8-0.1-31.5-70.2-31.5-72.5c20.3-6.5,28-10.4,31.5-12.4
		c3.5,2,11.2,6,31.5,12.4C456.1,129.8,457.4,200,424.6,199.9z"/>
	<path class="st1" d="M284.4,208.6c-4.5,2.6-14.5,7.7-40.8,16.1c0,2.9-1.7,88.7,40.8,88.6c42.4,0.1,40.8-85.6,40.8-88.6
		C298.8,216.3,288.9,211.2,284.4,208.6z M284.4,303.9c-32.8-0.1-31.5-70.2-31.5-72.5c20.3-6.5,28-10.4,31.5-12.4
		c3.5,2,11.2,6,31.5,12.4C315.9,233.8,317.2,304,284.4,303.9z"/>
	<polygon class="st1" points="298.8,237.5 286.3,250 298.8,262.6 303.9,257.6 296.3,250 303.9,242.5 	"/>
	<polygon class="st1" points="279.3,257.6 271.9,250 279.4,242.5 274.3,237.5 261.8,250 274.3,262.6 	"/>
	<path class="st1" d="M284.4,271.6c-2.1,0-4.1,0.6-5.9,1.8c-1.7,1.2-3.1,2.8-3.9,4.7c-0.8,1.9-1,4.1-0.6,6.1c0.4,2,1.4,3.9,2.9,5.4
		c1.5,1.5,3.4,2.5,5.4,2.9c2,0.4,4.2,0.2,6.1-0.6c1.9-0.8,3.6-2.2,4.7-3.9c1.2-1.7,1.8-3.8,1.8-5.9c0-2.8-1.1-5.5-3.1-7.5
		C289.9,272.7,287.2,271.6,284.4,271.6z M287.5,283.5c-0.3,0.6-0.7,1.1-1.2,1.5c-0.6,0.4-1.2,0.6-1.9,0.6c-0.9,0-1.7-0.4-2.4-1
		c-0.6-0.6-1-1.5-1-2.4c0-0.7,0.2-1.3,0.6-1.9c0.4-0.6,0.9-1,1.5-1.2c0.6-0.3,1.3-0.3,1.9-0.2c0.7,0.1,1.2,0.4,1.7,0.9
		c0.5,0.5,0.8,1.1,0.9,1.7S287.7,282.8,287.5,283.5z"/>
	<path class="st1" d="M276.8,120.7c-26.3-8.4-36.3-13.5-40.8-16.1c-4.5,2.6-14.5,7.7-40.8,16.1c0,2.9-1.7,88.7,40.8,88.6
		C278.5,209.4,276.8,123.6,276.8,120.7z M236.1,199.9c-32.8-0.1-31.5-70.2-31.5-72.5c20.3-6.5,28-10.4,31.5-12.4
		c3.5,2,11.2,6,31.5,12.4C267.6,129.8,268.9,200,236.1,199.9z"/>
	<rect x="239.4" y="142.2" class="st1" width="20.4" height="7.1"/>
	<polygon class="st1" points="334.4,138.5 341.9,146 334.4,153.6 339.4,158.6 351.9,146 339.4,133.5 	"/>
	<polygon class="st1" points="368.5,262.1 369,262.6 374.1,257.6 366.5,250 374.1,242.5 369,237.5 368.5,238 368,237.5 355.5,250 
		368,262.6 	"/>
	<path class="st1" d="M370.8,120.7c-26.3-8.4-36.3-13.5-40.8-16.1c-4.5,2.6-14.5,7.7-40.8,16.1c0,2.9-1.7,88.7,40.8,88.6
		C372.5,209.4,370.8,123.6,370.8,120.7z M330.1,199.9c-32.8-0.1-31.5-70.2-31.5-72.5c20.3-6.5,28-10.4,31.5-12.4
		c3.5,2,11.2,6,31.5,12.4C361.6,129.8,362.9,200,330.1,199.9z"/>
	<polygon class="st1" points="314.9,133.5 309.9,138.5 317.4,146 309.9,153.5 314.9,158.6 327.4,146 	"/>
	<polygon class="st1" points="373,274.2 372.5,273.7 367.5,278.8 383.9,295.2 384.4,294.7 384.9,295.2 390,290.2 373.5,273.7 	"/>
	<path class="st1" d="M337.8,174.3c0,1.9-0.8,3.8-2.1,5.1c-1.4,1.4-3.2,2.1-5.1,2.1h0c-1,0-1.9-0.2-2.8-0.5
		c-0.9-0.4-1.7-0.9-2.4-1.6c-0.7-0.7-1.2-1.5-1.6-2.4c-0.4-0.9-0.6-1.8-0.6-2.8v-0.2h-7.4v0.2c0.1,3.8,1.7,7.4,4.4,10.1
		c2.7,2.7,6.4,4.2,10.2,4.2c3.8,0,7.5-1.5,10.2-4.2c2.7-2.7,4.3-6.3,4.4-10.1c0-0.1,0-0.2,0-0.2h-7.4V174.3z"/>
	<polygon class="st1" points="467.9,257.6 460.4,250 467.9,242.5 462.8,237.5 450.3,250 462.8,262.6 	"/>
	<rect x="733.3" y="246.2" class="st1" width="20.4" height="7.1"/>
	<path class="st1" d="M764.7,278.2c0,1-0.2,1.9-0.6,2.8c-0.4,0.9-0.9,1.7-1.6,2.4c-0.7,0.7-1.5,1.2-2.4,1.6
		c-0.9,0.4-1.8,0.5-2.8,0.5c0,0,0,0,0,0h0c0,0,0,0,0,0c-0.9,0-1.9-0.2-2.8-0.5c-0.9-0.4-1.7-0.9-2.4-1.6c-0.7-0.7-1.2-1.5-1.6-2.4
		c-0.4-0.9-0.6-1.8-0.6-2.8V278h-7.4v0.2c0.1,3.8,1.7,7.4,4.4,10.1c2.7,2.7,6.4,4.2,10.2,4.2c3.8,0,7.5-1.5,10.2-4.2
		c2.7-2.7,4.3-6.3,4.4-10.1V278h-7.4C764.7,278.1,764.7,278.2,764.7,278.2z"/>
	<rect x="760.4" y="246.2" class="st1" width="20.4" height="7.1"/>
	<polygon class="st1" points="712.8,168.5 708.1,173.2 703.4,168.5 698.4,173.5 703.1,178.2 698.4,182.9 703.4,188 708.1,183.3 
		712.8,188 717.9,182.9 713.2,178.2 717.9,173.5 	"/>
	<path class="st1" d="M757.1,208.6c-4.5,2.6-14.5,7.7-40.8,16.1c0,2.9-1.7,88.7,40.8,88.6c42.4,0.1,40.8-85.6,40.8-88.6
		C771.6,216.3,761.6,211.2,757.1,208.6z M757.1,303.9c-32.8-0.1-31.5-70.2-31.5-72.5c20.3-6.5,28-10.4,31.5-12.4
		c3.5,2,11.2,6,31.5,12.4C788.6,233.8,789.9,304,757.1,303.9z"/>
	<polygon class="st1" points="562.5,257.6 555.1,250 562.5,242.5 557.5,237.5 545,250 557.5,262.6 	"/>
	<path class="st1" d="M721.6,135.5c-2.1,0-4.1,0.6-5.9,1.8c-1.7,1.2-3.1,2.8-3.9,4.7c-0.8,1.9-1,4.1-0.6,6.1c0.4,2,1.4,3.9,2.9,5.4
		s3.4,2.5,5.4,2.9c2,0.4,4.2,0.2,6.1-0.6c1.9-0.8,3.6-2.2,4.7-3.9c1.2-1.7,1.8-3.8,1.8-5.9c0-2.8-1.1-5.5-3.1-7.5
		C727.1,136.6,724.4,135.5,721.6,135.5z M724.7,147.3c-0.3,0.6-0.7,1.1-1.2,1.5c-0.6,0.4-1.2,0.6-1.9,0.6c-0.4,0-0.9-0.1-1.3-0.3
		c-0.4-0.2-0.8-0.4-1.1-0.7c-0.3-0.3-0.6-0.7-0.7-1.1c-0.2-0.4-0.3-0.8-0.3-1.3c0-0.7,0.2-1.3,0.6-1.9c0.4-0.6,0.9-1,1.5-1.2
		c0.6-0.3,1.3-0.3,1.9-0.2c0.7,0.1,1.2,0.4,1.7,0.9c0.5,0.5,0.8,1.1,0.9,1.7S725,146.7,724.7,147.3z"/>
	<path class="st1" d="M843.5,120.7c-26.3-8.4-36.3-13.5-40.8-16.1c-4.5,2.6-14.5,7.7-40.8,16.1c0,2.9-1.7,88.7,40.8,88.6
		C845.2,209.4,843.5,123.6,843.5,120.7z M802.8,199.9c-32.8-0.1-31.5-70.2-31.5-72.5c20.3-6.5,28-10.4,31.5-12.4
		c3.5,2,11.2,6,31.5,12.4C834.3,129.8,835.6,200,802.8,199.9z"/>
	<path class="st1" d="M809.7,224.7c0,2.9-1.7,88.7,40.8,88.6c0,0,0.1,0,0.1,0v-9.3c0,0-0.1,0-0.1,0c-32.8-0.1-31.5-70.2-31.5-72.5
		c20.3-6.5,28-10.4,31.5-12.4c0,0,0.1,0,0.1,0.1v-10.4c0,0-0.1,0-0.1-0.1C845.9,211.1,835.9,216.3,809.7,224.7z"/>
	<rect x="792.5" y="175.4" class="st1" width="20.4" height="7.1"/>
	<path class="st1" d="M797.7,151.9c1.2-1.7,1.8-3.8,1.8-5.9c0-2.8-1.1-5.5-3.1-7.5c-2-2-4.7-3.1-7.5-3.1c-2.1,0-4.1,0.6-5.9,1.8
		c-1.7,1.2-3.1,2.8-3.9,4.7c-0.8,1.9-1,4.1-0.6,6.1c0.4,2,1.4,3.9,2.9,5.4c1.5,1.5,3.4,2.5,5.4,2.9c2,0.4,4.2,0.2,6.1-0.6
		S796.6,153.7,797.7,151.9z M792,147.3c-0.3,0.6-0.7,1.1-1.2,1.5c-0.6,0.4-1.2,0.6-1.9,0.6c-0.4,0-0.9-0.1-1.3-0.3
		c-0.4-0.2-0.8-0.4-1.1-0.7c-0.3-0.3-0.6-0.7-0.7-1.1c-0.2-0.4-0.3-0.8-0.3-1.3c0-0.7,0.2-1.3,0.6-1.9c0.4-0.6,0.9-1,1.5-1.2
		c0.6-0.3,1.3-0.3,1.9-0.2c0.6,0.1,1.2,0.4,1.7,0.9c0.5,0.5,0.8,1.1,0.9,1.7C792.3,146.1,792.3,146.7,792,147.3z"/>
	<path class="st1" d="M816.4,135.5c-2.1,0-4.1,0.6-5.9,1.8c-1.7,1.2-3.1,2.8-3.9,4.7c-0.8,1.9-1,4.1-0.6,6.1c0.4,2,1.4,3.9,2.9,5.4
		c1.5,1.5,3.4,2.5,5.4,2.9c2,0.4,4.2,0.2,6.1-0.6c1.9-0.8,3.6-2.2,4.7-3.9c1.2-1.7,1.8-3.8,1.8-5.9c0-2.8-1.1-5.5-3.1-7.5
		C821.9,136.6,819.2,135.5,816.4,135.5z M819.5,147.3c-0.3,0.6-0.7,1.1-1.2,1.5c-0.5,0.4-1.2,0.6-1.9,0.6c-0.4,0-0.9-0.1-1.3-0.3
		c-0.4-0.2-0.8-0.4-1.1-0.7c-0.3-0.3-0.6-0.7-0.7-1.1c-0.2-0.4-0.3-0.8-0.3-1.3c0-0.7,0.2-1.3,0.6-1.9c0.4-0.6,0.9-1,1.5-1.2
		s1.3-0.3,1.9-0.2c0.6,0.1,1.2,0.4,1.7,0.9c0.5,0.5,0.8,1.1,0.9,1.7S819.7,146.7,819.5,147.3z"/>
	<path class="st1" d="M748.8,120.7c-26.3-8.4-36.3-13.5-40.8-16.1c-4.5,2.6-14.5,7.7-40.8,16.1c0,2.9-1.7,88.7,40.8,88.6
		C750.5,209.4,748.8,123.6,748.8,120.7z M708.1,199.9c-32.8-0.1-31.5-70.2-31.5-72.5c20.3-6.5,28-10.4,31.5-12.4
		c3.5,2,11.2,6,31.5,12.4C739.6,129.8,740.9,200,708.1,199.9z"/>
	<rect x="616.7" y="142.2" class="st1" width="20.5" height="7.1"/>
	<path class="st1" d="M620.9,174.3c0,1-0.2,1.9-0.6,2.8c-0.4,0.9-0.9,1.7-1.6,2.4c-0.7,0.7-1.5,1.2-2.4,1.6
		c-0.9,0.4-1.8,0.5-2.7,0.5c0,0,0,0,0,0h-0.1c0,0,0,0,0,0c-0.9,0-1.9-0.2-2.7-0.5c-0.9-0.4-1.7-0.9-2.4-1.6
		c-0.7-0.7-1.2-1.5-1.6-2.4c-0.4-0.9-0.6-1.8-0.6-2.8V174h-7.4v0.2c0.1,3.8,1.7,7.4,4.4,10.1c2.7,2.7,6.4,4.1,10.2,4.1
		c3.8,0,7.5-1.5,10.2-4.1c2.7-2.7,4.3-6.3,4.4-10.1V174h-7.5C621,174.1,621,174.2,620.9,174.3z"/>
	<path class="st1" d="M703,151.9c1.2-1.7,1.8-3.8,1.8-5.9c0-2.8-1.1-5.5-3.1-7.5c-2-2-4.7-3.1-7.5-3.1c-2.1,0-4.1,0.6-5.9,1.8
		c-1.7,1.2-3.1,2.8-3.9,4.7c-0.8,1.9-1,4.1-0.6,6.1c0.4,2,1.4,3.9,2.9,5.4c1.5,1.5,3.4,2.5,5.4,2.9c2,0.4,4.2,0.2,6.1-0.6
		C700.2,155,701.8,153.7,703,151.9z M697.3,147.3c-0.3,0.6-0.7,1.1-1.2,1.5c-0.6,0.4-1.2,0.6-1.9,0.6c-0.4,0-0.9-0.1-1.3-0.3
		c-0.4-0.2-0.8-0.4-1.1-0.7c-0.3-0.3-0.6-0.7-0.7-1.1c-0.2-0.4-0.3-0.8-0.3-1.3c0-0.7,0.2-1.3,0.6-1.9c0.4-0.6,0.9-1,1.5-1.2
		c0.6-0.3,1.3-0.3,1.9-0.2c0.7,0.1,1.2,0.4,1.7,0.9c0.5,0.5,0.8,1.1,0.9,1.7S697.6,146.7,697.3,147.3z"/>
	<rect x="589.5" y="142.2" class="st1" width="20.4" height="7.1"/>
	
		<rect x="564.2" y="272.8" transform="matrix(0.7069 -0.7073 0.7073 0.7069 -34.794 484.9683)" class="st1" width="7.1" height="23.3"/>
	<polygon class="st1" points="582,237.5 569.5,250 582,262.6 587.1,257.6 579.6,250 587.1,242.5 	"/>
	<path class="st1" d="M567.6,208.6c-4.5,2.6-14.5,7.7-40.8,16.1c0,2.9-1.7,88.7,40.8,88.6c42.4,0.1,40.8-85.6,40.8-88.6
		C582.1,216.3,572.1,211.1,567.6,208.6z M567.6,303.9c-32.8-0.1-31.5-70.2-31.5-72.5c20.3-6.5,28-10.4,31.5-12.4
		c3.5,2,11.2,6,31.5,12.4C599.1,233.7,600.4,304,567.6,303.9z"/>
	<path class="st1" d="M662.3,208.6c-4.5,2.6-14.5,7.7-40.8,16.1c0,2.9-1.7,88.7,40.8,88.6c42.4,0.1,40.8-85.6,40.8-88.6
		C676.8,216.3,666.8,211.1,662.3,208.6z M662.3,303.9c-32.8-0.1-31.5-70.2-31.5-72.5c20.3-6.5,28-10.4,31.5-12.4
		c3.5,2,11.2,6,31.5,12.4C693.8,233.7,695.1,304,662.3,303.9z"/>
	<rect x="665.7" y="246.2" class="st1" width="20.4" height="7.1"/>
	<path class="st1" d="M670,278.2c0,1-0.2,1.9-0.6,2.8c-0.4,0.9-0.9,1.7-1.6,2.4c-0.7,0.7-1.5,1.2-2.4,1.6c-0.9,0.4-1.8,0.5-2.8,0.5
		c0,0,0,0,0,0h0c0,0,0,0,0,0c-0.9,0-1.9-0.2-2.8-0.5c-0.9-0.4-1.7-0.9-2.4-1.6c-0.7-0.7-1.2-1.5-1.6-2.4c-0.4-0.9-0.6-1.8-0.6-2.8
		V278h-7.4v0.2c0.1,3.8,1.7,7.4,4.4,10.1c2.7,2.7,6.4,4.2,10.2,4.2c3.8,0,7.5-1.5,10.2-4.2c2.7-2.7,4.3-6.3,4.4-10.1V278H670
		C670.1,278.1,670.1,278.2,670,278.2z"/>
	<path class="st1" d="M652.5,259.8c1.9-0.8,3.6-2.2,4.7-3.9c1.2-1.7,1.8-3.8,1.8-5.9c0-2.8-1.1-5.5-3.1-7.5c-2-2-4.7-3.1-7.5-3.1
		c-2.1,0-4.1,0.6-5.8,1.8c-1.7,1.2-3.1,2.8-3.9,4.7c-0.8,1.9-1,4.1-0.6,6.1c0.4,2,1.4,3.9,2.9,5.4c1.5,1.5,3.4,2.5,5.4,2.9
		C648.4,260.8,650.6,260.6,652.5,259.8z M647.1,253.1c-0.4-0.2-0.8-0.4-1.1-0.7c-0.3-0.3-0.6-0.7-0.7-1.1c-0.2-0.4-0.3-0.8-0.3-1.3
		c0-0.7,0.2-1.3,0.6-1.9c0.4-0.6,0.9-1,1.5-1.2c0.6-0.3,1.3-0.3,1.9-0.2c0.7,0.1,1.2,0.4,1.7,0.9c0.5,0.5,0.8,1.1,0.9,1.7
		s0.1,1.3-0.2,1.9c-0.3,0.6-0.7,1.1-1.2,1.5c-0.6,0.4-1.2,0.6-1.9,0.6C648,253.4,647.5,253.3,647.1,253.1z"/>
	<path class="st1" d="M654.1,120.7c-26.3-8.4-36.3-13.5-40.8-16.1c-4.5,2.6-14.5,7.7-40.8,16.1c0,2.9-1.7,88.7,40.8,88.6
		C655.8,209.4,654.1,123.6,654.1,120.7z M613.3,199.9c-32.8-0.1-31.5-70.2-31.5-72.5c20.3-6.5,28-10.4,31.5-12.4
		c3.5,2,11.2,6,31.5,12.4C644.9,129.8,646.1,200,613.3,199.9z"/>
	<path class="st1" d="M94.7,208.6c-4.5,2.6-14.5,7.7-40.8,16.1c0,2.9-1.7,88.7,40.8,88.6c42.5,0.1,40.8-85.6,40.8-88.6
		C109.3,216.3,99.3,211.1,94.7,208.6z M94.7,303.9c-32.8-0.1-31.5-70.2-31.5-72.5c20.3-6.5,28-10.4,31.5-12.4
		c3.5,2,11.2,6,31.6,12.4C126.3,233.7,127.6,304,94.7,303.9z"/>
	<polygon class="st1" points="132.9,155.8 137.9,150.8 133.2,146.1 137.9,141.4 132.9,136.3 128.2,141 123.5,136.3 118.4,141.4 
		123.1,146.1 118.4,150.8 123.5,155.8 128.2,151.1 	"/>
	<path class="st1" d="M141.2,169.2c-3.8,0-7.5,1.5-10.2,4.2c-2.7,2.7-4.3,6.3-4.4,10.1v0.2h7.4v-0.2c0-1,0.2-1.9,0.6-2.8
		c0.4-0.9,0.9-1.7,1.6-2.4c0.7-0.7,1.5-1.2,2.4-1.6c0.9-0.4,1.8-0.5,2.8-0.5c0,0,0,0,0,0h0c0,0,0,0,0,0c1,0,1.9,0.2,2.8,0.5
		c0.9,0.4,1.7,0.9,2.4,1.6c0.7,0.7,1.2,1.5,1.6,2.4c0.4,0.9,0.6,1.8,0.6,2.8v0.2h7.4v-0.2c-0.1-3.8-1.7-7.4-4.4-10.1
		C148.7,170.7,145,169.2,141.2,169.2z"/>
	<polygon class="st1" points="158.7,136.3 154,141 149.3,136.3 144.3,141.4 149,146.1 144.3,150.8 149.3,155.8 154,151.1 
		158.7,155.8 163.7,150.8 159,146.1 163.7,141.4 	"/>
	<rect x="84.6" y="279.5" class="st1" width="20.4" height="7.1"/>
	<path class="st1" d="M115.9,242.6c-1-1-2.1-1.8-3.4-2.3c-1.3-0.5-2.7-0.8-4-0.8c-2.1,0-4.1,0.6-5.9,1.8c-1.7,1.2-3.1,2.8-3.9,4.7
		c-0.8,1.9-1,4.1-0.6,6.1c0.4,2,1.4,3.9,2.9,5.4c1.5,1.5,3.4,2.5,5.4,2.9c2,0.4,4.2,0.2,6.1-0.6c1.9-0.8,3.6-2.2,4.7-3.9
		c1.2-1.7,1.8-3.8,1.8-5.9c0-1.4-0.3-2.8-0.8-4C117.6,244.7,116.9,243.5,115.9,242.6z M111.5,251.3c-0.3,0.6-0.7,1.1-1.2,1.5
		c-0.6,0.4-1.2,0.6-1.9,0.6c-0.4,0-0.9-0.1-1.3-0.3c-0.4-0.2-0.8-0.4-1.1-0.7c-0.3-0.3-0.6-0.7-0.7-1.1c-0.2-0.4-0.3-0.8-0.3-1.3
		c0-0.7,0.2-1.3,0.6-1.9c0.4-0.6,0.9-1,1.5-1.2c0.6-0.3,1.3-0.3,1.9-0.2c0.6,0.1,1.2,0.4,1.7,0.9c0.5,0.5,0.8,1.1,0.9,1.7
		C111.8,250,111.8,250.7,111.5,251.3z"/>
	<polygon class="st1" points="193.9,242.5 201.4,250 193.9,257.5 198.9,262.6 211.4,250 198.9,237.5 	"/>
	<path class="st1" d="M89.7,255.9c1.2-1.7,1.8-3.8,1.8-5.9c0-1.4-0.3-2.8-0.8-4c-0.5-1.3-1.3-2.4-2.3-3.4c-1-1-2.1-1.8-3.4-2.3
		c-1.3-0.5-2.7-0.8-4-0.8c-2.1,0-4.1,0.6-5.9,1.8c-1.7,1.2-3.1,2.8-3.9,4.7c-0.8,1.9-1,4.1-0.6,6.1c0.4,2,1.4,3.9,2.9,5.4
		c1.5,1.5,3.4,2.5,5.4,2.9c2,0.4,4.2,0.2,6.1-0.6S88.5,257.6,89.7,255.9z M84,251.3c-0.3,0.6-0.7,1.1-1.2,1.5
		c-0.6,0.4-1.2,0.6-1.9,0.6c-0.4,0-0.9-0.1-1.3-0.3c-0.4-0.2-0.8-0.4-1.1-0.7c-0.3-0.3-0.6-0.7-0.7-1.1c-0.2-0.4-0.3-0.8-0.3-1.3
		c0-0.7,0.2-1.3,0.6-1.9c0.4-0.6,0.9-1,1.5-1.2c0.6-0.3,1.3-0.3,1.9-0.2s1.2,0.4,1.7,0.9c0.5,0.5,0.8,1.1,0.9,1.7
		S84.3,250.7,84,251.3z"/>
	<path class="st1" d="M182.1,120.7c-26.3-8.4-36.3-13.5-40.8-16.1c-4.5,2.6-14.5,7.7-40.8,16.1c0,2.9-1.7,88.7,40.8,88.6
		C183.7,209.4,182.1,123.6,182.1,120.7z M141.2,199.9c-32.8-0.1-31.5-70.2-31.5-72.5c20.3-6.5,28-10.4,31.5-12.4
		c3.5,2,11.2,6,31.5,12.4C172.7,129.7,174,200,141.2,199.9z"/>
	<path class="st1" d="M189.6,208.6c-4.5,2.6-14.5,7.7-40.8,16.1c0,2.9-1.7,88.7,40.8,88.6c42.4,0.1,40.8-85.6,40.8-88.6
		C204,216.3,194.1,211.1,189.6,208.6z M189.6,303.9c-32.8-0.1-31.6-70.2-31.6-72.5c20.3-6.5,28-10.4,31.6-12.4
		c3.5,2,11.2,6,31.5,12.4C221.1,233.7,222.4,304,189.6,303.9z"/>
	<polygon class="st1" points="174.4,237.4 169.4,242.5 176.9,250 169.4,257.5 174.4,262.5 186.9,250 	"/>
	<path class="st1" d="M197.2,278.2c0,1-0.2,1.9-0.6,2.8c-0.4,0.9-0.9,1.7-1.6,2.4c-0.7,0.7-1.5,1.2-2.4,1.6
		c-0.9,0.4-1.8,0.5-2.8,0.5h0c-1.9,0-3.8-0.8-5.1-2.1c-1.4-1.4-2.1-3.2-2.1-5.1V278h-7.4v0.2c0.1,3.8,1.7,7.4,4.4,10.1
		c2.7,2.7,6.4,4.2,10.2,4.2c3.8,0,7.5-1.5,10.2-4.2c2.7-2.7,4.3-6.3,4.4-10.1V278h-7.4V278.2z"/>
	<path class="st1" d="M226.2,155.8c1.9-0.8,3.6-2.2,4.7-3.9c1.2-1.7,1.8-3.8,1.8-5.9c0-2.8-1.1-5.5-3.1-7.5c-2-2-4.7-3.1-7.5-3.1
		c-2.1,0-4.1,0.6-5.9,1.8c-1.7,1.2-3.1,2.8-3.9,4.7c-0.8,1.9-1,4.1-0.6,6.1c0.4,2,1.4,3.9,2.9,5.4c1.5,1.5,3.4,2.5,5.4,2.9
		C222.2,156.8,224.3,156.6,226.2,155.8z M220.9,149.1c-0.4-0.2-0.8-0.4-1.1-0.7c-0.3-0.3-0.6-0.7-0.7-1.1c-0.2-0.4-0.3-0.8-0.3-1.3
		c0-0.7,0.2-1.3,0.6-1.9c0.4-0.6,0.9-1,1.5-1.2c0.6-0.3,1.3-0.3,1.9-0.2c0.7,0.1,1.2,0.4,1.7,0.9c0.5,0.5,0.8,1.1,0.9,1.7
		c0.1,0.7,0.1,1.3-0.2,1.9c-0.3,0.6-0.7,1.1-1.2,1.5c-0.6,0.4-1.2,0.6-1.9,0.6C221.7,149.4,221.3,149.3,220.9,149.1z"/>
	<path class="st1" d="M87.8,120.7c-26.3-8.4-36.3-13.5-40.8-16.1c-4.5,2.6-14.5,7.7-40.8,16.1c0,2.9-1.7,88.7,40.8,88.6
		C89.5,209.4,87.8,123.6,87.8,120.7z M47,199.9c-32.8-0.1-31.5-70.2-31.5-72.5C35.8,121,43.5,117,47,115c3.5,2,11.2,6,31.6,12.4
		C78.6,129.8,79.9,200,47,199.9z"/>
	<polygon class="st1" points="4.9,291.9 9.9,286.9 5.2,282.2 9.9,277.5 4.9,272.5 0.2,277.2 0,277 0,287.4 0.2,287.2 	"/>
	<polygon class="st1" points="62.2,144.8 54.7,137.3 49.6,142.3 62.2,154.9 74.7,142.3 69.6,137.3 	"/>
	<path class="st1" d="M55,170.7c-1-1-2.2-1.8-3.4-2.3c-1.3-0.5-2.7-0.8-4-0.8c-2.1,0-4.1,0.6-5.8,1.8s-3.1,2.8-3.9,4.8
		c-0.8,1.9-1,4.1-0.6,6.1c0.4,2,1.4,3.9,2.9,5.4c1.5,1.5,3.4,2.5,5.4,2.9c2,0.4,4.2,0.2,6.1-0.6c1.9-0.8,3.6-2.2,4.7-3.9
		c1.2-1.7,1.8-3.8,1.8-5.9c0-1.4-0.3-2.8-0.8-4C56.7,172.9,56,171.7,55,170.7z M50.6,179.5c-0.3,0.6-0.7,1.1-1.2,1.5
		c-0.6,0.4-1.2,0.6-1.9,0.6c-0.9,0-1.7-0.4-2.4-1c-0.6-0.6-1-1.5-1-2.4c0-0.7,0.2-1.3,0.6-1.9c0.4-0.6,0.9-1,1.5-1.2
		s1.3-0.3,1.9-0.2c0.7,0.1,1.3,0.4,1.7,0.9c0.5,0.5,0.8,1.1,0.9,1.7C50.9,178.2,50.9,178.9,50.6,179.5z"/>
	<path class="st1" d="M0,208.6V219c0,0,0,0,0,0c3.5,2,11.2,6,31.6,12.4c0,2.3,1.3,72.6-31.6,72.5c0,0,0,0,0,0v9.3
		c42.4,0.1,40.8-85.6,40.8-88.6C14.5,216.3,4.5,211.1,0,208.6z"/>
	<path class="st1" d="M6.3,257.5c1.5,1.5,3.4,2.5,5.4,2.9c2,0.4,4.2,0.2,6.1-0.6c1.9-0.8,3.6-2.2,4.7-3.9c1.2-1.7,1.8-3.8,1.8-5.9
		c0-1.4-0.3-2.8-0.8-4c-0.5-1.3-1.3-2.4-2.3-3.4c-1-1-2.1-1.8-3.4-2.3c-1.3-0.5-2.7-0.8-4-0.8c-2.1,0-4.1,0.6-5.9,1.8
		c-1.7,1.2-3.1,2.8-3.9,4.7c-0.8,1.9-1,4.1-0.6,6.1C3.8,254.1,4.8,256,6.3,257.5z M10.9,248.2c0.4-0.6,0.9-1,1.5-1.2
		c0.6-0.3,1.3-0.3,1.9-0.2c0.6,0.1,1.2,0.4,1.7,0.9c0.5,0.5,0.8,1.1,0.9,1.7c0.1,0.7,0.1,1.3-0.2,1.9c-0.3,0.6-0.7,1.1-1.2,1.5
		c-0.6,0.4-1.2,0.6-1.9,0.6c-0.4,0-0.9-0.1-1.3-0.3c-0.4-0.2-0.8-0.4-1.1-0.7c-0.3-0.3-0.6-0.7-0.7-1.1c-0.2-0.4-0.3-0.8-0.3-1.3
		C10.3,249.4,10.5,248.7,10.9,248.2z"/>
	<polygon class="st1" points="41.1,137.3 33.6,144.8 26.2,137.3 21.1,142.3 33.6,154.8 46.1,142.3 	"/>
</g>
</svg>
