<svg version="1.1" id="Layer_1" xmlns="http://www.w3.org/2000/svg" x="0" y="0" viewBox="0 0 456.6 492.4" xml:space="preserve">
  <style>
    .st0{fill:#358c65}.st1{fill:#46617c}.st2{fill:#4ab181}.st3{fill:#70bd95}.st4{fill:#8bc7a7}.st5{fill:#567da2}.st6{fill:#35495e}.st7{fill:#87a9c9}.st8{fill:#afd7c3}.st9{fill:#a3beda}.st10{fill:#6991b5}.st11{fill:#399f73}.st12{fill:#38c785}.st13{fill:#fff}
  </style>
  <path class="st0" d="M246.6 349.6h-36.7l18.3-32 18.4 32zm-18.4 0l-9.2-16h18.4"/>
  <path class="st1" d="M209.9 157.6h36.7l-18.4 32-18.3-32zm18.3 0l9.2 16H219"/>
  <path class="st2" d="M173.1 221.6h-36.8l18.4-32 18.4 32zm-18.4 0l-9.2-16h18.4M320.1 221.6h-36.8l18.4-32 18.4 32zm-18.4 0l-9.2-16h18.4M209.9 285.6h-36.8l18.4-32 18.4 32zm-18.4 0l-9.2-16h18.4"/>
  <path class="st3" d="M246.6 221.6h36.8l-18.4 32-18.4-32zm18.4 0l9.2 16h-18.4"/>
  <path class="st4" d="M136.3 157.6H99.6l18.4-32 18.3 32zm-18.3 0l-9.2-16h18.3"/>
  <path class="st5" d="M283.4 157.6h-36.8l18.4-32 18.4 32zm-18.4 0l-9.2-16h18.4"/>
  <path class="st2" d="M246.6 285.6h-36.7l18.3-32 18.4 32zm-18.4 0l-9.2-16h18.4"/>
  <path class="st6" d="M209.9 221.6h36.7l-18.4 32-18.3-32zm18.3 0l9.2 16H219"/>
  <path class="st4" d="M173.1 157.6h-36.8l18.4-32 18.4 32zm-18.4 0l-9.2-16h18.4M320.1 157.6h-36.8l18.4-32 18.4 32zm-18.4 0l-9.2-16h18.4"/>
  <path class="st2" d="M283.4 285.6h-36.8l18.4-32 18.4 32zm-18.4 0l-9.2-16h18.4"/>
  <path class="st3" d="M173.1 221.6h36.8l-18.4 32-18.4-32zm18.4 0l9.2 16h-18.4"/>
  <path class="st5" d="M209.8 157.6h-36.7l18.4-32 18.3 32zm-18.3 0l-9.2-16h18.4"/>
  <path class="st4" d="M356.9 157.6h-36.8l18.4-32 18.4 32zm-18.4 0l-9.2-16h18.4"/>
  <path class="st0" d="M228.2 317.6h-36.7l18.4-32 18.3 32zm-18.3 0l-9.2-16H219"/>
  <path class="st6" d="M228.2 189.6H265l-18.4 32-18.4-32zm18.4 0l9.2 16h-18.4"/>
  <path class="st2" d="M154.7 189.6h-36.8l18.4-32 18.4 32zm-18.4 0l-9.2-16h18.3M301.7 189.6H265l18.4-32 18.3 32zm-18.3 0l-9.2-16h18.3M191.5 253.6h-36.8l18.4-32 18.4 32zm-18.4 0l-9.2-16h18.4"/>
  <path class="st4" d="M118 125.6H81.2l18.4-32 18.4 32zm-18.4 0l-9.2-16h18.4"/>
  <path class="st7" d="M173.1 93.6h-36.8l18.4-32 18.4 32zm-18.4 0l-9.2-16h18.4M283.4 93.6h-36.8l18.4-32 18.4 32zm-18.4 0l-9.2-16h18.4"/>
  <path class="st8" d="M136.3 93.6H99.6l18.4 32 18.3-32zm-18.3 0l-9.2 16h18.3"/>
  <path class="st9" d="M304.2 38.5h-36.8l18.4 32 18.4-32zm-18.3 0l-9.2 16H295"/>
  <path class="st10" d="M265 125.6h-36.8l18.4-32 18.4 32zm-18.4 0l-9.2-16h18.4"/>
  <path class="st4" d="M360 70.2h-36.8l18.4-32 18.4 32zm-18.4 0l-9.2-16h18.4"/>
  <path class="st9" d="M283.4 93.6h-36.8l18.4 32 18.4-32zm-18.4 0l-9.2 16h18.4"/>
  <path class="st8" d="M56.5 0H19.8l18.4 32L56.5 0zM38.1 0l-9.2 16h18.4"/>
  <path class="st2" d="M265 253.6h-36.8l18.4-32 18.4 32zm-18.4 0l-9.2-16h18.4"/>
  <path class="st10" d="M191.5 125.6h-36.8l18.4-32 18.4 32zm-18.4 0l-9.2-16h18.4"/>
  <path class="st4" d="M134.8 88.1H98.1l18.4-32 18.3 32zm-18.4 0l-9.2-16h18.4"/>
  <path class="st9" d="M209.8 93.6h-36.7l18.4 32 18.3-32zm-18.3 0l-9.2 16h18.4M151.1 33.2h-36.7l18.3 32 18.4-32zm-18.4 0l-9.2 16h18.4"/>
  <path class="st4" d="M338.5 125.6h-36.8l18.4-32 18.4 32zm-18.4 0l-9.2-16h18.4"/>
  <path class="st8" d="M430.7 7.2h-36.8l18.4 32 18.4-32zm-18.4 0l-9.2 16h18.3M356.9 80.9h-36.8l18.4 32 18.4-32zm-18.4 0l-9.2 16h18.4"/>
  <path class="st9" d="M338.3 8.7h-36.7l18.3 32 18.4-32zm-18.4 0l-9.2 16h18.4"/>
  <path class="st0" d="M265 317.6h-36.8l18.4-32 18.4 32zm-18.4 0l-9.2-16h18.4"/>
  <path class="st6" d="M191.5 189.6h36.7l-18.3 32-18.4-32zm18.4 0l9.2 16h-18.4"/>
  <path class="st2" d="M191.5 189.6h-36.8l18.4-32 18.4 32zm-18.4 0l-9.2-16h18.4M338.5 189.6h-36.8l18.4-32 18.4 32zm-18.4 0l-9.2-16h18.4M228.2 253.6h-36.7l18.4-32 18.3 32zm-18.3 0l-9.2-16H219"/>
  <path class="st4" d="M154.7 125.6h-36.8l18.4-32 18.4 32zm-18.4 0l-9.2-16h18.3"/>
  <path class="st7" d="M209.8 93.6h-36.7l18.4-32 18.3 32zm-18.3 0l-9.2-16h18.4M320.1 93.6h-36.8l18.4-32 18.4 32zm-18.4 0l-9.2-16h18.4"/>
  <path class="st9" d="M173.1 93.6h-36.8l18.4 32 18.4-32zm-18.4 0l-9.2 16h18.4M191.5 50.4h-36.8l18.4 32 18.4-32zm-18.4 0l-9.2 16h18.4"/>
  <path class="st10" d="M301.7 125.6H265l18.4-32 18.3 32zm-18.3 0l-9.2-16h18.3"/>
  <path class="st4" d="M400.5 82.2h-36.8l18.4-32 18.4 32zm-18.4 0l-9.2-16h18.4"/>
  <path class="st9" d="M320.1 93.6h-36.8l18.4 32 18.4-32zm-18.4 0l-9.2 16h18.4"/>
  <path class="st8" d="M94.6 79.9H57.8l18.4 32 18.4-32zm-18.4 0l-9.2 16h18.3"/>
  <path class="st2" d="M301.7 253.6H265l18.4-32 18.3 32zm-18.3 0l-9.2-16h18.3"/>
  <path class="st10" d="M228.2 125.6h-36.7l18.3-32 18.4 32zm-18.4 0l-9.2-16H219"/>
  <path class="st4" d="M85.2 70.5H48.4l18.4-32 18.4 32zm-18.4 0l-9.2-16H76"/>
  <path class="st8" d="M108.3 21.8H71.6l18.4 32 18.3-32zm-18.4 0l-9.2 16h18.4"/>
  <path class="st4" d="M375.2 125.6h-36.7l18.4-32 18.3 32zm-18.3 0l-9.2-16h18.4"/>
  <path class="st8" d="M393.6 93.6h-36.7l18.3 32 18.4-32zm-18.4 0l-9.2 16h18.4M383.6 18.9h-36.8l18.4 32 18.4-32zm-18.4 0l-9.2 16h18.4"/>
  <path class="st11" d="M191.5 317.6h36.7l-18.3 32-18.4-32zm18.4 0l9.2 16h-18.4"/>
  <path class="st5" d="M265 189.6h-36.8l18.4-32 18.4 32zm-18.4 0l-9.2-16h18.4"/>
  <path class="st3" d="M118 189.6h36.7l-18.4 32-18.3-32zm18.3 0l9.2 16h-18.3M265 189.6h36.8l-18.4 32-18.4-32zm18.4 0l9.2 16h-18.3"/>
  <path class="st11" d="M154.7 253.6h36.8l-18.4 32-18.4-32zm18.4 0l9.2 16h-18.4"/>
  <path class="st3" d="M81.2 125.6H118l-18.4 32-18.4-32zm18.4 0l9.2 16H90.4"/>
  <path class="st7" d="M228.2 125.6H265l-18.4 32-18.4-32zm18.4 0l9.2 16h-18.4"/>
  <path class="st11" d="M228.2 253.6H265l-18.4 32-18.4-32zm18.4 0l9.2 16h-18.4"/>
  <path class="st7" d="M154.7 125.6h36.8l-18.4 32-18.4-32zm18.4 0l9.2 16h-18.4"/>
  <path class="st3" d="M301.7 125.6h36.8l-18.4 32-18.4-32zm18.4 0l9.2 16h-18.4"/>
  <path class="st11" d="M228.2 317.6H265l-18.4 32-18.4-32zm18.4 0l9.2 16h-18.4"/>
  <path class="st5" d="M228.2 189.6h-36.7l18.4-32 18.3 32zm-18.3 0l-9.2-16H219"/>
  <path class="st3" d="M154.7 189.6h36.8l-18.4 32-18.4-32zm18.4 0l9.2 16h-18.4M301.7 189.6h36.8l-18.4 32-18.4-32zm18.4 0l9.2 16h-18.4"/>
  <path class="st11" d="M191.5 253.6h36.7l-18.3 32-18.4-32zm18.4 0l9.2 16h-18.4"/>
  <path class="st3" d="M118 125.6h36.7l-18.4 32-18.3-32zm18.3 0l9.2 16h-18.3"/>
  <path class="st7" d="M265 125.6h36.8l-18.4 32-18.4-32zm18.4 0l9.2 16h-18.3"/>
  <path class="st11" d="M265 253.6h36.8l-18.4 32-18.4-32zm18.4 0l9.2 16h-18.3"/>
  <path class="st7" d="M191.5 125.6h36.7l-18.4 32-18.3-32zm18.3 0l9.2 16h-18.4"/>
  <path class="st3" d="M338.5 125.6h36.7l-18.3 32-18.4-32zm18.4 0l9.2 16h-18.4"/>
  <path class="st11" d="M209.9 349.6h36.7l-18.4 32-18.3-32zm18.3 0l9.2 16H219"/>
  <path class="st5" d="M246.6 157.6h-36.7l18.3-32 18.4 32zm-18.4 0l-9.2-16h18.4"/>
  <path class="st3" d="M136.3 221.6h36.8l-18.4 32-18.4-32zm18.4 0l9.2 16h-18.4M283.4 221.6h36.8l-18.4 32-18.4-32zm18.3 0l9.2 16h-18.4"/>
  <path class="st11" d="M173.1 285.6h36.8l-18.4 32-18.4-32zm18.4 0l9.2 16h-18.4"/>
  <path class="st2" d="M283.4 221.6h-36.8l18.4-32 18.4 32zm-18.4 0l-9.2-16h18.4"/>
  <path class="st3" d="M99.6 157.6h36.8l-18.4 32-18.4-32zm18.4 0l9.2 16h-18.4"/>
  <path class="st1" d="M246.6 157.6h36.8l-18.4 32-18.4-32zm18.4 0l9.2 16h-18.4"/>
  <path class="st11" d="M209.9 285.6h36.7l-18.4 32-18.3-32zm18.3 0l9.2 16H219"/>
  <path class="st1" d="M246.6 221.6h-36.7l18.3-32 18.4 32zm-18.4 0l-9.2-16h18.4"/>
  <path class="st3" d="M136.3 157.6h36.8l-18.4 32-18.4-32zm18.4 0l9.2 16h-18.4M283.4 157.6h36.8l-18.4 32-18.4-32zm18.3 0l9.2 16h-18.4"/>
  <path class="st11" d="M246.6 285.6h36.8l-18.4 32-18.4-32zm18.4 0l9.2 16h-18.4"/>
  <path class="st2" d="M209.9 221.6h-36.8l18.4-32 18.4 32zm-18.4 0l-9.2-16h18.4"/>
  <path class="st1" d="M173.1 157.6h36.7l-18.3 32-18.4-32zm18.4 0l9.2 16h-18.4"/>
  <path class="st3" d="M320.1 157.6h36.8l-18.4 32-18.4-32zm18.4 0l9.2 16h-18.4"/>
  <path class="st12" d="M37.9 458.4l-14.3 33.3h-9.3L0 458.4h10.2l9.1 21.7 9.3-21.7h9.3zm186 0h9.5v25.9h15.9v7.5h-25.4v-33.4zm48.6 34c-3.3 0-6.6-.7-9.5-2.2-2.7-1.4-5-3.6-6.6-6.2a17.7 17.7 0 010-17.8c1.6-2.6 3.9-4.8 6.6-6.2 6-3 13-3 19 0a17.06 17.06 0 010 30.2c-3 1.5-6.3 2.2-9.5 2.2zm0-7.8c1.6 0 3.2-.4 4.6-1.2 1.4-.8 2.5-2 3.3-3.4 1.6-3.1 1.6-6.9 0-10-.8-1.4-1.9-2.6-3.3-3.3a9.42 9.42 0 00-9.2 0c-1.4.8-2.5 1.9-3.3 3.3-1.6 3.1-1.6 6.9 0 10 .8 1.4 1.9 2.6 3.3 3.4 1.4.8 3 1.2 4.6 1.2zm57.9-26.2v33.4h-7.7L307.9 474v17.8h-9.3v-33.4h7.8l14.8 17.8v-17.8h9.2zm9.3 0h15.8c3.4-.1 6.7.6 9.7 2.1 2.7 1.3 5 3.3 6.6 5.8 1.6 2.7 2.4 5.7 2.3 8.8.1 3.1-.7 6.1-2.3 8.8-1.6 2.5-3.9 4.6-6.6 5.8-3 1.4-6.4 2.1-9.7 2.1h-15.9l.1-33.4zm15.4 25.8c2.5.1 5-.7 6.9-2.4 3.5-3.8 3.5-9.6 0-13.4a9.73 9.73 0 00-6.9-2.4h-5.9v18.3l5.9-.1zm43.5 8.2c-3.3 0-6.6-.7-9.5-2.2-2.7-1.4-5-3.6-6.6-6.2a17.7 17.7 0 010-17.8c1.6-2.6 3.9-4.8 6.6-6.2 6-3 13-3 19 0 2.7 1.4 5 3.6 6.6 6.2a17.7 17.7 0 010 17.8 17.1 17.1 0 01-6.6 6.2c-2.9 1.5-6.2 2.2-9.5 2.2zm0-7.8c1.6 0 3.2-.4 4.6-1.2 1.4-.8 2.5-2 3.2-3.4 1.6-3.1 1.6-6.9 0-10-.8-1.4-1.9-2.5-3.2-3.3-1.4-.8-3-1.2-4.6-1.2s-3.2.4-4.6 1.2c-1.4.8-2.5 1.9-3.2 3.3-1.6 3.1-1.6 6.9 0 10 .7 1.4 1.9 2.6 3.2 3.4 1.4.8 3 1.2 4.6 1.2zm58-26.2v33.4h-7.8L434 473.9v17.8h-9.2v-33.4h7.8l14.7 17.8v-17.8h9.3v.1zm-396.2 34c-5 0-8.8-1.4-11.6-4.1s-4.2-6.5-4.2-11.5v-18.5h9.5v18.2c0 5.3 2.1 8 6.3 8s6.3-2.7 6.3-8v-18.2H76v18.5c0 5-1.4 8.8-4.2 11.5s-6.4 4.1-11.4 4.1zm53.4-8v7.3H87v-33.3h26.2v7.3H96.3v5.6h14.8v7H96.3v6.1h17.5zm13 7.7c-1.4 0-2.8-.5-3.9-1.5-1-1-1.6-2.4-1.6-3.9-.1-1.5.5-2.9 1.5-3.9 1.1-1 2.5-1.5 3.9-1.5 1.4-.1 2.9.5 3.9 1.5a5.5 5.5 0 010 7.7c-.9 1.1-2.3 1.6-3.8 1.6zm21.9.2c-2.3 0-4.6-.4-6.7-1.3-1.9-.8-3.6-2-4.9-3.6l5.2-6.1c1.8 2.3 3.7 3.5 5.8 3.5 1.2.1 2.3-.4 3.1-1.3.8-1 1.2-2.3 1.1-3.6v-14.4h-11.6v-7.3h20.9v21.1c0 4.3-1.1 7.5-3.3 9.7s-5.4 3.3-9.6 3.3zm35.5 0c-2.7 0-5.3-.3-7.9-1-2.2-.5-4.3-1.4-6.2-2.7l3.1-7c1.6 1.1 3.4 1.9 5.2 2.4 1.9.6 3.8.9 5.8.9 3.6 0 5.5-.9 5.5-2.7 0-1-.7-1.8-1.6-2.1-1.6-.6-3.3-1.1-5-1.5-2.1-.4-4.2-1-6.3-1.7-1.7-.6-3.2-1.6-4.3-3a8.02 8.02 0 01-1.8-5.4c0-2 .6-3.9 1.7-5.5 1.3-1.8 3-3.1 5-3.9 2.6-1 5.4-1.5 8.2-1.4 2.2 0 4.4.3 6.5.7 2 .5 3.9 1.2 5.6 2.2l-2.9 7c-2.8-1.6-6-2.5-9.3-2.6-1.4-.1-2.9.2-4.1.9-.8.4-1.3 1.3-1.3 2.2 0 .9.7 1.7 1.5 2 1.6.6 3.2 1.1 4.9 1.4 2.1.4 4.3 1 6.3 1.7 1.7.6 3.2 1.7 4.3 3 1.3 1.5 1.9 3.5 1.8 5.5 0 1.9-.6 3.8-1.7 5.4-1.3 1.7-3 3.1-5 3.9-2.6 1-5.3 1.5-8.1 1.5l.1-.2z"/>
  <path class="st13" d="M73.9 426.1h-6.1v-4.4h17.7v4.4h-6v15.3H74l-.1-15.3zm265.6 11.4h-8.3l-1.5 3.9H324l8.7-19.7h5.5l8.8 19.7h-5.8l-1.7-3.9zm-1.6-4l-2.5-6.3-2.5 6.3h5zm21.4 2.6h-3.1v5.2h-5.5v-19.7h9c1.6 0 3.2.3 4.6.9 1.2.5 2.3 1.4 3.1 2.5.7 1.2 1.1 2.5 1.1 3.9 0 1.3-.3 2.6-1 3.7s-1.7 2-2.9 2.5l4.3 6.2h-6l-3.6-5.2zm3.5-7.1c0-.8-.3-1.6-.9-2.1-.7-.6-1.6-.8-2.6-.8h-3.1v5.8h3.1c.9.1 1.8-.2 2.6-.7.6-.6 1-1.4.9-2.2zm26.8 8.1v4.3h-15.9v-19.8h15.5v4.3h-9.9v3.3h8.8v4.2h-8.8v3.6l10.3.1zm-98.5-15.4l-6.4 19.7h-6l-3.8-12-3.9 12h-6l-6.4-19.7h5.8l4 12.6 4.2-12.6h5.1l4 12.7 4.2-12.7h5.2zm20.4 15.4v4.3h-15.8v-19.8h15.5v4.3h-9.9v3.3h8.8v4.2h-8.8v3.6l10.2.1zm-211.7 4.7c-2 0-3.9-.4-5.6-1.3-4.9-2.6-6.8-8.6-4.3-13.6 1-1.8 2.4-3.3 4.3-4.3 3.5-1.7 7.7-1.7 11.2 0 1.6.8 3 2.1 3.9 3.6 1.9 3.3 1.9 7.3 0 10.5-1 1.5-2.3 2.8-3.9 3.6-1.7 1-3.7 1.5-5.6 1.5zm0-4.6c.9 0 1.9-.2 2.7-.7.8-.5 1.5-1.2 1.9-2 .5-.9.7-1.9.7-2.9s-.2-2-.7-2.9a5.2 5.2 0 00-7.3-2c-.8.5-1.5 1.2-1.9 2-.5.9-.7 1.9-.7 2.9s.2 2 .7 2.9c.4.8 1.1 1.5 1.9 2 .8.4 1.8.7 2.7.7zm29.3-6.1h4.9v8.2c-1.2.8-2.5 1.5-3.9 1.9s-2.9.6-4.4.6c-1.9 0-3.9-.4-5.6-1.3-1.6-.8-3-2.1-3.9-3.6a10.76 10.76 0 010-10.6c.9-1.6 2.3-2.8 3.9-3.6 1.8-.9 3.7-1.3 5.7-1.3 1.7 0 3.4.3 5 .9 1.4.6 2.7 1.5 3.7 2.7l-3.5 3.2c-1.2-1.4-3-2.2-4.8-2.2-2.9-.2-5.4 2-5.6 4.9v.7c0 1 .2 2 .7 2.9.5.8 1.2 1.5 2 2a5 5 0 002.9.7c1 0 2.1-.2 3-.7l-.1-5.4zm26.6 6v4.3h-15.8v-19.8h15.5v4.3h-9.9v3.3h8.8v4.1h-8.8v3.6l10.2.2zm9.5-11h-6.1v-4.4h17.7v4.4h-6v15.3h-5.6v-15.3zm34.6-4.4v19.7h-5.6v-7.7h-7.6v7.7H181v-19.8h5.6v7.4h7.6v-7.4l5.6.1zm22 15.4v4.3H206v-19.8h15.5v4.3h-9.9v3.3h8.8v4.1h-8.8v3.6l10.2.2zm14-.9h-3.2v5.2H227v-19.8h9c1.6 0 3.2.3 4.7.9 1.2.5 2.3 1.4 3 2.5.7 1.2 1.1 2.5 1.1 3.9 0 1.3-.3 2.6-1 3.7s-1.7 2-2.9 2.5l4.3 6.2h-6l-3.4-5.1zm3.6-7.2c0-.8-.3-1.6-.9-2.1-.7-.6-1.7-.8-2.6-.8h-3.2v5.8h3.1c.9.1 1.9-.2 2.6-.7.6-.6.9-1.4 1-2.2z"/>
</svg>
