<?xml version="1.0" encoding="utf-8"?>
<!-- Generator: Adobe Illustrator 23.0.5, SVG Export Plug-In . SVG Version: 6.00 Build 0)  -->
<svg version="1.1" id="Layer_1" xmlns="http://www.w3.org/2000/svg" xmlns:xlink="http://www.w3.org/1999/xlink" x="0px" y="0px"
	 width="70.4px" height="90.2px" viewBox="0 0 70.4 90.2" style="enable-background:new 0 0 70.4 90.2;" xml:space="preserve">
<style type="text/css">
	.st0{fill-rule:evenodd;clip-rule:evenodd;fill:#FF6600;}
</style>
<g>
	<path class="st0" d="M70.4,13.9C47.7,6.7,39.1,2.2,35.2,0C31.3,2.2,22.7,6.7,0,13.9c0,2.5-1.4,76.4,35.2,76.3
		C71.8,90.3,70.4,16.4,70.4,13.9z M35.2,82.2C6.9,82.1,8,21.7,8,19.7c17.5-5.6,24.2-9,27.2-10.7c3,1.7,9.7,5.2,27.2,10.7
		C62.4,21.7,63.5,82.2,35.2,82.2z"/>
	<path class="st0" d="M30.8,40.8c1-1.5,1.5-3.3,1.5-5.1c0-2.4-1-4.7-2.7-6.4c-1.7-1.7-4-2.7-6.4-2.7c-1.8,0-3.6,0.5-5,1.5
		c-1.5,1-2.7,2.4-3.3,4.1c-0.7,1.7-0.9,3.5-0.5,5.3c0.4,1.8,1.2,3.4,2.5,4.7c1.3,1.3,2.9,2.1,4.7,2.5c1.8,0.3,3.6,0.2,5.3-0.5
		C28.4,43.5,29.8,42.3,30.8,40.8z M25.9,36.8c-0.2,0.5-0.6,1-1.1,1.3c-0.5,0.3-1,0.5-1.6,0.5c-0.4,0-0.8-0.1-1.1-0.2
		c-0.4-0.1-0.7-0.4-0.9-0.6c-0.3-0.3-0.5-0.6-0.6-0.9c-0.1-0.4-0.2-0.7-0.2-1.1c0-0.6,0.2-1.1,0.5-1.6c0.3-0.5,0.8-0.8,1.3-1.1
		c0.5-0.2,1.1-0.3,1.7-0.2c0.6,0.1,1.1,0.4,1.5,0.8c0.4,0.4,0.7,0.9,0.8,1.5C26.2,35.7,26.1,36.3,25.9,36.8z"/>
	<rect x="38.2" y="32.5" class="st0" width="17.6" height="6.1"/>
	<path class="st0" d="M41.9,60c0,0.8-0.2,1.6-0.5,2.4c-0.3,0.8-0.8,1.4-1.4,2c-0.6,0.6-1.3,1-2,1.4c-0.8,0.3-1.6,0.5-2.4,0.5
		c0,0,0,0,0,0h0c0,0,0,0,0,0c-0.8,0-1.6-0.2-2.4-0.5c-0.8-0.3-1.5-0.8-2-1.4c-0.6-0.6-1-1.3-1.4-2c-0.3-0.8-0.5-1.6-0.5-2.4v-0.2H23
		V60c0.1,3.3,1.5,6.4,3.8,8.7c2.4,2.3,5.5,3.6,8.8,3.6c3.3,0,6.5-1.3,8.8-3.6c2.4-2.3,3.7-5.4,3.8-8.7v-0.2h-6.4
		C41.9,59.9,41.9,60,41.9,60z"/>
</g>
</svg>
