<svg version="1.1" id="Layer_1" xmlns="http://www.w3.org/2000/svg" x="0" y="0" viewBox="0 0 247.4 46.4" xml:space="preserve">
  <style>
    .st0{enable-background:new}.st1{fill:#fff}.st3{fill:#333}
  </style>
  <title>
    TJSS_logo
  </title>
  <g class="st0">
    <path class="st1" d="M7.9 40.9V23H1.1v-4.5h18.5V23h-6.8v17.8H7.9z"/>
  </g>
  <g class="st0">
    <path class="st1" d="M27.3 41.3a8.6 8.6 0 01-8.9-8.9c0-2.5.8-4.6 2.4-6.3s3.6-2.6 6.1-2.6c2.7 0 4.8.9 6.2 2.7s2.1 4 2.1 6.6l-.1 1.3H23.2c.2 1.1.7 1.9 1.4 2.5a4 4 0 002.7.9c1.5 0 2.9-.6 4.2-1.8l2.8 2.5a8.9 8.9 0 01-7 3.1zM23.1 31h7.3c-.1-1.1-.5-2-1.2-2.7a3 3 0 00-2.4-1 3 3 0 00-2.4 1c-.7.6-1.1 1.5-1.3 2.7z"/>
  </g>
  <g class="st0">
    <path class="st1" d="M44.2 41.2a12 12 0 01-7.4-2.6l2.1-3.2a9 9 0 005.4 2c1.4 0 2-.4 2-1.3v-.3l-.2-.3-.3-.2-.4-.2-.4-.2-.5-.2-.5-.2a2 2 0 01-.6-.2l-.6-.2-1.8-.7a9 9 0 01-1.6-.9c-.6-.4-1-.9-1.3-1.5-.3-.6-.4-1.3-.4-2.1 0-1.7.6-3 1.8-4s2.7-1.5 4.5-1.5c2.3 0 4.4.7 6.4 2l-1.9 3.4a9.4 9.4 0 00-4.6-1.6c-1.2 0-1.8.4-1.8 1.2 0 .6 1 1.2 2.9 1.9l.5.2 1.5.5 1.4.7 1.2.9.8 1.3c.2.5.3 1.1.3 1.7 0 1.8-.6 3.2-1.8 4.1a7 7 0 01-4.7 1.5z"/>
  </g>
  <g class="st0">
    <path class="st1" d="M60 41.2c-1.6 0-2.8-.4-3.7-1.2-.9-.8-1.3-2.1-1.3-4v-8.1h-2v-4.2h2v-4.4h4.9v4.4h4v4.2h-4v7.3c0 1.1.5 1.7 1.6 1.7.9 0 1.7-.2 2.4-.6v3.9c-1.2.6-2.5 1-3.9 1z"/>
  </g>
  <g class="st0">
    <path class="st1" d="M135.7 41.2c-3.7 0-6.8-1.2-9.5-3.6l2.9-3.5c2.2 1.8 4.4 2.7 6.7 2.7 1 0 1.8-.2 2.4-.6.6-.4.9-.9.9-1.6 0-.6-.3-1.2-.9-1.5s-1.8-.8-3.6-1.3l-3.1-.9c-.8-.3-1.5-.7-2.3-1.2a5.8 5.8 0 01-1.6-1.9c-.3-.8-.5-1.7-.5-2.8a6 6 0 012.2-4.9 8.6 8.6 0 015.6-1.9c3.2 0 5.9.9 8.3 2.8l-2.6 3.7a10 10 0 00-5.8-2.2c-.9 0-1.6.2-2.1.6-.5.4-.8.9-.8 1.5 0 .7.3 1.3.9 1.6.6.4 1.9.8 3.9 1.3 2.4.6 4.2 1.5 5.4 2.5 1.2 1 1.7 2.4 1.7 4.3 0 2.2-.8 3.9-2.3 5.1-1.3 1.2-3.3 1.8-5.8 1.8z"/>
  </g>
  <g class="st0">
    <path class="st1" d="M152.9 41.2c-1.8 0-3.3-.6-4.3-1.7a6.8 6.8 0 01-1.5-4.7V23.7h4.9v9.6c0 1.1.3 2 .8 2.6.5.6 1.2.9 2.2.9s1.7-.3 2.2-.9a4 4 0 00.8-2.6v-9.6h4.9v17.1H158v-2.4c-1.5 1.9-3.1 2.8-5.1 2.8z"/>
  </g>
  <g class="st0">
    <path class="st1" d="M166.3 40.9V23.7h4.9v2.4a6.2 6.2 0 015-2.7c2.3 0 3.9.9 4.8 2.7a7.2 7.2 0 015.6-2.7c1.8 0 3.3.5 4.3 1.6s1.5 2.6 1.5 4.7v11.2h-4.9v-9.6c0-2.3-.9-3.5-2.8-3.5a3 3 0 00-2.2.9 4 4 0 00-.8 2.6v9.6h-4.9v-9.6c0-2.3-.9-3.5-2.8-3.5a3 3 0 00-2.2.9 4 4 0 00-.8 2.6v9.6h-4.7z"/>
  </g>
  <g class="st0">
    <path class="st1" d="M196.3 40.9V23.7h4.9v2.4a6.3 6.3 0 015.1-2.7c2.3 0 3.9.9 4.8 2.7a7.2 7.2 0 015.6-2.7c1.8 0 3.3.5 4.3 1.6s1.5 2.6 1.5 4.7v11.2h-4.9v-9.6c0-2.3-.9-3.5-2.8-3.5-.9 0-1.6.3-2.2.9s-.8 1.5-.8 2.6v9.6h-4.9v-9.6c0-2.3-.9-3.5-2.8-3.5-.9 0-1.6.3-2.2.9s-.8 1.5-.8 2.6v9.6h-4.8z"/>
  </g>
  <g class="st0">
    <path class="st1" d="M226.4 21.9v-4.3h5.1v4.3h-5.1zm.1 19V23.7h4.9v17.1h-4.9z"/>
  </g>
  <g class="st0">
    <path class="st1" d="M242.1 41.2c-1.6 0-2.8-.4-3.7-1.2-.9-.8-1.3-2.1-1.3-4v-8.1h-2v-4.2h2v-4.4h4.9v4.4h4v4.2h-4v7.3c0 1.1.5 1.7 1.6 1.7.9 0 1.7-.2 2.4-.6v3.9c-1.2.6-2.5 1-3.9 1z"/>
  </g>
  <path d="M116.4 0H73.8c-.6 0-1 .4-1 1v42.6c0 .6.4 1 1 1h42.7c.6 0 1-.4 1-1V1c-.1-.6-.5-1-1.1-1z" fill="#f4ed20"/>
  <g class="st0">
    <path class="st3" d="M86.8 41.2a9 9 0 01-7.3-3.4l3.1-3.5c1.4 1.5 2.7 2.2 4.1 2.2 2 0 3-1.2 3-3.7V18.5h5v14.6c0 2.6-.7 4.6-2.1 6a7.8 7.8 0 01-5.8 2.1z"/>
  </g>
  <g class="st0">
    <path class="st3" d="M106.7 41.2c-3.7 0-6.8-1.2-9.5-3.6l2.9-3.5c2.2 1.8 4.4 2.7 6.7 2.7 1 0 1.8-.2 2.4-.6.6-.4.9-.9.9-1.6 0-.6-.3-1.2-.9-1.5-.6-.4-1.8-.8-3.6-1.3l-3.1-.9c-.8-.3-1.5-.7-2.3-1.2a5.8 5.8 0 01-1.6-1.9c-.3-.8-.5-1.7-.5-2.8a6 6 0 012.2-4.9 8.6 8.6 0 015.6-1.9c3.2 0 5.9.9 8.3 2.8l-2.6 3.7a10 10 0 00-5.8-2.2c-.9 0-1.6.2-2.1.6-.5.4-.8.9-.8 1.5 0 .7.3 1.3.9 1.6s1.9.8 3.9 1.3c2.4.6 4.2 1.5 5.4 2.5 1.2 1 1.7 2.4 1.7 4.3 0 2.2-.8 3.9-2.3 5.1-1.3 1.2-3.3 1.8-5.8 1.8z"/>
  </g>
</svg>