<svg id="Layer_1" data-name="Layer 1" xmlns="http://www.w3.org/2000/svg" viewBox="0 0 227.91 243.44">
  <defs>
    <style>
      .cls-1,.cls-2,.cls-4{fill:#535353;}.cls-2{fill-rule:evenodd;}.cls-3{fill:none;stroke:#141515;stroke-miterlimit:10;stroke-width:1.43px;}.cls-4{font-size:23.97px;font-family:Lato-Heavy,
      Lato;}
    </style>
  </defs>
  <title>Rose</title>
  <path class="cls-1"
        d="M381.67,258.31a64.41,64.41,0,0,1,61.41,61.3l-1.46-.23a62.87,62.87,0,0,0-59.72-59.62Zm61.41,67.21a64.41,64.41,0,0,1-61.41,61.27l.23-1.43a62.93,62.93,0,0,0,59.72-59.65ZM375.75,386.8a64.35,64.35,0,0,1-61.38-61.27l1.43.2a63,63,0,0,0,59.75,59.65Zm-61.38-67.18a64.35,64.35,0,0,1,61.38-61.3l-.2,1.46a62.93,62.93,0,0,0-59.75,59.62Z"
        transform="translate(-262.36 -202.91)"/>
  <path class="cls-1"
        d="M381.18,254.89a67.73,67.73,0,0,1,65.32,65.21l-1.43-.2a66.35,66.35,0,0,0-63.69-63.59ZM446.51,325a67.78,67.78,0,0,1-65.32,65.24l.2-1.46a66.35,66.35,0,0,0,63.69-63.59Zm-70.24,65.24A67.84,67.84,0,0,1,310.92,325l1.43.2A66.35,66.35,0,0,0,376,388.8ZM310.92,320.1a67.78,67.78,0,0,1,65.35-65.21l-.23,1.43a66.35,66.35,0,0,0-63.69,63.59Z"
        transform="translate(-262.36 -202.91)"/>
  <path class="cls-1"
        d="M386.76,292.82A31.35,31.35,0,0,1,397.39,298l-1.2.88a29.25,29.25,0,0,0-9.21-4.57Zm-16.29,1.54a29.71,29.71,0,0,0-9.23,4.57l-1.17-.88a30.84,30.84,0,0,1,10.63-5.22Zm32.82,9.56a30.75,30.75,0,0,1,5.23,10.62l-1.54-.23a29.78,29.78,0,0,0-4.57-9.19Zm5.23,26.66a30.75,30.75,0,0,1-5.23,10.62l-.89-1.2A29.47,29.47,0,0,0,407,330.8Zm-11.12,16.5a30.84,30.84,0,0,1-10.63,5.22l.23-1.54a29.25,29.25,0,0,0,9.21-4.57Zm-26.7,5.22a29.86,29.86,0,0,1-10.63-5.22l1.17-.88a29.1,29.1,0,0,0,9.23,4.57Zm-16.52-11.1a29.77,29.77,0,0,1-5.23-10.62l1.54.23a29.31,29.31,0,0,0,4.57,9.22Zm-5.23-26.66a30.25,30.25,0,0,1,5.23-10.62l.89,1.2a29.16,29.16,0,0,0-4.57,9.19Z"
        transform="translate(-262.36 -202.91)"/>
  <path class="cls-1"
        d="M385.47,284.23A38.89,38.89,0,0,1,404.11,293l-1.17.88a37.1,37.1,0,0,0-17.24-8.19Zm-13.75,1.51a37.1,37.1,0,0,0-17.24,8.19l-1.17-.88a39,39,0,0,1,18.64-8.82Zm36.56,11.47a38.94,38.94,0,0,1,8.83,18.58l-1.52-.2a37.13,37.13,0,0,0-8.2-17.21Zm8.83,32.11a39.16,39.16,0,0,1-8.83,18.61l-.89-1.2a36.75,36.75,0,0,0,8.2-17.18Zm-13,22.75a38.66,38.66,0,0,1-18.61,8.82l.2-1.48a37.52,37.52,0,0,0,17.24-8.19Zm-32.16,8.82a38.76,38.76,0,0,1-18.64-8.82l1.17-.86a37.66,37.66,0,0,0,17.24,8.19Zm-22.78-13a38.64,38.64,0,0,1-8.83-18.61l1.49.23a37.54,37.54,0,0,0,8.2,17.21Zm-8.83-32.14a38.54,38.54,0,0,1,8.83-18.58l.86,1.17a37.41,37.41,0,0,0-8.2,17.21Z"
        transform="translate(-262.36 -202.91)"/>
  <path class="cls-1"
        d="M388.62,339.65l28.3,21-21.07-28.25,1.6-.23,23.5,31.54,2.92,3.88-3.92-2.88-31.56-23.49Zm7.23-27,21.07-28.25-28.3,21-.26-1.6,31.59-23.46,3.92-2.91-2.92,3.88-23.5,31.54Zm-27-7.22-28.3-21,21,28.25-1.6.26-23.5-31.56-2.89-3.88,3.89,2.91,31.59,23.46Zm-7.26,27-21,28.25,28.3-21,.23,1.6-31.59,23.49-3.89,2.88,2.89-3.88L360,332.2Z"
        transform="translate(-262.36 -202.91)"/>
  <path class="cls-2"
        d="M337,364.17l31.9-23.72-1.06-7.08h0Zm30.85-52.4L337,281l23.73,31.82,7.12-1Zm21.64,0L420.38,281l-31.9,23.69,1.06,7.11Zm0,21.6,30.85,30.79-23.73-31.85-7.12,1Z"
        transform="translate(-262.36 -202.91)"/>
  <path class="cls-3" d="M318.58,343.48l10.86-6.34-12.58-.09-.11.2.43,1.77q.64,2.27,1.37,4.45Z"
        transform="translate(-262.36 -202.91)"/>
  <path class="cls-3" d="M316.18,310.68l12.58-.09-10.86-6.36-.2.11c-.17.6-.34,1.17-.51,1.74q-.6,2.27-1,4.54Z"
        transform="translate(-262.36 -202.91)"/>
  <path class="cls-3" d="M321.38,294.9l12.18,3.17-8.83-8.93-.23.09-.94,1.54c-.77,1.37-1.52,2.74-2.17,4.11Z"
        transform="translate(-262.36 -202.91)"/>
  <path class="cls-3" d="M342.9,270l8.95,8.82-3.17-12.13-.23-.06c-.54.29-1.06.57-1.57.86-1.37.8-2.69,1.63-4,2.48Z"
        transform="translate(-262.36 -202.91)"/>
  <path class="cls-3" d="M357.74,262.54l6.38,10.82.09-12.53-.23-.14c-.57.14-1.17.29-1.74.46q-2.27.6-4.46,1.37Z"
        transform="translate(-262.36 -202.91)"/>
  <path class="cls-3"
        d="M390.62,260.11l.09,12.56,6.38-10.82-.14-.23c-.57-.17-1.14-.34-1.74-.49-1.52-.4-3-.74-4.55-1.06Z"
        transform="translate(-262.36 -202.91)"/>
  <path class="cls-3" d="M406.4,265.31l-3.14,12.16,8.95-8.82-.09-.23-1.54-.94c-1.37-.77-2.74-1.48-4.12-2.17Z"
        transform="translate(-262.36 -202.91)"/>
  <path class="cls-3"
        d="M431.35,286.82l-8.8,8.93,12.15-3.17.06-.26c-.29-.51-.57-1.06-.89-1.57-.77-1.34-1.6-2.65-2.46-3.94Z"
        transform="translate(-262.36 -202.91)"/>
  <path class="cls-3" d="M438.84,301.64,428,308l12.55.11.11-.23c-.11-.6-.29-1.17-.43-1.77-.4-1.48-.86-3-1.37-4.42Z"
        transform="translate(-262.36 -202.91)"/>
  <path class="cls-3" d="M441.27,334.46l-12.58.09,10.83,6.34.23-.11c.17-.57.31-1.17.49-1.74q.6-2.27,1-4.54Z"
        transform="translate(-262.36 -202.91)"/>
  <path class="cls-3" d="M436,350.21,423.89,347l8.8,8.93.26-.06c.31-.51.63-1,.91-1.57.8-1.34,1.52-2.71,2.2-4.11Z"
        transform="translate(-262.36 -202.91)"/>
  <path class="cls-3" d="M414.52,375.13l-8.95-8.82,3.17,12.16.23.06c.54-.29,1.06-.6,1.6-.88q2-1.2,3.95-2.48Z"
        transform="translate(-262.36 -202.91)"/>
  <path class="cls-3" d="M399.68,382.57l-6.38-10.82-.09,12.56.23.11c.57-.14,1.17-.29,1.74-.46q2.27-.6,4.46-1.37Z"
        transform="translate(-262.36 -202.91)"/>
  <path class="cls-3" d="M366.8,385l-.09-12.56-6.35,10.84.11.2c.57.17,1.17.34,1.74.49,1.52.43,3,.77,4.55,1.06Z"
        transform="translate(-262.36 -202.91)"/>
  <path class="cls-3" d="M351,379.81l3.17-12.16-8.95,8.82.06.23c.51.31,1,.63,1.57.94,1.34.77,2.72,1.51,4.12,2.17Z"
        transform="translate(-262.36 -202.91)"/>
  <path class="cls-3" d="M326.07,358.32l8.83-8.93-12.18,3.14-.06.26c.29.51.57,1.06.89,1.57a45.91,45.91,0,0,0,2.49,3.94Z"
        transform="translate(-262.36 -202.91)"/>
  <path class="cls-1"
        d="M389.45,332.66l68.9-10.1-68.92-10.1-.51-.06-.09-.54-10.09-68.78L368.6,311.88l-.09.51-.51.09-68.9,10.07,68.9,10.1.51.09.09.51L378.72,402l10.09-68.78.09-.54Zm73.9-9.39L390.16,334l-10.75,73.09-.69,4.79-.71-4.79L367.26,334l-73.18-10.73-4.8-.71,4.8-.71,73.18-10.7L378,238.08l.71-4.82.69,4.82,10.75,73.06,73.18,10.7,4.83.71Z"
        transform="translate(-262.36 -202.91)"/>
  <polygon class="cls-2" points="116.37 35.25 105.47 109.26 116.37 119.64 116.37 35.25"/>
  <polygon class="cls-2" points="200.9 119.64 126.77 108.8 116.37 119.64 200.9 119.64"/>
  <polygon class="cls-2" points="116.37 204.03 127.23 130.03 116.37 119.64 116.37 204.03"/>
  <polygon class="cls-2" points="31.83 119.64 105.96 130.52 116.37 119.64 31.83 119.64"/>
  <path class="cls-2" d="M317.55,340.31c-.11-.43-.23-.86-.37-1.28l-.43-1.77.11-.2,12.58.09Z"
        transform="translate(-262.36 -202.91)"/>
  <path class="cls-2" d="M316.86,307.4c.11-.43.2-.86.31-1.31s.34-1.14.51-1.74l.2-.11,10.86,6.36Z"
        transform="translate(-262.36 -202.91)"/>
  <path class="cls-2" d="M322.89,291.93l.66-1.17.94-1.54.23-.09,8.83,8.93Z" transform="translate(-262.36 -202.91)"/>
  <path class="cls-2" d="M345.71,268.19c.4-.26.77-.49,1.17-.71s1-.57,1.57-.86l.23.06,3.17,12.13Z"
        transform="translate(-262.36 -202.91)"/>
  <path class="cls-2" d="M360.94,261.51c.43-.14.86-.26,1.29-.37s1.17-.31,1.74-.46l.23.14-.09,12.53Z"
        transform="translate(-262.36 -202.91)"/>
  <path class="cls-2" d="M393.9,260.8l1.29.34c.6.14,1.17.31,1.74.49l.14.23-6.38,10.82Z"
        transform="translate(-262.36 -202.91)"/>
  <path class="cls-2" d="M409.4,266.82c.37.23.77.46,1.17.66l1.54.94.09.23-8.95,8.82Z"
        transform="translate(-262.36 -202.91)"/>
  <path class="cls-2" d="M433.18,289.62c.23.37.46.74.69,1.14s.6,1.06.89,1.57l-.06.26-12.15,3.17Z"
        transform="translate(-262.36 -202.91)"/>
  <path class="cls-2" d="M439.87,304.8c.14.43.26.86.37,1.28.14.6.31,1.17.43,1.77l-.11.23L428,308Z"
        transform="translate(-262.36 -202.91)"/>
  <path class="cls-2" d="M440.59,337.71l-.34,1.31c-.17.57-.31,1.17-.49,1.74l-.23.11-10.83-6.34Z"
        transform="translate(-262.36 -202.91)"/>
  <path class="cls-2" d="M434.53,353.18c-.2.4-.43.8-.66,1.17-.29.54-.6,1.06-.91,1.57l-.26.06-8.8-8.93Z"
        transform="translate(-262.36 -202.91)"/>
  <path class="cls-2" d="M411.71,377l-1.14.68c-.54.29-1.06.6-1.6.88l-.23-.06-3.17-12.16Z"
        transform="translate(-262.36 -202.91)"/>
  <path class="cls-2" d="M396.51,383.63l-1.32.34c-.57.17-1.17.31-1.74.46l-.23-.11.09-12.56Z"
        transform="translate(-262.36 -202.91)"/>
  <path class="cls-2" d="M363.54,384.31l-1.32-.34c-.57-.14-1.17-.31-1.74-.49l-.11-.2,6.35-10.84Z"
        transform="translate(-262.36 -202.91)"/>
  <path class="cls-2" d="M348.05,378.29c-.4-.23-.8-.43-1.17-.66-.54-.31-1.06-.63-1.57-.94l-.06-.23,8.95-8.82Z"
        transform="translate(-262.36 -202.91)"/>
  <path class="cls-2" d="M324.24,355.52l-.69-1.17c-.31-.51-.6-1.06-.89-1.57l.06-.26,12.18-3.14Z"
        transform="translate(-262.36 -202.91)"/>
  <text class="cls-4" transform="translate(108.07 20.68)">N</text>
  <text class="cls-4" transform="translate(214.13 128.57)">E</text>
  <text class="cls-4" transform="translate(0 128.57)">W</text>
  <text class="cls-4" transform="translate(108.07 236.45)">S</text>
</svg>
