<svg xmlns="http://www.w3.org/2000/svg" width="30" height="30" viewBox="0 0 30 30" fill="none">
  <path d="M18.75 7.78646C18.75 5.55718 16.9661 3.75 14.7656 3.75C12.5651 3.75 10.7812 5.55718 10.7812 7.78646V14.2448C10.7812 16.4741 12.5651 18.2812 14.7656 18.2812C16.9661 18.2812 18.75 16.4741 18.75 14.2448V7.78646Z" stroke="#43FF01" stroke-width="1.4" stroke-linecap="round" stroke-linejoin="round"/>
  <path d="M15 22.0312V25.7812" stroke="#43FF01" stroke-width="1.4" stroke-linecap="round" stroke-linejoin="round"/>
  <path d="M22.0312 14.0625C22.0312 16.0516 21.2658 17.9593 19.9032 19.3658C18.5406 20.7723 16.6926 21.5625 14.7656 21.5625C12.8387 21.5625 10.9906 20.7723 9.62805 19.3658C8.26548 17.9593 7.5 16.0516 7.5 14.0625" stroke="#43FF01" stroke-width="1.4" stroke-linecap="round" stroke-linejoin="round"/>
  <circle cx="14.7656" cy="14.7656" r="1.17188" fill="#43FF01"/>
</svg>