<svg width="70" height="90" viewBox="0 0 70 90" fill="none" xmlns="http://www.w3.org/2000/svg">
<path fill-rule="evenodd" clip-rule="evenodd" d="M34.674 61.2321C35.4778 61.2296 36.2743 61.3855 37.0178 61.6912C37.7612 61.9969 38.4372 62.4464 39.007 63.0137C39.5767 63.581 40.029 64.255 40.3381 64.9974C40.6472 65.7397 40.807 66.5358 40.8083 67.34V67.5357H47.0502C47.066 67.4714 47.066 67.4043 47.0502 67.34C46.9597 64.1202 45.6176 61.0627 43.3092 58.8173C41.0009 56.5719 37.9082 55.3157 34.6887 55.3157C31.4691 55.3157 28.3764 56.5719 26.0681 58.8173C23.7597 61.0627 22.4177 64.1202 22.3271 67.34V67.5357H28.569V67.34C28.569 66.5358 28.7275 65.7395 29.0354 64.9967C29.3433 64.2538 29.7946 63.579 30.3634 63.0108C30.9323 62.4426 31.6075 61.9921 32.3505 61.6852C33.0935 61.3784 33.8897 61.2211 34.6936 61.2223L34.674 61.2321ZM8.07251 20.0235C25.2427 14.5714 31.7585 11.2141 34.7034 9.55012C37.6384 11.1945 44.1836 14.5812 61.3538 20.0235C61.3538 21.9812 62.4398 81.2294 34.7034 81.2001C6.96694 81.1707 8.07251 21.9812 8.07251 20.0235ZM34.7034 89.0797C70.5601 89.1384 69.161 16.8425 69.1317 14.3269C46.9523 7.28916 38.5092 2.9039 34.7034 0.750488C30.8975 2.9039 22.4836 7.28916 0.274919 14.3269C0.274919 16.8425 -1.12407 89.1384 34.7034 89.0797ZM37.2471 39.7176L41.4736 43.9658L45.4751 40.0015L49.4471 43.9658L53.6737 39.7176L49.7015 35.7533L53.6737 31.789L49.4471 27.5411L45.4751 31.5051L41.4736 27.5411L37.2471 31.789L41.2192 35.7533L37.2471 39.7176ZM15.4298 39.7176L19.6562 43.9658L23.6577 40.0015L27.6299 43.9658L31.8563 39.7176L27.8842 35.7533L31.8563 31.789L27.6299 27.5411L23.6577 31.5051L19.6562 27.5411L15.4298 31.789L19.4018 35.7533L15.4298 39.7176Z" fill="#fff" opacity="0.06" />
</svg>
