<svg width="1440" height="1524" viewBox="0 0 1440 1524" fill="none" xmlns="http://www.w3.org/2000/svg">
<path d="M720.134 751.341C689.369 751.341 664.34 776.37 664.34 807.135C664.34 837.899 689.369 862.928 720.134 862.928C750.898 862.928 775.927 837.899 775.927 807.135C775.927 776.37 750.898 751.341 720.134 751.341ZM720.134 860.681C690.609 860.681 666.595 836.659 666.595 807.142C666.595 777.625 690.617 753.603 720.134 753.603C749.65 753.603 773.672 777.625 773.672 807.142C773.672 836.659 749.65 860.681 720.134 860.681Z" fill="#363636"/>
<path d="M720.133 715.457C669.579 715.457 628.449 756.586 628.449 807.141C628.449 857.696 669.579 898.825 720.133 898.825C770.688 898.825 811.818 857.696 811.818 807.141C811.818 756.586 770.688 715.457 720.133 715.457ZM720.133 896.728C670.729 896.728 630.539 856.539 630.539 807.134C630.539 757.729 670.729 717.539 720.133 717.539C769.538 717.539 809.728 757.729 809.728 807.134C809.728 856.539 769.538 896.728 720.133 896.728Z" fill="#363636"/>
<path d="M720.134 608.222C669.887 608.222 621.911 627.005 585.058 661.122C548.604 694.862 526.228 740.532 521.973 789.809C512.473 789.876 504.769 797.618 504.769 807.134C504.769 816.65 512.473 824.391 521.973 824.459C526.228 873.736 548.604 919.413 585.058 953.146C621.911 987.255 669.887 1006.05 720.134 1006.05C773.267 1006.05 823.213 985.354 860.787 947.787C898.361 910.22 919.046 860.267 919.046 807.134C919.046 754.001 898.354 704.055 860.787 666.481C823.22 628.907 773.267 608.222 720.134 608.222ZM506.527 807.134C506.527 798.543 513.518 791.56 522.101 791.56C530.685 791.56 537.675 798.55 537.675 807.134C537.675 815.717 530.685 822.708 522.101 822.708C513.518 822.708 506.527 815.717 506.527 807.134ZM720.134 1004.29C618.581 1004.29 532.489 925.343 523.732 824.391C532.526 823.565 539.434 816.146 539.434 807.141C539.434 798.137 532.526 790.718 523.732 789.891C532.489 688.94 618.588 609.988 720.134 609.988C828.85 609.988 917.287 698.433 917.287 807.141C917.287 915.85 828.843 1004.29 720.134 1004.29Z" fill="#363636"/>
<path d="M968.143 702.363C954.583 670.314 935.176 641.526 910.462 616.805C885.741 592.084 856.961 572.677 824.911 559.125C791.727 545.092 756.475 537.974 720.141 537.974C683.807 537.974 648.556 545.092 615.371 559.125C583.322 572.684 554.534 592.091 529.813 616.805C505.092 641.519 485.684 670.306 472.132 702.363C458.099 735.548 450.981 770.799 450.981 807.133C450.981 843.467 458.099 878.719 472.132 911.904C485.692 943.953 505.099 972.741 529.813 997.455C554.534 1022.18 583.314 1041.58 615.371 1055.13C648.556 1069.17 683.807 1076.29 720.141 1076.29C777.739 1076.29 832.676 1058.35 878.999 1024.43C901.3 1008.1 920.895 988.525 937.25 966.247C953.659 943.901 966.436 919.307 975.253 893.15C976.546 893.459 977.891 893.631 979.282 893.631C988.79 893.631 996.532 885.897 996.532 876.381C996.532 868.557 991.293 861.935 984.137 859.83C987.557 842.588 989.301 824.864 989.301 807.133C989.301 770.799 982.183 735.548 968.15 702.363H968.143ZM994.938 876.381C994.938 885.018 987.911 892.038 979.282 892.038C970.653 892.038 963.625 885.01 963.625 876.381C963.625 867.753 970.653 860.725 979.282 860.725C987.911 860.725 994.938 867.753 994.938 876.381ZM982.582 859.455C981.514 859.244 980.409 859.131 979.274 859.131C969.766 859.131 962.024 866.866 962.024 876.381C962.024 883.95 966.925 890.384 973.712 892.707C936.987 1001.6 835.186 1074.71 720.126 1074.71C572.588 1074.71 452.552 954.679 452.552 807.133C452.552 659.588 572.581 539.56 720.126 539.56C867.672 539.56 987.7 659.588 987.7 807.133C987.7 824.737 985.971 842.332 982.582 859.455Z" fill="#363636"/>
<path d="M969.616 557.652C937.213 525.249 899.481 499.806 857.465 482.037C813.968 463.637 767.757 454.31 720.134 454.31C654.103 454.31 589.711 472.664 533.932 507.39C479.867 541.048 435.866 588.664 406.628 645.134C404.508 644.195 402.156 643.661 399.69 643.661C390.227 643.661 382.53 651.358 382.53 660.821C382.53 667.661 386.552 673.576 392.362 676.335C375.751 717.93 367.317 761.93 367.317 807.134C367.317 854.765 376.645 900.968 395.045 944.465C412.814 986.481 438.257 1024.21 470.659 1056.62C503.062 1089.02 540.794 1114.46 582.811 1132.23C626.308 1150.63 672.518 1159.96 720.141 1159.96C767.765 1159.96 813.975 1150.63 857.472 1132.23C899.489 1114.46 937.221 1089.02 969.624 1056.62C1002.03 1024.21 1027.47 986.481 1045.24 944.465C1063.64 900.968 1072.97 854.757 1072.97 807.134C1072.97 759.51 1063.64 713.3 1045.24 669.803C1027.47 627.787 1002.03 590.055 969.624 557.652H969.616ZM383.944 660.828C383.944 652.147 391.009 645.082 399.69 645.082C408.372 645.082 415.437 652.147 415.437 660.828C415.437 669.51 408.372 676.575 399.69 676.575C391.009 676.575 383.944 669.51 383.944 660.828ZM720.134 1158.54C526.37 1158.54 368.73 1000.9 368.73 807.134C368.73 762.126 377.119 718.313 393.662 676.891C395.541 677.597 397.571 677.988 399.69 677.988C409.153 677.988 416.85 670.291 416.85 660.828C416.85 654.342 413.227 648.682 407.898 645.766C468.607 528.533 588.177 455.738 720.134 455.738C913.897 455.738 1071.54 613.378 1071.54 807.141C1071.54 1000.9 913.897 1158.54 720.134 1158.54V1158.54Z" fill="#363636"/>
<path d="M1232.35 590.754C1204.35 524.557 1164.27 465.103 1113.22 414.052C1062.16 363.001 1002.71 322.917 936.514 294.918C867.98 265.928 795.177 251.233 720.134 251.233C645.091 251.233 572.287 265.928 503.753 294.918C437.557 322.917 378.103 363.001 327.052 414.052C276.001 465.103 235.916 524.557 207.918 590.754C178.928 659.288 164.233 732.091 164.233 807.134C164.233 819.709 164.662 832.411 165.503 844.903C156.98 845.805 150.313 853.044 150.313 861.8C150.313 871.173 157.935 878.795 167.307 878.795C167.811 878.795 168.315 878.764 168.803 878.727C185.88 1011.55 250.724 1133.85 351.42 1223.16C401.201 1267.31 457.761 1301.82 519.523 1325.73C583.464 1350.48 650.961 1363.03 720.134 1363.03C795.177 1363.03 867.98 1348.33 936.514 1319.34C1002.71 1291.34 1062.16 1251.26 1113.22 1200.21C1164.27 1149.16 1204.35 1089.7 1232.35 1023.51C1261.34 954.973 1276.03 882.169 1276.03 807.126C1276.03 732.083 1261.34 659.28 1232.35 590.746V590.754ZM167.307 877.712C158.536 877.712 151.395 870.572 151.395 861.8C151.395 853.029 158.536 845.888 167.307 845.888C176.079 845.888 183.219 853.029 183.219 861.8C183.219 870.572 176.079 877.712 167.307 877.712ZM720.134 1361.95C441.781 1361.95 205.325 1154.2 169.878 878.607C178.033 877.359 184.294 870.301 184.294 861.808C184.294 852.435 176.673 844.813 167.3 844.813C167.059 844.813 166.819 844.821 166.578 844.828C165.744 832.359 165.316 819.686 165.316 807.134C165.316 501.204 414.204 252.316 720.134 252.316C1026.06 252.316 1274.95 501.204 1274.95 807.134C1274.95 1113.06 1026.06 1361.95 720.134 1361.95Z" fill="#363636"/>
<path d="M1342.4 544.266C1308.39 463.848 1259.69 391.624 1197.68 329.599C1135.66 267.575 1063.43 218.884 983.01 184.865C899.752 149.651 811.307 131.792 720.134 131.792C628.961 131.792 540.524 149.651 457.258 184.865C376.841 218.876 304.616 267.575 242.591 329.599C180.567 391.624 131.876 463.841 97.857 544.266C62.643 627.524 44.7842 715.969 44.7842 807.142C44.7842 898.315 62.643 986.752 97.857 1070.02C131.868 1150.44 180.567 1222.66 242.591 1284.68C304.616 1346.71 376.833 1395.4 457.258 1429.41C540.516 1464.63 628.961 1482.48 720.134 1482.48C811.307 1482.48 899.744 1464.63 983.01 1429.41C1063.43 1395.4 1135.65 1346.7 1197.68 1284.68C1259.7 1222.66 1308.39 1150.44 1342.4 1070.02C1377.62 986.76 1395.48 898.315 1395.48 807.142C1395.48 715.969 1377.62 627.532 1342.4 544.266ZM720.134 1481.56C348.256 1481.56 45.7162 1179.01 45.7162 807.142C45.7162 435.271 348.256 132.717 720.134 132.717C1092.01 132.717 1394.55 435.264 1394.55 807.134C1394.55 1179 1092 1481.55 720.134 1481.55V1481.56Z" fill="#363636"/>
<path d="M1463.84 492.959C1443.62 445.132 1418.58 399.004 1389.43 355.853C1360.55 313.115 1327.39 272.926 1290.86 236.396C1254.34 199.874 1214.15 166.712 1171.41 137.834C1128.26 108.686 1082.13 83.6493 1034.3 63.4153C934.8 21.3389 829.098 0 720.134 0C611.169 0 505.467 21.3389 405.959 63.4303C358.132 83.6568 312.004 108.694 268.853 137.85C226.115 166.727 185.926 199.882 149.404 236.411C112.882 272.933 79.7198 313.123 50.842 355.868C21.6937 399.02 -3.34323 445.147 -23.5772 492.974C-65.6611 592.467 -87 698.169 -87 807.134C-87 916.098 -65.6611 1021.8 -23.5697 1121.31C-3.34323 1169.14 21.6937 1215.26 50.8495 1258.41C79.7273 1301.15 112.882 1341.34 149.411 1377.86C185.933 1414.39 226.123 1447.55 268.861 1476.43C312.012 1505.57 358.14 1530.61 405.966 1550.84C505.475 1592.94 611.177 1614.28 720.141 1614.28C829.106 1614.28 934.808 1592.94 1034.32 1550.84C1082.14 1530.62 1128.27 1505.58 1171.42 1476.43C1214.16 1447.55 1254.35 1414.39 1290.88 1377.86C1327.4 1341.34 1360.56 1301.15 1389.44 1258.41C1418.59 1215.26 1443.63 1169.14 1463.86 1121.31C1505.95 1021.8 1527.29 916.098 1527.29 807.134C1527.29 698.169 1505.95 592.467 1463.86 492.959H1463.84ZM720.134 1613.52C275.49 1613.52 -86.2484 1251.78 -86.2484 807.134C-86.2484 362.49 275.49 0.751633 720.134 0.751633C1164.78 0.751633 1526.52 362.49 1526.52 807.134C1526.52 1251.78 1164.78 1613.52 720.134 1613.52Z" fill="#363636"/>
<path d="M823.837 698.545C823.837 688.947 816.027 681.13 806.421 681.13C800.694 681.13 795.605 683.911 792.433 688.188C770.696 674.952 745.727 667.946 720.134 667.946C643.384 667.946 580.946 730.384 580.946 807.134C580.946 883.883 643.384 946.321 720.134 946.321C796.883 946.321 859.321 883.883 859.321 807.134C859.321 770.507 845.236 735.999 819.657 709.842C822.258 706.798 823.837 702.852 823.837 698.545ZM806.421 683.054C814.967 683.054 821.912 690.007 821.912 698.545C821.912 707.084 814.96 714.036 806.421 714.036C797.883 714.036 790.93 707.084 790.93 698.545C790.93 690.007 797.883 683.054 806.421 683.054ZM857.397 807.134C857.397 882.823 795.823 944.397 720.134 944.397C644.444 944.397 582.87 882.823 582.87 807.134C582.87 731.444 644.444 669.87 720.134 669.87C745.343 669.87 769.952 676.763 791.374 689.796C789.87 692.367 789.006 695.358 789.006 698.545C789.006 708.144 796.815 715.961 806.421 715.961C811.021 715.961 815.215 714.164 818.327 711.233C843.522 737.021 857.397 771.04 857.397 807.134Z" fill="#363636"/>
<path d="M805.46 706.4H807.384V699.507H814.276V697.583H807.384V690.69H805.46V697.583H798.56V699.507H805.46V706.4Z" fill="#363636"/>
<path d="M1183.29 764.539C1183.29 755.121 1175.63 747.462 1166.21 747.462C1165.71 747.462 1165.21 747.492 1164.72 747.529C1150.54 640.798 1098.08 542.567 1016.98 470.906C976.854 435.459 931.297 407.754 881.584 388.565C830.12 368.699 775.799 358.627 720.133 358.627C659.582 358.627 600.849 370.488 545.552 393.871C492.141 416.458 444.179 448.8 402.989 489.99C361.8 531.179 329.457 579.149 306.871 632.552C283.48 687.85 271.626 746.582 271.626 807.134C271.626 867.686 283.487 926.418 306.871 981.716C329.457 1035.13 361.8 1083.09 402.989 1124.28C444.179 1165.47 492.148 1197.81 545.552 1220.4C600.849 1243.79 659.582 1255.64 720.133 1255.64C780.685 1255.64 839.418 1243.78 894.715 1220.4C948.126 1197.81 996.088 1165.47 1037.28 1124.28C1078.47 1083.09 1110.81 1035.12 1133.4 981.716C1156.79 926.418 1168.64 867.686 1168.64 807.134C1168.64 798.618 1168.39 790.004 1167.92 781.533C1176.54 780.669 1183.29 773.378 1183.29 764.539ZM720.133 1254.39C473.515 1254.39 272.874 1053.75 272.874 807.134C272.874 560.516 473.515 359.875 720.133 359.875C943.594 359.875 1134.1 526.557 1163.47 747.68C1155.35 748.995 1149.13 756.053 1149.13 764.539C1149.13 773.957 1156.79 781.616 1166.21 781.616C1166.36 781.616 1166.51 781.609 1166.66 781.601C1167.14 790.057 1167.39 798.641 1167.39 807.134C1167.39 1053.75 966.744 1254.39 720.126 1254.39H720.133ZM1166.21 780.368C1157.49 780.368 1150.38 773.265 1150.38 764.539C1150.38 755.812 1157.49 748.71 1166.21 748.71C1174.94 748.71 1182.04 755.812 1182.04 764.539C1182.04 773.265 1174.94 780.368 1166.21 780.368Z" fill="#363636"/>
<path d="M1166.84 756.677H1165.58V763.915H1158.35V765.163H1165.58V772.393H1166.84V765.163H1174.07V763.915H1166.84V756.677Z" fill="#363636"/>
<path d="M400.397 668.683V661.535H407.545V660.115H400.397V652.967H398.976V660.115H391.828V661.535H398.976V668.683H400.397Z" fill="#363636"/>
<path d="M529.963 806.262H514.246V808.013H529.963V806.262Z" fill="#363636"/>
<path d="M175.162 861.259H159.445V862.341H175.162V861.259Z" fill="#363636"/>
<path d="M987.137 875.593H971.42V877.179H987.137V875.593Z" fill="#363636"/>
</svg>
