<svg width="26" height="26" viewBox="0 0 26 26" fill="none" xmlns="http://www.w3.org/2000/svg">
<g clip-path="url(#clip0_702_45)">
<path d="M13.0191 0C7.33672 0 2.53789 3.60039 0.740234 8.67851H25.2625C23.5004 3.60039 18.6965 0 13.0191 0Z" fill="#D80027"/>
<path d="M13.0191 26C18.7016 26 23.5004 22.3997 25.298 17.3215H0.740234C2.53789 22.3997 7.33672 26 13.0191 26Z" fill="#0052B4"/>
<path d="M0.740625 8.67847C0.258203 10.0394 0.0195312 11.4816 0.0195312 13C0.0195312 14.5183 0.298828 16.0011 0.740625 17.3214H25.2629C25.7453 15.9605 25.984 14.5234 25.984 13C25.984 11.4765 25.7047 9.99878 25.2629 8.67847H0.740625Z" fill="white"/>
</g>
<defs>
<clipPath id="clip0_702_45">
<rect width="26" height="26" fill="white"/>
</clipPath>
</defs>
</svg>
