<?xml version="1.0" encoding="utf-8"?>
<!-- Generator: Adobe Illustrator 23.0.5, SVG Export Plug-In . SVG Version: 6.00 Build 0)  -->
<svg version="1.1" id="Layer_1" xmlns="http://www.w3.org/2000/svg" xmlns:xlink="http://www.w3.org/1999/xlink" x="0px" y="0px"
	 width="2110.6px" height="2111.6px" viewBox="0 0 2110.6 2111.6" style="enable-background:new 0 0 2110.6 2111.6;"
	 xml:space="preserve">
<style type="text/css">
	.st0{fill:#363636;}
</style>
<path class="st0" d="M1055.7,981.7c-14.7,0-29.1,4.4-41.4,12.6c-12.3,8.2-21.8,19.8-27.4,33.4c-5.6,13.6-7.1,28.6-4.2,43.1
	c2.9,14.5,10,27.7,20.4,38.2c10.4,10.4,23.7,17.5,38.2,20.4c14.5,2.9,29.4,1.4,43.1-4.2c13.6-5.6,25.3-15.2,33.4-27.4
	c8.2-12.3,12.6-26.7,12.6-41.4c0-19.8-7.9-38.7-21.9-52.7C1094.4,989.6,1075.4,981.7,1055.7,981.7z M1055.7,1125.2
	c-13.7,0-27-4.1-38.3-11.6c-11.4-7.6-20.2-18.4-25.4-31c-5.2-12.6-6.6-26.5-3.9-39.9c2.7-13.4,9.2-25.7,18.9-35.3
	c9.7-9.6,22-16.2,35.3-18.9c13.4-2.7,27.3-1.3,39.9,3.9c12.6,5.2,23.4,14.1,31,25.4c7.6,11.3,11.6,24.7,11.6,38.3
	c0,18.3-7.3,35.8-20.2,48.8C1091.5,1117.9,1074,1125.2,1055.7,1125.2z"/>
<path class="st0" d="M1055.7,935.1c-23.9,0-47.4,7.1-67.3,20.4c-19.9,13.3-35.4,32.2-44.6,54.3c-9.2,22.1-11.6,46.5-6.9,70
	c4.7,23.5,16.2,45.1,33.1,62c16.9,16.9,38.5,28.5,62,33.1c23.5,4.7,47.8,2.3,70-6.9c22.1-9.2,41-24.7,54.3-44.6
	c13.3-19.9,20.4-43.3,20.4-67.3c0-32.1-12.8-62.9-35.5-85.6C1118.6,947.9,1087.8,935.1,1055.7,935.1z M1055.7,1172.3
	c-23,0-45.4-6.8-64.5-19.6c-19.1-12.8-34-30.9-42.7-52.1c-8.8-21.2-11.1-44.6-6.6-67.1c4.5-22.5,15.5-43.2,31.8-59.4
	s36.9-27.3,59.4-31.8c22.5-4.5,45.9-2.2,67.1,6.6c21.2,8.8,39.3,23.7,52.1,42.8c12.8,19.1,19.6,41.5,19.6,64.5
	c0,30.8-12.3,60.3-34.1,82.1C1116,1160,1086.5,1172.3,1055.7,1172.3z"/>
<path class="st0" d="M1055.7,795.3c-51.6,0-102.1,15.3-145,44c-42.9,28.7-76.4,69.4-96.1,117.1c-19.7,47.7-24.9,100.1-14.8,150.8
	c10.1,50.6,34.9,97.1,71.4,133.6c36.5,36.5,83,61.3,133.6,71.4c50.6,10.1,103.1,4.9,150.8-14.8c47.7-19.8,88.4-53.2,117.1-96.1
	c28.7-42.9,44-93.3,44-145c-0.1-69.2-27.6-135.5-76.5-184.4C1191.2,822.9,1124.8,795.3,1055.7,795.3z M1055.7,1313.3
	c-50.8,0-100.5-15.1-142.8-43.3c-42.3-28.2-75.2-68.4-94.7-115.4c-19.5-47-24.5-98.7-14.6-148.5c9.9-49.9,34.4-95.7,70.4-131.6
	c36-36,81.8-60.4,131.6-70.4s101.6-4.8,148.5,14.6c47,19.5,87.1,52.4,115.4,94.7c28.3,42.3,43.3,92,43.3,142.8
	c0,68.2-27.1,133.5-75.3,181.8C1189.2,1286.2,1123.8,1313.3,1055.7,1313.3L1055.7,1313.3z"/>
<path class="st0" d="M2027.8,645.5c-57.2-135.7-142.1-257.9-249.4-358.9C1671.1,185.8,1543.9,108.4,1405,59.6
	c-138.9-48.8-286.6-68-433.4-56.3C824.9,15,682.1,57.3,552.6,127.4C423.2,197.5,309.8,294,219.8,410.6
	c-90,116.6-154.5,250.7-189.5,393.8c-35,143-39.7,291.8-13.8,436.8c25.9,145,81.9,282.9,164.4,404.9c14,20.7,28.8,41,44.3,60.8
	c-4.3,3.7-7,8.8-7.5,14.5c-0.5,5.6,1.2,11.2,4.8,15.5s8.7,7.2,14.3,7.8c5.6,0.6,11.2-1,15.6-4.5c18.3,21.5,37.4,42.2,57.2,62.1
	c96.2,96.3,210.1,173,335.4,226.1c161.7,68.4,337.9,95.4,512.6,78.4c174.7-17,342.5-77.4,487.9-175.6
	c169.6-114.5,302.4-275.7,382.2-464.2c54.7-130,82.9-269.6,82.9-410.6C2110.6,915.2,2082.5,775.6,2027.8,645.5L2027.8,645.5z
	 M239,1743.7c-4,0-8-1.2-11.4-3.4c-3.4-2.3-6-5.4-7.5-9.2c-1.5-3.7-2-7.8-1.2-11.8c0.8-4,2.7-7.6,5.6-10.5c2.9-2.9,6.5-4.8,10.5-5.6
	c4-0.8,8.1-0.4,11.8,1.2c3.7,1.6,6.9,4.2,9.2,7.5c2.2,3.4,3.4,7.3,3.4,11.4c0,5.4-2.2,10.6-6,14.5
	C249.7,1741.5,244.5,1743.7,239,1743.7z M1055.7,2110.6c-321,0-608.9-144.2-802.5-371.2c4.2-3.7,6.8-8.9,7.2-14.4
	c0.5-5.6-1.3-11.1-4.8-15.4c-3.5-4.3-8.6-7.1-14.2-7.7c-5.5-0.6-11.1,0.9-15.6,4.3C80.2,1520.9,1.1,1291.9,1.3,1056.2
	C1.3,474.8,474.4,1.7,1055.8,1.7c581.4,0,1054.3,473,1054.3,1054.4C2110.1,1637.6,1637.1,2110.6,1055.7,2110.6z"/>
<path class="st0" d="M239.7,1712.9h-1.4v9.3H229v1.4h9.3v9.3h1.4v-9.3h9.3v-1.4h-9.3V1712.9z"/>
<path class="st0" d="M1869.9,712.3c-88.3-208.7-253.3-375.6-461.1-466.1c-207.8-90.5-442.3-97.8-655.3-20.3s-388,233.8-489,436.7
	c-101,202.9-120.2,436.8-53.7,653.4c-1.4,0.5-2.7,1.1-3.9,1.8c-0.6-0.6-1.2-1.1-2-1.4c-0.8-0.3-1.6-0.5-2.4-0.5
	c-1.3,0-2.5,0.4-3.5,1.1c-1,0.7-1.8,1.8-2.2,3c-0.4,1.2-0.5,2.5-0.1,3.7c0.4,1.2,1.1,2.3,2.1,3.1c-1.5,2.9-2.2,6.2-2.2,9.5
	c0,5.7,2.3,11.2,6.3,15.2c4,4.1,9.5,6.3,15.2,6.3c2.2,0,4.3-0.3,6.4-1c5.3,14.6,10.9,29,17,43.4c91.2,215.9,264.5,386.8,481.7,475
	c107.5,43.7,222.6,65.7,338.7,64.9c116.1-0.8,230.8-24.5,337.8-69.6c106.9-45.2,203.9-110.9,285.4-193.6
	c81.5-82.6,145.9-180.5,189.6-288.1c43.7-107.5,65.7-222.6,64.9-338.7C1938.7,934,1915,819.2,1869.9,712.3z M197.5,1322
	c0-1,0.3-2,0.8-2.8c0.5-0.8,1.3-1.5,2.2-1.8c0.9-0.4,1.9-0.5,2.9-0.3c1,0.2,1.9,0.7,2.6,1.4c0.7,0.7,1.2,1.6,1.4,2.6
	c0.2,1,0.1,2-0.3,2.9c-0.4,0.9-1,1.7-1.9,2.2c-0.8,0.6-1.8,0.8-2.8,0.8c-1.3,0-2.6-0.5-3.5-1.5
	C198.1,1324.6,197.5,1323.3,197.5,1322z M218,1356.7c-3.5,0-6.9-0.9-9.9-2.6c-3-1.7-5.6-4.1-7.4-7c-1.8-2.9-2.9-6.3-3.1-9.7
	c-0.2-3.5,0.5-6.9,2-10c0.9,0.5,1.9,0.7,2.9,0.8c1.6,0,3.2-0.6,4.3-1.8c1.1-1.1,1.8-2.7,1.8-4.3c0-1.2-0.3-2.4-1-3.4
	c3.1-1.9,6.8-2.9,10.4-2.9c5.4,0,10.6,2.1,14.5,6c3.8,3.8,6,9,6,14.5c0,5.4-2.2,10.6-6,14.5C228.8,1354.5,223.6,1356.7,218,1356.7
	L218,1356.7z M1055.7,1938.7c-381.3,0-706.9-243.1-830-582.4c4.7-1.8,8.7-5.2,11.1-9.6c2.5-4.4,3.3-9.5,2.4-14.5
	c-0.9-5-3.5-9.4-7.4-12.7c-3.9-3.2-8.8-5-13.8-5c-2,0-4.1,0.3-6,0.9c-25.8-84-38.9-171.4-38.8-259.3
	c0-486.6,395.9-882.5,882.5-882.5c486.6,0,882.5,395.9,882.5,882.5C1938.2,1542.8,1542.3,1938.7,1055.7,1938.7z"/>
<path class="st0" d="M227.5,1335.2h-20v1.4h20V1335.2z"/>
<path class="st0" d="M1726.4,772.9c-60-142.2-163.6-261.7-296-341.2c-132.3-79.5-286.5-114.8-440.2-100.9
	c-153.7,13.9-299.1,76.3-415,178.1c-116,101.9-196.5,238-230.1,388.6c-0.7-0.1-1.5-0.1-2.2-0.1c-5.3,0-10.4,1.9-14.4,5.4
	c-4,3.5-6.6,8.3-7.3,13.5c-0.7,5.2,0.5,10.5,3.4,15c2.9,4.4,7.3,7.6,12.4,9c-6.1,38.3-9.2,77.1-9.2,115.9
	c0.1,107.8,24.1,214.3,70.3,311.6s113.5,183.3,197,251.5c83.5,68.2,181.1,117,285.7,142.9c104.6,25.9,213.7,28.2,319.4,6.8
	c105.7-21.4,205.2-66,291.5-130.6c86.3-64.6,157.2-147.5,207.6-242.9c50.3-95.3,78.9-200.6,83.6-308.3
	C1787.6,979.6,1768.3,872.2,1726.4,772.9z M322.6,919.3c0-4,1.2-7.9,3.4-11.2c2.2-3.3,5.4-5.9,9.1-7.4c3.7-1.5,7.7-1.9,11.7-1.2
	c3.9,0.8,7.5,2.7,10.3,5.5c2.8,2.8,4.8,6.4,5.5,10.3c0.8,3.9,0.4,8-1.1,11.7c-1.5,3.7-4.1,6.8-7.4,9.1c-3.3,2.2-7.2,3.4-11.2,3.4
	c-5.3,0-10.5-2.1-14.3-5.9C324.8,929.7,322.7,924.6,322.6,919.3z M1055.7,1782.4c-400.4,0-726.2-325.8-726.2-726.3
	c0-38.7,3.1-77.3,9.2-115.5c1.4,0.3,2.8,0.4,4.2,0.4c5.4,0,10.7-2,14.7-5.7c4-3.7,6.5-8.7,7-14.1c0.5-5.4-1-10.8-4.3-15.2
	c-3.3-4.3-8.1-7.3-13.4-8.3c72.5-324.5,362.7-567.9,708.8-567.9c400.5,0,726.3,325.8,726.3,726.2
	C1781.9,1456.6,1456.1,1782.4,1055.7,1782.4z"/>
<path class="st0" d="M343.5,928.9v-9.3h9.3v-1.4h-9.3V909h-1.4v9.3h-9.3v1.4h9.3v9.3H343.5z"/>
<path class="st0" d="M1055.7,593c-67.5,0-134.2,14.8-195.3,43.3S745,706.3,701.6,758c-4.7-3.3-10.6-4.7-16.3-3.8
	c-5.7,0.9-10.8,3.9-14.4,8.5c-3.5,4.6-5.1,10.4-4.5,16.1c0.6,5.7,3.5,11,7.9,14.7c-53.5,77.2-82.1,168.8-82,262.7
	c0,255.4,207.8,463.2,463.2,463.2c255.4,0,463.2-207.8,463.2-463.2C1518.9,800.8,1311.1,593,1055.7,593z M669,776.1
	c0-3.9,1.2-7.7,3.3-10.9c2.2-3.2,5.2-5.7,8.8-7.2c3.6-1.5,7.5-1.9,11.4-1.1c3.8,0.8,7.3,2.6,10.1,5.4c2.7,2.7,4.6,6.3,5.4,10.1
	c0.8,3.8,0.4,7.8-1.1,11.3c-1.5,3.6-4,6.7-7.2,8.8c-3.2,2.2-7,3.3-10.9,3.3c-5.2,0-10.2-2.1-13.9-5.8
	C671.1,786.3,669,781.3,669,776.1z M1055.7,1516.7c-253.9,0-460.5-206.6-460.5-460.5c-0.1-93.3,28.3-184.4,81.5-261.1
	c4.7,3,10.4,4.2,15.9,3.2c5.5-1,10.5-4,13.9-8.4c3.4-4.5,5-10,4.5-15.6c-0.5-5.6-3.1-10.8-7.3-14.5c43.1-51.4,97-92.7,157.8-121
	c60.8-28.3,127.1-43,194.1-43c253.9,0,460.5,206.6,460.5,460.5C1516.1,1310.1,1309.6,1516.7,1055.7,1516.7z"/>
<path class="st0" d="M698.6,775.2h-20v1.4h20V775.2z"/>
<path class="st0" d="M1191.7,914.4c0-3.1-0.6-6.1-1.8-8.9c-1.2-2.8-2.9-5.4-5.1-7.5c-2.2-2.2-4.7-3.9-7.6-5
	c-2.8-1.2-5.8-1.8-8.9-1.8c-3.5,0-7,0.8-10.2,2.4c-1.4-1.4-3.3-2.2-5.2-2.2c-1.6,0-3.2,0.5-4.5,1.5c-1.3,1-2.3,2.4-2.7,3.9
	c-40.4-22.9-87.9-29.6-133.1-18.8c-45.1,10.8-84.5,38.3-110.2,76.9c-25.7,38.7-35.8,85.6-28.2,131.4c7.6,45.8,32.2,87,68.9,115.4
	c36.7,28.4,82.9,41.7,129.1,37.5c46.2-4.3,89.1-25.9,120-60.6s47.5-79.7,46.5-126.1c-1-46.4-19.6-90.7-51.9-123.9
	C1190,924.5,1191.7,919.5,1191.7,914.4z M1153,895.8c0.6,0,1.3,0.2,1.8,0.5c0.5,0.4,0.9,0.9,1.2,1.5c0.3,0.6,0.3,1.2,0.2,1.9
	c-0.1,0.6-0.4,1.2-0.9,1.7c-0.5,0.5-1,0.8-1.7,0.9s-1.3,0.1-1.9-0.2c-0.6-0.2-1.1-0.7-1.5-1.2c-0.4-0.5-0.5-1.2-0.5-1.8
	c0-0.9,0.3-1.7,0.9-2.3C1151.4,896.2,1152.2,895.8,1153,895.8z M1151.4,906.5c0.5,0.1,1.1,0.2,1.6,0.2c2,0,3.9-0.8,5.4-2.2
	c1.4-1.4,2.2-3.4,2.2-5.4c0-0.6-0.1-1.1-0.2-1.7c2.5-1.2,5.2-1.8,8-1.8c4.1,0,8.1,1.3,11.4,3.7c3.3,2.4,5.7,5.9,6.9,9.8
	c1.2,3.9,1,8.1-0.4,12c-1.4,3.8-4.1,7.1-7.5,9.3c-3.4,2.2-7.5,3.2-11.6,2.9c-4.1-0.3-8-1.9-11-4.6c-3.1-2.7-5.2-6.3-6.1-10.3
	C1149.2,914.4,1149.7,910.2,1151.4,906.5z M1234.4,1056.2c0.1,39.5-12.9,77.9-37,109.3c-24,31.3-57.8,53.9-95.9,64.1
	c-38.2,10.2-78.6,7.5-115.1-7.7c-36.5-15.2-66.9-42-86.5-76.3c-19.6-34.3-27.4-74.1-22.1-113.2c5.3-39.1,23.5-75.4,51.6-103.2
	c28.1-27.8,64.6-45.5,103.8-50.4c39.2-4.9,78.9,3.3,113,23.4c0.4,0.8,0.9,1.6,1.5,2.2c-1.5,3.1-2.3,6.5-2.4,10
	c0,4.5,1.2,8.9,3.7,12.7c2.4,3.8,5.9,6.8,10,8.6c4.1,1.8,8.6,2.5,13.1,1.8c4.4-0.7,8.6-2.6,11.9-5.6c32.5,33.3,50.7,77.9,50.6,124.4
	L1234.4,1056.2z"/>
<path class="st0" d="M1167.8,924.1h1.4v-9.3h9.3v-1.4h-9.3v-9.3h-1.4v9.3h-9.3v1.4h9.3V924.1z"/>
<path class="st0" d="M1055.7,701.9c-195.3,0-354.3,158.9-354.3,354.3c0,195.3,158.9,354.3,354.3,354.3
	c90.6,0.1,177.7-34.7,243.4-97.1c2.1,2.2,4.7,3.9,7.5,5.1c2.8,1.2,5.9,1.8,8.9,1.7c3.1,0,6.1-0.7,8.9-1.9c2.8-1.2,5.3-3,7.4-5.3
	c2.1-2.2,3.7-4.9,4.7-7.7c1-2.9,1.5-5.9,1.3-9c-0.2-3.1-1-6-2.3-8.8c-1.4-2.7-3.3-5.2-5.6-7.2c51.8-63.2,80.2-142.4,80.1-224.1
	C1409.9,860.9,1251,701.9,1055.7,701.9z M1334,1297c0,3.8-1.1,7.6-3.3,10.8c-2.1,3.2-5.2,5.7-8.7,7.1c-3.5,1.5-7.4,1.8-11.2,1.1
	c-3.8-0.8-7.2-2.6-9.9-5.3c-2.7-2.7-4.5-6.1-5.3-9.9c-0.7-3.8-0.4-7.6,1.1-11.2c1.5-3.5,3.9-6.6,7.1-8.7c3.2-2.1,6.9-3.3,10.8-3.3
	c5.1,0,10.1,2,13.7,5.7C1332,1286.9,1334,1291.8,1334,1297z M1327.3,1278.1c-4.5-3-9.9-4.4-15.2-3.7c-5.4,0.6-10.3,3.1-14,7.1
	c-3.7,3.9-5.8,9.1-6,14.5c-0.2,5.4,1.5,10.7,4.8,14.9c-65.1,61.8-151.4,96.3-241.2,96.3c-193.5,0-351-157.5-351-351
	c0-193.5,157.4-351,351-351c193.5,0,351,157.5,351,351C1406.7,1137.1,1378.7,1215.6,1327.3,1278.1z"/>
<path class="st0" d="M1324.9,1296h-20v1.4h20V1296z"/>
<path class="st0" d="M1471.3,640.6c-68.3-68.4-152.5-118.9-245-147c-92.5-28.1-190.5-32.9-285.4-14.1
	c-94.8,18.8-183.6,60.8-258.3,122.1S549.4,741.8,512.4,831.1c-37,89.3-51.4,186.4-41.9,282.6c9.5,96.2,42.6,188.6,96.3,269
	c53.7,80.4,126.5,146.3,211.7,191.8c85.3,45.6,180.5,69.4,277.2,69.3c11.5,0,23-0.4,34.4-1c-0.1-0.4-0.1-0.9-0.2-1.3
	c0-0.3,0-0.6,0-0.9c-11.3,0.7-22.7,1-34.3,1c-322.9,0-585.5-262.7-585.5-585.7c0-323,262.7-585.6,585.6-585.6
	c323,0,585.6,262.7,585.6,585.6c0,297-222.4,543.1-509.3,580.6c0.2,0.7,0.4,1.5,0.4,2.2c108.7-14.4,211.3-58.9,296-128.5
	c84.8-69.6,148.3-161.5,183.6-265.4c35.2-103.9,40.7-215.5,15.8-322.3C1603.1,815.9,1548.8,718.2,1471.3,640.6z"/>
<path class="st0" d="M1111.2,1618.5c-3.8,0-7.6,1-10.9,2.9c0.6,0.5,1.1,1,1.5,1.7c4.2-2.3,9.1-3,13.8-1.9c4.7,1.1,8.8,3.8,11.7,7.7
	c2.8,3.9,4.2,8.6,3.8,13.4c-0.4,4.8-2.5,9.3-5.9,12.6c-3.4,3.4-8,5.4-12.8,5.7s-9.5-1.2-13.3-4.1c-3.8-2.9-6.4-7.1-7.4-11.8
	c-1-4.7-0.2-9.6,2.2-13.8c-0.1,0-0.2,0-0.3,0c-0.6-0.2-1.2-0.4-1.8-0.7c-1.8,3.3-2.7,6.9-2.7,10.6c0,4.4,1.3,8.6,3.7,12.2
	c2.4,3.6,5.9,6.4,9.9,8.1c4,1.7,8.4,2.1,12.7,1.3c4.3-0.8,8.2-2.9,11.3-6c3.1-3.1,5.2-7,6-11.3c0.8-4.3,0.4-8.7-1.3-12.7
	c-1.7-4-4.5-7.5-8.1-9.9c-3.6-2.4-7.9-3.7-12.2-3.7L1111.2,1618.5z"/>
<path class="st0" d="M1121.3,1639.9h-20v1.4h20V1639.9z"/>
<path class="st0" d="M1112.1,1650.6v-20h-1.4v20H1112.1z"/>
<path class="st0" d="M1096.4,1632.6c-1.4,0-2.8-0.4-4-1.2c-1.2-0.8-2.1-1.9-2.6-3.2s-0.7-2.7-0.4-4.1c0.3-1.4,1-2.7,1.9-3.6
	c1-1,2.3-1.7,3.6-1.9c1.4-0.3,2.8-0.1,4.1,0.4c1.3,0.5,2.4,1.5,3.2,2.6c0.8,1.2,1.2,2.5,1.2,4c0,1.9-0.8,3.7-2.1,5
	C1100.1,1631.8,1098.3,1632.6,1096.4,1632.6z M1096.4,1620.6c-1,0-1.9,0.3-2.7,0.8c-0.8,0.5-1.4,1.3-1.8,2.2
	c-0.4,0.9-0.5,1.9-0.3,2.8c0.2,0.9,0.7,1.8,1.3,2.5c0.7,0.7,1.6,1.2,2.5,1.3c1,0.2,1.9,0.1,2.8-0.3c0.9-0.4,1.7-1,2.2-1.8
	c0.5-0.8,0.8-1.8,0.8-2.7c0-1.3-0.5-2.6-1.4-3.5C1098.9,1621.1,1097.7,1620.6,1096.4,1620.6z"/>
</svg>
