<svg width="50" height="50" viewBox="0 0 50 50" fill="none" xmlns="http://www.w3.org/2000/svg">
<path d="M24.5712 45.5516C22.6566 34.0355 12.6027 25.2497 0.477844 25.2497C0.477844 38.6663 11.4138 49.538 24.9039 49.538C38.3941 49.538 49.33 38.6671 49.33 25.2497C37.2085 25.2497 27.1513 34.0355 25.2367 45.5516H25.24H24.5712Z" fill="#43FF01"/>
<path d="M24.5712 45.5516C22.6566 34.0355 12.6027 25.2497 0.477844 25.2497C0.477844 38.6663 11.4138 49.538 24.9039 49.538C38.3941 49.538 49.33 38.6671 49.33 25.2497C37.2085 25.2497 27.1513 34.0355 25.2367 45.5516H25.24H24.5712Z" fill="#43FF01"/>
<path d="M24.9073 0.961426C15.3684 10.4464 15.3684 25.8258 24.9073 35.3109C34.4461 25.8258 34.4495 10.4498 24.9073 0.961426Z" fill="#43FF01"/>
<path d="M24.9073 0.961426C15.3684 10.4464 15.3684 25.8258 24.9073 35.3109C34.4461 25.8258 34.4495 10.4498 24.9073 0.961426Z" fill="#43FF01"/>
</svg>
