<?xml version="1.0" encoding="utf-8"?>
<!-- Generator: Adobe Illustrator 23.0.5, SVG Export Plug-In . SVG Version: 6.00 Build 0)  -->
<svg version="1.1" id="Layer_1" xmlns="http://www.w3.org/2000/svg" xmlns:xlink="http://www.w3.org/1999/xlink" x="0px" y="0px"
	 viewBox="0 0 373.8 276.2" style="enable-background:new 0 0 373.8 276.2;" xml:space="preserve">
<style type="text/css">
	.st0{fill-rule:evenodd;clip-rule:evenodd;fill:url(#SVGID_1_);}
	.st1{fill-rule:evenodd;clip-rule:evenodd;fill:url(#SVGID_2_);}
	.st2{fill:#FEFEFE;}
	.st3{fill-rule:evenodd;clip-rule:evenodd;fill:#43FF01;}
</style>
<linearGradient id="SVGID_1_" gradientUnits="userSpaceOnUse" x1="568.7784" y1="-2571.04" x2="649.9319" y2="-2711.5974" gradientTransform="matrix(1 0 0 -1 -424.03 -2568.8799)">
	<stop  offset="0" style="stop-color:#99FF00"/>
	<stop  offset="1" style="stop-color:#00DD3B"/>
</linearGradient>
<path class="st0" d="M145,43.1c-2.2-9-5.6-29.1,3.5-34.3l0,0c9.1-5.2,24.8,7.7,31.6,14.1c-4.9,5.3-9.5,10.9-13.7,16.8
	C159.2,40.4,152,41.5,145,43.1L145,43.1L145,43.1z M176.3,39c3-3.9,6-7.5,9.1-10.8c3.2,3.4,6.2,7,9.1,10.8
	C188.4,38.7,182.3,38.7,176.3,39z M170.5,46.9c9.8-0.7,19.7-0.7,29.6,0c5,7.3,9.6,15,13.5,22.9c0.4,0.9,0.9,1.7,1.3,2.6
	c-0.4,0.9-0.8,1.7-1.3,2.6c-4,7.9-8.5,15.6-13.5,23c-9.8,0.7-19.7,0.7-29.6,0c-5.6-8.1-10.5-16.7-14.8-25.6
	C160,63.6,165,55,170.5,46.9L170.5,46.9z M213.7,90.8c1.9-3.1,3.6-6.3,5.3-9.4c1.9,4.5,3.5,8.9,4.8,13.2c-3.2,0.7-6.6,1.4-10.1,1.9
	c-1.3,0.2-2.5,0.4-3.8,0.5C211.2,95,212.5,92.9,213.7,90.8L213.7,90.8z M147,50.3c4.4-1,9-1.8,13.9-2.4c-3.3,5.1-6.3,10.3-9.1,15.7
	C149.9,59.1,148.3,54.6,147,50.3L147,50.3L147,50.3z M190.6,122.1c4.9-5.3,9.4-10.9,13.6-16.8c3.2-0.3,6.3-0.7,9.3-1.2
	c4.2-0.6,8.3-1.4,12.1-2.3c2.2,9.1,5.6,29.1-3.5,34.4l0,0c-2.6,1.3-5.6,1.6-8.5,0.8c-4.9-1.2-10.6-4.5-16.9-9.4
	C194.8,125.8,192.7,124.1,190.6,122.1L190.6,122.1z M151.8,81.4c2.8,5.4,5.8,10.6,9.1,15.7c-4.9-0.6-9.5-1.5-13.9-2.5
	C148.3,90.3,149.9,85.9,151.8,81.4z M145,101.9c7.1,1.6,14.2,2.7,21.4,3.4c4.2,5.9,8.8,11.5,13.7,16.8c-6.7,6.4-22.4,19.4-31.5,14.1
	l0,0C139.4,131,142.8,110.9,145,101.9L145,101.9L145,101.9z M111.7,72.5c0-10.5,19.1-17.7,28-20.3c2.1,6.9,4.7,13.7,7.8,20.3
	c-3,6.6-5.6,13.3-7.8,20.2C130.7,90.1,111.7,83,111.7,72.5z M137.6,100c-3.1,12.7-6,35.2,7.1,42.8l0,0c13.1,7.6,31.2-6.3,40.6-15.3
	c2.3,2.2,4.5,4.1,6.7,5.9c7.6,6.1,15,10,21.6,11.2c4.2,0.9,8.6,0.3,12.3-1.8l0,0c13.1-7.6,10.2-30.1,7.1-42.8
	c12.6-3.7,33.6-12.4,33.6-27.5S245.6,48.6,233,45c3.1-12.7,6-35.2-7.1-42.8l0,0c-3.7-2.1-8.1-2.7-12.3-1.9
	c-10.5,1.9-21.6,10.7-28.3,17.1c-9.4-9.1-27.5-22.8-40.6-15.3l0,0c-13.1,7.5-10.2,30.1-7.1,42.8c-12.6,3.6-33.6,12.3-33.6,27.5
	S125.1,96.2,137.6,100L137.6,100z M213.7,54.1c-1.2-2.1-2.5-4.2-3.8-6.2c1.3,0.2,2.6,0.3,3.8,0.5c3.5,0.5,6.9,1.2,10.1,1.9
	c-1.3,4.3-2.9,8.7-4.8,13.3C217.3,60.4,215.5,57.2,213.7,54.1L213.7,54.1z M190.7,22.9c4.9-4.7,14.6-12.8,23-14.9
	c2.8-0.9,5.9-0.6,8.6,0.8l0,0c9.1,5.2,5.7,25.3,3.5,34.3c-3.8-0.9-7.9-1.6-12.1-2.3c-3-0.4-6.1-0.8-9.3-1.2
	C200.1,33.8,195.6,28.1,190.7,22.9L190.7,22.9z M231.1,92.7c-2.1-6.9-4.7-13.7-7.8-20.2c3-6.6,5.6-13.3,7.8-20.3
	c8.9,2.6,28,9.7,28,20.3S240,90.1,231.1,92.7z M176.3,105.9c6,0.3,12.1,0.3,18.1,0c-3,3.9-6,7.5-9.1,10.8
	C182.3,113.4,179.3,109.8,176.3,105.9z"/>
<linearGradient id="SVGID_2_" gradientUnits="userSpaceOnUse" x1="603.6617" y1="-2631.4094" x2="615.1246" y2="-2651.2573" gradientTransform="matrix(1 0 0 -1 -424.03 -2568.8799)">
	<stop  offset="0" style="stop-color:#99FF00"/>
	<stop  offset="1" style="stop-color:#00DD3B"/>
</linearGradient>
<path class="st1" d="M185.4,83.9c6.3,0,11.4-5.2,11.4-11.5c0-6.3-5.2-11.4-11.5-11.4c-6.3,0-11.4,5.2-11.4,11.5
	C173.9,78.8,179,83.9,185.4,83.9z"/>
<path class="st2" d="M93.3,212.3v-37.9h17.3c4.8,0,8.5,1.3,11.1,3.8c2.3,2.4,3.4,5.5,3.3,8.8c0.3,5.3-3,10.1-8.1,11.7l9.3,13.5h-9.7
	l-8.3-12.1h-6.5v12.1L93.3,212.3z M101.6,192.8h8.4c1.7,0.1,3.4-0.4,4.7-1.5c1.1-1,1.7-2.5,1.7-4c0.1-1.6-0.5-3.1-1.7-4
	c-1.4-1-3.1-1.5-4.8-1.3h-8.3C101.6,181.9,101.6,192.8,101.6,192.8z"/>
<polygon class="st2" points="132.1,212.3 132.1,174.4 160.7,174.4 160.7,181.8 140.4,181.8 140.4,189.5 158.3,189.5 158.3,196.9 
	140.4,196.9 140.4,204.9 161,204.9 161,212.3 "/>
<path class="st2" d="M165.5,212.3l16.2-38.1h7.7l16.2,38.1h-8.7l-3.5-8.5h-16l-3.5,8.5H165.5z M180.5,196.4h10.1l-5-12.3
	L180.5,196.4z"/>
<path class="st2" d="M226.2,212.9c-5.2,0.1-10.2-1.9-13.9-5.7c-7.5-8.1-6.9-20.8,1.2-28.2c5.8-5.3,14.1-6.7,21.3-3.7
	c2.4,1.2,4.5,2.7,6.4,4.6l-5,5.7c-1.3-1.3-2.9-2.4-4.5-3.2c-1.6-0.7-3.4-1-5.2-1c-3-0.1-5.9,1.2-7.9,3.4c-4.2,4.9-4.2,12.1,0,16.9
	c2,2.3,4.9,3.5,7.9,3.5c1.8,0,3.6-0.3,5.3-1.1c1.7-0.9,3.3-2,4.7-3.3l5.3,5.7c-1.9,2.1-4.2,3.7-6.7,4.9
	C232.3,212.5,229.2,213,226.2,212.9L226.2,212.9z"/>
<polygon class="st2" points="257.7,212.3 257.7,182.1 246.2,182.1 246.2,174.4 277.6,174.4 277.6,182.1 266,182.1 266,212.3 "/>
<path class="st2" d="M95.5,276.1c-6,0.1-11.8-2.1-16.2-6.1l5-5.9c3.1,2.8,7.2,4.5,11.4,4.6c1.4,0.1,2.8-0.2,4.1-1
	c1-0.6,1.5-1.6,1.5-2.7c0-1.1-0.6-2.1-1.5-2.7c-2-1-4-1.7-6.2-2.2c-1.8-0.4-3.6-1-5.3-1.6c-1.4-0.5-2.7-1.2-3.9-2.1
	c-1.2-0.8-2.2-2-2.7-3.3c-0.6-1.5-0.9-3.1-0.9-4.8c-0.1-3.2,1.3-6.3,3.7-8.4c2.7-2.2,6.2-3.3,9.7-3.2c5.2-0.1,10.2,1.6,14.2,4.9
	l-4.4,6.3c-2.9-2.2-6.3-3.5-9.9-3.8c-1.3-0.1-2.6,0.3-3.7,1c-0.8,0.6-1.3,1.5-1.3,2.5c0,1.2,0.6,2.2,1.6,2.8c2.1,1,4.4,1.7,6.7,2.2
	c3.4,0.7,6.5,2.2,9.2,4.2c2,1.9,3.1,4.6,2.9,7.3c0.2,3.4-1.3,6.6-3.9,8.7C102.8,275.1,99.2,276.2,95.5,276.1L95.5,276.1z"/>
<path class="st2" d="M132.8,276.2c-5.2,0-9.3-1.4-12.2-4.4c-2.9-2.9-4.4-7.1-4.4-12.6v-21.9h8.4V259c-0.2,2.5,0.6,5,2.1,7
	c3.4,3.2,8.8,3.2,12.3,0.1c1.5-1.9,2.3-4.3,2.1-6.8v-21.9h8.4V259c0,5.7-1.5,9.9-4.5,12.9C142.2,274.7,138.1,276.2,132.8,276.2
	L132.8,276.2z"/>
<polygon class="st2" points="158.2,275.5 158.2,237.3 167.3,237.3 177.3,253.5 187.4,237.3 196.5,237.3 196.5,275.5 188.1,275.5 
	188.1,250.6 177.3,266.9 177.1,266.9 166.5,250.8 166.5,275.5 "/>
<polygon class="st2" points="205.7,275.5 205.7,237.3 214.8,237.3 224.8,253.5 234.9,237.3 244,237.3 244,275.5 235.6,275.5 
	235.6,250.6 224.8,266.9 224.6,266.9 214,250.8 214,275.5 "/>
<rect x="252.8" y="237.3" class="st2" width="8.4" height="38.2"/>
<polygon class="st2" points="279.7,275.5 279.7,245.1 268,245.1 268,237.3 299.7,237.3 299.7,245.1 288.1,245.1 288.1,275.5 "/>
<path class="st3" d="M308.6,220.7H66.7l-5.2,41.8l-5.2-41.8h-6.7l6.9,55.4h9.9l6.2-49.4h236V220.7z"/>
</svg>
