<svg width="156" height="200" viewBox="0 0 156 200" fill="none" xmlns="http://www.w3.org/2000/svg">
<path fill-rule="evenodd" clip-rule="evenodd" d="M17.6506 43.6384C56.4675 31.2946 71.222 23.5491 77.9184 19.8661C84.6148 23.6384 99.3246 31.2946 138.186 43.6384C138.186 48.1026 140.642 182.277 77.9184 182.165C15.1952 182.053 17.6506 48.0357 17.6506 43.6384V43.6384ZM77.9184 200C158.99 200.178 155.82 36.3839 155.82 30.7143C105.597 14.7545 86.6237 4.86607 77.9184 0C69.3023 4.86607 50.2175 14.7545 0.0166712 30.7143C0.0166712 36.3839 -3.15298 200.178 77.9184 200Z" fill="#83F35D"/>
<path fill-rule="evenodd" clip-rule="evenodd" d="M78.6938 146.942C75.0252 146.936 71.5085 145.476 68.9145 142.882C66.3204 140.288 64.8604 136.771 64.8545 133.103V132.656H50.7251V133.103C50.731 140.517 53.6803 147.625 58.9248 152.865C64.1693 158.105 71.2799 161.049 78.6938 161.049C86.1077 161.049 93.2183 158.105 98.4628 152.865C103.707 147.625 106.657 140.517 106.663 133.103V132.656H92.5331C92.5331 132.812 92.5331 132.946 92.5331 133.103C92.5272 136.775 91.0642 140.295 88.4652 142.89C85.8663 145.485 82.344 146.942 78.6715 146.942H78.6938Z" fill="#83F35D"/>
<path fill-rule="evenodd" clip-rule="evenodd" d="M39.2349 93.5928L48.8554 103.213L72.8062 79.2625L48.8554 55.2893L39.2349 64.9098L53.5875 79.2625L39.2349 93.5928Z" fill="#83F35D"/>
<path fill-rule="evenodd" clip-rule="evenodd" d="M86.0684 93.5928L95.6665 103.213L119.64 79.2625L95.6665 55.2893L86.0684 64.9098L100.421 79.2625L86.0684 93.5928Z" fill="#83F35D"/>
</svg>
