<svg width="156" height="200" viewBox="0 0 156 200" fill="none" xmlns="http://www.w3.org/2000/svg">
<path fill-rule="evenodd" clip-rule="evenodd" d="M17.6487 43.6335C56.4837 31.2911 71.2142 23.5465 77.9099 19.8638C84.6056 23.6357 99.3361 31.2911 138.171 43.6335C138.171 48.0973 140.649 182.256 77.9099 182.145C15.1713 182.033 17.6487 48.0303 17.6487 43.6335ZM77.9099 200C158.972 200.156 155.803 36.3798 155.803 30.7108C105.608 14.7528 86.6143 4.86552 77.9099 0C69.2948 4.86552 50.2343 14.7528 0.0166683 30.7108C0.0166683 36.3798 -3.15257 200.156 77.9099 200Z" fill="#83F35D"/>
<path fill-rule="evenodd" clip-rule="evenodd" d="M78.5799 146.923C74.9117 146.917 71.3956 145.457 68.8018 142.863C66.208 140.269 64.7481 136.753 64.7422 133.085V132.638H50.6368C50.6256 132.787 50.6256 132.936 50.6368 133.085C50.6368 140.502 53.5831 147.615 58.8276 152.859C64.0722 158.104 71.1853 161.05 78.6023 161.05C86.0192 161.05 93.1323 158.104 98.3769 152.859C103.621 147.615 106.568 140.502 106.568 133.085V132.638H92.44C92.4511 132.787 92.4511 132.936 92.44 133.085C92.4341 136.757 90.9713 140.276 88.3726 142.871C85.774 145.465 82.252 146.923 78.5799 146.923V146.923Z" fill="#83F35D"/>
<path fill-rule="evenodd" clip-rule="evenodd" d="M84.3159 71.9524V85.5446H123.329V71.9524H84.3159Z" fill="#83F35D"/>
<path fill-rule="evenodd" clip-rule="evenodd" d="M32.4492 71.9524V85.5446H71.4627V71.9524H32.4492Z" fill="#83F35D"/>
</svg>
