<svg width="156" height="200" viewBox="0 0 156 200" fill="none" xmlns="http://www.w3.org/2000/svg">
<path fill-rule="evenodd" clip-rule="evenodd" d="M17.6485 43.6335C56.4611 31.2911 71.214 23.5465 77.9096 19.8638C84.6053 23.6357 99.3135 31.2911 138.171 43.6335C138.171 48.0973 140.626 182.256 77.9096 182.145C15.1935 182.033 17.6485 48.0303 17.6485 43.6335ZM77.9096 200C158.972 200.156 155.803 36.3798 155.78 30.7108C105.585 14.7528 86.5917 4.86552 77.9096 0C69.2945 4.86552 50.2119 14.7528 0.0166703 30.7108C0.0166703 36.3798 -3.1527 200.156 77.9096 200Z" fill="#83F35D"/>
<path fill-rule="evenodd" clip-rule="evenodd" d="M115.184 93.5816L105.564 103.201L81.6162 79.2529L105.564 55.3047L115.184 64.9018L100.855 79.2529L115.184 93.5816Z" fill="#83F35D"/>
<path fill-rule="evenodd" clip-rule="evenodd" d="M68.3579 93.5816L58.7607 103.201L34.8125 79.2529L58.7607 55.3047L68.3579 64.9018L54.0291 79.2529L68.3579 93.5816Z" fill="#83F35D"/>
<path fill-rule="evenodd" clip-rule="evenodd" d="M78.0659 120.521C75.4186 120.521 72.7974 121.044 70.353 122.06C67.9086 123.077 65.6893 124.566 63.8226 126.443C61.9559 128.32 60.4785 130.548 59.4757 132.998C58.4728 135.448 57.9641 138.072 57.9788 140.719C57.9788 146.047 60.0952 151.156 63.8622 154.923C67.6293 158.69 72.7385 160.806 78.0659 160.806C80.7132 160.821 83.3373 160.312 85.7872 159.309C88.2372 158.306 90.4647 156.829 92.3418 154.962C94.2189 153.096 95.7085 150.876 96.725 148.432C97.7414 145.988 98.2646 143.366 98.2646 140.719C98.2794 138.063 97.7671 135.429 96.7572 132.972C95.7474 130.515 94.2602 128.282 92.3816 126.404C90.503 124.525 88.2704 123.038 85.8131 122.028C83.3558 121.018 80.7226 120.506 78.0659 120.521ZM71.6827 140.719C71.6827 139.024 72.3544 137.398 73.5509 136.198C74.7473 134.997 76.3709 134.32 78.0659 134.314C79.7648 134.314 81.3941 134.989 82.5954 136.19C83.7966 137.391 84.4714 139.02 84.4714 140.719C84.4715 141.559 84.3057 142.391 83.9835 143.167C83.6613 143.943 83.1891 144.648 82.594 145.241C81.9989 145.834 81.2925 146.303 80.5155 146.623C79.7385 146.942 78.906 147.105 78.0659 147.102C76.373 147.102 74.7493 146.43 73.5523 145.233C72.3552 144.036 71.6827 142.412 71.6827 140.719V140.719Z" fill="#83F35D"/>
</svg>
