<svg width="156" height="200" viewBox="0 0 156 200" fill="none" xmlns="http://www.w3.org/2000/svg">
<g clip-path="url(#clip0_169_5474)">
<path fill-rule="evenodd" clip-rule="evenodd" d="M78.8923 147.222C77.0433 147.222 75.1943 146.914 73.6535 146.296C72.1127 145.679 70.5718 144.444 69.031 143.21C67.7983 141.975 66.8738 140.432 65.9493 138.58C65.333 137.037 65.0248 135.185 65.0248 133.333V132.716H50.8492V133.025C50.8492 140.432 53.9309 147.531 59.1697 152.778C64.4085 158.025 71.4963 161.111 78.8923 161.111C86.2883 161.111 93.3762 158.025 98.615 152.778C103.854 147.531 106.935 140.432 106.935 133.025V132.716H92.7598V133.025C92.7598 134.877 92.4517 136.728 91.8353 138.272C91.219 139.815 89.9863 141.358 88.7537 142.901C87.521 144.444 85.9802 145.062 84.1312 145.988C82.5903 146.605 80.7413 147.222 78.8923 147.222ZM51.7737 59.2593C47.7675 59.2593 43.7614 60.4938 40.6797 62.6543C37.2899 64.8148 34.8245 67.9012 33.2837 71.6049C31.7429 75.3086 31.4347 79.321 32.051 83.3333C32.9755 87.3457 34.8245 90.7407 37.598 93.8272C40.3715 96.6049 44.0695 98.4568 48.0757 99.3827C52.0819 100.309 56.088 99.6914 59.786 98.1481C63.484 96.6049 66.5657 94.1358 68.7228 90.7407C70.88 87.3457 72.1127 83.642 72.1127 79.6296C72.1127 76.8518 71.4963 74.3827 70.5718 71.9136C69.6473 69.4444 68.1065 67.2839 66.2575 65.4321C64.4085 63.5802 62.2513 62.037 59.786 61.1111C57.0125 59.5679 54.5472 59.2593 51.7737 59.2593ZM45.3022 79.321C45.3022 78.0864 45.6104 76.8518 46.2267 75.6173C46.843 74.6914 48.0757 73.7654 49.0002 73.1481C50.2329 72.5309 51.4655 72.5309 52.6982 72.8395C53.9309 73.1481 55.1635 73.7654 56.088 74.6914C57.0125 75.6173 57.6288 76.8518 57.937 78.0864C58.2452 79.321 57.937 80.5556 57.6289 81.7901C57.0125 83.0247 56.3962 83.9506 55.1635 84.5679C54.239 85.1852 53.0064 85.8025 51.4655 85.8025C49.6165 85.8025 48.0757 85.1852 46.843 83.9506C45.9185 82.716 45.3022 81.1728 45.3022 79.321ZM17.5672 43.8272C56.3962 31.4815 71.1882 23.7654 77.9678 20.0617C84.7475 23.7654 99.5395 31.4815 138.368 43.8272C138.368 48.1481 140.834 182.716 77.9678 182.407C15.1019 182.099 17.5672 48.1481 17.5672 43.8272ZM77.9678 200C159.016 200.309 155.934 36.4197 155.934 30.5556C105.703 14.8148 86.5965 4.93827 77.9678 0C69.3392 4.93827 50.2328 14.8148 0.00171933 30.8642C0.00171933 36.4198 -3.07994 200.309 77.9678 200ZM84.4393 71.9136V85.4938H123.576V71.9136H84.4393Z" fill="#83F35D"/>
</g>
<defs>
<clipPath id="clip0_169_5474">
<rect width="155.932" height="200" fill="white"/>
</clipPath>
</defs>
</svg>
