<svg width="156" height="200" viewBox="0 0 156 200" fill="none" xmlns="http://www.w3.org/2000/svg">
<path fill-rule="evenodd" clip-rule="evenodd" d="M17.6294 43.6558C56.4707 31.3135 71.2036 23.5688 77.9004 19.8861C84.5972 23.6357 99.3301 31.3135 138.171 43.6558C138.171 48.1196 140.627 182.279 77.9004 182.145C15.1739 182.011 17.6294 48.0303 17.6294 43.6558ZM77.9004 200C158.998 200.156 155.806 36.4021 155.806 30.7331C105.603 14.7751 86.6062 4.86553 77.9004 0C69.2839 4.86553 50.2205 14.7751 0.0170108 30.7331C0.0170108 36.4021 -3.17522 200.156 77.9004 200Z" fill="#83F35D"/>
<path fill-rule="evenodd" clip-rule="evenodd" d="M36.6036 96.0386L27.0049 86.4415L50.957 62.4709L74.9091 86.4415L65.2881 96.0386L50.957 81.7098L36.6036 96.0386Z" fill="#83F35D"/>
<path fill-rule="evenodd" clip-rule="evenodd" d="M91.0278 96.0386L81.4067 86.4415L105.359 62.4709L129.333 86.4415L119.712 96.0386L105.359 81.7098L91.0278 96.0386Z" fill="#83F35D"/>
<path fill-rule="evenodd" clip-rule="evenodd" d="M78.6938 146.942C75.0252 146.936 71.5085 145.476 68.9145 142.882C66.3204 140.288 64.8604 136.771 64.8545 133.103V132.656H50.7251V133.103C50.731 140.517 53.6803 147.625 58.9248 152.865C64.1693 158.105 71.2799 161.049 78.6938 161.049C86.1077 161.049 93.2183 158.105 98.4628 152.865C103.707 147.625 106.657 140.517 106.663 133.103V132.656H92.5331C92.5331 132.812 92.5331 132.946 92.5331 133.103C92.5272 136.775 91.0642 140.295 88.4652 142.89C85.8663 145.485 82.344 146.942 78.6715 146.942H78.6938Z" fill="#83F35D"/>
</svg>
