<?xml version="1.0" encoding="utf-8"?>
<!-- Generator: Adobe Illustrator 23.0.5, SVG Export Plug-In . SVG Version: 6.00 Build 0)  -->
<svg version="1.1" id="Layer_1" xmlns="http://www.w3.org/2000/svg" xmlns:xlink="http://www.w3.org/1999/xlink" x="0px" y="0px"
	 width="324.9px" height="66.3px" viewBox="0 0 324.9 66.3" style="enable-background:new 0 0 324.9 66.3;" xml:space="preserve">
<style type="text/css">
	.st0{fill:url(#SVGID_1_);}
	.st1{fill:#FFFFFF;}
</style>
<linearGradient id="SVGID_1_" gradientUnits="userSpaceOnUse" x1="0" y1="33.161" x2="105.1304" y2="33.161">
	<stop  offset="0" style="stop-color:#FF00D7"/>
	<stop  offset="1" style="stop-color:#0083FF"/>
</linearGradient>
<path class="st0" d="M6.8,13.2c1.6,0,3.1,0.6,4.3,1.5L23,7.9c-0.1-0.3-0.1-0.7-0.1-1.1c0-3.7,3-6.8,6.8-6.8s6.8,3,6.8,6.8
	c0,0.4,0,0.8-0.1,1.1l11.9,6.9c2.5-2,6.1-2,8.6,0l11.9-6.9C68.1,3.8,71.3,0,75.5,0c4.2,0,7.4,3.8,6.7,7.9L94,14.7
	c1.2-1,2.7-1.5,4.3-1.5c3.7,0,6.8,3,6.8,6.8c0,4.8-4.9,8-9.3,6.3L89,38.2l5.1,2.9c1.2-1,2.7-1.5,4.3-1.5c3.7,0,6.8,3,6.8,6.8
	c0,3.7-3,6.8-6.8,6.8c-1.6,0-3.1-0.6-4.3-1.5l-11.9,6.9c0.1,0.3,0.1,0.7,0.1,1.1c0,3.7-3,6.8-6.8,6.8c-3.7,0-6.8-3-6.8-6.8
	c0-0.4,0-0.8,0.1-1.1l-11.9-6.9c-2.5,2-6.1,2-8.6,0l-11.9,6.9c0.1,0.3,0.1,0.7,0.1,1.1c0,3.7-3,6.8-6.8,6.8s-6.8-3-6.8-6.8
	c0-0.4,0-0.8,0.1-1.1l-11.9-6.9c-1.2,1-2.7,1.5-4.3,1.5c-3.7,0-6.8-3-6.8-6.8C0,43.5,1.8,41,4.4,40V26.3C1.8,25.3,0,22.9,0,20
	C0,16.2,3,13.2,6.8,13.2L6.8,13.2z M59.3,18.9L59.3,18.9l32.4,0v0L79.8,12c-2.5,2-6.1,2-8.6,0L59.3,18.9z M86.6,42.3l-6.9,11.9
	l0.1,0.1l11.9-6.9c-0.1-0.7-0.1-1.5,0-2.2L86.6,42.3z M71.2,54.3L71.2,54.3L55.1,26.3c-4.4,1.7-9.3-1.5-9.3-6.3c0-0.4,0-0.7,0.1-1.1
	L34,12l0,0l16.2,28c0.8-0.3,1.6-0.4,2.4-0.4c3.7,0,6.8,3,6.8,6.8c0,0.4,0,0.7-0.1,1.1L71.2,54.3z M59.3,21.1l27.9,16.1l6.9-11.9
	c-1.3-1-2.2-2.6-2.4-4.3H59.3L59.3,21.1z M84.8,41.3L56.9,25.2l0,0l16.2,28c1.6-0.6,3.3-0.6,4.9,0L84.8,41.3z M13.5,18.9
	c0.1,0.4,0.1,0.7,0.1,1.1c0,2.9-1.8,5.4-4.4,6.3v13.6l16.1-27.8L13.5,18.9z M13.5,47.5l11.9,6.9c2.5-2,6.1-2,8.6,0l11.9-6.9
	c0-0.1,0-0.2,0-0.3H13.5C13.5,47.3,13.5,47.4,13.5,47.5L13.5,47.5z M45.7,45.1l-11.7-6.8c-1.2,1-2.7,1.5-4.3,1.5
	c-3.7,0-6.8-3-6.8-6.8s3-6.8,6.8-6.8s6.8,3,6.8,6.8c0,0.4,0,0.7-0.1,1.1l12,6.9l0.1-0.1l-16.2-28c-1.6,0.6-3.5,0.6-5.1-0.1L10.9,41
	c1.3,1,2.2,2.5,2.6,4.2H45.7z"/>
<g>
	<path class="st1" d="M141.7,18.2h3.2v7.2c-0.9,0.7-2,1.3-3.2,1.7c-1.2,0.4-2.5,0.6-3.8,0.6c-1.8,0-3.5-0.4-5-1.2s-2.6-1.9-3.5-3.3
		c-0.8-1.4-1.3-3-1.3-4.8s0.4-3.3,1.3-4.8c0.8-1.4,2-2.5,3.5-3.3c1.5-0.8,3.2-1.2,5-1.2c1.5,0,2.9,0.2,4.1,0.7s2.3,1.2,3.1,2.2
		l-2.1,2.1c-1.4-1.4-3-2.1-5-2.1c-1.3,0-2.4,0.3-3.4,0.8c-1,0.5-1.8,1.3-2.3,2.2s-0.8,2.1-0.8,3.3c0,1.2,0.3,2.3,0.8,3.2
		c0.6,1,1.3,1.7,2.3,2.3c1,0.5,2.1,0.8,3.4,0.8c1.4,0,2.6-0.3,3.7-0.9V18.2z"/>
</g>
<g>
	<path class="st1" d="M156.7,13.5v3.1c-0.3-0.1-0.5-0.1-0.7-0.1c-1.3,0-2.2,0.4-2.9,1.1c-0.7,0.7-1.1,1.8-1.1,3.1v6.7h-3.2V13.6h3.1
		v2C152.7,14.2,154.3,13.5,156.7,13.5z"/>
</g>
<g>
	<path class="st1" d="M169,14.9c1.1,1,1.6,2.4,1.6,4.4v8h-3v-1.7c-0.4,0.6-1,1.1-1.7,1.4c-0.7,0.3-1.6,0.5-2.6,0.5s-1.9-0.2-2.7-0.5
		c-0.8-0.4-1.4-0.8-1.8-1.5c-0.4-0.6-0.6-1.3-0.6-2.1c0-1.2,0.5-2.2,1.4-3c0.9-0.7,2.4-1.1,4.3-1.1h3.6v-0.2c0-1-0.3-1.7-0.9-2.2
		s-1.4-0.8-2.6-0.8c-0.8,0-1.5,0.1-2.3,0.4s-1.4,0.6-1.9,1l-1.3-2.3c0.7-0.5,1.6-1,2.6-1.3c1-0.3,2.1-0.4,3.2-0.4
		C166.4,13.5,167.9,14,169,14.9z M166.1,24.6c0.6-0.4,1.1-0.9,1.3-1.6v-1.6h-3.3c-1.9,0-2.8,0.6-2.8,1.8c0,0.6,0.2,1,0.7,1.4
		c0.5,0.3,1.1,0.5,1.9,0.5C164.7,25.2,165.5,25,166.1,24.6z"/>
</g>
<g>
	<path class="st1" d="M186.3,14.3c1.1,0.6,1.9,1.4,2.5,2.5c0.6,1.1,0.9,2.3,0.9,3.7c0,1.4-0.3,2.6-0.9,3.7c-0.6,1.1-1.4,1.9-2.5,2.5
		c-1.1,0.6-2.3,0.9-3.6,0.9c-1.9,0-3.3-0.6-4.4-1.9v6.7h-3.2V13.6h3.1v1.8c0.5-0.7,1.2-1.1,2-1.5c0.8-0.3,1.6-0.5,2.6-0.5
		C184,13.5,185.2,13.8,186.3,14.3z M185.2,23.6c0.8-0.8,1.1-1.8,1.1-3.1s-0.4-2.3-1.1-3.1s-1.7-1.2-2.9-1.2c-0.8,0-1.5,0.2-2.1,0.5
		c-0.6,0.4-1.1,0.9-1.5,1.5c-0.4,0.7-0.5,1.4-0.5,2.3c0,0.9,0.2,1.6,0.5,2.3s0.8,1.2,1.5,1.5c0.6,0.4,1.3,0.5,2.1,0.5
		C183.5,24.8,184.5,24.4,185.2,23.6z"/>
</g>
<g>
	<path class="st1" d="M204.8,15c1,1,1.6,2.5,1.6,4.5v7.9h-3.2v-7.5c0-1.2-0.3-2.1-0.8-2.7c-0.6-0.6-1.4-0.9-2.4-0.9
		c-1.2,0-2.1,0.4-2.8,1.1c-0.7,0.7-1,1.7-1,3.1v6.9h-3.2V8.3h3.2v6.9c0.5-0.6,1.2-1,2-1.3c0.8-0.3,1.7-0.5,2.6-0.5
		C202.4,13.5,203.8,14,204.8,15z"/>
</g>
<g>
	<path class="st1" d="M229.9,29.2c-0.6,0.7-1.3,1.2-2.1,1.6c-0.8,0.4-1.7,0.5-2.6,0.5c-1.2,0-2.4-0.3-3.4-0.8
		c-1-0.6-2.2-1.5-3.5-2.9c-1.7-0.1-3.2-0.6-4.5-1.5c-1.3-0.8-2.4-1.9-3.1-3.3c-0.7-1.3-1.1-2.8-1.1-4.5c0-1.7,0.4-3.3,1.3-4.7
		c0.8-1.4,2-2.5,3.5-3.3c1.5-0.8,3.1-1.2,5-1.2c1.8,0,3.5,0.4,5,1.2c1.5,0.8,2.6,1.9,3.5,3.3c0.8,1.4,1.3,3,1.3,4.8
		c0,1.4-0.3,2.7-0.8,3.9s-1.4,2.2-2.4,3.1c-1,0.8-2.2,1.5-3.5,1.8c0.5,0.5,1,0.9,1.5,1.2c0.5,0.2,1,0.4,1.5,0.4
		c1.2,0,2.2-0.5,3.1-1.4L229.9,29.2z M213.8,21.6c0.5,1,1.3,1.7,2.3,2.3c1,0.5,2,0.8,3.2,0.8c1.2,0,2.3-0.3,3.2-0.8
		c1-0.5,1.7-1.3,2.3-2.3c0.5-1,0.8-2.1,0.8-3.3s-0.3-2.3-0.8-3.3c-0.5-1-1.3-1.7-2.3-2.3c-1-0.5-2-0.8-3.2-0.8
		c-1.2,0-2.3,0.3-3.2,0.8c-1,0.5-1.7,1.3-2.3,2.3c-0.5,1-0.8,2.1-0.8,3.3S213.3,20.6,213.8,21.6z"/>
</g>
<g>
	<path class="st1" d="M232.4,9.4h3.3v15.2h9.4v2.8h-12.8V9.4z"/>
</g>
<g>
	<path class="st1" d="M142.9,48.1h3.2v7.2c-0.9,0.7-2,1.3-3.2,1.7c-1.2,0.4-2.5,0.6-3.8,0.6c-1.8,0-3.5-0.4-5-1.2s-2.6-1.9-3.5-3.3
		c-0.8-1.4-1.3-3-1.3-4.8s0.4-3.3,1.3-4.8c0.8-1.4,2-2.5,3.5-3.3c1.5-0.8,3.2-1.2,5-1.2c1.5,0,2.9,0.2,4.1,0.7s2.3,1.2,3.1,2.2
		l-2.1,2.1c-1.4-1.4-3-2.1-5-2.1c-1.3,0-2.4,0.3-3.4,0.8c-1,0.5-1.8,1.3-2.3,2.2s-0.8,2.1-0.8,3.3c0,1.2,0.3,2.3,0.8,3.2
		c0.6,1,1.3,1.7,2.3,2.3c1,0.5,2.1,0.8,3.4,0.8c1.4,0,2.6-0.3,3.7-0.9V48.1z"/>
</g>
<g>
	<path class="st1" d="M149.9,38.3h3.2v19.1h-3.2V38.3z"/>
</g>
<g>
	<path class="st1" d="M159.7,56.6c-1.1-0.6-2-1.4-2.6-2.5s-0.9-2.3-0.9-3.6s0.3-2.6,0.9-3.6c0.6-1.1,1.5-1.9,2.6-2.5
		c1.1-0.6,2.4-0.9,3.8-0.9c1.4,0,2.7,0.3,3.8,0.9c1.1,0.6,2,1.4,2.6,2.5c0.6,1.1,0.9,2.3,0.9,3.6s-0.3,2.6-0.9,3.6
		c-0.6,1.1-1.5,1.9-2.6,2.5s-2.4,0.9-3.8,0.9C162.1,57.5,160.8,57.2,159.7,56.6z M166.4,53.6c0.8-0.8,1.2-1.8,1.2-3.1
		s-0.4-2.3-1.2-3.1s-1.8-1.2-2.9-1.2c-1.2,0-2.2,0.4-2.9,1.2c-0.8,0.8-1.1,1.8-1.1,3.1s0.4,2.3,1.1,3.1c0.8,0.8,1.7,1.2,2.9,1.2
		C164.6,54.8,165.6,54.4,166.4,53.6z"/>
</g>
<g>
	<path class="st1" d="M185,44.3c1.1,0.6,1.9,1.4,2.5,2.5c0.6,1.1,0.9,2.3,0.9,3.7c0,1.4-0.3,2.6-0.9,3.7c-0.6,1.1-1.4,1.9-2.5,2.5
		c-1.1,0.6-2.3,0.9-3.6,0.9c-0.9,0-1.8-0.2-2.6-0.5s-1.4-0.8-2-1.5v1.8h-3.1V38.3h3.2v7c0.5-0.6,1.2-1.1,1.9-1.4s1.6-0.5,2.5-0.5
		C182.8,43.5,184,43.8,185,44.3z M184,53.6c0.8-0.8,1.1-1.8,1.1-3.1s-0.4-2.3-1.1-3.1s-1.7-1.2-2.9-1.2c-0.8,0-1.5,0.2-2.1,0.5
		c-0.6,0.4-1.1,0.9-1.5,1.5c-0.4,0.7-0.5,1.4-0.5,2.3c0,0.9,0.2,1.6,0.5,2.3s0.8,1.2,1.5,1.5c0.6,0.4,1.3,0.5,2.1,0.5
		C182.3,54.8,183.3,54.4,184,53.6z"/>
</g>
<g>
	<path class="st1" d="M201.5,44.9c1.1,1,1.6,2.4,1.6,4.4v8h-3v-1.7c-0.4,0.6-1,1.1-1.7,1.4c-0.7,0.3-1.6,0.5-2.6,0.5
		s-1.9-0.2-2.7-0.5c-0.8-0.4-1.4-0.8-1.8-1.5c-0.4-0.6-0.6-1.3-0.6-2.1c0-1.2,0.5-2.2,1.4-3c0.9-0.7,2.4-1.1,4.3-1.1h3.6v-0.2
		c0-1-0.3-1.7-0.9-2.2s-1.4-0.8-2.6-0.8c-0.8,0-1.5,0.1-2.3,0.4s-1.4,0.6-1.9,1l-1.3-2.3c0.7-0.5,1.6-1,2.6-1.3
		c1-0.3,2.1-0.4,3.2-0.4C198.9,43.5,200.4,44,201.5,44.9z M198.6,54.6c0.6-0.4,1.1-0.9,1.3-1.6v-1.6h-3.3c-1.9,0-2.8,0.6-2.8,1.8
		c0,0.6,0.2,1,0.7,1.4c0.5,0.3,1.1,0.5,1.9,0.5C197.2,55.2,197.9,55,198.6,54.6z"/>
</g>
<g>
	<path class="st1" d="M207.5,38.3h3.2v19.1h-3.2V38.3z"/>
</g>
<g>
	<path class="st1" d="M224.1,57c-1.3-0.4-2.3-0.9-3.1-1.6l1.2-2.6c0.7,0.6,1.6,1.1,2.7,1.4s2.1,0.6,3.2,0.6c1.3,0,2.3-0.2,3-0.6
		c0.7-0.4,1-1,1-1.7c0-0.5-0.2-0.9-0.6-1.3c-0.4-0.3-0.8-0.6-1.4-0.8s-1.3-0.4-2.3-0.6c-1.4-0.3-2.5-0.7-3.3-1s-1.6-0.8-2.2-1.5
		c-0.6-0.7-0.9-1.6-0.9-2.8c0-1,0.3-1.9,0.8-2.7c0.5-0.8,1.4-1.5,2.4-1.9c1.1-0.5,2.4-0.7,4-0.7c1.1,0,2.2,0.1,3.2,0.4
		c1.1,0.3,2,0.7,2.8,1.2l-1.1,2.6c-0.8-0.5-1.6-0.8-2.5-1.1s-1.7-0.4-2.5-0.4c-1.3,0-2.3,0.2-2.9,0.7s-1,1-1,1.8
		c0,0.5,0.2,0.9,0.6,1.3c0.4,0.3,0.8,0.6,1.4,0.8s1.3,0.4,2.3,0.6c1.3,0.3,2.4,0.6,3.3,1c0.9,0.3,1.6,0.8,2.2,1.5s0.9,1.6,0.9,2.8
		c0,1-0.3,1.9-0.8,2.7c-0.5,0.8-1.4,1.4-2.5,1.9c-1.1,0.5-2.4,0.7-4,0.7C226.8,57.6,225.4,57.4,224.1,57z"/>
</g>
<g>
	<path class="st1" d="M251.5,43.6v13.7h-3.1v-1.7c-0.5,0.6-1.2,1.1-1.9,1.4s-1.6,0.5-2.5,0.5c-1.8,0-3.3-0.5-4.3-1.5
		s-1.6-2.5-1.6-4.5v-7.8h3.2V51c0,1.2,0.3,2.2,0.8,2.8c0.6,0.6,1.4,0.9,2.4,0.9c1.1,0,2.1-0.4,2.7-1.1c0.7-0.7,1-1.7,1-3.1v-6.9
		H251.5z"/>
</g>
<g>
	<path class="st1" d="M277.4,45c1,1,1.5,2.5,1.5,4.5v7.9h-3.2v-7.5c0-1.2-0.3-2.1-0.8-2.7c-0.5-0.6-1.3-0.9-2.3-0.9
		c-1.1,0-1.9,0.4-2.6,1.1c-0.7,0.7-1,1.7-1,3v7h-3.2v-7.5c0-1.2-0.3-2.1-0.8-2.7c-0.5-0.6-1.3-0.9-2.3-0.9c-1.1,0-2,0.4-2.6,1.1
		c-0.6,0.7-1,1.7-1,3.1v7H256V43.6h3.1v1.7c0.5-0.6,1.2-1.1,1.9-1.4c0.8-0.3,1.6-0.5,2.6-0.5c1,0,1.9,0.2,2.7,0.6
		c0.8,0.4,1.4,1,1.9,1.7c0.6-0.7,1.3-1.3,2.2-1.7s1.9-0.6,3-0.6C275.1,43.5,276.4,44,277.4,45z"/>
</g>
<g>
	<path class="st1" d="M304.4,45c1,1,1.5,2.5,1.5,4.5v7.9h-3.2v-7.5c0-1.2-0.3-2.1-0.8-2.7c-0.5-0.6-1.3-0.9-2.3-0.9
		c-1.1,0-1.9,0.4-2.6,1.1c-0.7,0.7-1,1.7-1,3v7h-3.2v-7.5c0-1.2-0.3-2.1-0.8-2.7c-0.5-0.6-1.3-0.9-2.3-0.9c-1.1,0-2,0.4-2.6,1.1
		c-0.6,0.7-1,1.7-1,3.1v7h-3.2V43.6h3.1v1.7c0.5-0.6,1.2-1.1,1.9-1.4c0.8-0.3,1.6-0.5,2.6-0.5c1,0,1.9,0.2,2.7,0.6
		c0.8,0.4,1.4,1,1.9,1.7c0.6-0.7,1.3-1.3,2.2-1.7s1.9-0.6,3-0.6C302,43.5,303.4,44,304.4,45z"/>
</g>
<g>
	<path class="st1" d="M309.5,40.8c-0.4-0.4-0.6-0.8-0.6-1.4s0.2-1,0.6-1.4c0.4-0.4,0.9-0.6,1.5-0.6c0.6,0,1.1,0.2,1.5,0.5
		c0.4,0.4,0.6,0.8,0.6,1.3c0,0.6-0.2,1-0.6,1.4c-0.4,0.4-0.9,0.6-1.5,0.6C310.3,41.4,309.9,41.2,309.5,40.8z M309.3,43.6h3.2v13.7
		h-3.2V43.6z"/>
</g>
<g>
	<path class="st1" d="M324.9,56.6c-0.4,0.3-0.8,0.5-1.4,0.7s-1.1,0.2-1.7,0.2c-1.5,0-2.7-0.4-3.5-1.2c-0.8-0.8-1.2-1.9-1.2-3.4v-6.6
		h-2.3v-2.6h2.3v-3.1h3.2v3.1h3.7v2.6h-3.7v6.5c0,0.7,0.2,1.2,0.5,1.5s0.8,0.5,1.4,0.5c0.7,0,1.3-0.2,1.8-0.6L324.9,56.6z"/>
</g>
</svg>
