<?xml version="1.0" encoding="utf-8"?>
<!-- Generator: Adobe Illustrator 23.0.5, SVG Export Plug-In . SVG Version: 6.00 Build 0)  -->
<svg version="1.1" id="Layer_1" xmlns="http://www.w3.org/2000/svg" xmlns:xlink="http://www.w3.org/1999/xlink" x="0px" y="0px"
	 viewBox="0 0 964 1235" style="enable-background:new 0 0 964 1235;" xml:space="preserve">
<style type="text/css">
	.st0{opacity:0.1;fill-rule:evenodd;clip-rule:evenodd;fill:#FFFFFF;fill-opacity:0.15;enable-background:new    ;}
</style>
<path class="st0" d="M481.5,846c11.2,0,22.4,2.1,32.7,6.4c10.4,4.3,19.8,10.6,27.8,18.5s14.2,17.4,18.5,27.7
	c4.3,10.4,6.5,21.5,6.5,32.7v2.8h87.3v-2.8c-1.1-45.1-19.8-87.9-52.1-119.4c-32.3-31.5-75.6-49.1-120.7-49.1S393,780.5,360.7,812
	c-32.3,31.5-51,74.3-52.1,119.4v2.8h87.3c-0.2-0.9-0.2-1.9,0-2.8c0-11.2,2.2-22.4,6.6-32.7c4.3-10.4,10.7-19.8,18.6-27.7
	c8-7.9,17.4-14.2,27.8-18.5c10.4-4.3,21.5-6.4,32.8-6.4H481.5z M109.4,269.5C349.6,193.1,440.8,146.1,482,122.8
	c41.2,23.4,132.6,70.7,372.6,146.7c0,27.1,15.3,856-372.6,855.3C94.1,1124.1,109.4,296.5,109.4,269.5z M482,1235
	c501.5,1,481.9-1010.1,481.9-1045.3C653.4,91.5,535.4,30.2,482,0C428.9,30.2,310.7,91.2,0.1,189.7C0.1,224.8-19.5,1235.9,482,1235z
	 M517.3,545.1l59.6,59.2l55.6-55.4l55.6,55.4l59.6-59.2l-55.9-55.8l55.9-55.4L688,374.8l-55.6,55.4l-55.6-55.4l-59.6,59.2l55.6,55.4
	L517.3,545.1z M211.6,545.1l59.6,59.2l55.6-55.4l55.6,55.4l59.3-59.2L386,489.4l55.6-55.4l-59.3-59.2l-55.6,55.4l-55.6-55.4
	l-59.6,59.2l55.6,55.4L211.6,545.1z"/>
</svg>
