<?xml version="1.0" encoding="utf-8"?>
<!-- Generator: Adobe Illustrator 23.0.5, SVG Export Plug-In . SVG Version: 6.00 Build 0)  -->
<svg version="1.1" id="Layer_1" xmlns="http://www.w3.org/2000/svg" xmlns:xlink="http://www.w3.org/1999/xlink" x="0px" y="0px"
	 viewBox="0 0 120.6 122.8" style="enable-background:new 0 0 120.6 122.8;" xml:space="preserve">
<style type="text/css">
	.st0{fill:#FFFFFF;}
	.st1{fill-rule:evenodd;clip-rule:evenodd;fill:#FFFFFF;}
	.st2{fill:none;stroke:#FFFFFF;stroke-width:3;}
</style>
<path class="st0" d="M24,122.4c-2.6,0-5.1-0.9-7-2.7l2.2-2.6c1.6,1.4,3.3,2,5,2c0.6,0,1.2-0.1,1.7-0.4c0.4-0.2,0.7-0.7,0.7-1.2
	c0-0.5-0.2-0.9-0.7-1.1c-0.8-0.4-1.7-0.8-2.7-0.9c-0.8-0.2-1.6-0.4-2.3-0.7c-0.6-0.2-1.1-0.6-1.6-0.9c-0.5-0.4-0.9-0.8-1.2-1.4
	c-0.2-0.7-0.4-1.4-0.4-2.1c0-1.4,0.6-2.7,1.6-3.6c1.2-0.9,2.7-1.5,4.2-1.4c2.3,0,4.4,0.7,6.2,2.1l-2,2.7c-1.6-1.1-3-1.6-4.3-1.6
	c-0.6,0-1.1,0.1-1.6,0.4c-0.6,0.4-0.8,1.3-0.3,1.9c0.1,0.1,0.3,0.3,0.4,0.4c0.9,0.4,1.9,0.8,2.9,1c1.8,0.5,3.1,1.1,4,1.8
	c0.9,0.8,1.4,2,1.3,3.2c0,1.5-0.6,2.8-1.7,3.8C27.4,122,25.9,122.4,24,122.4z M40.2,122.4c-2.3,0-4-0.6-5.3-1.9
	c-1.3-1.3-1.9-3.1-1.9-5.5v-9.5h3.7v9.4c0,1.3,0.3,2.4,0.9,3.1c0.7,0.8,1.6,1.1,2.7,1c1,0,1.9-0.3,2.6-1c0.7-0.8,1-1.9,0.9-3v-9.5
	h3.7v9.4c0,2.5-0.7,4.3-1.9,5.6C44.3,121.8,42.6,122.4,40.2,122.4z M51.3,122.2v-16.6h3.9l4.4,7l4.4-7h3.9v16.6h-3.7v-10.9l-4.7,7.1
	h0l-4.7-7v10.8L51.3,122.2L51.3,122.2z M71.9,122.2v-16.6h3.9l4.4,7l4.4-7h3.9v16.6h-3.6v-10.9l-4.7,7.1h-0.1l-4.6-7v10.8
	L71.9,122.2L71.9,122.2z M92.7,122.2v-16.6h3.7v16.6L92.7,122.2L92.7,122.2z M104.3,122.2v-13.2h-5v-3.4h13.8v3.4h-5v13.2H104.3z"/>
<path class="st0" d="M16.6,89.4V72.8h7.6c2.1,0,3.7,0.6,4.8,1.7c1,1,1.5,2.4,1.4,3.9c0,2.5-1.2,4.2-3.6,5.1l4.1,5.9h-4.3l-3.6-5.3
	h-2.8v5.3H16.6z M20.3,80.9H24c0.8,0,1.5-0.2,2.1-0.7c0.5-0.4,0.8-1.1,0.8-1.7c0-0.7-0.2-1.3-0.8-1.7c-0.6-0.4-1.4-0.7-2.1-0.6h-3.7
	V80.9z"/>
<path class="st0" d="M33.8,89.4V72.8h12.5v3.2h-8.9v3.4h7.8v3.2h-7.8v3.4h9v3.3H33.8z"/>
<path class="st0" d="M48.4,89.4l7.1-16.8H59l7.1,16.8h-3.8l-1.5-3.7h-7l-1.5,3.7H48.4z M55,82.5h4.4l-2.2-5.4L55,82.5z"/>
<path class="st0" d="M75.6,89.7c-2.3,0-4.5-0.8-6.1-2.5c-3.3-3.6-3.1-9.1,0.5-12.4c2.5-2.3,6.2-3,9.4-1.6c1,0.5,2,1.2,2.8,2L80,77.8
	c-0.6-0.6-1.3-1-2-1.4c-0.7-0.3-1.5-0.5-2.3-0.4c-1.3,0-2.6,0.5-3.5,1.5c-1.8,2.1-1.8,5.3,0,7.4c0.9,1,2.2,1.6,3.5,1.5
	c0.8,0,1.6-0.1,2.3-0.5c0.8-0.4,1.5-0.9,2.1-1.5l2.3,2.5c-0.8,0.9-1.8,1.6-2.9,2.1C78.2,89.6,76.9,89.8,75.6,89.7z"/>
<path class="st0" d="M89.9,89.4V76.2h-5.1v-3.4h13.8v3.4h-5.1v13.2H89.9z"/>
<path class="st1" d="M113.3,96.7H8l-2.4,19.7L3.1,96.7H0l3.2,26.1h4.7l2.9-23.2h102.5V96.7z"/>
<path class="st2" d="M69.9,22.9c4.4,7.6,7,15.2,7.7,21.3c0.4,3,0.3,5.6-0.3,7.6c-0.5,2-1.4,3.2-2.6,3.9S71.9,56.5,70,56
	c-2-0.5-4.3-1.8-6.7-3.6c-4.8-3.7-10.1-9.8-14.4-17.5s-7-15.2-7.7-21.3c-0.4-3-0.3-5.6,0.3-7.6c0.5-2,1.4-3.2,2.6-3.9
	c1.2-0.7,2.7-0.8,4.7-0.3c2,0.5,4.3,1.8,6.7,3.6C60.3,9.2,65.5,15.3,69.9,22.9z"/>
<path class="st2" d="M59.4,41c-8.8,0-16.7-1.5-22.3-3.9c-2.8-1.2-5-2.6-6.5-4c-1.5-1.4-2.1-2.9-2.1-4.2c0-1.4,0.6-2.8,2.1-4.2
	c1.5-1.4,3.6-2.8,6.5-4c5.6-2.4,13.5-3.9,22.3-3.9c8.8,0,16.7,1.5,22.3,3.9c2.8,1.2,5,2.6,6.5,4c1.5,1.4,2.1,2.9,2.1,4.2
	c0,1.4-0.6,2.8-2.1,4.2c-1.5,1.4-3.6,2.8-6.5,4C76,39.5,68.2,41,59.4,41z"/>
<path class="st2" d="M69.9,34.9c-4.4,7.6-9.6,13.7-14.4,17.5c-2.4,1.9-4.7,3.1-6.7,3.6c-2,0.5-3.5,0.4-4.7-0.3
	c-1.2-0.7-2.1-1.9-2.6-3.9c-0.5-2-0.6-4.6-0.3-7.6c0.7-6.1,3.3-13.7,7.7-21.3c4.4-7.6,9.6-13.7,14.4-17.5C65.7,3.6,68,2.4,70,1.8
	c2-0.5,3.5-0.4,4.7,0.3C75.8,2.8,76.8,4,77.3,6c0.5,2,0.6,4.6,0.3,7.6C76.8,19.7,74.2,27.3,69.9,34.9z"/>
<path class="st1" d="M56.4,25.9c-1.6,2.5-1.9,6.1,1.8,8.5c-6,0-6-4.6-4.7-6.9c1.1-2,1.8-3.7,1.8-4.4c0-0.1,0-0.1,0-0.1
	c0,0,0,0,0.1,0.1c0.2,0.4,0.9,1.9,1,2.5V25.9z M62,25.1c-1,0.9-4.8,4.3-2.8,9.1c-3.7-2.5-4.5-5.3-1-9.7c0.1-0.1,0.2-0.3,0.4-0.5
	c0.7-0.9,2.1-2.7,2.4-4h0.1c0.2,0.4,1.1,3,1.1,4.6c0,0.1,0,0.1-0.1,0.3C62.1,25,62.1,25,62,25.1z M64.4,28.1c-1.4,0.8-3.7,2-4.5,5.9
	c-1.8-4.2,1-7,2.2-8.1c0.1-0.1,0.2-0.2,0.3-0.3c0.7-0.5,1.6-1.9,2.2-3.2h0.1c0.2,0.4,1.3,3.3,0.7,4.9C65.5,27.5,65,27.8,64.4,28.1z
	 M67.9,25.6c0,2.5-0.5,9.1-7.2,8.9c0.1-2.1,1.5-4.4,3.5-5.4c2.4-1.1,3.3-2.9,3.5-3.4l0,0C67.8,25.5,67.9,25.5,67.9,25.6z M56.9,35.3
	h5.2V37h-5.2V35.3z M58.3,41.1h2.4l0.4-3.2h-3L58.3,41.1z"/>
<path class="st0" d="M108.6,76.2c-1.2,0-2.2-0.3-2.9-1s-1-1.6-1-2.9v-4.7h2.4v4.7c0,0.6,0.1,1,0.4,1.3c0.3,0.3,0.7,0.4,1.1,0.4
	c0.5,0,0.9-0.1,1.1-0.4c0.3-0.3,0.4-0.7,0.4-1.3v-4.7h2.4v4.7c0,1.3-0.3,2.3-1,2.9C110.8,75.9,109.8,76.2,108.6,76.2z M117.2,76.2
	c-1.6,0-2.9-0.5-3.9-1.4l1.3-1.5c0.8,0.7,1.7,1,2.7,1c0.6,0,1-0.2,1-0.6c0-0.2-0.1-0.3-0.3-0.4c-0.2-0.1-0.6-0.2-1.1-0.4
	c-0.5-0.1-0.9-0.2-1.3-0.3c-0.3-0.1-0.7-0.3-1-0.5c-0.3-0.2-0.5-0.5-0.7-0.8s-0.2-0.7-0.2-1.1c0-0.8,0.3-1.4,0.9-1.9
	c0.6-0.5,1.4-0.8,2.4-0.8c1.4,0,2.5,0.4,3.5,1.1l-1.2,1.6c-0.8-0.6-1.6-0.8-2.4-0.8c-0.3,0-0.5,0.1-0.6,0.2
	c-0.1,0.1-0.2,0.2-0.2,0.4c0,0.2,0.1,0.3,0.3,0.5c0.2,0.1,0.6,0.2,1.2,0.4c1.1,0.2,1.8,0.5,2.4,0.9c0.5,0.4,0.8,1,0.8,1.7
	c0,0.8-0.3,1.5-0.9,2C119,76,118.2,76.2,117.2,76.2z"/>
</svg>
