<?xml version="1.0" encoding="utf-8"?>
<!-- Generator: Adobe Illustrator 23.0.5, SVG Export Plug-In . SVG Version: 6.00 Build 0)  -->
<svg version="1.1" id="Layer_1" xmlns="http://www.w3.org/2000/svg" xmlns:xlink="http://www.w3.org/1999/xlink" x="0px" y="0px"
	 width="28.3px" height="26.8px" viewBox="0 0 28.3 26.8" style="enable-background:new 0 0 28.3 26.8;" xml:space="preserve">
<style type="text/css">
	.st0{fill:#2C302D;}
</style>
<g>
	<path class="st0" d="M26.8,9.2h-8.7l-2.6-8.1c-0.1-0.5-0.5-0.9-0.9-1c-0.7-0.3-1.5,0.2-1.8,0.9l-2.7,8.2H1.6c-0.5,0-1,0.2-1.3,0.6
		c-0.5,0.6-0.3,1.5,0.3,2l0,0l7,5l-2.7,8.1c-0.2,0.4-0.1,0.9,0.2,1.3c0.5,0.7,1.3,0.8,2,0.3l7-5.1l6.9,5c0.4,0.3,0.9,0.5,1.4,0.3
		c0.7-0.2,1.2-1,0.9-1.8l-2.7-8.2l7-5c0.4-0.3,0.7-0.7,0.7-1.2C28.2,9.8,27.5,9.2,26.8,9.2z M18.1,15.1c-0.5,0.4-0.7,1.1-0.5,1.7
		l1.6,4.9l-4.3-3.1c-0.5-0.4-1.3-0.3-1.8,0.1l-4.2,3l1.7-5c0.2-0.6-0.1-1.3-0.6-1.6l-4.2-3h5.3c0.7,0,1.2-0.5,1.4-1.1l1.6-4.9l1.6,5
		c0.2,0.7,0.9,1.1,1.5,1h5.1L18.1,15.1z"/>
</g>
</svg>
