<?xml version="1.0" encoding="utf-8"?>
<!-- Generator: Adobe Illustrator 23.0.5, SVG Export Plug-In . SVG Version: 6.00 Build 0)  -->
<svg version="1.1" id="Layer_1" xmlns="http://www.w3.org/2000/svg" xmlns:xlink="http://www.w3.org/1999/xlink" x="0px" y="0px"
	 width="70.4px" height="90.2px" viewBox="0 0 70.4 90.2" style="enable-background:new 0 0 70.4 90.2;" xml:space="preserve">
<style type="text/css">
	.st0{fill-rule:evenodd;clip-rule:evenodd;}
</style>
<g>
	<path class="st0" d="M35.6,66.3c-3.5,0-6.3-2.8-6.3-6.3c0-0.1,0-0.1,0-0.2h-6.4c0,0.1,0,0.1,0,0.2c0,7,5.7,12.6,12.6,12.6
		S48.2,67,48.2,60c0-0.1,0-0.1,0-0.2h-6.4c0,0.1,0,0.1,0,0.2C41.8,63.5,39,66.3,35.6,66.3L35.6,66.3z"/>
	<rect x="38.2" y="32.5" class="st0" width="17.6" height="6.1"/>
	<path class="st0" d="M8,19.7c17.6-5.6,24.2-9,27.2-10.7c3,1.7,9.7,5.2,27.2,10.7c0,2,1.1,62.5-27.2,62.5C6.9,82.2,8,21.7,8,19.7
		L8,19.7z M35.2,90.2c36.6,0.1,35.2-73.8,35.2-76.3C47.7,6.6,39.1,2.2,35.2,0C31.3,2.2,22.7,6.6,0,13.9C0,16.4-1.4,90.3,35.2,90.2
		L35.2,90.2z"/>
	<path class="st0" d="M23.3,26.7c-5.1,0-9.1,4.1-9.1,9.1s4.1,9.1,9.1,9.1c5,0,9.1-4.1,9.1-9.1S28.4,26.7,23.3,26.7L23.3,26.7z
		 M20.4,35.8c0-1.6,1.3-2.9,2.9-2.9c1.6,0,2.9,1.3,2.9,2.9s-1.3,2.9-2.9,2.9C21.7,38.6,20.4,37.4,20.4,35.8L20.4,35.8z"/>
</g>
</svg>
