<svg width="24" height="24" viewBox="0 0 24 24" fill="none" xmlns="http://www.w3.org/2000/svg">
<path d="M11.9998 8.67143C10.1569 8.67143 8.67119 10.1714 8.67119 12C8.67119 13.8286 10.1712 15.3286 11.9998 15.3286C13.8283 15.3286 15.3283 13.8286 15.3283 12C15.3283 10.1714 13.8283 8.67143 11.9998 8.67143ZM21.9998 12C21.9998 10.6143 21.9998 9.25714 21.9283 7.87143C21.8569 6.27143 21.4855 4.84286 20.314 3.68571C19.1426 2.51429 17.7283 2.14286 16.1283 2.07143C14.7426 2 13.3855 2 11.9998 2C10.614 2 9.2569 2 7.87119 2.07143C6.27119 2.14286 4.84261 2.51429 3.68547 3.68571C2.51404 4.85714 2.14261 6.27143 2.07118 7.87143C1.99976 9.25714 1.99976 10.6143 1.99976 12C1.99976 13.3857 1.99976 14.7429 2.07118 16.1286C2.14261 17.7286 2.51404 19.1571 3.68547 20.3143C4.8569 21.4857 6.27119 21.8571 7.87119 21.9286C9.2569 22 10.614 22 11.9998 22C13.3855 22 14.7426 22 16.1283 21.9286C17.7283 21.8571 19.1569 21.4857 20.314 20.3143C21.4855 19.1429 21.8569 17.7286 21.9283 16.1286C22.014 14.7571 21.9998 13.3857 21.9998 12ZM11.9998 17.1286C9.1569 17.1286 6.87118 14.8429 6.87118 12C6.87118 9.15714 9.1569 6.87143 11.9998 6.87143C14.8426 6.87143 17.1283 9.15714 17.1283 12C17.1283 14.8429 14.8426 17.1286 11.9998 17.1286ZM17.3426 7.85714C16.6855 7.85714 16.1426 7.32857 16.1426 6.65714C16.1426 5.98571 16.6712 5.45714 17.3426 5.45714C18.014 5.45714 18.5426 5.98571 18.5426 6.65714C18.5462 6.81362 18.5177 6.96918 18.4587 7.11416C18.3997 7.25915 18.3116 7.39048 18.1998 7.5C18.0902 7.61182 17.9589 7.69995 17.8139 7.75893C17.6689 7.81791 17.5134 7.84647 17.3569 7.84286L17.3426 7.85714Z" />
</svg>
