<svg width="24" height="24" viewBox="0 0 24 24" fill="none" xmlns="http://www.w3.org/2000/svg">
<g id="Icon_Youtube">
<path id="Vector" d="M22.3357 6.34184C22.2105 5.88881 21.9653 5.47575 21.6248 5.14401C21.2842 4.81226 20.8601 4.57347 20.3951 4.45153C18.6823 4 11.7998 4 11.7998 4C11.7998 4 4.91732 4 3.20455 4.45153C2.73947 4.57347 2.31542 4.81226 1.97485 5.14401C1.63427 5.47575 1.38913 5.88881 1.26394 6.34184C0.944131 8.04332 0.788935 9.77027 0.800396 11.5C0.788935 13.2297 0.944131 14.9567 1.26394 16.6582C1.38913 17.1112 1.63427 17.5243 1.97485 17.856C2.31542 18.1877 2.73947 18.4265 3.20455 18.5485C4.91732 19 11.7998 19 11.7998 19C11.7998 19 18.6823 19 20.3951 18.5485C20.8601 18.4265 21.2842 18.1877 21.6248 17.856C21.9653 17.5243 22.2105 17.1112 22.3357 16.6582C22.6555 14.9567 22.8107 13.2297 22.7992 11.5C22.8107 9.77027 22.6555 8.04332 22.3357 6.34184ZM9.59992 14.7143V8.28572L15.3118 11.5L9.59992 14.7143Z" fill="black"/>
</g>
</svg>
