<?xml version="1.0" encoding="utf-8"?>
<!-- Generator: Adobe Illustrator 23.0.5, SVG Export Plug-In . SVG Version: 6.00 Build 0)  -->
<svg version="1.1" id="Layer_1" xmlns="http://www.w3.org/2000/svg" xmlns:xlink="http://www.w3.org/1999/xlink" x="0px" y="0px"
	 viewBox="0 0 368 67" style="enable-background:new 0 0 368 67;" xml:space="preserve">
<style type="text/css">
	.st0{fill:none;}
	.st1{fill:#010100;}
</style>
<g>
	<path class="st0" d="M46,22h17V4H46L46,22L46,22z M50,9h9v8h-9V9L50,9z"/>
	<path class="st0" d="M21,4H4v18h17V4L21,4z M17,17H8V9h9V17L17,17z"/>
	<path class="st0" d="M4,63h17V46H4V63L4,63z M8,50h9v8H8V50L8,50z"/>
	<polygon class="st1" points="132,67 139,67 139,0 132,0 132,67 	"/>
	<polygon class="st1" points="202,67 209,67 209,0 202,0 202,67 	"/>
	<polygon class="st1" points="291,67 298,67 298,0 291,0 291,67 	"/>
	<polygon class="st1" points="361,0 361,67 368,67 368,0 361,0 	"/>
	<polygon class="st1" points="124,67 128,67 128,0 124,0 124,67 	"/>
	<polygon class="st1" points="147,67 151,67 151,0 147,0 147,67 	"/>
	<polygon class="st1" points="155,67 159,67 159,0 155,0 155,67 	"/>
	<polygon class="st1" points="163,67 167,67 167,0 163,0 163,67 	"/>
	<polygon class="st1" points="194,67 198,67 198,0 194,0 194,67 	"/>
	<polygon class="st1" points="217,67 221,67 221,0 217,0 217,67 	"/>
	<polygon class="st1" points="225,67 229,67 229,0 225,0 225,67 	"/>
	<polygon class="st1" points="252,67 256,67 256,0 252,0 252,67 	"/>
	<polygon class="st1" points="283,67 287,67 287,0 283,0 283,67 	"/>
	<polygon class="st1" points="306,67 310,67 310,0 306,0 306,67 	"/>
	<polygon class="st1" points="314,67 318,67 318,0 314,0 314,67 	"/>
	<polygon class="st1" points="322,67 326,67 326,0 322,0 322,67 	"/>
	<polygon class="st1" points="353,67 357,67 357,0 353,0 353,67 	"/>
	<path class="st1" d="M25,26V0H0v26H25L25,26z M4,4h17v18H4V4L4,4z"/>
	<polygon class="st1" points="38,17 34,17 34,26 38,26 38,17 	"/>
	<polygon class="st1" points="38,9 38,0 34,0 34,4 30,4 30,17 34,17 34,9 38,9 	"/>
	<polygon class="st1" points="30,38 42,38 42,34 59,34 59,30 38,30 38,34 34,34 34,26 30,26 30,30 25,30 25,34 30,34 30,38 	"/>
	<polygon class="st1" points="13,30 4,30 4,34 8,34 8,38 25,38 25,34 13,34 13,30 	"/>
	<path class="st1" d="M46,0h-4v26h25V0H46L46,0z M63,22H46l0-18h17V22L63,22z"/>
	<polygon class="st1" points="0,38 4,38 4,34 0,34 0,38 	"/>
	<path class="st1" d="M0,42v25h25V42H0L0,42z M21,63H4V46h17V63L21,63z"/>
	<polygon class="st1" points="30,42 30,46 38,46 38,42 30,42 	"/>
	<polygon class="st1" points="42,50 42,46 38,46 38,50 42,50 	"/>
	<polygon class="st1" points="34,50 30,50 30,67 51,67 51,63 34,63 34,50 	"/>
	<polygon class="st1" points="63,63 55,63 55,67 67,67 67,58 63,58 63,63 	"/>
	<polygon class="st1" points="63,38 67,38 67,30 63,30 63,38 	"/>
	<polygon class="st1" points="59,43 59,47 67,47 67,43 63,43 63,38 59,38 59,43 	"/>
	<polygon class="st1" points="55,42 55,38 46,38 46,47 50,47 50,42 55,42 	"/>
	<polygon class="st1" points="50,47 50,51 55,51 55,47 50,47 	"/>
	<polygon class="st1" points="46,55 38,55 38,59 50,59 50,51 46,51 46,55 	"/>
	<polygon class="st1" points="59,9 50,9 50,17 59,17 59,9 	"/>
	<polygon class="st1" points="8,17 17,17 17,9 8,9 8,17 	"/>
	<polygon class="st1" points="17,50 8,50 8,58 17,58 17,50 	"/>
	<polygon class="st1" points="56,51 55,51 55,59 59,59 59,55 67,55 67,51 56,51 	"/>
	<polygon class="st1" points="101,67 112,67 112,0 101,0 101,67 	"/>
	<polygon class="st1" points="171,67 182,67 182,0 171,0 171,67 	"/>
	<polygon class="st1" points="260,67 271,67 271,0 260,0 260,67 	"/>
	<polygon class="st1" points="330,67 341,67 341,0 330,0 330,67 	"/>
</g>
</svg>
