<svg xmlns="http://www.w3.org/2000/svg" width="41" height="52" viewBox="0 0 41 52">
  <defs>
    <style>
      .cls-1 {
        fill: #FFFFFF;
        fill-rule: evenodd;
      }
    </style>
  </defs>
  <path class="cls-1" d="M1512.45,1480.68a30.66,30.66,0,0,0,4.72,10.03c4.77,6.11,12.68,6.11,17.45,0a30.459,30.459,0,0,0,4.72-10.03,41.824,41.824,0,0,0-26.89,0h0Zm30.91-.65a7.548,7.548,0,0,1-1.92,14.85,7.461,7.461,0,0,1-4.33-1.38c-6.33,7.6-16.82,7.21-22.85-.52-3.33-4.26-4.9-9.4-6.26-14.54,12.23-4.92,23.56-4.92,35.79,0l-0.41,1.57Zm-4.12,10.43a3.83,3.83,0,1,0,3.07-6.86,36.334,36.334,0,0,1-3.07,6.86h0Zm-10.89-43.47c-0.04,1-1.01,1.75-1.97,2.52-1.7,1.32-3.38,2.65-3.38,5.41s1.68,4.09,3.38,5.41c0.98,0.78,1.97,1.56,1.97,2.59s-0.99,1.82-1.97,2.6c-1.7,1.32-3.38,2.65-3.38,5.41v0.06h3.66v-0.06c0-1.03.99-1.8,1.98-2.6,1.69-1.31,3.37-2.64,3.37-5.41s-1.68-4.09-3.37-5.4c-0.99-.8-1.98-1.58-1.98-2.6s0.99-1.82,1.98-2.6c1.67-1.31,3.34-2.63,3.37-5.33h-3.66Z" transform="translate(-1508 -1447)"/>
</svg>
