<svg width="166" height="48" viewBox="0 0 166 48" fill="none" xmlns="http://www.w3.org/2000/svg">
<path d="M69.6913 40.6249L67.6179 24.2734H65.0469L67.7006 45.9385H71.5995L74.0054 26.6792H159.026V24.2734H71.6821L69.6913 40.6249Z" fill="white"/>
<path d="M81.8666 13.7908H84.2229L87.2338 18.2267H90.7982L87.4114 13.2746C89.3919 12.5353 90.3832 11.1021 90.3832 8.97706C90.3832 7.6306 89.9867 6.56087 89.1957 5.76787C88.2581 4.83031 86.9117 4.36153 85.1543 4.36153H78.8164V18.2267H81.8666V13.7908ZM81.8666 7.11639H84.8961C85.6478 7.11639 86.2364 7.2878 86.6597 7.6306C87.0831 7.96102 87.2937 8.44839 87.2937 9.09684C87.2937 9.70398 87.0893 10.1934 86.6804 10.5631C86.2715 10.9203 85.6974 11.0979 84.9581 11.0979H81.8687V7.11639H81.8666Z" fill="white"/>
<path d="M103.785 15.5153H96.258V12.6035H102.794V9.88994H96.258V7.07725H103.686V4.36369H93.2285V18.2289H103.785V15.5153Z" fill="white"/>
<path d="M109.783 15.119H115.646L116.914 18.2291H120.103L114.161 4.26474H111.349L105.407 18.2291H108.517L109.785 15.119H109.783ZM112.714 7.92826L114.556 12.424H110.872L112.714 7.92826Z" fill="white"/>
<path d="M127.949 18.466C129.23 18.466 130.305 18.2739 131.177 17.8919C132.061 17.5099 132.881 16.9151 133.632 16.1097L131.691 14.0301C131.084 14.5856 130.51 14.9945 129.969 15.2589C129.428 15.5232 128.788 15.6554 128.048 15.6554C126.886 15.6554 125.923 15.232 125.157 14.3874C124.405 13.5428 124.028 12.5123 124.028 11.298C124.028 10.0837 124.403 9.04081 125.157 8.20857C125.923 7.36394 126.888 6.94059 128.048 6.94059C128.788 6.94059 129.415 7.06656 129.93 7.31644C130.458 7.55393 131.018 7.94424 131.613 8.4853L133.434 6.38508C132.695 5.65815 131.916 5.1047 131.096 4.72059C130.279 4.32409 129.267 4.12584 128.067 4.12584C125.967 4.12584 124.238 4.81972 122.877 6.20541C121.516 7.5911 120.837 9.28863 120.837 11.2959C120.837 13.3032 121.51 15.0193 122.857 16.405C124.218 17.7783 125.913 18.4639 127.947 18.4639L127.949 18.466Z" fill="white"/>
<path d="M139.404 18.2289H142.454V7.17638H146.673V4.36369H135.185V7.17638H139.404V18.2289Z" fill="white"/>
<path d="M155.148 7.25486C156.183 7.25486 156.986 6.98846 157.558 6.45359C158.139 5.91253 158.428 5.09681 158.428 4.0023V0.121948H156.458V4.06425C156.458 4.54542 156.34 4.90476 156.107 5.14431C155.88 5.38386 155.566 5.50364 155.167 5.50364C154.769 5.50364 154.45 5.37973 154.217 5.13398C153.99 4.87997 153.876 4.50619 153.876 4.01263V0.121948H151.906V4.05393C151.906 5.12159 152.189 5.92079 152.757 6.45566C153.323 6.98846 154.12 7.25692 155.148 7.25692V7.25486Z" fill="white"/>
<path d="M164.558 3.54373C164.131 3.21744 163.478 2.95723 162.598 2.76311C162.117 2.65573 161.795 2.5566 161.628 2.46367C161.467 2.37074 161.388 2.2427 161.388 2.08369C161.388 1.94326 161.448 1.82968 161.568 1.74295C161.688 1.65621 161.861 1.61284 162.088 1.61284C162.743 1.61284 163.395 1.84207 164.048 2.30259L165.019 0.931356C164.244 0.311821 163.284 -1.14441e-05 162.138 -1.14441e-05C161.312 -1.14441e-05 160.651 0.21063 160.157 0.629849C159.67 1.04287 159.426 1.5798 159.426 2.24064C159.426 2.59377 159.49 2.89735 159.616 3.15136C159.742 3.40536 159.936 3.61394 160.197 3.78121C160.463 3.94229 160.733 4.07033 161.006 4.17152C161.287 4.26445 161.64 4.36151 162.068 4.46064C162.534 4.56802 162.848 4.67128 163.007 4.77041C163.168 4.86334 163.247 4.98311 163.247 5.12974C163.247 5.46222 162.98 5.62949 162.445 5.62949C161.632 5.62949 160.874 5.34864 160.174 4.78899L159.094 6.07969C159.961 6.85411 161.054 7.24028 162.375 7.24028C163.236 7.24028 163.922 7.03584 164.436 6.62901C164.95 6.22218 165.207 5.6646 165.207 4.95833C165.207 4.33054 164.99 3.85762 164.556 3.53753L164.558 3.54373Z" fill="white"/>
<path d="M85.4279 37.139C84.1991 36.823 83.3937 36.5504 83.0117 36.3274C82.6297 36.1044 82.4376 35.7657 82.4376 35.3175C82.4376 34.9479 82.5904 34.6505 82.894 34.4254C83.2099 34.1879 83.6539 34.0682 84.2219 34.0682C85.3184 34.0682 86.5203 34.5245 87.8276 35.4353L89.4115 33.1368C87.9453 31.9617 86.2292 31.3732 84.2611 31.3732C82.8341 31.3732 81.6673 31.7552 80.7545 32.5214C79.8562 33.2875 79.4081 34.2974 79.4081 35.5509C79.4081 36.2241 79.5072 36.8044 79.7054 37.2939C79.9161 37.7688 80.2403 38.1653 80.676 38.4813C81.1242 38.7973 81.593 39.0554 82.0824 39.2537C82.5718 39.4395 83.212 39.6295 84.003 39.8278C85.1264 40.1189 85.8719 40.3895 86.2415 40.6393C86.6112 40.8768 86.7971 41.1949 86.7971 41.5893C86.7971 42.0127 86.6195 42.341 86.2622 42.5806C85.9049 42.818 85.4176 42.9378 84.796 42.9378C83.3958 42.9378 82.0163 42.3761 80.6554 41.2548L78.8525 43.4128C80.5026 44.8914 82.4644 45.6307 84.7361 45.6307C86.2684 45.6307 87.4951 45.2549 88.4203 44.5032C89.3578 43.737 89.8266 42.6797 89.8266 41.3332C89.8266 40.1706 89.4693 39.2805 88.7569 38.6589C88.0444 38.0373 86.9354 37.5293 85.43 37.1328L85.4279 37.139Z" fill="white"/>
<path d="M101.286 39.5161C101.286 40.5982 101.021 41.4243 100.493 41.9922C99.9785 42.5601 99.2454 42.843 98.2934 42.843C97.3414 42.843 96.6041 42.5518 96.0755 41.9715C95.5613 41.3768 95.3031 40.526 95.3031 39.417V31.5737H92.2529V39.4955C92.2529 41.5028 92.7816 43.0351 93.8369 44.0904C94.8942 45.1332 96.3646 45.6557 98.2542 45.6557C100.144 45.6557 101.641 45.127 102.711 44.0718C103.793 43.0144 104.334 41.4573 104.334 39.3963V31.5737H101.284V39.5161H101.286Z" fill="white"/>
<path d="M114.375 37.4366L110.732 31.5737H107.442V45.4389H110.435V36.4453L114.297 42.3082H114.375L118.278 36.3854V45.4389H121.308V31.5737H118.02L114.375 37.4366Z" fill="white"/>
<path d="M131.57 37.4366L127.925 31.5737H124.638V45.4389H127.628V36.4453L131.492 42.3082H131.57L135.473 36.3854V45.4389H138.503V31.5737H135.215L131.57 37.4366Z" fill="white"/>
<path d="M145.023 31.5737H141.973V45.4389H145.023V31.5737Z" fill="white"/>
<path d="M147.497 34.3864H151.716V45.4389H154.766V34.3864H158.985V31.5737H147.497V34.3864Z" fill="white"/>
<path d="M45.8622 16.0502C44.8483 15.6165 43.7372 15.2262 42.5684 14.8668C42.8389 13.6918 43.0619 12.5457 43.2044 11.4635V11.4449L43.2085 11.4264C43.4646 8.85529 43.3903 6.5403 42.9277 4.69202C42.4403 2.74049 41.4284 1.46837 40.2327 0.706347L40.1914 0.681565C38.8078 -0.125895 37.1908 -0.156872 35.3632 0.299519L35.3342 0.305714L35.3074 0.313975C33.4736 0.86536 31.4374 1.94129 29.3598 3.49838L29.3351 3.51903C28.5235 4.16335 27.6995 4.9006 26.8734 5.68741C26.0474 4.9006 25.2234 4.16128 24.4097 3.51903L24.385 3.49838C22.3446 1.96813 20.2795 0.77243 18.3837 0.297454C16.5561 -0.158937 14.9412 -0.12796 13.5555 0.6795C12.2152 1.46218 11.3045 2.7694 10.8254 4.66311C10.2678 6.54443 10.1996 8.88007 10.5424 11.4553C10.6684 12.5477 10.8853 13.698 11.1537 14.8772C9.99932 15.2324 8.89655 15.6185 7.89496 16.0481C5.37345 17.093 3.50245 18.33 2.1374 19.6063C0.695946 20.9527 0 22.4272 0 24.0029C0 25.4836 0.685621 27.0428 2.1374 28.3995C3.51277 29.684 5.47051 30.9169 7.88877 31.9536C8.89035 32.3832 9.99106 32.7693 11.1455 33.1245C10.8811 34.3099 10.6684 35.4664 10.5445 36.5609V36.5774C10.2884 39.1485 10.3628 41.4635 10.8233 43.3117C11.3003 45.2199 12.2131 46.5354 13.5596 47.3222C14.9432 48.1297 16.5602 48.1606 18.3878 47.7042C20.2671 47.2334 22.3343 46.1348 24.4159 44.4847C25.2193 43.8487 26.035 43.1176 26.8548 42.3391C27.6953 43.1259 28.5338 43.8611 29.3557 44.4951L29.3681 44.5033C31.4064 46.0315 33.4674 47.2251 35.3632 47.7022C37.1206 48.1627 38.8181 48.1276 40.1976 47.3222C41.5379 46.5395 42.4486 45.2323 42.9277 43.3386C43.4853 41.4573 43.5534 39.1216 43.2106 36.5464C43.0846 35.454 42.8719 34.2975 42.6076 33.1121C43.7517 32.759 44.8483 32.379 45.856 31.9536C48.3796 30.9087 50.2506 29.6696 51.6177 28.3954C53.0592 27.049 53.7551 25.5745 53.7551 23.9988C53.7551 22.5181 53.0695 20.9589 51.6177 19.6022C50.2424 18.3177 48.2846 17.0848 45.8664 16.0481L45.8622 16.0502ZM30.8694 5.48089C32.759 4.06422 34.5206 3.15557 35.9971 2.70744C37.4551 2.34811 38.3163 2.47615 38.9193 2.81896C39.5409 3.22166 40.179 3.94238 40.5156 5.29503C40.8832 6.76333 40.9741 8.75823 40.7345 11.1579C40.6065 12.1223 40.4062 13.1507 40.1666 14.206C38.0127 13.6835 35.6688 13.2912 33.1906 13.0392C31.7079 10.972 30.1714 9.09898 28.6267 7.45308C29.3826 6.73648 30.1322 6.06326 30.8674 5.48089H30.8694ZM34.5041 28.3644C33.6429 29.8534 32.7446 31.2639 31.8256 32.5959C30.2313 32.728 28.5792 32.8003 26.8755 32.8003C25.1718 32.8003 23.4763 32.726 21.8593 32.5917C20.9569 31.2659 20.0812 29.8616 19.2531 28.3748C18.4188 26.8817 17.6692 25.4031 16.9918 23.9492C17.663 22.5264 18.4085 21.087 19.2449 19.6435C20.106 18.1524 21.0064 16.7399 21.9275 15.4058C23.5238 15.2757 25.1759 15.2014 26.8776 15.2014C28.5792 15.2014 30.2313 15.2757 31.8277 15.4058C32.7487 16.7399 33.6491 18.1524 34.5103 19.6435C35.3466 21.089 36.0942 22.5305 36.7654 23.9554C36.0921 25.4113 35.3425 26.8858 34.5061 28.3624L34.5041 28.3644ZM38.0726 26.9622C38.6777 28.4739 39.1816 29.9463 39.5925 31.3651C38.1676 31.712 36.6518 32.0032 35.0554 32.2303C35.6027 31.3795 36.1396 30.508 36.6621 29.6056L36.6662 29.5994V29.5932C37.166 28.7155 37.6307 27.8358 38.0747 26.9581L38.0726 26.9622ZM26.8383 38.8201C25.8058 37.7297 24.7732 36.5237 23.7572 35.2082C24.7815 35.2578 25.8182 35.2908 26.8734 35.2908C27.9287 35.2908 28.9096 35.2619 29.903 35.2144C28.889 36.5216 27.8626 37.7256 26.8363 38.8201H26.8383ZM18.6481 32.2262C17.0662 32.0011 15.5648 31.7141 14.1564 31.3733C14.5674 29.9463 15.0754 28.4698 15.6805 26.9519C16.1224 27.8275 16.5871 28.7072 17.0786 29.5891C17.5845 30.4977 18.1111 31.3712 18.6481 32.2262ZM15.6929 20.9527C15.096 19.4638 14.5901 18.0182 14.1791 16.6222C15.5958 16.2794 17.1075 15.9923 18.6976 15.7672C18.1504 16.6201 17.6114 17.4916 17.0889 18.3961C16.5953 19.249 16.1327 20.1019 15.6929 20.9527ZM26.8755 9.22082C27.8895 10.305 28.9034 11.4966 29.905 12.7893C28.9096 12.7418 27.8998 12.7129 26.8755 12.7129C25.8512 12.7129 24.8414 12.7418 23.846 12.7893C24.8475 11.4966 25.8615 10.305 26.8755 9.22082ZM36.6621 18.3961C36.1396 17.4937 35.6006 16.6201 35.0534 15.7672C36.6332 15.9903 38.1345 16.2753 39.543 16.6139C39.1341 18.01 38.6384 19.4555 38.0519 20.9383C37.6141 20.0916 37.1515 19.2428 36.6621 18.3941V18.3961ZM13.0144 11.16V11.1476L13.0123 11.1372C12.6943 8.74791 12.7914 6.78192 13.2188 5.35079L13.2271 5.32395L13.2333 5.29503C13.5864 3.88249 14.1667 3.2072 14.809 2.83135C15.4161 2.47615 16.2876 2.34192 17.7786 2.7157C19.1953 3.0709 20.9424 4.03118 22.8774 5.48296C23.6126 6.06532 24.3622 6.73855 25.1181 7.45514C23.5734 9.10104 22.039 10.9741 20.5542 13.0413C18.0657 13.2953 15.7135 13.6897 13.5513 14.2163C13.3138 13.159 13.1218 12.1306 13.0103 11.162L13.0144 11.16ZM8.86763 29.6655C6.64143 28.7093 4.94803 27.6189 3.83493 26.5802C2.79824 25.6116 2.48847 24.6823 2.48847 24.005C2.48847 23.2553 2.78791 22.4066 3.83493 21.4298C4.95629 20.3807 6.56709 19.2965 8.85318 18.3507H8.85937L8.86763 18.3445C9.7577 17.9625 10.7448 17.6155 11.7815 17.2934C12.4093 19.4307 13.2416 21.6631 14.2597 23.9492C13.2209 26.2663 12.3845 28.54 11.7588 30.7125C10.7324 30.3924 9.75151 30.0475 8.86763 29.6696V29.6655ZM22.8671 42.5332C20.9672 44.0387 19.218 44.9308 17.7807 45.2901C16.2897 45.6639 15.4182 45.5276 14.8111 45.1745C14.1688 44.7986 13.5864 44.1233 13.2354 42.7108C12.8678 41.2404 12.7769 39.2414 13.0165 36.8376C13.128 35.8732 13.3159 34.8468 13.5472 33.7895C15.6887 34.3099 18.0182 34.7043 20.4819 34.9584C21.9708 37.0544 23.5217 38.9399 25.085 40.5879C24.3375 41.2962 23.5961 41.9591 22.8692 42.5353L22.8671 42.5332ZM40.7345 36.8438V36.8562L40.7366 36.8665C41.0546 39.2559 40.9576 41.2218 40.5301 42.653L40.5218 42.6798L40.5156 42.7087C40.1625 44.1213 39.5822 44.7966 38.9399 45.1724C38.3307 45.5276 37.3787 45.6598 35.9847 45.2922H35.9765L35.9682 45.2881C34.5495 44.9329 32.8003 43.9705 30.8612 42.5167C30.1239 41.9467 29.366 41.2838 28.604 40.5734C30.157 38.9213 31.6996 37.04 33.1906 34.9625C35.6812 34.7064 38.0313 34.3078 40.1997 33.7792C40.433 34.8427 40.6209 35.8753 40.7325 36.8459L40.7345 36.8438ZM49.914 26.5781C48.7926 27.6272 47.1818 28.7114 44.8958 29.6593H44.8896C43.9954 30.0392 43.0124 30.38 41.9881 30.7001C41.3644 28.5296 40.528 26.2601 39.4893 23.9451C40.495 21.6611 41.3148 19.4225 41.9385 17.281C42.9855 17.6073 43.9809 17.9563 44.8813 18.3404C47.1075 19.2965 48.8009 20.3869 49.914 21.4256C50.9507 22.3942 51.2605 23.3235 51.2605 24.0009C51.2605 24.7505 50.961 25.5992 49.914 26.576V26.5781Z" fill="white"/>
<path d="M28.0815 22.5965L26.861 18.8773L25.6406 22.5965H21.692L24.8868 24.895L23.6663 28.6143L26.861 26.3158L30.0558 28.6143L28.8353 24.895L32.03 22.5965H28.0815Z" fill="white"/>
</svg>
