<svg width="190" height="48" viewBox="0 0 190 48" fill="none" xmlns="http://www.w3.org/2000/svg">
<g clip-path="url(#clip0_1463_114)">
<path d="M26.9992 3.00132L25.4287 10.8581L39.0003 0H0V30.0005L26.9992 3.00132Z" fill="#F9FF00"/>
<path d="M67.7143 5.76074H72.248L79.3259 21.4912H75.334L73.954 18.2105H65.8813L64.4801 21.4912H60.6152L67.7143 5.76074ZM72.811 15.5182L69.9409 8.76207H69.8986L69.0562 10.7686L67.0285 15.5182H72.811Z" fill="white"/>
<path d="M80.9893 5.76074H84.5494V21.4912H80.9893V5.76074Z" fill="white"/>
<path d="M91.5264 13.6179C91.5264 8.76245 94.8282 5.56641 100.395 5.56641C105.166 5.56641 108.357 7.85232 108.899 11.6325H105.276C104.759 9.53713 102.99 8.41533 100.399 8.41533C97.2073 8.41533 95.1754 10.2271 95.1754 13.6179C95.1754 17.0087 97.2031 18.8628 100.399 18.8628C103.011 18.8628 104.823 17.6564 105.276 15.6033H108.899C108.425 19.4004 105.145 21.6906 100.395 21.6906C94.8282 21.6906 91.5264 18.4988 91.5264 13.6179Z" fill="white"/>
<path d="M110.474 13.6179C110.474 8.63123 113.797 5.56641 119.342 5.56641C124.888 5.56641 128.168 8.63123 128.168 13.6179C128.168 18.6046 124.845 21.6906 119.342 21.6906C113.839 21.6906 110.474 18.6258 110.474 13.6179ZM124.524 13.6179C124.524 10.316 122.581 8.39417 119.346 8.39417C116.112 8.39417 114.123 10.316 114.123 13.6179C114.123 16.9198 116.066 18.8628 119.346 18.8628C122.627 18.8628 124.524 16.941 124.524 13.6179Z" fill="white"/>
<path d="M130.353 5.76074H137.862C143.302 5.76074 146.104 8.88906 146.104 13.6387C146.104 18.71 142.912 21.4955 137.862 21.4955H130.353V5.76074ZM142.523 13.5752C142.523 10.0151 140.385 8.52501 137.172 8.52501H133.891V18.71H137.172C140.864 18.71 142.523 16.7882 142.523 13.5752Z" fill="white"/>
<path d="M148.31 5.76074H151.87V21.4912H148.31V5.76074Z" fill="white"/>
<path d="M154.55 5.76074H158.889L167.067 16.8982H167.199L167.093 12.0639V5.76074H170.61V21.4912H166.339L158.161 10.4426H158.029L158.135 15.0822V21.4912H154.554V5.76074H154.55Z" fill="white"/>
<path d="M172.596 13.6179C172.596 8.76245 175.94 5.56641 181.443 5.56641C186.104 5.56641 189.19 7.80999 189.643 11.133H186.061C185.608 9.38473 183.797 8.39417 181.443 8.39417C178.056 8.39417 176.177 10.4219 176.177 13.6179C176.177 17.0045 178.205 18.8628 181.358 18.8628C184.339 18.8628 186.061 17.5463 186.324 15.345H181.1V13.0337H189.905V14.2868C189.905 19.1422 186.108 21.6906 181.316 21.6906C175.898 21.6906 172.596 18.4988 172.596 13.6179Z" fill="white"/>
<path d="M60.8525 37.1879H64.565C64.6285 38.9573 65.9874 39.9733 68.5781 39.9733C70.8428 39.9733 72.0959 39.241 72.0959 37.8779C72.0959 36.2396 70.8217 36.0449 68.0193 35.6978C63.6591 35.1813 61.2632 34.2077 61.2632 31.1006C61.2632 27.9934 63.9597 26.3086 68.2987 26.3086C72.4006 26.3086 74.9448 28.0146 75.1818 31.1429H71.5794C71.427 29.4581 70.1571 28.7469 68.1675 28.7469C66.1779 28.7469 64.9291 29.5004 64.9291 30.7111C64.9291 32.1588 65.9874 32.3705 68.9633 32.7176C73.4505 33.2595 75.7618 34.1188 75.7618 37.5942C75.7618 40.6591 73.1499 42.4285 68.4469 42.4285C63.2443 42.4285 60.916 40.2696 60.8525 37.1836V37.1879Z" fill="white"/>
<path d="M77.666 35.5248V26.5039H81.1838V35.5248C81.1838 38.0054 82.2209 39.4955 85.2392 39.4955C87.9145 39.4955 89.32 38.3737 89.32 35.5248V26.5039H92.8377V35.5248C92.8377 39.9485 90.3994 42.4291 85.2434 42.4291C80.6673 42.4291 77.6702 40.4438 77.6702 35.5248H77.666Z" fill="white"/>
<path d="M95.3656 26.5033H100.589L103.934 35.3294L105.14 38.4154H105.182L106.368 35.3294L109.669 26.5033H114.804V42.2337H111.371V35.6935L111.435 30.275H111.35L109.818 34.377L106.626 42.2337H103.54L100.369 34.377L98.8156 30.275H98.7733L98.7944 35.7358V42.2295H95.3613V26.499L95.3656 26.5033Z" fill="white"/>
<path d="M117.488 26.5033H122.711L126.056 35.3294L127.262 38.4154H127.304L128.49 35.3294L131.792 26.5033H136.926V42.2337H133.493V35.6935L133.557 30.275H133.472L131.94 34.377L128.748 42.2337H125.662L122.491 34.377L120.938 30.275H120.895L120.917 35.7358V42.2295H117.483V26.499L117.488 26.5033Z" fill="white"/>
<path d="M139.61 26.5039H143.17V42.2344H139.61V26.5039Z" fill="white"/>
<path d="M150.664 29.3528H144.966V26.5039H159.985V29.3528H154.203V42.2344H150.664V29.3528Z" fill="white"/>
<path d="M9.1052 35.377L8.48292 36.8713L6.98438 40.406H11.2514L9.13483 35.377H9.1052Z" fill="#F9FF00"/>
<path d="M21.0008 26.9991L22.6687 18.6682L0 30.0005V47.9999H48V14.9219L21.0008 26.9949V26.9991ZM13.1144 44.8547L12.0942 42.4121H6.13811L5.10098 44.8547H2.25205L7.49273 33.1457H10.8369L16.0607 44.8547H13.1144ZM19.5827 44.8547H16.9539V33.1457H19.5827V44.8547ZM27.249 42.8947C29.1751 42.8947 30.5127 41.9973 30.8472 40.4691H33.5225C33.1712 43.2969 30.754 44.9986 27.249 44.9986C23.1428 44.9986 20.7045 42.6196 20.7045 38.9917C20.7045 35.3639 23.1428 33.0018 27.249 33.0018C30.7667 33.0018 33.1246 34.7035 33.5225 37.5143H30.8472C30.4662 35.9565 29.1581 35.1226 27.249 35.1226C24.8911 35.1226 23.3968 36.473 23.3968 38.996C23.3968 41.5189 24.8953 42.8989 27.249 42.8989V42.8947ZM39.9908 44.9986C36.1513 44.9986 34.4327 43.3942 34.3861 41.0956H37.125C37.1715 42.4121 38.1748 43.1656 40.0882 43.1656C41.7603 43.1656 42.6831 42.6196 42.6831 41.6078C42.6831 40.3887 41.7434 40.2405 39.6733 39.9865C36.4561 39.6013 34.6909 38.8774 34.6909 36.5661C34.6909 34.2548 36.6805 33.0018 39.8808 33.0018C42.9075 33.0018 44.787 34.2717 44.9606 36.6H42.3021C42.1921 35.347 41.2523 34.8178 39.7876 34.8178C38.323 34.8178 37.4001 35.3808 37.4001 36.2783C37.4001 37.3535 38.179 37.5143 40.376 37.7726C43.6864 38.1747 45.3924 38.8182 45.3924 41.4046C45.3924 43.6863 43.4663 45.0028 39.9951 45.0028L39.9908 44.9986Z" fill="#F9FF00"/>
</g>
<defs>
<clipPath id="clip0_1463_114">
<rect width="189.9" height="48" fill="white"/>
</clipPath>
</defs>
</svg>
