<svg width="2400" height="2400" viewBox="0 0 2400 2400" fill="none" xmlns="http://www.w3.org/2000/svg">
<circle cx="1200" cy="1200" r="499" stroke="white" stroke-opacity="0.1" stroke-width="2"/>
<path d="M1200 941C1337.94 941 1462.78 970.077 1553.09 1017.04C1643.45 1064.03 1699 1128.77 1699 1200C1699 1271.23 1643.45 1335.97 1553.09 1382.96C1462.78 1429.92 1337.94 1459 1200 1459C1062.06 1459 937.221 1429.92 846.908 1382.96C756.546 1335.97 701 1271.23 701 1200C701 1128.77 756.546 1064.03 846.908 1017.04C937.221 970.077 1062.06 941 1200 941Z" stroke="white" stroke-opacity="0.1" stroke-width="2"/>
<path d="M975.699 1070.5C1044.67 951.037 1132.27 857.465 1218.1 802.733C1303.97 747.971 1387.81 732.236 1449.5 767.853C1511.19 803.471 1539.48 883.944 1534.99 985.694C1530.51 1087.39 1493.27 1210.04 1424.3 1329.5C1355.33 1448.96 1267.73 1542.54 1181.9 1597.27C1096.03 1652.03 1012.19 1667.76 950.5 1632.15C888.809 1596.53 860.517 1516.06 865.005 1414.31C869.491 1312.61 906.727 1189.96 975.699 1070.5Z" stroke="white" stroke-opacity="0.1" stroke-width="2"/>
<path d="M1424.3 1070.5C1493.27 1189.96 1530.51 1312.61 1534.99 1414.31C1539.48 1516.06 1511.19 1596.53 1449.5 1632.15C1387.81 1667.76 1303.97 1652.03 1218.1 1597.27C1132.27 1542.54 1044.67 1448.96 975.699 1329.5C906.727 1210.04 869.49 1087.39 865.005 985.694C860.517 883.944 888.808 803.471 950.499 767.853C1012.19 732.236 1096.03 747.971 1181.9 802.733C1267.73 857.465 1355.33 951.037 1424.3 1070.5Z" stroke="white" stroke-opacity="0.1" stroke-width="2"/>
<path d="M0 1200H2400" stroke="white" stroke-opacity="0.1" stroke-width="2"/>
<path d="M1200 2400L1200 0.00483167" stroke="white" stroke-opacity="0.1" stroke-width="2"/>
<path d="M950.575 767.999L1449.5 1632.16" stroke="white" stroke-opacity="0.1" stroke-width="2"/>
<path d="M1449.5 767.994L950.575 1632.16" stroke="white" stroke-opacity="0.1" stroke-width="2"/>
</svg>
