<svg width="1058" height="337" viewBox="0 0 1058 337" fill="none" xmlns="http://www.w3.org/2000/svg">
<path fill-rule="evenodd" clip-rule="evenodd" d="M124.499 19.8301C114.062 17.219 107.954 18.1652 103.704 20.6464C99.201 23.2752 95.1364 28.008 92.6658 37.8978L92.6167 38.0944L92.5585 38.2885C89.5534 48.3127 88.8782 62.0744 91.1071 78.8037L91.1176 78.8827L91.1267 78.962C95.0182 112.898 110.168 155.366 134.798 199.505C159.28 243.377 189.312 277.852 216.099 298.529C229.674 308.712 241.913 315.448 251.851 317.935L251.903 317.948L251.955 317.961C261.706 320.529 268.385 319.606 272.646 317.118C277.149 314.49 281.213 309.757 283.684 299.867L283.733 299.67L283.791 299.476C286.796 289.452 287.472 275.69 285.243 258.961L285.232 258.882L285.223 258.803C281.323 224.793 266.716 181.761 241.618 138.377C216.516 94.9878 187.026 60.4749 160.206 39.2022C146.648 29.0373 134.425 22.3136 124.499 19.8301ZM94.9249 5.58507C104.613 -0.0707774 115.93 -0.287005 128.724 2.9141C142.007 6.23719 156.468 14.6006 170.751 25.3213L170.842 25.3897L170.932 25.4604C199.844 48.3662 230.717 84.7336 256.697 129.641C282.689 174.57 298.279 219.851 302.524 256.735C304.918 274.759 304.444 291.12 300.538 304.292C297.187 317.545 290.814 326.698 281.425 332.18C271.76 337.822 259.874 338.068 247.574 334.838C234.306 331.506 219.864 323.15 205.598 312.443L205.552 312.409L205.507 312.374C176.549 290.036 145.038 253.617 119.586 208.006C94.2874 162.67 78.0795 117.986 73.8258 81.0291C71.4322 63.0054 71.9063 46.6447 75.8117 33.4727C79.1623 20.2196 85.5354 11.0663 94.9249 5.58507Z" fill="white"/>
<path fill-rule="evenodd" clip-rule="evenodd" d="M188.175 107.273C137.924 107.273 93.2701 115.863 62.0912 129.236L62.0409 129.257L61.9904 129.278C45.9894 135.904 34.7094 143.506 26.8525 150.845C19.5256 157.688 17.4236 163.638 17.4236 168.882C17.4236 173.626 19.5945 180.141 26.8525 186.92C34.6471 194.2 46.4966 201.841 62.0912 208.529C93.2701 221.901 137.924 230.492 188.175 230.492C238.395 230.492 282.5 221.911 314.31 208.507L314.359 208.486C330.36 201.86 341.64 194.259 349.497 186.92C356.824 180.076 358.926 174.127 358.926 168.882C358.926 164.139 356.755 157.624 349.497 150.845C341.703 143.564 329.853 135.924 314.258 129.236C283.08 115.863 238.425 107.273 188.175 107.273ZM55.2778 113.188C89.1433 98.6742 136.233 89.8366 188.175 89.8366C240.143 89.8366 287.253 98.6829 321.122 113.209C338.051 120.47 351.757 129.104 361.386 138.098C371.551 147.593 376.35 158.514 376.35 168.882C376.35 179.912 371.482 190.237 361.386 199.667C351.824 208.598 338.719 217.267 321.047 224.587C286.65 239.076 240.162 247.928 188.175 247.928C136.207 247.928 89.0969 239.082 55.2277 224.556C38.2983 217.295 24.5932 208.661 14.9641 199.667C4.79851 190.172 0 179.251 0 168.882C0 157.853 4.86749 147.528 14.9641 138.098C24.5217 129.171 37.6188 120.506 55.2778 113.188Z" fill="white"/>
<path fill-rule="evenodd" clip-rule="evenodd" d="M252.048 19.7811C241.715 22.9163 229.371 29.2877 216.144 39.2023C189.324 60.475 159.833 94.9878 134.732 138.377C109.649 181.735 95.0447 224.739 91.1339 258.74C89.4563 275.58 90.0948 289.576 92.6657 299.867C95.1363 309.757 99.2009 314.49 103.704 317.118C107.954 319.6 114.062 320.546 124.499 317.935C134.566 315.416 146.821 309.167 160.117 298.633C186.952 277.373 216.471 242.845 241.596 199.425C266.095 156.084 280.731 113.048 285.223 78.9556C286.892 62.1468 286.251 48.1749 283.684 37.8978C281.317 28.4238 276.861 23.3869 272.504 20.5644C268.286 18.1601 262.249 17.2594 252.048 19.7811ZM247.625 2.9141C260.42 -0.287005 271.736 -0.0707771 281.425 5.58507L281.57 5.66998L281.712 5.76046C290.086 11.0932 297.173 19.9994 300.587 33.6688C303.821 46.6134 304.346 62.8183 302.547 80.8234L302.533 80.9567L302.516 81.0896C297.695 117.875 282.144 163.114 256.74 208.049L256.719 208.086L256.697 208.124C230.717 253.031 199.844 289.399 170.932 312.304C156.349 323.857 141.889 331.557 128.724 334.851C115.929 338.052 104.613 337.836 94.9249 332.18C85.4892 326.671 79.0996 317.455 75.7624 304.096C72.5286 291.151 72.004 274.947 73.8031 256.941L73.8095 256.878L73.8167 256.815C78.0478 219.917 93.642 174.602 119.653 129.641C145.633 84.7336 176.506 48.3662 205.418 25.4604L205.507 25.3897L205.598 25.3213C220.132 14.4132 234.4 6.87497 247.235 3.02148L247.429 2.96325L247.625 2.9141Z" fill="white"/>
<path d="M188.079 133.005L196.623 159.046H224.272L201.904 175.141L210.448 201.183L188.079 185.088L165.711 201.183L174.255 175.141L151.887 159.046H179.536L188.079 133.005Z" fill="white"/>
<path fill-rule="evenodd" clip-rule="evenodd" d="M1019.52 176.988H476.028L463.641 278.743L450.737 176.988H434.737L451.253 311.801H475.512L490.48 191.967H1019.52V176.988Z" fill="white"/>
<path d="M520.408 139.378V53.1039H559.847C570.775 53.1039 579.156 56.0207 584.99 61.8545C589.92 66.7844 592.385 73.4398 592.385 81.8207C592.385 95.0493 586.222 103.964 573.898 108.566L594.973 139.378H572.788L554.055 111.77H539.388V139.378H520.408ZM539.388 95.0083H558.615C563.216 95.0083 566.79 93.899 569.337 91.6806C571.885 89.3799 573.158 86.3398 573.158 82.5602C573.158 78.5341 571.844 75.494 569.214 73.4398C566.585 71.3035 562.929 70.2354 558.245 70.2354H539.388V95.0083Z" fill="white"/>
<path d="M610.09 139.378V53.1039H675.165V69.9889H628.947V87.4901H669.619V104.375H628.947V122.493H675.782V139.378H610.09Z" fill="white"/>
<path d="M685.878 139.378L722.853 52.4876H740.354L777.328 139.378H757.486L749.598 120.028H713.116L705.228 139.378H685.878ZM719.895 103.266H742.819L731.357 75.2885L719.895 103.266Z" fill="white"/>
<path d="M826.149 140.857C813.496 140.857 802.937 136.584 794.474 128.039C786.094 119.411 781.903 108.812 781.903 96.2407C781.903 83.7516 786.135 73.1933 794.598 64.5659C803.061 55.9386 813.824 51.6249 826.889 51.6249C834.366 51.6249 840.651 52.8574 845.746 55.3223C850.84 57.7051 855.688 61.1561 860.289 65.6752L848.95 78.7395C845.253 75.3707 841.761 72.9468 838.474 71.4679C835.27 69.9067 831.367 69.1261 826.765 69.1261C819.535 69.1261 813.537 71.7554 808.771 77.014C804.088 82.1904 801.746 88.5993 801.746 96.2407C801.746 103.8 804.088 110.209 808.771 115.467C813.537 120.726 819.535 123.355 826.765 123.355C831.367 123.355 835.352 122.534 838.721 120.89C842.089 119.247 845.664 116.7 849.443 113.249L861.521 126.19C856.838 131.202 851.744 134.9 846.239 137.282C840.816 139.665 834.119 140.857 826.149 140.857Z" fill="white"/>
<path d="M897.421 139.378V70.6051H871.169V53.1039H942.653V70.6051H916.402V139.378H897.421Z" fill="white"/>
<path d="M995.392 71.0931C989.001 71.0931 984.042 69.4332 980.515 66.1134C976.987 62.7936 975.224 57.8139 975.224 51.1742V26.7113H987.486V50.9252C987.486 53.9961 988.192 56.3199 989.603 57.8969C991.055 59.4323 993.026 60.2 995.516 60.2C998.006 60.2 999.956 59.453 1001.37 57.9591C1002.82 56.4652 1003.55 54.2243 1003.55 51.2365V26.7113H1015.81V50.863C1015.81 57.6686 1014 62.7521 1010.39 66.1134C1006.82 69.4332 1001.82 71.0931 995.392 71.0931Z" fill="white"/>
<path d="M1040.38 71.0309C1032.17 71.0309 1025.36 68.624 1019.97 63.8103L1026.69 55.7805C1031.05 59.2663 1035.76 61.0092 1040.82 61.0092C1044.14 61.0092 1045.8 59.9717 1045.8 57.8969C1045.8 56.9839 1045.3 56.2369 1044.31 55.656C1043.31 55.0335 1041.36 54.3903 1038.45 53.7263C1035.8 53.1039 1033.6 52.5021 1031.86 51.9212C1030.16 51.2987 1028.47 50.4895 1026.81 49.4936C1025.2 48.4561 1023.99 47.1489 1023.2 45.572C1022.42 43.9951 1022.02 42.107 1022.02 39.9076C1022.02 35.7993 1023.54 32.4587 1026.57 29.8859C1029.64 27.2715 1033.74 25.9644 1038.89 25.9644C1046.03 25.9644 1052 27.894 1056.82 31.7533L1050.78 40.2811C1046.71 37.4177 1042.65 35.9861 1038.58 35.9861C1037.17 35.9861 1036.09 36.2558 1035.34 36.7953C1034.6 37.3347 1034.22 38.0402 1034.22 38.9116C1034.22 39.9076 1034.72 40.696 1035.72 41.277C1036.75 41.858 1038.77 42.4804 1041.75 43.1444C1047.23 44.3478 1051.3 45.9663 1053.95 47.9996C1056.65 49.9915 1058 52.9379 1058 56.8387C1058 61.2374 1056.4 64.7025 1053.21 67.2338C1050.01 69.7652 1045.74 71.0309 1040.38 71.0309Z" fill="white"/>
<path d="M557.242 309.921C543.109 309.921 530.908 305.32 520.637 296.117L531.853 282.683C540.316 289.667 548.902 293.159 557.611 293.159C561.473 293.159 564.513 292.42 566.732 290.941C568.95 289.462 570.06 287.407 570.06 284.778C570.06 282.313 568.909 280.341 566.609 278.862C564.308 277.301 559.666 275.617 552.682 273.809C547.752 272.577 543.767 271.385 540.726 270.235C537.686 269.002 534.769 267.4 531.976 265.428C529.264 263.456 527.251 260.991 525.937 258.033C524.704 254.993 524.088 251.378 524.088 247.187C524.088 239.382 526.882 233.096 532.469 228.33C538.138 223.565 545.41 221.182 554.284 221.182C566.526 221.182 577.208 224.838 586.328 232.151L576.468 246.448C568.334 240.779 560.857 237.944 554.037 237.944C550.504 237.944 547.752 238.683 545.78 240.162C543.89 241.559 542.945 243.408 542.945 245.708C542.945 248.502 544.136 250.597 546.519 251.994C548.902 253.391 553.914 255.075 561.555 257.047C570.922 259.512 577.824 262.676 582.261 266.537C586.698 270.399 588.917 275.945 588.917 283.176C588.917 291.557 586 298.13 580.166 302.896C574.414 307.579 566.773 309.921 557.242 309.921Z" fill="white"/>
<path d="M641.377 310.044C629.627 310.044 620.466 306.798 613.893 300.307C607.319 293.734 604.033 284.203 604.033 271.714V222.415H623.013V271.221C623.013 278.123 624.615 283.422 627.82 287.12C631.106 290.735 635.707 292.543 641.623 292.543C647.539 292.543 652.1 290.776 655.304 287.243C658.591 283.71 660.234 278.575 660.234 271.837V222.415H679.214V271.098C679.214 283.915 675.845 293.611 669.108 300.184C662.452 306.757 653.209 310.044 641.377 310.044Z" fill="white"/>
<path d="M698.547 308.688V222.415H719.006L741.684 258.896L764.361 222.415H784.821V308.688H765.964V252.364L741.684 289.215H741.191L717.157 252.734V308.688H698.547Z" fill="white"/>
<path d="M805.546 308.688V222.415H826.006L848.683 258.896L871.361 222.415H891.82V308.688H872.963V252.364L848.683 289.215H848.19L824.157 252.734V308.688H805.546Z" fill="white"/>
<path d="M913.409 308.688V222.415H932.389V308.688H913.409Z" fill="white"/>
<path d="M974.039 308.688V239.916H947.787V222.415H1019.27V239.916H993.02V308.688H974.039Z" fill="white"/>
</svg>
