<svg width="46" height="46" viewBox="0 0 46 46" fill="none" xmlns="http://www.w3.org/2000/svg">
<path d="M0.143066 0.714233V37.2857H15.0974L23.0002 45.1885L30.9031 37.2857H45.8573V0.714233H0.143066ZM43.5716 34.9999H29.9602L23.0002 41.9599L16.0402 34.9999H2.42878V2.99995H43.5716V34.9999Z" fill="#FAFF05"/>
<path d="M23.0002 30.1942C28.2688 30.1942 33.1773 27.5828 36.1259 23.2171L34.2345 21.9371C31.7088 25.6799 27.5088 27.9085 23.0002 27.9085C18.4916 27.9085 14.2916 25.6742 11.7659 21.9371L9.87449 23.2171C12.8288 27.5885 17.7374 30.1942 23.0059 30.1942H23.0002Z" fill="#FAFF05"/>
<path d="M18.3716 9.63995H16.0859V17.7828H18.3716V9.63995Z" fill="#FAFF05"/>
<path d="M29.9145 9.63995H27.6288V17.7828H29.9145V9.63995Z" fill="#FAFF05"/>
</svg>
