<svg width="14" height="14" viewBox="0 0 14 14" fill="none" xmlns="http://www.w3.org/2000/svg">
<g clip-path="url(#clip0_386_109)">
<path d="M0.435547 9.43472C1.4246 12.1003 3.9904 14 7.00015 14C10.0099 14 12.5757 12.1003 13.5648 9.43472L7.00015 8.82605L0.435547 9.43472Z" fill="#FFDA44" style="fill:#FFDA44;fill:color(display-p3 1.0000 0.8549 0.2667);fill-opacity:1;"/>
<path d="M7.00015 0C3.9904 0 1.4246 1.89962 0.435547 4.56523L7.00015 5.1739L13.5648 4.5652C12.5757 1.89962 10.0099 0 7.00015 0Z" fill="black" style="fill:black;fill-opacity:1;"/>
<path d="M0.435395 4.56519C0.154027 5.32351 0 6.14371 0 6.99996C0 7.8562 0.154027 8.6764 0.435395 9.43472H13.5646C13.846 8.6764 14 7.8562 14 6.99996C14 6.14371 13.846 5.32351 13.5646 4.56519H0.435395Z" fill="#D80027" style="fill:#D80027;fill:color(display-p3 0.8471 0.0000 0.1529);fill-opacity:1;"/>
</g>
<rect x="0.25" y="0.25" width="13.5" height="13.5" rx="6.75" stroke="#4A4A4A" style="stroke:#4A4A4A;stroke:color(display-p3 0.2916 0.2916 0.2916);stroke-opacity:1;" stroke-width="0.5"/>
<defs>
<clipPath id="clip0_386_109">
<rect width="14" height="14" rx="7" fill="white" style="fill:white;fill-opacity:1;"/>
</clipPath>
</defs>
</svg>
