<?xml version="1.0" encoding="utf-8"?>
<!-- Generator: Adobe Illustrator 21.0.0, SVG Export Plug-In . SVG Version: 6.00 Build 0)  -->
<svg version="1.1" id="Layer_1" xmlns="http://www.w3.org/2000/svg" xmlns:xlink="http://www.w3.org/1999/xlink" x="0px" y="0px"
	 viewBox="0 0 282.3 46.4" style="enable-background:new 0 0 282.3 46.4;" xml:space="preserve">
<style type="text/css">
	.st0{fill:url(#SVGID_1_);}
	.st1{fill:url(#SVGID_2_);}
	.st2{enable-background:new    ;}
	.st3{fill:#FFFFFF;}
	.st4{fill:#FCEF54;}
</style>
<title>LeadQA_logo - копия</title>
<linearGradient id="SVGID_1_" gradientUnits="userSpaceOnUse" x1="-184.1801" y1="-261.7448" x2="-153.2701" y2="-261.7448" gradientTransform="matrix(1 0 0 -1 324.45 -233.28)">
	<stop  offset="0" style="stop-color:#FAA819"/>
	<stop  offset="0.55" style="stop-color:#FAB117"/>
	<stop  offset="1" style="stop-color:#F9BD15"/>
</linearGradient>
<path class="st0" d="M166.8,40.8h-24.7c-1,0-1.8-0.8-1.9-1.8c0,0,0,0,0-0.1c0.5-5.9,0.6-6.5,0.7-7.7s3.3-15.2,4.4-15.2h24
	c1,0,1.8,0.7,1.9,1.7c0,0,0,0.1,0,0.1c-0.5,7-1.7,14-2.1,21.1C168.9,40.1,167.9,40.9,166.8,40.8L166.8,40.8z"/>
<linearGradient id="SVGID_2_" gradientUnits="userSpaceOnUse" x1="-164.9944" y1="-263.8411" x2="-178.5313" y2="-240.3865" gradientTransform="matrix(1 0 0 -1 324.45 -233.28)">
	<stop  offset="5.000000e-02" style="stop-color:#FCEF54"/>
	<stop  offset="0.14" style="stop-color:#FCE145"/>
	<stop  offset="0.3" style="stop-color:#FCCD30"/>
	<stop  offset="0.48" style="stop-color:#FCBF21"/>
	<stop  offset="0.69" style="stop-color:#FCB718"/>
	<stop  offset="1" style="stop-color:#FCB415"/>
</linearGradient>
<path class="st1" d="M157.3,16.1c1.7,2.1,2.7,4.7,2.7,7.5c0,6.4-5.3,11.7-11.7,11.6c-2.7,0-5.3-0.9-7.4-2.6
	c1.9-17.2,2.7-21.5,17-32.3c0.4-0.4,0.9-0.4,1.3-0.1l4.8,4.1c0.3,0.3,0.4,0.9,0.1,1.3C160.1,9.4,158.6,11,157.3,16.1L157.3,16.1z"/>
<g class="st2">
	<path class="st3" d="M183.1,27.9v-8.8h-3.3v-1h7.7v1h-3.3v8.8H183.1z"/>
</g>
<g class="st2">
	<path class="st3" d="M189.3,27.9V17.7h1.1v4.2c0.6-0.9,1.4-1.4,2.5-1.4c0.9,0,1.5,0.3,2,0.8c0.5,0.5,0.7,1.2,0.7,2.1v4.5h-1.1v-4.2
		c0-0.7-0.2-1.2-0.5-1.6s-0.8-0.6-1.5-0.6c-0.6,0-1.1,0.2-1.6,0.6c-0.4,0.4-0.6,1-0.6,1.6v4.1H189.3z"/>
</g>
<g class="st2">
	<path class="st3" d="M198.9,24.7c0.1,0.7,0.4,1.3,0.8,1.8c0.5,0.4,1.1,0.7,1.7,0.7c0.9,0,1.6-0.3,2.3-1l0.7,0.6
		c-0.8,0.9-1.8,1.4-3,1.4c-1,0-1.9-0.4-2.6-1.1s-1-1.6-1-2.7c0-1.1,0.3-1.9,1-2.7c0.7-0.7,1.5-1.1,2.5-1.1c1,0,1.9,0.4,2.5,1.1
		s0.9,1.6,0.9,2.7c0,0.1,0,0.3,0,0.4H198.9z M198.9,23.9h4.7c-0.1-0.7-0.3-1.3-0.7-1.7c-0.4-0.5-0.9-0.7-1.6-0.7
		c-0.6,0-1.1,0.2-1.6,0.7C199.2,22.6,199,23.2,198.9,23.9z"/>
</g>
<g class="st2">
	<path class="st3" d="M210.4,27.9v-9.8h1.1v8.8h5.5v1H210.4z"/>
</g>
<g class="st2">
	<path class="st3" d="M219.9,24.7c0.1,0.7,0.4,1.3,0.8,1.8c0.5,0.4,1.1,0.7,1.7,0.7c0.9,0,1.6-0.3,2.3-1l0.7,0.6
		c-0.8,0.9-1.8,1.4-3,1.4c-1,0-1.9-0.4-2.6-1.1s-1-1.6-1-2.7c0-1.1,0.3-1.9,1-2.7c0.7-0.7,1.5-1.1,2.5-1.1c1,0,1.9,0.4,2.5,1.1
		c0.6,0.7,0.9,1.6,0.9,2.7c0,0.1,0,0.3,0,0.4H219.9z M219.9,23.9h4.7c-0.1-0.7-0.3-1.3-0.7-1.7c-0.4-0.5-0.9-0.7-1.6-0.7
		c-0.6,0-1.1,0.2-1.6,0.7C220.2,22.6,220,23.2,219.9,23.9z"/>
</g>
<g class="st2">
	<path class="st3" d="M229.4,28.1c-0.7,0-1.4-0.2-1.9-0.6s-0.8-1-0.8-1.7c0-0.8,0.3-1.3,0.8-1.7c0.6-0.4,1.3-0.6,2.3-0.6
		c0.7,0,1.5,0.1,2.2,0.3v-0.2c0-0.6-0.2-1.1-0.6-1.5c-0.4-0.3-0.9-0.5-1.6-0.5c-0.7,0-1.4,0.2-2.2,0.5l-0.3-0.9
		c0.9-0.4,1.8-0.6,2.6-0.6c1,0,1.8,0.3,2.3,0.8c0.5,0.5,0.8,1.2,0.8,2.1v4.4H232v-1.1C231.3,27.6,230.5,28.1,229.4,28.1z
		 M229.6,27.2c0.7,0,1.2-0.2,1.7-0.5c0.5-0.4,0.7-0.8,0.7-1.4v-0.7c-0.7-0.2-1.4-0.3-2.1-0.3c-0.7,0-1.2,0.1-1.6,0.4
		c-0.4,0.3-0.6,0.6-0.6,1.1c0,0.4,0.2,0.8,0.5,1S229.1,27.2,229.6,27.2z"/>
</g>
<g class="st2">
	<path class="st3" d="M238.3,28.1c-0.9,0-1.7-0.3-2.4-1c-0.7-0.7-1-1.6-1-2.7c0-1.1,0.3-2,1-2.7c0.7-0.7,1.5-1,2.4-1
		c1.1,0,2.1,0.5,2.8,1.5v-4.4h1.1v10.2H241v-1.5C240.3,27.5,239.4,28.1,238.3,28.1z M238.5,27.1c0.7,0,1.3-0.3,1.8-0.8
		s0.8-1.2,0.8-2c0-0.8-0.3-1.5-0.8-2s-1.1-0.8-1.8-0.8c-0.7,0-1.3,0.3-1.8,0.8c-0.5,0.5-0.7,1.2-0.7,2c0,0.8,0.2,1.5,0.7,2
		C237.2,26.8,237.8,27.1,238.5,27.1z"/>
</g>
<g class="st2">
	<path class="st3" d="M257.3,28.2L256,27c-0.9,0.7-1.9,1-3.1,1c-1.5,0-2.6-0.5-3.6-1.5c-0.9-1-1.4-2.2-1.4-3.6
		c0-1.4,0.5-2.6,1.4-3.6c0.9-1,2.1-1.5,3.6-1.5c1.5,0,2.6,0.5,3.6,1.5c0.9,1,1.4,2.2,1.4,3.6c0,1.3-0.4,2.4-1.2,3.3l1.3,1.1
		L257.3,28.2z M253,27c0.9,0,1.6-0.2,2.3-0.7l-1.8-1.6l0.7-0.8l1.8,1.6c0.6-0.7,0.9-1.6,0.9-2.6c0-1.1-0.4-2.1-1.1-2.9
		s-1.7-1.2-2.8-1.2s-2,0.4-2.7,1.2s-1.1,1.7-1.1,2.9c0,1.1,0.4,2.1,1.1,2.9C250.9,26.7,251.9,27,253,27z"/>
</g>
<g class="st2">
	<path class="st3" d="M273.6,28c-0.5,0-1.1-0.1-1.6-0.3c-0.5-0.2-1-0.5-1.4-0.8l0.5-0.8c0.8,0.6,1.7,0.9,2.5,0.9
		c0.4,0,0.8-0.1,1.1-0.3c0.3-0.2,0.4-0.5,0.4-0.9c0-0.3-0.2-0.6-0.5-0.8c-0.3-0.2-0.8-0.3-1.3-0.5c-0.4-0.1-0.7-0.2-0.9-0.3
		c-0.2-0.1-0.5-0.2-0.7-0.4c-0.3-0.2-0.5-0.3-0.6-0.6c-0.1-0.2-0.2-0.5-0.2-0.8c0-0.6,0.2-1.1,0.7-1.5c0.5-0.4,1.1-0.6,1.8-0.6
		c0.9,0,1.8,0.3,2.6,0.8l-0.5,0.8c-0.7-0.5-1.4-0.7-2.1-0.7c-0.4,0-0.8,0.1-1,0.3c-0.3,0.2-0.4,0.5-0.4,0.8c0,0.1,0,0.3,0.1,0.4
		c0.1,0.1,0.2,0.2,0.3,0.3c0.1,0.1,0.2,0.2,0.4,0.2c0.2,0.1,0.4,0.1,0.5,0.2c0.1,0,0.3,0.1,0.6,0.2c0.3,0.1,0.6,0.2,0.9,0.3
		c0.2,0.1,0.5,0.2,0.7,0.4c0.3,0.2,0.4,0.4,0.6,0.6c0.1,0.2,0.2,0.5,0.2,0.8c0,0.7-0.2,1.2-0.7,1.6C274.9,27.8,274.3,28,273.6,28z"
		/>
</g>
<g class="st2">
	<path class="st3" d="M260.7,27.9l4.5-9.9h1l4.5,9.9h-1.2l-1.1-2.6H263l-1.2,2.6H260.7z M263.4,24.3h4.5l-2.2-5L263.4,24.3z"/>
</g>
<g class="st2">
	<path class="st3" d="M2.7,40.9V18.5h4.9v17.9h11.2v4.5H2.7z"/>
</g>
<g class="st2">
	<path class="st3" d="M29.3,41.3c-2.6,0-4.7-0.8-6.4-2.5c-1.7-1.7-2.5-3.8-2.5-6.4c0-2.5,0.8-4.6,2.4-6.3s3.6-2.6,6.1-2.6
		c2.7,0,4.8,0.9,6.2,2.7s2.1,4,2.1,6.6c0,0.3,0,0.7-0.1,1.3H25.2c0.2,1.1,0.7,1.9,1.4,2.5c0.7,0.6,1.6,0.9,2.7,0.9
		c1.5,0,2.9-0.6,4.2-1.8l2.8,2.5C34.6,40.2,32.2,41.3,29.3,41.3z M25.1,31h7.3c-0.1-1.1-0.5-2-1.2-2.7c-0.6-0.7-1.4-1-2.4-1
		c-1,0-1.8,0.3-2.4,1C25.7,28.9,25.3,29.8,25.1,31z"/>
</g>
<g class="st2">
	<path class="st3" d="M44.1,41.2c-1.7,0-3.1-0.5-4.2-1.4c-1.1-0.9-1.7-2.2-1.7-3.9c0-1.8,0.6-3.2,1.9-4.1c1.2-0.9,2.9-1.4,5-1.4
		c1.4,0,2.8,0.2,4.2,0.7v-0.3c0-2.1-1.2-3.1-3.7-3.1c-1.5,0-3,0.3-4.7,0.9l-1.2-3.7c2.1-0.9,4.3-1.4,6.6-1.4c2.6,0,4.5,0.6,5.8,1.9
		c1.2,1.2,1.9,3.1,1.9,5.5v9.9h-4.7V39C47.9,40.5,46.2,41.2,44.1,41.2z M45.5,37.8c1.1,0,2-0.3,2.7-0.8s1.1-1.3,1.1-2.2V34
		c-0.9-0.4-1.9-0.6-3.1-0.6c-1.1,0-1.9,0.2-2.5,0.6c-0.6,0.4-0.9,1-0.9,1.8c0,0.6,0.2,1.1,0.7,1.5C44.1,37.6,44.7,37.8,45.5,37.8z"
		/>
</g>
<g class="st2">
	<path class="st3" d="M64.2,41.2c-2.1,0-4-0.8-5.5-2.4c-1.5-1.6-2.3-3.8-2.3-6.5c0-2.7,0.8-4.9,2.3-6.5c1.5-1.6,3.4-2.4,5.5-2.4
		c2.1,0,3.9,0.9,5.3,2.6v-8.4h4.9v23.3h-4.9v-2.5C68.2,40.3,66.4,41.2,64.2,41.2z M62.5,35.7c0.8,0.9,1.8,1.3,3,1.3s2.2-0.4,3-1.3
		c0.8-0.9,1.2-2,1.2-3.5c0-1.4-0.4-2.5-1.2-3.4c-0.8-0.9-1.8-1.3-3-1.3s-2.2,0.4-3,1.3c-0.8,0.9-1.2,2-1.2,3.5
		C61.3,33.7,61.7,34.9,62.5,35.7z"/>
</g>
<g class="st2">
	<path class="st3" d="M99.7,41.5l-2.5-2.2c-2,1.3-4.2,1.9-6.6,1.9c-3.4,0-6.2-1.1-8.5-3.4s-3.4-5-3.4-8.2c0-3.2,1.1-6,3.4-8.2
		s5.1-3.4,8.5-3.4s6.2,1.1,8.5,3.4s3.4,5,3.4,8.2c0,2.4-0.7,4.5-2,6.4l2.3,1.9L99.7,41.5z M90.6,36.7c1,0,2-0.2,2.9-0.6L89.9,33
		l3.1-3.5l3.7,3.3c0.4-0.9,0.6-1.9,0.6-3.1c0-2-0.6-3.6-1.9-5c-1.3-1.4-2.9-2-4.9-2c-2,0-3.6,0.7-4.8,2c-1.3,1.4-1.9,3-1.9,5
		c0,2,0.6,3.6,1.9,5C87.1,36,88.7,36.7,90.6,36.7z"/>
</g>
<g class="st2">
	<path class="st3" d="M103.8,40.9l9.6-22.5h4.5l9.6,22.5h-5.1l-2-5h-9.5l-2,5H103.8z M112.6,31.5h5.9l-3-7.3L112.6,31.5z"/>
</g>
<g class="st2">
	<path class="st3" d="M184.5,41c-1,0-1.9-0.4-2.6-1.1c-0.7-0.7-1.1-1.6-1.1-2.7c0-1,0.4-1.9,1.1-2.7c0.7-0.7,1.6-1.1,2.6-1.1
		c1.1,0,2.1,0.4,2.9,1.3l-0.7,0.7c-0.7-0.7-1.4-1.1-2.2-1.1c-0.7,0-1.3,0.3-1.8,0.8c-0.5,0.5-0.7,1.2-0.7,2c0,0.8,0.3,1.4,0.8,2
		c0.5,0.5,1.1,0.8,1.9,0.8c0.8,0,1.5-0.4,2.2-1.1l0.7,0.7C186.7,40.6,185.7,41,184.5,41z"/>
</g>
<g class="st2">
	<path class="st3" d="M195.3,39.9c-0.7,0.7-1.6,1.1-2.7,1.1c-1.1,0-2-0.4-2.7-1.1s-1.1-1.6-1.1-2.7c0-1,0.4-1.9,1.1-2.7
		c0.7-0.7,1.6-1.1,2.7-1.1c1.1,0,2,0.4,2.7,1.1c0.7,0.7,1.1,1.6,1.1,2.7C196.4,38.3,196,39.2,195.3,39.9z M192.6,40.1
		c0.8,0,1.4-0.3,1.9-0.8c0.5-0.5,0.7-1.2,0.7-2c0-0.8-0.3-1.4-0.8-2c-0.5-0.5-1.2-0.8-1.9-0.8c-0.8,0-1.4,0.3-1.9,0.8
		c-0.5,0.5-0.7,1.2-0.7,2c0,0.8,0.3,1.4,0.8,2C191.2,39.8,191.9,40.1,192.6,40.1z"/>
</g>
<g class="st2">
	<path class="st3" d="M198.3,40.9v-7.2h1.1v1.3c0.6-0.9,1.4-1.4,2.5-1.4c0.9,0,1.5,0.3,2,0.8c0.5,0.5,0.7,1.2,0.7,2.1v4.5h-1.1v-4.2
		c0-0.7-0.2-1.2-0.5-1.6s-0.8-0.6-1.5-0.6c-0.6,0-1.1,0.2-1.6,0.6c-0.4,0.4-0.6,1-0.6,1.6v4.1H198.3z"/>
</g>
<g class="st2">
	<path class="st3" d="M207.6,40.9v-6.3h-1v-0.9h1V33c0-0.8,0.2-1.4,0.6-1.9c0.4-0.4,0.9-0.6,1.6-0.6c0.5,0,0.9,0.1,1.2,0.2v0.9
		c-0.4-0.1-0.8-0.2-1-0.2c-0.8,0-1.3,0.5-1.3,1.5v0.6h2.3v0.9h-2.3v6.3H207.6z"/>
</g>
<g class="st2">
	<path class="st3" d="M212.9,37.7c0.1,0.7,0.4,1.3,0.8,1.8c0.5,0.4,1.1,0.7,1.7,0.7c0.9,0,1.6-0.3,2.3-1l0.7,0.6
		c-0.8,0.9-1.8,1.4-3,1.4c-1,0-1.9-0.4-2.6-1.1s-1-1.6-1-2.7c0-1.1,0.3-1.9,1-2.7c0.7-0.7,1.5-1.1,2.5-1.1c1,0,1.9,0.4,2.5,1.1
		s0.9,1.6,0.9,2.7c0,0.1,0,0.3,0,0.4H212.9z M212.9,36.8h4.7c-0.1-0.7-0.3-1.3-0.7-1.7c-0.4-0.5-0.9-0.7-1.6-0.7
		c-0.6,0-1.1,0.2-1.6,0.7C213.2,35.5,213,36.1,212.9,36.8z"/>
</g>
<g class="st2">
	<path class="st3" d="M220.3,40.9v-7.2h1.1v1.9c0.3-0.6,0.7-1.1,1.2-1.5c0.5-0.4,1.1-0.5,1.8-0.5v1.2h-0.1c-0.8,0-1.5,0.3-2.1,0.9
		c-0.5,0.6-0.8,1.4-0.8,2.4v2.9H220.3z"/>
</g>
<g class="st2">
	<path class="st3" d="M226.9,37.7c0.1,0.7,0.4,1.3,0.8,1.8c0.5,0.4,1.1,0.7,1.7,0.7c0.9,0,1.6-0.3,2.3-1l0.7,0.6
		c-0.8,0.9-1.8,1.4-3,1.4c-1,0-1.9-0.4-2.6-1.1s-1-1.6-1-2.7c0-1.1,0.3-1.9,1-2.7c0.7-0.7,1.5-1.1,2.5-1.1c1,0,1.9,0.4,2.5,1.1
		c0.6,0.7,0.9,1.6,0.9,2.7c0,0.1,0,0.3,0,0.4H226.9z M226.9,36.8h4.7c-0.1-0.7-0.3-1.3-0.7-1.7c-0.4-0.5-0.9-0.7-1.6-0.7
		c-0.6,0-1.1,0.2-1.6,0.7C227.2,35.5,227,36.1,226.9,36.8z"/>
</g>
<g class="st2">
	<path class="st3" d="M234.2,40.9v-7.2h1.1v1.3c0.6-0.9,1.4-1.4,2.5-1.4c0.9,0,1.5,0.3,2,0.8c0.5,0.5,0.7,1.2,0.7,2.1v4.5h-1.1v-4.2
		c0-0.7-0.2-1.2-0.5-1.6s-0.8-0.6-1.5-0.6c-0.6,0-1.1,0.2-1.6,0.6c-0.4,0.4-0.6,1-0.6,1.6v4.1H234.2z"/>
</g>
<g class="st2">
	<path class="st3" d="M246.5,41c-1,0-1.9-0.4-2.6-1.1c-0.7-0.7-1.1-1.6-1.1-2.7c0-1,0.4-1.9,1.1-2.7c0.7-0.7,1.6-1.1,2.6-1.1
		c1.1,0,2.1,0.4,2.9,1.3l-0.7,0.7c-0.7-0.7-1.4-1.1-2.2-1.1c-0.7,0-1.3,0.3-1.8,0.8c-0.5,0.5-0.7,1.2-0.7,2c0,0.8,0.3,1.4,0.8,2
		c0.5,0.5,1.1,0.8,1.9,0.8c0.8,0,1.5-0.4,2.2-1.1l0.7,0.7C248.6,40.6,247.6,41,246.5,41z"/>
	<path class="st3" d="M251.6,37.7c0.1,0.7,0.4,1.3,0.8,1.8c0.5,0.4,1.1,0.7,1.7,0.7c0.9,0,1.6-0.3,2.3-1l0.7,0.6
		c-0.8,0.9-1.8,1.4-3,1.4c-1,0-1.9-0.4-2.6-1.1s-1-1.6-1-2.7c0-1.1,0.3-1.9,1-2.7c0.7-0.7,1.5-1.1,2.5-1.1c1,0,1.9,0.4,2.5,1.1
		c0.6,0.7,0.9,1.6,0.9,2.7c0,0.1,0,0.3,0,0.4H251.6z M251.6,36.8h4.7c-0.1-0.7-0.3-1.3-0.7-1.7c-0.4-0.5-0.9-0.7-1.6-0.7
		c-0.6,0-1.1,0.2-1.6,0.7C252,35.5,251.7,36.1,251.6,36.8z"/>
</g>
<path class="st3" d="M131.9,31.2c1.4,0,2.5-1.1,2.5-2.5c0,0,0,0,0,0c0-1.4-1.1-2.5-2.5-2.5c0,0,0,0,0,0c-1.4,0-2.5,1.1-2.5,2.5
	c0,0,0,0,0,0C129.4,30.1,130.5,31.2,131.9,31.2C131.9,31.3,131.9,31.3,131.9,31.2z"/>
<path class="st3" d="M131.9,40.8c1.4,0,2.5-1.1,2.5-2.5c0-1.4-1.1-2.5-2.5-2.5c0,0,0,0,0,0c-1.4,0-2.5,1.1-2.5,2.5c0,0,0,0,0,0
	C129.4,39.7,130.5,40.8,131.9,40.8z"/>
<path class="st4" d="M155.3,56.4"/>
<path class="st4" d="M184.8,38.5"/>
</svg>
