<?xml version="1.0" encoding="utf-8"?>
<!-- Generator: Adobe Illustrator 23.0.5, SVG Export Plug-In . SVG Version: 6.00 Build 0)  -->
<svg version="1.1" id="Layer_1" xmlns="http://www.w3.org/2000/svg" xmlns:xlink="http://www.w3.org/1999/xlink" x="0px" y="0px"
	 viewBox="0 0 40 40" style="enable-background:new 0 0 40 40;" xml:space="preserve">
<style type="text/css">
	.st0{fill:#FECD1B;}
	.st1{fill:#121212;}
</style>
<g>
	<path class="st0" d="M30,0H10C4.5,0,0,4.5,0,10v20c0,5.5,4.5,10,10,10h20c5.5,0,10-4.5,10-10V10C40,4.5,35.5,0,30,0z M29,37H11
		c-4.4,0-8-3.6-8-8h5c1.1,0,2-0.9,2-2v-2h2c0.6,0,1-0.4,1-1v-7c0-0.6-0.4-1-1-1h-2v-2c0-1.1-0.9-2-2-2H3v-1c0-4.4,3.6-8,8-8h18
		c1.7,0,3.3,0.5,4.6,1.4L15,20.2l18.6,15.3C32.3,36.5,30.7,37,29,37z"/>
	<path class="st1" d="M15,20.2L33.6,4.4C32.3,3.5,30.7,3,29,3H11c-4.4,0-8,3.6-8,8v1h5c1.1,0,2,0.9,2,2v2h2c0.6,0,1,0.4,1,1v7
		c0,0.6-0.4,1-1,1h-2v2c0,1.1-0.9,2-2,2H3c0,4.4,3.6,8,8,8h18c1.7,0,3.3-0.5,4.6-1.4L15,20.2z"/>
</g>
</svg>
