<?xml version="1.0" encoding="utf-8"?>
<!-- Generator: Adobe Illustrator 23.0.5, SVG Export Plug-In . SVG Version: 6.00 Build 0)  -->
<svg version="1.1" id="Layer_1" xmlns="http://www.w3.org/2000/svg" xmlns:xlink="http://www.w3.org/1999/xlink" x="0px" y="0px"
	 viewBox="0 0 26 24" style="enable-background:new 0 0 26 24;" xml:space="preserve">
<style type="text/css">
	.st0{fill:#FFFFFF;}
</style>
<path class="st0" d="M7.9,19c-3.9,0-7-3.1-7-7s3.1-7,7-7s7,3.1,7,7S11.8,19,7.9,19z M7.9,6c-3.3,0-6,2.7-6,6c0,3.3,2.7,6,6,6
	s6-2.7,6-6C13.9,8.7,11.2,6,7.9,6z"/>
<path class="st0" d="M18.9,18c-0.5,0-1.4-0.2-2.1-1.8c-0.6-1.1-0.9-2.6-0.9-4.2c0-1.6,0.3-3.1,0.9-4.2C17.5,6.2,18.4,6,18.9,6
	s1.4,0.2,2.1,1.8c0.6,1.1,0.9,2.6,0.9,4.2c0,1.6-0.3,3.1-0.9,4.2C20.2,17.8,19.4,18,18.9,18z M18.9,7c-0.3,0-0.8,0.3-1.2,1.2
	c-0.5,1-0.8,2.4-0.8,3.8s0.3,2.8,0.8,3.8c0.4,0.9,0.9,1.2,1.2,1.2s0.8-0.3,1.2-1.2c0.5-1,0.8-2.4,0.8-3.8s-0.3-2.8-0.8-3.8
	C19.7,7.3,19.2,7,18.9,7z"/>
<path class="st0" d="M24.4,17.1L24.2,17c-0.1-0.1-0.2-0.2-0.4-0.3c-0.2-0.3-0.3-0.6-0.5-1.1c-0.3-0.9-0.4-2.2-0.4-3.5
	c0-1.3,0.2-2.6,0.4-3.5c0.1-0.5,0.3-0.8,0.5-1.1c0.1-0.2,0.2-0.3,0.4-0.3L24.4,7l0.2,0.1c0.1,0.1,0.3,0.2,0.4,0.3
	c0.2,0.3,0.3,0.6,0.5,1.1c0.3,0.9,0.4,2.2,0.4,3.5c0,1.3-0.2,2.6-0.4,3.5c-0.1,0.5-0.3,0.8-0.5,1.1c-0.1,0.2-0.2,0.3-0.4,0.3
	L24.4,17.1z M24.4,8.5c0,0.1-0.1,0.2-0.1,0.3c-0.3,0.8-0.4,2-0.4,3.2c0,1.2,0.1,2.4,0.4,3.2c0,0.1,0.1,0.2,0.1,0.3
	c0-0.1,0.1-0.2,0.1-0.3c0.3-0.8,0.4-2,0.4-3.2c0-1.2-0.1-2.4-0.4-3.2C24.5,8.7,24.4,8.5,24.4,8.5z"/>
</svg>
