<svg width="24" height="27" viewBox="0 0 24 27" fill="none" xmlns="http://www.w3.org/2000/svg">
<path d="M13.375 5C12.375 11.5 6.70833 13.9583 4 14.375V15C10.5 16 12.9583 22.0833 13.375 25H14C15.5 17.5 21.0833 15.2083 24 15V14.375C17 13.875 14.625 7.91667 14 5H13.375Z" fill="#9A9A9A"/>
<path d="M4.28125 20C3.93125 22.275 1.94792 23.1354 1 23.2812V23.5C3.275 23.85 4.13542 25.9792 4.28125 27H4.5C5.025 24.375 6.97917 23.5729 8 23.5V23.2812C5.55 23.1063 4.71875 21.0208 4.5 20H4.28125Z" fill="#9A9A9A"/>
<path d="M4.6875 0C4.1875 3.25 1.35417 4.47917 0 4.6875V5C3.25 5.5 4.47917 8.54167 4.6875 10H5C5.75 6.25 8.54167 5.10417 10 5V4.6875C6.5 4.4375 5.3125 1.45833 5 0H4.6875Z" fill="#9A9A9A"/>
</svg>
