<?xml version="1.0" encoding="utf-8"?>
<!-- Generator: Adobe Illustrator 19.0.0, SVG Export Plug-In . SVG Version: 6.00 Build 0)  -->
<svg version="1.1" id="Layer_1" xmlns="http://www.w3.org/2000/svg" xmlns:xlink="http://www.w3.org/1999/xlink" x="0px" y="0px"
	 viewBox="-276 371 58 52" style="enable-background:new -276 371 58 52;" xml:space="preserve">
<style type="text/css">
	.st0{fill:#FFFFFF;}
</style>
<path id="heart" class="st0" d="M-218,397c0,3.7-4.3,7.3-11,9.5c-0.4,0.1-0.7,0.2-1.1,0.3c0.1,0.5,0.2,1.1,0.3,1.6
	c1.3,6.7,0.3,12.2-2.8,14c-3,1.8-7.9,0-12.8-4.2c-0.5-0.4-1-0.9-1.5-1.4l-0.1-0.1l-0.3,0.3c-0.3,0.3-0.6,0.6-0.9,0.9
	c-5.1,4.5-10.3,6.3-13.4,4.5c-3-1.8-4-6.9-2.7-13.3c0.1-0.7,0.3-1.4,0.5-2.1c-0.5-0.2-1-0.3-1.6-0.5c-6.4-2.2-10.6-5.8-10.6-9.5
	c0-3.5,3.9-6.9,10.1-9c0.3-0.1,0.7-0.2,1-0.3c0.3-0.5,0.6-1,0.9-1.5c-0.1-0.3-0.1-0.5-0.2-0.8c-1.3-6.6-0.4-11.8,2.6-13.6
	c3.2-1.8,8.4,0.1,13.6,4.8c0.3,0.3,0.6,0.6,1,0.9c0.5-0.5,1-0.9,1.4-1.3c5-4.4,9.9-6.2,13-4.5c3.2,1.8,4.1,7.4,2.7,14.3
	c0,0.1,0,0.2-0.1,0.3c0.3,0.4,0.6,0.8,0.8,1.3c0.3,0.1,0.6,0.2,0.9,0.3l0,0C-222,390-218,393.4-218,397z M-243.7,416.2
	c4.2,3.7,8.1,5,10,4c0.9-0.5,1.6-1.8,1.9-3.6c0.4-2.6,0.3-5.2-0.3-7.7l0,0c-0.1-0.5-0.2-0.9-0.3-1.4c-2.1,0.5-4.3,0.8-6.5,1.1
	l-6.1,6.4C-244.6,415.4-244.2,415.8-243.7,416.2z M-260.8,405.1c0.9,0.2,1.9,0.4,2.9,0.5l-2.3-2.4
	C-260.4,403.9-260.6,404.5-260.8,405.1z M-233.8,403.1l-2.4,2.5c1.1-0.2,2.1-0.4,3.1-0.6C-233.3,404.4-233.6,403.7-233.8,403.1z
	 M-260.3,420.1c0.9,0.5,2.3,0.5,4.1-0.2l0,0c2.4-1,4.6-2.3,6.5-4.1c0.3-0.3,0.6-0.5,0.9-0.8l-6.3-6.6c-2.1-0.2-4.2-0.5-6.3-1
	c-0.2,0.6-0.3,1.3-0.4,1.9C-262.9,415-262.1,419.1-260.3,420.1z M-273.5,397c0,1,0.7,2.2,2.2,3.5c2,1.6,4.3,2.8,6.8,3.6
	c0.5,0.2,1,0.3,1.4,0.5c0.3-1.1,0.7-2.2,1.1-3.3l-1.1-1.2c-2.4-2.5-3.4-6.1-2.8-9.5C-270.7,392.4-273.5,394.9-273.5,397z
	 M-249.6,378.4c-4.5-4-8.8-5.7-10.8-4.5c-1.7,1-2.4,4.9-1.6,10c2.9-2.2,6.8-2.7,10.2-1.1c1-1.3,2-2.5,3.1-3.6
	C-249,379-249.3,378.7-249.6,378.4z M-247,381c-0.9,1-1.8,2.1-2.7,3.2c0.3,0.3,0.6,0.5,0.9,0.8l1.7,1.8l1.7-1.8
	c0.3-0.3,0.6-0.6,1-0.9C-245.2,383-246.1,382-247,381z M-233.8,373.8c-1.8-1.1-5.8,0.4-10.1,4.2c-0.5,0.4-0.9,0.8-1.3,1.2
	c1,1.1,2,2.3,3,3.6c3.4-1.6,7.3-1.1,10.2,1.2C-231.2,378.8-232,374.9-233.8,373.8L-233.8,373.8z M-228.2,390.6
	c0.6,3.4-0.4,7-2.8,9.5l-0.9,1c0.4,1.1,0.8,2.2,1.2,3.3c0.3-0.1,0.7-0.2,1-0.3l0,0c5.7-1.9,9.3-4.9,9.3-7.1
	C-220.5,395-223.4,392.4-228.2,390.6L-228.2,390.6z"/>
</svg>
