<?xml version="1.0" encoding="utf-8"?>
<!-- Generator: Adobe Illustrator 19.0.0, SVG Export Plug-In . SVG Version: 6.00 Build 0)  -->
<svg version="1.1" id="Layer_1" xmlns="http://www.w3.org/2000/svg" xmlns:xlink="http://www.w3.org/1999/xlink" x="0px" y="0px"
	 viewBox="0 0 2500 2246" style="enable-background:new 0 0 2500 2246;" xml:space="preserve">
<style type="text/css">
	.st0{display:none;fill:#000000;}
	.st1{fill:#000000;}
</style>
<path class="st0" d="M1791,861.6L1791,861.6c-17.8-6.1-35.8-11.8-53.8-17c3-12.2,5.8-24.4,8.3-36.7
	c40.8-197.8,14.1-357.2-76.9-409.7c-87.2-50.3-229.9,2.1-374,127.6c-14.2,12.4-28.1,25.1-41.6,38.2c-9.1-8.7-18.3-17.2-27.7-25.6
	c-151-134.1-302.4-190.6-393.3-138c-87.2,50.5-113,200.3-76.3,387.8c3.7,18.6,7.8,37,12.4,55.4c-21.4,6.1-42.1,12.6-61.9,19.5
	c-177.1,61.7-290.1,158.5-290.1,258.8c0,103.7,121.4,207.6,305.8,270.7c15,5.1,30,9.8,45.2,14.1c-4.9,19.8-9.3,39.7-13.1,59.7
	c-35,184.2-7.7,330.5,79.3,380.7c89.8,51.8,240.5-1.4,387.2-129.7c11.6-10.1,23.2-20.9,34.9-32.2c14.7,14.2,29.8,27.9,45.2,41.2
	c142.1,122.3,282.5,171.7,369.4,121.4c89.7-51.9,118.9-209.1,81-400.3c-2.9-14.6-6.3-29.5-10-44.7c10.6-3.1,21-6.4,31.1-9.7
	c191.7-63.5,316.5-166.2,316.5-271.3C2088.3,1021.2,1971.6,923.8,1791,861.6z M1341.4,579.7c123.5-107.5,238.9-149.9,291.5-119.6
	c56,32.3,77.8,162.5,42.6,333.4c-2.3,11.1-4.8,22.2-7.5,33.2c-69.4-16-144.7-27.9-223.6-35.3c-46-65.4-93.6-124.9-141.4-176.4
	C1315.5,602.9,1328.3,591.1,1341.4,579.7z M909.7,1207.6c15.1,29.2,30.9,58.1,47.4,86.5c16.8,29,34.3,57.7,52.5,85.9
	c-54.8-6.1-106.4-14.4-154.1-24.8C870.3,1307.6,888.4,1258,909.7,1207.6z M909.6,1039.6c-20.8-49.3-38.6-97.9-53.1-144.7
	c47.7-10.7,98.6-19.4,151.6-26c-17.7,27.7-34.8,55.8-51.3,84.3C940.4,981.6,924.7,1010.4,909.6,1039.6z M947.6,1123.6
	c22-45.8,45.7-90.8,71.1-134.8v0c25.4-44,52.4-87.1,81.1-129.1c49.7-3.8,100.7-5.7,152.3-5.7c51.8,0,102.8,2,152.6,5.8
	c28.4,41.9,55.2,84.8,80.6,128.7c25.5,43.9,49.5,88.7,72.1,134.2c-22.3,46-46.3,91.1-71.9,135.4l0,0c-25.3,44-52.1,87.2-80.2,129.5
	c-49.6,3.5-100.9,5.4-153.2,5.4c-52,0-102.7-1.6-151.4-4.8c-28.9-42.2-56.1-85.4-81.7-129.7C993.5,1214.4,969.7,1169.4,947.6,1123.6
	z M1547.4,1293.7c16.8-29.2,33-58.7,48.5-88.6h0c22.4,51,41.2,100.2,56.2,147.1c-48.5,11.1-100.8,20-156,26.6
	C1513.7,1350.8,1530.8,1322.4,1547.4,1293.7z M1595.2,1039.7c-15.5-29.3-31.5-58.3-48.1-87v0c-16.3-28.2-33.3-56.1-50.9-83.6
	c53.4,6.7,104.5,15.7,152.5,26.7C1634.3,941.8,1616.4,990.1,1595.2,1039.7z M1252.9,666.1c33,35.7,66,75.6,98.4,118.8
	c-65.9-3.1-131.8-3.1-197.7,0C1186.1,742,1219.4,702.2,1252.9,666.1z M867.6,462.3c56-32.4,179.7,13.8,310.1,129.6
	c8.3,7.4,16.7,15.2,25.1,23.2c-48.6,52.2-96.6,111.6-142.5,176.3c-78.7,7.3-154,19-223.2,34.7c-4.3-17.1-8.1-34.3-11.5-51.5v0
	C794.2,613.8,815.1,492.7,867.6,462.3z M786.1,1337.9c-13.9-4-27.6-8.3-41.3-12.9c-81.6-27.9-148.9-64.1-195.1-103.6
	c-41.5-35.5-62.4-70.8-62.4-99.4c0-60.9,90.8-138.6,242.2-191.4c19-6.6,38.2-12.6,57.6-18.1c20.9,68.1,48.4,139.2,81.5,211.2
	C835.1,1196.7,807.2,1269,786.1,1337.9z M1173.3,1663.5c-64.9,56.7-129.9,97-187.2,117.2l0,0c-51.5,18.2-92.5,18.7-117.3,4.4
	c-52.8-30.4-74.7-147.9-44.8-305.4c3.6-18.6,7.6-37.1,12.2-55.5c68.5,15.2,144.3,26.1,225.4,32.6c46.3,65.1,94.7,125,143.6,177.4
	C1194.8,1644.2,1184.1,1654,1173.3,1663.5z M1254.9,1582.8c-33.9-36.5-67.6-77-100.6-120.4c32,1.3,64.7,1.9,97.9,1.9
	c34.1,0,67.8-0.8,101-2.2C1320.5,1506.3,1287.6,1546.8,1254.9,1582.8z M1688.7,1682.2c-10,53.7-30,89.5-54.8,103.8
	c-52.7,30.5-165.4-9.1-287-113.7c-13.9-12-28-24.8-42.1-38.3c47.1-51.5,94.2-111.5,140.2-178c80.9-7.2,157.2-18.9,226.5-34.9
	c3.4,13.8,6.4,27.3,9.1,40.5v0C1697.4,1546,1699.8,1622.4,1688.7,1682.2z M1749.4,1325.4L1749.4,1325.4c-9.1,3-18.5,6-28.1,8.8
	c-21.2-67-49.7-138.3-84.7-211.9c33.4-71.9,60.8-142.2,81.4-208.8c17.1,5,33.7,10.2,49.7,15.7c154.8,53.3,249.2,132,249.2,192.7
	C2016.9,1186.6,1914.9,1270.5,1749.4,1325.4z"/>
<path class="st0" d="M1252.1,924.4c108.8,0,197,88.2,197,197c0,108.8-88.2,197-197,197c-108.8,0-197-88.2-197-197
	C1055.1,1012.6,1143.3,924.4,1252.1,924.4"/>
<g>
	<path class="st1" d="M1791,861.6L1791,861.6c-17.8-6.1-35.8-11.8-53.8-17c3-12.2,5.8-24.4,8.3-36.7
		c40.8-197.8,14.1-357.2-76.9-409.7c-75.3-43.4-192-10.2-315.2,80.4l3.2,88.2c117.7-97.9,225.9-135.8,276.3-106.7
		c56,32.3,77.8,162.5,42.6,333.4c-2.3,11.1-4.8,22.2-7.5,33.2c-69.4-16-144.7-27.9-223.6-35.3c-27.4-39-55.4-75.9-83.6-110.2l1.6,45
		c14.8,17,23.7,39.1,23.7,63.3c0,14.9-3.4,29-9.4,41.6c3.5,8.7,6,17.8,7.6,27.1c6.9,0.4,13.7,0.9,20.5,1.4
		c28.4,41.9,55.2,84.8,80.6,128.7c25.5,43.9,49.5,88.7,72.1,134.2c-22.3,46-46.3,91.1-71.9,135.4h0c-25.3,44-52.1,87.2-80.2,129.5
		c-6.4,0.5-12.9,0.9-19.4,1.3l3.9,143.3c18.6-24.3,37-49.7,55.3-76.1c80.9-7.2,157.2-18.9,226.5-34.9c3.4,13.8,6.4,27.3,9.1,40.5v0
		c16.7,84.5,19.1,161,8,220.7c-10,53.7-30,89.5-54.8,103.8c-45.7,26.5-136.6,0.1-239.3-75.7l2.4,88.2
		c106.9,67.5,205.7,88,272.7,49.2c89.7-51.9,118.9-209.1,81-400.3c-2.9-14.6-6.3-29.5-10-44.7c10.6-3.1,21-6.4,31.1-9.7
		c191.7-63.5,316.5-166.2,316.5-271.3C2088.3,1021.2,1971.6,923.8,1791,861.6z M1547.1,952.6L1547.1,952.6
		c-16.3-28.2-33.3-56.1-50.9-83.6c53.4,6.7,104.5,15.7,152.5,26.7c-14.4,46.2-32.4,94.5-53.5,144
		C1579.8,1010.3,1563.7,981.3,1547.1,952.6z M1496,1378.8c17.7-28,34.8-56.4,51.3-85.1c16.8-29.2,33-58.7,48.5-88.6h0
		c22.4,51,41.2,100.2,56.2,147.1C1603.6,1363.3,1551.2,1372.2,1496,1378.8z M1749.4,1325.4L1749.4,1325.4c-9.1,3-18.5,6-28.1,8.8
		c-21.2-67-49.7-138.3-84.7-211.9c33.4-71.9,60.8-142.2,81.4-208.8c17.1,5,33.7,10.2,49.7,15.7c154.8,53.3,249.2,132,249.2,192.7
		C2016.9,1186.6,1914.9,1270.5,1749.4,1325.4z"/>
	<path class="st1" d="M1108.7,1714.6c-42.8,30.3-84.4,52.7-122.7,66.2l0,0c-51.5,18.2-92.5,18.7-117.3,4.4
		c-52.8-30.4-74.7-147.9-44.8-305.4c3.6-18.6,7.6-37.1,12.2-55.5c68.5,15.2,144.3,26.1,225.4,32.6c17.1,24.1,34.6,47.5,52.2,70.1
		l3.8-137.9c-5.7-0.3-11.3-0.7-16.9-1c-28.9-42.2-56.1-85.4-81.7-129.7c-25.5-44-49.3-88.9-71.4-134.8c22-45.8,45.7-90.8,71.1-134.8
		v0c25.4-44,52.4-87.1,81.1-129.1c6.7-0.5,13.4-1,20.2-1.4c1.6-9.4,4.1-18.5,7.6-27.2c-6-12.6-9.4-26.7-9.4-41.5
		c0-23.8,8.6-45.6,22.9-62.5l1.6-43.4c-28,33.8-55.5,69.8-82.3,107.7c-78.7,7.3-154,19-223.2,34.7c-4.3-17.1-8.1-34.3-11.5-51.5v0
		c-31.4-160.6-10.6-281.8,42-312.2c51.5-29.8,160.6,7,279.3,103.5l3.2-87.5c-124.7-89.6-242.5-121.7-318.3-77.8
		c-87.2,50.5-113,200.3-76.3,387.8c3.7,18.6,7.8,37,12.4,55.4c-21.4,6.1-42.1,12.6-61.9,19.5c-177.1,61.7-290.1,158.5-290.1,258.8
		c0,103.7,121.4,207.6,305.8,270.7c15,5.1,30,9.8,45.2,14.1c-4.9,19.8-9.3,39.7-13.1,59.7c-35,184.2-7.7,330.5,79.3,380.7
		c66.5,38.3,166.3,19.1,273.3-45.5L1108.7,1714.6z M957.1,1294.2c16.8,29,34.3,57.7,52.5,85.9c-54.8-6.1-106.4-14.4-154.1-24.8
		c14.8-47.7,33-97.2,54.2-147.6C924.8,1236.8,940.6,1265.7,957.1,1294.2z M1008.1,868.9c-17.7,27.7-34.8,55.8-51.3,84.3
		c-16.4,28.5-32.1,57.3-47.2,86.5c-20.8-49.3-38.6-97.9-53.1-144.7C904.2,884.2,955.1,875.5,1008.1,868.9z M786.1,1337.9
		c-13.9-4-27.6-8.3-41.3-12.9c-81.6-27.9-148.9-64.1-195.1-103.6c-41.5-35.5-62.4-70.8-62.4-99.4c0-60.9,90.8-138.6,242.2-191.4
		c19-6.6,38.2-12.6,57.6-18.1c20.9,68.1,48.4,139.2,81.5,211.2C835.1,1196.7,807.2,1269,786.1,1337.9z"/>
</g>
<path class="st1" d="M1206.9,1255.1l-1,27.3h-10.1c-7.1,0-12.9,5.8-12.9,12.9v14.2c0,7.1,5.8,12.9,12.9,12.9h8.6l-12.3,449.5
	c18.1-3.4,38.4-5.3,59.8-5.3c21.3,0,41.4,1.9,59.4,5.3l-12.3-449.5h9.3c7.1,0,12.9-5.8,12.9-12.9v-14.2c0-7.1-5.8-12.9-12.9-12.9
	h-10.8l-1-27c43.5-17.6,74.2-60.2,74.2-110.1c0-52.9-34.6-97.7-82.3-113l-0.5-13.8h20.4c7.1,0,12.9-5.8,12.9-12.9v-14.2
	c0-7.1-5.8-12.9-12.9-12.9h-7.4V968v-0.6v-48.9v-38c0-14.5-6.3-27.5-16.2-36.4c-1.1-1-2.2-1.9-3.3-2.7l-1.5-40.2h9.4
	c6.4,0,11.6-5.2,11.6-11.6c0-6.4-5.2-11.6-11.6-11.6h-10.2L1251.8,26l-27.4,751.9h-9.5c-6.4,0-11.6,5.2-11.6,11.6
	c0,6.4,5.2,11.6,11.6,11.6h8.7L1222,842c-11.4,9-18.8,22.9-18.8,38.5v22.6v15.4v22.6v26.3v11h-7.4c-7.1,0-12.9,5.8-12.9,12.9v14.2
	c0,7.1,5.8,12.9,12.9,12.9h19.7l-0.5,14.1c-47.4,15.6-81.6,60.2-81.6,112.8C1133.4,1194.9,1163.8,1237.3,1206.9,1255.1z"/>
</svg>
