<svg xmlns="http://www.w3.org/2000/svg" width="97" height="119" viewBox="0 0 97 119">
  <defs>
    <style>
      .cls-1, .cls-2 {
        fill: #30f;
      }

      .cls-1, .cls-2, .cls-3 {
        fill-rule: evenodd;
      }

      .cls-1 {
        opacity: 0.1;
      }

      .cls-3 {
        fill: #fff;
      }
    </style>
  </defs>
  <path class="cls-1" d="M838.5,572A48.476,48.476,0,0,0,790,620.452c0,26.076,26.87,51.97,40.61,67.058a10.673,10.673,0,0,0,15.781,0C860.13,672.422,887,646.528,887,620.452A48.477,48.477,0,0,0,838.5,572Z" transform="translate(-790 -572)"/>
  <path id="Shape_1_copy" data-name="Shape 1 copy" class="cls-2" d="M838,597a23.106,23.106,0,0,0-23,23.208c0,12.49,12.743,24.893,19.259,32.12a5.027,5.027,0,0,0,7.484,0C848.258,645.1,861,632.7,861,620.208A23.105,23.105,0,0,0,838,597Z" transform="translate(-790 -572)"/>
  <path class="cls-3" d="M847.666,616.75h0q-0.48-.165-0.966-0.307c0.054-.222.1-0.444,0.149-0.667,0.731-3.59.253-6.482-1.379-7.434-1.565-.913-4.125.039-6.71,2.315-0.254.224-.5,0.456-0.746,0.693q-0.245-.237-0.5-0.464c-2.709-2.434-5.424-3.459-7.055-2.5-1.563.916-2.026,3.635-1.368,7.037q0.1,0.505.222,1.006-0.578.165-1.111,0.353c-3.176,1.12-5.2,2.876-5.2,4.7,0,1.881,2.177,3.768,5.486,4.912,0.268,0.092.538,0.178,0.811,0.256q-0.134.538-.236,1.084c-0.627,3.343-.137,6,1.422,6.908,1.611,0.939,4.314-.026,6.946-2.354q0.312-.276.626-0.584,0.394,0.385.811,0.749c2.55,2.219,5.068,3.116,6.626,2.2,1.609-.942,2.132-3.794,1.453-7.264-0.052-.265-0.113-0.535-0.18-0.811,0.19-.057.376-0.115,0.558-0.176,3.439-1.153,5.676-3.017,5.676-4.923C853,619.647,850.906,617.879,847.666,616.75Zm-8.064-5.115c2.215-1.95,4.285-2.72,5.228-2.17,1,0.586,1.395,2.95.764,6.05-0.042.2-.087,0.4-0.135,0.6a30.254,30.254,0,0,0-4.011-.641,30.427,30.427,0,0,0-2.536-3.2Q839.249,611.947,839.6,611.635Zm-7.744,11.395q0.407,0.795.85,1.57,0.453,0.79.942,1.559a26.9,26.9,0,0,1-2.765-.45C831.15,624.844,831.477,623.945,831.858,623.03Zm0-3.049c-0.373-.9-0.692-1.776-0.953-2.627,0.856-.193,1.769-0.352,2.72-0.472q-0.479.753-.92,1.529T831.856,619.981Zm0.681,1.524q0.592-1.247,1.276-2.446h0q0.684-1.2,1.455-2.343c0.892-.068,1.807-0.1,2.732-0.1s1.845,0.036,2.736.105q0.764,1.141,1.446,2.335t1.293,2.435q-0.6,1.251-1.289,2.457h0q-0.681,1.2-1.439,2.349c-0.89.064-1.81,0.1-2.747,0.1s-1.842-.03-2.717-0.087q-0.776-1.149-1.466-2.353T832.537,621.505Zm10.759,3.086q0.453-.793.87-1.608h0a27.981,27.981,0,0,1,1.008,2.67,26.83,26.83,0,0,1-2.8.483Q842.851,625.373,843.3,624.591Zm0.858-4.609q-0.416-.8-0.863-1.58h0q-0.44-.768-0.912-1.518c0.957,0.123,1.874.285,2.735,0.484C844.856,618.206,844.533,619.083,844.154,619.982Zm-6.14-6.78a27.6,27.6,0,0,1,1.765,2.156q-1.772-.084-3.545,0C836.817,614.58,837.414,613.857,838.014,613.2Zm-6.911-3.7c1-.588,3.223.25,5.562,2.351,0.15,0.134.3,0.275,0.451,0.421a30.851,30.851,0,0,0-2.556,3.2,31.013,31.013,0,0,0-4,.629c-0.077-.309-0.145-0.621-0.206-0.935h0C829.787,612.254,830.161,610.055,831.1,609.5Zm-1.462,15.889q-0.373-.108-0.741-0.234a10.8,10.8,0,0,1-3.5-1.881,2.683,2.683,0,0,1-1.12-1.8c0-1.105,1.629-2.515,4.345-3.473q0.512-.178,1.033-0.328a31.3,31.3,0,0,0,1.462,3.833A31.806,31.806,0,0,0,829.641,625.393Zm6.945,5.91a10.819,10.819,0,0,1-3.359,2.127h0a2.618,2.618,0,0,1-2.1.08c-0.946-.552-1.339-2.683-0.8-5.542q0.1-.507.219-1.008a29.764,29.764,0,0,0,4.043.592,31.439,31.439,0,0,0,2.575,3.219C836.971,630.953,836.78,631.131,836.586,631.3Zm1.463-1.465c-0.607-.663-1.213-1.4-1.8-2.185q0.862,0.033,1.756.034c0.611,0,1.216-.014,1.811-0.041A27.589,27.589,0,0,1,838.049,629.838Zm7.783,1.8a2.686,2.686,0,0,1-.983,1.884c-0.945.554-2.967-.166-5.147-2.064q-0.375-.327-0.755-0.7a30.276,30.276,0,0,0,2.515-3.23,29.67,29.67,0,0,0,4.063-.634c0.061,0.25.116,0.5,0.162,0.734h0A11.11,11.11,0,0,1,845.832,631.642Zm1.088-6.476h0c-0.163.055-.332,0.108-0.5,0.16a30.778,30.778,0,0,0-1.519-3.845,30.9,30.9,0,0,0,1.46-3.789c0.306,0.09.6,0.184,0.891,0.285,2.777,0.966,4.47,2.4,4.47,3.5C851.718,622.648,849.889,624.171,846.92,625.166Z" transform="translate(-790 -572)"/>
</svg>
