<?xml version="1.0" encoding="utf-8"?><svg width="83" height="109" viewBox="0 0 83 109" xmlns="http://www.w3.org/2000/svg" xmlns:xlink="http://www.w3.org/1999/xlink"><svg width="7" height="18" viewBox="0 0 7 18" id="arrow-blue" xmlns="http://www.w3.org/2000/svg"><defs><style>.acls-1{fill:#30f;fill-rule:evenodd}</style></defs><path id="aarrow" class="acls-1" d="M702 830.4l-3.5 3.6-3.5-3.6h2.888V816h1.225v14.4H702z" transform="translate(-695 -816)"/></svg><svg width="7" height="18" viewBox="0 0 7 18" id="scroll-arrow" x="7" y="18" xmlns="http://www.w3.org/2000/svg"><defs><style>.bcls-1{fill:#fff;fill-rule:evenodd}</style></defs><path id="barrow" class="bcls-1" d="M702 830.4l-3.5 3.6-3.5-3.6h2.888V816h1.225v14.4H702z" transform="translate(-695 -816)"/></svg><svg width="9" height="21" viewBox="0 0 9 21" id="socials-fb" x="14" y="36" xmlns="http://www.w3.org/2000/svg"><defs><style>.ccls-1{fill:#f9f9f9;fill-rule:evenodd}</style></defs><path class="ccls-1" d="M5.988 6.88V5.07a4.4 4.4 0 0 1 .035-.63A1.346 1.346 0 0 1 6.182 4a.686.686 0 0 1 .4-.3 2.857 2.857 0 0 1 .733-.08h1.664V0h-2.66a4.138 4.138 0 0 0-3.317 1.19A5.331 5.331 0 0 0 1.994 4.7v2.18H0v3.62h1.992V21h4V10.5h2.66l.352-3.62H5.992z"/></svg><svg width="21" height="21" viewBox="0 0 21 21" id="socials-gh" x="23" y="57" xmlns="http://www.w3.org/2000/svg"><defs><style>.dcls-1{fill:#fff;fill-rule:evenodd}</style></defs><path class="dcls-1" d="M19.591 5.36a10.637 10.637 0 0 0-3.821-3.92 10.365 10.365 0 0 0-10.541 0A10.95 10.95 0 0 0 2 17.09a10.326 10.326 0 0 0 5.175 3.89.594.594 0 0 0 .546-.1.546.546 0 0 0 .178-.42c0-.03 0-.28-.007-.76s-.007-.89-.007-1.24l-.314.05a3.377 3.377 0 0 1-.759.05 4.536 4.536 0 0 1-.95-.1 2.086 2.086 0 0 1-.916-.42 1.751 1.751 0 0 1-.6-.86l-.136-.32a3.324 3.324 0 0 0-.431-.71 1.672 1.672 0 0 0-.595-.54l-.1-.07a1.012 1.012 0 0 1-.3-.36.116.116 0 0 1 .068-.16.758.758 0 0 1 .4-.07l.273.05a1.77 1.77 0 0 1 .677.33 2.262 2.262 0 0 1 .663.73 2.482 2.482 0 0 0 .759.88 1.586 1.586 0 0 0 .9.3 4.3 4.3 0 0 0 .779-.07 3.04 3.04 0 0 0 .616-.21 2.312 2.312 0 0 1 .669-1.45 8.724 8.724 0 0 1-1.4-.25 5.146 5.146 0 0 1-1.285-.55 3.708 3.708 0 0 1-1.1-.93 4.661 4.661 0 0 1-.717-1.48 7.078 7.078 0 0 1-.28-2.1 4.122 4.122 0 0 1 1.08-2.88 3.854 3.854 0 0 1 .1-2.86 1.836 1.836 0 0 1 1.176.19 9.6 9.6 0 0 1 1.142.53c.241.15.435.28.581.38a9.75 9.75 0 0 1 5.25 0l.52-.33a7.078 7.078 0 0 1 1.257-.62 1.684 1.684 0 0 1 1.108-.15 3.822 3.822 0 0 1 .109 2.86 4.122 4.122 0 0 1 1.08 2.88 7.194 7.194 0 0 1-.28 2.11 4.4 4.4 0 0 1-.724 1.47 3.8 3.8 0 0 1-1.108.93 5.146 5.146 0 0 1-1.285.55 8.724 8.724 0 0 1-1.4.25 2.542 2.542 0 0 1 .71 1.99v2.96a.558.558 0 0 0 .171.42.579.579 0 0 0 .54.1 10.326 10.326 0 0 0 5.175-3.89 11.026 11.026 0 0 0 .583-11.73z"/></svg><svg width="17" height="14" viewBox="0 0 17 14" id="socials-tw" x="44" y="78" xmlns="http://www.w3.org/2000/svg"><defs><style>.ecls-1{fill:#fff;fill-rule:evenodd}</style></defs><path class="ecls-1" d="M17 1.66a6.744 6.744 0 0 1-2 .55A3.561 3.561 0 0 0 16.534.26a6.836 6.836 0 0 1-2.216.85 3.481 3.481 0 0 0-6.03 2.42 3.649 3.649 0 0 0 .09.81A9.865 9.865 0 0 1 1.192.64a3.584 3.584 0 0 0-.473 1.78 3.534 3.534 0 0 0 1.552 2.94 3.4 3.4 0 0 1-1.58-.44v.05A3.571 3.571 0 0 0 .93 6.25a3.517 3.517 0 0 0 2.559 2.18 3.494 3.494 0 0 1-.92.13 3.56 3.56 0 0 1-.656-.07 3.5 3.5 0 0 0 3.257 2.46 6.919 6.919 0 0 1-4.33 1.51 7.635 7.635 0 0 1-.833-.05 9.853 9.853 0 0 0 15.029-6.33 10.137 10.137 0 0 0 .237-2.14c0-.15 0-.3-.009-.46A7.1 7.1 0 0 0 17 1.66z"/></svg><svg width="22" height="17" viewBox="0 0 22 17" id="socials-yt" x="61" y="92" xmlns="http://www.w3.org/2000/svg"><defs><style>.fcls-1{fill:#f9f9f9;fill-rule:evenodd}</style></defs><path class="fcls-1" d="M21.619 2.73A2.9 2.9 0 0 0 19.241.34a99.971 99.971 0 0 0-16.476 0A2.9 2.9 0 0 0 .388 2.73a43.374 43.374 0 0 0 0 11.54 2.9 2.9 0 0 0 2.378 2.39 99.971 99.971 0 0 0 16.476 0 2.9 2.9 0 0 0 2.378-2.39 43.655 43.655 0 0 0-.001-11.54zM8.161 12.29V4.22l6.994 4.05a2502.01 2502.01 0 0 0-6.994 4.02z"/></svg></svg>
