<svg width="173" height="48" viewBox="0 0 173 48" fill="none" xmlns="http://www.w3.org/2000/svg">
<path d="M47.3227 14.1957L0 0L23.6613 23.6613H9.4638L33.1251 47.3227V33.1251H47.3227V14.1957Z" fill="black"/>
<path d="M57.1816 29.0368L63.2851 14.6573H67.7062L73.8293 29.0368H70.132L68.9582 26.1569H62.0136L60.8594 29.0368H57.1816ZM62.9721 23.5927H68.0388L66.1804 19.1349L65.5544 17.4385H65.437L64.811 19.1151L62.9721 23.5927Z" fill="black"/>
<path d="M74.994 29.0368V14.6573H78.3979V29.0368H74.994Z" fill="black"/>
<path d="M92.324 29.2143C87.2574 29.2143 84.2448 26.295 84.2448 21.8372C84.2448 17.3793 87.2574 14.4798 92.324 14.4798C96.6082 14.4798 99.3665 16.5312 99.7969 19.6083H96.3735C95.9822 18.1683 94.3781 17.2018 92.324 17.2018C89.5071 17.2018 87.7073 18.7995 87.7073 21.8372C87.7073 24.8748 89.5071 26.4923 92.324 26.4923C94.3977 26.4923 96.0409 25.5455 96.393 24.0464H99.7969C99.4057 27.1826 96.3539 29.2143 92.324 29.2143Z" fill="black"/>
<path d="M108.906 29.2143C103.82 29.2143 100.827 26.295 100.827 21.8372C100.827 17.3793 103.84 14.4798 108.906 14.4798C113.934 14.4798 116.927 17.3793 116.927 21.8372C116.927 26.295 113.914 29.2143 108.906 29.2143ZM108.906 26.4923C111.684 26.4923 113.484 24.8748 113.484 21.8372C113.484 18.7995 111.665 17.2018 108.906 17.2018C106.07 17.2018 104.29 18.7995 104.29 21.8372C104.29 24.8748 106.089 26.4923 108.906 26.4923Z" fill="black"/>
<path d="M118.608 29.0368V14.6573H125.475C130.424 14.6573 132.967 17.5174 132.967 21.8569C132.967 26.512 130.052 29.0368 125.475 29.0368H118.608ZM122.012 26.3542H124.81C128.096 26.3542 129.524 24.6579 129.524 21.7977C129.524 18.6023 127.646 17.3202 124.81 17.3202H122.012V26.3542Z" fill="black"/>
<path d="M134.675 29.0368V14.6573H138.079V29.0368H134.675Z" fill="black"/>
<path d="M140.387 29.0368V14.6573H144.534L151.655 24.579H151.792L151.694 20.2197V14.6573H155.078V29.0368H150.99L143.869 19.194H143.712L143.83 23.3955V29.0368H140.387Z" fill="black"/>
<path d="M164.706 29.2143C159.776 29.2143 156.763 26.295 156.763 21.8372C156.763 17.3793 159.796 14.4798 164.843 14.4798C169.107 14.4798 171.905 16.5312 172.315 19.5885H168.872C168.462 18.0697 166.877 17.2018 164.843 17.2018C161.83 17.2018 160.206 18.9968 160.206 21.8372C160.206 24.8748 161.987 26.4923 164.764 26.4923C167.366 26.4923 168.853 25.3482 169.107 23.4744H164.51V21.2652H172.531V22.4487C172.531 26.9065 169.049 29.2143 164.706 29.2143Z" fill="black"/>
<path d="M64.3611 48C59.803 48 57.8076 46.067 57.6903 43.3055H60.1551C60.2529 45.278 61.7397 46.3037 64.4393 46.3037C67.0216 46.3037 68.2931 45.416 68.2931 43.9169C68.2931 42.0431 66.7672 41.7866 64.0285 41.4316C60.4094 40.9779 58.1011 40.2678 58.1011 37.4077C58.1011 34.7645 60.4681 33.2852 64.1654 33.2852C67.8627 33.2852 70.0146 34.8632 70.1711 37.5063H67.7845C67.6671 35.7705 66.2782 34.9618 64.0676 34.9618C61.7984 34.9618 60.5073 35.81 60.5073 37.1513C60.5073 38.8476 61.8179 39.0843 64.6545 39.4394C68.3518 39.893 70.7189 40.544 70.7189 43.7394C70.7189 46.3826 68.5083 48 64.3611 48Z" fill="black"/>
<path d="M78.9297 48C74.9194 48 72.2785 46.2445 72.2785 41.8064V33.443H74.5869V41.7669C74.5869 44.4692 75.7802 46.0078 78.9297 46.0078C81.9032 46.0078 83.2922 44.6665 83.2922 41.7669V33.443H85.6005V41.8064C85.6005 45.9486 83.2922 48 78.9297 48Z" fill="black"/>
<path d="M87.8915 47.8225V33.443H91.4323L96.0881 44.9229H96.1859L100.822 33.443H104.383V47.8225H102.172V41.0963L102.211 35.8297H102.055L97.1641 47.8225H95.1296L90.1998 35.8297H90.0629L90.102 41.116V47.8225H87.8915Z" fill="black"/>
<path d="M106.881 47.8225V33.443H110.422L115.077 44.9229H115.175L119.812 33.443H123.372V47.8225H121.161V41.0963L121.201 35.8297H121.044L116.153 47.8225H114.119L109.189 35.8297H109.052L109.091 41.116V47.8225H106.881Z" fill="black"/>
<path d="M125.87 47.8225V33.443H128.218V47.8225H125.87Z" fill="black"/>
<path d="M134.948 47.8225V35.376H129.823V33.443H142.46V35.376H137.296V47.8225H134.948Z" fill="black"/>
</svg>
