<svg width="180" height="40" viewBox="0 0 180 40" fill="none" xmlns="http://www.w3.org/2000/svg">
<path d="M26.0599 2.05253C25.6859 1.4263 25.1578 0.908241 24.5269 0.548612C23.896 0.188983 23.1836 0 22.4589 0C21.7343 0 21.0219 0.188983 20.391 0.548612C19.7601 0.908241 19.232 1.4263 18.858 2.05253L12.9345 12.2887C17.4598 14.5682 21.3155 18.0023 24.1186 22.25C26.9217 26.4978 28.5747 31.4114 28.9136 36.5031H24.7545C24.4163 32.1386 22.9543 27.9389 20.5133 24.3195C18.0722 20.7002 14.7367 17.7866 10.8369 15.8673L5.35449 25.4313C7.54686 26.4233 9.45684 27.9555 10.9088 29.8871C12.3607 31.8186 13.3081 34.0874 13.6637 36.4849H4.11217C3.99889 36.4768 3.88939 36.4404 3.79354 36.379C3.69769 36.3175 3.6185 36.233 3.56313 36.133C3.50775 36.0329 3.47792 35.9206 3.47633 35.806C3.47474 35.6915 3.50144 35.5783 3.55402 35.4767L6.20071 30.9354C5.30402 30.1806 4.27921 29.5959 3.17592 29.2097L0.556241 33.751C0.283519 34.223 0.106469 34.7449 0.0353781 35.2865C-0.0357132 35.8281 0.000570774 36.3785 0.142122 36.9058C0.283674 37.4332 0.527671 37.9268 0.859939 38.3582C1.19221 38.7896 1.60612 39.15 2.07764 39.4186C2.69889 39.7718 3.39911 39.9593 4.11217 39.9636H17.1926C17.4355 36.9391 16.9002 33.9026 15.6384 31.1481C14.3767 28.3937 12.4313 26.0147 9.9907 24.2415L12.0702 20.6084C15.1503 22.7428 17.6256 25.6506 19.2516 29.0448C20.8777 32.4391 21.5984 36.2025 21.3427 39.9636H32.4245C32.6826 34.266 31.4541 28.5999 28.8617 23.5314C26.2693 18.463 22.4039 14.1697 17.6517 11.0807L21.8558 3.81457C21.9495 3.65621 22.1014 3.54159 22.2784 3.49566C22.4554 3.44973 22.6433 3.47621 22.801 3.56934C23.2782 3.83273 41.0668 35.1498 41.3999 35.5131C41.4586 35.6192 41.4884 35.7391 41.4864 35.8607C41.4844 35.9822 41.4507 36.1011 41.3886 36.2052C41.3265 36.3094 41.2382 36.3951 41.1327 36.4538C41.0272 36.5125 40.9082 36.542 40.7877 36.5394H36.5026C36.5566 37.6959 36.5566 38.8494 36.5026 39.9999H40.8057C41.3521 40.0035 41.8938 39.8977 42.3995 39.6887C42.9051 39.4797 43.3646 39.1715 43.7514 38.7821C44.1382 38.3927 44.4446 37.9298 44.6529 37.4201C44.8612 36.9104 44.9672 36.3641 44.9648 35.8128C44.9653 35.0846 44.7726 34.3696 44.4067 33.742L26.0599 2.05253ZM111.87 25.6856L98.5828 8.37407H95.2699V31.5803H98.6278V13.7964L112.293 31.5803H115.228V8.37407H111.87V25.6856ZM78.4085 21.3804H90.3186V18.365H78.3995V11.3804H91.84V8.36498H74.9786V31.5803H92.0111V28.5648H78.3995L78.4085 21.3804ZM64.4009 18.4377C59.7647 17.3114 58.4683 16.4213 58.4683 14.2596C58.4683 12.3159 60.1698 10.999 62.7084 10.999C65.0204 11.0673 67.2502 11.8787 69.0731 13.315L70.8736 10.7446C68.5659 8.91947 65.703 7.95667 62.7715 8.01984C58.2163 8.01984 55.0384 10.7446 55.0384 14.6229C55.0384 18.801 57.7391 20.2451 62.6544 21.4531C67.0296 22.4704 68.3709 23.415 68.3709 25.5312C68.3709 27.6475 66.5704 28.9554 63.7887 28.9554C61.0193 28.9426 58.3545 27.8866 56.3168 25.9944L54.2912 28.4377C56.9013 30.7004 60.2304 31.9414 63.6717 31.9345C68.605 31.9345 71.7738 29.2551 71.7738 25.1134C71.7468 21.6075 69.6943 19.7274 64.4009 18.4377ZM176.129 8.37407L169.206 19.2733L162.328 8.37407H158.313L167.397 22.4068V31.5894H170.854V22.2978L180 8.37407H176.129ZM117.947 11.5167H125.482V31.5894H128.939V11.5167H136.474V8.37407H117.956L117.947 11.5167ZM152.462 22.5249C155.937 21.553 157.863 19.1007 157.863 15.5948C157.863 11.1352 154.631 8.32865 149.419 8.32865H139.192V31.5712H142.613V23.2333H148.42L154.253 31.5894H158.25L151.949 22.6702L152.462 22.5249ZM142.604 20.2542V11.444H149.059C152.426 11.444 154.352 13.0516 154.352 15.84C154.352 18.6284 152.291 20.2542 149.095 20.2542H142.604Z" fill="black" style="fill:black;fill-opacity:1;"/>
</svg>
