<?xml version="1.0" encoding="UTF-8"?><!DOCTYPE svg PUBLIC "-//W3C//DTD SVG 1.1//EN" "http://www.w3.org/Graphics/SVG/1.1/DTD/svg11.dtd"><svg xmlns="http://www.w3.org/2000/svg" xmlns:xlink="http://www.w3.org/1999/xlink"><defs>
        <path id="a" d="M1017.003 580.949h11.925v-11.96h68.142v11.96h11.924v58.082h-11.924v11.96h-68.142v-11.96h-11.925zm34.07 58.082h23.85V580.95h-23.85z"/>
        <path id="b" d="M914.994 568.988h80.083v11.96h-46.005v23.917h46.005v11.958h11.927v22.208h-11.927v11.96h-68.156v-11.96h-11.927v-11.955h34.078v11.955h23.854v-22.208h-57.932z"/>
        <path id="c" d="M823 592v-11h11v-12h60v12h11v23h-12v12h12v23h-11v12h-60v-11h-11v-24h11v23h36v-23h-23v-12h23v-23h-35v11z"/>
    
        <path id="a" d="M1135.003 1947.949h11.925v-11.96h68.142v11.96h11.924v58.082h-11.924v11.96h-68.142v-11.96h-11.925zm34.07 58.082h23.85v-58.082h-23.85z"/>
        <path id="b" d="M1237.003 1947.949h11.925v-11.96h68.141v11.96h11.925v58.082h-11.925v11.96h-68.141v-11.96h-11.925zm34.07 58.082h23.85v-58.082h-23.85z"/>
        <path id="c" d="M1032.994 1935.989h80.083v11.96h-46.005v23.917h46.005v11.957h11.927v22.208h-11.927v11.96h-68.156v-11.96h-11.927v-11.955h34.078v11.955h23.854v-22.208h-57.932z"/>
    
        <path id="a" d="M465 639v-58h12v-12h70v12h12v11h-12v-11h-47v23h47v12h12v23h-12v12h-70v-12zm59 0v-23h-24v23z"/>
    
        <path id="a" d="M1423 8154v-6h6v6zm-6-6v-6h6v6zm0 12v-6h6v6zm-6 6v-6h6v6zm0-24v-6h6v6z"/>
    
        <path id="a" d="M1308 8154v-6h6v6zm6-6v-6h6v6zm0 12v-6h6v6zm6 6v-6h6v6zm0-24v-6h6v6z"/>
    
        <style>
            .cls-1{fill:#fff}
        </style>
    
        <style>
            .cls-1{fill:#fff}
        </style>
    </defs><symbol id="icon-16" viewBox="0 0 151 82">
    <style>
        .st0{fill:#fef502}
    </style>
    <g transform="translate(-414 -523)">
        <path id="s3zea" d="M471 593v-58h12v-12h70v12h12v11h-12v-11h-47v23h47v12h12v23h-12v12h-70v-12h-12zm59 0v-23h-24v23h24z"/>
    </g>
    <g transform="translate(-414 -523)">
        <path id="s3zeb" d="M426 605h35v-82h-47v12h12v70z"/>
    </g>
</symbol><symbol id="icon-2" viewBox="0 0 92 82">
    <style>
        .st0{fill:#ff3586}.st1{fill:#fef502}
    </style>
    <g transform="translate(-1033 -1583)">
        <path id="a" d="M1033 1606.9v-12h11.9v-12h68.1v12h11.9v23.9H1113v12h-46v22.2h57.9v12h-92v-34.2h11.9v-12h46V1595H1067v12h-34z"/>
    </g>
    <path d="M1033 1606.9v-12h11.9v-12h68.1v12h11.9v23.9H1113v12h-46v22.2h57.9v12h-92v-34.2h11.9v-12h46V1595H1067v12h-34z" transform="translate(-1033 -1583)"/>
</symbol><symbol id="icon-35" viewBox="0 0 249 82">
    <style>
        .st0{fill:#ff3586}.st1{fill:#fef502}
    </style>
    <g transform="translate(-829 -523)">
        <path id="fzqea" d="M921 523h80.1v12h-46v23.9h46v12h11.9V593h-11.9v12h-68.2v-12H921v-12h34.1v12H979v-22.2h-58V523z"/>
    </g>
    <path d="M921 523h80.1v12h-46v23.9h46v12h11.9V593h-11.9v12h-68.2v-12H921v-12h34.1v12H979v-22.2h-58V523z" transform="translate(-829 -523)"/>
    <g transform="translate(-829 -523)">
        <path id="fzqeb" d="M829 546v-11h11v-12h60v12h11v23h-12v12h12v23h-11v12h-60v-11h-11v-24h11v23h36v-23h-23v-12h23v-23h-35v11h-12z"/>
    </g>
    <g>
        <g transform="translate(-829 -523)">
            <path id="fzqec" d="M1045 578v-22h-22v-11h22v-22h11v22h22v11h-22v22h-11z"/>
        </g>
    </g>
</symbol><symbol id="icon-350" viewBox="0 0 286 82">
    
    <g transform="translate(-823 -569)">
        <use xlink:href="#a"/>
        <use xlink:href="#a"/>
    </g>
    <g transform="translate(-823 -569)">
        <use xlink:href="#b"/>
        <use xlink:href="#b"/>
    </g>
    <use xlink:href="#c" transform="translate(-823 -569)"/>
</symbol><symbol id="icon-500" viewBox="0 0 296 82">
    
    <g transform="translate(-1033 -1936)">
        <use xlink:href="#a"/>
        <use xlink:href="#a"/>
    </g>
    <g transform="translate(-1033 -1936)">
        <use xlink:href="#b"/>
        <use xlink:href="#b"/>
    </g>
    <g transform="translate(-1033 -1936)">
        <use xlink:href="#c"/>
        <use xlink:href="#c"/>
    </g>
</symbol><symbol id="icon-6" viewBox="0 0 94 82">
    
    <use xlink:href="#a" transform="translate(-465 -569)"/>
</symbol><symbol id="icon-arrow-big" viewBox="0 0 122.4 121.9">
    <style>
        .st0{fill:#212121}
    </style>
    <path d="M16.7 121.9L0 105.3 83.3 22l-68.6.2L36.6.2l85.8-.2-.2 85.8-21.9 21.9.2-69.5-83.8 83.7z"/>
</symbol><symbol id="icon-arrow-next" viewBox="0 0 18 30">
    
    <g transform="translate(-1411 -8136)">
        <use xlink:href="#a"/>
        <use xlink:href="#a"/>
    </g>
</symbol><symbol id="icon-arrow-prev" viewBox="0 0 18 30">
    
    <g transform="translate(-1308 -8136)">
        <use xlink:href="#a"/>
        <use xlink:href="#a"/>
    </g>
</symbol><symbol id="icon-arrow-right" viewBox="0 0 32 32">
    <path clip-rule="evenodd" d="M32 16.009c0-.267-.11-.522-.293-.714l-9.899-9.999a.993.993 0 0 0-1.414 0 1.016 1.016 0 0 0 0 1.428l8.193 8.275H1c-.552 0-1 .452-1 1.01s.448 1.01 1 1.01h27.586l-8.192 8.275a1.017 1.017 0 0 0 0 1.428.994.994 0 0 0 1.414 0l9.899-9.999c.187-.189.29-.449.293-.714z" fill-rule="evenodd"/>
</symbol><symbol id="icon-arrow2-l" viewBox="0 0 10.3 17.2">
    <style>
        .st0{fill:#66b32e}
    </style>
    <path transform="rotate(-45.001 5.171 12.067)" d="M4 6h2.4v12.2H4z"/>
    <path transform="rotate(-45.001 5.171 5.171)" d="M-.9 4h12.2v2.4H-.9z"/>
</symbol><symbol id="icon-arrow2-r" viewBox="0 0 10.3 17.2">
    <style>
        .st0{fill:#66b32e}
    </style>
    <path transform="rotate(-45.001 5.171 5.171)" d="M4-.9h2.4v12.2H4z"/>
    <path transform="rotate(-45.001 5.171 12.067)" d="M-.9 10.8h12.2v2.4H-.9z"/>
</symbol><symbol id="icon-bluesky" viewBox="0 0 576 512">
    <path d="M123.6 34.5C190 84.6 261.5 186 287.8 240.5 314 186 385.5 84.5 452 34.5c48-36.1 125.6-64.1 125.6 24.9 0 17.8-10.1 149.2-16.1 170.5-20.7 74.2-96.1 93.1-163.1 81.6 117.2 20 147 86.3 82.6 152.6-122.3 125.9-175.8-31.6-189.5-72-2.5-7.5-3.7-10.9-3.7-7.9 0-3.1-1.2.4-3.7 7.9-13.7 40.4-67.2 197.9-189.5 72-64.4-66.3-34.6-132.6 82.6-152.6-67 11.4-142.4-7.5-163.1-81.7C8.1 208.5-2 77.1-2 59.3c0-88.9 77.7-61 125.6-24.9z"/>
</symbol><symbol id="icon-cam" viewBox="0 0 17 14.3">
    <path d="M1.1 5.8h1.5C1.7 5.5 1 4.6 1 3.6c0-1.3 1-2.3 2.3-2.3 1 0 1.8.6 2.1 1.4C5.5 1.2 6.8 0 8.3 0c1.6 0 3 1.3 3 2.9 0 1.3-.9 2.5-2.1 2.8h2.2c.6 0 1.1.5 1.1 1.1v1.7L17 5.2v9.2L12.4 11v1.7c0 .6-.5 1.1-1.1 1.1H1.1c-.6 0-1.1-.5-1.1-1.1V6.8c0-.5.5-1 1.1-1zm2.8 0h3.6c-.9-.3-1.7-1-2-1.9-.1.9-.7 1.6-1.6 1.9z"/>
</symbol><symbol id="icon-dis" viewBox="0 0 28 28">
    <path d="M23 5.8c2.9 4.3 4.4 9.2 3.8 14.8v.1c-2.2 1.6-4.4 2.6-6.5 3.3h-.1c-.5-.7-.9-1.4-1.3-2.2v-.1c.7-.3 1.4-.6 2-1 .1 0 .1-.1 0-.1-.1-.1-.3-.2-.4-.3h-.1c-4.2 1.9-8.8 1.9-13.1 0h-.1c-.1.1-.3.2-.4.3v.1c.6.4 1.3.7 2 1 0 0 .1.1 0 .1-.4.8-.8 1.5-1.3 2.2h-.1c-2.1-.7-4.3-1.6-6.5-3.3v-.1c-.5-4.8.5-9.8 3.8-14.8 1.9-.8 3.7-1.4 5.6-1.7h.1c.2.4.5.9.7 1.4 2-.3 3.9-.3 5.9 0 .2-.4.4-.9.7-1.4h.1c1.8.3 3.6.9 5.2 1.7 0-.1 0 0 0 0zM12 15c0-1.4-1-2.6-2.3-2.6-1.3 0-2.3 1.2-2.3 2.6 0 1.4 1.1 2.6 2.3 2.6 1.3 0 2.3-1.2 2.3-2.6zm8.7 0c0-1.4-1-2.6-2.3-2.6-1.4 0-2.4 1.1-2.4 2.6 0 1.4 1.1 2.6 2.3 2.6 1.3 0 2.4-1.2 2.4-2.6z"/>
</symbol><symbol id="icon-discord" viewBox="0 0 30 20.5">
    <style>
        .st0{fill:#5c6bc0}.st1{fill:#7785f2}
    </style>
    <path d="M19.2 0h.1z"/>
    <path d="M6 16.2c6.8 2.7 12.4 3.4 18.9-.7 0 0-1.2 1.9-4.6 2.9.7.9 1.6 2 1.6 2 5.7-.1 7.9-3.7 8-3.5C30 9 26.2 2.6 26.2 2.6 22.9.1 19.8 0 19.2 0l-.4.4c4.3 1.2 6.4 3.1 6.4 3.1C14-2 4.8 3.4 4.6 3.4c0 0 2.1-2 6.6-3.1l-.3-.3S7.4-.1 3.7 2.6C3.7 2.6 0 9 0 16.9c0 0 2.1 3.5 7.7 3.7 0 0 .8-1.1 1.7-2-3.2-1-4.4-2.9-4.4-2.9l1 .5zm4.2-1.8c-1.4 0-2.6-1.2-2.6-2.7 0-1.5 1.2-2.7 2.6-2.7 1.4 0 2.6 1.2 2.6 2.7 0 1.5-1.1 2.7-2.6 2.7zm9.4 0c-1.4 0-2.6-1.2-2.6-2.7 0-1.5 1.2-2.7 2.6-2.7 1.5 0 2.6 1.2 2.6 2.7 0 1.5-1.1 2.7-2.6 2.7z"/>
</symbol><symbol id="icon-equal" viewBox="0 0 24 24">
    
    <path d="M0 3h24v6H0z"/>
    <path d="M0 15h24v6H0z"/>
</symbol><symbol id="icon-face" viewBox="0 0 70.4 90.2">
    <style>
        .st0{fill-rule:evenodd;clip-rule:evenodd}
    </style>
    <path d="M35.6 66.3c-3.5 0-6.3-2.8-6.3-6.3v-.2h-6.4v.2c0 7 5.7 12.6 12.6 12.6S48.2 67 48.2 60v-.2h-6.4v.2c0 3.5-2.8 6.3-6.2 6.3z"/>
    <path d="M38.2 32.5h17.6v6.1H38.2z"/>
    <path d="M8 19.7c17.6-5.6 24.2-9 27.2-10.7 3 1.7 9.7 5.2 27.2 10.7 0 2 1.1 62.5-27.2 62.5S8 21.7 8 19.7zm27.2 70.5c36.6.1 35.2-73.8 35.2-76.3C47.7 6.6 39.1 2.2 35.2 0 31.3 2.2 22.7 6.6 0 13.9c0 2.5-1.4 76.4 35.2 76.3z"/>
    <path d="M23.3 26.7c-5.1 0-9.1 4.1-9.1 9.1s4.1 9.1 9.1 9.1 9.1-4.1 9.1-9.1-4-9.1-9.1-9.1zm-2.9 9.1c0-1.6 1.3-2.9 2.9-2.9 1.6 0 2.9 1.3 2.9 2.9s-1.3 2.9-2.9 2.9c-1.6-.1-2.9-1.3-2.9-2.9z"/>
</symbol><symbol id="icon-fb" viewBox="0 0 28 28">
    <path d="M18 14h-2.5v9h-3.8v-9H9.5v-3h2.3V9.2C11.8 6.6 12.9 5 16 5h2.6v3h-1.7c-1.2 0-1.3.4-1.3 1.3V11h3l-.6 3z"/>
</symbol><symbol id="icon-gh" viewBox="0 0 28 28">
    <path d="M13.4 4c-4.6.5-8.4 4.3-8.9 9-.5 4.8 2.2 9.2 6.3 10.8.3.1.6-.1.6-.5v-1.7s-.4.1-.9.1c-1.4 0-2-1.2-2.1-2-.1-.4-.3-.7-.6-1-.3-.1-.4-.1-.4-.2 0-.2.3-.2.4-.2.6 0 1.1.7 1.3 1 .5.8 1.1 1 1.4 1 .4 0 .7-.1.9-.2.1-.7.4-1.4 1-1.9-2.3-.5-4-1.9-4-4.1 0-1.1.5-2.3 1.2-3.1-.1-.2-.2-.7-.2-1.4 0-.4 0-1 .3-1.7 0 0 1.4 0 2.8 1.3.6-.1 1.3-.2 2-.2s1.4.1 2 .3C17.8 8 19.3 8 19.3 8c.2.6.2 1.2.2 1.7 0 .8-.1 1.2-.2 1.4.7.8 1.2 1.9 1.2 3.1 0 2.3-1.7 3.6-4 4.1.6.5 1 1.4 1 2.4v2.7c0 .3.3.6.7.5 3.7-1.5 6.3-5.3 6.3-9.6 0-6.2-5.1-11-11.1-10.3z"/>
</symbol><symbol id="icon-gn" viewBox="0 0 234.5 40.35">
    <path d="M34.39 36.16a22.68 22.68 0 0 1-13.58 4.2 23.57 23.57 0 0 1-8.6-1.48 19.64 19.64 0 0 1-6.55-4.11 18.36 18.36 0 0 1-4.2-6.31 21.67 21.67 0 0 1-1.46-8 22.34 22.34 0 0 1 1.43-8.11 17.81 17.81 0 0 1 4-6.34 18.81 18.81 0 0 1 6.35-4.08A22.92 22.92 0 0 1 20.16.47a23.67 23.67 0 0 1 4.4.37 23.07 23.07 0 0 1 3.74 1 17.66 17.66 0 0 1 5.89 3.62l-1.8 2.91a1.77 1.77 0 0 1-1.11.83 2 2 0 0 1-1.49-.31c-.51-.31-1.06-.63-1.66-1a12.24 12.24 0 0 0-2-1 13.84 13.84 0 0 0-2.63-.74 18.35 18.35 0 0 0-3.54-.29 14.48 14.48 0 0 0-5.57 1 11.51 11.51 0 0 0-4.23 2.88 12.5 12.5 0 0 0-2.72 4.59 17.12 17.12 0 0 0-1 6 18.33 18.33 0 0 0 1 6.22 13.31 13.31 0 0 0 2.86 4.68 12 12 0 0 0 4.49 2.91 15.83 15.83 0 0 0 5.83 1 16.42 16.42 0 0 0 4.32-.51 19.14 19.14 0 0 0 3.72-1.43v-7.76h-5.42a1.42 1.42 0 0 1-1-.34 1.18 1.18 0 0 1-.34-.88v-3.6h12.52zm13.07-23.89v27.65h-5.83V12.27zm1-8.36a3.73 3.73 0 0 1-.31 1.48 4.29 4.29 0 0 1-.86 1.23 4.67 4.67 0 0 1-1.26.86 4 4 0 0 1-1.54.31A3.65 3.65 0 0 1 43 7.48a4 4 0 0 1-1.2-.86 3.91 3.91 0 0 1-1.14-2.71 3.77 3.77 0 0 1 .31-1.51 4.18 4.18 0 0 1 .83-1.26A3.92 3.92 0 0 1 43 .31 3.65 3.65 0 0 1 44.49 0a4 4 0 0 1 1.54.31 4.57 4.57 0 0 1 1.26.83 4.88 4.88 0 0 1 .86 1.26 3.77 3.77 0 0 1 .31 1.51zm15.52 36.44a7.07 7.07 0 0 1-5.32-1.94 7.59 7.59 0 0 1-1.86-5.45V16.83h-3a1.27 1.27 0 0 1-.86-.31 1.19 1.19 0 0 1-.34-.94v-2.34l4.49-.66 1.26-8a1.74 1.74 0 0 1 .46-.77 1.42 1.42 0 0 1 .89-.26h3v9.08h7.69v4.2h-7.75v15.7a3.23 3.23 0 0 0 .74 2.28 2.58 2.58 0 0 0 1.94.8 3.46 3.46 0 0 0 1.17-.2 4.83 4.83 0 0 0 .86-.37l.6-.37a.92.92 0 0 1 .51-.17.87.87 0 0 1 .77.54l1.74 2.83a9.1 9.1 0 0 1-3.2 1.83 11.58 11.58 0 0 1-3.8.66zM82.02.88a5.3 5.3 0 0 1 .71 0 3.46 3.46 0 0 1 .51.14 1.28 1.28 0 0 1 .46.34 3 3 0 0 1 .46.54l21.53 27.57c-.06-.57-.09-1.11-.11-1.66s-.06-1.06-.06-1.51V.88h5.57v39h-3.23a2.82 2.82 0 0 1-1.26-.26 3 3 0 0 1-1-.86L84.1 11.19c.06.54.11 1.06.14 1.57s0 1 0 1.43v25.69h-5.6v-39zm54.4 39.04a2.51 2.51 0 0 1-1.26-.26 2 2 0 0 1-.74-1.06l-.57-2.25a21.25 21.25 0 0 1-2.09 1.71 13.56 13.56 0 0 1-2.14 1.26 10.27 10.27 0 0 1-2.34.77 14.18 14.18 0 0 1-2.8.26 10 10 0 0 1-3.12-.46 6.76 6.76 0 0 1-2.52-1.4 6.91 6.91 0 0 1-1.69-2.31 8.26 8.26 0 0 1-.6-3.25 6.33 6.33 0 0 1 .86-3.14 7.86 7.86 0 0 1 2.83-2.71 18.11 18.11 0 0 1 5.17-2 37.57 37.57 0 0 1 7.95-.88v-1.86a6.57 6.57 0 0 0-1.29-4.45 4.67 4.67 0 0 0-3.74-1.46 9 9 0 0 0-2.83.4 16.06 16.06 0 0 0-2 .91c-.57.34-1.06.63-1.49.91a2.52 2.52 0 0 1-1.4.43 1.67 1.67 0 0 1-1-.31 2.65 2.65 0 0 1-.71-.77l-1.06-1.88a15.91 15.91 0 0 1 11.21-4.37 11.12 11.12 0 0 1 4.26.74 8.8 8.8 0 0 1 3.12 2.2 9.64 9.64 0 0 1 1.92 3.34 13 13 0 0 1 .69 4.31v17.58zm-10.18-3.65a8.35 8.35 0 0 0 3.92-.86 12.33 12.33 0 0 0 3.2-2.43v-5.17a39.45 39.45 0 0 0-5.26.51 15.2 15.2 0 0 0-3.49 1 5 5 0 0 0-1.92 1.46 3.21 3.21 0 0 0-.57 1.83 3.64 3.64 0 0 0 .31 1.66 2.69 2.69 0 0 0 .86 1.14 3.36 3.36 0 0 0 1.32.66 5.79 5.79 0 0 0 1.63.2zm28.1 4.08a7 7 0 0 1-5.29-1.94 7.47 7.47 0 0 1-1.86-5.45V16.83h-3.05a1.25 1.25 0 0 1-.83-.31 1.11 1.11 0 0 1-.37-.94v-2.34l4.49-.66 1.29-8a1.51 1.51 0 0 1 .46-.77 1.39 1.39 0 0 1 .86-.26h3v9.08h7.69v4.2h-7.69v15.7a3.1 3.1 0 0 0 .74 2.28 2.54 2.54 0 0 0 1.94.8 3.59 3.59 0 0 0 1.17-.2 4.5 4.5 0 0 0 .83-.37c.26-.14.46-.26.63-.37a.91.91 0 0 1 .49-.17.87.87 0 0 1 .8.54l1.74 2.83a9 9 0 0 1-3.23 1.83 11.45 11.45 0 0 1-3.8.66zm18.33-28.08v27.65h-5.83V12.27zm1-8.36a3.3 3.3 0 0 1-.31 1.48 3.4 3.4 0 0 1-.86 1.23 4.27 4.27 0 0 1-1.26.86 4 4 0 0 1-1.54.31 3.61 3.61 0 0 1-1.46-.31 3.8 3.8 0 0 1-1.23-.86 4.22 4.22 0 0 1-.83-1.23 3.73 3.73 0 0 1 0-3 4.8 4.8 0 0 1 .83-1.26 3.73 3.73 0 0 1 1.23-.83 3.61 3.61 0 0 1 1.46-.31 4 4 0 0 1 1.54.31 4.18 4.18 0 0 1 1.26.83 3.78 3.78 0 0 1 .86 1.26 3.34 3.34 0 0 1 .31 1.51zm18.32 7.9a14.48 14.48 0 0 1 5.57 1 11.73 11.73 0 0 1 4.23 2.83 12.59 12.59 0 0 1 2.69 4.48 16.85 16.85 0 0 1 1 5.91 16.63 16.63 0 0 1-1 5.91 12.35 12.35 0 0 1-2.69 4.48 11.86 11.86 0 0 1-4.23 2.88 16.05 16.05 0 0 1-11.15 0 12.23 12.23 0 0 1-4.26-2.88 12.81 12.81 0 0 1-2.72-4.48 17.31 17.31 0 0 1-.94-5.91 17.54 17.54 0 0 1 .94-5.91 13.08 13.08 0 0 1 2.72-4.48 12.09 12.09 0 0 1 4.26-2.83 14.48 14.48 0 0 1 5.57-1zm0 23.94a6.46 6.46 0 0 0 5.6-2.51c1.2-1.66 1.83-4.05 1.83-7.16a12.26 12.26 0 0 0-1.83-7.19 7.48 7.48 0 0 0-11.23 0c-1.23 1.68-1.86 4.08-1.86 7.19s.63 5.51 1.86 7.16a6.51 6.51 0 0 0 5.63 2.51zm18.87 4.17V12.27h3.54a1.43 1.43 0 0 1 1.52 1.11l.4 2.57a16.82 16.82 0 0 1 1.83-1.68 13.18 13.18 0 0 1 2.06-1.31 12.38 12.38 0 0 1 2.32-.83 11.38 11.38 0 0 1 2.69-.31 9.72 9.72 0 0 1 4 .77 8.4 8.4 0 0 1 2.92 2.14 9.44 9.44 0 0 1 1.77 3.31 14.62 14.62 0 0 1 .6 4.28v17.61h-5.83V22.31a6.45 6.45 0 0 0-1.29-4.34 4.82 4.82 0 0 0-3.92-1.54 7.51 7.51 0 0 0-3.63.88 13.07 13.07 0 0 0-3.14 2.45v20.15z"/>
</symbol><symbol id="icon-help" viewBox="0 0 30 30">
    <path d="M26.3 8.5c-1.2-2-2.7-3.6-4.7-4.7C19.5 2.6 17.4 2 15 2c-2.4 0-4.5.6-6.5 1.7-2 1.2-3.6 2.7-4.7 4.7C2.6 10.5 2 12.6 2 15c0 2.4.6 4.5 1.7 6.5 1.2 2 2.7 3.6 4.7 4.7 2 1.2 4.2 1.7 6.5 1.7s4.5-.6 6.5-1.7c2-1.2 3.6-2.7 4.7-4.7 1.2-2 1.7-4.2 1.7-6.5.2-2.4-.4-4.5-1.5-6.5zm-9.1 14.6c0 .2-.1.3-.2.4-.1.1-.2.2-.4.2h-3.3c-.2 0-.3-.1-.4-.2-.1-.1-.2-.2-.2-.4v-3.3c0-.2.1-.3.2-.4.1-.1.2-.2.4-.2h3.3c.2 0 .3.1.4.2.1.1.2.2.2.4v3.3zm4.1-10c-.1.4-.3.8-.5 1-.2.3-.4.5-.8.8-.3.3-.6.5-.8.6-.2.1-.5.3-.8.5-.4.2-.7.5-.9.8-.2.3-.4.6-.4.8 0 .2-.1.3-.2.4-.1.1-.2.2-.4.2h-3.2c-.2 0-.3-.1-.4-.2-.1-.1-.2-.2-.2-.4V17c0-.8.3-1.5.9-2.1.6-.7 1.2-1.1 2-1.5.5-.2.9-.5 1.2-.8.2-.3.3-.6.3-1s-.2-.7-.6-1c-.4-.3-.9-.4-1.4-.4-.6 0-1.1.1-1.5.4-.4.3-.9.8-1.5 1.6-.1.1-.2.2-.4.2-.1 0-.2 0-.3-.1l-2.2-1.7c-.3-.2-.3-.4-.1-.7 1.4-2.4 3.5-3.6 6.3-3.6 1 0 1.9.2 2.9.7.9.5 1.7 1.1 2.3 2 .6.8.9 1.8.9 2.8 0 .4-.1.9-.2 1.3z"/>
</symbol><symbol id="icon-in" viewBox="0 0 510 510">
    <path d="M459 0H51C22.95 0 0 22.95 0 51v408c0 28.05 22.95 51 51 51h408c28.05 0 51-22.95 51-51V51c0-28.05-22.95-51-51-51zM153 433.5H76.5V204H153v229.5zm-38.25-272.85c-25.5 0-45.9-20.4-45.9-45.9s20.4-45.9 45.9-45.9 45.9 20.4 45.9 45.9-20.4 45.9-45.9 45.9zM433.5 433.5H357V298.35c0-20.399-17.85-38.25-38.25-38.25s-38.25 17.851-38.25 38.25V433.5H204V204h76.5v30.6c12.75-20.4 40.8-35.7 63.75-35.7 48.45 0 89.25 40.8 89.25 89.25V433.5z" data-original="#000000"/>
</symbol><symbol id="icon-instagram" viewBox="0 0 14 15">
    <path d="M6.998 4.888a2.34 2.34 0 0 0-2.334 2.338 2.34 2.34 0 0 0 2.334 2.337 2.34 2.34 0 0 0 2.335-2.337 2.34 2.34 0 0 0-2.335-2.338zM14 7.226c0-.968.01-1.927-.045-2.893-.054-1.123-.31-2.119-1.13-2.94C12.004.572 11.01.318 9.89.264 8.923.208 7.965.217 7 .217c-.967 0-1.925-.009-2.89.046-1.12.054-2.115.31-2.934 1.13C.354 2.217.1 3.21.046 4.334-.008 5.3.001 6.26.001 7.226c0 .966-.01 1.927.045 2.893.054 1.122.31 2.118 1.13 2.939.82.822 1.814 1.077 2.935 1.131.966.054 1.924.046 2.889.046.967 0 1.925.008 2.89-.046 1.12-.054 2.115-.31 2.934-1.131.822-.822 1.076-1.817 1.13-2.939.056-.966.045-1.925.045-2.893zm-7 3.596a3.589 3.589 0 0 1-3.592-3.596 3.589 3.589 0 0 1 3.591-3.597 3.589 3.589 0 0 1 3.592 3.597 3.589 3.589 0 0 1-3.592 3.596zm3.738-6.5a.838.838 0 0 1-.839-.84.838.838 0 1 1 1.614.322.84.84 0 0 1-.775.518z"/>
</symbol><symbol id="icon-link-external" viewBox="0 0 21 20">
    <path d="M18 7.5v-5m0 0h-5m5 0L10.5 10M8.833 2.5H7c-1.4 0-2.1 0-2.635.272a2.5 2.5 0 0 0-1.093 1.093C3 4.4 3 5.1 3 6.5v7c0 1.4 0 2.1.272 2.635a2.5 2.5 0 0 0 1.093 1.092C4.9 17.5 5.6 17.5 7 17.5h7c1.4 0 2.1 0 2.635-.273a2.5 2.5 0 0 0 1.092-1.092C18 15.6 18 14.9 18 13.5v-1.833" stroke-width="2"/>
</symbol><symbol id="icon-mastodon" viewBox="0 0 24 24">
    <path d="M1.004 7.879c0 6.197-.347 13.894 5.559 15.486 2.132.574 3.964.696 5.438.61 2.674-.15 4.175-.969 4.175-.969l-.09-1.977s-1.911.61-4.059.54c-2.127-.075-4.37-.235-4.717-2.892a5.514 5.514 0 0 1-.047-.745c4.507 1.12 8.349.488 9.408.359 2.954-.359 5.528-2.212 5.855-3.905.515-2.667.474-6.508.474-6.508 0-5.206-3.353-6.733-3.353-6.733-3.291-1.537-12.029-1.521-15.288 0-.002.002-3.355 1.528-3.355 6.734zm4.923-2.667c1.363-1.548 4.201-1.65 5.465.327l.611 1.044.611-1.044c1.269-1.987 4.112-1.864 5.465-.327 1.248 1.463.969 2.838.969 9.373H16.593V8.469c0-2.662-3.369-2.764-3.369.369v3.348h-2.437V8.838c0-3.133-3.369-3.031-3.369-.369v6.117H4.959c0-6.54-.274-7.922.968-9.374z"/>
</symbol><symbol id="icon-med" viewBox="0 0 28 28">
    <path d="M15.6 14c0 3.9-3.1 7-7 7s-7-3.1-7-7 3.1-7 7-7 7 3.1 7 7"/>
    <path d="M23.2 14c0 3.6-1.6 6.6-3.5 6.6s-3.5-3-3.5-6.6 1.6-6.6 3.5-6.6 3.5 3 3.5 6.6"/>
    <path d="M26.3 14c0 3.3-.5 5.9-1.2 5.9s-1.2-2.6-1.2-5.9.5-5.9 1.2-5.9 1.2 2.6 1.2 5.9"/>
</symbol><symbol id="icon-mini-qrcode" viewBox="0 0 18.8 18.8">
    <style>
        .st0{fill:#fff}
    </style>
    <path d="M0 0h18.8v6.3H0z"/>
    <path d="M0 12.5h6.3v6.3H0z"/>
    <path d="M6.3 6.3h6.3v6.3H6.3z"/>
    <path d="M12.5 12.5h6.3v6.3h-6.3z"/>
</symbol><symbol id="icon-p-close" viewBox="0 0 14 14">
    <path d="M1 13L13 1M1 1l12 12" stroke-width="2" stroke-linecap="round" stroke-linejoin="round"/>
</symbol><symbol id="icon-p-marker" viewBox="0 0 28 35">
    <path fill-rule="evenodd" clip-rule="evenodd" d="M23.9 4.48c5.467 5.467 5.467 14.331 0 19.798l-9.9 9.9-9.9-9.9c-5.467-5.467-5.467-14.331 0-19.799 5.468-5.467 14.332-5.467 19.8 0zM14 18.378a4 4 0 1 0 0-8 4 4 0 0 0 0 8z"/>
</symbol><symbol id="icon-p-notification" viewBox="0 0 18 22">
    <path d="M0 19v-2.167s2.272-.109 2.272-2.186V7.733S2.25 2 8.685 2c5.674 0 7.057 3.167 7.057 5.525v7.507s-.17 1.81 2.258 1.81V19H0z"/>
    <path d="M10 3V1.109c0-.294-.105-.576-.293-.784A.953.953 0 0 0 9 0a.953.953 0 0 0-.707.325C8.105.533 8 .815 8 1.109v1.855"/>
    <path d="M11 20a2.144 2.144 0 0 1-.618 1.42c-.372.372-.867.58-1.382.58-.515 0-1.01-.208-1.382-.58A2.143 2.143 0 0 1 7 20"/>
</symbol><symbol id="icon-p-stars" viewBox="0 0 24 27">
    <path d="M13.375 5c-1 6.5-6.667 8.958-9.375 9.375V15c6.5 1 8.958 7.083 9.375 10H14c1.5-7.5 7.083-9.792 10-10v-.625c-7-.5-9.375-6.458-10-9.375h-.625z"/>
    <path d="M4.281 20c-.35 2.275-2.333 3.135-3.281 3.281v.219c2.275.35 3.135 2.48 3.281 3.5H4.5c.525-2.625 2.48-3.427 3.5-3.5v-.219c-2.45-.175-3.281-2.26-3.5-3.281h-.219z"/>
    <path d="M4.688 0C4.188 3.25 1.353 4.48 0 4.688V5c3.25.5 4.48 3.542 4.688 5H5c.75-3.75 3.542-4.896 5-5v-.313C6.5 4.438 5.312 1.458 5 0h-.313z"/>
</symbol><symbol id="icon-perks" viewBox="0 0 406.2 406.2">
    <path d="M225.1 240.4V392h124.7c16.2 0 29.4-13.1 29.4-29.4V240.4H225.1z"/>
    <path d="M181 240.4H27v122.3c0 16.2 13.2 29.4 29.4 29.4H181V240.4zM67 361.2c-6.1 0-11-4.9-11-11V289c0-6.1 4.9-11 11-11s11 4.9 11 11v61.2c.1 6.1-4.9 11-11 11z"/>
    <path d="M359.4 125.4h-55.1c7.6-3.7 14-7.4 17.9-11.3 22.7-22.7 22.7-59.5 0-82.3-11.4-11.4-26.3-17-41.1-17-14.9 0-29.8 5.7-41.1 17-9.4 9.4-18.5 32.7-25.9 56.7-3.5-.9-7-1.6-10.8-1.6-3.7 0-7.3.7-10.7 1.6-7.4-24.2-16.6-47.8-26.1-57.3-11.4-11.4-26.2-17-41.1-17-14.9 0-29.8 5.7-41.1 17-22.7 22.7-22.7 59.6 0 82.3 4.1 4.1 10.9 8.1 19.1 11.9H46.8c-16.2 0-29.3 13.1-29.3 29.3v25c0 16.2 13.1 29.3 29.3 29.3H181v-82.5h44.1V209h134.3c16.2 0 29.3-13.1 29.3-29.3v-25c.1-16.2-13.1-29.3-29.3-29.3zm-98.8-72.7c5.4-5.4 12.7-8.4 20.3-8.4 7.7 0 14.9 3 20.4 8.4 5.4 5.4 8.4 12.7 8.4 20.3s-3 14.9-8.4 20.3c-6.1 5.7-29.9 14.7-59.3 23-.8-2.9-2-5.5-3.4-8.1 8.1-27.7 16.6-49.7 22-55.5zM104.8 52c5.4-5.4 12.7-8.4 20.3-8.4 7.7 0 14.9 3 20.3 8.4 5.5 5.9 14 28.2 22.1 56.1-1.3 2.4-2.4 4.9-3.2 7.6-29.5-8.3-53.5-17.3-59.6-23-11.1-11.2-11.1-29.4.1-40.7z"/>
</symbol><symbol id="icon-play-video" viewBox="0 0 149 113">
    <path d="M20 105V92.995H8v-81h12V0h117v11.995h12v81h-12V105zm44-24.003h13v-57H64zM90 70V59h13V46H90V35H77v35z"/>
    <path d="M0 20h4v77h12v12h113v4H12v-12H0z"/>
</symbol><symbol id="icon-plus" viewBox="0 0 24 24">
    
    <path d="M0 9h24v6H0z"/>
    <path d="M9 0h6v24H9z"/>
</symbol><symbol id="icon-portal" viewBox="0 0 28 28">
    <style>
        .st0{fill-rule:evenodd;clip-rule:evenodd}
    </style>
    <path d="M14.1 19.4c-.2 0-.5 0-.6-.1-.2-.1-.4-.2-.5-.4-.2-.2-.3-.4-.4-.5s-.1-.4-.1-.6v-.1h-1.6v.1c0 .8.4 1.6.9 2.3.6.6 1.5.9 2.3.9.8 0 1.6-.4 2.3-.9.6-.6.9-1.4.9-2.3v-.1h-1.6v.1c0 .2 0 .5-.1.6s-.2.4-.4.5-.4.3-.5.4c-.2 0-.4.1-.6.1zM11 9.3c-.5 0-.9.2-1.3.4-.4.3-.6.6-.8 1.1s-.2.9-.1 1.4c.1.5.3.9.6 1.2.4.4.7.5 1.2.6.5.1.9 0 1.4-.1.5-.2.8-.5 1.1-.8.3-.4.4-.8.4-1.3 0-.3-.1-.6-.2-.9-.1-.3-.3-.5-.5-.7-.4-.4-.5-.5-.9-.6-.4-.2-.6-.3-.9-.3zm-.7 2.4c0-.2 0-.3.1-.5.1-.1.2-.2.4-.3.1-.1.3-.1.5 0 .2 0 .3.1.4.2s.2.3.2.4v.5c-.1.1-.2.3-.3.4-.1.1-.3.1-.5.1s-.4-.1-.5-.2c-.3-.3-.3-.5-.3-.6zM7 7.5c4.5-1.4 6.2-2.3 7-2.7.7.5 2.5 1.3 7 2.7 0 .5.3 15.8-7 15.8-7.3.1-7-15.2-7-15.8zm7 17.9c9.4 0 9-18.7 9-19.4-5.8-1.8-8-3-9-3.5C13 3 10.8 4.2 5 6c0 .7-.4 19.4 9 19.4zm.7-14.6v1.5h4.5v-1.5h-4.5z"/>
</symbol><symbol id="icon-schedule" viewBox="0 0 30 29.8">
    <path d="M6.4 12.5h4.3v4.3H6.4v-4.3z"/>
    <path d="M12.9 12.5h4.3v4.3h-4.3v-4.3z"/>
    <path d="M19.4 12.5h4.3v4.3h-4.3v-4.3z"/>
    <path d="M6.4 19h4.3v4.3H6.4V19z"/>
    <path d="M12.9 19h4.3v4.3h-4.3V19z"/>
    <path d="M19.4 19h4.3v4.3h-4.3V19z"/>
    <path d="M26.2 5h-3V2.5c0-.3-.2-.5-.5-.5h-2.3c-.3 0-.5.2-.5.5V5h-9.7V2.5c0-.3-.2-.5-.5-.5H7.4c-.2 0-.5.2-.5.5V5H3.8C2.8 5 2 5.8 2 6.9V26c0 1 .8 1.8 1.8 1.8h22.3c1 0 1.8-.8 1.8-1.8V6.9C28 5.8 27.2 5 26.2 5zm-.4 20.3c0 .1-.1.2-.2.2h-21c-.1 0-.2-.1-.2-.2V10.5c0-.1.1-.2.2-.2h21c.1 0 .2.1.2.2v14.8z"/>
</symbol><symbol id="icon-site" viewBox="0 0 28 28">
    <style>
        .st0{fill-rule:evenodd;clip-rule:evenodd}
    </style>
    <path d="M20.4 7.6c-1.1-1.1-2.8-1.1-3.8 0l-1 1c-.4.4-.9.4-1.3 0s-.4-.9 0-1.3l1-1c1.8-1.8 4.6-1.8 6.4 0 1.8 1.8 1.8 4.6 0 6.4l-3.6 3.6c-1.8 1.8-4.6 1.8-6.4 0-.4-.4-.4-.9 0-1.3s.9-.4 1.3 0c1.1 1.1 2.8 1.1 3.8 0l3.6-3.6c1.1-1 1.1-2.8 0-3.8zM15 13c-1.1-1.1-2.8-1.1-3.8 0l-3.6 3.6c-1.1 1.1-1.1 2.8 0 3.8 1.1 1.1 2.8 1.1 3.8 0l1-1c.4-.4.9-.4 1.3 0s.4.9 0 1.3l-1 1c-1.8 1.8-4.6 1.8-6.4 0-1.8-1.8-1.8-4.6 0-6.4l3.6-3.6c1.8-1.8 4.6-1.8 6.4 0 .4.4.4.9 0 1.3-.4.3-.9.3-1.3 0z"/>
</symbol><symbol id="icon-sl" viewBox="0 0 28 28">
    <style>
        .st0{fill-rule:evenodd;clip-rule:evenodd}
    </style>
    <path d="M11.5 4.7c2.2-.6 5.8-1.3 7.9-.1s3.3 4.6 3.9 6.9c.6 2.2 1.3 5.9.1 7.9s-4.6 3.3-6.9 3.9c-2.2.6-5.8 1.3-7.9.1-2-1.2-3.3-4.6-3.9-6.9-.6-2.2-1.3-5.9-.1-7.9s4.7-3.3 6.9-3.9zM10.1 9c.5-.2 1.1.2 1.2.7l.4 1.3 2.8-.8-.3-1.2c-.2-.5.2-1.1.7-1.2.5-.2 1.1.2 1.2.7l.3 1.3 1.3-.4c.5-.2 1.1.2 1.2.7.2.5-.2 1.1-.7 1.2l-1.2.4.8 2.9 1.3-.3c.5-.2 1.1.2 1.2.7.2.5-.2 1.1-.7 1.2l-1.3.3.4 1.3c.2.5-.2 1.1-.7 1.2-.5.2-1.1-.2-1.2-.7l-.4-1.3-2.8.8.3 1.3c.2.5-.2 1.1-.7 1.2-.5.2-1.1-.2-1.2-.7l-.3-1.3-1.3.4c-.6.1-1.2-.2-1.4-.7-.2-.5.2-1.1.7-1.2l1.3-.4-.8-2.9-1.2.3c-.5.2-1.1-.2-1.2-.7-.2-.5.2-1.1.7-1.2l1.3-.3-.4-1.3c-.1-.6.2-1.1.7-1.3zm5.7 6.1l-.8-2.9-2.8.8.8 2.9 2.8-.8z"/>
</symbol><symbol id="icon-spatial" viewBox="0 0 18.7 30">
    <style>
        .st0{fill:url(#SVGID_1_)}.st1{fill:url(#SVGID_2_)}.st2{fill:#48b2f3}.st3{fill:#3d5bf2}.st4{fill:#099}
    </style>
    <linearGradient id="SVGID_1_" gradientUnits="userSpaceOnUse" x1="-239.302" y1="262.373" x2="-239.459" y2="262.26" gradientTransform="matrix(70.7064 -99.1267 -69.6801 -49.7024 35208.73 -10675.46)">
        <stop offset="0" stop-color="#2282ff" stop-opacity=".99"/>
        <stop offset="1" stop-color="#27e2e3"/>
    </linearGradient>
    <path d="M6.8 18.5L.5 27.4l6.3-8.9z"/>
    <linearGradient id="SVGID_2_" gradientUnits="userSpaceOnUse" x1="-239.237" y1="262.282" x2="-239.393" y2="262.17" gradientTransform="matrix(70.7064 -99.1267 -69.6801 -49.7024 35208.73 -10675.46)">
        <stop offset="0" stop-color="#2282ff" stop-opacity=".99"/>
        <stop offset="1" stop-color="#27e2e3"/>
    </linearGradient>
    <path d="M18.2 2.6l-2 2.8z"/>
    <path d="M11.2 11C8 8.7 6.6 5 7.1 1.4c-1.3.7-2.4 1.7-3.3 2.9C.7 8.7 1.7 14.9 6.1 18l.7.5.7.5c3.2 2.3 4.6 6 4 9.6 1.3-.7 2.4-1.7 3.3-2.9C18 21.3 17 15.1 12.6 12l-.7-.5-.7-.5z"/>
    <path d="M18.7 2.3l-.8-.6C14.8-.5 10.8-.6 7.7 1.1c-.6 3.6.9 7.3 4 9.6l.7.5 4.3-6 2-2.9z"/>
    <path d="M7 19.3l-.7-.5L0 27.7l.7.5c3.2 2.3 7.2 2.4 10.4.7.5-3.6-.9-7.4-4.1-9.6z"/>
</symbol><symbol id="icon-sv-grid" viewBox="0 0 359 359">
    <path d="M96.835 1.795h-82.17c-5.445 0-9.9 4.455-9.9 9.9v82.17c0 5.445 4.455 9.9 9.9 9.9h82.17c5.445 0 9.9-4.455 9.9-9.9v-82.17c0-5.445-4.455-9.9-9.9-9.9zm-8.91 83.16h-63.36v-63.36h63.36v63.36zm132.66-83.16h-82.17c-5.445 0-9.9 4.455-9.9 9.9v82.17c0 5.445 4.455 9.9 9.9 9.9h82.17c5.445 0 9.9-4.455 9.9-9.9v-82.17c0-5.445-4.455-9.9-9.9-9.9zm-8.91 83.16h-63.36v-63.36h63.36v63.36zm-114.84 41.58h-82.17c-5.445 0-9.9 4.455-9.9 9.9v82.17c0 5.445 4.455 9.9 9.9 9.9h82.17c5.445 0 9.9-4.455 9.9-9.9v-82.17c0-5.445-4.455-9.9-9.9-9.9zm-8.91 82.17h-63.36v-62.37h63.36v62.37zm132.66-82.17h-82.17c-5.445 0-9.9 4.455-9.9 9.9v82.17c0 5.445 4.455 9.9 9.9 9.9h82.17c5.445 0 9.9-4.455 9.9-9.9v-82.17c0-5.445-4.455-9.9-9.9-9.9zm-8.91 82.17h-63.36v-62.37h63.36v62.37zm132.66-206.91h-82.17c-5.445 0-9.9 4.455-9.9 9.9v82.17c0 5.445 4.455 9.9 9.9 9.9h82.17c5.445 0 9.9-4.455 9.9-9.9v-82.17c0-5.445-4.455-9.9-9.9-9.9zm-8.91 83.16h-63.36v-63.36h63.36v63.36zm8.91 41.58h-82.17c-5.445 0-9.9 4.455-9.9 9.9v82.17c0 5.445 4.455 9.9 9.9 9.9h82.17c5.445 0 9.9-4.455 9.9-9.9v-82.17c0-5.445-4.455-9.9-9.9-9.9zm-8.91 82.17h-63.36v-62.37h63.36v62.37zm-238.59 46.53h-82.17c-5.445 0-9.9 4.455-9.9 9.9v82.17c0 5.445 4.455 9.9 9.9 9.9h82.17c5.445 0 9.9-4.455 9.9-9.9v-82.17c0-5.445-4.455-9.9-9.9-9.9zm-8.91 83.16h-63.36v-63.36h63.36v63.36zm132.66-83.16h-82.17c-5.445 0-9.9 4.455-9.9 9.9v82.17c0 5.445 4.455 9.9 9.9 9.9h82.17c5.445 0 9.9-4.455 9.9-9.9v-82.17c0-5.445-4.455-9.9-9.9-9.9zm-8.91 83.16h-63.36v-63.36h63.36v63.36zm132.66-83.16h-82.17c-5.445 0-9.9 4.455-9.9 9.9v82.17c0 5.445 4.455 9.9 9.9 9.9h82.17c5.445 0 9.9-4.455 9.9-9.9v-82.17c0-5.445-4.455-9.9-9.9-9.9zm-8.91 83.16h-63.36v-63.36h63.36v63.36z" data-original="#000000"/>
</symbol><symbol id="icon-sv-list" viewBox="0 0 64 64">
    <path d="M61.52 63.98h-24.6a2.46 2.46 0 0 1-2.46-2.46v-24.6a2.46 2.46 0 0 1 2.46-2.46h24.6a2.46 2.46 0 0 1 2.46 2.46v24.6a2.46 2.46 0 0 1-2.46 2.46zm-22.14-4.92h19.68V39.38H39.38zm-12.3-29.52H2.48a2.46 2.46 0 0 1-2.46-2.46V2.48A2.46 2.46 0 0 1 2.48.02h24.6a2.46 2.46 0 0 1 2.46 2.46v24.6a2.46 2.46 0 0 1-2.46 2.46zM4.94 24.62h19.68V4.94H4.94zm56.58 4.92h-24.6a2.46 2.46 0 0 1-2.46-2.46V2.48A2.46 2.46 0 0 1 36.92.02h24.6a2.46 2.46 0 0 1 2.46 2.46v24.6a2.46 2.46 0 0 1-2.46 2.46zm-22.14-4.92h19.68V4.94H39.38zm-12.3 39.36H2.48a2.46 2.46 0 0 1-2.46-2.46v-24.6a2.46 2.46 0 0 1 2.46-2.46h24.6a2.46 2.46 0 0 1 2.46 2.46v24.6a2.46 2.46 0 0 1-2.46 2.46zM4.94 59.06h19.68V39.38H4.94z" data-original="#000000"/>
</symbol><symbol id="icon-tiktok" viewBox="0 0 13 15">
    <path d="M11.499 3.5A3.354 3.354 0 0 1 8.859.527v-.31H6.45v9.582a2.032 2.032 0 0 1-1.383 1.918 2.024 2.024 0 0 1-2.67-1.888 2.03 2.03 0 0 1 1.38-1.959c.409-.137.85-.14 1.26-.01V5.406A4.425 4.425 0 0 0 .475 7.802 4.44 4.44 0 0 0 1.26 12.9 4.429 4.429 0 0 0 8.86 9.8V4.902a5.721 5.721 0 0 0 3.34 1.07v-2.4c-.235 0-.47-.024-.701-.072z"/>
</symbol><symbol id="icon-tw" viewBox="0 0 32 32">
    <path d="M23.361 4h3.926L18.71 14.166 28.8 28h-7.9l-6.187-8.39L7.633 28H3.705l9.173-10.874L3.2 4h8.1l5.593 7.669L23.36 4zm-1.377 21.563h2.175L10.119 6.31H7.783l14.2 19.254z"/>
</symbol><symbol id="icon-yb" viewBox="0 0 28 28">
    <path d="M24.1 7.6c-.8-.9-2.3-1.3-5.1-1.3H8.9c-2.9 0-4.4.4-5.1 1.4-.8 1-.8 2.4-.8 4.4v3.8c0 3.9.9 5.8 5.9 5.8h10.2c2.4 0 3.8-.3 4.6-1.2.9-.9 1.3-2.2 1.3-4.7V12c0-2-.1-3.5-.9-4.4zm-7 6.9l-4.6 2.4c-.1.1-.2.1-.3.1-.1 0-.3 0-.4-.1-.2-.1-.3-.4-.3-.6v-4.8c0-.2.1-.5.3-.6.2-.1.5-.1.7 0l4.6 2.4c.2.1.4.4.4.6 0 .3-.1.5-.4.6z"/>
</symbol><symbol id="icon-yt-icon" viewBox="0 0 149 113">
    <style>
        .st1{fill:#fff}
    </style>
    <path id="yod7a" d="M20 105V93H8V12h12V0h117v12h12v81h-12v12H20zm44-24h13V24H64v57zm26-11V59h13V46H90V35H77v35h13z"/>
    <path id="yod7a_1_" d="M20 105V93H8V12h12V0h117v12h12v81h-12v12H20zm44-24h13V24H64v57zm26-11V59h13V46H90V35H77v35h13z"/>
    <path id="yod7b" d="M0 20h4v77h12v12h113v4H12v-12H0V20z"/>
    <path id="yod7b_1_" d="M0 20h4v77h12v12h113v4H12v-12H0V20z"/>
</symbol><symbol id="icon-yt" viewBox="0 0 28 28">
    <path d="M24.1 7.6c-.8-.9-2.3-1.3-5.1-1.3H8.9c-2.9 0-4.4.4-5.1 1.4-.8 1-.8 2.4-.8 4.4v3.8c0 3.9.9 5.8 5.9 5.8h10.2c2.4 0 3.8-.3 4.6-1.2.9-.9 1.3-2.2 1.3-4.7V12c0-2-.1-3.5-.9-4.4zm-7 6.9l-4.6 2.4c-.1.1-.2.1-.3.1-.1 0-.3 0-.4-.1-.2-.1-.3-.4-.3-.6v-4.8c0-.2.1-.5.3-.6.2-.1.5-.1.7 0l4.6 2.4c.2.1.4.4.4.6 0 .3-.1.5-.4.6z"/>
</symbol></svg>