<?xml version="1.0" encoding="UTF-8"?>
<svg width="72px" height="92px" viewBox="0 0 72 92" version="1.1" xmlns="http://www.w3.org/2000/svg" xmlns:xlink="http://www.w3.org/1999/xlink">
    <!-- Generator: Sketch 52.2 (67145) - http://www.bohemiancoding.com/sketch -->
    <title>Group 20</title>
    <desc>Created with Sketch.</desc>
    <g id="RDB-Web-Design" stroke="none" stroke-width="1" fill="none" fill-rule="evenodd">
        <g id="React-day-Berlin-2018-mob" transform="translate(-228.000000, -109.000000)">
            <g id="Group-20" transform="translate(228.000000, 109.000000)">
                <g id="Group-7" transform="translate(0.000000, 20.000000)" fill="#2700C3">
                    <rect id="Rectangle" x="70" y="40" width="2" height="2"></rect>
                    <rect id="Rectangle" x="60" y="40" width="2" height="2"></rect>
                    <rect id="Rectangle" x="70" y="50" width="2" height="2"></rect>
                    <rect id="Rectangle" x="60" y="50" width="2" height="2"></rect>
                    <rect id="Rectangle" x="70" y="20" width="2" height="2"></rect>
                    <rect id="Rectangle" x="60" y="20" width="2" height="2"></rect>
                    <rect id="Rectangle" x="70" y="30" width="2" height="2"></rect>
                    <rect id="Rectangle" x="60" y="30" width="2" height="2"></rect>
                    <rect id="Rectangle" x="70" y="60" width="2" height="2"></rect>
                    <rect id="Rectangle" x="60" y="60" width="2" height="2"></rect>
                    <rect id="Rectangle" x="70" y="70" width="2" height="2"></rect>
                    <rect id="Rectangle" x="60" y="70" width="2" height="2"></rect>
                    <rect id="Rectangle" x="50" y="40" width="2" height="2"></rect>
                    <rect id="Rectangle" x="40" y="40" width="2" height="2"></rect>
                    <rect id="Rectangle" x="50" y="50" width="2" height="2"></rect>
                    <rect id="Rectangle" x="40" y="50" width="2" height="2"></rect>
                    <rect id="Rectangle" x="50" y="60" width="2" height="2"></rect>
                    <rect id="Rectangle" x="40" y="60" width="2" height="2"></rect>
                    <rect id="Rectangle" x="50" y="70" width="2" height="2"></rect>
                    <rect id="Rectangle" x="40" y="70" width="2" height="2"></rect>
                    <rect id="Rectangle" x="50" y="0" width="2" height="2"></rect>
                    <rect id="Rectangle" x="40" y="0" width="2" height="2"></rect>
                    <rect id="Rectangle" x="50" y="10" width="2" height="2"></rect>
                    <rect id="Rectangle" x="40" y="10" width="2" height="2"></rect>
                    <rect id="Rectangle" x="50" y="20" width="2" height="2"></rect>
                    <rect id="Rectangle" x="40" y="20" width="2" height="2"></rect>
                    <rect id="Rectangle" x="50" y="30" width="2" height="2"></rect>
                    <rect id="Rectangle" x="40" y="30" width="2" height="2"></rect>
                    <rect id="Rectangle" x="30" y="40" width="2" height="2"></rect>
                    <rect id="Rectangle" x="20" y="40" width="2" height="2"></rect>
                    <rect id="Rectangle" x="30" y="50" width="2" height="2"></rect>
                    <rect id="Rectangle" x="20" y="50" width="2" height="2"></rect>
                    <rect id="Rectangle" x="30" y="60" width="2" height="2"></rect>
                    <rect id="Rectangle" x="20" y="60" width="2" height="2"></rect>
                    <rect id="Rectangle" x="30" y="70" width="2" height="2"></rect>
                    <rect id="Rectangle" x="20" y="70" width="2" height="2"></rect>
                    <rect id="Rectangle" x="30" y="0" width="2" height="2"></rect>
                    <rect id="Rectangle" x="20" y="0" width="2" height="2"></rect>
                    <rect id="Rectangle" x="30" y="10" width="2" height="2"></rect>
                    <rect id="Rectangle" x="20" y="10" width="2" height="2"></rect>
                    <rect id="Rectangle" x="30" y="20" width="2" height="2"></rect>
                    <rect id="Rectangle" x="20" y="20" width="2" height="2"></rect>
                    <rect id="Rectangle" x="30" y="30" width="2" height="2"></rect>
                    <rect id="Rectangle" x="20" y="30" width="2" height="2"></rect>
                    <rect id="Rectangle" x="10" y="40" width="2" height="2"></rect>
                    <rect id="Rectangle" x="0" y="40" width="2" height="2"></rect>
                    <rect id="Rectangle" x="10" y="50" width="2" height="2"></rect>
                    <rect id="Rectangle" x="0" y="50" width="2" height="2"></rect>
                    <rect id="Rectangle" x="10" y="60" width="2" height="2"></rect>
                    <rect id="Rectangle" x="0" y="60" width="2" height="2"></rect>
                    <rect id="Rectangle" x="10" y="70" width="2" height="2"></rect>
                    <rect id="Rectangle" x="0" y="70" width="2" height="2"></rect>
                    <rect id="Rectangle" x="10" y="0" width="2" height="2"></rect>
                    <rect id="Rectangle" x="0" y="0" width="2" height="2"></rect>
                    <rect id="Rectangle" x="10" y="10" width="2" height="2"></rect>
                    <rect id="Rectangle" x="0" y="10" width="2" height="2"></rect>
                    <rect id="Rectangle" x="10" y="20" width="2" height="2"></rect>
                    <rect id="Rectangle" x="0" y="20" width="2" height="2"></rect>
                    <rect id="Rectangle" x="10" y="30" width="2" height="2"></rect>
                    <rect id="Rectangle" x="0" y="30" width="2" height="2"></rect>
                </g>
                <g id="Group-9" transform="translate(60.000000, 0.000000)" fill="#FFFFFF">
                    <rect id="Rectangle" x="10" y="0" width="2" height="2"></rect>
                    <rect id="Rectangle" x="0" y="0" width="2" height="2"></rect>
                    <rect id="Rectangle" x="10" y="10" width="2" height="2"></rect>
                    <rect id="Rectangle" x="0" y="10" width="2" height="2"></rect>
                    <rect id="Rectangle" x="10" y="20" width="2" height="2"></rect>
                    <rect id="Rectangle" x="0" y="20" width="2" height="2"></rect>
                    <rect id="Rectangle" x="10" y="30" width="2" height="2"></rect>
                    <rect id="Rectangle" x="0" y="30" width="2" height="2"></rect>
                    <rect id="Rectangle" x="10" y="40" width="2" height="2"></rect>
                    <rect id="Rectangle" x="0" y="40" width="2" height="2"></rect>
                    <rect id="Rectangle" x="10" y="50" width="2" height="2"></rect>
                    <rect id="Rectangle" x="0" y="50" width="2" height="2"></rect>
                    <rect id="Rectangle" x="10" y="60" width="2" height="2"></rect>
                    <rect id="Rectangle" x="0" y="60" width="2" height="2"></rect>
                </g>
            </g>
        </g>
    </g>
</svg>