<?xml version="1.0" encoding="UTF-8"?>
<svg width="63px" height="63px" viewBox="0 0 63 63" version="1.1" xmlns="http://www.w3.org/2000/svg" xmlns:xlink="http://www.w3.org/1999/xlink">
    <!-- Generator: Sketch 52.2 (67145) - http://www.bohemiancoding.com/sketch -->
    <title>Group 36</title>
    <desc>Created with Sketch.</desc>
    <g id="RDB-Web-Design" stroke="none" stroke-width="1" fill="none" fill-rule="evenodd">
        <g id="React-day-Berlin-2018-web" transform="translate(-1208.000000, -5523.000000)" fill="#0024FF">
            <g id="Group-59" transform="translate(1.000000, 4949.000000)">
                <g id="Group-36" transform="translate(1207.000000, 574.000000)">
                    <rect id="Rectangle" transform="translate(61.500000, 1.500000) scale(-1, 1) translate(-61.500000, -1.500000) " x="60" y="0" width="3" height="3"></rect>
                    <rect id="Rectangle" transform="translate(41.500000, 1.500000) scale(-1, 1) translate(-41.500000, -1.500000) " x="40" y="0" width="3" height="3"></rect>
                    <rect id="Rectangle" transform="translate(21.500000, 1.500000) scale(-1, 1) translate(-21.500000, -1.500000) " x="20" y="0" width="3" height="3"></rect>
                    <rect id="Rectangle" transform="translate(1.500000, 1.500000) scale(-1, 1) translate(-1.500000, -1.500000) " x="0" y="0" width="3" height="3"></rect>
                    <rect id="Rectangle" transform="translate(61.500000, 21.500000) scale(-1, 1) translate(-61.500000, -21.500000) " x="60" y="20" width="3" height="3"></rect>
                    <rect id="Rectangle" transform="translate(41.500000, 21.500000) scale(-1, 1) translate(-41.500000, -21.500000) " x="40" y="20" width="3" height="3"></rect>
                    <rect id="Rectangle" transform="translate(21.500000, 21.500000) scale(-1, 1) translate(-21.500000, -21.500000) " x="20" y="20" width="3" height="3"></rect>
                    <rect id="Rectangle" transform="translate(1.500000, 21.500000) scale(-1, 1) translate(-1.500000, -21.500000) " x="0" y="20" width="3" height="3"></rect>
                    <rect id="Rectangle" transform="translate(61.500000, 41.500000) scale(-1, 1) translate(-61.500000, -41.500000) " x="60" y="40" width="3" height="3"></rect>
                    <rect id="Rectangle" transform="translate(41.500000, 41.500000) scale(-1, 1) translate(-41.500000, -41.500000) " x="40" y="40" width="3" height="3"></rect>
                    <rect id="Rectangle" transform="translate(21.500000, 41.500000) scale(-1, 1) translate(-21.500000, -41.500000) " x="20" y="40" width="3" height="3"></rect>
                    <rect id="Rectangle" transform="translate(1.500000, 41.500000) scale(-1, 1) translate(-1.500000, -41.500000) " x="0" y="40" width="3" height="3"></rect>
                    <rect id="Rectangle" transform="translate(61.500000, 61.500000) scale(-1, 1) translate(-61.500000, -61.500000) " x="60" y="60" width="3" height="3"></rect>
                    <rect id="Rectangle" transform="translate(41.500000, 61.500000) scale(-1, 1) translate(-41.500000, -61.500000) " x="40" y="60" width="3" height="3"></rect>
                    <rect id="Rectangle" transform="translate(21.500000, 61.500000) scale(-1, 1) translate(-21.500000, -61.500000) " x="20" y="60" width="3" height="3"></rect>
                    <rect id="Rectangle" transform="translate(1.500000, 61.500000) scale(-1, 1) translate(-1.500000, -61.500000) " x="0" y="60" width="3" height="3"></rect>
                </g>
            </g>
        </g>
    </g>
</svg>