<?xml version="1.0" encoding="UTF-8"?>
<svg width="60px" height="63px" viewBox="0 0 60 63" version="1.1" xmlns="http://www.w3.org/2000/svg" xmlns:xlink="http://www.w3.org/1999/xlink">
    <!-- Generator: Sketch 52.2 (67145) - http://www.bohemiancoding.com/sketch -->
    <title>Combined Shape</title>
    <desc>Created with Sketch.</desc>
    <g id="RDB-Web-Design" stroke="none" stroke-width="1" fill="none" fill-rule="evenodd">
        <g id="React-day-Berlin-2018-web" transform="translate(-135.000000, -16.000000)" fill="#FFFFFF" fill-rule="nonzero">
            <g id="1-Screen" transform="translate(-12.000000, -4.000000)">
                <g id="header" transform="translate(147.000000, 20.000000)">
                    <g id="Logo">
                        <path d="M49.5833738,27.8350726 C48.9601499,27.624065 48.3299234,27.426894 47.699697,27.2470187 C47.8047347,26.8250034 47.90277,26.4029882 47.9903014,25.9775139 C49.4188147,19.135333 48.4839788,13.6214622 45.297834,11.8054132 C42.6613868,10.304146 38.5754187,11.4525808 34.2618689,14.5865625 L34.3739091,17.6375249 C38.4948898,14.2510259 42.2832509,12.9400114 44.0478849,13.9466214 C46.0085894,15.063924 46.7718636,19.5677256 45.5394208,25.4793976 C45.4588919,25.8633622 45.3713604,26.2473269 45.2768265,26.6278324 C42.8469534,26.0743698 40.2105062,25.6627321 37.4480136,25.4067556 C36.4886689,24.0576906 35.5083167,22.7812676 34.520962,21.5947822 L34.5769821,23.1513957 C35.0951683,23.7394497 35.4067802,24.5039198 35.4067802,25.341032 C35.4067802,25.856444 35.2877375,26.3441828 35.077662,26.7800346 C35.200206,27.0809799 35.2877375,27.3957617 35.3437576,27.7174618 C35.5853444,27.7312984 35.8234299,27.7485941 36.0615155,27.7658898 C37.0558727,29.2152699 37.9942099,30.6992414 38.8835294,32.2178043 C39.7763502,33.7363672 40.6166521,35.2860624 41.4079364,36.8599715 C40.6271559,38.4511764 39.786854,40.011249 38.8905319,41.5436485 C38.0047137,43.0656705 37.0663765,44.5600194 36.082523,46.0232361 C35.8584425,46.0405318 35.6308607,46.0543684 35.403279,46.0682049 L35.539828,51.025154 C36.191062,50.1845827 36.8352935,49.3059609 37.4760237,48.3927477 C40.3085414,48.1436895 42.9800012,47.73897 45.406373,47.1855075 C45.5254158,47.6628689 45.6304535,48.129853 45.7249875,48.5864596 C46.3096976,51.5094337 46.3937278,54.1556766 46.0050881,56.2207838 C45.6549623,58.0783425 44.9547107,59.316715 44.0863988,59.8113722 C42.4863239,60.7280445 39.3036804,59.8148313 35.7078884,57.1928024 L35.7919186,60.2437648 C39.5347634,62.578685 42.9940063,63.2878089 45.3398491,61.9456622 C48.4804775,60.150368 49.5028449,54.7125983 48.1758681,48.0987207 C48.0743316,47.5936861 47.9552888,47.0782741 47.8257423,46.5524847 C48.1968756,46.4452513 48.5610065,46.3310996 48.9146335,46.216948 C55.6265451,44.0203934 59.996115,40.4678556 59.996115,36.8322984 C59.9926138,33.3558617 55.9066457,29.9866583 49.5833738,27.8350726 Z M41.1475727,30.986714 C40.5768676,30.0112362 39.9816538,29.0461359 39.3654324,28.0948721 C41.2351041,28.3266346 43.024247,28.6379573 44.7048508,29.0184628 C44.2006697,30.6165859 43.5704432,32.287351 42.8316778,33.9996258 C42.2924841,32.9826384 41.7287815,31.9794875 41.1475727,30.986714 Z M39.3584299,45.729573 C39.9781525,44.7610135 40.5768676,43.7786175 41.1545752,42.785844 C41.7427866,41.7757748 42.3099903,40.7553282 42.8526853,39.7210451 C43.6369671,41.485207 44.2952036,43.1871044 44.8203923,44.8094415 C43.1257835,45.1934062 41.2911243,45.5012697 39.3584299,45.729573 Z M48.2306176,43.8823917 C47.9120031,43.9861659 47.5828849,44.0899402 47.2467641,44.1867961 C46.5044974,41.8691716 45.5066389,39.4028041 44.2811986,36.8568763 C45.4506188,34.3697539 46.4099634,31.9379778 47.1312226,29.6341899 C47.7299377,29.8071469 48.3111465,29.9870223 48.8713478,30.177275 C54.2912951,32.0209972 57.5964827,34.7433412 57.5964827,36.8430397 C57.5964827,39.081104 54.0251995,41.9833233 48.2306176,43.8823917 Z M24.2831459,57.3440761 L24.2025292,60.3647163 C20.4521011,62.6024842 16.9540382,63.2675793 14.6231647,61.9408531 C11.5737511,60.2019066 10.6168662,55.1340205 11.8436417,48.7532645 C11.9768345,48.0604571 12.1310577,47.3711137 12.3028063,46.6852344 C11.7700352,46.5362808 11.2442743,46.3734711 10.7185133,46.1968052 C4.25515865,44.0109979 1.42108547e-14,40.4083994 1.42108547e-14,36.8161931 C1.42108547e-14,33.3417641 3.96073252,29.9920403 10.1682168,27.8547295 C10.8622213,27.615711 11.5877714,27.3905486 12.337857,27.1792423 C12.1766237,26.5418595 12.0329157,25.9044767 11.903228,25.2601659 C10.6168662,18.7650966 11.521175,13.5759693 14.5775987,11.8266306 C17.2344441,10.3059184 21.3634201,11.4178742 25.7342461,14.5216513 L25.6220838,17.5526837 C21.4615621,14.209888 17.6375275,12.9351224 15.8324148,13.9674054 C13.9887464,15.0204727 13.2596912,19.2188854 14.3602842,24.7821288 C14.4794567,25.3779431 14.6126494,25.9737575 14.7633676,26.5661078 C17.1888781,26.022254 19.8281981,25.6169617 22.5866906,25.364087 C23.5260501,24.051217 24.4899452,22.8041637 25.4713657,21.6333192 L25.4152845,23.1367112 C24.914059,23.7221335 24.6126228,24.4772935 24.6126228,25.3017343 C24.6126228,25.8144118 24.7317953,26.302841 24.9420996,26.7393097 C24.8194221,27.0406809 24.7317953,27.3559082 24.6757141,27.6815277 C24.4373691,27.6953838 24.2025292,27.712704 23.9676893,27.7300242 C22.9617334,29.1849197 22.0153637,30.6779197 21.1250751,32.2020959 C20.2347866,33.7262722 19.4040843,35.2850888 18.6329682,36.8716177 C19.4075893,38.4616107 20.2417967,40.0169633 21.1355903,41.5411395 C22.032889,43.0757079 22.9862689,44.5721719 23.999235,46.0339954 C24.1955191,46.0443876 24.3918032,46.0582437 24.5915923,46.0686358 L24.4583996,50.8455428 C23.8415067,50.0626704 23.2281189,49.2520858 22.6287514,48.4172529 C19.7861372,48.1920905 17.1292919,47.8145104 14.7283168,47.2879768 C14.5670835,47.9253596 14.4268806,48.5662065 14.3006979,49.2105173 C13.2526811,54.6663755 14.0202921,58.7366189 15.8709706,59.7896862 C16.7402288,60.2850434 18.1773087,60.2677233 19.9824213,59.6372685 C21.3248643,59.1696236 22.7829747,58.3936793 24.2831459,57.3440761 Z M18.8656881,42.7897363 C18.287351,41.8024857 17.7335495,40.8013791 17.2042835,39.7933443 C16.461208,41.5392189 15.8232847,43.2539172 15.3045339,44.9062629 C16.9764537,45.2665227 18.7850714,45.5540378 20.7058514,45.765344 C20.0679281,44.7884856 19.4545403,43.794307 18.8656881,42.7897363 Z M20.6532753,28.0571871 C18.7955866,28.2858136 17.0115045,28.5871848 15.3395846,28.9613008 C15.8478202,30.5824701 16.4717232,32.265992 17.2007784,33.9737622 C17.7300444,32.9622635 18.2803409,31.9646208 18.8551729,30.9773703 C19.4335099,29.9901198 20.0328774,29.0167254 20.6532753,28.0571871 Z M12.8720132,44.3035204 C13.6115836,41.916799 14.589499,39.4123003 15.7636985,36.8835533 C14.6035193,34.3894467 13.6396242,31.9265164 12.9070639,29.5675073 C12.2270798,29.7580293 11.5541058,29.9658715 10.8881419,30.1944979 C5.58146132,32.0235094 2.39885502,34.7150662 2.39885502,36.8246647 C2.39885502,37.8153792 3.13141528,39.0381843 4.58602058,40.2679174 C6.20536432,41.636212 8.56427846,42.8901933 11.4244181,43.8566597 C11.9046131,44.0160054 12.3848081,44.1649589 12.8720132,44.3035204 Z M28.6177201,42.5628302 C27.1635792,41.9609226 26.1379206,40.5271653 26.1379206,38.8499398 C26.1379206,37.0712692 27.2917865,35.5631189 28.8910041,35.0356044 L28.9078735,34.5588125 L28.2432198,34.5588125 C28.0036745,34.5588125 27.8079897,34.3626853 27.8079897,34.1225986 L27.8079897,33.6424251 C27.8079897,33.4023384 28.0036745,33.2062113 28.2432198,33.2062113 L28.4928867,33.2062113 L28.4928867,32.8342459 L28.4928867,31.9449106 L28.4928867,31.1806909 L28.4928867,30.6599395 L28.4928867,29.8957198 C28.4928867,29.3682053 28.7425536,28.8981764 29.1271755,28.5938411 L29.1811576,27.2108064 L28.8876303,27.2108064 C28.6717021,27.2108064 28.4962605,27.0349682 28.4962605,26.818552 C28.4962605,26.6021358 28.6717021,26.4262976 28.8876303,26.4262976 L29.2081486,26.4262976 L30.1410255,0 L31.0536592,26.4296791 L31.3977947,26.4296791 C31.6137228,26.4296791 31.7891644,26.6055173 31.7891644,26.8219335 C31.7891644,27.0383497 31.6137228,27.2141879 31.3977947,27.2141879 L31.0806503,27.2141879 L31.1312584,28.5735521 C31.1683711,28.6006041 31.2054837,28.6310376 31.2425964,28.6648527 C31.5766102,28.9658064 31.7891644,29.4054018 31.7891644,29.8957198 L31.7891644,31.1806909 L31.7891644,32.8545349 L31.7891644,33.2095928 L32.0388313,33.2095928 C32.2783766,33.2095928 32.4740614,33.4057199 32.4740614,33.6458066 L32.4740614,34.1259801 C32.4740614,34.3660668 32.2783766,34.562194 32.0388313,34.562194 L31.3505604,34.562194 L31.3674298,35.0288414 C32.9767691,35.5462114 34.1441305,37.0611247 34.1441305,38.8499398 C34.1441305,40.5373099 33.1083503,41.9778302 31.6407138,42.5729747 L31.6744526,43.4859805 L32.0388313,43.4859805 C32.2783766,43.4859805 32.4740614,43.6821077 32.4740614,43.9221944 L32.4740614,44.4023678 C32.4740614,44.6424546 32.2783766,44.8385817 32.0388313,44.8385817 L31.7250607,44.8385817 L32.1265521,60.0465743 C31.5192543,59.9316032 30.8596613,59.8673547 30.1410255,59.8673547 C29.4190159,59.8673547 28.7341189,59.9316032 28.1234471,60.0465743 L28.5333732,44.8385817 L28.2432198,44.8385817 C28.0036745,44.8385817 27.8079897,44.6424546 27.8079897,44.4023678 L27.8079897,43.9221944 C27.8079897,43.6821077 28.0036745,43.4859805 28.2432198,43.4859805 L28.5839813,43.4859805 L28.6177201,42.5628302 Z" id="Combined-Shape"></path>
                    </g>
                </g>
            </g>
        </g>
    </g>
</svg>