<?xml version="1.0" encoding="UTF-8"?>
<svg width="82px" height="75px" viewBox="0 0 82 75" version="1.1" xmlns="http://www.w3.org/2000/svg" xmlns:xlink="http://www.w3.org/1999/xlink">
    <!-- Generator: Sketch 52.2 (67145) - http://www.bohemiancoding.com/sketch -->
    <title>Group 18</title>
    <desc>Created with Sketch.</desc>
    <g id="RDB-Web-Design" stroke="none" stroke-width="1" fill="none" fill-rule="evenodd">
        <g id="React-day-Berlin-2018-web" transform="translate(-140.000000, -1020.000000)">
            <g id="2-screen" transform="translate(-177.000000, 790.000000)">
                <g id="React-Day-Berlin-+-Fully-Packed-Day-of-Mask" transform="translate(177.000000, 0.000000)">
                    <g id="Group-18" transform="translate(180.567416, 267.500000) scale(-1, 1) translate(-180.567416, -267.500000) translate(140.000000, 230.000000)">
                        <rect id="Rectangle" fill="#FFFFFF" x="0" y="54.2168675" width="2.93258427" height="2.71084337"></rect>
                        <rect id="Rectangle" fill="#FFFFFF" x="19.5505618" y="54.2168675" width="2.93258427" height="2.71084337"></rect>
                        <polygon id="Rectangle" fill="#FFFFFF" points="0 72.2891566 2.93258427 72.2891566 2.93258427 75 0 75"></polygon>
                        <polygon id="Rectangle" fill="#FFFFFF" points="19.5505618 72.2891566 22.4831461 72.2891566 22.4831461 75 19.5505618 75"></polygon>
                        <rect id="Rectangle" fill="#2700C3" x="39.1011236" y="0" width="2.93258427" height="2.71084337"></rect>
                        <rect id="Rectangle" fill="#2700C3" x="19.5505618" y="0" width="2.93258427" height="2.71084337"></rect>
                        <rect id="Rectangle" fill="#2700C3" x="39.1011236" y="18.0722892" width="2.93258427" height="2.71084337"></rect>
                        <rect id="Rectangle" fill="#2700C3" x="19.5505618" y="18.0722892" width="2.93258427" height="2.71084337"></rect>
                        <polygon id="Rectangle" fill="#2700C3" points="58.6516854 36.1445783 61.5842697 36.1445783 61.5842697 38.8554217 58.6516854 38.8554217"></polygon>
                        <polygon id="Rectangle" fill="#2700C3" points="78.2022472 36.1445783 81.1348315 36.1445783 81.1348315 38.8554217 78.2022472 38.8554217"></polygon>
                        <rect id="Rectangle" fill="#2700C3" x="58.6516854" y="54.2168675" width="2.93258427" height="2.71084337"></rect>
                        <rect id="Rectangle" fill="#2700C3" x="78.2022472" y="54.2168675" width="2.93258427" height="2.71084337"></rect>
                        <rect id="Rectangle" fill="#2700C3" x="78.2022472" y="0" width="2.93258427" height="2.71084337"></rect>
                        <rect id="Rectangle" fill="#2700C3" x="58.6516854" y="0" width="2.93258427" height="2.71084337"></rect>
                        <rect id="Rectangle" fill="#2700C3" x="78.2022472" y="18.0722892" width="2.93258427" height="2.71084337"></rect>
                        <rect id="Rectangle" fill="#2700C3" x="58.6516854" y="18.0722892" width="2.93258427" height="2.71084337"></rect>
                        <polygon id="Rectangle" fill="#2700C3" points="39.1011236 36.1445783 42.0337079 36.1445783 42.0337079 38.8554217 39.1011236 38.8554217"></polygon>
                        <rect id="Rectangle" fill="#2700C3" x="39.1011236" y="54.2168675" width="2.93258427" height="2.71084337"></rect>
                        <polygon id="Rectangle" fill="#2700C3" points="19.5505618 36.1445783 22.4831461 36.1445783 22.4831461 38.8554217 19.5505618 38.8554217"></polygon>
                    </g>
                </g>
            </g>
        </g>
    </g>
</svg>