<svg width="48" height="48" viewBox="0 0 48 48" fill="none" xmlns="http://www.w3.org/2000/svg">
<path d="M47.137 45.5257L34.2227 32.6114C37.3599 29.0857 39.0799 24.5886 39.0799 19.8286C39.0799 14.6857 37.0799 9.85141 33.4399 6.21141C29.8056 2.57141 24.9656 0.571411 19.8227 0.571411C14.6799 0.571411 9.84557 2.57141 6.21129 6.21141C2.57129 9.8457 0.571289 14.68 0.571289 19.8228C0.571289 24.9657 2.57129 29.8 6.21129 33.44C9.84557 37.0743 14.6856 39.08 19.8284 39.08C24.5884 39.08 29.0856 37.36 32.6113 34.2228L45.5256 47.1371L47.1427 45.52L47.137 45.5257ZM7.82843 31.8228C4.62272 28.6171 2.857 24.3543 2.857 19.8228C2.857 15.2914 4.62272 11.0286 7.82843 7.82284C11.0341 4.61713 15.297 2.85141 19.8284 2.85141C24.3599 2.85141 28.6227 4.61713 31.8284 7.82284C35.0341 11.0286 36.7999 15.2914 36.7999 19.8228C36.7999 24.3543 35.0341 28.6171 31.8284 31.8228C28.6227 35.0286 24.3599 36.7943 19.8284 36.7943C15.297 36.7943 11.0341 35.0286 7.82843 31.8228Z" fill="#FAFF05"/>
<path d="M16.1084 11.4514L7.73129 19.8228L16.1084 28.2L17.7256 26.5828L10.9656 19.8228L17.7256 13.0686L16.1084 11.4514Z" fill="#FAFF05"/>
<path d="M23.5427 11.4514L21.9256 13.0686L28.6856 19.8228L21.9256 26.5828L23.5427 28.2L31.9199 19.8228L23.5427 11.4514Z" fill="#FAFF05"/>
</svg>
