<svg width="191" height="58" viewBox="0 0 191 58" fill="none" xmlns="http://www.w3.org/2000/svg">
<path fill-rule="evenodd" clip-rule="evenodd" d="M22.7603 43.5247C20.5584 43.5247 18.7694 41.7252 18.7694 39.5104V39.3819H14.6901V39.4906C14.6901 43.9696 18.2976 47.6082 22.7504 47.6082C27.2033 47.6082 30.8206 43.9795 30.8206 39.4906V39.3819H26.7413V39.4906C26.7511 41.7054 24.972 43.5148 22.7701 43.5247H22.7504H22.7603ZM14.8965 17.1152C11.6822 17.135 9.08716 19.7651 9.10681 22.9983C9.12647 26.2315 11.7412 28.8418 14.9555 28.822C18.1501 28.8022 20.7353 26.2018 20.7452 22.9884C20.7452 19.7453 18.1403 17.1251 14.926 17.1152H14.8965ZM13.0682 22.9884C13.0682 21.97 13.884 21.1394 14.8965 21.1296C15.909 21.1197 16.7347 21.9502 16.7445 22.9686C16.7445 23.987 15.9286 24.8176 14.9162 24.8275H14.8965C13.884 24.8275 13.0682 24.0068 13.0682 22.9884ZM5.11596 12.656C16.3316 9.07671 20.5682 6.84214 22.5145 5.73474C24.4215 6.83225 28.6974 9.06682 39.9131 12.656C39.9131 13.9216 40.611 52.8387 22.5145 52.8091C4.41805 52.7794 5.11596 13.9216 5.11596 12.656ZM22.5145 58C45.919 58 44.9951 10.5401 44.9951 8.89874C30.4962 4.27139 24.9916 1.39414 22.5145 0C20.0178 1.41391 14.5033 4.29117 0.00451052 8.89874C0.00451052 10.5401 -0.889992 58.0297 22.5145 58ZM24.4018 20.8626V24.8176H35.6667V20.8626H24.4018Z" fill="black"/>
<path d="M65.2597 20.8544V8.25435H74.6017V10.2344H67.4737V13.5104H73.7917V15.4904H67.4737V18.8743H74.6917V20.8544H65.2597Z" fill="black"/>
<path d="M79.8966 20.9263L75.9906 11.3504H78.3306L80.8866 18.3344L83.4606 11.3504H85.7466L81.8586 20.9263H79.8966Z" fill="black"/>
<path d="M91.4067 21.0704C90.0147 21.0704 88.8507 20.6084 87.9147 19.6844C86.9907 18.7604 86.5287 17.5664 86.5287 16.1024C86.5287 14.7224 86.9667 13.5524 87.8427 12.5924C88.7187 11.6323 89.8287 11.1524 91.1727 11.1524C92.6127 11.1524 93.7287 11.6444 94.5207 12.6284C95.3247 13.6004 95.7267 14.8124 95.7267 16.2644C95.7267 16.5284 95.7147 16.7324 95.6907 16.8764H88.7067C88.8267 17.6324 89.1327 18.2264 89.6247 18.6583C90.1167 19.0784 90.7227 19.2884 91.4427 19.2884C92.3787 19.2884 93.2367 18.9104 94.0167 18.1544L95.2947 19.2884C94.3107 20.4764 93.0147 21.0704 91.4067 21.0704ZM88.6887 15.4363H93.5667C93.4947 14.7043 93.2487 14.1044 92.8287 13.6364C92.4087 13.1684 91.8507 12.9344 91.1547 12.9344C90.4947 12.9344 89.9427 13.1684 89.4987 13.6364C89.0547 14.0924 88.7847 14.6924 88.6887 15.4363Z" fill="black"/>
<path d="M97.914 20.8544V11.3504H100.092V12.8264C100.848 11.7104 101.838 11.1524 103.062 11.1524C104.118 11.1524 104.946 11.4824 105.546 12.1424C106.146 12.8024 106.446 13.6903 106.446 14.8063V20.8544H104.268V15.4544C104.268 14.7104 104.088 14.1404 103.728 13.7444C103.38 13.3364 102.882 13.1323 102.234 13.1323C101.598 13.1323 101.082 13.3424 100.686 13.7624C100.29 14.1824 100.092 14.7584 100.092 15.4904V20.8544H97.914Z" fill="black"/>
<path d="M112.262 21.0163C110.438 21.0163 109.526 20.0864 109.526 18.2264V13.2224H108.32V11.3504H109.526V8.74035H111.704V11.3504H114.26V13.2224H111.704V17.8843C111.704 18.6763 112.094 19.0723 112.874 19.0723C113.342 19.0723 113.792 18.9643 114.224 18.7484V20.5303C113.648 20.8543 112.994 21.0163 112.262 21.0163Z" fill="black"/>
<path d="M127.255 21.0524C125.947 21.0524 124.873 20.4944 124.033 19.3784V20.8544H121.855V7.71435H124.033V12.9344C124.873 11.7464 125.947 11.1524 127.255 11.1524C128.455 11.1524 129.493 11.6023 130.369 12.5023C131.245 13.3904 131.683 14.5963 131.683 16.1203C131.683 17.6203 131.245 18.8204 130.369 19.7204C129.493 20.6084 128.455 21.0524 127.255 21.0524ZM126.751 19.1623C127.519 19.1623 128.161 18.8804 128.677 18.3164C129.205 17.7524 129.469 17.0084 129.469 16.0844C129.469 15.1844 129.205 14.4524 128.677 13.8884C128.149 13.3244 127.507 13.0424 126.751 13.0424C125.995 13.0424 125.341 13.3303 124.789 13.9064C124.249 14.4823 123.979 15.2203 123.979 16.1203C123.979 17.0084 124.249 17.7404 124.789 18.3164C125.341 18.8804 125.995 19.1623 126.751 19.1623Z" fill="black"/>
<path d="M135.401 23.7884C134.609 23.7884 133.859 23.5964 133.151 23.2124L133.889 21.5924C134.333 21.8323 134.759 21.9524 135.167 21.9524C135.479 21.9524 135.737 21.8683 135.941 21.7003C136.145 21.5443 136.337 21.2624 136.517 20.8544L132.557 11.3504H134.879L137.579 18.4064L140.045 11.3504H142.313L138.533 21.1244C138.149 22.0964 137.723 22.7804 137.255 23.1764C136.787 23.5844 136.169 23.7884 135.401 23.7884Z" fill="black"/>
<path d="M73.816 50.4817C70.792 50.4817 68.3373 49.5297 66.452 47.6257C64.5853 45.703 63.652 43.2764 63.652 40.3457C63.652 37.5457 64.604 35.1564 66.508 33.1777C68.4306 31.199 70.848 30.2097 73.76 30.2097C75.4026 30.2097 76.8026 30.4337 77.96 30.8817C79.1173 31.311 80.228 31.9737 81.292 32.8697L79.108 35.4737C78.2866 34.7644 77.456 34.2417 76.616 33.9057C75.7946 33.551 74.796 33.3737 73.62 33.3737C71.828 33.3737 70.316 34.055 69.084 35.4177C67.8706 36.7804 67.264 38.423 67.264 40.3457C67.264 42.3804 67.88 44.0604 69.112 45.3857C70.344 46.6924 71.9493 47.3457 73.928 47.3457C75.7573 47.3457 77.3346 46.851 78.66 45.8617V42.1937H73.648V39.1977H81.992V47.4297C79.6213 49.4644 76.896 50.4817 73.816 50.4817Z" fill="black"/>
<path d="M85.581 33.0937V29.8737H89.221V33.0937H85.581ZM85.721 50.1457V35.3617H89.109V50.1457H85.721Z" fill="black"/>
<path d="M97.9327 50.3977C95.0954 50.3977 93.6767 48.951 93.6767 46.0577V38.2737H91.8007V35.3617H93.6767V31.3017H97.0647V35.3617H101.041V38.2737H97.0647V45.5257C97.0647 46.7577 97.6714 47.3737 98.8847 47.3737C99.6127 47.3737 100.313 47.2057 100.985 46.8697V49.6417C100.089 50.1457 99.0714 50.3977 97.9327 50.3977Z" fill="black"/>
<path d="M104.293 50.1457V30.5457H107.485L117.985 44.0977V30.5457H121.373V50.1457H118.489L107.681 36.2017V50.1457H104.293Z" fill="black"/>
<path d="M137.866 50.1457H134.506V48.3257C133.312 49.7444 131.716 50.4537 129.718 50.4537C128.244 50.4537 126.993 50.0524 125.966 49.2497C124.958 48.4284 124.454 47.2897 124.454 45.8337C124.454 44.247 125.005 43.043 126.106 42.2217C127.208 41.4004 128.654 40.9897 130.446 40.9897C131.884 40.9897 133.246 41.195 134.534 41.6057V41.3257C134.534 40.299 134.217 39.515 133.582 38.9737C132.966 38.4324 132.07 38.1617 130.894 38.1617C129.55 38.1617 128.141 38.4697 126.666 39.0857L125.742 36.3697C127.572 35.5484 129.448 35.1377 131.37 35.1377C133.517 35.1377 135.132 35.679 136.214 36.7617C137.316 37.8444 137.866 39.3844 137.866 41.3817V50.1457ZM134.59 44.7977V43.9577C133.582 43.5657 132.453 43.3697 131.202 43.3697C130.138 43.3697 129.308 43.575 128.71 43.9857C128.113 44.3964 127.814 44.975 127.814 45.7217C127.814 46.3937 128.085 46.9257 128.626 47.3177C129.168 47.7097 129.849 47.9057 130.67 47.9057C131.809 47.9057 132.742 47.6164 133.47 47.0377C134.217 46.459 134.59 45.7124 134.59 44.7977Z" fill="black"/>
<path d="M146.292 50.3977C143.454 50.3977 142.036 48.951 142.036 46.0577V38.2737H140.16V35.3617H142.036V31.3017H145.424V35.3617H149.4V38.2737H145.424V45.5257C145.424 46.7577 146.03 47.3737 147.244 47.3737C147.972 47.3737 148.672 47.2057 149.344 46.8697V49.6417C148.448 50.1457 147.43 50.3977 146.292 50.3977Z" fill="black"/>
<path d="M152.316 33.0937V29.8737H155.956V33.0937H152.316ZM152.456 50.1457V35.3617H155.844V50.1457H152.456Z" fill="black"/>
<path d="M166.74 50.4817C164.5 50.4817 162.633 49.735 161.14 48.2417C159.647 46.7484 158.9 44.9284 158.9 42.7817C158.9 40.635 159.656 38.815 161.168 37.3217C162.68 35.8097 164.556 35.0537 166.796 35.0537C169.036 35.0537 170.903 35.8004 172.396 37.2937C173.908 38.787 174.664 40.6164 174.664 42.7817C174.664 44.9097 173.908 46.7297 172.396 48.2417C170.884 49.735 168.999 50.4817 166.74 50.4817ZM166.796 47.5417C168.14 47.5417 169.223 47.0844 170.044 46.1697C170.865 45.255 171.276 44.1257 171.276 42.7817C171.276 41.4564 170.847 40.3364 169.988 39.4217C169.129 38.4884 168.047 38.0217 166.74 38.0217C165.415 38.0217 164.341 38.479 163.52 39.3937C162.699 40.3084 162.288 41.4377 162.288 42.7817C162.288 44.0884 162.717 45.2084 163.576 46.1417C164.435 47.075 165.508 47.5417 166.796 47.5417Z" fill="black"/>
<path d="M177.554 50.1457V35.3617H180.942V37.6577C182.118 35.9217 183.658 35.0537 185.562 35.0537C187.205 35.0537 188.493 35.567 189.426 36.5937C190.36 37.6204 190.826 39.0017 190.826 40.7377V50.1457H187.438V41.7457C187.438 40.5884 187.158 39.7017 186.598 39.0857C186.057 38.451 185.282 38.1337 184.274 38.1337C183.285 38.1337 182.482 38.4604 181.866 39.1137C181.25 39.767 180.942 40.663 180.942 41.8017V50.1457H177.554Z" fill="black"/>
</svg>
