<?xml version="1.0" encoding="UTF-8"?>
<svg width="23px" height="103px" viewBox="0 0 23 103" version="1.1" xmlns="http://www.w3.org/2000/svg" xmlns:xlink="http://www.w3.org/1999/xlink">
    <!-- Generator: Sketch 52.2 (67145) - http://www.bohemiancoding.com/sketch -->
    <title>dots_white</title>
    <desc>Created with Sketch.</desc>
    <g id="RDB-Web-Design" stroke="none" stroke-width="1" fill="none" fill-rule="evenodd">
        <g id="1.1_ReactDay---template" transform="translate(-85.000000, -1402.000000)" fill="#0024FF">
            <g id="Group-16" transform="translate(85.000000, 1396.000000)">
                <g id="Anim_dots" transform="translate(0.000000, 6.000000)">
                    <g id="dots_white">
                        <rect id="Rectangle" transform="translate(21.500000, 1.500000) scale(-1, 1) translate(-21.500000, -1.500000) " x="20" y="0" width="3" height="3"></rect>
                        <rect id="Rectangle" transform="translate(1.500000, 1.500000) scale(-1, 1) translate(-1.500000, -1.500000) " x="0" y="0" width="3" height="3"></rect>
                        <rect id="Rectangle" transform="translate(21.500000, 21.500000) scale(-1, 1) translate(-21.500000, -21.500000) " x="20" y="20" width="3" height="3"></rect>
                        <rect id="Rectangle" transform="translate(1.500000, 21.500000) scale(-1, 1) translate(-1.500000, -21.500000) " x="0" y="20" width="3" height="3"></rect>
                        <rect id="Rectangle" transform="translate(21.500000, 41.500000) scale(-1, 1) translate(-21.500000, -41.500000) " x="20" y="40" width="3" height="3"></rect>
                        <rect id="Rectangle" transform="translate(1.500000, 41.500000) scale(-1, 1) translate(-1.500000, -41.500000) " x="0" y="40" width="3" height="3"></rect>
                        <rect id="Rectangle" transform="translate(21.500000, 61.500000) scale(-1, 1) translate(-21.500000, -61.500000) " x="20" y="60" width="3" height="3"></rect>
                        <rect id="Rectangle" transform="translate(1.500000, 61.500000) scale(-1, 1) translate(-1.500000, -61.500000) " x="0" y="60" width="3" height="3"></rect>
                        <rect id="Rectangle" transform="translate(1.500000, 81.500000) scale(-1, 1) translate(-1.500000, -81.500000) " x="0" y="80" width="3" height="3"></rect>
                        <rect id="Rectangle" transform="translate(21.500000, 81.500000) scale(-1, 1) translate(-21.500000, -81.500000) " x="20" y="80" width="3" height="3"></rect>
                        <rect id="Rectangle" transform="translate(21.500000, 101.500000) scale(-1, 1) translate(-21.500000, -101.500000) " x="20" y="100" width="3" height="3"></rect>
                        <rect id="Rectangle" transform="translate(1.500000, 101.500000) scale(-1, 1) translate(-1.500000, -101.500000) " x="0" y="100" width="3" height="3"></rect>
                    </g>
                </g>
            </g>
        </g>
    </g>
</svg>