<?xml version="1.0" encoding="UTF-8"?>
<svg width="680px" height="680px" viewBox="0 0 680 680" version="1.1" xmlns="http://www.w3.org/2000/svg" xmlns:xlink="http://www.w3.org/1999/xlink">
    <!-- Generator: Sketch 52.2 (67145) - http://www.bohemiancoding.com/sketch -->
    <title>Moon</title>
    <desc>Created with Sketch.</desc>
    <g id="RDB-Web-Design" stroke="none" stroke-width="1" fill="none" fill-rule="evenodd">
        <g id="React-day-Berlin-2018-web" transform="translate(-380.000000, -66.000000)">
            <g id="1-Screen" transform="translate(-12.000000, -4.000000)">
                <g id="Visual" transform="translate(12.000000, 0.000000)">
                    <g id="Moon" transform="translate(380.000000, 70.000000)">
                        <path d="M680,340 C680,527.776471 527.987599,680 340.471567,680 C152.955536,680 0.943134535,527.776471 0.943134535,340 C0.943134535,152.223529 152.955536,0 340.471567,0 C527.987599,0 680,152.223529 680,340" id="Moon-bg" fill="#0024FF" opacity="0.600000024"></path>
                        <g id="Lines-Moon" stroke="#5F76FF" stroke-linecap="round" stroke-linejoin="round" stroke-width="0.787764706">
                            <path d="M35.8762999,188.497176 C4.73376413,250.327765 -5.83975414,322.092471 4.01359005,390.738353" id="Stroke-3"></path>
                            <path d="M52.488002,159.002706 C48.6697871,165.056824 45.0418955,171.229765 41.6125511,177.512118" id="Stroke-5"></path>
                            <path d="M187.898116,36.8141176 C148.064148,56.2094118 113.993923,84.4447059 85.0025106,116.907059" id="Stroke-7"></path>
                            <path d="M551.032443,73.8568235 C460.57012,-1.43729412 337.212407,-16.7314118 230.724155,19.1497647" id="Stroke-9"></path>
                            <path d="M678.086776,357.815882 C680.26492,323.268824 676.740414,287.974706 667.786994,255.166471" id="Stroke-11"></path>
                            <path d="M36.0208047,491.502706 C4.87944371,429.672118 -5.69407455,357.907412 4.15926964,289.261529" id="Stroke-13"></path>
                            <path d="M52.6336816,520.997176 C48.8154667,514.943059 45.1875751,508.770118 41.7582307,502.487765" id="Stroke-15"></path>
                            <path d="M188.043796,643.185882 C148.209828,623.790588 114.139602,595.555294 85.1481902,563.092941" id="Stroke-17"></path>
                            <path d="M551.178123,606.143176 C460.7158,681.437294 337.358086,696.731412 230.869834,660.850235" id="Stroke-19"></path>
                            <path d="M678.232455,322.184 C680.4106,356.731059 676.886094,392.025176 667.932674,424.833412" id="Stroke-21"></path>
                        </g>
                    </g>
                </g>
            </g>
        </g>
    </g>
</svg>