<?xml version="1.0" encoding="UTF-8"?>
<svg width="203px" height="223px" viewBox="0 0 203 223" version="1.1" xmlns="http://www.w3.org/2000/svg" xmlns:xlink="http://www.w3.org/1999/xlink">
    <!-- Generator: Sketch 52.2 (67145) - http://www.bohemiancoding.com/sketch -->
    <title>Group 12</title>
    <desc>Created with Sketch.</desc>
    <g id="RDB-Web-Design" stroke="none" stroke-width="1" fill="none" fill-rule="evenodd">
        <g id="React-day-Berlin-2018-web" transform="translate(-1161.000000, -3044.000000)" fill="#230CEA">
            <g id="Group-12" transform="translate(1262.500000, 3155.500000) scale(-1, 1) translate(-1262.500000, -3155.500000) translate(1161.000000, 3044.000000)">
                <rect id="Rectangle" x="60" y="180" width="3" height="3"></rect>
                <rect id="Rectangle" x="40" y="180" width="3" height="3"></rect>
                <rect id="Rectangle" x="20" y="180" width="3" height="3"></rect>
                <rect id="Rectangle" x="0" y="180" width="3" height="3"></rect>
                <rect id="Rectangle" opacity="0.200000003" x="100" y="180" width="3" height="3"></rect>
                <rect id="Rectangle" opacity="0.200000003" x="80" y="180" width="3" height="3"></rect>
                <rect id="Rectangle" opacity="0.200000003" x="160" y="180" width="3" height="3"></rect>
                <rect id="Rectangle" opacity="0.200000003" x="140" y="180" width="3" height="3"></rect>
                <rect id="Rectangle" opacity="0.200000003" x="120" y="180" width="3" height="3"></rect>
                <rect id="Rectangle" x="60" y="160" width="3" height="3"></rect>
                <rect id="Rectangle" x="40" y="160" width="3" height="3"></rect>
                <rect id="Rectangle" x="20" y="160" width="3" height="3"></rect>
                <rect id="Rectangle" x="0" y="160" width="3" height="3"></rect>
                <rect id="Rectangle" x="60" y="220" width="3" height="3"></rect>
                <rect id="Rectangle" x="40" y="220" width="3" height="3"></rect>
                <rect id="Rectangle" x="20" y="220" width="3" height="3"></rect>
                <rect id="Rectangle" x="0" y="220" width="3" height="3"></rect>
                <rect id="Rectangle" x="60" y="200" width="3" height="3"></rect>
                <rect id="Rectangle" x="40" y="200" width="3" height="3"></rect>
                <rect id="Rectangle" x="20" y="200" width="3" height="3"></rect>
                <rect id="Rectangle" x="0" y="200" width="3" height="3"></rect>
                <rect id="Rectangle" opacity="0.200000003" x="100" y="160" width="3" height="3"></rect>
                <rect id="Rectangle" opacity="0.200000003" x="80" y="160" width="3" height="3"></rect>
                <rect id="Rectangle" opacity="0.200000003" x="160" y="160" width="3" height="3"></rect>
                <rect id="Rectangle" opacity="0.200000003" x="140" y="160" width="3" height="3"></rect>
                <rect id="Rectangle" opacity="0.200000003" x="120" y="160" width="3" height="3"></rect>
                <rect id="Rectangle" opacity="0.200000003" x="100" y="140" width="3" height="3"></rect>
                <rect id="Rectangle" opacity="0.200000003" x="80" y="140" width="3" height="3"></rect>
                <rect id="Rectangle" opacity="0.200000003" x="60" y="140" width="3" height="3"></rect>
                <rect id="Rectangle" opacity="0.200000003" x="40" y="140" width="3" height="3"></rect>
                <rect id="Rectangle" opacity="0.200000003" x="160" y="140" width="3" height="3"></rect>
                <rect id="Rectangle" opacity="0.200000003" x="140" y="140" width="3" height="3"></rect>
                <rect id="Rectangle" opacity="0.200000003" x="120" y="140" width="3" height="3"></rect>
                <rect id="Rectangle" opacity="0.200000003" x="100" y="120" width="3" height="3"></rect>
                <rect id="Rectangle" opacity="0.200000003" x="80" y="120" width="3" height="3"></rect>
                <rect id="Rectangle" opacity="0.200000003" x="60" y="120" width="3" height="3"></rect>
                <rect id="Rectangle" opacity="0.200000003" x="40" y="120" width="3" height="3"></rect>
                <rect id="Rectangle" opacity="0.200000003" x="160" y="120" width="3" height="3"></rect>
                <rect id="Rectangle" opacity="0.200000003" x="140" y="120" width="3" height="3"></rect>
                <rect id="Rectangle" opacity="0.200000003" x="200" y="180" width="3" height="3"></rect>
                <rect id="Rectangle" opacity="0.200000003" x="180" y="180" width="3" height="3"></rect>
                <rect id="Rectangle" opacity="0.200000003" x="200" y="160" width="3" height="3"></rect>
                <rect id="Rectangle" opacity="0.200000003" x="180" y="160" width="3" height="3"></rect>
                <rect id="Rectangle" opacity="0.200000003" x="200" y="140" width="3" height="3"></rect>
                <rect id="Rectangle" opacity="0.200000003" x="180" y="140" width="3" height="3"></rect>
                <rect id="Rectangle" opacity="0.200000003" x="200" y="120" width="3" height="3"></rect>
                <rect id="Rectangle" opacity="0.200000003" x="180" y="120" width="3" height="3"></rect>
                <rect id="Rectangle" opacity="0.200000003" x="120" y="120" width="3" height="3"></rect>
                <rect id="Rectangle" opacity="0.200000003" x="100" y="100" width="3" height="3"></rect>
                <rect id="Rectangle" opacity="0.200000003" x="80" y="100" width="3" height="3"></rect>
                <rect id="Rectangle" opacity="0.200000003" x="60" y="100" width="3" height="3"></rect>
                <rect id="Rectangle" opacity="0.200000003" x="40" y="100" width="3" height="3"></rect>
                <rect id="Rectangle" opacity="0.200000003" x="160" y="100" width="3" height="3"></rect>
                <rect id="Rectangle" opacity="0.200000003" x="140" y="100" width="3" height="3"></rect>
                <rect id="Rectangle" opacity="0.200000003" x="120" y="100" width="3" height="3"></rect>
                <rect id="Rectangle" opacity="0.200000003" x="100" y="80" width="3" height="3"></rect>
                <rect id="Rectangle" opacity="0.200000003" x="80" y="80" width="3" height="3"></rect>
                <rect id="Rectangle" opacity="0.200000003" x="60" y="80" width="3" height="3"></rect>
                <rect id="Rectangle" opacity="0.200000003" x="40" y="80" width="3" height="3"></rect>
                <rect id="Rectangle" opacity="0.200000003" x="160" y="80" width="3" height="3"></rect>
                <rect id="Rectangle" opacity="0.200000003" x="140" y="80" width="3" height="3"></rect>
                <rect id="Rectangle" opacity="0.200000003" x="200" y="100" width="3" height="3"></rect>
                <rect id="Rectangle" opacity="0.200000003" x="180" y="100" width="3" height="3"></rect>
                <rect id="Rectangle" opacity="0.200000003" x="200" y="80" width="3" height="3"></rect>
                <rect id="Rectangle" opacity="0.200000003" x="180" y="80" width="3" height="3"></rect>
                <rect id="Rectangle" opacity="0.200000003" x="120" y="80" width="3" height="3"></rect>
                <rect id="Rectangle" opacity="0.200000003" x="100" y="60" width="3" height="3"></rect>
                <rect id="Rectangle" opacity="0.200000003" x="80" y="60" width="3" height="3"></rect>
                <rect id="Rectangle" opacity="0.200000003" x="60" y="60" width="3" height="3"></rect>
                <rect id="Rectangle" opacity="0.200000003" x="40" y="60" width="3" height="3"></rect>
                <rect id="Rectangle" opacity="0.200000003" x="160" y="60" width="3" height="3"></rect>
                <rect id="Rectangle" opacity="0.200000003" x="140" y="60" width="3" height="3"></rect>
                <rect id="Rectangle" opacity="0.200000003" x="120" y="60" width="3" height="3"></rect>
                <rect id="Rectangle" opacity="0.200000003" x="100" y="40" width="3" height="3"></rect>
                <rect id="Rectangle" opacity="0.200000003" x="80" y="40" width="3" height="3"></rect>
                <rect id="Rectangle" opacity="0.200000003" x="60" y="40" width="3" height="3"></rect>
                <rect id="Rectangle" opacity="0.200000003" x="40" y="40" width="3" height="3"></rect>
                <rect id="Rectangle" opacity="0.200000003" x="160" y="40" width="3" height="3"></rect>
                <rect id="Rectangle" opacity="0.200000003" x="140" y="40" width="3" height="3"></rect>
                <rect id="Rectangle" opacity="0.200000003" x="200" y="60" width="3" height="3"></rect>
                <rect id="Rectangle" opacity="0.200000003" x="180" y="60" width="3" height="3"></rect>
                <rect id="Rectangle" opacity="0.200000003" x="200" y="40" width="3" height="3"></rect>
                <rect id="Rectangle" opacity="0.200000003" x="180" y="40" width="3" height="3"></rect>
                <rect id="Rectangle" opacity="0.200000003" x="120" y="40" width="3" height="3"></rect>
                <rect id="Rectangle" opacity="0.200000003" x="100" y="20" width="3" height="3"></rect>
                <rect id="Rectangle" opacity="0.200000003" x="80" y="20" width="3" height="3"></rect>
                <rect id="Rectangle" opacity="0.200000003" x="60" y="20" width="3" height="3"></rect>
                <rect id="Rectangle" opacity="0.200000003" x="40" y="20" width="3" height="3"></rect>
                <rect id="Rectangle" opacity="0.200000003" x="160" y="20" width="3" height="3"></rect>
                <rect id="Rectangle" opacity="0.200000003" x="140" y="20" width="3" height="3"></rect>
                <rect id="Rectangle" opacity="0.200000003" x="120" y="20" width="3" height="3"></rect>
                <rect id="Rectangle" opacity="0.200000003" x="100" y="0" width="3" height="3"></rect>
                <rect id="Rectangle" opacity="0.200000003" x="80" y="0" width="3" height="3"></rect>
                <rect id="Rectangle" opacity="0.200000003" x="60" y="0" width="3" height="3"></rect>
                <rect id="Rectangle" opacity="0.200000003" x="40" y="0" width="3" height="3"></rect>
                <rect id="Rectangle" opacity="0.200000003" x="160" y="0" width="3" height="3"></rect>
                <rect id="Rectangle" opacity="0.200000003" x="140" y="0" width="3" height="3"></rect>
                <rect id="Rectangle" opacity="0.200000003" x="200" y="20" width="3" height="3"></rect>
                <rect id="Rectangle" opacity="0.200000003" x="180" y="20" width="3" height="3"></rect>
                <rect id="Rectangle" opacity="0.200000003" x="200" y="0" width="3" height="3"></rect>
                <rect id="Rectangle" opacity="0.200000003" x="180" y="0" width="3" height="3"></rect>
                <rect id="Rectangle" opacity="0.200000003" x="120" y="0" width="3" height="3"></rect>
            </g>
        </g>
    </g>
</svg>