<svg xmlns="http://www.w3.org/2000/svg" xmlns:xlink="http://www.w3.org/1999/xlink" width="19" height="16" viewBox="0 0 19 16">
  <defs>
    <style>
      .cls-1 {
        fill: #00d8ff;
        fill-rule: evenodd;
        filter: url(#filter);
      }
    </style>
    <filter id="filter" x="119" y="904.969" width="19" height="16" filterUnits="userSpaceOnUse">
      <feFlood result="flood" flood-color="#fff"/>
      <feComposite result="composite" operator="in" in2="SourceGraphic"/>
      <feBlend result="blend" in2="SourceGraphic"/>
    </filter>
  </defs>
  <path id="Shape_19_copy" data-name="Shape 19 copy" class="cls-1" d="M119.011,919.193s7.8,5.161,14.289-2.114c1.54-1.724,2.654-4.261,2.743-8.1a8.246,8.246,0,0,0,1.948-2.127,5.837,5.837,0,0,1-2.2.659,4.216,4.216,0,0,0,1.7-2.272,6.378,6.378,0,0,1-2.5,1.006,3.828,3.828,0,0,0-4.62-.835c-2.867,1.325-2.032,4.519-2.032,4.519a10.381,10.381,0,0,1-8.015-4.26,4.149,4.149,0,0,0,1.086,5.41,3.215,3.215,0,0,1-1.642-.487,3.784,3.784,0,0,0,3.061,4,3.512,3.512,0,0,1-1.7.116s0.306,2.243,3.59,2.789A7.534,7.534,0,0,1,119.011,919.193Z" transform="translate(-119 -904.969)"/>
</svg>
